<?xml version="1.0" encoding="utf-8"?>
<!-- Generator: Adobe Illustrator 27.0.1, SVG Export Plug-In . SVG Version: 6.00 Build 0)  -->
<svg version="1.1" id="Layer_1" xmlns="http://www.w3.org/2000/svg" xmlns:xlink="http://www.w3.org/1999/xlink" x="0px" y="0px"
	 viewBox="0 0 750 500" style="enable-background:new 0 0 750 500;" xml:space="preserve">
<style type="text/css">
	.st0{fill:#FFFFFF;}
	.st1{fill:#000066;}
	.st2{fill:#BD1021;}
	.st3{fill:#FFC221;}
	.st4{fill:#5A3719;}
	.st5{fill:#7B3C20;}
	.st6{fill:#AA5323;}
	.st7{fill:#999999;}
</style>
<polygon class="st0" points="750,26.8 750,473.2 80.4,250 "/>
<polygon class="st1" points="750,26.8 80.4,250 750,473.2 750,500 0,500 0,0 750,0 "/>
<polygon class="st2" points="750,26.8 80.4,250 750,473.2 750,500 0,250 750,0 "/>
<g>
	<path d="M527.4,271.2c5.9,0.5,5.7,6.3,5.7,6.3l20.8,0.5c2.7-7.2,5.4-6.4,10.5-2.8c4.8,3.4,10,4.9,10,4.9c2-10.4,16.8-8.3,16.8-8.3
		c6.3-15,6.8-14.8,3.1-16.7s-5.3-5.1-5.3-5.1c-3.6-4.3-5.4-10.5-5.8-14.3c-0.4-3.8-4.8,1.9-5.6,0.7c-0.8-1.2-7.4-0.5-7.4-0.5
		c1.6,1.7-3.9,0.7-3.9,0.7c0.5,0.4,0,2,0,2c-0.5-0.7-4.7-1.4-4.7-1.4c-0.4,0.9-1.3,1.9-1.3,1.9c-2.3-1-6.8-0.8-6.8-0.8
		c-6.7-0.1-10.7,2-12.6,3.1s-8.6,4.5-14,9.8c-5.5,5.3-8.6,4.7-8.6,4.7c-1.6,5.9-14.7,13.1-14.7,13.1c-2.1,1.9-8.7,2.8-12,0
		s0-7.8,0-7.8c1.2-2.3,2.5-2.2,2.6-10.4c0.1-5.5,5.8-9.8,11.6-16.2c7.1-7.8,17.1-20.7,17.1-20.7c0.1,3.9,2.2,4.6,2.2,4.6
		c2-4,4.8-7.2,4.8-7.2c0.2,0.3,0.6,0.6,0.6,0.6c2.2-3,3.6-4.2,3.6-4.2c-0.8-0.3-6.9,0-12.7,5c-5.8,5-9.7,3.3-9.7,3.3
		c-4-1.3-4.4-4.4-4.4-4.4c-2.9-12.6,8.6-21.6,8.6-21.6c-15.5-3.7-4.3-23.3,14.9-31.6s19-12.1,19-12.1c1.1,1.3,2,3.5,2,3.5
		c0.2-0.2,1.6-2.3,12.6-7.1c11-4.9,16.4-9.1,16.4-9.1c1.4,2.7,1.1,4.7,1.1,4.7c30.2-10.6,60-34.9,60-34.9c0.9,2,0.4,5.1,0.4,5.1
		c4.9-4.5,22.7-15.1,22.7-15.1c0.3,6.8-5.3,9.4-5.3,9.4c0.6,1,1,2.7,1,2.7c2.9-1.6,16.5-11,16.5-11c5,4.3,0.5,11.3,0.5,11.3
		c1.8-0.3,3.1-1.8,3.1-1.8c1.3,7.3-6.8,13.7-6.8,13.7c1.4,0,3.8-1.4,3.8-1.4c-1.5,8-16.6,16.8-16.6,16.8c2.2,2,0.1,4.5-1.7,5.7
		c-1.8,1.2-5,3.7-4,4.8c1,1.1,7.7-3.6,7.7-3.6c1.2,3.3-7.4,9.9-7.4,9.9c6,0.8,22.6-6.8,22.6-6.8c-1.4,6.4-7.6,11.4-15.4,14.3
		c-7.7,2.9-7.3,3.3-7.3,3.3c1.4,1.1,12-2,12-2c-3.2,7.2-14.3,12.1-14.3,12.1c3.1,2.6,7.2-0.4,11.4-3.3c4.2-2.9,9.8-5.3,16.1-7.4
		c6.3-2.1,10.7-0.5,10.7-0.5c5.2-1.7,9.6,0.7,9.6,0.7c10,0.8,11,4.5,11,4.5c1.1,0.3,2,0.7,4.5,2.6c2.6,1.9,2.4,7.7,2.3,10.6
		c-0.1,2.9-0.9,2.9-1.4,3.6c-0.5,0.8-0.6,1.7-0.6,2.8s-2.5,7.8-18,7.9c-15.5,0.1-23.5,0-23.5,0c-1.3,0-2.8,0.8-2.8,0.8
		c-6.5,3.2-3.1-2.2-10.8,4.2c-7.8,6.4-11.7,5.3-11.7,5.3c-1.3,1.5-9.4,9.1-14,12.1c-4.6,3-3.8,2.7,0.2,4.5s10.2,0,10.2,0
		c-3.9,2.6-1.2,3.8-1.2,3.8c5.2-3.1,8.3-2,8.3-2c1.6,4.5-4.2,11.6-4.2,11.6c2.3,0.3,6.6,0,6.6,0c-1,3-5.3,6.4-8.5,7.4
		c-3.1,1-2.6,1.4-1.6,3.3c0.9,1.9,0.1,3.8,0.1,3.8c-5.5-3.8-5.7-0.4-5.7-0.4c-0.6,4.5-0.5,11-0.5,11c-3.9-2-4.1,0.7-4.1,0.7
		c-1,4.1-5.8,8.9-5.8,8.9c-0.2-2.6-2.5-3.2-2.5-3.2c-2.5,4.8-7,7.6-7,7.6c-0.6,4.1,0.5,9.9,0.5,9.9c-2.9-0.6-4-0.6-4.5,0.2
		c-0.5,0.7,0.7,1.1,0.7,1.1l38.3,1c0.5,0.1,2.8,0.3,2.9,4.5c0.1,4.2-3.3,4.4-3.3,4.4l-41.9-1c0,0,0.2,1.2-2,2.3
		c-2.2,1.2-1.5-1.3-2.1,3.9c-0.6,5.2-9-0.4-9-0.4c-1.3,2-4.6,4.6-4.6,4.6c-1.9-5.7-3.8-7.4-6.8-2.5c-3,4.9,5.4,4.1,5.4,4.1
		s49.2-7.3,51.9-7.5s5.6-0.1,6.8,3.7c1.2,3.8-6,4.4-6,4.4l-50.5,5.5c-1.1,3-5.3,2.8-5.3,2.8c0.3,2.9-2.7,4.7-4.2,5.7
		c-1.5,1.1-6.4,0.6-6.4,0.6c-5.9,4-8.8,0.9-8.8,0.9c-3.8,1.7-6.2,1-9.4-0.4c-3.1-1.4-2.9-5.2-2.9-5.2l-31.9,3.3
		c-1.5,0.5-2.5,1.5-2.5,1.5c1.1,1.5-2.3,4.8-2.3,4.8c1,0.7,2.8,2.5,3,6.5c0.3,4.2-5.1,4.9-2.4,7.8c2.7,2.9,7.7,0.5,13.2-2.1
		c5.5-2.6,10.9-2.3,13.3-2.3s8.9,1.7,13,3.1c4.1,1.4,5.5,0.6,5.8-1.5c0.3-2.1,2.1-2.7,2.1-2.7c-0.5,2.1,0.6,3,0.6,3
		c1.6,0.1,4.3-1.4,4.3-1.4c-0.3,1.5-2.3,2.5-2.3,2.5c-4,2.7,1.5,1.7,1.5,1.7c11-2.3,14.9-2,17.8-1.7c2.9,0.3,16.4,6,16.4,6
		c0.5-1.4,0.2-4.7,0.2-4.7c3.5,0.9,4.9,2.9,4.9,2.9c1.3-1.4,0.5-3.8,0.5-3.8c11.1,6.2-2.3,9-5.9,10.3c-3.6,1.2-3.5,2.7-3.5,2.7
		c3-0.9,5-1.3,7.5-1.5c2.5-0.2,1.6,0,7.5-1.2c5.9-1.2,8.9,1.3,8.9,1.3c-4.9,0.3-6.4,1.7-6.4,1.7c3.1,2.1,0.2,3.9,0.2,3.9
		c-4.5-5.6-8.3,0.2-8.3,0.2c1.5-0.2,6,0.7,7.3,1.5c1,0.6,3.3,1.8,6.2,3.1c4.1,1.9,3.3,0.7,6.5,1.9c3.2,1.2,2,4.2,2,4.2
		c-1.4-2.5-4.3-3.3-4.3-3.3c-0.3,3.3-3.6,3.9-3.6,3.9c4.1-4.6-4.8-6.6-8.9-6.5s-7.3,2.7-7.3,2.7c8.4,7.8,14.2,5.3,14.2,5.3
		c-1.1,2.9-8,1.7-8,1.7c3.2,2.4,2.9,4.2,2.9,4.2c-1.7-1.7-4.5-0.8-10.5-4.7s-11.4-2.6-11.4-2.6c5.9,6.3-2.2,10-2.2,10
		c-3,1.7,1.3,4,1.3,4c-3.7,0.7-4.2-3-4.2-3c-2-0.4-4.8,2-4.8,2c0.2-3.8,5.2-1.9,5.4-5.9c0.2-4-4.7-7.1-18.9-5.1
		c-14.2,2-18.4-2.6-18.4-2.6c-1.2,0-1.5,1.2-1.5,1.2c2.4,2.3,3.4,3.2,3,4.8c-0.4,1.6,0.8,2.1,0.8,2.1c-2.6-0.2-2.8-3.3-2.8-3.3
		c-0.1,1.3-0.6,1.4-1.5,2.7c-0.9,1.4-0.1,3.1-0.1,3.1c-1.1-1-3.1-2.1-1.2-4.9c1.5-2.1-3.1-4.9-3.1-4.9c-1.8-1.8-6.4-0.1-6.4-0.1
		c-9.7,1.9-15.4-4.2-15.4-4.2c-1.1,0-3.2-0.6-3.2-0.6c-10.2,4.6-19.2-5.3-19.2-5.3c-7.7,1.5-11.2-2.3-13.6-5.9
		c-2.4-3.6-2.8-3.9-5.9-5.8c-3.1-1.9-6-7.2-3.2-10c2.5-2.4,1.8-3,1.8-3c-4-6.7,7.2-8.9,7.4-10.5c0.3-2.4,2.6-3.8,5.1-4
		c2.5-0.2,2.5,0.1,4.2-1.6c1.7-1.7,4.8,0.4,4.8,0.4c0.7-0.5,6.2-4.8,11.1-2.6c4.9,2.2,9,0.6,9,0.6c3.5-0.8,32.2-4.7,32.2-4.7
		c1.9-2.8,3.2-6.1,11.1-7.9c7.9-1.8,13.9-6.7,13.9-6.7c-1.4-1.5-3.8-1.4-5-1.6c-1.2-0.2-3.7-2.3-3.7-2.3c-1.5,0.6-2.2,0.3-12.6,6.6
		c-9.3,5.6-9.5-5.6-9.5-5.6l-20.3,0c-0.4,4.3-3.6,6-3.6,6l-7.4,0.4c-4.1-2.2-4.2-9.4-4.2-9.4c-22.3,0.3-34.7,8.3-34.7,8.3
		c-25.2-12.9-45-15.8-45-15.8c30.7-3.3,46.9-11.9,46.9-11.9c16.9,10.1,32.8,10.4,32.8,10.4c0.6-6.1,4.7-7.6,4.7-7.6L527.4,271.2
		L527.4,271.2z"/>
	<path class="st3" d="M490.9,322.1c-6.4,3.8-5.2,5.8-4.7,7c0.6,1.2,0.6,2.3-1.1,4.1c-1.7,1.8-1.6,2.4-1.6,2.4
		c0.3,6.2,4.7,7.5,6.5,9.1c1.5,1.3,4.2,5.3,4.2,5.3c3.3,4.7,6.8,4.8,9.3,4.8s2.3-0.2,1-1.4c-1.2-1.1-3.8-3.2-3.8-3.2
		c3.4,1.2,6.7,4.8,6.7,4.8c6.5,7.1,12.5,6.2,15.2,5.8c2.6-0.4,2.2-1.9,2.2-1.9c-0.1-0.3-2.7-0.5-2.7-0.5c-9.8-0.9-12.7-7.3-12.7-7.3
		c5.9,5.8,15.1,7,18,6.9s2.7,0.7,2.1,0.9c-0.6,0.2-1.5,0-2.8-0.1c-1.3-0.1-1.3,0.2-1,0.8s1.5,0.6,3.1,0.6c1.6-0.1,0.3,0.1,4.3,3.2
		c4,3.1,14.1,0.6,14.1,0.6c-6.5-1.6-7.4-4.5-7.4-4.5c-8.8,1-12.4-4.3-12.4-4.3c-1.6-1.6-6.3-4-6.3-4c-5-2.1-5.8-6.7-5.8-6.7
		c1.4,2,4.1,4.3,7.6,5.2c3.5,1,4.4,1.5,4.4,1.5c-1.7,0.2-2.6-0.3-2.6-0.3c-3.5-1-1.5,0.4-1.5,0.4c3.8,3,4.9,2.8,4.9,2.8
		c10,1,5-3,5-3c7.1,1.7,8.3-1,8.3-1c1.5,3.1,6.9,2,6.9,2c-7.2,3.5-1.7,2.5-1.7,2.5c7.2-1.4,8.7,0.5,8.7,0.5c2,1.8,3.9,1.6,3.9,1.6
		s1.3,0,4.1,0.6c2.8,0.6,7,2.9,11,2.4c4-0.5,4.7,0.8,4.7,0.8c-0.8-0.3-2.5-0.5-5.6,0.9c-3.1,1.4-8.5,1.8-16.3,0
		c-7.8-1.8-8.4-1.6-8.4-1.6c1.9,1.4,3.5,3.3,3.9,4.7c0.4,1.4,1.7,1.4,1.7,1.4c0.6-1.7,2.9-2.5,2.9-2.5c1.5,1.4,5.7,3.3,5.7,3.3
		c0.5-0.9,0-1.6,0-1.6c3,2.9,6.5,2,6.5,2c1-0.7,0.7-2.3,0.7-2.3c1.2,0,1.4,0.7,2.3,1.3c0.9,0.6,3.6,0.2,3.6,0.2c-1-0.4-1.7-2-1.7-2
		c4-2.7,12.5-1.5,12.5-1.5c6.2,1.1,5.4,5.1,5.4,5.1c1.3,0.6,2.9,2.5,2.9,2.5c0.5-1.4,0.1-2.9,0.1-2.9c2.8,1.4,3.4,4.7,3.4,4.7
		c3.3-3.8-3.1-8-3.1-8c3.1-0.4,6.5-0.1,8.6,0.2c2.1,0.3,5.1,1.4,7.5,3.4c2.4,2,6.8,3,6.8,3c-0.1-0.8-2.5-2.3-3-2.6
		c-0.5-0.3-0.8-1-0.8-1c2.1,0.4,3.6,0.2,3.6,0.2c-7.5-4.6-9.4-6.8-9.4-6.8c2.8,0.4,4.4-1.4,4.4-1.4c-5.9,0.1-6.1-1.4-6.1-1.4
		c0.7,0.2,3.4,0.9,6.9,0.2c3.5-0.7,8.5,0,8.5,0c-2.6-4.1-12.5-3.4-15.6-3.2c-3.2,0.2-4.4-0.2-4.4-0.2c0.5-0.2,1-0.8,3.5-0.8
		c2.5,0,4.9,0.2,7.7-1.7c2.8-1.9,6.7-1.3,6.7-1.3c-0.9-1.9-5.4-2.5-9.3,0c-3.9,2.5-7.5,1.7-7.5,1.7c6.2-0.9,8-3.1,8-3.1
		c-1.9-0.5-2.9,0.2-6.6,0.9c-3.7,0.7-4.7-0.6-4.7-0.6c4.1-2.4,6.9-3.4,6.9-3.4c-3.5-0.7-6.7-2.2-6.7-2.2c-3.6,3.4-6.4,5.3-13.3,1.7
		c-6.9-3.6-10.5-3.2-10.5-3.2c6.1-3.6,12.3-2.1,16.9,0.7c4.5,2.7,5.9,0.5,5.9,0.5c-1.4-0.9-1.2-1.7-1.2-1.7
		c11,5.6,15.8,2.1,18.3,0.5c2.4-1.7-1.1-3.9-1.1-3.9c-0.2,3.6-4.8,5.2-8.3,4c-3.5-1.2-6.8-2.7-11.9-4.9c-5.1-2.1-11.5-1-17.4,0.2
		c-6,1.3-6.7,0.7-7.3,0.2c-0.5-0.5-0.8-1.9-3.9-0.7c-3,1.3-10.1-2.1-14.6-3.1c-4.4-1.1-11.6-0.5-17.9,3c-6.3,3.4-9.3,2.6-11.2,1.7
		c-1.9-0.9-3-3.2-1-5.3c2-2.1,2.2-2.7,2-5.7c-0.2-3-3.1-4.8-3.1-4.8c2.7-2.8,3.4-3.5,2.5-4.7c-0.9-1.2,0.5-1.2,2.1-1.9
		c1.6-0.7,0.9-0.8,0.5-1.7c-0.4-0.9-1.3-0.8-1.3-0.8c-3.6,0.2-5.7-0.9-5.7-0.9c-6-2.8-11.6,2.6-11.6,2.6c-3.4-2.6-4.2-0.9-4.8-0.3
		c-0.6,0.7-1.8,1.1-3.4,1.3c-1.5,0.1-3.7,0.7-4.4,2.1c0,0-0.7,1.1,0.2,2.3c0,0,0.9,1.4-0.8,3.1c-1.7,1.7-2.3,2.1-1.8,3.7
		c0.5,1.6,0.4,2.9-0.3,3.9c0,0-0.8-0.9-0.6-2c0.2-1.1,0.2-1.7-0.1-2.3c0,0-1.7,1.7-2,2.8c0,0-0.7-1.8,1.7-4.3s3.5-3.7,2.9-4.6
		C493.1,320.7,491.3,321.8,490.9,322.1L490.9,322.1z"/>
	<path d="M497.8,349c0,0-3-2.3-2.7-5.6s0.3-3.6,0-4.3c0,0-0.6,0.3-0.5,1.6c0,1.2-0.2,2.4-0.3,2.6c0,0-1.6-2.7-2.2-3.2
		c0,0,0.5-2.8-0.3-4c-0.9-1.2-1.7-1.3-2.7-0.9c-1.4,0.5-2.4,1.8,2.2,5.6c0,0,1.7,1.4,2.9,4.4C495.4,348.3,497.4,348.8,497.8,349z
		 M512.9,340c0,0-0.2-1.8,1.4-5.1c1.6-3.2,0.7-5.6,0.3-6.4c-0.4-0.8-0.6-0.5,1.1-1.9c2-1.7-0.8-3.9,2.6-6.9c0,0,2.2-1.9,2.7-2.7
		c0,0-3.5,1.9-5.9,2.9c-2.3,1-11.1,5.3-9.2,8.2c1.9,2.9,1.7,3.1,1.4,4.3c0,0-5.3-2.8-3.4-7.3c0,0,0.8-1.8,3-3.9
		c2-1.9,0.8,0.4,4.9-1.9c0,0,3.2-1.9,4.9-4.5c0,0-2.1,1.4-2.9,1.6c0,0-4.7,0.9-6.6,2.9c-1.9,2-6,5.5-4.6,9.4c0,0-4.7-0.6-5.8-5.5
		c0,0-8.7,10.8,9.6,15.8C506.5,338.9,509.8,339.8,512.9,340z"/>
	<path class="st3" d="M593.5,304c6.8-1,46.5-7,50.1-7.4c3.9-0.4,5.5-0.9,6.8,2.3c1.5,3.6-5.4,3.7-5.4,3.7l-47.3,5.4
		c-2.3,0.3-2.8-0.6-2.8-0.6c-0.4-0.8-1.2-1.8-1.7-2.4C593.1,304.9,592.5,304.2,593.5,304L593.5,304z"/>
	<path class="st4" d="M496.7,325.6c0,0-5.1,10.8,15,13.4c0,0,0.1-1.2,0.9-2.9c0.8-1.7,2.6-5.1,0.9-7.3c-1.7-2.2,1.4-1.1,1.8-3.9
		c0.5-2.9-0.3-2.5,1.1-4.4c0,0-6.3,2.3-8.7,5.1c-2.4,2.8,3.3,4.9-0.1,7.9c0,0-2.8-1-4.5-4.1C503,329.4,499.1,329.5,496.7,325.6
		L496.7,325.6z"/>
	<path d="M516.3,338.8c0,0,5,4.3,10.9,4.1s8.4-1.8,9.9-4.1c0,0,1.2,1.8,1.2,3c0,0,5.1-4.2,13.9-0.6s6.1,2.7,8.1,2.9
		c0,0-3.8-0.7-12.3,3.3C539.2,351.5,516.1,350.1,516.3,338.8L516.3,338.8z"/>
	<path class="st4" d="M508.1,319.8c0,0,2.2,0.3,4.5-2.2C512.6,317.6,509.6,318.2,508.1,319.8z M491.2,339.8c0,0-4.2-3.3-1.5-3.9
		C489.7,335.9,491.6,335.6,491.2,339.8z"/>
	<path d="M581.6,360.2c0,0,2.2-3.9,8.6-3.9c6.4,0,7.1,2.9,15.2,3.5c0,0-9.6,2.7-16.4,0.2C585.5,358.7,582.3,359.8,581.6,360.2z"/>
	<path class="st4" d="M518.5,341.7c0,0,9.5,5.8,18-0.5c0,0,0.7,0.7,1.3,2.2c0,0,6.4-6.2,17.9,0.5c0,0-1.4-0.2-6.8,2.2
		C541.9,349.1,524.3,351.1,518.5,341.7z"/>
	<path d="M555.3,347.5c0,0,9.1,1.1,16.9,0.6c4.7-0.3,9.9-1.2,7.3,0.5c-2.6,1.6-1.3,1.8,9.6,0.7c10.9-1-0.1,2.1,7.4,3
		C596.6,352.4,578.3,361.7,555.3,347.5z"/>
	<path class="st4" d="M579.3,341.7c0,0,5.4-2,10.3,0.4c5,2.3,4.2,2.5,7.5,2.9c0,0-2.3,3.3-7.8,0.6
		C583.9,342.9,582.5,342.4,579.3,341.7z M585.3,358.2c0,0,5.3-2.6,11.1,0.1c0.7,0.3,2.3,1,3.8,1.3c0,0-4.5,1.4-9,0
		C589.2,359,587.7,358.5,585.3,358.2L585.3,358.2z M559.2,348.8c0,0,11.7,1.1,18.1-0.2c0,0-7.4,3.6,11.1,1.9c0,0,4.1-0.5,3.6,0.2
		c-0.5,0.6-0.8,1.1,1.2,1.7C593.3,352.4,579.5,358.6,559.2,348.8L559.2,348.8z"/>
	<path d="M500.6,338.8c0,0,0.1,0.9,2.7,2.1c2.6,1.2,4,3.2,4.6,4.4c0.6,1.1,1.9,2.8,4,3.3c0,0-9.2,1.9-13.3-2.9
		C498.6,345.7,495.4,342.3,500.6,338.8"/>
	<path class="st4" d="M573,360c0,0-3.7-0.2-8.6-2c-5-1.7-6.3-0.3-9.1-2.4c-2.8-2.1-8.5-0.8-9.5-0.6c-1.1,0.2-4.1,0-0.3-2.4
		c0,0-3-0.1-4.2-1.6c0,0-1.4,1.3-6.4,0.8c0,0,2.3,3.5-6.8,2.5c0,0,2.7,3.1,6,3.8c3.3,0.6,4.6,0.4,6.7-0.2c0,0-0.6,2.7,3.6,3.8
		c4.2,1.1,5.1,1.9,7.2,2.7c0,0,0.3-1.8-5.3-5.9c0,0,3-0.2,7.3,0.9C557.9,360.6,567.7,363.2,573,360L573,360z M575.3,364.2
		c0,0,0.9,2.1,3.7,1.6c2.8-0.5,7.3-1.3,11.8,1c0,0,0.8-3.8-8.1-4C582.6,362.8,577.1,363.1,575.3,364.2L575.3,364.2z M500.2,340.1
		c0,0-3.4,2.8-0.3,5.7c2.8,2.7,7.2,2.4,9.3,2.4c0,0-1.3-0.7-2.4-2.4s-1.1-2.8-3.5-3.8C501,340.9,500.7,340.6,500.2,340.1z
		 M496.7,325.6c0,0-5.1,10.8,15,13.4c0,0,0.1-1.2,0.9-2.9s2.6-5.1,0.9-7.3c-1.7-2.2,1.4-1.1,1.8-3.9c0.5-2.9-0.3-2.5,1.1-4.4
		c0,0-6.3,2.3-8.7,5.1c-2.4,2.8,3.3,4.9-0.1,7.9c0,0-2.8-1-4.5-4.1C503,329.4,499.1,329.5,496.7,325.6L496.7,325.6z"/>
	<path d="M549.5,350.4c0,0,4.2-0.7,15,3.3s15.2,3,16.8,2.9c0,0-6.1,3.2-15.4-1C557.6,352,557,353.4,549.5,350.4L549.5,350.4z"/>
	<path class="st3" d="M616.8,348c0,0,2.5-0.1,3.9,0.6c0,0,0.9-0.8,3.2-1C623.8,347.6,622.3,346.1,616.8,348z M609.4,342.1
		c0,0,2.5-0.1,3.2-1.3c0,0-1.2-1.6-3.1-2.3C609.5,338.5,609.9,340.1,609.4,342.1z M526.9,314.6c0,0-0.5-1.2,2.1-1.6
		c2.6-0.4,36-5.1,36-5.1s1.8,0,2,1.2c0.3,1.3-0.2,2.2-8.3,3.1c-8.1,0.9-29.4,3.6-29.4,3.6S527.1,316.2,526.9,314.6z"/>
	<path class="st3" d="M559.5,313.2c0,0,0,4.7,4.8,5.4c4.7,0.7,6.3-0.3,7.5-2.8c0.3-0.6,1.8-5.6-0.3-6c-0.8-0.1-2.3-0.1-3.3,0.4
		c-1.6,0.7-3.1,1.5-2.6,2.3c1.1,1.7,1.4,2.1,0.9,2.3c-1.2,0.3-2-0.7-2.2-1.4c-0.3-0.9,0.6-1.4-2.5-1
		C560.6,312.7,559.5,312.6,559.5,313.2L559.5,313.2z"/>
	<path class="st3" d="M579.6,309.6c2.5,0.3,2.3,5.5-0.7,7.8c-3.2,2.5-6.2,1.6-6.2,1.6c-1.6-0.7-1.4-0.5-0.2-2.3
		c1.2-1.8,1.7-4.2,1.1-5.8c-0.2-0.5,0.4-1,1.2-1.1C574.8,309.7,577,309.3,579.6,309.6z"/>
	<path class="st3" d="M581.7,310c0,0,1.8,2.2-0.4,6.3c0,0-1,1.2,1.2,1c2.2-0.2,7-2.5,6.5-5.5c0,0-0.2-0.7-1.4-0.7s-0.2-0.7,0.3-0.9
		c0.5-0.1,2.2-0.8-2.1-3.5c0,0-0.7-0.6-1.5-0.4c-0.7,0.2-2.9,1.1-2.9,2.5C581.3,309.5,581.7,310,581.7,310L581.7,310z"/>
	<path class="st3" d="M586.4,306.3c0,0,3.4,2.5,3.4,3.2s-0.3,1.7,0.6,1.6c0.9-0.1,4.6-0.9,3.6-3.3c-1-2.5-2-3.3-3.8-3.9
		c-1.7-0.6-2.2,0.2-3.6,1.3C586.6,305.2,585.6,305.8,586.4,306.3z M567.9,309.7c0,0,0.6-1.8-2.5-2.5c0,0,1.3-1.1,3.9-0.5
		c2.6,0.6,2.3,2.3,2.3,2.5C571.6,309.2,569.5,309.2,567.9,309.7L567.9,309.7z M574.6,309.3c0,0,3.6-0.6,5.2-0.4c0,0-1.8-3.9-6.5-2.6
		C573.2,306.3,574.9,308.2,574.6,309.3L574.6,309.3z M580.7,308.3c0,0,0-1.2,3-2.4c0,0-1.5-1.4-3.5-1.3c-2.3,0.2-2.8,1-2.8,1
		S579.9,306.6,580.7,308.3z M581.9,304.2c0,0,1.9,0.5,3,1.5c0,0,1.8-1.9,3.3-2.4C588.2,303.4,585.2,301.8,581.9,304.2z"/>
	<path class="st4" d="M483.4,294.8c0,0,8.3-7,12.9-6.2c4.6,0.8,2.3,0.3,7.4-0.5c5.1-0.8,10.3-1.3,12.4-1.1c0,0-6.1-4.4-17.1-4.3
		c0,0-7.7,2.7-13,6.2c0,0-10.2-5.7-20.8-2.3C465.1,286.6,476.6,290.8,483.4,294.8L483.4,294.8z"/>
	<path class="st3" d="M571.2,306.9l1.4-0.2c0,0,2.3,2.9,0.6,2.9c-1.3,0-0.8-0.4-1-1.2C572,307.5,571.5,307.1,571.2,306.9z
		 M560.9,307.1c0,0-0.8,1,0.7,0.8c1.9-0.3,1.5,0.1,3.6-1.3c0,0,1.3-1.4,3.7-0.5c0,0,2,0.7,3.6-0.1s2-0.7,2.9-0.7
		c0.9,0.1,0.8,0.3,2-0.6c1.2-0.9,3.2-0.2,4.5-1.3c1.3-1.1,2.9-0.2,0-2.2c0,0-0.6-0.6-0.6-1.1c0,0,1.1,0.3,2,1.1
		c0.9,0.8,2.3,0.5,2.6,0.4c0,0,0.2-2.6,2.7-4.9s2.6-2.6,1.1-2.6c-1.5,0-4-0.6-4.9,0s-8.4,5.5-12.7,6.3
		C567.7,301.3,563.7,302.5,560.9,307.1z M444.4,280.2c0,0,13.4,3.5,16.4,4.9c0,0,0.7-2.2-5.4-4c0,0,14.8-0.5,30.4,6.7
		c0,0,7.5-6.5,31.8-4.5c0,0,0-2.1,0.2-3.8c0,0-17.1-0.5-32.7-10C485.2,269.5,471.2,276.4,444.4,280.2L444.4,280.2z M518.8,286.7
		c-0.9-13.7,4.3-14.9,4.3-14.9s2.5,0,5.2,0.4c0,0-4.1,4.9-3,14.7c0,0,0.4,1.6-3.1,1.6C518.7,288.5,518.8,286.7,518.8,286.7z"/>
	<path class="st4" d="M522.4,295.8c0,0-2.5-2.6-2.8-5.6c0,0-0.1-0.8,2.5-0.7c2.6,0.1,2.9-0.2,3.5,1.3c0.6,1.5,2.2,4.5,2.6,4.9
		L522.4,295.8L522.4,295.8z"/>
	<path class="st3" d="M527.9,288.9c-0.2-1.8-0.3-3.3-0.3-5.2c0.2-7.6,1.4-7,1.9-6l2.6,0c0,0-1.9-8.6-4.1-3.6
		c-2.2,4.9-2,8.2-1.8,12.1c0.2,2.2,0.5,3.6,0.7,4.5L527.9,288.9z"/>
	<path class="st4" d="M557.4,288.9c0,0,5,0.8-2.7,2.6c0,0,0.4,9.3,9.5,2.8c0,0,5.4-3.4,9.1-4.9c0,0,1.9-0.7,1.7-2.1
		c0,0,0.2-1.7-1.8-1.3c0,0-1.5,0-2.5-0.3c0,0-1.1-1.3-1.8-0.8c-0.7,0.5-2.4,0.2-1.1,1.8c1.3,1.6,1.7,1.2,2.4,0.7
		c0.7-0.5,3.5-1.6,0.9,0.8s-4.7-1.3-5.6-2L557.4,288.9L557.4,288.9z M532.2,290l-2.2-0.1c0,0-1.2,1.8-2-1l-1,1.8
		C527,290.7,529.7,300.8,532.2,290z"/>
	<path class="st3" d="M529,278.4c0,0-1.1,6.6,0.3,10.6l24.2,0.5c0,0-0.3-4.7,0.1-11.1h-3.4c0,0-0.5,5.3,0,8.5l-0.6,0
		c0,0-0.4-4.6,0-8.5h-2.8c0,0-0.5,4.9-0.1,8.6h-0.5c0,0-0.4-4.3,0.1-8.6h-2.8c0,0-0.5,4.4,0,8.5l-0.7,0c0,0-0.6-4.5,0-8.5h-3.1
		c0,0-0.8,4.1,0,8.6H539c0,0-0.7-4.2,0.1-8.6H536c0,0-0.7,4.7-0.1,8.6h-0.6c0,0-0.5-4.5,0.2-8.6h-2.9c0,0-0.8,4-0.1,8.6h-0.6
		c0,0-0.5-3.4,0.1-8.6L529,278.4L529,278.4z M554.6,290.4c0,0-0.7-11.9,1.6-14.9c2.3-3.1,2.7-2.5,6.6,0c3.9,2.5,8.9,5.1,9.7,5.4
		c0.8,0.3,1.9,0.6,1.9,2.8s0.4,2.8-2.9,0.1c-0.5-0.4-2.1-1.8-3.2-2.2c-3-1,0.7,0.7,1.8,2.2c0.9,1.3,1.6,1.2-0.7,1.8
		C567.1,286.1,559,288.8,554.6,290.4L554.6,290.4z"/>
	<path d="M563.1,281.9c0,0-1.8-2.2,0.5-2.7c2.2-0.5,2.4,3.5,2.8,5.9C566.8,287.5,563.6,282.7,563.1,281.9z M559.9,292.2
		c0,0-2.6,1-0.9,1.8s6.5-3.2,4.9-2.9C562.2,291.4,559.9,292.2,559.9,292.2z M563.4,288.6c0,0,2.3-0.2,1.9,0.8
		c-0.5,1-1.3,0.4-1.6,0.1C563.3,289.3,561.6,288.7,563.4,288.6L563.4,288.6z"/>
	<path class="st3" d="M575.7,285.5c0,0,0.6,4.5,4.5,5.7c0,0,2.2,0.6,1.8-1.4c0,0-0.4-1.7-0.7-2.3c-0.3-0.7-1.9-1.1-2-1.2
		s-0.4-0.6,0.7-0.2c1.1,0.4,1.2,0.4,1.2-0.4c-0.1-0.8-0.7-0.4-1.7-0.9c-0.4-0.2,0-0.4,0.4-0.3c0.4,0.1,1.4,0.4,1.4-1.2
		c0,0,0.2-0.9-1-0.9c-1.3-0.1-1.2-0.6-0.8-0.7c0.4-0.1,1.7,0.8,2.1-0.7c0.4-1.6-1.9-0.7-1.6-1.5s1.9,0.5,2-0.5
		c0.1-0.9,1.4-1.3-0.8-1.7c-1-0.1-0.1-0.6,1.1-0.4c1.2,0.2,2-1.4,2.7-1.9c0.7-0.5,4.8-2.9-0.6-2.1c-5.4,0.8-7,3.4-7.4,4
		C576.7,277.2,575.2,280.3,575.7,285.5L575.7,285.5z"/>
	<path class="st3" d="M588.3,289c0.7-0.1,1.4,0.1,1.6,0.5c0.9,1.8-1.2,1.2-2.3,2.5s-1.2,1.1-2.8,0.6c-1.6-0.5-2.2-2.9-2.2-2.9
		c-0.2-0.7,0.5-0.8,1.3-0.7C584,289,586.6,289.3,588.3,289L588.3,289z M582.4,288c0,0,0.1,0.5,1,0.6s3.6,0.3,5.2-0.2
		c0,0,0.6-0.1,0.3-1.2c0,0,0-0.7-1.5-0.4c-1.4,0.3-3.5,0-4.2-0.2C582.6,286.6,582.1,286.7,582.4,288L582.4,288z M582.2,284.7
		c0,0-0.1,1.4,1.4,1.6c1.4,0.2,3.2,0.2,4,0c0.6-0.1,1.6-0.3,1.7-1.2c0.1-0.8,0.3-1.5-1.5-1c-1.8,0.4-3.9,0.2-4.1,0.1
		C583.5,284.2,582.3,283.9,582.2,284.7L582.2,284.7z M582.9,281.8c0,0-0.4,0.7-0.3,1.3c0.1,0.6,1.1,0.8,3,0.9c1.9,0,3.5-0.3,3.7-0.9
		s0.6-1.4-0.9-1.1c-1.5,0.2-3.3,0.3-4.1,0C583.5,281.7,583,281.6,582.9,281.8z"/>
	<path class="st4" d="M651.6,289.1c0,0,0,1.3,1,2.6l-52-1.5c0,0,0.8-0.5,1-2.5L651.6,289.1L651.6,289.1z"/>
	<path class="st3" d="M583.3,279.7c0,0-0.5,1.3,0.5,1.6c0.9,0.3,2.5,0.6,4.7,0.2c0,0,1.1,0.1,1.4-1.1c0.4-1.1,0.3-0.5-2.7-1.1
		c0,0-1-0.3,1.8-0.3c0,0,1.5,0.1,1.8-0.2c0.2-0.3,2.3-1.9-0.4-1.8s-1.3-0.5,0-0.5c1.3,0,1.8,0.3,2.2-0.2c0.4-0.4,0-0.1-0.7-0.9
		c-0.7-0.7-0.2-0.5,0.3-0.1c0.5,0.4,0.8,0.5,1.4,0c0.6-0.5-0.5-1.3,0-1.2c0.5,0.1,0.7,0.9,2.4,0.1s4-0.4,4.6,0.1
		c0.6,0.5,2.4,1.1,3.5,0s-1.3-2-0.3-2.2c1-0.2,1.7,0.2,2.1-0.6c0.4-0.8-1.6-1.6,0.3-2.1c1.9-0.5,0.3-5.8-0.4-6.3c0,0-2.1,1.2-4.4,5
		c-2.3,3.7-3.7,5.9-6.8,4.8c-4.5-1.7-6.8,0.7-7.5,1.2c-1.1,0.7,2.3,1,0.3,1c-2,0-2,0.2-2.2,0.5c-0.2,0.3,0,0.6,0.3,0.6
		c0.4,0,1.1,0.8-0.1,0.7c-1.2,0-2.1-0.2-1.7,1.1c0,0,0,0.3,0.7,0.4c0.7,0.1,1,0.8-0.4,0.8C583.4,279.3,583.3,279.6,583.3,279.7
		L583.3,279.7z M588.1,292.7c0,0-0.9,0.7,0.4,0.7c1.3,0.1,2,0.3,2.4-0.4c0.4-0.7,2.1-0.4,1-1.4C590.6,290.8,589.9,291.3,588.1,292.7
		L588.1,292.7z"/>
	<path class="st3" d="M593.5,277.1c0,0,4.3-4.1,7.9-1.3c3.6,2.8,4,3.2,4,3.2c0.1,0.1,0.4,0.4-0.6,1.2c-1,0.9,0,0.8,1.1,0.3
		s1.2,0,1.7,0.5c0.5,0.6,1.2,0.9-0.4,0.9s-5.3,0-5.3,0s-2.4,0.2-1.2-0.8c1.2-1,1.1-2.2,0.4-2.3c-0.6-0.1-0.1,0.6-0.4,1.1
		c-0.4,0.5-1.2,0.9-2.1,0.9c-0.9,0-1.6,0.6-0.3,1.1c1.4,0.5-0.2,0.8-0.9,0.8s-4.1,0.3-0.7,0.7c3.4,0.4-0.3,0.3,2.2,1.8
		c2.8,1.6,0.8,5-0.3,5.3c0,0-1.2,0.6,0.3,0.5c1.5-0.2,2.3-0.4,1.2,0.4c-1,0.8-3.1,3.4-5.9,1.4c0,0-1.3-0.6,1-0.7
		c2.3-0.1-1.9-0.6-2.6-1.1s-3.4-3.2-1.7-2.9c1.7,0.3,1.1-0.6,0.1-1c-1-0.4-1.2-1.9-0.1-1.6c1.1,0.3,2.5,1,3.4,0.9
		c0.9,0,0.7-0.4-1.3-1c-1.9-0.6-2.7-0.7-2.3-2.3c0.5-1.6,2.6,0.6,2.1-0.6c-0.5-1.2-2.3-0.6-1.4-2.2c1-1.6,1.2-0.9,1.7-0.7
		s1.2,0.1-0.1-0.9C592.4,278.1,593.2,277.3,593.5,277.1L593.5,277.1z"/>
	<path d="M596.6,278.2c0,0,0-0.5,0.8-0.5c0.8,0.1,0.6-0.3,0.8-0.4c0.2-0.1,2.2,0.6,0.4,1.2C597.8,278.9,596.8,278.7,596.6,278.2
		L596.6,278.2z"/>
	<path class="st3" d="M600.7,282.8c0,0-1.5,0.7-0.1,2.3c1.1,1.3,1.1,1.7,1,2.6c-0.1,0.9,50,1.4,50,1.4s-0.1-3.2,2.1-5
		C653.7,284.1,626.3,283.4,600.7,282.8L600.7,282.8z"/>
	<path class="st4" d="M652.5,288.2c0,0,0.2-2.7,1.7-3.6c0.8-0.5,1.9-0.2,2.4,2c0.7,3.1-2,5.8-3.2,4.6
		C652.2,290,652.5,288.2,652.5,288.2L652.5,288.2z"/>
	<path class="st5" d="M595.1,299.9c0,0,3.3-2.8,3.8-4.1c0,0,9,6.4,8.5,0.5c0,0,0-1.6,0.3-3.1c0,0,3.3,0.3,3.8-2.3l-8.4-0.2
		c0,0-0.9-0.2-2.2,1.2c-1.3,1.4-4,2.9-6.5,1.6c0,0-1-0.9-2.1-0.1s-1.1,1-0.2,1.8C592.8,296.1,594.7,298.6,595.1,299.9L595.1,299.9z
		 M614.4,282.3l-4.9-0.2c0,0-1.8-2.5-5.3-5.4c0,0-1-0.5,1-2c2-1.6,2.6-3.3,2.6-4c0.1-0.8-0.1-2,0.6-1.1c0.8,0.9,5.9,5.5,6.6,4.2
		c0.7-1.4,0.9-2,1-2.4c0.1-0.4,0.3-1.7,1-0.4c0.7,1.3,1.2,1,1.3,4.4c0,0,0.1,3.4,0.7,4.7C618.9,280.1,612.4,278,614.4,282.3
		L614.4,282.3z M593,271.8c0,0,3.8,2.1,5.6-0.8c1.9-2.9,3.1-3.3,1.7-6c-1.4-2.7,0-4,1.1-5.1c1.1-1.1,2-0.9,2.1-5.3s3.2-5.8,4.5-7.2
		s4.8-3.4-0.4-4.3c-5.2-0.9-15.4-3.5-18.1-7.5c-2.7-4-3.9-1.6-3.9-1.5c-0.1,0.2-0.9,3.1,1.8,8.4s4.9,8.7,7.5,10.4
		c2.6,1.7,4.9,2.7,3.6,6.2C597.2,262.6,594.9,268.9,593,271.8z"/>
	<path class="st4" d="M606.9,260.5c0,0,0.7,9,7.3,12.3c0,0,1.5-3.5,0.9-7c0,0,2.2,0.2,2.8,1.2c0,0,0.1-2.6-3-3.6
		c-3.1-1-1.6-6.9-0.5-7.5s0.8-1.9,0-2.9s-1-2.7,1.7-2c2.6,0.7,2.2-0.7,0.7-2s-1.5-2.9,0.7-2.9c2.2,0,5.9-2.1,3.7-2.8
		c-2.2-0.7-2.9-1.4,0.1-2.3c3-0.9,4.5-2,2.2-2.2c-2.3-0.3-3.8-1.1-1.6-1.4s-0.4-2.6-3-2.7s-8.1,0.9-3.7-2.6c4.4-3.5-6.3-0.9-1.9-3.2
		s-1.5-1.3-2.3-1.3c-0.8,0-0.8,0-0.5-1.2c0.3-1.2-0.6-1.7-1.9-1c-1.3,0.7-1.3,0.7-1.2-0.9c0.1-1.6-1.5-0.4-2.5,0s-3.4,2.2-4.3,1.2
		c-1-1-1.5-2-4.5-0.2c-3,1.8-2.3,0.2-2.2-0.6c0.1-0.8,1.2-3.9-2.9-0.6c-4.1,3.3-0.8-3.6-4-1.2s-3.6,2.8-4.1,1.7
		c-0.5-1.1-1.1-1.9-4.6,0.3c-3.5,2.3-0.9-1.4-0.4-2.1c0.5-0.8,2-5.9-1.1-1.9c0,0-1.5,2.8-4.9-2.2c0,0-3.6,4.9-4.5,2.7
		c-0.9-2.2-1.8-2.4-3-1c-1.2,1.4-0.3-0.1-0.8-1.3c-0.5-1.2-0.8-3.4-6.7,0.9c-5.9,4.3,2.1,1.2-2.5,3.1s-15.4,8.1-5.4,6.7
		c10-1.4-4.9,3.9-1.4,4.9s2.4,4,15.4,0.4s10.9-0.6,17.5-3.4s-1.5,1,7.4,0.8c8.9-0.2,1.5,0,3.2,1.9c1.7,1.8,9.2,6.2,16.3,6.9
		s8.7-1.9,6.7,1.1c-2,3-2.7,4.2-3.9,5.3c-1.2,1.1-4.5,3.5-4.6,7.7c-0.1,4.2-5.5,4.9-3.5,9.5C602.1,265.2,605.2,262.1,606.9,260.5
		L606.9,260.5z"/>
	<path class="st4" d="M618.4,270.6c0,0-1.6-1.1-1.6-3.1c0,0,1.1,0.2,1.6,0.9c0,0,4-4.6-0.8-6.2c-4.8-1.7-2.4-6-0.8-6.1
		s1.9-0.5,0.5-2.3c-1.4-1.8-1.3-1.9,1.5-2.4c2.7-0.5,2.4-1.1,1.2-1.7c-1.2-0.7-2.2-1.8-2.2-1.8s7.8-3.4,5.2-4.9s0-1.2,2.2-2.8
		c2.2-1.6,2.5-1.9,2.9-2.5c0,0-2.2,0.2-3.8-0.1c0,0,1.9-1,0-2.5c-1.9-1.6-2.7-3-5.8-2.3c-3.1,0.7-2.1-0.3-0.9-1.6
		c1.2-1.3,0.6-2-1.5-2.3c0,0,0.3-1.3,1.9-2.9c0,0-4.2,0.3-5.6-0.4c0,0,1.7-1.2,1.8-2.5c0,0-2.3,0.8-5.2,0.5c0,0,1.7-1.5,1.7-2.8
		c0,0-5.1,1.1-7.4,2.9c0,0-0.5-0.1-0.9-0.7c-0.4-0.6-0.7-1.1-6.3,0.7c0,0,0.6-2.5,2-3.5c1.3-1,1.1-3-7.6,2.4c0,0-1.2-0.7-2.1-3.3
		c0,0-1.9,2.7-3.3,3.6c0,0-1.2,0.5-1.1-1.2s-0.9-0.5-1.8,0c-0.9,0.5-1.5,1.7-1.1-1.7s-1.2-4.1-1.2-4.1s-2.7,3.8-4.3,4.2
		c0,0-2.9-2.8-3.9-4.6c-1-1.8-1-2.5-2,0.7c-1,3.2-2.3,3.5-2.3,3.5s-1.7-1.5-1.9-2.3c0,0-0.3,0.9-0.9,1.2c0,0-1.5-1.8-1.5-4.3
		c0,0-9.3,5.1-10.5,8.3c0,0-8.8-0.5-12.5,0.2c0,0,0.9-2.9,3.2-4.3c0,0-2.3-0.3-2.4-2.6c0,0,1.9,0.3,3,0c1.2-0.3-1.6-3.6,1.3-3.7
		c2.9-0.1,4.8,1.4,3.5-2.5c-1.3-3.9-0.7-3.9-0.7-3.9s5.1,3,5.9,2.3c0.8-0.8-0.7-2.4,3.9-1.6s3.3-1.8,5-2c1.8-0.1,2.7,1.1,1.6-7.1
		s5.5,4.1,1-8.3c0,0-1.1-3.7-3.8-5.3c0,0-0.6,2.7-3.6,0.3c-3-2.4-9-3.2-6.5-5.1c2.5-1.9,3.7-4.4,3-6c0,0-3,3.1-8.1,0.9
		c-4.1-1.7-4.9,1.5-9.1,0.5c0,0,0.1-1.1,3.6-3.8s-2,0.9-4.2,1.4c-2.2,0.5-2.8,0.1,1.8-3.5c4.6-3.6,13.7-9.9,12.5-15.1
		c0,0,2.2,2.7,7.8,0.8c5.7-2,9.9-2.7,11.6-5.6c1.7-2.9,6.2-5.9,7.3-6.5c1.2-0.6,2.7-1.1,1,1.7c-1.8,2.8-4.6,7.5-12.4,10.8
		c-7.8,3.2-10.8,5.6-12.2,7.3c-1.4,1.7-8.5,5.5-3.9,4.8c4.6-0.6,12.6,0.1,8.9-1c-3.8-1.1-8,0.7-4.6-2.5s4.1-4.2,9.1-6.3
		s10.6-6.9,10-1.8c-0.6,5.1-9.9,10.6-12.2,12.2c-2.3,1.7-1.5,1.4-1.4,2.1c0.1,0.7-0.4,2.1-1.3,2.7c-1,0.6-0.7,1.4-0.4,2.8
		c0.3,1.4-0.3,2,0.5,2.2c0.7,0.2,1.4,0.3,1.6,1.4c0.2,1,0.7,1.1,2.1,1c1.4-0.1,2.2,0,2.3,0.8c0.1,0.8,1.4,1.9,1.5-0.5
		c0.2-2.4,1-2.9-1.4-1.8c-2.5,1.1-3,0.7-2.9-0.4c0.1-1.1-0.2-0.9-1.3-1s-1.4-1.5,0.5-2.5c1.8-1,1.8,0,4.1-1.9
		c2.3-1.9,2.3-2.4,2.6-3.3c0.4-0.9-3.3,2.6-5,3.4s-1.3-0.5-1-2.5c0.3-2,4.6-4.5,6.6-4.6c2,0,6.4,1.1,4.5,3.8c-1.9,2.7-7.4,5.9-5,6.2
		c2.4,0.2,2.7-0.7,4.1,0.5s0.1,3.6-0.5,4.9s-1.9,2.9-2.5,3.2c0,0-2.5-4.4-2.4-0.9c0.1,3.5-0.5,4.8,0,4.9c0.5,0.1,3.3,2,4.2,2
		s-4.8,2.6-2.4,2.8c2.4,0.2,6.1-1,7.4-3.5c0,0-4.8-1.2-6.7-3c0,0,5.6-1.3,4-6.7c0,0,5.6,1.5,3.2,4c-2.4,2.5-3.9,2.1-1.8,2.9
		s3.1,1.3,3.1,1.3s1.4,0.7,0.6,1.9c-0.8,1.2-0.8,2.9-0.1,2.9s3.1-1.1,1.1-2.3c-2-1.2,2.3-1,0.5-2c-1.8-1-2.3-1.3-2.8-1.7
		c-0.5-0.5,22.7-14.1,11-9c0,0,2.4-5.3,5.8-5.3c3.4,0,3.7,2.7,1.7,4.7c-1.9,2-3.2,5.2-7.7,6c0,0,6.5,3.2-1.2,8.4
		c0,0-1.7,0.8-1.1,1.4c0.6,0.6,5.2-2,5.8-3.5c0.6-1.5,1.6-2.6,3.3-3.4c1.7-0.9,10.3-6.7,12.9-11.1c2.6-4.4,3.3-4.6,8.3-8.6
		s4.1-3.2,4.8-4.2c0.6-1,0.9-2.6,3.2-3.9c2.3-1.3,11.3-6.3,14.1-8.3c2.8-2,8.6-5.8,11-8.9c2.5-3.2,9.1-7.2,10.8-6.4
		c1.7,0.7-0.2,3.1-4.1,6.1c-3.9,3-13.6,10.8-15.2,12c-1.6,1.2-9.8,7.2-12.9,7.6c-3.1,0.4-2.7,1.5-4.6,3.5s-6.1,6.2-7.5,7.4
		c-1.4,1.2-4.9,3.5-5.1,5.2c-0.2,1.7,0.6,1.9-2.1,4.4s-10.8,8.4-13.7,9.3c0,0,5.2,1.7,2.1,5.2s-2.9,3-3.1,3.2c0,0,7.8-1.2,2.3,4.9
		c0,0-1.1,1.8,1.4-0.1c2.6-2,1.5-4.6,1.2-5c0,0,4.1-2.6,8.9-2.7c4.8-0.1,4.6-0.4,0.3-1.6c0,0,3-3.7,5.6-1.9s1.7,2.9-1,4.3
		c-2.7,1.5-6.7,2.1-9.7,3.7c0,0,5.7,1.1,8.7-1.2s3.2-1.2,3.6-0.8c0.4,0.4,0.7,1.2-0.6,3.1c-1.3,1.9-1.5,2-1.4,2.5
		c0.1,0.4-0.1,1.8-2.8,2.2c-2.7,0.5-4,1.6-3,2.9c0.9,1.3,1,4.5-1.4,4.2c-2.3-0.3-1.7-2.2-2.6-2.9c-0.9-0.7-2.2-1.9-6.3,0.3
		c-4.1,2.1-4.4-0.4-4.2-1.7c0,0-2.6,2.3-4.9,0.2c-2.2-2.1-0.2-3,1.1-4c1.3-1.1,6.5-3.3,3.3-2.9c-3.1,0.4-7.8,0.6-8.8-1.8
		c-1.1-2.4,2.3-2.1,2.8-1.9c0.5,0.2,2.7,2,2.8-0.3c0.1-2.3,3.5-2.6,2.3-3.1s-2.8,1-3.3,1.6c0,0-2.4-3.4-6.3-2.3s1.2,0.7,2.3,0.8
		s0.4,2.1-3,5.2c-3.5,3.1-1.9,2.2,0.7,2.2c2.6,0,8.9,0,5.2,3c-3.7,3-5.2,4.5-7.1,4s0.2-1.8,1.1-2.3s1.3-1.5-0.5-0.8
		c-1.8,0.7-2.4,0.8-3.9-1.8c-1.4-2.6-0.8-1.8-0.2-3.5c0.6-1.7,2-3.5,0.3-2.8c-1.7,0.6-1.5,0.7-1.4-1.3c0.1-1.9-1.9-2.4-1.9-2.4
		s0.8,1.9,0.1,3.2c-0.7,1.2-0.8,1.7,0.4,2c1.2,0.3,2.3,1.4,0.7,2.5c-1.6,1.1-1.4,1-0.4,1.7c1,0.7,2.5,1.5,0.9,3
		c-1.6,1.6-0.3,1.1,0.5,1.1c0.8,0,2.6,0.7,2.6,2.2c0,1.6-0.1,1.9,2.5,0.5s7.8-1.3,7.8,0.8c-0.1,2-0.7,2.5,2.1,0.8
		c2.8-1.7,4,1.6,5.9,0c1.9-1.6,3.1-3.2,5.3-0.4c2.2,2.8,1.5,3.6-1.2,5.6c-2.7,2,1.3,0.5,3.3-0.6c2-1.1,7.8-1.8,11-0.3
		s4.2,1.1,6.6,0.1s3.6-1.2,7.3,1.2c3.6,2.4,6.5,2.9,8.4,2.8c0,0-4,1.6-8.6,1.9c-4.5,0.3-6.8,1.2-7.7,1.9c0,0,2.7,1.7,3.3,3.7
		c0,0,3-0.4,4.5,0.2c0,0-0.8,2.2,1.1,3.3c1.8,1.2,3.1,1.6,1.7,3.2c-1.4,1.6,2.1,0.9,0.1,3.1c-2,2.2-2.5,3.4-2.6,5.2
		c-0.1,1.8,0.4,2.1-1.3,2.3c-1.8,0.2,0.3,2.2-0.5,4.5c-0.8,2.4-5.8,2.1-5.6,8.4c0,0,1.4-3.1,4.3-5.8c2.9-2.7,3-3,3-4.6
		c-0.1-1.6-0.2-1.3,1.4-2.5c1.6-1.2-0.7-2.4,0.9-4.1c1.6-1.8,0.2-1.4,2-3.2c1.8-1.8-1.6-2,0.3-3.8c1.9-1.8-4.5-3.9-2.7-5.1
		c1.8-1.2,5-2.8-5.7-2.6c0,0,2.6-4.3,11.6-3.3c0,0-2.4,1.7-2.6,3.3c0,0,1,0.5,1.7,0.7c0,0-0.3,1.2-2.1,2.7c0,0,4.8,2.7,5.6,4.3
		c0,0-2.9,0.9-3.6,2.2c0,0,1.3,1.5,1.7,3.3c0,0-3.2-0.4-3.7,2c-0.4,2.4-1.4,0.8-1.4,2.2c0,1.4,0.1,2-1,2.2c-1.1,0.2-0.2,1.4,0,2.2
		c0.2,0.8,0.6,2.6,0.4,3.2c0,0-1.6,0-2.4,0.3c0,0,0.5,3.5-1.4,4c-1.9,0.5,1,1.2-1,1.6c-2.1,0.4-1.8,0.5-4.3,5.1c0,0,2.2-1.2,4.4-2.7
		c2.2-1.5-0.2-1,3.5-4.7c3.7-3.7,3-3.9,2.7-5.8c-0.3-1.9-0.4-3.4,1-5.1c1.3-1.8,1.8-3.8,6.5-3.5c0,0-1.4-3.2-3.1-4
		c0,0,2.3-1.6,4.7-1.8c0,0-2.1-2.5-6.4-5c0,0,3.5-3.1,4.4-4.5c0,0-1.6,0.3-2.9-0.1c0,0,0.6-1.5,3.8-3.6c0,0,1.7,1.7,1.6,3.4
		c0,0,5.5-3.2,8.6-2.8c0,0,1.6,4-6.1,11.4c0,0,4.7,0.5,6.7,0.2c0,0-1.1,3.7-6.9,5.8c-5.7,2.2,1.2,4.7-4.6,4.2
		c-5.9-0.4-4,1.6-3.9,4.6s0.4,6,0.2,6.9c0,0-4.7-1.5-4.6,3c0.1,4.5-2.4,5.5-2.9,5.9c0,0-1.4-1.2-3.4-1.9
		C626,261.9,623.1,267.4,618.4,270.6L618.4,270.6z"/>
	<path class="st5" d="M611.8,213.8c0,0,1.6-0.3,4.3,1.4c2.7,1.7,5.4-1.8,2.4-2.7c-3-0.9,0.1-2,2.8,0.2c2.7,2.2,3.8,1.1,4.8,0.3
		s2.2-1.2,0.4-2.4c-1.9-1.3,1.3-0.7,2.7,0.2c1.4,0.9,0.9,1.8,0.7,2.1c-0.2,0.3-0.4,3.2,2.4,0.5c2.8-2.7,4.1-5.5,4.1-6.8
		c0,0,1.5,0.9,1.7,2.7c0.2,1.7,2.3-0.9,3-1.9c0.7-0.9,1.9-3.3,1.8-5.1c0,0,1.9,2.9,4.6,0s1.6-1.1,4.9-1.9c3.3-0.9,7.5-3.3,9.7-6
		c2.3-2.7,2.4-0.9,5.3-1.6c2.9-0.7,8.8-4.7,9.3-6.9c0.6-2.2,0.5-3.6-0.4-2.8s-0.5,0.2-1.8-0.6c-1.3-0.8-3.1,1-3.1,1s1.9,1.4,0.5,2
		c-1.4,0.6-2.8,2.6-5.4,1.8c-2.7-0.8-5.4,2.4-5.4,2.4s2.3,1.9-0.8,3.1c-3.1,1.2-2.6,1.6-4.5,0.3c0,0-3.3,4.2-5.2,5.1
		c0,0-0.9-0.1-1.5-0.9c0,0-2.2,2.4-3.3,2.9c0,0-1.4-1.3-2.6-1.7c0,0-2.6,3.2-4.8,4.2c0,0-0.7-1.2-2.1-2c0,0-0.7,4.2-5.3,6.7
		c0,0,0.3-1.1-2-2.7c0,0-5.7,5-8,5.4s-0.2-1.1,0.2-1.7c0.3-0.6,1.7-2.7-1.1-3.6c-2.8-0.9-2.3,0.6-2.9,0.9c-0.6,0.3-0.7-0.5-2.5-0.2
		c-1.9,0.3-1.6,1.1-2.4,1.4c-0.8,0.3-4-0.5-3.9,1.6s1.7,3.6-1.2,4.8C604.2,214.6,608,214.4,611.8,213.8L611.8,213.8z"/>
	<path class="st4" d="M623.3,207.8c0,0,0.7-2.7-1.7-4c0,0,15.2-2.3,3.7-8.1c0,0,13.6-2.8,10.4-7.2c-3.2-4.4-6.3-3.4-6.8-3.3
		c-0.5,0.1,2.9-2.5,3.8-2.2c0.9,0.3,11.8,4.5,9,0.9c-2.8-3.6-2.6-3.4-3-4.4c0,0,3.6,0,9.1,5.3c0,0,1.2-1.2,1-3.4
		c0,0,3.9,1.1,5.1,2.3c0,0,0.7-1.4,0.4-2.1c0,0,3.4,1.8,4.5,3.7c0,0,1.6-1.4,1.8-2.9c0,0,3.4,1.4,4.2,2.4c0,0,1.1-1.5,0.7-3.6
		c0,0,5.6,1.7,6.3-1.8c0,0,5.6,1.2,2,3.4c-4.7,2.8-0.5-0.7-5.3,2.7c-3.7,2.6-5.8,5.6-7.6,5c-1.3-0.5-2.9,3.4-4.7,1.5
		c-1.8-1.9-1.8-1-3.1,0.9s-3.2,3.9-3.2,3.9s-1-0.6-1.7-1.3c0,0-1.1,1.8-2.5,3.2c0,0-1.1-1.5-2.9-2.4c0,0-2.8,3.2-4.5,4.3
		c0,0-1.6-1.6-3.3-2.1c0,0-0.3,4.3-3.6,6.5c0,0-0.7-1.4-2.9-2.3C628.7,202.8,627,205.5,623.3,207.8L623.3,207.8z"/>
	<path class="st4" d="M615.4,201.2c0,0-1.8,1.4-0.7,2.9c1.2,1.5,1.3-0.3,2.8-0.4c1.5-0.2,20.1-3.3,3.3-8.4c0,0,0.7-0.6,3.6-0.9
		c2.9-0.3,13.4-3.1,8.5-6.9c-4.9-3.8-9,1.3-4.9-3.2c3.3-3.6,0.7-5.4,0.7-5.4s-9.8,6.5-11.9,7.7c-2.2,1.2-5.3,3.5-1.6,4.7
		c3.7,1.2,6.2-4,6.5-2.8c0.4,1.2-7.4,5.4-6.3,7.4c1.1,2,0.9,3.6,2.8,3.3c1.9-0.4,7.1,1,2.9,0.8C616.8,199.9,615.4,201.2,615.4,201.2
		L615.4,201.2z"/>
	<path d="M622.1,191.8c0,0-1.7,1.2,0.6,0.6c2.3-0.6,6.8-1.6,5.9-2.7C627.7,188.5,624.7,189.9,622.1,191.8z"/>
	<path class="st5" d="M651.9,172.4c0,0,8.6-0.2,12.2,2.2s5.3,4,6.3,4.3c0,0-0.2,3.3-5.7,0.9c0,0,0.3,1.6-0.3,3.1c0,0-2.1-1.4-4.4-2
		c0,0-0.4,1.2-1.2,2c0,0-2.5-2.5-5.2-3.2c0,0-0.6,1.2-1.1,1.7c0,0-3-1.7-5.2-1.7c0,0,0.5,1.8,0,2.5c0,0-6.3-4.9-11.8-4.3
		c0,0,2.7,3.9,4.5,5.9c0,0-11.3-0.9-9.4-7c1.9-6.1-0.2-4.6,7.2-4.5C645.2,172.5,651.9,172.4,651.9,172.4z"/>
	<path class="st4" d="M599,189.2c0,0-1.3,1.1,0,2c1.3,0.9,5.8-2.3,6.4-2.8c0.6-0.5,2.2-0.4,0,1.3s-4.5,3.5-5.9,5.3
		c0,0,7.5-2,12.3-6.2c4.9-4.2-0.2-1.5,8.1-5.5s12.6-10.4,8.2-9.8c-4.5,0.7-8.5,5.8-11.9,7.7s-5.4,2.2-4.9,1.1
		c0.6-1.1,3.1-0.7,7.9-4.5c4.8-3.8,3.7-3.6,3.8-4.9s-1.8-4.7,5.4-8.4c7.2-3.8,29.5-16.8,31.4-21.3c0,0-6.5,0.7-15.1,7.1
		c-8.6,6.3-13.2,9.3-15.5,10.1c-2.4,0.8-2.1,0.3-3.6,2.1c-1.6,1.8-10,10-11.6,11.2s-2,2-2.1,4.4C611.6,179.2,601.9,186.5,599,189.2
		L599,189.2z"/>
	<path class="st4" d="M628.5,172.2c0,0-1.7,0.8-3.3,0c-1.6-0.8-1.1-4.2,2.8-6.3c3.9-2.1,10.9-5.1,14.4-5.6c0,0-0.5,4.5-11.6,8.2
		C630.8,168.6,631.5,170.9,628.5,172.2z"/>
	<path class="st6" d="M632.4,169.3c0,0,0.3,1.1,0,2.1c0,0,20.6,2,31.3-10.6c0,0-14.6,1.4-20.4,4.8c0,0,3.7-4.6,14.6-8.4
		c10.9-3.8,15.4-8.5,16.4-11.1c0,0-13.8,4.8-20.4,4.8c0,0-1.3,0-2.6,0.7s-10.1,7.1-12.4,8.2c0,0,5-0.4,6.7-2
		C645.5,158,642,167.3,632.4,169.3L632.4,169.3z"/>
	<path class="st4" d="M592.9,181.1c0,0-2.7,1.9-1.6,2.8s3,1.1,7-2.3c4-3.4,13.8-11.8,7.6-12.1c0,0-7.9-0.5-7.6,4.4
		C598.7,178.8,593.3,180.8,592.9,181.1z M574.6,178.2c0,0,5.2,3,3.3,5.6c0,0,16-13.6,11.5-16.5c-4.5-2.9-8.1,2.6-7,3.2
		c1.1,0.6,3.5-0.5,2.6,0.6C584.2,172.1,575.6,177.8,574.6,178.2L574.6,178.2z M570.5,173.9c0,0,3.5,1.1,3.7,2.6s10.6-7.4,7.8-11.1
		c-1.3-1.7-7.1-2.4-7.3,0.9c-0.3,3.3,5.2-0.3,3.3,2.1C575.4,171.5,571.2,173.3,570.5,173.9z M608,166.4c0,0-2.2,1.6-0.2,2.6
		c2,1,3.3-0.6,4.3-1.5s6-4.5,7.1-6.9c1.2-2.3,2.9-3,4.7-4.2c1.8-1.2,14.6-7.5,22.4-14.6s4.6-5.2,12.7-9.7
		c8.1-4.5,13.4-8.6,15.2-13.5c0,0-3.8,1.2-7.1,3.4c-3.3,2.1-10.8,6.8-12.3,7.5c-1.5,0.6-3.6,0.8-4.7,1.9c-1.1,1.2-1,2.6-4.9,5.8
		c-3.9,3.2-24.1,17.5-26.6,19.5C616.1,158.8,608,166.4,608,166.4L608,166.4z"/>
	<path class="st6" d="M591.8,171.2c0,0,2.2-1.2,6.4-0.9c4.1,0.3,20.5-15.6,25.3-18.8s19.6-13.9,21.6-15.9c2-2,2.3-4.1,4.1-5.2
		s3.3-1,7.4-3.3c4-2.3,23.3-13.8,22.1-20.5c0,0-28.7,17.2-35.3,22.8c-6.6,5.6-25,18.3-28.3,20.4c-3.3,2.1-5.9,5.6-11.4,10.1
		C598.1,164.3,592.7,168,591.8,171.2L591.8,171.2z"/>
	<path class="st6" d="M585.7,165.1c0,0,5.3-0.5,6,2.1c0,0,11.4-7.8,14-11c2.6-3.2-0.9-1.4,5.6-5.6c6.5-4.3,28-19.3,31.1-22
		s8.9-6.3,13.6-9.4c4.7-3.2,23-12.1,20.9-19.5c0,0-13.4,9-16.5,11c-3,2-4.3,0.9-7.4,3.3s-9.8,7.2-11,8.7
		c-1.2,1.5-11.5,9.4-16.5,12.8c-5,3.4-16.3,9.9-21.7,14.6C598.5,154.6,588,163.3,585.7,165.1L585.7,165.1z"/>
	<path class="st6" d="M569.2,163.5c0,0,2.7,0,3.5,1.1c0,0,5-4.4,10.3-0.1c0,0,19.4-13.1,21.3-16.4s5.1-3.4,12.6-8.9
		s12.3-7.8,17.3-11.7c5-3.9,9.2-8.3,12.8-10.7c3.6-2.4,12.7-8.3,11.2-13.5c0,0-7.4,4.2-12.2,9.5c-4.8,5.3-4.4,0.8-9.3,5.2
		c-4.9,4.4-12.4,10.4-18.7,13.5c-6.3,3.1-2.5,2.8-7,5.7c-4.5,2.9-4.2,2.5-5.9,2.9c-1.7,0.4-4.2,1.6-5.9,3.6c-1.7,2-6.2,4.6-11,7.4
		C583.3,153.8,571.3,160.9,569.2,163.5L569.2,163.5z"/>
	<path class="st6" d="M575,153.5c0,0-1.1-2.2,0.8-3.7c1.9-1.5,5.2-5.6,5.8-8.1s0.2-2.1,5.5-4.4c5.4-2.2,17.6-7.9,24.4-12.2
		c6.9-4.2,17.3-11.1,19.5-12.7c2.2-1.7,7.4-5.3,9.5-7.1c0,0,1,2.9-1.3,4.9c-2.3,2-11.2,8.2-12.6,9.2c-1.5,1-9.6,6.5-12.1,7.8
		c-2.5,1.4-8.7,4.5-10.9,6.4c-2.2,1.8-1.9,2.4-11.8,7.2c-9.9,4.8-10.3,5.3-10,5.7c0.3,0.4,4.7-1.5,6.8-2.8
		c2.1-1.2,10.2-4.9,12.6-6.8c2.4-1.9,6.5-4.9,8.2-5.9c1.8-1,16.3-9.7,20.5-12.8s5.3-4.1,6.2-3.6c0.9,0.5,2.4,0.6,0.5,2.3
		c-1.9,1.8-7.8,6.9-10,8.4c-2.3,1.5-9.3,5.7-11.3,6.7c-2,1-2.7,2.9-3.8,3.7s-4.3,3.1-8.2,4s-4.6,3.8-7.2,5.5s-20.8,11.5-21.3,11.9
		C574.7,157.2,575.8,156.1,575,153.5L575,153.5z"/>
	<path class="st6" d="M638,112.6c0,0-1,0.9-0.5,1.4c0.7,0.7,3.3,2.4,6.4-0.7c3.2-3.1,11.7-10,14.4-11.6s4.1-3.2,4-5.4
		C662.4,96.3,649.3,103.3,638,112.6z M656,111.4c0,0,2-3.3,6.9-6.5c4.9-3.2,12.3-7.7,13.3-8.9c0,0,1.8,2-2.1,4.4s-11.4,7.4-12.3,8.1
		C660.9,109.3,659.4,110.4,656,111.4z"/>
	<path class="st5" d="M556,147.8c0,0-5.5,2.9-3.5,4.8c2,1.8,4.9,1.3,6.1,0.8c1.2-0.5,3.5-1.1,3.9-1.2c0.4-0.1,5.1-1.5,6.3-3.7
		c1.2-2.2,4.4-4.8,7-6.6c2.6-1.8,3.5-3.7,3.1-5C578.8,136.8,557.3,147,556,147.8z M523.5,173c0,0,3.8-2.2,9.1-0.8c0,0-0.3-1.3-1.1-2
		c0,0,6.4-1.7,7.8-4.5c1.4-2.9,1.7-2.3,3-3.1s9.9-7.8,8.9-9.3c-1-1.5-1.2-3.5-2-4.2c0,0-1.8,2.5-10.2,6.6
		c-8.4,4.1-17.8,7.2-24.6,16.4c-6.8,9.2-6.1,14.5,2.2,16.9c0,0,5.9-3.7,20.2-2.4c14.3,1.3,19.2,6.6,20.1,7.6c0.9,1,3.8,4.5,1,10.5
		c0,0,2.9,1.2,3.1-1.5s0.4-2.1,1.1-1.7c0.7,0.4,1.5,0.5,1.2-1.6c-0.3-2.1-1.3-6.8-2.6-8.4s0.2-0.9,1-0.6c0.9,0.3,3.9,2.8,2.1-1.7
		c-1.8-4.5-2.3-2.3-2.3-2.1c-0.1,0.2-0.4,1.4-4.3-1.6s-7.5-4.4-10.1-5.1s-0.8-0.8,0.8-1.3c1.6-0.6,3.7-0.9,4.4-2.6
		c0,0-1.6,0.4-4.4-0.6c-2.9-1-8.6-1.1-13.2,2.3c0,0,1.5-5.3-2.8-5c-4.2,0.3-7.2,0.2-11.6,3.7c0,0-0.3-5.4,4-8.1
		c4.2-2.8,3.7-1.1,6-1.8c2.4-0.7,2.6-3.1,1.6-3.8c0,0,5.5,0.9,14.8-6.8c0,0-5,6.5-11,7.8c0,0-1,3.5-6.5,4.2
		C523.3,169.1,523.5,172.2,523.5,173L523.5,173z"/>
	<path class="st4" d="M507.7,204.9c0,0,2.7-16.2,17.9-17.4c13.3-1,17.5,0.6,20.1,1.5s9.1,2.8,6.6,4.8c-2.5,2.1-3.9,1.7-3.9,1.7
		s2.9-3.2,0.3-3.8c-2.6-0.6-2.9,1.1-3.2,2.4c-0.4,1.4-0.5,3-1.8,4c0,0-1.3-1.6-3.2-0.2s-0.3,1.4,0.5,1.2c0.8-0.2,1.8-0.6,1.6,0.6
		c-0.2,1.2-1.3,3.2-4.4,4.9c-3.1,1.7-3,1.6-6.7,2.2c-3.7,0.6-7.2,2.1-12,6.2c-4.8,4.1-10,2.7-11.1-1.9
		C507.2,207.1,507.7,204.9,507.7,204.9L507.7,204.9z"/>
	<path d="M525,204.3c0,0,1.5-3.2-1.2-4.7c0,0-8,1.4-10.3-1.1c0,0,8.7-0.5,14-2.6c5.4-2.1,3.8-3.6,1.9-3.9c-1.9-0.3-5.3,0.5-5.6,2.2
		c0,0-1.1-1.8,0.3-3c1.4-1.2,3.5-1.4,5.4-0.9c1.9,0.6,3.6,1.4,9.9-1.9c0,0,3.6,0.8,3.7,3.3c0.1,2.4-0.3,3.5-0.6,3.8
		c-0.3,0.4-0.8,1.1-1.5,1c-0.8-0.1-1.7-0.3-2.7,1.4c-1,1.7-1.5,3.2-3.1,4.3c0,0,1.9-5.3-2.7-6.5c0,0-3.8,2.3-6.7,2.4
		C525.8,198.3,529.5,201.8,525,204.3L525,204.3z"/>
	<path class="st4" d="M533.3,194.7c0,0-1.8-1.9,0.6-2.1c2.3-0.2,5.4,1.5,4.8,2.9C538.1,196.9,535.3,196.8,533.3,194.7L533.3,194.7z"
		/>
	<path class="st0" d="M663.7,169.1c0,0-4.2,1.2-0.3,3.8c3.9,2.6,5.8,4.8,8.7,5.6c2.9,0.8,5.8,1.8,5.8,4.7c-0.1,2.9-0.6,4-2.2,5.9
		c-1.6,2,0.9,2.8,2.9,1.7c2.1-1.1,3.8-1.7,5.2-2.5c1.4-0.8,3.6-0.7,1.6,0.4c-2.1,1.1-4.2,1.7-1.6,1.8s18.7,0.4,22-0.7
		c3.4-1.1,7.7-1.4,8.1-5.8c0,0,0.2-1.9,1.4-2.7c1.3-0.8,2.1-2.7,0.3-1.4c-1.8,1.3-3.2,1.9-3.6,1.5c-0.4-0.4-0.5-0.6,0.9-1.3
		c1.3-0.6,2.1,0,3.3-1.9c1.2-1.8,1.1-1.5,0.5-2.2c-0.7-0.7-2-1.2-1.4-2.1c0.7-0.9,1.4-3.5-1.6-2c-2.9,1.5-8.7,5.5-11.4,6.1
		s-4.7,1.4-8.3,2.2s-5.9,1.5-9.7,3.6s-3.6-1.2-2.9-1.6c0,0,1.5,2.6,5.4-0.8c3.9-3.4,2.6-0.2,12.2-3.4c9.6-3.1,7.2-3.7,11-5.6
		c3.7-2,7.3-2,4.7-4.6c-2.6-2.6-2.9-2.8-6.3,0c-3.4,2.8-12.7,7.4-18.3,7.5c0,0,21.6-9.3,19.4-10.7c-2.2-1.4-4.6-2.6-6.1-2.9
		c-1.5-0.3-1.9-0.7-5.4,0.9c-3.5,1.6-4,1.9-5.1,2c-1,0.1-3.9,0.7-8,2.8s-6.3,3-9.1,4.7c0,0,1.9-3.9,10.4-6.4
		c8.5-2.6,12.8-4.9,11.9-5.3c-0.9-0.4-3-0.8-4.6-0.5c-1.6,0.3-1.1-0.1-6.3,1.9c-5.2,2.1-3,1.6-7.2,2.5c-4.2,0.9-5.9,1.8-8,2.7
		c0,0,0.8-1.1,3.7-2.2c1.4-0.5-1.6-1.1,2.4-1.2c0.3,0,0.7,0.1,1.1,0c5.2-1.5,10.9-3.5,10-3.7c-0.9-0.2-5.9-0.7-11,1.7
		c-5.1,2.4-2.8,1.6-4.6,1.9c-1.8,0.4-5.6,2.8-6.9,3.8C665.5,168.3,663.7,169.1,663.7,169.1L663.7,169.1z"/>
	<path class="st4" d="M537.4,192.4c0,0,2,0.6,2.5,2c0.5,1.4,1.8-0.6,1.7-1.3c-0.1-0.6-1.3-3.5-3.5-2.1
		C536,192.3,537,192.2,537.4,192.4L537.4,192.4z"/>
	<path class="st5" d="M531.8,220.2c0,0,4.3-2,7.9-1.8c0,0-1.4-5.1,1.1-4.2c2.5,0.9,1.8,0.5,2.3,0.5c0,0,0.2-3.3-0.5-4.7
		c0,0,2.6,0.6,5.2,0.6c0,0-2.5-4.8,0.3-8.1c0,0,1.5,3.2,4.8,3.9c0,0,0-1.4,0-2.8c0,0,2-0.2,3.5,0.6s2.9-8.7-1.8-10.8
		c0,0-1.1,1.8-5.4,2.7c-4.3,0.9-4.3,1.8-6.1,5c-1.8,3.2-3.3,3.3-6.9,5.6c-3.6,2.3-5.8,7.1-6,7.5
		C530.2,214.3,532.1,216.7,531.8,220.2L531.8,220.2z"/>
	<path class="st7" d="M675.7,164.8c1.6-0.3-1.6-1.1,2.4-1.2c0.3,0,0.7,0.1,1.1,0c5.2-1.5,10.9-3.5,10-3.7c-0.9-0.2-5.9-0.7-11,1.7
		c-5.1,2.4-2.8,1.6-4.6,1.9c-1.8,0.4-5.6,2.8-6.9,3.8s-3,1.8-3,1.8s-4.2,1.2-0.3,3.8c3.9,2.6,5.8,4.8,8.7,5.6
		c2.9,0.8,5.8,1.8,5.8,4.7c-0.1,2.9-0.6,4-2.2,5.9c-1.6,2,0.9,2.8,2.9,1.7c2.1-1.1,3.8-1.7,5.2-2.5c1.4-0.8,3.6-0.7,1.6,0.4
		c-2.1,1.1-4.2,1.7-1.6,1.8s18.7,0.4,22-0.7c3.4-1.1,7.7-1.4,8.1-5.8c0,0,0.2-1.9,1.4-2.7c1.3-0.8,2.1-2.7,0.3-1.4
		c-1.8,1.3-3.2,1.9-3.6,1.5c-0.4-0.4-0.5-0.6,0.9-1.3c1.3-0.6,2.1,0,3.3-1.9c1.2-1.8,1.1-1.5,0.5-2.2c-0.3-0.4-0.9-0.7-1.2-1
		c0,0-1-0.8-2.1-0.1s-6,2.8-8,3c-2,0.2-4,1.1-7.6,2.8c-3.5,1.7-9.4,5.2-10.4,2c0,0-2.6,0.9-3.1,1.2c-4,2-3.6-0.8-2.9-1.6
		c0,0-2.1,2.3-2,0.2c0.1-2.1,1.4-1.8,3.7-2.4c2.3-0.7,6-2.2,4.4-3.4c-1.5-1.3-3.1,1.2-4.8,2c-1.7,0.8-5,1.4-5.5-1
		c-0.5-2.4-0.5-4.1-5-4.4c-4.5-0.3-4.4-3.1-3.1-4.3S671.5,165.5,675.7,164.8L675.7,164.8z"/>
	<path d="M690.1,186.8c0,0,7.1-3.3,13.5-4.8s1.4,0.2,0.3,0.6s-11.2,3.7-13.6,4.8C688,188.4,688.5,187.5,690.1,186.8L690.1,186.8z
		 M691.8,188.2c0,0,7.9-2.6,9.4-1.5c1.5,1.1,0.3,0.6-1.5,0.8c-1.7,0.3-6.5,1.1-7.8,1C690.6,188.5,691.8,188.2,691.8,188.2z
		 M704.5,185.4c0,0,1.5-0.3,1.7,0.3c0.2,0.6-0.7,0.6-1.5,0.5C703.8,186.1,703.1,185.6,704.5,185.4z"/>
	<path class="st0" d="M495.1,254.5c0,0-0.3-7,3.2-10.5c3.5-3.5,20.6-21.3,23.2-26.2c0,0,2.2,1.5,2.3,4.4c0,0,2.9-4.9,5.1-6.8
		c0,0,2,2,1.7,6.1c0,0,4.1-2.2,10.5-2.2c0,0-2.4,2.8-2.5,4.4c0,0,8.8-1,13.4-0.2c0,0-12.1,6.8-8.7,7.4c3.4,0.6,7,0,7,0
		s-3.9,3.9-10,4.7c0,0,7.8-0.1,9.4,1.7c0,0-7.6,1.2-13.7,5.8c0,0-0.6-0.3-0.6-2c0,0-0.2,1.5-1.9,3c-1.8,1.5-6,4.6-7.5,6.2
		c-1.6,1.6-4.5,4.7-7.6,4.5c0,0,0.7-2.4-1.6-3.2c-2.3-0.8-5-0.2-6.8,1.8c0,0-8.2,0.1-10.8,0.5c0,0,1.9-3,3.6-2.9
		c1.7,0.1,8.6,1,9.2-3.7c0.6-4.7-4.4-3.5-2.5-6.2c1.9-2.8,1.5-2.7,1.5-2.9c0,0-1.6,0.9-2.5,3.3s-1.6,4.4-4.8,6.9
		c-3.3,2.5-4.6,4-5.5,5.7C497.9,254,496.4,254.2,495.1,254.5z"/>
	<path class="st0" d="M503,250.3c0,0,0.3-1,2.7-1.4c2.4-0.4,2.5-1.6,2.2-2.1c-0.3-0.5-1.7-0.5,0.6-3.2c0,0,0.8,0.2,1.4,0.9
		S513.1,250.9,503,250.3z"/>
	<path class="st7" d="M497.2,245.4c0.1,4.6,6.2,2.9,6.2,2.9c-2.2,1.6-3.5,2.9-4.4,4c0.4-2.3-3.4-2.8-3.4-2.8
		C495.9,248.1,496.4,246.6,497.2,245.4z M519.6,220.6c0.9-1.2,1.5-2.1,1.9-2.8c0,0,2.2,1.5,2.3,4.4c0,0,2.9-4.9,5.1-6.8
		c0,0,2,2,1.7,6.1c0,0,4.1-2.2,10.5-2.2c0,0-2.4,2.8-2.5,4.4c0,0,8.8-1,13.4-0.2c0,0-12.1,6.8-8.7,7.4c3.4,0.6,7,0,7,0
		s-3.9,3.9-10,4.7c0,0,7.8-0.1,9.4,1.7c0,0-2.2,0.3-5.2,1.4c0,0-2.3-2.1-8.8-1.8c0,0,5.1-2.8,9.1-3.8c0,0-1.8-2.3-4.5-0.2
		c0,0-5.5-3.8-1-7c0,0-3.2-0.7-5.3,0.8c0,0,0.1-2.6,2.4-3.8c0,0-6.2-1-7.7,3.6c0,0-1.2-1.9-0.6-4c0,0-3.7,2.2-5.5,4.6
		C522.5,226.9,522,222.3,519.6,220.6 M507.6,250c-1.1,0.3-2.6,0.4-4.6,0.3c0,0,0.2-0.6,1.4-1C504.5,249.2,504.8,250,507.6,250"/>
	<path d="M518.8,232.5c0,0,2.8,2.2,3.8,3.6c0,0,2.6-1.8,3.5-3.3c0,0,2,1.3,2.7,3.3c0,0,1.4-1,1.7-2.3c0,0,3.5,0.8,4.7,1.9
		c0,0,0.5-3.4,0-5.6c0,0,2.5,0.2,4,0.8c0,0-1.4-2.3,5.7-5.1c0,0-5.4,1.2-7.5,3.5c0,0-2.3,0.1-3.3-0.6c0,0,0.2,3.5,0.1,5.1
		c0,0-1.4-0.6-4.1-1.2c0,0-0.7,1.1-1.1,1.4c0,0-1.7-1.4-2.5-3.1c0,0-2.6,2.4-3.6,3.4C523,234.3,520.5,232.6,518.8,232.5L518.8,232.5
		z"/>
	<path class="st3" d="M502.7,267.6c0,0,1.1,0.5,3.7-1.6c2.6-2.1,10-6.8,10.7-10.6c0.7-3.8-2.4-4-4.8-2.9c-2.4,1.1-1.4,3.2-1.3,3.9
		c0.1,0.7,0.2,3.3-3.8,6.9C503.3,267.1,502.7,267.6,502.7,267.6L502.7,267.6z"/>
	<path class="st3" d="M501.8,268.8c0,0-5.9-2.5-0.6-5.1s7.7-3.4,8.3-5.6c0.6-2.2,0.3-1.8-1.7-0.9c-2,0.9-9.5,4.3-10.6,1.2
		c0,0,3.1,1.2,7-0.7c3.9-1.9,7-2.4,4.6-3.2c-2.5-0.8-11.3,0.2-12.8,0.6s-1.1,0.3-1.4,1.8c-0.3,1.5-1.9,4.5-2.5,5.4
		c-0.6,0.9-2.1,4.7,0.7,6.3C495.4,270.3,499.7,270.1,501.8,268.8z"/>
	<path d="M499.5,255.9c0,0-1.4,0.2-1.1,0.7c0.3,0.5,0.6,0.5,1.1,0.5c0.5,0,1.3-0.3,1.4-0.6C501,256.2,500,255.8,499.5,255.9
		L499.5,255.9z"/>
	<path class="st0" d="M501.5,267.5c0,0-2.8-1.4,0.4-3.1c3.2-1.7,6.6-3.4,7-4.1C508.9,260.3,507.4,262.5,501.5,267.5L501.5,267.5z"/>
</g>
</svg>
