<?xml version="1.0" encoding="utf-8"?>
<!-- Generator: Adobe Illustrator 27.0.1, SVG Export Plug-In . SVG Version: 6.00 Build 0)  -->
<svg version="1.1" id="Layer_1" xmlns="http://www.w3.org/2000/svg" xmlns:xlink="http://www.w3.org/1999/xlink" x="0px" y="0px"
	 viewBox="0 0 750 500" style="enable-background:new 0 0 750 500;" xml:space="preserve">
<style type="text/css">
	.st0{fill:#0F204B;}
	.st1{fill:#FFB612;}
</style>
<path class="st0" d="M0,0h750v500H0V0z"/>
<path class="st1" d="M627.3,84.9l-16.9,12.3l6.5,19.9l0,0l0,0l0,0l0,0L600,104.7L583.1,117l0,0l0,0l0,0l0,0l6.5-19.9l-16.9-12.3l0,0
	h0l0,0l0,0h20.9L600,65l0,0l0,0l0,0l0,0l6.5,19.9L627.3,84.9L627.3,84.9L627.3,84.9L627.3,84.9L627.3,84.9z M151.8,194.3
	L151.8,194.3l-12.5,0l-3.8-11.8l0,0l0,0l0,0l0,0l-3.8,11.8h-12.4l0,0l0,0h0l0,0l10.1,7.3l-3.8,11.8l0,0l0,0l0,0l0,0l10.1-7.3
	l10.1,7.3l0,0l0,0l0,0l0,0l-3.8-11.8L151.8,194.3L151.8,194.3L151.8,194.3L151.8,194.3z M235.3,225.3L235.3,225.3l-12.5,0l-3.8-11.8
	l0,0l0,0l0,0l0,0l-3.8,11.8h-12.4l0,0l0,0h0l0,0l10.1,7.3l-3.8,11.8l0,0l0,0l0,0l0,0l10.1-7.3l10.1,7.3l0,0l0,0l0,0l0,0l-3.8-11.8
	L235.3,225.3L235.3,225.3L235.3,225.3L235.3,225.3z M276.8,269.8L276.8,269.8l-12.5,0l-3.8-11.8l0,0l0,0l0,0l0,0l-3.8,11.8h-12.4
	l0,0l0,0h0l0,0l10.1,7.3l-3.8,11.8l0,0l0,0l0,0l0,0l10.1-7.3l10.1,7.3l0,0l0,0l0,0l0,0l-3.8-11.8L276.8,269.8L276.8,269.8
	L276.8,269.8L276.8,269.8z M318.8,316.3L318.8,316.3l-12.5,0l-3.8-11.8l0,0l0,0l0,0l0,0l-3.8,11.8h-12.4l0,0l0,0h0l0,0l10.1,7.3
	l-3.8,11.8l0,0l0,0l0,0l0,0l10.1-7.3l10.1,7.3l0,0l0,0l0,0l0,0l-3.8-11.8L318.8,316.3L318.8,316.3L318.8,316.3L318.8,316.3z
	 M443.8,360.8L443.8,360.8l-12.5,0l-3.8-11.8l0,0l0,0l0,0l0,0l-3.8,11.8h-12.4l0,0l0,0h0l0,0l10.1,7.3l-3.8,11.8l0,0l0,0l0,0l0,0
	l10.1-7.3l10.1,7.3l0,0l0,0l0,0l0,0l-3.8-11.8L443.8,360.8L443.8,360.8L443.8,360.8L443.8,360.8z M313.3,381.8L313.3,381.8l-12.5,0
	L297,370l0,0l0,0l0,0l0,0l-3.8,11.8h-12.4l0,0l0,0h0l0,0l10.1,7.3l-3.8,11.8l0,0l0,0l0,0l0,0l10.1-7.3l10.1,7.3l0,0l0,0l0,0l0,0
	l-3.8-11.8L313.3,381.8L313.3,381.8L313.3,381.8L313.3,381.8z M407.3,412.8L407.3,412.8l-12.5,0L391,401l0,0l0,0l0,0l0,0l-3.8,11.8
	h-12.4l0,0l0,0h0l0,0l10.1,7.3l-3.8,11.8l0,0l0,0l0,0l0,0l10.1-7.3l10.1,7.3l0,0l0,0l0,0l0,0l-3.8-11.8L407.3,412.8L407.3,412.8
	L407.3,412.8L407.3,412.8z"/>
</svg>
