<?xml version="1.0" encoding="utf-8"?>
<!-- Generator: Adobe Illustrator 27.0.1, SVG Export Plug-In . SVG Version: 6.00 Build 0)  -->
<svg version="1.1" id="Layer_1" xmlns="http://www.w3.org/2000/svg" xmlns:xlink="http://www.w3.org/1999/xlink" x="0px" y="0px"
	 viewBox="0 0 750 500" style="enable-background:new 0 0 750 500;" xml:space="preserve">
<style type="text/css">
	.st0{fill:#002664;}
	.st1{fill:#BB133E;}
	.st2{fill:#FED700;}
	.st3{fill:#CE5C17;}
</style>
<path class="st0" d="M0,0h750v500H0V0z"/>
<path class="st1" d="M0,0h750v250H0V0z"/>
<path class="st2" d="M472.7,0L375,250L410.2,0H472.7z M556,0L375,250L664.1,0H556z M375,250l375-87.2V58.6L375,250z M0,162.8
	L375,250L0,58.6V162.8z M85.9,0L375,250L194,0H85.9z M277.3,0L375,250L339.8,0H277.3z"/>
<path class="st3" d="M375,125l81.2,250L243.9,219.5h262.2L293.8,375L375,125z"/>
</svg>
