<?xml version="1.0" encoding="utf-8"?>
<!-- Generator: Adobe Illustrator 27.0.1, SVG Export Plug-In . SVG Version: 6.00 Build 0)  -->
<svg version="1.1" id="Layer_1" xmlns="http://www.w3.org/2000/svg" xmlns:xlink="http://www.w3.org/1999/xlink" x="0px" y="0px"
	 viewBox="0 0 750 500" style="enable-background:new 0 0 750 500;" xml:space="preserve">
<style type="text/css">
	.st0{fill:#BF0A30;}
	.st1{fill:#002868;}
	.st2{fill:#FFFFFF;}
</style>
<path class="st0" d="M0,0h750v500H0V0z"/>
<path class="st1" d="M62.5,248.1l311.2,210.3l313.8-210.7l-313.8-206L62.5,248.1z"/>
<path class="st2" d="M140,248.5l234,158.1l236-158.4L374,93.3L140,248.5z M382.5,83.3l-9.2-6.7l-9.2,6.7l3.5-10.8l-9.2-6.7l11.4,0
	l3.5-10.8l3.5,10.8l11.4,0l-9.2,6.7L382.5,83.3L382.5,83.3z M360,405.9l-6.7,9.2l6.7,9.2l-10.8-3.5l-6.7,9.2l0-11.4l-10.8-3.5
	l10.8-3.5l0-11.4l6.7,9.2L360,405.9L360,405.9z M388.4,405.9l6.7,9.2l-6.7,9.2l10.8-3.5l6.7,9.2l0-11.4l10.8-3.5l-10.8-3.5l0-11.4
	l-6.7,9.2L388.4,405.9L388.4,405.9z M612.4,207.6l-6.7,9.2l6.7,9.2l-10.8-3.5l-6.7,9.2l0-11.4l-10.8-3.5l10.8-3.5l0-11.4l6.7,9.2
	L612.4,207.6L612.4,207.6z M567.4,177.6l-6.7,9.2l6.7,9.2l-10.8-3.5l-6.7,9.2l0-11.4l-10.8-3.5l10.8-3.5l0-11.4l6.7,9.2L567.4,177.6
	L567.4,177.6z M522.4,147.6l-6.7,9.2l6.7,9.2l-10.8-3.5l-6.7,9.2l0-11.4l-10.8-3.5l10.8-3.5l0-11.4l6.7,9.2L522.4,147.6L522.4,147.6
	z M477.4,119.2l-6.7,9.2l6.7,9.2l-10.8-3.5l-6.7,9.2l0-11.4l-10.8-3.5l10.8-3.5l0-11.4l6.7,9.2L477.4,119.2L477.4,119.2z
	 M432.4,89.2l-6.7,9.2l6.7,9.2l-10.8-3.5l-6.7,9.2l0-11.4l-10.8-3.5l10.8-3.5l0-11.4l6.7,9.2L432.4,89.2L432.4,89.2z M160,269.2
	l-6.7,9.2l6.7,9.2l-10.8-3.5l-6.7,9.2l0-11.4l-10.8-3.5l10.8-3.5l0-11.4l6.7,9.2L160,269.2L160,269.2z M200,295.9l-6.7,9.2l6.7,9.2
	l-10.8-3.5l-6.7,9.2l0-11.4l-10.8-3.5l10.8-3.5l0-11.4l6.7,9.2L200,295.9L200,295.9z M240,322.6l-6.7,9.2l6.7,9.2l-10.8-3.5
	l-6.7,9.2l0-11.4l-10.8-3.5l10.8-3.5l0-11.4l6.7,9.2L240,322.6L240,322.6z M280,350.9l-6.7,9.2l6.7,9.2l-10.8-3.5l-6.7,9.2l0-11.4
	l-10.8-3.5l10.8-3.5l0-11.4l6.7,9.2L280,350.9L280,350.9z M320,377.6l-6.7,9.2l6.7,9.2l-10.8-3.5l-6.7,9.2l0-11.4l-10.8-3.5
	l10.8-3.5l0-11.4l6.7,9.2L320,377.6L320,377.6z M120,240.8l-6.7,9.2l6.7,9.2l-10.8-3.5l-6.7,9.2l0-11.4L91.7,250l10.8-3.5l0-11.4
	l6.7,9.2L120,240.8L120,240.8z M136.7,207.6l6.7,9.2l-6.7,9.2l10.8-3.5l6.7,9.2l0-11.4l10.8-3.5l-10.8-3.5l0-11.4l-6.7,9.2
	L136.7,207.6L136.7,207.6z M181.7,177.6l6.7,9.2l-6.7,9.2l10.8-3.5l6.7,9.2l0-11.4l10.8-3.5l-10.8-3.5l0-11.4l-6.7,9.2L181.7,177.6
	L181.7,177.6z M226.7,147.6l6.7,9.2l-6.7,9.2l10.8-3.5l6.7,9.2l0-11.4l10.8-3.5l-10.8-3.5l0-11.4l-6.7,9.2L226.7,147.6L226.7,147.6z
	 M271.7,119.2l6.7,9.2l-6.7,9.2l10.8-3.5l6.7,9.2l0-11.4l10.8-3.5l-10.8-3.5l0-11.4l-6.7,9.2L271.7,119.2L271.7,119.2z M316.7,89.2
	l6.7,9.2l-6.7,9.2l10.8-3.5l6.7,9.2l0-11.4l10.8-3.5l-10.8-3.5l0-11.4l-6.7,9.2L316.7,89.2L316.7,89.2z M628.4,240.8l6.7,9.2
	l-6.7,9.2l10.8-3.5l6.7,9.2l0-11.4l10.8-3.5l-10.8-3.5l0-11.4l-6.7,9.2L628.4,240.8L628.4,240.8z M588.4,269.2l6.7,9.2l-6.7,9.2
	l10.8-3.5l6.7,9.2l0-11.4l10.8-3.5l-10.8-3.5l0-11.4l-6.7,9.2L588.4,269.2L588.4,269.2z M548.4,295.9l6.7,9.2l-6.7,9.2l10.8-3.5
	l6.7,9.2l0-11.4l10.8-3.5l-10.8-3.5l0-11.4l-6.7,9.2L548.4,295.9L548.4,295.9z M508.4,322.6l6.7,9.2l-6.7,9.2l10.8-3.5l6.7,9.2
	l0-11.4l10.8-3.5l-10.8-3.5l0-11.4l-6.7,9.2L508.4,322.6L508.4,322.6z M468.4,350.9l6.7,9.2l-6.7,9.2l10.8-3.5l6.7,9.2l0-11.4
	l10.8-3.5l-10.8-3.5l0-11.4l-6.7,9.2L468.4,350.9L468.4,350.9z M428.4,377.6l6.7,9.2l-6.7,9.2l10.8-3.5l6.7,9.2l0-11.4l10.8-3.5
	l-10.8-3.5l0-11.4l-6.7,9.2L428.4,377.6L428.4,377.6z"/>
<path class="st1" d="M385.3,335.8l16.6,11.8l-20.5,0l-6.3,19.1l-6.4-19.1l-20.5,0l16.6-11.8l-6.3-19.1l16.6,11.8l16.6-11.8
	L385.3,335.8z M348.1,285.8l-20.5,0l-6.3-19.1l-6.4,19.1l-20.5,0l16.6,11.8l-6.4,19.1l16.6-11.8l16.6,11.8l-6.3-19.1L348.1,285.8z
	 M455.7,285.8l-20.5,0l-6.3-19.1l-6.4,19.1l-20.5,0l16.6,11.8l-6.3,19.1l16.6-11.8l16.6,11.8l-6.3-19.1L455.7,285.8z M358.4,175
	l16.6-11.8l16.6,11.8l-6.3-19.1l16.6-11.8l-20.5,0L375,125l-6.4,19.1l-20.5,0l16.6,11.8L358.4,175z"/>
<path class="st1" d="M247,241.7H260l2.3,7.3h8l-12.5-35.4h-8.5L236.7,249h7.8L247,241.7L247,241.7z M253.5,221.6L253.5,221.6l4.5,14
	h-9L253.5,221.6z M275.1,249h7.2v-13.8h7.6c2.6,0,4.3,0.5,4.9,1.5c0.7,1.1,0.9,2.8,0.8,5.2c0,1.8,0.1,3.2,0.2,4.3
	c0.1,1.1,0.3,2,0.6,2.8h8.2V248c-0.8-0.2-1.2-0.8-1.4-1.8c-0.2-1-0.2-2.7-0.2-5.2c0-3.2-0.4-5.3-1.2-6.5c-0.8-1.1-1.9-2-3.3-2.5
	c1.8-0.6,3.1-1.7,4-3.2c0.9-1.5,1.4-3.2,1.4-5.2c0-1.1-0.2-2.4-0.8-3.9c-0.6-1.5-1.7-2.9-3.3-4.1c-1.6-1.2-4-1.8-7.1-1.9h-17.9
	L275.1,249L275.1,249z M282.3,229.2v-9.5h9.2c2.1,0.1,3.5,0.6,4.2,1.6c0.7,1,1,2,1,3c0,1.7-0.5,3-1.4,3.7c-0.9,0.8-2.4,1.1-4.3,1.1
	L282.3,229.2L282.3,229.2z M318.6,237l3.5-3.5L333,249h9.5l-15.3-20.9l14.4-14.5h-9.6L318.6,228v-14.4h-7.4V249h7.4L318.6,237
	L318.6,237z M353.8,241.7h13.1l2.3,7.3h8l-12.5-35.4h-8.5L343.5,249h7.8L353.8,241.7L353.8,241.7z M360.3,221.6L360.3,221.6l4.5,14
	h-9L360.3,221.6z M403.5,238.2h-0.1l-14-24.6h-7.8V249h6.9v-25.2h0.1L403,249h7.4v-35.4h-6.9L403.5,238.2L403.5,238.2z M415.7,238.1
	c-0.1,1.5,0.3,3.2,1.1,5c0.8,1.8,2.2,3.4,4.4,4.7c2.2,1.3,5.4,2,9.7,2.1c1.1,0.1,2.8-0.2,5-0.6c2.2-0.5,4.2-1.5,6-3.2
	c1.8-1.7,2.8-4.2,2.9-7.7c-0.1-3.1-1-5.3-2.8-6.7c-1.8-1.4-3.9-2.3-6.4-2.8l-8.6-2.1c-0.9-0.2-1.7-0.5-2.4-0.9
	c-0.8-0.5-1.3-1.4-1.3-2.8c0.1-1.6,0.8-2.7,2-3.3c1.3-0.6,2.7-1,4.1-0.9c3.1,0.1,5.1,0.8,6,2.1c0.9,1.3,1.3,2.3,1.3,3.3h7.1
	c0-1.5-0.4-3.1-1.2-4.9c-0.8-1.8-2.2-3.3-4.2-4.5c-2-1.3-4.8-1.9-8.4-2c-3.8,0.1-6.7,0.7-8.6,1.9c-2,1.2-3.3,2.7-4,4.4
	c-0.7,1.7-1,3.2-1,4.6c0.1,3.8,1.3,6.3,3.5,7.6c2.2,1.3,4.8,2.3,7.8,2.8l3.8,0.9c1.9,0.4,3.4,0.9,4.6,1.5c1.2,0.6,1.8,1.6,1.8,2.9
	c-0.1,1.8-0.9,3.1-2.4,3.7c-1.5,0.6-3.2,0.9-5,0.9c-3.1-0.1-5.2-0.8-6.1-2.1c-1-1.3-1.4-2.5-1.3-3.6H415.7L415.7,238.1z
	 M457.9,241.7H471l2.3,7.3h8l-12.5-35.4h-8.5L447.7,249h7.8L457.9,241.7L457.9,241.7z M464.4,221.6h0.1l4.4,14h-9L464.4,221.6z
	 M484.2,238.1c-0.1,1.5,0.3,3.2,1.1,5c0.8,1.8,2.2,3.4,4.4,4.7c2.2,1.3,5.4,2,9.7,2.1c1.2,0.1,2.8-0.2,5-0.6c2.2-0.5,4.2-1.5,6-3.2
	c1.8-1.7,2.8-4.2,2.9-7.7c-0.1-3.1-1-5.3-2.8-6.7c-1.8-1.4-3.9-2.3-6.4-2.8l-8.6-2.1c-0.9-0.2-1.7-0.5-2.4-0.9
	c-0.8-0.5-1.3-1.4-1.3-2.8c0.1-1.6,0.8-2.7,2-3.3c1.3-0.6,2.7-1,4.1-0.9c3.1,0.1,5.1,0.8,6,2.1c0.9,1.3,1.3,2.3,1.3,3.3h7.1
	c0-1.5-0.4-3.1-1.2-4.9c-0.8-1.8-2.2-3.3-4.2-4.5c-2-1.3-4.8-1.9-8.4-2c-3.8,0.1-6.7,0.7-8.6,1.9c-2,1.2-3.3,2.7-4,4.4
	c-0.7,1.7-1,3.2-1,4.6c0.1,3.8,1.3,6.3,3.5,7.6c2.2,1.3,4.8,2.3,7.8,2.8l3.8,0.9c1.9,0.4,3.4,0.9,4.6,1.5c1.2,0.6,1.8,1.6,1.8,2.9
	c-0.1,1.8-0.9,3.1-2.4,3.7c-1.5,0.6-3.2,0.9-5,0.9c-3.1-0.1-5.2-0.8-6.1-2.1c-1-1.3-1.4-2.5-1.3-3.6H484.2L484.2,238.1z"/>
</svg>
