<?xml version="1.0" encoding="utf-8"?>
<!-- Generator: Adobe Illustrator 27.0.1, SVG Export Plug-In . SVG Version: 6.00 Build 0)  -->
<svg version="1.1" id="Layer_1" xmlns="http://www.w3.org/2000/svg" xmlns:xlink="http://www.w3.org/1999/xlink" x="0px" y="0px"
	 viewBox="0 0 750 500" style="enable-background:new 0 0 750 500;" xml:space="preserve">
<style type="text/css">
	.st0{fill:#FFFFFF;}
	.st1{fill:#E81B39;}
</style>
<path class="st0" d="M0,0h750v500H0V0z"/>
<path class="st1" d="M0,150h750v100H0V150z M0,300h750v100H0V300z M168.3,84.1l25-18.1h-30.9l-9.5-29.3l-9.5,29.3h-30.9l25,18.1
	l-9.5,29.3l25-18.1l25,18.1L168.3,84.1z M390.4,84.1l25-18.1h-30.9L375,36.6l-9.5,29.3h-30.9l25,18.1l-9.5,29.3l25-18.1l25,18.1
	L390.4,84.1z M612.5,84.1l25-18.1h-30.9l-9.5-29.3l-9.5,29.3h-30.9l25,18.1l-9.5,29.3l25-18.1l25,18.1L612.5,84.1z"/>
</svg>
