<?xml version="1.0" encoding="utf-8"?>
<!-- Generator: Adobe Illustrator 27.0.1, SVG Export Plug-In . SVG Version: 6.00 Build 0)  -->
<svg version="1.1" id="Layer_1" xmlns="http://www.w3.org/2000/svg" xmlns:xlink="http://www.w3.org/1999/xlink" x="0px" y="0px"
	 viewBox="0 0 750 500" style="enable-background:new 0 0 750 500;" xml:space="preserve">
<style type="text/css">
	.st0{fill:#B50027;}
	.st1{fill:#FFFFFF;}
	.st2{fill:#002D56;}
	.st3{fill-rule:evenodd;clip-rule:evenodd;fill:#EED000;stroke:#EED000;stroke-width:0.2268;stroke-miterlimit:10;}
	.st4{fill:#EED000;}
	.st5{fill-rule:evenodd;clip-rule:evenodd;fill:#EED000;stroke:#002D56;stroke-width:1.179;stroke-miterlimit:10;}
	.st6{fill:#EED000;stroke:#002D56;stroke-width:1.179;stroke-miterlimit:10;}
	.st7{fill:none;stroke:#002D56;stroke-width:1.179;stroke-miterlimit:10;}
	.st8{fill:#EED000;stroke:#002D56;stroke-width:0.6806;stroke-miterlimit:10;}
	.st9{fill-rule:evenodd;clip-rule:evenodd;fill:#EED000;stroke:#002D56;stroke-width:1.3889;stroke-miterlimit:10;}
	.st10{fill:#EED000;stroke:#002D56;stroke-width:0.8333;stroke-miterlimit:10;}
	.st11{fill-rule:evenodd;clip-rule:evenodd;fill:#EED000;stroke:#002D56;stroke-width:1.3264;stroke-miterlimit:10;}
	
		.st12{fill-rule:evenodd;clip-rule:evenodd;fill:#EED000;stroke:#002D56;stroke-width:0.6805;stroke-linejoin:round;stroke-miterlimit:10;}
	.st13{fill-rule:evenodd;clip-rule:evenodd;fill:#EED000;stroke:#002D56;stroke-width:0.8333;stroke-miterlimit:10;}
	.st14{fill:none;stroke:#002D56;stroke-width:0.8843;stroke-miterlimit:10;}
	.st15{fill:#EED000;stroke:#002D56;stroke-width:0.6944;stroke-miterlimit:10;}
	.st16{fill-rule:evenodd;clip-rule:evenodd;fill:#EED000;stroke:#002D56;stroke-width:0.5671;stroke-miterlimit:10;}
	.st17{fill-rule:evenodd;clip-rule:evenodd;fill:#EED000;stroke:#002D56;stroke-width:1.0317;stroke-miterlimit:10;}
	.st18{fill:#EED000;stroke:#002D56;stroke-width:1.0317;stroke-miterlimit:10;}
	.st19{fill:#EED000;stroke:#002D56;stroke-width:0.8843;stroke-linejoin:round;stroke-miterlimit:10;}
	.st20{fill-rule:evenodd;clip-rule:evenodd;fill:#002D56;}
	.st21{fill:none;stroke:#002D56;stroke-width:0.5671;stroke-miterlimit:10;}
	.st22{fill:none;stroke:#002D56;stroke-width:0.6806;stroke-miterlimit:10;}
	.st23{fill:none;}
	.st24{fill:none;stroke:#002D56;stroke-width:0.7529;stroke-linejoin:round;stroke-miterlimit:10;}
	.st25{fill:none;stroke:#002D56;stroke-width:0.6805;stroke-linecap:round;stroke-linejoin:round;stroke-miterlimit:10;}
	.st26{fill:none;stroke:#002D56;stroke-width:0.6274;stroke-linejoin:round;stroke-miterlimit:10;}
	.st27{fill-rule:evenodd;clip-rule:evenodd;fill:#EED000;}
	.st28{fill:none;stroke:#002D56;stroke-width:0.4844;stroke-linejoin:round;stroke-miterlimit:10;}
	.st29{fill:none;stroke:#002D56;stroke-width:0.4844;stroke-miterlimit:10;}
	.st30{fill:none;stroke:#002D56;stroke-width:0.2268;stroke-miterlimit:10;}
	.st31{fill:none;stroke:#002D56;stroke-width:0.4538;stroke-miterlimit:10;}
	.st32{fill:none;stroke:#002D56;stroke-width:0.3403;stroke-miterlimit:10;}
	.st33{fill:none;stroke:#002D56;stroke-width:0.2722;stroke-miterlimit:10;}
	.st34{fill:#002D56;stroke:#002D56;stroke-width:0.2268;stroke-miterlimit:10;}
	.st35{fill:none;stroke:#002D56;stroke-width:0.4535;stroke-miterlimit:10;}
	.st36{fill-rule:evenodd;clip-rule:evenodd;fill:#EED000;stroke:#002D56;stroke-width:9.444445e-02;stroke-miterlimit:10;}
</style>
<path class="st0" d="M0,0h750v500H0V0z"/>
<path class="st1" d="M0,166.7h750v166.7H312.5L0,166.7z"/>
<path class="st2" d="M0,0h333.3v333.3H0V0z"/>
<path class="st1" d="M174.1,45.6l11.9-8.4L171.5,37l-4.3-13.9l-4.7,13.8L148,36.7l11.6,8.7l-4.7,13.8l11.9-8.4l11.6,8.7L174.1,45.6z
	 M117,55.8l6.6-12.9l-13,6.6l-10.3-10.3l2.2,14.4l-13,6.6l14.4,2.3l2.2,14.4l6.6-12.9l14.4,2.3L117,55.8z M71,91.7l-0.1-14.5
	L62.5,89l-13.9-4.3l8.7,11.7l-8.4,11.8l13.8-4.6l8.7,11.7l-0.1-14.5L84.9,96L71,91.7z M47.3,144.7l-6.9-12.8l-2,14.4l-14.3,2.6
	l13.1,6.3l-2,14.4l10.1-10.5l13.1,6.3l-6.9-12.8l10-10.5L47.3,144.7z M50.7,202.5l-12-8.1l5,13.7L32.1,217l14.5-0.5l5,13.7l4-14
	l14.5-0.5l-12-8.1l4-14L50.7,202.5z M80.6,252.5l-14.4-1.6l10.7,9.8l-6,13.2l12.6-7.2l10.7,9.8l-2.9-14.2l12.6-7.2l-14.4-1.6
	l-2.9-14.2L80.6,252.5z M130.5,282.5l-13.5,5.3l14.1,3.7l0.8,14.5l7.8-12.2l14.1,3.7l-9.2-11.2l7.8-12.2l-13.5,5.3l-9.2-11.2
	L130.5,282.5z M188.3,286.1l-9.5,11l14.2-3.3l7.5,12.5l1.3-14.5l14.2-3.3l-13.4-5.7l1.3-14.5l-9.5,11l-13.4-5.7L188.3,286.1z
	 M241.4,262.4l-3.3,14.1l11-9.5l12.4,7.5l-5.6-13.4l11-9.5l-14.5,1.2l-5.6-13.4l-3.3,14.1l-14.5,1.2L241.4,262.4z M277.3,216.5
	l3.6,14.1l5.4-13.5l14.5,0.9l-11.2-9.3l5.4-13.5l-12.3,7.8l-11.2-9.3l3.6,14.1l-12.3,7.8L277.3,216.5z M270.8,104l13.6,5L276.3,97
	l9-11.4l-14,4l-8.1-12.1L262.7,92l-14,4l13.6,5l-0.6,14.5L270.8,104z M229.6,62.8l14.4-1.9L231.2,54l2.7-14.3l-10.5,10l-12.8-6.9
	l6.2,13.1l-10.5,10l14.4-1.9l6.2,13.1L229.6,62.8z M287.8,159.6l9.7,10.8l-1.5-14.4l13.3-5.9l-14.2-3l-1.5-14.4l-7.2,12.6l-14.2-3
	l9.7,10.8l-7.2,12.6L287.8,159.6z"/>
<path class="st3" d="M106.3,241.9h-4.2v-0.5c0.1,0,0.3,0,0.5,0c0.2,0,0.4,0,0.5-0.1c0.1-0.1,0.3-0.1,0.3-0.2
	c0.1-0.1,0.1-0.2,0.1-0.4v-6.8c0-0.2,0-0.3-0.1-0.4c0-0.1-0.2-0.2-0.3-0.3c-0.1-0.1-0.3-0.1-0.5-0.1c-0.2,0-0.4-0.1-0.5-0.1v-0.5
	h4.2v0.5c-0.1,0-0.3,0-0.5,0.1c-0.2,0-0.4,0.1-0.5,0.1c-0.2,0.1-0.3,0.1-0.3,0.3c-0.1,0.1-0.1,0.3-0.1,0.4v6.8c0,0.1,0,0.3,0.1,0.4
	c0.1,0.1,0.2,0.2,0.3,0.3c0.1,0,0.2,0.1,0.4,0.1c0.2,0,0.4,0.1,0.5,0.1L106.3,241.9L106.3,241.9z M117.9,233c-0.1,0-0.3,0-0.6,0.1
	c-0.3,0.1-0.4,0.1-0.5,0.2c-0.2,0.1-0.3,0.3-0.3,0.6c-0.1,0.3-0.1,0.7-0.1,1.2v6.9h-0.6l-5.7-7.7v4.8c0,0.5,0,1,0.1,1.2
	c0.1,0.3,0.2,0.5,0.3,0.6c0.1,0.1,0.3,0.2,0.6,0.3c0.3,0.1,0.5,0.1,0.6,0.1v0.5h-3.8v-0.5c0.1,0,0.3-0.1,0.6-0.1
	c0.3-0.1,0.5-0.1,0.5-0.2c0.2-0.1,0.3-0.3,0.3-0.6c0.1-0.3,0.1-0.7,0.1-1.3v-4.6c0-0.2,0-0.4-0.1-0.6c-0.1-0.2-0.2-0.4-0.3-0.5
	c-0.2-0.1-0.4-0.3-0.6-0.4c-0.3-0.1-0.5-0.2-0.7-0.2v-0.5h2.7l5.3,7.1v-4.5c0-0.5,0-1-0.1-1.3c-0.1-0.3-0.2-0.5-0.3-0.6
	c-0.1-0.1-0.3-0.2-0.6-0.2c-0.3-0.1-0.5-0.1-0.6-0.1v-0.5h3.8L117.9,233L117.9,233z M131.6,238.2c-0.1,0-0.2,0-0.4,0.1
	c-0.2,0-0.3,0.1-0.4,0.1c-0.1,0.1-0.2,0.2-0.3,0.3c-0.1,0.1-0.1,0.3-0.1,0.4v0.7c0,0.5,0,0.9,0,1.1c0,0.2,0,0.3,0,0.5
	c-0.6,0.3-1.2,0.5-1.7,0.6c-0.6,0.1-1.1,0.2-1.7,0.2c-0.6,0-1.2-0.1-1.7-0.3c-0.6-0.2-1-0.5-1.4-1c-0.4-0.4-0.7-0.9-1-1.5
	c-0.2-0.6-0.4-1.3-0.4-2c0-0.7,0.1-1.4,0.3-2c0.2-0.6,0.6-1.1,1-1.6c0.4-0.4,0.9-0.8,1.5-1c0.6-0.2,1.2-0.4,1.9-0.4
	c0.5,0,1,0.1,1.4,0.2c0.4,0.1,0.7,0.3,1,0.5l0.3-0.4h0.5l0.1,3.3h-0.5c-0.1-0.4-0.2-0.7-0.3-1.1c-0.1-0.4-0.3-0.7-0.5-0.9
	c-0.2-0.3-0.5-0.5-0.8-0.7c-0.3-0.2-0.7-0.3-1.1-0.3c-0.5,0-0.9,0.1-1.3,0.3c-0.4,0.2-0.7,0.5-1,0.9c-0.3,0.4-0.5,0.8-0.6,1.4
	c-0.1,0.5-0.2,1.2-0.2,1.8c0,0.6,0.1,1.2,0.2,1.7c0.1,0.5,0.4,1,0.6,1.4c0.3,0.4,0.6,0.7,1,0.9c0.4,0.2,0.9,0.3,1.4,0.3
	c0.4,0,0.7-0.1,1.1-0.2c0.3-0.1,0.5-0.2,0.7-0.4c0-0.2,0.1-0.5,0.1-0.7c0-0.2,0-0.4,0-0.6v-0.5c0-0.2,0-0.3-0.1-0.5
	c0-0.1-0.2-0.3-0.3-0.3c-0.1-0.1-0.3-0.1-0.6-0.1c-0.2,0-0.4-0.1-0.6-0.1v-0.5h4.1L131.6,238.2L131.6,238.2z M140.8,233.7
	c0.4,0.4,0.7,1,1,1.6c0.2,0.6,0.3,1.3,0.3,2c0,0.7-0.1,1.4-0.4,2c-0.2,0.6-0.6,1.1-1,1.5c-0.4,0.4-0.9,0.8-1.4,1
	c-0.5,0.2-1.1,0.3-1.7,0.3c-0.6,0-1.3-0.1-1.8-0.4c-0.5-0.2-1-0.6-1.4-1c-0.4-0.4-0.7-0.9-0.9-1.5c-0.2-0.6-0.3-1.3-0.3-2
	c0-0.8,0.1-1.4,0.4-2c0.2-0.6,0.6-1.1,1-1.5c0.4-0.4,0.9-0.8,1.4-1c0.5-0.2,1.1-0.3,1.7-0.3c0.6,0,1.2,0.1,1.8,0.3
	C140,232.9,140.4,233.2,140.8,233.7L140.8,233.7z M139.8,240.3c0.2-0.4,0.4-0.9,0.5-1.4c0.1-0.5,0.2-1.1,0.2-1.7
	c0-0.6-0.1-1.2-0.2-1.8c-0.1-0.5-0.3-1-0.5-1.4c-0.2-0.4-0.5-0.7-0.9-0.9c-0.4-0.2-0.8-0.3-1.3-0.3c-0.5,0-1,0.1-1.3,0.4
	c-0.4,0.2-0.7,0.6-0.9,1c-0.2,0.4-0.4,0.8-0.5,1.4c-0.1,0.5-0.2,1.1-0.2,1.6c0,0.6,0.1,1.2,0.2,1.7c0.1,0.5,0.3,1,0.5,1.4
	c0.2,0.4,0.5,0.7,0.9,0.9c0.4,0.2,0.8,0.3,1.3,0.3c0.5,0,0.9-0.1,1.3-0.3C139.3,241,139.6,240.7,139.8,240.3L139.8,240.3z
	 M152.5,237.3c0,0.8-0.1,1.5-0.4,2.1c-0.3,0.6-0.7,1.1-1.2,1.4c-0.5,0.4-1,0.7-1.6,0.8c-0.6,0.2-1.2,0.3-1.9,0.3h-3.9v-0.5
	c0.1,0,0.3,0,0.5,0c0.2,0,0.3-0.1,0.4-0.1c0.1-0.1,0.2-0.1,0.3-0.3c0.1-0.1,0.1-0.3,0.1-0.4v-6.8c0-0.1,0-0.3-0.1-0.4
	c0-0.1-0.1-0.2-0.3-0.3c-0.1-0.1-0.3-0.1-0.4-0.1c-0.2,0-0.3-0.1-0.4-0.1v-0.5h4.1c0.6,0,1.1,0.1,1.7,0.3c0.5,0.2,1,0.4,1.4,0.7
	c0.5,0.4,1,0.9,1.3,1.5C152.3,235.7,152.5,236.4,152.5,237.3L152.5,237.3z M150.9,237.3c0-0.6-0.1-1.2-0.3-1.7
	c-0.2-0.5-0.4-1-0.7-1.3c-0.3-0.4-0.7-0.6-1.1-0.9c-0.4-0.2-0.9-0.3-1.5-0.3c-0.2,0-0.4,0-0.6,0c-0.2,0-0.4,0-0.5,0v7.2
	c0,0.4,0.1,0.7,0.3,0.8c0.2,0.2,0.6,0.2,1.1,0.2c0.6,0,1-0.1,1.5-0.3c0.4-0.2,0.8-0.5,1-0.8c0.3-0.4,0.5-0.8,0.6-1.3
	C150.8,238.5,150.9,237.9,150.9,237.3L150.9,237.3z M170.3,233c-0.1,0-0.2,0-0.4,0.1c-0.1,0-0.3,0.1-0.4,0.2
	c-0.2,0.1-0.3,0.2-0.4,0.3c-0.1,0.1-0.2,0.3-0.2,0.5c-0.3,1-0.7,2.2-1.1,3.6c-0.4,1.4-0.9,2.9-1.3,4.3h-0.6l-2.4-7.2l-2.5,7.2h-0.6
	c-0.5-1.6-0.9-3.2-1.3-4.8c-0.5-1.7-0.8-2.8-0.9-3.3c0-0.1-0.1-0.3-0.2-0.4c-0.1-0.1-0.2-0.2-0.3-0.3c-0.1-0.1-0.2-0.1-0.4-0.2
	c-0.1,0-0.3-0.1-0.4-0.1v-0.5h3.8v0.5c-0.3,0-0.6,0.1-0.9,0.1c-0.2,0-0.3,0.1-0.3,0.2c0,0,0,0.1,0,0.2c0,0.1,0,0.1,0,0.2
	c0.1,0.4,0.3,1,0.5,1.9c0.3,0.9,0.6,2.2,1.1,4l2.3-6.9h0.6l2.4,7.1c0.3-1,0.5-1.9,0.8-2.9c0.2-0.8,0.4-1.5,0.6-2.1
	c0.1-0.4,0.2-0.7,0.2-0.8c0-0.2,0-0.3,0-0.4c0-0.1-0.1-0.3-0.3-0.4c-0.2-0.1-0.5-0.2-1-0.2v-0.5h3.4L170.3,233z M179.4,239.1
	l-0.2,2.8h-7.8v-0.5c0.2,0,0.4,0,0.5-0.1c0.2,0,0.4-0.1,0.4-0.1c0.1-0.1,0.2-0.2,0.3-0.3c0.1-0.1,0.1-0.2,0.1-0.4v-6.7
	c0-0.1,0-0.3-0.1-0.4c0-0.1-0.1-0.2-0.3-0.3c-0.1-0.1-0.3-0.1-0.5-0.2c-0.2,0-0.4-0.1-0.5-0.1v-0.5h7.2v2.3h-0.5
	c-0.1-0.3-0.3-0.7-0.6-1.1c-0.3-0.4-0.6-0.6-0.8-0.6c-0.2,0-0.3,0-0.5,0c-0.2,0-0.4,0-0.6,0h-1.5v3.7h1.1c0.3,0,0.6,0,0.7-0.1
	c0.2-0.1,0.3-0.2,0.4-0.3c0.1-0.1,0.2-0.3,0.2-0.5c0.1-0.2,0.1-0.4,0.1-0.6h0.5v3.7h-0.5c0-0.2-0.1-0.4-0.1-0.7
	c-0.1-0.2-0.2-0.4-0.2-0.5c-0.1-0.2-0.3-0.3-0.5-0.3c-0.2-0.1-0.4-0.1-0.7-0.1h-1.1v2.8c0,0.3,0,0.5,0.1,0.7c0,0.2,0.1,0.3,0.2,0.4
	c0.1,0.1,0.3,0.1,0.5,0.2c0.2,0,0.5,0,0.8,0h0.6c0.2,0,0.4,0,0.6,0c0.2,0,0.3,0,0.5-0.1c0.2,0,0.3-0.1,0.4-0.2
	c0.2-0.2,0.4-0.5,0.6-1c0.2-0.4,0.4-0.7,0.4-0.9L179.4,239.1L179.4,239.1z M193.2,235.1h-0.5c0-0.2-0.1-0.3-0.2-0.6
	c-0.1-0.2-0.2-0.4-0.3-0.6c-0.1-0.2-0.3-0.4-0.4-0.5c-0.2-0.2-0.3-0.2-0.4-0.3c-0.1,0-0.3,0-0.5,0c-0.2,0-0.4,0-0.6,0h-0.4v7.5
	c0,0.1,0,0.3,0.1,0.4c0.1,0.1,0.2,0.2,0.3,0.3c0.1,0,0.2,0.1,0.5,0.1c0.3,0.1,0.5,0.1,0.6,0.1v0.5h-4.4v-0.5c0.1,0,0.3,0,0.6-0.1
	c0.3,0,0.4-0.1,0.5-0.1c0.1-0.1,0.3-0.1,0.3-0.2c0.1-0.1,0.1-0.3,0.1-0.4v-7.5H188c-0.1,0-0.3,0-0.5,0c-0.2,0-0.4,0-0.6,0
	c-0.1,0-0.3,0.1-0.5,0.3c-0.2,0.2-0.3,0.3-0.4,0.5c-0.1,0.2-0.2,0.4-0.3,0.6c-0.1,0.2-0.2,0.4-0.2,0.5H185v-2.5h8.1L193.2,235.1
	L193.2,235.1z M203.8,241.9h-2.5c-0.6-0.9-1.1-1.6-1.5-2.3c-0.5-0.7-1-1.3-1.5-2h-1v3c0,0.2,0,0.3,0.1,0.4c0,0.1,0.2,0.2,0.3,0.3
	c0.1,0,0.2,0.1,0.4,0.1c0.2,0,0.4,0,0.5,0v0.5h-4v-0.5c0.1,0,0.3,0,0.5,0c0.2,0,0.3-0.1,0.4-0.1c0.1-0.1,0.2-0.1,0.3-0.3
	c0.1-0.1,0.1-0.3,0.1-0.4v-6.8c0-0.2,0-0.3-0.1-0.4c0-0.1-0.1-0.2-0.3-0.3c-0.1,0-0.3-0.1-0.4-0.1c-0.2,0-0.3-0.1-0.4-0.1v-0.5h4.3
	c0.4,0,0.8,0,1.1,0.1c0.3,0.1,0.7,0.2,0.9,0.4c0.3,0.2,0.5,0.4,0.7,0.7c0.2,0.3,0.2,0.6,0.2,1c0,0.4-0.1,0.7-0.2,1
	c-0.1,0.3-0.3,0.5-0.5,0.7c-0.2,0.2-0.4,0.4-0.7,0.5c-0.3,0.1-0.6,0.3-0.9,0.3c0.5,0.6,0.8,1.1,1.1,1.5c0.3,0.4,0.7,0.9,1.1,1.5
	c0.2,0.3,0.4,0.5,0.5,0.6c0.2,0.1,0.3,0.2,0.5,0.3c0.1,0.1,0.3,0.1,0.4,0.1c0.2,0,0.3,0,0.4,0.1L203.8,241.9L203.8,241.9z
	 M200.3,234.9c0-0.6-0.2-1-0.5-1.3c-0.3-0.3-0.8-0.5-1.4-0.5h-1.1v4h0.9c0.6,0,1.1-0.2,1.5-0.6C200.1,236.1,200.3,235.6,200.3,234.9
	L200.3,234.9z M213.6,233c-0.1,0-0.3,0-0.5,0.1c-0.2,0-0.4,0.1-0.6,0.2c-0.1,0.1-0.3,0.3-0.3,0.6c-0.1,0.3-0.1,0.7-0.1,1.2v4.1
	c0,0.5-0.1,1-0.3,1.4c-0.2,0.4-0.5,0.7-0.8,0.9c-0.3,0.2-0.7,0.4-1.1,0.5c-0.4,0.1-0.7,0.2-1.1,0.2c-0.6,0-1.1-0.1-1.5-0.2
	c-0.4-0.1-0.8-0.3-1.1-0.6c-0.3-0.3-0.5-0.5-0.7-0.9c-0.1-0.3-0.2-0.7-0.2-1v-5.5c0-0.2,0-0.3-0.1-0.4c0-0.1-0.1-0.2-0.3-0.3
	c-0.1-0.1-0.3-0.1-0.4-0.1c-0.2,0-0.3-0.1-0.4-0.1v-0.5h3.9v0.5c-0.1,0-0.3,0-0.5,0.1c-0.2,0-0.3,0.1-0.4,0.1
	c-0.1,0.1-0.3,0.1-0.3,0.3c0,0.1-0.1,0.3-0.1,0.4v5.2c0,0.3,0,0.5,0.1,0.8c0.1,0.3,0.2,0.5,0.3,0.8c0.2,0.2,0.4,0.4,0.7,0.6
	c0.3,0.2,0.7,0.2,1.2,0.2c0.5,0,0.9-0.1,1.2-0.2c0.3-0.2,0.6-0.4,0.8-0.6c0.2-0.2,0.3-0.5,0.4-0.7c0.1-0.3,0.1-0.5,0.1-0.8v-3.8
	c0-0.5,0-0.9-0.1-1.2c-0.1-0.3-0.2-0.5-0.3-0.6c-0.2-0.1-0.4-0.2-0.6-0.3c-0.3-0.1-0.5-0.1-0.6-0.1v-0.5h3.8L213.6,233L213.6,233z
	 M220.5,237.6c0.2,0.2,0.3,0.5,0.4,0.7c0.1,0.3,0.1,0.6,0.1,0.9c0,0.8-0.3,1.5-0.9,2c-0.6,0.5-1.4,0.8-2.3,0.8
	c-0.4,0-0.8-0.1-1.3-0.2c-0.4-0.1-0.8-0.3-1.1-0.5l-0.3,0.5h-0.5l-0.1-3.2h0.5c0.1,0.4,0.2,0.8,0.4,1.1c0.1,0.3,0.3,0.6,0.6,0.9
	c0.2,0.3,0.5,0.5,0.8,0.6c0.3,0.2,0.7,0.2,1.1,0.2c0.3,0,0.6,0,0.8-0.1c0.2-0.1,0.4-0.2,0.6-0.3c0.1-0.1,0.2-0.3,0.3-0.5
	c0.1-0.2,0.1-0.4,0.1-0.7c0-0.4-0.1-0.7-0.3-1c-0.2-0.3-0.5-0.6-0.9-0.7c-0.3-0.1-0.7-0.3-1-0.4c-0.4-0.1-0.7-0.3-1-0.4
	c-0.5-0.2-0.9-0.5-1.2-0.9c-0.3-0.4-0.4-0.9-0.4-1.5c0-0.4,0.1-0.7,0.2-1c0.1-0.3,0.4-0.6,0.6-0.8c0.3-0.2,0.6-0.4,0.9-0.5
	c0.3-0.1,0.7-0.2,1.1-0.2c0.4,0,0.8,0.1,1.2,0.2c0.3,0.1,0.7,0.3,0.9,0.5l0.3-0.4h0.5l0.1,3.1h-0.5c-0.1-0.3-0.2-0.7-0.3-1
	c-0.1-0.3-0.3-0.6-0.5-0.9c-0.2-0.3-0.4-0.5-0.7-0.6c-0.3-0.2-0.6-0.2-1-0.2c-0.4,0-0.8,0.1-1.1,0.4c-0.3,0.3-0.4,0.6-0.4,1
	c0,0.4,0.1,0.7,0.3,1c0.2,0.3,0.5,0.5,0.8,0.7c0.3,0.1,0.6,0.3,0.9,0.4c0.3,0.1,0.6,0.2,0.9,0.4c0.3,0.1,0.5,0.2,0.8,0.4
	C220.1,237.2,220.3,237.4,220.5,237.6L220.5,237.6z M230.6,235.1h-0.5c0-0.2-0.1-0.3-0.2-0.6c-0.1-0.2-0.2-0.4-0.3-0.6
	c-0.1-0.2-0.3-0.4-0.4-0.5c-0.2-0.2-0.3-0.2-0.4-0.3c-0.1,0-0.3,0-0.5,0c-0.2,0-0.4,0-0.6,0h-0.4v7.5c0,0.1,0,0.3,0.1,0.4
	c0.1,0.1,0.2,0.2,0.3,0.3c0.1,0,0.2,0.1,0.5,0.1c0.3,0.1,0.5,0.1,0.6,0.1v0.5h-4.4v-0.5c0.1,0,0.3,0,0.6-0.1c0.3,0,0.4-0.1,0.5-0.1
	c0.1-0.1,0.3-0.1,0.3-0.2c0.1-0.1,0.1-0.3,0.1-0.4v-7.5h-0.4c-0.1,0-0.3,0-0.5,0c-0.2,0-0.4,0-0.6,0c-0.1,0-0.3,0.1-0.5,0.3
	c-0.2,0.2-0.3,0.3-0.4,0.5c-0.1,0.2-0.2,0.4-0.3,0.6c-0.1,0.2-0.2,0.4-0.2,0.5h-0.5v-2.5h8.1V235.1z"/>
<path class="st4" d="M167,123.4C167,123.4,167,123.4,167,123.4c0,0,1.2,0.4,1.2,2.2c1-0.2,1.4,0.3,1.2,1.6c0,0-1.2-0.3-1.4,0.4
	c-0.3,0.8-0.1,1.5,0.7,2c0,0,1.3,1,2.1-0.9c0.8-1.9,1.1-2.5,1.1-2.5c0.2-0.7,1.5-2.3,2.7-2.6c0.5-0.2,0.9-0.1,1.4,0
	c0,0,1,0.2,1.1,1.1c0,0.9-0.3,1.3-0.9,1.5c-0.7,0.3-1.5-0.3-1.5-0.3c-0.3-0.1-0.4,0-0.5,0.2c-0.1,0.1-0.4,0.4-0.6,0.8
	c0,0-0.6,1.2-0.9,2.2c-0.2,0.7-0.7,3-3,3.3h-5.3c-2.3-0.3-2.7-2.6-3-3.3c-0.3-0.9-0.9-2.2-0.9-2.2c-0.2-0.4-0.5-0.8-0.6-0.8
	c-0.2-0.1-0.3-0.2-0.5-0.2c0,0-0.8,0.6-1.5,0.3c-0.6-0.3-0.9-0.6-0.9-1.5c0-0.9,1.1-1.1,1.1-1.1c0.5-0.1,0.9-0.2,1.4,0
	c1.2,0.2,2.5,1.9,2.7,2.6c0,0,0.3,0.6,1.1,2.5c0.8,1.9,2.1,0.9,2.1,0.9c0.8-0.5,1-1.2,0.7-2c-0.2-0.7-1.4-0.4-1.4-0.4
	c-0.2-1.3,0.2-1.8,1.2-1.6C165.9,123.8,167,123.4,167,123.4C167,123.4,167,123.4,167,123.4L167,123.4z"/>
<path class="st5" d="M173.6,184.3h-12.9l1.5-50.3h9.9L173.6,184.3z M173.6,212.2h-13.7l0-22.8l13.7,0V212.2z"/>
<path class="st6" d="M159.7,186.8h13.9c1,0,1.8,0.6,1.8,1.3c0,0.7-0.8,1.3-1.8,1.3h-13.9c-1,0-1.8-0.6-1.8-1.3
	C157.9,187.4,158.7,186.8,159.7,186.8z"/>
<path class="st5" d="M160.7,184.3h12.1c0.9,0,1.6,0.6,1.6,1.2c0,0.7-0.7,1.2-1.6,1.2h-12.1c-0.9,0-1.6-0.6-1.6-1.2
	C159.1,184.9,159.8,184.3,160.7,184.3z"/>
<path class="st7" d="M163,193.7h7.3v15.1H163V193.7z"/>
<path class="st8" d="M162.8,132.2h8.4c0.7,0,1.3,0.4,1.3,0.9c0,0.5-0.6,0.9-1.3,0.9h-8.4c-0.7,0-1.3-0.4-1.3-0.9
	C161.6,132.6,162.1,132.2,162.8,132.2z"/>
<path class="st9" d="M98.1,215h139.6v4.7H98.1V215z"/>
<path class="st10" d="M92.2,219.6h151.6v5H92.2V219.6z"/>
<path class="st11" d="M102.2,112.8h130.3v2.9H102.2V112.8z"/>
<path class="st12" d="M208,112.7c-6.8-16.2-22.4-27.5-40.7-27.5c-18.2,0-33.9,11.3-40.7,27.5h-16.2c7.5-24.9,30.1-43.1,56.9-43.1
	c26.7,0,49.4,18.2,56.9,43.1L208,112.7z"/>
<path class="st13" d="M105.7,115.7c0,0,2.3,1.3,4.1,5.4l115.9,0c0,0,1.9-4.5,4.5-5.4L105.7,115.7z"/>
<path class="st12" d="M134.5,122.1c0,0,10.7,18.4,32.6,18.2c21.6-0.3,32.6-17.5,32.6-17.5l5.8,8.5c0,0,2.1,2.9-2,6.5
	c-14.6,12.8-26.1,15.4-36.3,15.3c-15.1-0.8-27.2-5.9-36.5-15.3c-1.7-1.4-2-3.2-1.5-4.7L134.5,122.1z"/>
<path class="st14" d="M128.9,135c0,0-0.7-3.7,5.2-0.7l0.4-12.1 M205.8,132.4c-1.9-4-5.3,0.9-5.3,0.9l-0.9-10.6"/>
<path class="st15" d="M109.2,121.3h116.5c0.4,0,0.8,0.4,0.8,0.8v0.3c0,0.4-0.3,0.8-0.8,0.8H109.2c-0.4,0-0.8-0.4-0.8-0.8v-0.3
	C108.5,121.6,108.8,121.3,109.2,121.3z"/>
<path class="st4" d="M119.5,123.3C119.6,123.2,119.6,123.2,119.5,123.3c0,0,1.2,0.4,1.2,2.2c1-0.2,1.4,0.3,1.2,1.6
	c0,0-1.2-0.3-1.4,0.4c-0.3,0.8-0.1,1.5,0.7,2c0,0,1.3,1,2.1-0.9c0.8-1.9,1.1-2.5,1.1-2.5c0.2-0.7,1.5-2.3,2.7-2.6
	c0.5-0.2,0.9-0.1,1.4,0c0,0,1,0.2,1.1,1.1c0,0.9-0.3,1.3-0.9,1.5c-0.7,0.3-1.5-0.3-1.5-0.3c-0.3-0.1-0.4,0-0.5,0.2
	c-0.1,0.1-0.4,0.4-0.6,0.8c0,0-0.6,1.2-0.9,2.2c-0.2,0.7-0.7,3-3,3.3h-5.3c-2.3-0.3-2.7-2.6-3-3.3c-0.3-0.9-0.9-2.2-0.9-2.2
	c-0.2-0.4-0.5-0.8-0.6-0.8c-0.2-0.1-0.3-0.2-0.5-0.2c0,0-0.8,0.6-1.5,0.3c-0.6-0.3-0.9-0.6-0.9-1.5c0-0.9,1.1-1.1,1.1-1.1
	c0.5-0.1,0.9-0.2,1.4,0c1.2,0.2,2.5,1.9,2.7,2.6c0,0,0.3,0.6,1.1,2.5c0.8,1.9,2.1,0.9,2.1,0.9c0.8-0.5,1-1.2,0.7-2
	c-0.2-0.7-1.4-0.4-1.4-0.4c-0.2-1.3,0.2-1.8,1.2-1.6C118.4,123.7,119.6,123.2,119.5,123.3C119.6,123.2,119.6,123.2,119.5,123.3
	L119.5,123.3z"/>
<path class="st5" d="M126,184.3h-12.9l1.7-50.3h9.5L126,184.3z M126.4,212.2h-13.7l0-22.8l13.7,0L126.4,212.2z"/>
<path class="st5" d="M112.6,186.8h13.9c1,0,1.8,0.6,1.8,1.3c0,0.7-0.8,1.3-1.8,1.3h-13.9c-1,0-1.8-0.6-1.8-1.3
	C110.9,187.4,111.7,186.8,112.6,186.8z M113.5,184.3h12.1c0.9,0,1.6,0.6,1.6,1.2c0,0.7-0.7,1.2-1.6,1.2h-12.1
	c-0.9,0-1.6-0.6-1.6-1.2C112,184.9,112.7,184.3,113.5,184.3z"/>
<path class="st7" d="M115.9,193.7h7.3v15.1h-7.3L115.9,193.7z"/>
<path class="st8" d="M115.4,132.4h8.4c0.7,0,1.3,0.4,1.3,0.9c0,0.5-0.6,0.9-1.3,0.9h-8.4c-0.7,0-1.3-0.4-1.3-0.9
	C114.1,132.8,114.7,132.4,115.4,132.4z"/>
<path class="st16" d="M109.8,212.3h19.5v2.6h-19.5V212.3z"/>
<path class="st4" d="M215.2,123.4C215.2,123.4,215.2,123.4,215.2,123.4c0,0,1.2,0.4,1.2,2.2c1-0.2,1.4,0.3,1.2,1.6
	c0,0-1.2-0.3-1.4,0.4c-0.3,0.8-0.1,1.5,0.7,2c0,0,1.3,1,2.1-0.9c0.8-1.9,1.1-2.5,1.1-2.5c0.2-0.7,1.5-2.3,2.7-2.6
	c0.5-0.2,0.9-0.1,1.4,0c0,0,1,0.2,1.1,1.1c0,0.9-0.3,1.3-0.9,1.5c-0.7,0.3-1.5-0.3-1.5-0.3c-0.3-0.1-0.4,0-0.5,0.2
	c-0.1,0.1-0.4,0.4-0.6,0.8c0,0-0.6,1.2-0.9,2.2c-0.2,0.7-0.7,3-3,3.3h-5.3c-2.3-0.3-2.7-2.6-3-3.3c-0.3-0.9-0.9-2.2-0.9-2.2
	c-0.2-0.4-0.5-0.8-0.6-0.8c-0.2-0.1-0.3-0.2-0.5-0.2c0,0-0.8,0.6-1.5,0.3c-0.6-0.3-0.9-0.6-0.9-1.5c0-0.9,1.1-1.1,1.1-1.1
	c0.5-0.1,0.9-0.2,1.4,0c1.2,0.2,2.5,1.9,2.7,2.6c0,0,0.3,0.6,1.1,2.5c0.8,1.9,2.1,0.9,2.1,0.9c0.8-0.5,1-1.2,0.7-2
	c-0.2-0.7-1.4-0.4-1.4-0.4c-0.2-1.3,0.2-1.8,1.2-1.6C214,123.8,215.2,123.4,215.2,123.4C215.2,123.4,215.2,123.4,215.2,123.4
	L215.2,123.4z"/>
<path class="st5" d="M221.9,184.3H209l1.7-50.3h9.5L221.9,184.3z M222.6,212.2h-13.7l-0.1-22.8l13.8,0L222.6,212.2z"/>
<path class="st6" d="M208.8,186.8h13.9c1,0,1.8,0.6,1.8,1.3c0,0.7-0.8,1.3-1.8,1.3h-13.9c-1,0-1.8-0.6-1.8-1.3
	C207,187.4,207.8,186.8,208.8,186.8z"/>
<path class="st5" d="M209.5,184.3h12.1c0.9,0,1.6,0.6,1.6,1.2c0,0.7-0.7,1.2-1.6,1.2h-12.1c-0.9,0-1.6-0.6-1.6-1.2
	C207.9,184.9,208.6,184.3,209.5,184.3z"/>
<path class="st7" d="M212,193.7h7.3v15.1H212V193.7z"/>
<path class="st8" d="M211.2,132.2h8.4c0.7,0,1.3,0.4,1.3,0.9c0,0.5-0.6,0.9-1.3,0.9h-8.4c-0.7,0-1.3-0.4-1.3-0.9
	S210.5,132.2,211.2,132.2z"/>
<path class="st16" d="M156.7,212.3h19.5v2.6h-19.5L156.7,212.3z"/>
<path class="st17" d="M84.2,176.6c-3.3-2.4-6.8-1.8-6.8-1.8s2.5-3.4,6.6-1.7c2.6,1.1,4.8,5,11.3,0.9c6.5-4.1,9-6.2,14.8-8.1
	c5.9-2,10.5-2.4,11.9-2.9c1.4-0.5,3.5-1.3,4.6-7.9c0.3-1.5,6.3,12.5,6.3,12.5s-0.9,4.6-6.6,7.3s-15.7,4.2-21.3,8.6
	c-1.9,1.5-5.5,4.1-7.7,7.3c-5.1,7.5-10.5,8.4-10.5,8.4s4.8-4.2,6.2-10c0.3-1.1-0.2-5.9,1.8-7.8c-2,2-7.2-2-6.5-1.4
	C88.2,180.1,87.5,179,84.2,176.6L84.2,176.6z M208.3,155.2c0,0,1,5.7,12.2,8.6c11.2,2.9,12.9,6.5,14.8,7.4c1.8,0.9,6.5,4.3,11.6,2.6
	c2-0.7,7.5-2.2,8-1.9c0.2,0.3-1.6,3.2-1.8,3.5c-3.7,4.4-5.1,5.1-6.5,5.8c-3,1.5-3.2,1.7-5.4,1.8c0,0,2,2.5,2.3,6.6
	c0.3,4.1,5.8,8.2,5.8,8.2s-7.3-1.9-10.4-6.2c-3.2-4.3-8.4-8-10.4-9c-1.9-0.9-11.8-4.3-13.9-5.1c-2.1-0.8-8.5-4.2-9.4-9.7
	C204.3,162.4,208.3,155.2,208.3,155.2L208.3,155.2z"/>
<path class="st18" d="M102.2,159.6c-7.6-3-5.3-5-5.3-5c1.9-3.3,4.3-7.5,13.6-11.1c12.4-4.8,25-2.6,21.6,2.9
	c-2.1,3.4-5.6,9.2-5.6,9.2s-1.5-3.9-8.2-1.4c-6.8,2.5-8.8,3.6-9.2,4.9c-0.6,2.1-0.4,3.4,4.5,2.6c-3.2,1.1-6.7,0-10.7-1.8
	L102.2,159.6z"/>
<path class="st19" d="M218,154c1.4,0.4,3.8,1.5,5.2,2.5c6.9,4.9,5.6,9.3,3.7,9.4c-2.1,0.1,13.5-0.3,15.4-1.3c1.9-1,2.5-2.1,1.4-4.5
	c-1.1-2.4-9.6-16.9-23.5-19.7c-13.9-2.8-19.4,3.1-18.2,5.1c1.1,1.9,6.3,8.1,6.4,10.7C209.8,153.5,213,152.7,218,154L218,154z"/>
<g>
	<path class="st20" d="M211.4,151.3l-2.7-3.8l0.7,4.2l-1.1,0.2l-1.2-7.3l1.2-0.2l3.5,4.9l1.8-5.7l1-0.2l1.2,7.3l-1.4,0.2l-0.7-4.2
		l-1.4,4.5L211.4,151.3z M222.4,148.5c-0.2,1.1-0.7,2-1.3,2.5c-0.6,0.5-1.4,0.7-2.2,0.5c-0.8-0.2-1.5-0.6-1.9-1.3
		c-0.4-0.7-0.5-1.6-0.3-2.7l0.1-0.4c0.2-1,0.6-1.9,1.2-2.4c0.6-0.6,1.4-0.7,2.3-0.6c0.9,0.2,1.5,0.7,1.9,1.4
		c0.3,0.8,0.4,1.7,0.2,2.7L222.4,148.5z M220.9,148.1l0-0.2c0.2-0.9,0.2-1.6,0.2-2c-0.1-0.5-0.4-0.7-0.9-0.9c-0.5-0.1-0.9,0-1.1,0.4
		c-0.2,0.4-0.5,1-0.7,2l0,0.2c-0.2,1-0.3,1.7-0.2,2.1c0.1,0.4,0.4,0.7,0.9,0.8c0.4,0.1,0.8,0,1.1-0.4
		C220.5,149.7,220.7,149,220.9,148.1L220.9,148.1z M228.3,151.7c-0.6,1.1-1.2,1.7-1.9,2c-0.7,0.3-1.4,0.2-2.2-0.2l-2.3-1.2l3.5-6.5
		l2,1.1c0.9,0.5,1.4,1.1,1.5,1.9c0.1,0.8-0.1,1.6-0.6,2.6L228.3,151.7z M227,150.9l0.1-0.2c0.4-0.7,0.6-1.3,0.5-1.8
		c0-0.5-0.2-0.9-0.6-1.1l-0.5-0.3l-2.5,4.6l0.6,0.3c0.4,0.2,0.8,0.2,1.1,0C226.1,152.3,226.5,151.8,227,150.9L227,150.9z M232.3,152
		l-1.4,1.4l1.5,1.5l-0.8,0.8l-1.5-1.5l-1.5,1.5l2,2l-0.8,0.8l-3.2-3.1l5.2-5.3l3,3l-0.8,0.8L232.3,152z M233.1,163.7l-0.8-1.3
		c1-0.6,1.7-1.1,2-1.6c0.3-0.4,0.4-0.8,0.2-1.2l-0.2-0.3l-2.9,1.7l-0.8-1.4l6.3-3.7l1.4,2.4c0.3,0.6,0.4,1.1,0.3,1.5
		c-0.1,0.4-0.4,0.7-0.8,0.9l-0.3,0.2c-0.4,0.2-0.7,0.3-1.1,0.2c-0.3-0.1-0.7-0.3-0.9-0.7c0.1,0.6,0,1.1-0.4,1.7
		C234.9,162.5,234.2,163.1,233.1,163.7L233.1,163.7z M236.7,159.5l0.2-0.1c0.3-0.2,0.4-0.3,0.5-0.6c0-0.2,0-0.4-0.2-0.7l-0.3-0.4
		l-1.7,1l0.2,0.4c0.2,0.3,0.4,0.5,0.6,0.6C236.2,159.7,236.5,159.7,236.7,159.5z M213.1,172.8l-1.3-1l0.6-1.7l-1.9-1.4l-1.5,1.1
		l-1-0.8l6.2-4.6l1.2,0.9L213.1,172.8z M212.8,169.1l0.9-2.7l-2.2,1.7L212.8,169.1z M221.4,169.8l-1.4-0.7l-2.7,5.7l-1.4-0.7
		l2.7-5.7l-1.4-0.7l0.5-1l4.2,2L221.4,169.8z M224.7,169.9l-2.9,6.8l-1.5-0.6l2.9-6.8L224.7,169.9z M230.3,176.6
		c-0.5,1.1-1.1,1.8-1.8,2.1c-0.7,0.3-1.5,0.3-2.3,0c-0.8-0.3-1.3-0.9-1.5-1.7c-0.2-0.8-0.1-1.7,0.3-2.7l0.2-0.4c0.4-1,1-1.7,1.7-2.1
		c0.7-0.4,1.5-0.4,2.4,0c0.9,0.4,1.4,1,1.5,1.8c0.2,0.8,0,1.7-0.4,2.7L230.3,176.6z M228.9,175.9l0.1-0.2c0.4-0.8,0.6-1.5,0.6-1.9
		c0-0.5-0.2-0.8-0.7-1c-0.5-0.2-0.9-0.2-1.2,0.1c-0.3,0.3-0.7,0.9-1.1,1.8l-0.1,0.2c-0.4,0.9-0.6,1.6-0.6,2c0,0.4,0.2,0.7,0.7,0.9
		c0.4,0.2,0.8,0.1,1.1-0.2C228.2,177.4,228.5,176.8,228.9,175.9L228.9,175.9z M235.2,179.8l2.2-3.8l1,0.6l-3.7,6.4l-0.6-0.3
		l-0.7-5.8l-2.3,4l-1-0.6l3.7-6.4l0.7,0.4L235.2,179.8z M109.4,155.3l-1,0.6l-5.5-5.3l1.4-0.8l3.4,3.4l-1.2-4.7l1-0.6l3.6,3.3
		l-1.4-4.6l1.1-0.7l2.1,7.3l-1,0.6l-3.7-3.4L109.4,155.3z M114.8,144.8l2.2,7.1l-1.5,0.5l-2.2-7.1L114.8,144.8z M123.3,148.6
		c0.1,0.8-0.1,1.4-0.5,1.8c-0.4,0.4-1.1,0.7-2,0.8c-0.5,0.1-0.9,0.1-1.3,0.1c-0.4,0-0.6-0.1-0.9-0.1l-0.2-1.3
		c0.2,0.1,0.5,0.2,0.9,0.2c0.4,0,0.8,0,1.1,0c0.5-0.1,0.8-0.2,1-0.4c0.2-0.2,0.2-0.4,0.2-0.7c0-0.2-0.1-0.4-0.3-0.5
		c-0.2-0.1-0.6-0.3-1.3-0.5c-0.5-0.1-1-0.4-1.3-0.7c-0.3-0.3-0.5-0.7-0.6-1.3c-0.1-0.6,0.1-1.1,0.5-1.5c0.4-0.5,1-0.7,1.8-0.8
		c0.4-0.1,0.7-0.1,1.1,0c0.3,0,0.5,0,0.7,0.1l0.2,1.1c-0.3,0-0.5-0.1-0.8-0.1c-0.3,0-0.5,0-0.8,0c-0.4,0.1-0.7,0.2-0.9,0.3
		c-0.2,0.2-0.2,0.3-0.2,0.5c0,0.3,0.1,0.4,0.3,0.6c0.2,0.1,0.6,0.3,1.3,0.4c0.7,0.2,1.1,0.4,1.5,0.7
		C123,147.7,123.2,148.1,123.3,148.6L123.3,148.6z M146.1,143.6c-0.2,0.4-0.6,0.7-1,0.9c-0.4,0.2-0.9,0.1-1.5-0.2
		c-0.3-0.2-0.6-0.3-0.8-0.5c-0.2-0.1-0.3-0.3-0.4-0.4l0.5-1c0.1,0.1,0.2,0.2,0.4,0.4c0.2,0.1,0.3,0.2,0.5,0.3
		c0.2,0.1,0.3,0.1,0.5,0.1c0.2,0,0.3-0.2,0.4-0.4l2.5-4.9l1.4,0.7L146.1,143.6z M154.1,146.5c-0.2,0.6-0.6,1.1-1.2,1.3
		c-0.5,0.2-1.2,0.2-2-0.1c-0.9-0.3-1.4-0.8-1.6-1.3c-0.2-0.5-0.2-1.2,0.1-2l1.8-4.6l1.5,0.6l-1.8,4.8c-0.1,0.4-0.2,0.7-0.1,0.9
		c0.1,0.2,0.3,0.4,0.7,0.6c0.4,0.1,0.7,0.2,0.9,0.1c0.2-0.1,0.4-0.4,0.6-0.8l1.8-4.8l1.1,0.4L154.1,146.5z M161.9,148.1
		c-0.1,0.8-0.4,1.3-0.9,1.6c-0.5,0.3-1.2,0.4-2.1,0.3c-0.5-0.1-0.9-0.1-1.3-0.2c-0.3-0.1-0.6-0.2-0.8-0.3l0.2-1.3
		c0.2,0.1,0.4,0.3,0.8,0.4c0.4,0.1,0.7,0.2,1.1,0.3c0.5,0.1,0.9,0,1.1-0.1c0.2-0.1,0.3-0.3,0.4-0.7c0-0.2,0-0.4-0.1-0.6
		s-0.5-0.4-1.1-0.8c-0.5-0.3-0.9-0.6-1.1-1c-0.2-0.4-0.3-0.9-0.3-1.5c0.1-0.6,0.4-1,0.9-1.3c0.5-0.3,1.2-0.4,2-0.4
		c0.4,0,0.7,0.1,1,0.2c0.3,0.1,0.5,0.2,0.6,0.3l-0.1,1.1c-0.3-0.1-0.5-0.2-0.8-0.3c-0.3-0.1-0.5-0.1-0.8-0.2c-0.4-0.1-0.7,0-0.9,0.1
		c-0.2,0.1-0.3,0.3-0.3,0.5c0,0.3,0,0.5,0.1,0.6c0.1,0.1,0.5,0.4,1.1,0.7c0.6,0.3,1,0.7,1.2,1.1C161.9,147.2,162,147.6,161.9,148.1
		L161.9,148.1z M169.2,144.5l-1.5,0l-0.1,6.3l-1.6,0l0.1-6.3l-1.6,0l0-1.1l4.7,0.1L169.2,144.5z M173.5,142.9l0.9,7.3l-1.6,0.2
		l-0.9-7.3L173.5,142.9z M182.3,148.1c-0.1,0.1-0.2,0.2-0.5,0.4c-0.3,0.2-0.6,0.3-0.9,0.4c-0.9,0.3-1.7,0.2-2.5-0.2
		c-0.7-0.4-1.3-1.2-1.6-2.3l-0.1-0.3c-0.3-1.1-0.3-2,0.1-2.8c0.4-0.8,1-1.4,1.9-1.6c0.4-0.1,0.7-0.2,1-0.2c0.3,0,0.5,0,0.6,0
		l0.3,1.1c-0.1,0-0.3,0-0.6,0c-0.2,0-0.5,0.1-0.8,0.1c-0.5,0.2-0.9,0.5-1.1,1.1c-0.2,0.5-0.1,1.2,0.1,2l0,0.1c0.3,0.8,0.6,1.4,1,1.7
		c0.4,0.3,0.9,0.4,1.4,0.2c0.3-0.1,0.6-0.2,0.8-0.4c0.2-0.1,0.4-0.3,0.5-0.4L182.3,148.1z M184.5,140.3l0.9,1.8l1.9-0.9l0.5,1
		l-1.9,0.9l0.9,1.9l2.6-1.3l0.5,1l-4,2l-3.3-6.6l3.8-1.9l0.5,1L184.5,140.3z M106.8,175.4c0.6,1,0.8,1.9,0.7,2.7
		c-0.1,0.7-0.6,1.3-1.3,1.7l-2.2,1.2l-3.6-6.5l2-1.1c0.9-0.5,1.7-0.6,2.4-0.3c0.7,0.3,1.3,1,1.9,1.9L106.8,175.4z M105.4,176.2
		l-0.1-0.2c-0.4-0.7-0.8-1.2-1.2-1.4c-0.4-0.2-0.9-0.3-1.3,0l-0.5,0.3l2.5,4.5l0.6-0.4c0.4-0.2,0.6-0.5,0.6-0.9
		C106.1,177.6,105.8,177,105.4,176.2L105.4,176.2z M113.4,172.7c0.5,1.1,0.6,2,0.3,2.8c-0.2,0.8-0.8,1.3-1.6,1.7
		c-0.8,0.3-1.5,0.3-2.3,0c-0.7-0.4-1.3-1.1-1.8-2.1l-0.2-0.4c-0.4-1-0.5-1.9-0.3-2.7c0.2-0.8,0.7-1.4,1.6-1.8
		c0.9-0.4,1.6-0.3,2.3,0.1c0.7,0.4,1.3,1.1,1.7,2.1L113.4,172.7z M111.9,173.2l-0.1-0.2c-0.4-0.8-0.7-1.4-1-1.8
		c-0.3-0.3-0.7-0.4-1.2-0.2c-0.5,0.2-0.7,0.5-0.7,0.9c0,0.4,0.2,1.1,0.6,2l0.1,0.2c0.4,0.9,0.7,1.5,1,1.8c0.3,0.3,0.7,0.3,1.2,0.1
		c0.4-0.2,0.6-0.5,0.7-0.9C112.5,174.7,112.3,174.1,111.9,173.2L111.9,173.2z M119.2,174.5l-3.3-3.3l1.4,4l-1,0.4l-2.5-6.9l1.1-0.4
		l4.3,4.2l0.7-6l1-0.4l2.5,6.9l-1.4,0.5l-1.4-4l-0.6,4.7L119.2,174.5z M129,101.4c0,0.2-0.1,0.4-0.2,0.7c-0.1,0.3-0.3,0.7-0.6,1
		c-0.6,0.9-1.4,1.4-2.4,1.6c-1,0.2-2-0.1-3.1-0.9l-0.3-0.2c-1-0.7-1.6-1.6-1.8-2.6c-0.2-1,0-2,0.6-2.8c0.3-0.4,0.5-0.7,0.7-0.9
		c0.2-0.2,0.4-0.4,0.6-0.5l1.1,0.7c-0.2,0.1-0.3,0.2-0.5,0.4c-0.2,0.2-0.4,0.4-0.6,0.7c-0.4,0.5-0.5,1.1-0.3,1.7
		c0.2,0.6,0.7,1.2,1.4,1.7l0.1,0.1c0.8,0.6,1.5,0.8,2.1,0.8c0.6,0,1-0.3,1.4-0.8c0.2-0.3,0.4-0.6,0.5-0.9c0.1-0.3,0.2-0.5,0.2-0.7
		L129,101.4z M133,91.5c0.9,0.9,1.4,1.8,1.5,2.7c0.1,0.9-0.3,1.7-1,2.5c-0.7,0.7-1.5,1.1-2.4,1c-0.9,0-1.8-0.5-2.8-1.4l-0.3-0.3
		c-0.9-0.8-1.4-1.7-1.5-2.6c-0.1-0.9,0.2-1.8,1-2.6c0.8-0.8,1.6-1.1,2.5-1c0.9,0.1,1.8,0.6,2.7,1.4L133,91.5z M131.6,92.8l-0.2-0.2
		c-0.7-0.7-1.3-1.2-1.8-1.4c-0.5-0.2-0.9-0.1-1.4,0.4c-0.4,0.4-0.5,0.9-0.4,1.3c0.2,0.4,0.7,1.1,1.5,1.8l0.1,0.1
		c0.8,0.8,1.4,1.3,1.9,1.4c0.4,0.2,0.9,0,1.3-0.4c0.4-0.4,0.5-0.8,0.3-1.3C132.8,94.1,132.3,93.5,131.6,92.8L131.6,92.8z
		 M140.3,86.5l-2.9-3.9l1.1-0.8l4.8,6.6l-0.6,0.5l-6.3-1.8l3,4.2l-1.1,0.8l-4.8-6.6l0.8-0.6L140.3,86.5z M150.5,82.3
		c0.4,0.8,0.4,1.5,0,2.1c-0.4,0.6-1,1.1-1.9,1.6c-0.5,0.2-1,0.4-1.4,0.5c-0.4,0.1-0.7,0.2-1,0.2l-0.6-1.3c0.2,0,0.6,0,1-0.1
		c0.4-0.1,0.9-0.2,1.2-0.4c0.5-0.3,0.9-0.5,1-0.7c0.1-0.2,0.1-0.5,0-0.9c-0.1-0.2-0.3-0.4-0.5-0.5c-0.2-0.1-0.7-0.1-1.6-0.1
		c-0.7,0-1.2-0.1-1.7-0.3c-0.5-0.2-0.8-0.6-1.1-1.2c-0.3-0.6-0.2-1.2,0.1-1.8c0.3-0.6,0.9-1.1,1.7-1.5c0.4-0.2,0.8-0.3,1.2-0.4
		c0.4-0.1,0.6-0.1,0.8-0.2l0.5,1.1c-0.3,0.1-0.6,0.1-0.9,0.2c-0.3,0.1-0.6,0.2-0.9,0.3c-0.4,0.2-0.7,0.4-0.9,0.7s-0.2,0.4-0.1,0.7
		c0.1,0.3,0.3,0.4,0.5,0.5c0.2,0.1,0.7,0.1,1.6,0c0.8-0.1,1.4,0,1.9,0.3C149.9,81.4,150.2,81.8,150.5,82.3z M157.6,75.5l-1.7,0.5
		l1.8,6.7l-1.8,0.5l-1.8-6.7l-1.8,0.5l-0.3-1.2l5.3-1.4L157.6,75.5z M162.4,73.7l1.8-0.1l0.6,8.2l-1.8,0.1L162.4,73.7z M174.1,75.2
		l-1.8-0.1l-0.5,7l-1.8-0.1l0.5-7l-1.8-0.1l0.1-1.2l5.4,0.4L174.1,75.2z M183,82.2c-0.2,0.7-0.6,1.2-1.2,1.5c-0.6,0.3-1.3,0.3-2.3,0
		c-1-0.3-1.7-0.8-2-1.3c-0.3-0.6-0.3-1.3-0.1-2.2l1.6-5.3l1.8,0.5l-1.7,5.5c-0.1,0.4-0.1,0.8,0,1c0.1,0.3,0.4,0.5,0.9,0.6
		c0.4,0.1,0.8,0.1,1.1,0c0.3-0.1,0.5-0.4,0.6-0.9l1.7-5.5l1.3,0.4L183,82.2z M193.3,81.7l-1.6-0.8l-3.2,6.2l-1.6-0.8l3.2-6.2
		l-1.6-0.8l0.6-1.1l4.9,2.5L193.3,81.7z M197.9,83.1l1.5,1.1l-4.8,6.6l-1.5-1.1L197.9,83.1z M205.1,95.1c-0.9,0.9-1.8,1.4-2.7,1.4
		c-0.9,0-1.7-0.3-2.4-1c-0.7-0.7-1-1.5-1-2.4c0-0.9,0.5-1.8,1.4-2.7l0.3-0.3c0.8-0.8,1.7-1.3,2.7-1.4c0.9-0.1,1.8,0.2,2.6,1
		c0.8,0.8,1.1,1.6,0.9,2.6c-0.1,0.9-0.6,1.8-1.4,2.6L205.1,95.1z M203.8,93.7l0.2-0.2c0.7-0.7,1.2-1.3,1.4-1.8
		c0.2-0.5,0.1-0.9-0.4-1.4c-0.4-0.4-0.9-0.6-1.3-0.4c-0.4,0.2-1.1,0.6-1.9,1.4l-0.1,0.1c-0.8,0.8-1.3,1.4-1.5,1.8
		c-0.2,0.4,0,0.9,0.4,1.3c0.4,0.4,0.8,0.5,1.3,0.3C202.5,94.9,203.1,94.5,203.8,93.7z M210.2,102.3l3.9-2.9l0.8,1.1l-6.6,4.8
		l-0.5-0.6l1.8-6.3l-4.2,3l-0.8-1.1l6.6-4.8l0.6,0.8L210.2,102.3z"/>
	<path class="st3" d="M193.6,161.9c0,0,0.5-0.5,0.6-0.1c0.1,0.4,0.2,0.7,0.1,0.8s-0.1,0.2-0.3,0.4c-0.2,0.2-0.1,0.4-0.3,0.5
		c-0.2,0.1-0.3,0.1-0.4,0.1l-0.1,0.6l-0.1,0.5l0.1,0.5l0.3,0.7l-0.2-0.5l0.3,0.6c0.3,0.7,2.7,1.4,3.6,1.8c1.9,0.8,1.6,4.8,1.8,5.2
		c0.2,0.4,1,5.6,1,6.5c0,0.9-1,5.6-1.1,6.6c0,0.5-0.2,1.7-0.3,2.8c0,0.2-0.4-0.1-0.5,0.1c-0.1,0.3-0.1,1.1-0.1,1.4
		c-0.1,0.6-0.2,1-0.3,1.3c-0.1,1.1-1.1,1.2-1.1,1.2s0,3.7-0.2,4.6c-0.2,0.9-0.3,1.1,0,3.5c0.3,2.5-0.4,5.5-0.4,5.5s-1,4.5-1.2,5.2
		c-0.2,0.7,0.1,1.3,0.2,1.8c0.1,0.5,0.1,1.3,0.1,1.3h-8.6c-0.2,0,0.2-0.8,0.4-1.3c0.1-0.3,0.5-0.6,1.1-0.7s0.6-0.7,1-1.5
		c0.3-0.8,0.2-2.5-0.1-3.5c-0.3-1-0.7-3.5-0.7-4.4c0-0.9-0.5-2.9-1-4.3c-0.5-1.4-0.7-4.4-0.7-4.7c0-0.1-0.1-0.3-0.2-0.6
		c-0.1-0.3-0.2-0.8-0.4-1.6c-0.5-1.4-0.4-3-0.5-4.5s-0.6-3-0.8-3.3l-0.2-0.6l-1.5,0.5l-1.5,1.1c-0.3,0.3-0.7,0.3-1.3,0.4
		c-1.1,0.1-2.3-1.2-2.6-3.2c-0.3-2.2,0.1-3.1,2.5-3.1l1.1,0l0.9,0h0.4c0,0,0.3,0.5-0.1,0.7c-0.4,0.2-0.5,0.2-0.5,0.2l0.5,0.6
		c0,0,0.3-0.2,1.2-0.7l0.3-0.8c0-0.5,0.1-0.6,0-1.1c-0.1-0.5-0.3-3.6-0.3-4.4c0-0.7,0-1.6,0.1-2.5c0.1-0.8,0.1-2.5,0.4-3.2
		c0.5-0.9,3-1.3,3-1.3s1.1-0.1,1.2-0.4c0.1-0.1,0.3-0.6,0.4-0.8c-0.7-0.2-0.9-1.1-1-1.3c-0.1-0.2-0.3-1.2-0.3-1.3
		c0-0.1-0.3-1.1-0.4-1.4c-0.1-0.4,0-1,0-1l-0.8-0.1l-1-0.1c0,0-0.5-0.1-0.7-0.1c-0.1-0.1-0.6-0.2-0.6-0.2s-0.8-0.7,0-1.2
		s1.7-1,1.8-1.1c0.1-0.1,0.2-0.2,0.2-0.2l0-0.2c-0.2-0.3-0.3-0.6-0.6-1.4c-0.2-0.8,1.9-1.1,1.9-1.1c0.6-0.1,2.6,0.2,2.4,0.2
		c0.4,0.1,0.7,0.1,1.5,0.1c0.8,0,1.9,0.3,2.4,0.4s1.2,0.7,1.5,1.2c0.3,0.6,1.5,1.3,1.9,1.6c0.5,0.5,1.2,1.6,1.4,2
		c0.4,0.7,0,0.5-0.2,0.6c-0.7,0.4-4.5-0.5-4.1-0.4c0.3,0,0.2-0.1-0.1-0.2l0,0.3l-0.2,0.8L193.6,161.9z"/>
</g>
<path class="st21" d="M189.6,172.5c0.1-2,0.3-3.7,0.6-5c0.1-0.4,0-0.6,0-0.6c-0.5,0-0.9-0.1-1.4-0.7"/>
<path class="st22" d="M186.3,194.5l0.1-0.8c0,0,0.3-0.5,0.2-1.4c-0.1-0.9,0-3.5,0.2-4.9c0.2-1.3,2.2-5.2,2.4-6.2
	c0.2-0.9,0.2-3.9,0.2-4.1c0-0.1-0.1-0.4,0-1.5"/>
<path class="st23" d="M184.6,184.2c0.2,0.3,0.8,1.9,0.8,3.3s-0.2,3.1,0.3,4.5c0.3,0.8,0.5,1.3,0.6,1.6c0.1,0.3,0.5,0.4,0.5,0.6
	c0,0.3,0.2,3.3,0.7,4.7c0.5,1.4,0.8,3.4,0.8,4.3c0,0.9,0.4,3.4,0.7,4.4s0.4,2.7,0.1,3.5c-0.3,0.8-0.4,1.3-1,1.5
	c-0.4,0.2-0.6,0.3-0.9,0.7c-0.4,0.5-0.8,1.4-0.6,1.4h8.3c0,0,0-0.8-0.1-1.3c-0.1-0.5-0.7-1.2-0.5-1.9c0.2-0.7,1.5-5.1,1.5-5.1
	s0.7-3,0.4-5.5c-0.3-2.5-0.4-2.5-0.2-3.3c0.2-0.9,0.4-4.4,0.4-4.4s1.5-0.4,1.6-1.5s0.7-4.7,0.8-5.7c0.1-1,1.1-5.7,1.1-6.6
	c0-0.9-0.8-6.1-1-6.5c-0.2-0.4,0-3.4-1.9-4.3c-0.9-0.4-3.3-2-3.5-2.7l-0.3-0.6"/>
<path class="st24" d="M188.9,165.8l-0.4,0.8c0,0-3.8,0.8-4.2,1.7c-0.4,0.7-0.5,5-0.5,5.7c0,0.7,0.2,3.8,0.3,4.4
	c0.1,0.5,0.1,0.7,0,1.1"/>
<path class="st22" d="M191,178.1c0,0.4-0.1,2.9,1,4.5c0.4,0.7,2.4,4.4,2.8,4.9c0.3,0.3,0.9,0.4,1.1,0.8c0.9,2,0,4,1.2,4.3l0.3,1.2"
	/>
<path class="st21" d="M193.7,165.7c-0.2,0.3-1.6,1.1-2.4,1.1c-0.3,0-0.1,0.6-0.3,1.3c-0.1,0.8-0.1,5,0,5.6c0,0.2,0,0.3,0,1"/>
<path class="st25" d="M195,171l0.5,2l0.7,3.6l0.2,2.2l0,2l0,1.7l-0.2,1.2l-0.2,1.1l-0.4,3.5c1.4-0.3,2.4,0,3,0.5"/>
<path class="st22" d="M185.6,167.4l0.1,0.3c-0.1-0.7,2.2,9.8,10.3,14.7l0.4,0.2"/>
<path class="st22" d="M187.2,167c0.9,2.7,3.4,9.5,9.2,13l0.1,0.5 M188.4,183.1c1.5,0.3,2.5,0.3,3.8,0 M190.8,190.7
	c0.3,2,0.7,4.5,0.8,4.9c0.2,0.7,0.4,4.1,0.4,4.1l0.1,3.3l0.1,4.2v4.9c-0.8,0.6-1.2,1.4-1.3,2.5"/>
<path class="st26" d="M182.7,180.2c-0.5,0.8-3-0.7-3.1,1.5c-0.1,1.6,0.2,3.5,1.8,3.7l1.2-0.8l0.3-0.3"/>
<path class="st27" d="M181.2,179.3c-0.7-10.7-0.4-20,1.4-27.1c-4.8,6.9-2.8,27.1-2.8,27.1L181.2,179.3z"/>
<path class="st24" d="M184,179.3l-0.3,0.9c-0.9,0.5-1.2,0.5-1.2,0.5"/>
<path class="st26" d="M182.4,180.5c0,0,0.9,2.3,0.2,4.1"/>
<path class="st28" d="M181.2,179.4l1,0h0.4c0,0,0.3,0.5-0.1,0.7c-0.4,0.2-0.7,0.2-0.7,0.2"/>
<path class="st29" d="M181.5,185.2c-0.3,0.3-0.7,0.3-1.3,0.4c-1.1,0.1-2.3-1.2-2.6-3.2c-0.3-2.2,0-3,2.1-3.1"/>
<path class="st29" d="M181.9,180.3h-1.5c0,0-0.8,0.2-0.8,0.9c-0.1,1.1-0.1,2.5,0.4,3.1l0.5,0.5"/>
<path class="st21" d="M187.1,159.7l0.1,0.8l-0.2,0.3l-0.8-0.1l-1,0c0,0-0.5-0.1-0.7-0.1c-0.1,0-0.6-0.1-0.6-0.1s-0.7-0.9,0-1.5
	c0.7-0.6,1.5-1,1.6-1c0.1-0.1,0.2-0.1,0.2-0.1"/>
<path class="st30" d="M187.1,159.9l0,0.9"/>
<path class="st31" d="M187.3,160.6c0,0-0.2,0.8-0.1,1.1s0.3,1.3,0.4,1.4c0,0.1,0.2,1.1,0.3,1.3c0.1,0.2,0.4,1.1,1.1,1.3
	c0.8,0.2,1.6,0.1,2.1-0.3"/>
<path class="st32" d="M188.7,164c0,0,0.4-0.1,0.5-0.1c0.1,0.1,0.5,0.1,0.5,0.1s0.5-0.1,0.6,0c0.2,0,0.4,0,0.5,0 M189.1,164.5
	c0,0,0.9,0.2,1.3,0 M190.3,160.7c0,0,0.8-0.3,1.5,0.2"/>
<path class="st33" d="M189.3,160.6c0.1,0.2-0.1,0.7-0.2,0.9c-0.1,0.2-0.1,0.5-0.2,0.7c-0.1,0.2-0.2,0.4-0.1,0.5c0,0.1,0,0.1,0.2,0.2
	c0.2,0.1,0.4,0,0.5,0c0.2-0.1,0.3-0.1,0.5-0.1c0.2,0,0.4-0.1,0.4-0.2c0-0.2-0.1-0.4-0.2-0.5c-0.1-0.1-0.3-0.2-0.3-0.2"/>
<path class="st32" d="M187.8,160.7c0.1,0,0.9-0.5,1.5,0"/>
<ellipse transform="matrix(1.750486e-02 -0.9998 0.9998 1.750486e-02 23.9401 346.8321)" class="st34" cx="188.4" cy="161.2" rx="0.1" ry="0.5"/>
<path class="st31" d="M188.9,165.8C188.9,165.8,188.9,165.8,188.9,165.8c0.9,0.2,1.7,0.1,2.2-0.2"/>
<path class="st35" d="M187,155c0,0-2,0.6-1.8,1.4c0.3,0.8,0.4,1.1,0.6,1.4c0.2,0.3,0.6,1.3,0.7,1.6c0.1,0.3,0,0.8,0.5,0.6
	c2.7-1.3,8.4,1,7.2,0.9c-0.3,0,3.7,0.8,4.4,0.4c0.1-0.1,0.4-0.3,0-1c-0.3-0.4-1.1-1.4-1.6-1.9c-0.4-0.3-1.5-1-1.8-1.6
	c-0.3-0.5-1.1-1-1.7-1.1c-0.6-0.1-1.7-0.3-2.5-0.3s-1,0-1.5-0.1C189.7,155.2,187.6,154.9,187,155L187,155z"/>
<path class="st22" d="M191.8,197.4c0,0,2.1,1.3,4.6,0c2.3-1.3,0.4-0.2,0.4-0.2 M186.8,197.7c0,0,2.3,1.1,4.8-0.1"/>
<ellipse transform="matrix(0.1046 -0.9945 0.9945 0.1046 10.622 334.403)" class="st34" cx="191" cy="161.3" rx="0.1" ry="0.6"/>
<path class="st22" d="M187.9,184.4c1.4,0.5,3.6,0.4,5,0"/>
<path class="st36" d="M206,212.3h19.5v2.6H206V212.3z"/>
<path class="st0" d="M0,333.3h750V500H0V333.3z"/>
</svg>
