<?xml version="1.0" encoding="utf-8"?>
<!-- Generator: Adobe Illustrator 27.0.1, SVG Export Plug-In . SVG Version: 6.00 Build 0)  -->
<svg version="1.1"
	 id="Layer_1" text-rendering="geometricPrecision" image-rendering="optimizeQuality" shape-rendering="geometricPrecision"
	 xmlns="http://www.w3.org/2000/svg" xmlns:xlink="http://www.w3.org/1999/xlink" x="0px" y="0px" viewBox="0 0 750 500"
	 style="enable-background:new 0 0 750 500;" xml:space="preserve">
<style type="text/css">
	.st0{fill-rule:evenodd;clip-rule:evenodd;fill:#00297B;}
	.st1{fill-rule:evenodd;clip-rule:evenodd;fill:#92DBFC;}
	.st2{fill-rule:evenodd;clip-rule:evenodd;fill:#008CE7;}
	.st3{fill-rule:evenodd;clip-rule:evenodd;fill:#CCCCCC;}
	.st4{fill-rule:evenodd;clip-rule:evenodd;fill:#FFDE52;}
	.st5{fill-rule:evenodd;clip-rule:evenodd;fill:#8C4200;stroke:#000000;stroke-width:0.1716;stroke-miterlimit:10;}
	.st6{fill-rule:evenodd;clip-rule:evenodd;fill:#109421;stroke:#000000;stroke-width:0.1716;stroke-miterlimit:10;}
	.st7{fill-rule:evenodd;clip-rule:evenodd;fill:#8C4200;}
	.st8{fill-rule:evenodd;clip-rule:evenodd;fill:#FDF9FF;}
	.st9{fill-rule:evenodd;clip-rule:evenodd;fill:#C62139;}
	
		.st10{fill-rule:evenodd;clip-rule:evenodd;fill:#8C4200;stroke:#000000;stroke-width:0.1643;stroke-linecap:round;stroke-linejoin:round;stroke-miterlimit:10;}
	.st11{fill-rule:evenodd;clip-rule:evenodd;fill:#BD0728;}
</style>
<rect class="st0" width="750" height="500"/>
<g>
	<g>
		<path class="st1" d="M375.3,100.8c0,0-99.8,72.7-99.8,148.2c0,75.5,99.8,150.2,99.8,150.2S474.4,330,474.4,249
			C474.4,168.1,375.3,100.8,375.3,100.8L375.3,100.8z"/>
		<path class="st2" d="M286.6,295.1c26,57.1,88.7,104.1,88.7,104.1s63.9-44.6,89.1-104.1"/>
		<path class="st3" d="M464.7,278.6c-15.4,10.1-101.9,5.2-101.9,5.2l-4.8,11.3l103.1,0.3c0.4-1.5,1.5-3.4,1.8-5L464.7,278.6z"/>
		<path class="st4" d="M309.9,325.3c4.4,0.1,8.7,1,12.7,2.9c7,3.4,11.1,3.3,18.6,3.4c7.9,0.1,14.1,5.4,22.7,5.7
			c15.7,0.4,22.4,7.6,10.1,7.6c-5.8,0-18.2-3.6-24.2-2.8c-9.1,0.8-14.4,1.5-21.1,6.4C322.2,341.4,315.8,333.7,309.9,325.3
			L309.9,325.3z M341,361.3c3.9-2.4,6.6-4.4,10.4-4.5c7.4-0.2,9.9-4.4,18.4-4.4c9.7,1.6,22.8-1.1,30.4-2.6
			c13.6-2.9,7.2-11.6-1.1-14.8c-6.7-2.6-19.1-0.1-26.9-2.7c-5.9-2.1-1-5.4,2.1-6.2c3.2-0.5,6.6,0.4,10.6,1c7.1,0.6,15.9,0,22.2-0.9
			c12.8-1.8,12.3-5.2,18.5-5.3c4.5-0.2,8-1.4,11-3.4c3.6-2.2,7.4-6.8,11.8-6.6l2.6,0.1c-27.1,47.9-75.7,79.4-75.7,79.4
			S359.6,379.5,341,361.3L341,361.3z"/>
		<path class="st5" d="M403.2,326.2c1.7,5.9,3.5,8,10.3,9.5c6.7,1.5,17-4.5,10.7-10.3c-6.1-5.4-12.5-6.8-17.9-11.7
			c-8.4-7.7-20-23.5-25.5-38.5c-6-16.4-5-62.5-4.7-85.8c0-0.3,0.7-0.4,0.8-0.5c0.4-0.5,0.8,0.2,0.2-3.3c-0.2-0.9-0.9-1.8-0.9-2.7
			c0-1.6-6,1.7-7.5,4.6c-0.4,0.6,1.1,2.5,1.1,2.8c0.2,22.4-2.4,66.6,4.1,86.7c4,12.4,11.4,22,18,30.8
			C395.7,313.5,401.5,319.6,403.2,326.2L403.2,326.2z"/>
		<path class="st6" d="M313.3,182.8c0.4,0.5,0.4,2.8,0.4,2.8c0.3,0.2,6-4.4,6-4.2c0,1,0.1,2.9,0.1,2.9s5.8-5.1,6.1-4.5
			c0.3,0.6,0,3.5,0,3.5s3.9-3.9,4.6-4.6c0.5-0.5,0.4,0.6,0.5,2.5c0,0.3,6.4-4.3,6.7-4.4c0.8-0.2,1.1,2.4,1,3c0,0.5,5.9-3.1,5.6-2.6
			l0.4,2.7c1.6-0.2,5.5-1.5,7.9-1.2c0.8,0.1,0.7,0.5,0,0.7c-11.3,4.2-20,10.5-25.1,19.4c-1.7,3-2.3,5.6-1.8,6.3c0,0,2-4,4.3-4.6
			c0.3-0.1,0.5,2.6,0.8,2.4c0,0,1.7-4,3-5.5c0.3-0.4,0.9,2.1,1.3,1.7c0,0,0.9-2.7,2.7-4.6c0.3-0.3,0.7,2.5,1,2.3
			c1.8-1.5,3.6-5.4,4.2-5.7c0.5-0.3,0.6,3.2,1,2.9c0,0,2.6-4.8,4.2-5.7c1-0.6,1,2.6,1,2.6c2-1.8,4.2-4.8,5.2-6.1
			c0.5-0.6,0.2,3.9,0.7,4.1c0.7,0.2,4.9-3.5,5.4-3.5c0.3-0.1,0.7,1.1-0.1,1.9c-0.1,0.1-5.3,5.6-5.3,5.6c1,0.2,1.4-0.1,2.1,0.1
			c2.2,0.5-4.1,3.8-4,4.4c0,0,3-0.1,2,0.5c-0.7,0.4-4.7,5.1-4.7,4.9c0-0.1,2,0,2,0.6c0,1-3.3,6-3.3,6c-0.2-0.2,1.8-0.2,2,0.3
			c0.5,0.9-3.4,5-2.6,5.7c0.1,0.1,2.2,0,3.1,0.2c0.5,0.1,1.7,7.4,1.4,7.1c-0.1-0.1,1.4-6.8,2.2-8.9c0.5-1.2,2.2,1.9,2.4,1.6
			c-0.1,0-0.3-4.4-0.1-6.5c0.1-0.6,1.3,0.6,1.3,0.1c0-1.2-0.2-2.5,0.1-3.7c0.2-0.9,1.2,1.6,1.6,0.9c0,0-1.3-4.4-0.7-5.6
			c0.3-0.8,1.2,2,1.7,2.1c0,0-0.3-3.4,0.3-4.3l1.7,1.7c0.4-0.5,0.3-5.9,0.7-6.4c0.3-0.4,2.1,2,2.4,1.6c0.2-0.3-0.8-4.3-0.5-4.6
			c0.3-0.4,2.3,1.1,2.3,1.1c0.8-0.7,0.8-2.6,1.1-3.3c0.9-1.9,6.2-2.1,6.8-0.8c0.3,0.6,0.1,1.5,0,2.5c0,0,2.6,0.2,2.6,0
			c0,0-0.3,2.2-0.1,4.6c0,0.3,2.6-0.1,2.6,0.2c0.2,2.3-0.3,2.5-0.3,2.5c0,0.2,1.7-0.2,1.8-0.1c0.2,1.1-0.2,2.5-1,3.8
			c-0.1,0.2,2.5-0.2,2.5,0c0.3,1.7,0.4,3.1,0,5.5c0,0.2,2.5-1.7,2.6-1.5c0.4,2-0.1,4.2,0.2,6.3c0.1,0.5,1.7-1.5,1.8-0.9
			c0.1,0.6-0.4,4.6-0.1,4.8c0,0,2.7-0.1,3,0.1c2.2,1.9,1.8,5.1,1.8,5.1c0.6-0.4,0.4-4.3-0.2-7.9c-0.1-0.4,2.1-0.2,2-0.6
			c0,0-2.4-1.3-3.2-5c-0.2-0.8,2.3-0.6,2.3-0.6c-0.7-1.4-1.9-1.7-2.9-3.1c-0.3-0.5,2.6-0.7,2.6-0.8c0-1.4-2.4-2-3.7-3.5
			c-0.5-0.6,2.6-0.6,2.6-0.6c-0.9-1.2-4-1.7-5.6-3.3c-0.9-0.9,3.1-1.7,3.1-1.8c-0.4-1.3-4.2-1.6-6-3.1c-0.4-0.3,2.4-1.3,2.4-1.3
			c-0.3-0.5-6.2-4.1-3.2-3.8c1.3,0.1,3.9,1.8,4.1,1.6c0,0-0.1-2.1,0.2-2.3c1-0.9,4.4,4,5.6,3.8c0,0,0.4-3.6,1-3.7
			c1.3-0.2,2.8,5.2,4,5.2c0.2,0,0.3-3.1,0.9-3.3c0.7-0.2,1.5,3.5,2.4,4.3c0.8,0.8,0.9-2.9,1.4-2.2c0.8,1.1,1,3.4,2.2,4.5
			c0.7,0.7,0.9-3.2,1.7-2.7c1,0.6,0.7,2.6,1.8,3.6c0.5,0.5,0.9-2.6,1.5-2.1c0.5,0.4,0.9,4.1,1.4,4.7c0.7,0.7,1.5-2,2.3-1.5
			c0.5,0.3,0.4,3.5,0.9,4.2c1,1.4,1.5-1.7,2.2-1.2c0.5,0.3,1.5,4,1.9,4.3c0.9,0.7,1.5-1.7,2.2-1.3c0.5,0.2,1.6,5,2,4.8
			c0.3-0.1,1-10.8-3.5-15.3c-7.3-7.4-20.5-11.6-31.2-11.7c0,0,5.4-1,5.5-1.8c0.3-1.6,3-1.4,4.8-1.1c0.3,0.1,0.2-2.9,0.2-2.9
			c1.7,0,3.2,0.9,4.8,1.8c0.5,0.3-1-2.9-0.5-2.7c2,1.1,4.3,1.4,5.7,2.7c0.4,0.3-0.4-2.5-0.4-2.5c1-0.2,3,1.1,3.8,2.4
			c0.4,0.6,0-3.3,0.3-2.6c0,0,3.6,1.1,4,2.5c0,0,0.3-2.5,0.8-2.4c1.4,0.3,2.7,2.6,3.8,2.9c0,0-0.5-2.2-0.1-2.1
			c2.7,0.6,5.6,2.1,5.6,2.1c-1.5-3.5-7.3-7.1-17.4-8.1c-1.9-0.2-9.4-0.5-15.8,0.9c-5.2,1.1-9.4,1.7-8.5,1c3.5-3.1,9-3.5,10.6-4.2
			c1.1-0.5-3.7-2.2-2.8-2.5c0.9-0.2,5.2-0.5,5.2-0.5c0.9-0.7-3.1-2-2.5-2.9c1.2-1.9,8.4-0.2,9-0.9c0.2-0.2-3.1-2-2.9-2.3
			c0.5-1,6.9,0.7,7-0.1c0,0-1.9-1.3-3.3-2.4c-0.2-0.1,5.7-1.6,5.7-1.6c-0.1-0.1-1-0.7-2.3-1.2c-1.2-0.4,5.1-2,5.1-2
			c-8.1-3.4-29,6.2-33.2,16.2c-1.1,2.4-1.1-0.2-0.9-2.2c0.2-2.2,0.5-4.1,0.3-6.1c-0.1-0.6-1.7,1.6-1.8,1c-0.4-2.1,0.8-4.4,0.3-6.8
			c-0.2-0.8-2.4,2.3-2.6,1.5c-0.8-2.2,0.6-5.2,0-8.2c-0.2-1.2-2.3,2.5-3,1.5c-0.8-1.2-0.5-5.7-0.8-6.4c-0.3-0.5-2.1,2.2-2.3,1.6
			c-2.5-8.3,0.8-9.3-3.9-4.6c-0.2,0.2-1.2-4.9-1.4-4.7c-1.9,3.8-5.1-2.7-6.2-2.1c-0.8,0.5,2.2,3,2.3,4.1c0,0.5-2.8,0.6-2.8,0.6
			c0.1,0.9,5.4,3.6,5.5,4.6c0.1,0.9-3.7,0.6-3.7,0.6c0.1,1.2,4.5,2.3,4.8,3.5c0.1,0.7-2.1,0.8-2,1.5c0.1,1.1,4.3,3.1,4.4,4.2
			c0.1,0.7-2.6,1.1-2.7,1.7c-0.1,0.8,5.5,3.7,5.5,4.5c0,1.1-2.2,0.5-3.2,1.1c-1.4,0.8,4.6,4,4.8,4.9c0.2,0.8-2.4,0.1-2.5,0.8
			c-0.1,1,2.9,2.4,3.6,4c0.7,1.6,0,2-1,1.4c-2-1.3-10.1-9.2-12.3-11.3c-3.1-3.1-9.5-6.5-15.9-6.7c-0.7,0.2,3.4,2.8,3.5,3.8
			c0,0.2-1.8,0.6-1.8,0.7c1.1,1,4.7,2.3,4.7,2.3l-1,1.7c0.2,0.5,1.9,0.6,4.6,1.4c0,0-2,1.1-1.9,1.2c1.4,1,4.2,1.8,4.2,1.8l-2.7,0.8
			c-0.2,0.5,6.1,2.8,6.1,2.8s-2,1.5-1.9,1.6c0.5,0.4,5.1,1.4,5.1,1.4c0.1,0.1-3.2,1-3.2,1c1.2,1.1,4.5,1.5,5.3,3.3
			c0,0,0.5,1-0.9,0.8c-5.2-1.7-13.2-5.3-28.7-3.9c-15.9,1.9-28,14.5-27.8,15.8C307,185.7,312.7,182,313.3,182.8L313.3,182.8z"/>
	</g>
	<g>
		<path class="st7" d="M347,274.8c0.4-0.5,0.7-0.3,1.1,0l0.8,36.6h-2.7L347,274.8z"/>
		<path class="st7" d="M315.1,310.2c0,0,33.2,2.3,53.6-1.7c0,0,1.7,1.1-0.7,3.7c-2.5,2.6-8.7,3.2-12.1,3.8c0,0-0.8,1.7-0.8,2.6
			c0.1,0.9,2.2,0.8,3.2,0.6l1-0.2c0,0-0.5,3.3-13.1,3.7c-4.1,0.1-17.7,0.4-20.6-3.3c0,0,2.5,0.2,3.1,0c0.6-0.2,0.2-2.6-0.1-2.9
			c-0.2-0.3-8.8,0-13.3-3.8c-1.1-1.1-1.7-2.2-1.7-2.7C313.7,309.9,315.1,310.2,315.1,310.2z M332.4,316.6c0,0,9.1,1.1,19.6,0
			c0,0,0.3,1.8-0.2,2.5c-0.5,0.7-12.6,1.2-18.6,0.3C332.2,319.1,332.1,318,332.4,316.6z"/>
		<path class="st8" d="M321.1,307.7c0,0,10.5-13.2,7.2-36.1c16.3,9.1,30.1,22.7,33.9,35.4C347.4,303.6,334.4,306,321.1,307.7
			L321.1,307.7z"/>
		<path class="st9" d="M375.3,92.1c0,0-105.6,72-105.6,156.9c0,84.9,105.6,158.9,105.6,158.9S480.2,340,480.2,249
			C480.2,158,375.3,92.1,375.3,92.1L375.3,92.1z M375.3,109.5c0,0-93.9,64-93.9,139.6c0,75.5,93.9,141.4,93.9,141.4
			s93.3-60.4,93.3-141.4C468.6,168.1,375.3,109.5,375.3,109.5L375.3,109.5z"/>
	</g>
</g>
<circle class="st10" cx="370.1" cy="250" r="3.8"/>
<circle class="st10" cx="369.8" cy="250" r="3.8"/>
<circle class="st10" cx="375" cy="250" r="3.8"/>
<circle class="st10" cx="375.5" cy="250" r="3.8"/>
<path class="st11" d="M330.1,252.8c-0.2,0-0.3,0.1-0.4,0.2c-0.1,0.1-0.1,0.3-0.1,0.5h-0.4v-5.4h0.4c0,0.5,0.2,0.7,0.5,0.7h9.6v0.5
	c-0.3,0-0.5,0.2-0.5,0.7v6.4c0,0.2,0,0.3,0.1,0.5c0,0.1,0.2,0.2,0.3,0.2h0.2v0.5c-2.9,1.8-6.4,2.8-10.4,2.8c-1.4,0-2.7-0.2-4-0.6
	c-1.3-0.4-2.4-1-3.3-1.9c-1-0.8-1.8-1.9-2.4-3.2c-0.6-1.3-0.9-2.8-0.9-4.6c0-1.7,0.3-3.3,0.9-4.5c0.6-1.3,1.4-2.4,2.4-3.2
	c1-0.9,2.1-1.5,3.3-1.9c1.3-0.4,2.6-0.7,4-0.7c0.5,0,1,0,1.4,0c0.4,0,0.8,0.1,1.2,0.2c0.4,0.1,0.8,0.2,1.2,0.3
	c0.4,0.1,0.9,0.2,1.5,0.4c0.5,0.2,1,0.4,1.5,0.7c0.5,0.2,0.7,0.3,0.9,0.3c0.2,0,0.3-0.1,0.5-0.3l0.4,0.2l-2.1,5.1l-0.4-0.3
	c0-0.2,0.1-0.3,0.1-0.4c0-0.2-0.2-0.4-0.6-0.6c-0.4-0.2-0.8-0.4-1.4-0.6c-0.6-0.2-1.2-0.3-1.9-0.5c-0.7-0.1-1.4-0.2-2-0.2
	c-0.8,0-1.5,0.1-2.2,0.4c-0.7,0.2-1.3,0.6-1.9,1.1c-0.5,0.5-1,1.2-1.3,1.9c-0.3,0.7-0.5,1.6-0.5,2.7c0,1,0.2,1.9,0.6,2.7
	c0.4,0.7,0.9,1.4,1.5,1.8c0.6,0.5,1.3,0.8,2,1.1c0.7,0.2,1.5,0.3,2.2,0.3c0.9,0,1.7-0.1,2.4-0.2c0.7-0.1,1.4-0.3,2.1-0.5v-2.5
	L330.1,252.8z"/>
<path class="st11" d="M360.3,240.9c0-0.2-0.1-0.3-0.2-0.4c-0.1-0.1-0.3-0.2-0.7-0.3v-0.5h6.3v0.5c-0.4,0.1-0.6,0.1-0.7,0.3
	c-0.1,0.1-0.1,0.2-0.1,0.4v10.4c0,1.7-0.2,3.2-0.7,4.3c-0.4,1.2-1,2.1-1.8,2.8c-0.8,0.7-1.7,1.2-2.7,1.5c-1,0.3-2.1,0.4-3.3,0.4
	c-1.2,0-2.3-0.1-3.3-0.4c-1-0.3-1.9-0.8-2.7-1.5c-0.8-0.7-1.4-1.6-1.8-2.8c-0.4-1.2-0.6-2.6-0.6-4.3v-10.4c0-0.2-0.1-0.3-0.2-0.4
	c-0.1-0.1-0.3-0.2-0.7-0.3v-0.5h6.3v0.5c-0.4,0.1-0.6,0.1-0.7,0.3c-0.1,0.1-0.1,0.2-0.1,0.4v10.4c0,1.5,0.3,2.6,1,3.2
	c0.7,0.6,1.6,1,2.8,1c1.2,0,2.2-0.3,2.8-1c0.7-0.6,1-1.7,1-3.2L360.3,240.9z"/>
<path class="st11" d="M384.6,259.4c0,0.1,0,0.2,0.1,0.3c0.1,0.1,0.3,0.1,0.5,0.1v0.5h-6.2v-0.5c0.3-0.1,0.4-0.1,0.6-0.2
	c0.1-0.1,0.2-0.4,0.3-0.7c0-0.1,0.2-0.5,0.3-1.1c0.2-0.6,0.4-1.3,0.7-2.2c0.3-0.9,0.6-1.9,1-2.9s0.7-2.2,1.1-3.3
	c0.4-1.1,0.7-2.2,1.1-3.3c0.4-1.1,0.7-2,1-2.9c0.3-0.8,0.5-1.5,0.7-2c0.2-0.5,0.3-0.8,0.3-0.8c0-0.1-0.1-0.2-0.2-0.3
	c-0.1-0.1-0.3-0.1-0.5-0.1v-0.5h9.1v0.5c-0.2,0-0.3,0.1-0.5,0.1c-0.1,0.1-0.2,0.2-0.2,0.4c0,0.1,0.1,0.4,0.3,1
	c0.2,0.6,0.5,1.4,0.9,2.5c0.3,1,0.7,2.1,1.2,3.4c0.5,1.3,0.9,2.5,1.4,3.9c0.5,1.3,1,2.6,1.4,3.8c0.5,1.3,0.9,2.4,1.3,3.4
	c0.2,0.5,0.3,0.8,0.5,0.9c0.1,0.2,0.3,0.2,0.5,0.2v0.5h-6.9v-0.5c0.4,0,0.7-0.2,0.7-0.5c0,0-0.1-0.2-0.2-0.5
	c-0.1-0.3-0.2-0.7-0.4-1.1c-0.1-0.4-0.3-0.8-0.4-1.2c-0.1-0.4-0.2-0.6-0.2-0.7h-8.2c-0.2,0.7-0.4,1.3-0.6,1.7
	c-0.1,0.4-0.3,0.8-0.3,1.1c-0.1,0.3-0.1,0.5-0.2,0.6C384.7,259.3,384.6,259.4,384.6,259.4L384.6,259.4z M393.1,252.7l-3.4-9.3
	l-3.1,9.3H393.1z"/>
<path class="st11" d="M425.4,259.8c0.4-0.1,0.7-0.1,0.8-0.2c0.1-0.1,0.2-0.3,0.2-0.5v-14.4l-0.1-0.1l-6,15.2l-5.9-15.4h-0.1v14.7
	c0,0.2,0,0.3,0.1,0.5c0.1,0.1,0.4,0.2,0.8,0.2v0.5h-5.9v-0.5c0.4-0.1,0.7-0.1,0.8-0.2c0.1-0.1,0.2-0.3,0.2-0.5v-18.3
	c0-0.2-0.1-0.3-0.2-0.4c-0.1-0.1-0.3-0.2-0.8-0.3v-0.5h8.7v0.5c-0.5,0-0.8,0.3-0.8,0.7c0,0,0.1,0.2,0.2,0.6c0.1,0.4,0.3,0.9,0.5,1.4
	c0.2,0.6,0.5,1.2,0.7,1.9c0.3,0.7,0.5,1.3,0.7,1.9c0.2,0.6,0.5,1.1,0.6,1.6c0.2,0.5,0.3,0.8,0.4,0.9c0.4-1,0.8-2,1.2-2.9
	c0.4-0.9,0.8-1.8,1.1-2.6c0.3-0.8,0.6-1.4,0.8-2c0.2-0.5,0.3-0.8,0.3-1c0-0.4-0.3-0.7-0.8-0.7v-0.5h9.1v0.5
	c-0.4,0.1-0.7,0.1-0.8,0.3c-0.1,0.1-0.1,0.2-0.1,0.4v18.3c0,0.2,0,0.3,0.1,0.5c0.1,0.1,0.4,0.2,0.8,0.2v0.5h-6.7L425.4,259.8z"/>
<path class="st9" d="M0,0v12.5v475V500h750v-12.5v-475V0H0z M737.5,487.5h-725v-475h725V487.5z"/>
</svg>
