<?xml version="1.0" encoding="utf-8"?>
<!-- Generator: Adobe Illustrator 27.0.1, SVG Export Plug-In . SVG Version: 6.00 Build 0)  -->
<svg version="1.1" id="Layer_1" xmlns="http://www.w3.org/2000/svg" xmlns:xlink="http://www.w3.org/1999/xlink" x="0px" y="0px"
	 viewBox="0 0 750 500" style="enable-background:new 0 0 750 500;" xml:space="preserve">
<style type="text/css">
	.st0{fill:#000F5D;}
	.st1{fill:#D59F0F;}
</style>
<path class="st0" d="M0,0h750v500H0V0z"/>
<path class="st1" d="M450,69.4h16l5.3-15.6l4.9,15.6h16.1l-12.5,10.1l4.5,14.8L471,85.5l-13.1,9l4.4-15L450,69.4z M520,132.1h16
	l5.2-15.6l4.9,15.6h16.1l-12.5,10.1l4.5,14.8l-13.2-8.9l-13,9l4.4-15L520,132.1z M557.3,222.2h16l5.2-15.6l4.9,15.6h16.1l-12.5,10.1
	l4.5,14.8l-13.2-8.9l-13,9l4.4-15L557.3,222.2z M481.4,252.4h16l5.2-15.6l4.9,15.7h16.1l-12.5,10.1l4.5,14.8l-13.1-8.9l-13.1,9
	l4.4-15L481.4,252.4z M542.8,321.9h15.9l5.3-15.6l4.9,15.6H585l-12.5,10.1l4.5,14.8l-13.2-8.9l-13,9l4.4-15L542.8,321.9z M486.6,399
	h16l5.3-15.6l4.9,15.6h16.1l-12.5,10.1l4.5,14.8l-13.2-8.9l-13,9l4.4-15L486.6,399z M443.7,339.3h16l5.3-15.6l4.9,15.6h16.1
	l-12.5,10.1l4.5,14.8l-13.2-8.9l-13,9l4.4-15L443.7,339.3z M402.9,446.9h16l5.3-15.6L429,447h16.1l-12.5,10.1l4.5,14.8l-13.2-8.9
	l-13,9l4.4-15L402.9,446.9z M302,446.9H318l5.3-15.6l4.9,15.6h16.1l-12.5,10.1l4.6,14.8l-13.2-8.9l-13.1,9l4.5-15L302,446.9z
	 M266,339.3H282l5.3-15.6l4.9,15.6h16.1l-12.5,10.1l4.5,14.8l-13.2-8.9l-13.1,9l4.5-15L266,339.3z M218.2,399h15.9l5.3-15.6
	l4.9,15.6h16.1l-12.5,10.1l4.5,14.8l-13.2-8.9l-13,9l4.4-15L218.2,399z M163,321.9H179l5.3-15.6l4.9,15.6h16.1l-12.5,10.1l4.5,14.8
	L184,338l-13,9l4.4-15L163,321.9z M150.6,222.2h15.9l5.3-15.6l4.9,15.6h16.1l-12.5,10.1l4.5,14.8l-13.2-8.9l-13.1,9l4.4-15
	L150.6,222.2z M227.9,252.4h15.9l5.3-15.6l4.9,15.6h16l-12.5,10.1l4.5,14.8l-13.2-8.9l-13,9l4.5-15L227.9,252.4z M188.6,132h15.9
	l5.3-15.6l4.9,15.6h16.1l-12.5,10.1l4.5,14.8l-13.2-8.9l-13,9l4.4-15L188.6,132z M259.1,69.4h16l5.3-15.6l4.9,15.6h16l-12.5,10.1
	l4.5,14.8l-13.2-8.9l-13.1,9l4.5-15L259.1,69.4z M354.7,43.3h16l5.3-15.6l4.9,15.6h16.1l-12.5,10.1l4.5,14.8l-13.1-8.9l-13.1,9
	l4.4-15L354.7,43.3z M458.5,98.6l-47.2,67.2l-2.9-2.1l47.2-67.2L458.5,98.6z"/>
<path class="st1" d="M525.9,145.7l-109.6,42.1l-1.2-3.3l109.5-42.1L525.9,145.7z M551.1,226.5l-133.2-16l0.4-3.6l133.3,16
	L551.1,226.5z M355,372.5h16l5.3-15.6l4.9,15.6h16.1l-12.5,10.1l4.5,14.8l-13.2-9l-13.1,9l4.4-15L355,372.5z M350,116.2h19.7
	l6.5-19.3l6,19.3h19.8l-15.4,12.5l5.6,18.3l-16.2-11l-16.1,11.1l5.5-18.6L350,116.2z M349.6,224l-0.1-0.1
	c-15.3-20.2,0.3-27.5,0.6-41.8c10.1,18.8-4.7,24.6,12.9,42L349.6,224z"/>
<path class="st1" d="M366.4,224c-5.4-7.6-9.1-19.6-7.5-27.5s7.1-15.6,6.2-21.6c2.9,6.7,6.4,6.7,5.5,11.7
	c4.3-12.7,6.1-22.5,19.4-23.2c-14,20.5,14.5,37.9-6.2,60.6L366.4,224z"/>
<path class="st1" d="M388.4,224c19-22.9-5.2-34.7,16.9-45c0.8,6.8-4.6,6.8-2.2,15.1c0.4,3.1,0,6.2-1.2,9c2.2-2.7,6.6-7.9,9.4-10
	c-6.5,9.9,5.8,18.5-10,30.8H388 M389.8,281.6c1-25.6,6.5-33.4,16.8-44h-60.9c10.3,10.7,15.8,18.5,16.7,44.1
	C371.6,281.6,380.7,281.6,389.8,281.6L389.8,281.6z M376.1,344l8,25l4.4-74.1h-24.6L368,369L376.1,344z M376,456
	c3.5-3.2,4.5-13.9,4.5-13.9l2.2-43.3l-6.6-4.7l-6.7,4.7l2.1,43.3C371.5,442.1,372.4,452.6,376,456L376,456z M411.6,233l-70.8-0.1
	v-6.7l70.8,0.1L411.6,233z M394.3,292.7H357v-8.4h37.3V292.7z M200.6,226.5l133.2-16l-0.4-3.6l-133.3,16L200.6,226.5z M225.9,145.7
	l109.6,42.1l1.2-3.3l-109.5-42.1L225.9,145.7z M293.8,98.6l47.1,67.2l2.9-2.1l-47.2-67.2L293.8,98.6z M373.9,142.7v14.3h3.6v-14.4
	L373.9,142.7z M346.5,106.9l-13.3-6.9l0.9-1.8l13.3,6.8L346.5,106.9 M348.8,101.9L338,91.6l1.6-1.6l12.7,2.5c0.3,0,0.5,0.1,0.8,0.2
	c0.2,0.1,0.4,0.1,0.6,0.2l-8.8-8.4l1.4-1.4L357,93.5l-1.5,1.5l-12.9-2.5l-0.6-0.2l-0.6-0.2l8.8,8.4L348.8,101.9 M360.1,77.3
	l-3.2,1.2l4.1,10.6l3.2-1.2c1.2-0.4,2.2-1.3,2.6-2.6c0.3-1.5,0.2-3.1-0.5-4.4c-0.5-1.4-1.4-2.6-2.6-3.4
	C362.6,76.9,361.3,76.8,360.1,77.3 M359.8,91.7l-5.4-14l5.3-2.1c1.6-0.8,3.5-0.8,5.1,0c1.7,1,2.9,2.6,3.5,4.4c0.8,1.9,1,4,0.4,5.9
	c-0.6,1.7-2,3.1-3.8,3.6L359.8,91.7 M373.8,87.4l-1.2-14.9l2-0.2l1.2,14.9L373.8,87.4 M383,81.2l4.6,0.9l-1-6.9L383,81.2
	 M377.6,86.5l8.3-13.6l2.2,0.4l2.6,15.7l-2.2-0.4l-0.7-4.7l-5.8-1.1l-2.4,4.1L377.6,86.5 M392.2,89.8l8.4-12.3l1.8,1.2l-0.4,12.9
	v0.8c0,0.2-0.1,0.5-0.1,0.6l6.8-10l1.6,1.1L402,96.5l-1.8-1.2l0.3-13.1v-0.6c0-0.2,0.1-0.4,0.1-0.6l-6.9,10L392.2,89.8 M410.8,98
	l2.5,3.9l4.4-5.5L410.8,98 M403.2,97.6l15.5-3.2l1.2,1.9l-9.7,12.7l-1.2-1.9l2.9-3.8l-3.1-5l-4.6,1L403.2,97.6"/>
</svg>
