<?xml version="1.0" encoding="utf-8"?>
<!-- Generator: Adobe Illustrator 27.0.1, SVG Export Plug-In . SVG Version: 6.00 Build 0)  -->
<svg version="1.1" id="Layer_1" xmlns="http://www.w3.org/2000/svg" xmlns:xlink="http://www.w3.org/1999/xlink" x="0px" y="0px"
	 viewBox="0 0 750 500" style="enable-background:new 0 0 750 500;" xml:space="preserve">
<style type="text/css">
	.st0{fill:#002A86;}
	.st1{fill:#FEC70B;}
	.st2{fill:#F7E47C;}
	.st3{fill:#FFFFFF;}
	.st4{fill:#9DC8EB;}
	.st5{fill:#A2D100;}
	.st6{fill:#FFD90F;}
	.st7{fill:#969496;}
	.st8{fill:#E86F00;}
	.st9{fill:#7D421D;}
	.st10{fill:#008600;}
	.st11{fill:#006BAD;}
	.st12{fill:#F7E47B;}
	.st13{fill:#7D421D;stroke:#7D421D;stroke-width:0.6;stroke-linecap:round;stroke-linejoin:round;stroke-miterlimit:6.7;}
</style>
<g transform="translate(1.016 -128)">
	<path class="st0" d="M-1,128h750v500H-1L-1,128z"/>
	<circle class="st1" cx="375" cy="419.4" r="137.5"/>
	<path class="st2" d="M265.5,345.4l-13.3,21.5c0,0-7.1,20.1-7.1,22c0,1.9-2.6,23.7-2.6,23.7l0.7,6.2l60.6,5.5l46.1-3.2l-2-2.5
		l-2.2-4.1l-1.6-4.3l-1-6.2l1.4-3.1l-7.2-17.4l-7.7-15l-7.4,5.6l-3,1.9l-1.2,0.4l-1.9,0.5l-4-1.9c0,0-3.5-7.4-3.8-7.9
		c-0.4-0.5-7.8-9.1-7.8-9.1l-5.8-4.6l-6.3,5.7l-3.7,3.1l-3.2,2.5l-10-12.3L265.5,345.4z"/>
	<path class="st3" d="M264.2,350c-1.1-1.8,1.8-3.9,3.2-5.5c0.4-0.4,0.8-0.8,1.4-1c0.4-0.1,0.8-0.2,1.1,0c0.9,0.6,0.7,2,1.1,3
		c0.5,1.4,0.8,2.8,1.5,4.1c0.5,1,1.3,1.8,2,2.6c0.6,0.6,1.1,1.3,1.7,1.9c0.5,0.5,1.1,0.8,1.5,1.4c0.4,0.6,0.7,1.3,0.9,2
		c0.2,0.7,0,1.5,0.2,2.1c0.4,0.8,0.9,1.7,1.7,2.1c0.4,0.2,0.8,0.2,1.2,0.1c0.6-0.1,1.2-0.5,1.7-0.9c1-0.6,2-1.3,2.9-2.1
		c0.8-0.7,1.6-1.5,2.2-2.4c0.9-1.1,1.6-2.3,2.4-3.5c0.6-0.9,1.2-1.9,1.9-2.7c0.7-0.8,1.2-1.9,2.2-2.4c0.5-0.2,1.1-0.1,1.6,0
		c0.9,0.2,1.9,0.6,2.6,1.2c0.6,0.5,1,1.1,1.4,1.7c0.7,1.2,0.9,2.7,1.5,4c0.4,1,0.7,2.1,1.4,3c0.9,1.3,2.4,2.1,3.3,3.3
		c0.6,0.8,1,1.6,1.5,2.5c0.4,0.7,0.6,1.4,1.1,2c0.6,0.7,1.6,1,2.2,1.6c0.7,0.7,1.3,1.6,1.9,2.5c1,1.7,1.8,3.5,2.5,5.3
		c0.1,0.3-0.1,0.9,0.2,1c1.1,0.5,2.1-1,3.1-1.6c0.6-0.4,1.1-1,1.7-1.5c1.3-1,3-1.7,4.1-3c0.5-0.6,0.7-1.4,1.1-2
		c0.5-0.8,1-1.7,1.9-2.1c0.7-0.4,1.7-0.3,2.5-0.2c0.8,0.1,1.7,0.2,2.4,0.6c0.7,0.4,1.2,1.2,1.6,1.9c1.1,1.8,1.5,3.9,2.1,6
		c0.6,1.8,0.9,3.6,1.5,5.3c0.4,1.2,1,2.3,1.5,3.5c0.6,1.4,1.3,2.8,1.7,4.3c0.4,1.3,0.1,2.7,0.6,4c0.3,0.7,0.9,1.2,1.4,1.7
		c0.2,0.3,0.7,0.5,0.7,0.9c0.1,0.4-0.3,0.7-0.2,1.1c0.1,0.5,0.4,0.9,0.6,1.4c0.4,0.6,0.9,1.1,1.4,1.6c0.3,0.3,0.5,0.7,0.9,1
		c0.5,0.5,1.5,0.6,1.6,1.2c0,0.2-0.3,0.3-0.4,0.5c-0.1,0.2-0.1,0.5-0.1,0.8c0,0.5,0.2,1,0.1,1.4c0,0.2-0.1,0.4-0.2,0.5
		c-0.2,0.1-0.5,0.1-0.7-0.1c-0.3-0.3-0.2-0.8-0.3-1.2c-0.1-0.4-0.2-0.8-0.5-1.1c-0.2-0.3-0.5-0.5-0.8-0.6c-0.3-0.1-0.5-0.2-0.8-0.1
		c-0.3,0.1-0.4,0.7-0.7,0.6c-0.5-0.2,0-1.1-0.2-1.6c-0.2-0.6-0.7-1-1.1-1.6c-0.3-0.4-0.5-0.8-0.7-1.2c-0.5-0.8-1.4-1.4-1.7-2.3
		c-0.2-0.5,0-1,0-1.5c-0.2-1.1-0.5-2.1-1-3c-0.6-1.2-1.5-2.2-2.3-3.4c-0.7-1.2-1.4-2.4-2.1-3.7c-0.4-0.7-0.8-1.3-1-2
		c-0.2-0.6-0.1-1.2-0.2-1.8c-0.1-0.8-0.3-1.5-0.5-2.2c-0.2-0.7-0.4-1.4-0.7-2c-0.3-0.6-0.9-1-1.2-1.5c-0.2-0.4-0.1-0.8-0.2-1.2
		c-0.1-0.5-0.1-1.1-0.4-1.5c-0.3-0.5-0.9-0.8-1.4-1c-0.3-0.1-0.6-0.2-1-0.2c-0.3,0-0.7,0.2-1,0.4c-0.6,0.5-1,1.3-1.5,1.8
		c-0.8,0.7-1.6,1.4-2.5,2c-0.5,0.3-1.1,0.5-1.6,0.7c-0.6,0.2-1.2,0.4-1.8,0.6c-0.9,0.4-1.9,0.8-2.8,1.3c-0.3,0.2-0.7,0.3-0.9,0.6
		c-0.2,0.4-0.1,0.9,0,1.3c0.1,0.4,0.5,0.7,0.6,1.1c0.1,0.6-0.1,1.2,0,1.8c0,0.3,0.1,0.6,0.2,1c0.1,0.3,0.2,0.6,0.3,0.9
		c0.2,0.6,0.3,1.2,0.5,1.8c0.5,1,1.3,1.7,1.9,2.6c0.8,1.2,1.5,2.5,2.3,3.8c0.6,0.9,1.3,1.7,1.9,2.7c0.5,0.8,0.8,1.8,1.2,2.7
		c0.3,0.6,0.5,1.4,0.9,1.9c0.7,0.8,1.6,1.3,2.5,1.9c0.6,0.3,1.2,0.6,1.9,0.8c0.4,0.2,0.9,0.2,1.2,0.4c0.4,0.2,0.5,0.7,0.9,0.9
		c0.4,0.2,0.8,0.2,1.2,0.4c0.3,0.1,0.7,0.3,1,0.5c0.5,0.4,1,0.9,1.4,1.4c0.9,1,1.7,2.2,2.6,3.3c0.6,0.7,1.3,1.4,1.8,2.2
		c0.3,0.5,0.6,1.2,0.9,1.7c0.2,0.3,0.4,0.7,0.6,1c0.3,0.4,0.7,0.8,1,1.2c0.1,0.2,0.4,0.3,0.3,0.5c-0.1,0.2-0.5,0-0.7-0.1
		c-0.4-0.2-0.7-0.7-1.1-1c-0.4-0.2-0.9-0.3-1.2-0.6c-0.5-0.3-0.8-0.9-1.3-1.3c-0.8-0.7-1.6-1.3-2.4-1.9c-0.6-0.5-1.3-0.8-1.9-1.3
		c-0.4-0.3-0.8-0.6-1.2-0.9c-0.8-0.7-1.4-1.6-2.2-2.3c-0.8-0.6-1.6-1.3-2.5-1.7c-0.8-0.4-1.8-0.4-2.7-0.6c-0.8-0.1-1.7-0.1-2.5-0.1
		c-0.6,0-1.4,0.4-1.7,0c-0.2-0.3,0.2-0.8,0.4-1.2c0.2-0.4,0.5-0.6,0.6-1c0.2-0.4,0.3-0.9,0.2-1.4c-0.1-0.7-0.6-1.4-1.1-2
		c-0.5-0.8-1.4-1.3-1.8-2.2c-0.4-0.8-0.4-1.8-0.6-2.7c-0.1-0.5-0.1-1-0.3-1.5c-0.3-0.6-1-1-1.5-1.5c-1.1-1.3-2.2-2.6-3.1-4
		c-0.4-0.6-0.9-1.2-1.2-1.9c-0.2-0.5-0.2-1.1-0.5-1.5c-0.4-0.9-1.2-1.5-1.6-2.4c-0.5-1-0.8-2.1-1.1-3.2c-0.4-1.3-0.5-2.7-1-4.1
		c-0.3-1-0.8-1.9-1.1-2.9c-0.3-0.8-0.4-1.6-0.7-2.4c-0.7-1.4-1.7-2.7-2.9-3.7c-0.7-0.6-1.7-0.9-2.4-1.5c-0.8-0.5-1.5-1.1-2.2-1.7
		c-0.6-0.5-1.2-1-1.6-1.6c-0.4-0.6-0.4-1.3-0.7-1.9c-0.3-0.5-0.5-1.1-1-1.5c-0.5-0.3-1.1-0.3-1.7-0.2c-0.5,0-0.9,0.1-1.3,0.3
		c-0.4,0.2-0.7,0.4-0.9,0.7c-0.2,0.3-0.2,0.7-0.3,0.9c-0.3,0.4-0.6,0.9-1.1,1.1c-0.6,0.3-1.4,0.1-2.1,0.3c-0.4,0.1-0.7,0.2-1.1,0.4
		c-0.4,0.3-0.8,0.6-1.1,1c-0.5,0.5-0.9,1.1-1.3,1.7c-0.3,0.5-0.7,0.9-1,1.4c-0.2,0.4-0.4,0.9-0.6,1.4c-0.1,0.4-0.3,0.7-0.3,1.1
		c0,0.6,0.1,1.2,0.2,1.8c0.3,1.1,0.9,2.1,1.4,3.1c0.6,1,1.2,2,1.9,2.9c0.5,0.6,1,1.2,1.4,1.9c0.2,0.4,0.4,0.8,0.6,1.2
		c0.1,0.4,0.2,0.8,0.3,1.2c0.1,0.6,0,1.1,0.1,1.7c0.1,0.4,0.1,0.9,0.3,1.2c0.3,0.8,0.9,1.5,1.4,2.1c0.6,0.7,1.3,1.3,1.9,2
		c0.4,0.5,0.9,1,1.2,1.5c0.3,0.4,0.6,0.9,0.7,1.4c0.1,0.4,0.2,0.8,0.2,1.2c0,0.5-0.2,1.1-0.1,1.6c0.1,0.6,0.6,1,0.9,1.5
		c0.4,0.6,0.9,1.2,1.2,1.8c0.3,0.5,0.6,1,0.8,1.5c0.3,0.6,0.5,1.2,0.6,1.8c0.1,0.4,0,0.8,0,1.2c0,0.7,0,1.4,0.2,2
		c0.2,0.5,0.4,1,0.8,1.3c0.9,0.5,2,0.1,3,0.3c0.6,0.1,1.2,0.2,1.8,0.3c0.6,0.2,1.1,0.5,1.7,0.7c0.7,0.2,1.4,0.3,2.2,0.4
		c0.8,0.1,1.5,0.3,2.3,0.4c0.8,0.2,1.6,0.4,2.3,0.7c1.5,0.6,3,1.4,4.4,2.2c2,1.2,3.9,2.6,5.9,3.8c1.6,1,3.2,2,4.9,2.9
		c0.8,0.4,1.6,0.9,2.4,1.2c0.5,0.2,1.1,0.3,1.6,0.4c0.6,0.1,1.5-0.2,1.8,0.4c0.1,0.1-0.1,0.3-0.1,0.4c-0.1,0.5,0.2,1-0.1,1.4
		c-0.3,0.3-0.8,0.2-1.2,0.2c-1.4,0-2.9-0.2-4.2-0.5c-3.9-1.1-11-4.8-11.3-4.8c-0.6,0-1.2-0.1-1.8-0.4c-0.7-0.4-1.3-1-1.7-1.6
		c-0.4-0.5-0.4-1.1-0.8-1.6c-0.4-0.6-0.9-1.1-1.5-1.5c-0.6-0.4-1.3-0.6-2-0.7c-0.7-0.2-1.5-0.2-2.2-0.4c-0.9-0.2-1.7-0.6-2.5-0.7
		c-0.4-0.1-0.9-0.1-1.3,0c-0.5,0.1-0.9,0.6-1.4,0.7c-1.1,0.2-2.2,0.1-3.3-0.2c-0.7-0.1-1.4-0.3-2-0.7c-0.4-0.3-0.6-0.9-1.1-1.2
		c-0.4-0.3-0.9-0.4-1.4-0.4c-0.5-0.1-1.1-0.1-1.5,0.2c-0.3,0.2-0.6,0.4-0.7,0.7c-0.1,0.4,0,0.9,0.2,1.3c0.1,0.3,0.2,0.5,0.5,0.7
		c0.4,0.3,1,0.1,1.4,0.4c0.6,0.4,0.8,1,1.3,1.5c0.5,0.6,1,1.1,1.4,1.7c0.3,0.5,0.7,0.9,0.9,1.5c0.1,0.3,0.1,0.6,0.2,0.8
		c0.1,0.2,0.4,0.4,0.6,0.6c0.3,0.2,0.7,0.2,1.1,0.4c0.3,0.1,0.7,0.1,0.9,0.3c0.1,0.1,0.2,0.3,0.1,0.5c-0.1,0.3-0.6,0.3-0.9,0.3
		c-0.4,0-0.9,0-1.2-0.2c-1-0.5-1.8-1.3-2.6-2.1c-0.6-0.6-1.2-1.2-1.8-1.9c-0.7-0.7-1.4-1.6-2.2-2.2c-0.7-0.5-1.4-0.9-2.2-1.2
		c-1-0.5-2.2-0.6-3.2-1.1c-0.8-0.4-1.5-1-2.2-1.5c-0.8-0.6-1.5-1.1-2.2-1.8c-0.6-0.6-0.8-1.6-1.5-2.1c-0.3-0.2-0.6-0.4-1-0.5
		c-0.6-0.1-1.2,0.2-1.8,0.1c-0.9-0.1-1.7-0.6-2.5-1c-0.6-0.3-1.1-0.8-1.7-0.9c-0.5-0.1-1,0.1-1.6,0.2c-0.7,0.1-1.3,0.3-2,0.6
		c-1,0.5-1.9,1.4-2.9,1.8c-0.5,0.2-1,0.3-1.5,0.4c-0.7,0.1-1.5,0-2.2,0c-0.6,0-1.2-0.1-1.8,0.1c-0.3,0.1-0.5,0.2-0.7,0.3
		c-1.1,0.4-2.2,0.8-3.3,1.2c-0.7,0.3-1.5,0.5-2.2,0.8c-0.7,0.3-1.4,0.8-2.1,1.2c-0.8,0.4-1.6,0.9-2.4,1.3c-0.6,0.3-1.3,0.5-1.9,0.6
		c-1.1,0.2-2.2,0.3-3.3,0.2c-0.5,0-1.1,0.1-1.4-0.3c-0.9-1.2-0.8-3.6,0.3-4.7c0.7-0.7,2-0.1,3.1-0.1c1.8,0.1,3.7,0.6,5.5,0.5
		c1.2-0.1,2.3-0.5,3.4-1c1.5-0.6,2.7-1.7,4.2-2.3c0.8-0.4,1.7-0.7,2.6-0.8c0.9-0.1,1.8,0.2,2.7,0c1.1-0.2,2.1-0.9,3.2-1.3
		c1.4-0.5,2.7-1,4.1-1.2c1.2-0.2,2.5-0.3,3.8,0c1.2,0.2,2.3,0.9,3.5,1.4c1.1,0.5,2.3,0.9,3.3,1.6c0.7,0.5,1.2,1.3,1.9,1.8
		c1,0.8,2.1,1.4,3.2,1.9c0.8,0.3,1.7,0.5,2.6,0.5c1.2,0.1,2.3,0,3.5-0.1c0.5-0.1,1.2,0,1.6-0.3c0.4-0.4,0.3-1,0.4-1.6
		c0-0.4,0-0.9-0.2-1.3c-0.2-0.8-0.6-1.5-0.9-2.1c-0.7-1.3-1.8-2.4-2.4-3.7c-0.3-0.7-0.4-1.6-0.7-2.3c-0.3-0.7-0.7-1.4-1.1-2
		c-0.6-0.8-1.2-1.6-1.9-2.4c-1.4-1.6-3.1-2.8-4.4-4.5c-0.4-0.6-0.8-1.2-1.1-1.9c-0.3-0.6-0.4-1.2-0.6-1.8c-0.3-0.7-0.5-1.4-0.9-2
		c-0.3-0.6-0.6-1.2-1-1.7c-0.4-0.4-1-0.7-1.2-1.2c-0.3-0.6-0.2-1.4-0.3-2c-0.3-1.6-0.6-3.1-1.2-4.6c-0.3-0.7-0.6-1.4-1-2
		c-0.7-0.8-1.7-1.3-2.4-2.1c-0.7-0.9-1-1.9-1.5-2.9c-0.5-1-0.9-2-1.5-2.9c-0.3-0.6-0.7-1.2-1.1-1.7c-0.7-0.7-1.7-1.1-2.5-1.8
		c-1-0.8-2-1.4-2.8-2.4c-0.3-0.4-0.1-1.1-0.6-1.4C265.4,349.6,264.5,350.4,264.2,350L264.2,350z"/>
	<path class="st4" d="M346.3,400.4l-1.9,0.5c0,0-0.9,1-1.1,1.6c-0.4,1-0.5,2.1-0.5,3.2c0,1.2,0.2,2.3,0.5,3.5
		c0.7,2.6,3.1,7.3,3.1,7.3l3.5,4.8l8.8,8.3l47.4,16.1l15.4,11.3l10,17.2l9.4,5.7l10.7,1.5l1.1,13.9c0,0,10,4.5,12,5
		c2,0.5,8.2,0.6,8.2,0.6l8.3-2.7l13.8-22.7L503,453l3.6-27.7l1.9-15.6l-1.2-9.1c0,0-149.3-0.8-149.9-0.8
		C356.6,399.8,346.3,400.4,346.3,400.4L346.3,400.4z"/>
	<path class="st5" d="M244.1,415.7c0,0,3,0.6,4.6,0.7c1.1,0.1,2.2-0.1,3.3-0.2c1.2-0.1,2.5-0.2,3.7-0.3c1.2-0.1,2.5-0.4,3.7-0.4
		c1,0.1,2,0.5,3,0.7c2.9,0.6,5.8,1.2,8.8,1.4c2.9,0.2,5.7-0.5,8.6-0.4c1.5,0.1,2.9,0.3,4.4,0.7c1.6,0.4,3,1.4,4.6,1.6
		c2.2,0.3,4.3-0.2,6.5-0.5c2.8-0.4,5.6-1.3,8.4-1.6c2.5-0.3,5-0.3,7.5-0.2c2.4,0.1,4.8,0.7,7.2,0.7c3.2,0.1,6.3-0.6,9.5-0.5
		c1.5,0,3,0.4,4.6,0.4c2.9,0,5.7-0.9,8.6-0.7c1.4,0.1,2.8,0.6,4.2,1.1c1.7,0.5,5.1,1.8,5.1,1.8l5.8,4.9c0,0,6.3,3.3,8.1,4
		c1.8,0.7,7.4,1.2,7.4,1.2l8.8,2.8l12.1,4.6c0,0,15.3,4.7,16.3,5.1c1.1,0.4,4.9,1.8,4.9,1.8s10,7.5,11,8.4c1.2,1,2.4,2,3.7,3
		l5.6,18.6l1.4,1.6c0,0,8.1,1.6,9.5,1.9c1.4,0.4,8.8,2.1,8.8,2.1s1.6-0.5,1.6,0.4c0,0.9-0.2,2.8-0.2,2.8l-1.1,3.7l7,7l3.3,3l1.4,1.6
		l6.1-1.8l3.9-1.2h0.9l4.2,4.2l-20.5,24.7c0,0-30,18.6-30.7,18.6c-0.7,0-30.2,10.7-34.9,10.5c-4.7-0.2-35.2,0.4-36,0.4
		c-0.7,0-48.9-16.1-48.9-16.1l-34-27.9l-27.5-43.3l-5.6-28.2l-0.5-20.3L244.1,415.7z"/>
	<path class="st6" d="M221.5,196.3c-16.4,0-29.6,14.4-29.6,32.2c0,0,0,0,0,0c0,17.8,13.3,32.2,29.6,32.2s29.6-14.4,29.6-32.2
		C251.1,210.7,237.8,196.3,221.5,196.3C221.5,196.3,221.5,196.3,221.5,196.3L221.5,196.3z M280.6,198v60.5h17.7v-31.4l17.2,31.4
		h17.2V198h-17.5v30l-16.8-30H280.6z M361.6,198l0.4,16.7h15.3v43.8h18.4v-43.8h15.6V198L361.6,198z M451.6,198L430,258.5h18.8
		l3-8.4h17l3.2,8.4h18.2L468.9,198H451.6z M517.2,198v60.5H535v-31.4l17.2,31.4h17.2V198h-17.5v30L535,198H517.2z M617.6,198
		L596,258.5h18.8l3-8.4h17l3.2,8.4h18.2L634.9,198H617.6z M96.4,198.2l-0.5,60.3h17.7v-37.4l8.9,37.4h13.3l9.6-38.2v38.1h16.7v-60.2
		h-24.7l-7.7,35.1l-8.2-35.1L96.4,198.2z M221.4,211.9c6.4,0,11.7,7.5,11.7,16.7c0,0,0,0,0,0c0,9.2-5.2,16.7-11.7,16.7c0,0,0,0,0,0
		c-6.4,0-11.7-7.5-11.7-16.7C209.7,219.3,214.9,211.9,221.4,211.9z M460.5,217.1l4.9,19.8h-11L460.5,217.1z M626.5,217.1l4.9,19.8
		h-11L626.5,217.1z"/>
	<g>
		<path class="st3" d="M385.4,470l-13.8,12.9c0,0,2.8,0.4,4.2,0.6c2.7,0.3,5.4,0.6,8.1,0.8c4.2,0.3,8.5,0.3,12.8,0.5
			c4,0.2,12,0.6,12,0.6s2.2,0.4,3.2-0.1c0.3-0.1,0.7-0.4,0.8-0.8c0.2-0.6,0-1.2-0.2-1.8c-0.3-0.6-0.8-1.1-1.3-1.6
			c-0.3-0.3-1.1-0.9-1.1-0.9l-0.1-6l-12.3-1.8v-2.2l-11.8-0.7L385.4,470z"/>
		<path class="st7" d="M382.4,469.5L366,485.6l2.7,0.1l16.9-15.8L382.4,469.5z"/>
	</g>
	<path class="st8" d="M249.7,464.1c0,0,3.7,1.9,5.7,2.4c3.6,0.8,7.4,0.4,11,0.7c3.6,0.3,7.3,0.7,10.9,1.1c3.6,0.4,7.1,0.6,10.7,1.1
		c3,0.5,6,1.3,9.1,1.9c1.7,0.3,3.6,0.3,5.2,1c0.9,0.3,1.6,0.9,2.4,1.5c0.4,0.4,0.8,0.8,1.1,1.2c0.3,0.6,0.5,1.2,0.6,1.9
		c0.2,1.1-0.1,3.5-0.1,3.5s4.4,4.7,7.3,5.1c0.8,0.1,1.5-0.5,2.2-0.7c1.5-0.4,3.1-0.7,4.7-0.9c1-0.1,2-0.2,3-0.2c0.4,0,0.9-0.2,1.2,0
		c0.3,0.1,0.4,0.6,0.6,0.7c1.2,0.8,2.6,0.9,4,1.2c1.4,0.3,2.9,0.3,4.3,0.7c1.1,0.4,2.2,0.8,3.1,1.6c0.6,0.5,1,1.3,1.4,2
		c0.3,0.7,0.4,1.4,0.5,2.1c0.1,0.9-0.2,1.8-0.2,2.7c-0.2,3.5-0.4,10.5-0.4,10.5l-22.9,9.4l-24.8,3.8l-7.3-1.6l-13.5-15.6l-12.4-18
		l-6.6-16.4L249.7,464.1z"/>
	<g>
		<path class="st3" d="M347.3,397.7c-0.3,0-0.8,0-1,0.2c-0.6,0.5-0.9,1.5-0.6,2.2c0.4,0.8,1.6,0.9,2.5,1.1c0.4,0.1,1-0.3,1.3,0
			c0.3,0.3-0.1,0.8,0,1.1c0.1,0.3,0.3,0.7,0.6,0.7c0.3,0.1,0.7-0.3,0.9-0.5c0.2-0.2,0-0.7,0.3-0.8c0.5-0.3,1.2,0,1.7,0.4
			c0.8,0.7,0.8,2,1.1,3.1c0.6,2.2,0.7,4.6,1.3,6.8c0.3,1,0.6,2,1.1,3c0.5,0.9,0.8,2.1,1.7,2.5c0.4,0.2,0.8,0,1.2-0.2
			c0.6-0.2,0.8-0.9,1.4-1.1c0.4-0.2,0.9,0,1.4-0.1c0.4-0.1,0.8-0.3,1.2-0.5c0.3-0.2,0.8-0.3,1-0.6c0.3-0.4,0.2-0.9,0.3-1.4
			c0-0.8,0.4-2-0.3-2.4c-0.8-0.4-1.6,0.8-2.4,1.2c-0.5,0.2-1,0.9-1.5,0.7c-1.6-0.5-1.7-3-2.6-4.4c-0.9-1.4-2.3-2.5-2.9-4
			c-0.3-0.7-0.5-1.6-0.4-2.4c0.1-0.4,0.2-1.1,0.6-1.1c0.4-0.1,0.6,0.5,0.9,0.8c0.4,0.5,0.4,1.7,1.1,1.8c0.4,0.1,0.6-0.4,0.9-0.7
			c0.3-0.3,0.2-0.9,0.5-1.1c0.4-0.4,1-0.7,1.6-0.6c0.6,0.1,0.9,0.8,1.2,1.2c0.4,0.5,0.5,1.5,1.1,1.7c0.6,0.2,1.1-0.4,1.7-0.6
			c0.7-0.3,1.4-0.6,2-1c0.2-0.2,0.2-0.5,0.5-0.7c0.1-0.1,0.3,0,0.5,0c0.5,0.2,1,0.6,1.3,1.1c0.3,0.4,0.3,0.9,0.5,1.4
			c0.1,0.3,0,0.8,0.4,1c0.3,0.2,0.8-0.3,1.1-0.1c0.2,0.1,0.3,0.3,0.4,0.4c0.3,0.3,0.5,0.6,0.7,1c0.1,0.4,0,0.8,0.1,1.1
			c0.1,0.3,0.2,0.6,0.4,0.9c0.4,0.5,1.1,0.7,1.4,1.2c0.3,0.4,0.2,0.9,0.4,1.3c0.2,0.3,0.3,0.8,0.7,0.7c0.4-0.1,0.4-0.8,0.4-1.3
			c0.1-1.3-0.3-2.6-0.5-3.9c-0.1-0.9-0.3-1.7-0.4-2.6c-0.1-0.6-0.6-1.3-0.4-1.9c0.1-0.2,0.3-0.3,0.5-0.4c0.2,0,0.4,0,0.6,0.1
			c0.4,0.3,0.5,0.9,0.7,1.4c0.4,0.9,0.8,1.8,1,2.8c0.3,1,0.3,2.1,0.4,3.2c0.1,1,0.3,2,0.5,3c0.1,0.5-0.1,1,0.2,1.4
			c0.2,0.2,0.5,0.2,0.8,0.3c0.3,0.1,0.8-0.2,1,0c0.3,0.2,0,0.7,0,1.1c0.1,0.6,0.1,1.2,0.5,1.7c0.2,0.2,0.4,0.4,0.7,0.3
			c0.3-0.1,0.5-0.5,0.6-0.8c0.6-2,0-4.3-0.4-6.4c-0.2-1.3-0.7-2.5-1.1-3.8c-0.2-0.7-0.9-1.4-0.7-2.1c0.1-0.4,0.5-0.7,0.9-0.8
			c0.4-0.1,0.8,0.3,1.1,0.5c0.6,0.5,0.8,1.3,1.1,2c0.3,0.7,0.6,1.3,0.8,2.1c0.5,2,0.4,4.2,0.7,6.3c0.1,1,0,2.1,0.5,3
			c0.2,0.4,0.5,0.7,0.9,1c0.2,0.1,0.4,0.1,0.6,0.2c0.1,0,0.1,0.1,0.1,0.2c0.3,0.2,0.6,0.4,1,0.5c0.4,0.1,0.8,0,1.1-0.1
			c0.1,0,0.1-0.1,0.2-0.1c0.1,0,0.1,0.1,0.2,0.1c0.4,0,0.6-0.5,0.9-0.7c0.3-0.2,0.6-0.7,1-0.7c0.3,0,0.3,0.5,0.6,0.7
			c0.4,0.3,0.8,0.7,1.3,0.8c0.4,0.1,0.9-0.1,1.2-0.3c0.3-0.2,0.5-0.6,0.9-0.8c0.3-0.2,0.7-0.1,1.1-0.2c0.9-0.2,1.8-0.1,2.5-0.6
			c0.3-0.3,0.6-0.7,0.7-1.1c0.2-1.2-0.3-2.4-0.5-3.6c-0.2-1.6-0.4-3.2-0.8-4.8c-0.2-1.1-0.8-2.1-0.9-3.2c0-0.5-0.2-1.1,0.1-1.4
			c0.2-0.2,0.5-0.2,0.8-0.1c0.4,0.1,0.7,0.4,1.1,0.7c0.5,0.4,0.9,0.9,1.2,1.4c0.5,0.8,0.9,1.6,1.1,2.4c0.4,1.1,0.4,2.3,0.7,3.5
			c0.2,0.8,0.4,1.7,0.5,2.5c0.1,0.4-0.1,0.8,0.1,1.1c0.1,0.2,0.4,0.2,0.6,0.4c0.2,0.2,0.4,0.4,0.6,0.6c0.2,0.3,0.2,0.7,0.2,1.1
			c0.1,0.3-0.1,0.8,0.2,1c0.3,0.3,0.7,0.3,1.1,0.3c0.5-0.1,0.8-0.5,1.2-0.8c0.4-0.3,0.7-0.6,1.1-0.9c0.4-0.2,0.7-0.5,1.1-0.6
			c0.1,0,0.3,0,0.4,0.1c0.3,0.2,0.5,0.6,0.7,1c0.1,0.3,0.1,0.6,0.3,0.8c0.2,0.2,0.6,0.3,0.9,0.3c0.3,0,0.5-0.3,0.8-0.4
			c0.4-0.1,0.8-0.2,1.2-0.1c0.5,0.1,0.9,0.6,1.4,0.7c0.4,0.1,0.9,0.4,1.2,0.1c0.2-0.2-0.1-0.6-0.1-0.9c-0.1-0.6,0-1.3-0.2-1.9
			c-0.1-0.3-0.1-0.8-0.4-0.9c-0.3-0.1-0.5,0.2-0.8,0.3c-0.4,0.1-0.8,0.2-1.2,0.1c-0.5-0.1-0.9-0.6-1.4-0.7c-0.2-0.1-0.4,0.1-0.6,0
			c-0.1-0.1-0.1-0.4-0.2-0.5c-0.4-0.5-1.1-0.7-1.7-0.8c-0.8-0.2-1.6-0.1-2.4,0.2c-0.3,0.1-0.5,0.4-0.7,0.6c-0.2,0.2-0.3,0.6-0.6,0.8
			c-0.2,0.1-0.5,0.2-0.7,0c-0.5-0.3-0.6-0.9-0.7-1.4c-0.2-0.9,0-1.9-0.1-2.8c-0.2-1.1-0.7-2.1-1-3.2c-0.2-0.8-0.7-1.5-0.6-2.3
			c0.1-0.4,0.3-0.8,0.6-0.9c0.3-0.1,0.6,0.2,0.9,0.4c0.4,0.3,0.7,0.8,1.1,1.1c0.3,0.2,0.7,0.6,1.1,0.6c0.3-0.1,0.4-0.6,0.7-0.7
			c0.4-0.1,0.8,0.3,1.1,0.2c0.4-0.2,0.7-0.6,0.9-1.1c0.2-0.4-0.1-1.1,0.3-1.4c0.3-0.2,0.7,0,1.1,0c0.3,0,0.6,0.2,0.8,0.1
			c0.3-0.2,0.2-0.7,0.4-1.1c0.1-0.2,0.1-0.5,0.4-0.6c0.5-0.2,1.2,0.1,1.6,0.4c0.4,0.2,0.4,0.9,0.8,1.1c0.4,0.2,0.9,0.1,1.4,0
			c0.3,0,0.6-0.3,0.9-0.3c0.4,0,0.8,0.4,1.2,0.5c0.6,0.1,1.5,0.6,1.9,0.1c0.2-0.3-0.1-0.7-0.2-1c-0.2-0.8-0.1-1.8-0.7-2.3
			c-3-2.3-7.6-0.2-11.4-0.3c-11.3-0.2-22.7-0.3-34-0.7c-7.7-0.2-15.3-0.5-23-0.9C348.8,397.8,348.1,397.7,347.3,397.7L347.3,397.7z
			 M384.2,402.5c0.3,0,0.6,0.1,0.8,0.3c0.4,0.4,0.5,1.1,0.7,1.6c0.5,1.2,1.2,2.3,1.6,3.5c0.5,1.2,0.8,2.4,1.1,3.6
			c0.4,1.3,0.9,2.6,1.1,3.9c0,0.3,0.2,0.7,0,0.8c-0.1,0-0.1-0.1-0.2-0.1c-0.2,0-0.4,0.3-0.5,0.5c-0.2,0.3-0.2,0.9-0.5,1.1
			c-0.2,0.2-0.5,0.3-0.7,0.2c-0.3-0.1-0.4-0.6-0.7-0.9c-0.1-0.1-0.3-0.2-0.4-0.4c-0.3-0.7,0-1.5,0-2.2c-0.2-1.7-0.5-3.3-1-5
			c-0.5-1.8-1.7-3.4-2-5.2c-0.1-0.5-0.2-1.1,0.1-1.5C383.8,402.6,384,402.5,384.2,402.5L384.2,402.5z M464.9,399.7
			c-8.8-0.1-17.5,0-26.3,0.1c-4.7,0-10-2.1-14.1,0.2c-0.7,0.4-1.4,1.2-1.3,2c0.1,0.5,0.8,0.6,1.1,1c0.2,0.4,0.1,0.9,0.3,1.4
			c0.1,0.3,0.1,0.9,0.4,1c0.3,0.1,0.5-0.2,0.7-0.4c0.2-0.3,0-0.6,0.1-0.9c0.1-0.3,0.3-0.5,0.6-0.6c0.7-0.3,1.6-0.2,2.4,0
			c0.4,0.1,0.7,0.3,1,0.5c0.2,0.2,0.5,0.4,0.6,0.6c0.3,0.5,0.3,1.2,0.4,1.8c0.1,0.5,0.2,1,0.4,1.5c0.1,0.5,0.3,1,0.4,1.5
			c0.1,0.8,0.2,1.7,0.3,2.5c0,0.4,0.1,0.8,0.1,1.1c0.1,0.6-0.1,1.4,0.4,1.8c0.3,0.3,0.9,0.4,1.2,0.2c0.4-0.3,0.3-1,0.3-1.6
			c0-1.5-0.7-2.9-1-4.4c-0.2-1.1-0.5-2.2-0.5-3.2c0-0.5-0.2-1.1,0.1-1.4c0.2-0.3,0.7-0.2,1.1-0.1c0.2,0.1,0.4,0.3,0.5,0.5
			c0.7,1,1,2.2,1.3,3.4c0.1,0.7,0,1.3,0,2c0.1,1.5,0.3,3.1,0.4,4.6c0.1,1.1-0.1,2.2,0.1,3.2c0.1,0.4,0.1,1,0.5,1.2
			c0.3,0.2,0.7,0.2,1,0c0.6-0.3,1.1-0.9,1.4-1.5c0.2-0.6,0.2-1.2,0.2-1.8c0-1.9-0.4-3.7-0.7-5.6c-0.1-0.8-0.2-1.6-0.4-2.4
			c-0.3-1-0.8-2-1-3.1c-0.1-0.5-0.4-1.1-0.1-1.5c0.2-0.2,0.5-0.2,0.7-0.2c0.4,0,0.7,0.2,1,0.5c0.7,0.6,1,1.5,1.5,2.3
			c0.4,0.6,0.3,1.7,0.9,2c0.7,0.3,1.5-0.5,2.2-0.5c0.5,0,1,0.1,1.4,0.4c0.4,0.3,0.6,0.9,0.8,1.4c0.3,0.6,0.5,1.3,0.7,1.9
			c0.3,1.2,0.5,2.4,0.7,3.6c0.1,1.1,0.3,2.3,0,3.4c-0.1,0.4-0.4,0.8-0.6,1.1c-0.2,0.4-0.7,0.7-0.7,1.1c0,0.3,0,0.6,0.2,0.8
			c0.4,0.4,1.1,0.2,1.6,0.2c0.8,0,1.6-0.1,2.3-0.4c0.8-0.3,1.5-1,2.1-1.6c0.3-0.3,0.7-0.6,0.7-1c0.2-2.7-2.9-4.7-3.7-7.2
			c-0.2-0.7-0.1-1.5-0.3-2.1c-0.4-1.1-1.5-1.9-1.7-3c-0.1-0.7,0.1-1.4,0.3-2.1c0.1-0.3,0.2-0.7,0.4-0.9c0.2-0.2,0.5-0.3,0.8-0.3
			c0.3,0,0.6,0.4,0.8,0.6c0.2,0.2,0.3,0.5,0.4,0.8c0.3,0.6,0.5,1.3,0.8,1.9c0.3,0.8,0.7,1.6,0.8,2.4c0.2,0.8,0.2,1.7,0.1,2.6
			c-0.1,0.7-0.7,1.4-0.6,2.1c0.2,1.8,1,4,2.7,4.7c0.2,0.1,0.5,0,0.6-0.2c0.4-0.4,0.4-1.1,0.5-1.7c0.1-1.2-0.2-2.3-0.3-3.5
			c-0.2-1.6-0.5-3.2-0.8-4.8c-0.2-0.9-0.6-1.8-0.5-2.7c0-0.3,0.1-0.7,0.4-1c0.1-0.1,0.4-0.2,0.5-0.2c0.5,0.2,0.5,0.9,0.7,1.3
			c0.3,0.7,0.7,1.4,0.9,2.1c0.3,1,0.3,2.1,0.5,3.2c0.2,0.9,0.6,1.9,0.7,2.8c0.1,0.7,0.2,1.3,0.3,2c0.1,0.4,0,0.9,0.2,1.3
			c0.2,0.5,0.6,0.8,0.9,1.2c0.5,0.7,0.8,1.6,1.5,2.1c0.4,0.2,1,0.3,1.4,0.2c0.3-0.1,0.5-0.4,0.5-0.6c0.3-1.1-0.2-2.3-0.5-3.3
			c-0.3-1-0.9-1.9-1.2-2.9c-0.2-0.7-0.2-1.4-0.4-2.1c-0.3-1.3-0.9-2.5-1.4-3.8c-0.2-0.7-0.5-1.4-0.7-2.1c-0.1-0.5-0.4-1.1-0.1-1.6
			c0.1-0.2,0.4-0.3,0.7-0.3c0.4,0,0.8,0.3,1.1,0.6c0.7,0.8,0.6,2,1,2.8c0.4,0.9,1,1.7,1.6,2.4c0.2,0.2,0.4,0.6,0.6,0.5
			c0.2-0.1,0.2-0.5,0.3-0.7c0.1-0.8-0.3-1.6-0.2-2.5c0.1-0.5,0.2-1.1,0.6-1.3c0.2-0.1,0.5,0.2,0.7,0.4c0.5,0.5,0.6,1.4,0.9,2.1
			c0.4,1,0.9,2,1.1,3.1c0.2,0.7-0.1,1.5,0.2,2.1c0.1,0.3,0.5,0.5,0.7,0.8c0.3,0.4,0.6,0.9,0.8,1.4c0.2,0.5,0.3,1,0.3,1.6
			c0,0.4,0,0.9-0.2,1.3c-0.2,0.4-0.7,0.5-0.8,0.9c-0.1,0.4-0.2,0.9,0,1.3c0.1,0.2,0.5,0.2,0.7,0.4c0.3,0.2,0.7,0.3,0.9,0.6
			c0.2,0.2,0.1,0.6,0.3,0.7c1,0.8,2.7,0.6,3.9,0.2c0.3-0.1,0.4-0.5,0.7-0.6c0.3-0.1,0.6,0,0.8,0c0.5,0.1,0.8,0.5,1.3,0.5
			c0.4,0,0.7-0.2,1.1-0.2c0.3,0,0.5,0,0.7,0.1c0.2,0.1,0.3,0.4,0.5,0.4c0.5,0.1,1.1-0.3,1.6-0.4c0.3-0.1,0.7-0.2,1.1-0.2
			c0.3,0.1,0.5,0.4,0.7,0.5c0.5,0.1,1-0.2,1.5-0.3c0.2-0.1,0.5-0.2,0.7-0.2c0.3,0.1,0.5,0.5,0.8,0.7c0.5,0.3,1.1,0.7,1.7,0.7
			c0.6,0,1.4-0.1,1.8-0.6c0.5-0.7,0.5-1.8,0-2.5c-0.1-0.2-0.4-0.3-0.7-0.4c-0.5-0.2-1.1,0.1-1.6-0.1c-0.4-0.2-0.7-0.6-0.9-1
			c-0.3-0.6-0.3-1.2-0.4-1.9c0-1-0.3-2.1,0.3-2.9c0.3-0.4,0.9-0.5,1.4-0.6c0.3,0,0.7,0.3,1,0.1c0.2-0.1,0.2-0.5,0.2-0.7
			c0-0.6,0-1.2-0.2-1.8c-0.2-0.9-1.1-1.6-1.1-2.5c0-0.5,0.2-1,0.6-1.4c0.2-0.2,0.5-0.3,0.7-0.3c0.3,0.1,0.5,0.5,0.7,0.8
			c0.5,0.8,1,1.6,1.4,2.5c0.3,0.8,0.3,1.7,0.5,2.5c0.1,0.7,0.1,1.5,0.4,2.1c0.1,0.3,0.3,0.7,0.6,0.8c0.3,0.2,0.8-0.2,1.1,0
			c0.3,0.1,0.3,0.7,0.6,0.7c0.5-0.1,0.3-1,0.4-1.5c0.1-0.5,0.2-0.9,0.3-1.4c0.1-1.4,0-2.9-0.1-4.3c0-0.5-0.3-1.1-0.1-1.6
			c0.1-0.3,0.4-0.6,0.7-0.6c0.4-0.1,0.7,0.2,1,0.4c0.6,0.5,0.9,1.4,1.2,2.1c0.3,0.7,0.4,1.5,0.5,2.3c0.1,0.7-0.1,1.3,0,2
			c0,0.3-0.1,0.7,0,1c0.2,0.6,0.9,0.9,1.3,1.4c0.3,0.5,0.6,1,0.8,1.5c0.2,0.6,0.2,1.2,0.3,1.8c0.1,0.4,0.3,0.8,0.3,1.3
			c0.1,0.6-0.5,1.3-0.1,1.7c0.5,0.6,1.6,0.5,2.2,0.1c0.3-0.2,0.3-0.7,0.4-1.1c0.1-0.8-0.3-1.5-0.4-2.3c-0.1-1.1-0.1-2.3-0.3-3.4
			c-0.2-1.1-0.6-2.1-1.1-3.1c-0.3-0.5-1-0.9-1.2-1.4c-0.3-0.8-0.3-1.8,0-2.7c0.2-0.7,0.5-1.5,1.1-1.8c0.3-0.1,0.7,0.1,1,0.3
			c0.4,0.2,0.8,0.4,1.1,0.7c0.6,0.7,0.9,1.6,1.2,2.4c0.2,0.6,0.4,1.2,0.6,1.8c0.2,0.7,0,1.5,0.3,2.2c0.1,0.3,0.3,0.6,0.6,0.8
			c0.4,0.5,0.9,1.4,1.5,1.2c3.8-1.6,2.8-8.6,1.2-12.5c-0.7-1.6-2.4-2.6-3.9-3.2C490.7,396.1,477.5,399.8,464.9,399.7L464.9,399.7z
			 M468.4,405.1c0.4-0.6,1.4,0.3,1.9,0.7c0.2,0.1,0.3,0.4,0.4,0.6c0.2,0.3,0.5,0.5,0.6,0.9c0.3,0.6-0.1,1.5,0.4,1.9
			c0.4,0.3,1.1,0.1,1.6,0c0.7-0.2,1.6-0.5,2-1.1c0.3-0.5-0.1-1.1,0-1.6c0-0.4-0.1-0.9,0.3-1.1c0.3-0.2,0.8,0,1.1,0.2
			c0.3,0.2,0.2,0.7,0.5,0.8c0.4,0.1,0.8-0.4,1.2-0.4c0.3,0,0.7,0,1,0.2c0.4,0.3,0.4,0.9,0.5,1.4c0.4,1,0.8,2,1.1,3.1
			c0.4,1.5,0.5,3.1,0.7,4.6c0.1,0.6,0.4,1.3,0.1,1.9c-0.4,0.8-1.4,1.5-2.2,1.4c-0.4,0-0.5-0.7-0.9-0.9c-0.7-0.3-1.7-0.7-2.3-0.2
			c-0.4,0.3,0,1-0.2,1.4c-0.2,0.5-0.4,1.1-0.8,1.4c-0.2,0.2-0.5,0.4-0.8,0.3c-0.4-0.1-0.6-0.5-0.7-0.8c-0.2-0.5,0-1,0-1.5
			c0-0.4,0.1-0.7,0-1.1c-0.1-0.4-0.5-0.7-0.7-1.1c-0.2-0.6,0-1.3,0-1.9c0-0.5,0.3-1.1,0-1.4c-0.3-0.2-0.7,0.1-0.9,0.3
			c-0.3,0.3-0.4,0.7-0.6,1.1c-0.2,0.6-0.1,1.2-0.3,1.8c-0.1,0.2-0.2,0.6-0.4,0.6c-0.7-0.1-0.5-1.4-0.7-2.1c-0.5-1.7-0.6-3.4-1.2-5
			c-0.4-1.3-2.2-2.6-1.7-3.9C467.3,405.2,468.3,405.5,468.4,405.1L468.4,405.1z"/>
	</g>
	<path class="st2" d="M490.7,357.3c0,0-5.3,2-6,2.1s-4.5,1.5-4.5,1.5l-3.2,1.4l-5.1,1.2c0,0-2.6,0.9-3.2,0.9c-0.6,0-6.6,0.6-6.6,0.6
		s-3.8,0.1-4.3,0.1s-4.3,0.2-5.2,0.5s-4.5,2.1-4.5,2.1l-4.5,3.6c0,0-4.2,1.9-5,2c-0.7,0.1-5.1,0.5-5.8,0.5c-0.7,0-5.1-1.5-5.1-1.5
		l-4.5-0.2c0,0-2.7,0.5-4.6,1.1c-1.9,0.6-10,4.6-10,4.6l-7.4,3.6c0,0-3.2,1.2-4.1,1.4c-0.9,0.1-2.7,0.6-2.7,0.6l-3.6,1.6h-2.2
		l-3.8-1.1l-6.8,0.5l-5,1.6l-4.5,0.1l-5.1-0.1h-4.3l-2.7,1.5l-3.2,0.1l-3.2,2.5l-4,3.1c0,0-1.4,0.5-1.4,1s-0.2,1.4,0.6,1.9
		c0.9,0.5,47,4.8,47,4.8s8.4,0.4,9.3,0.4c0.9,0,5.2,0.1,5.2,0.1s3-0.1,3.5-0.1c0.5,0,3.1-0.2,3.1-0.2s5-0.7,7.4-0.9
		c2.5-0.1,48.2-9.8,48.2-9.8l16.7-13.6l4.3-13.6L490.7,357.3z"/>
	<path class="st9" d="M491.3,356.7c0,0-3,1.8-4.6,2.5c-2.1,0.9-4.4,1.3-6.5,2.3c-0.8,0.3-1.4,0.9-2.2,1.2c-0.9,0.4-1.9,0.6-2.9,0.7
		c-0.5,0.1-1-0.1-1.4,0.1c-1.1,0.3-1.9,1.3-2.9,1.8c-0.9,0.4-1.8,0.9-2.8,1.1c-0.9,0.2-1.8,0-2.7,0.1c-0.6,0.1-1.2,0.2-1.7,0.4
		c-0.7,0.3-1.1,1-1.8,1.4c-1,0.6-2,1.2-3.1,1.5c-1.4,0.3-2.8-0.2-4.2-0.1c-0.8,0.1-1.7,0.3-2.5,0.6c-0.7,0.2-1.2,0.7-1.9,0.9
		c-0.8,0.2-1.7,0-2.5,0.1c-0.8,0.1-1.5,0.3-2.3,0.5c-0.7,0.2-1.3,0.6-1.9,0.7c-0.5,0.1-0.9-0.1-1.4,0c-0.3,0.1-0.6,0.2-0.8,0.4
		c-0.3,0.4-0.3,1-0.2,1.4c0.1,0.4,0.5,0.8,0.9,1c1.5,0.8,3.4,0.4,5.1,0.7c1.1,0.2,2.3,0.4,3.4,0.6c0.7,0.1,1.4,0.4,2.2,0.4
		c1.5,0.1,3.1-0.5,4.6-0.1c0.7,0.2,1.3,0.7,1.8,1.1c0.6,0.4,1.3,0.8,1.6,1.5c0.2,0.3,0.2,0.8,0,1.1c-0.3,0.6-1.1,0.8-1.8,1.1
		c-1.2,0.4-2.5,0.4-3.8,0.4c-1.3-0.1-2.7-0.3-3.9-0.7c-1.2-0.4-2.1-1.3-3.3-1.6c-0.8-0.2-1.7-0.1-2.5-0.2c-2-0.1-4,0.1-5.9-0.3
		c-1.2-0.2-2.3-0.6-3.3-1.2c-0.7-0.4-1.1-1.2-1.8-1.7c-0.5-0.3-1-0.5-1.5-0.6c-0.5-0.1-1,0-1.4,0.2c-0.4,0.1-0.6,0.6-1.1,0.6
		c-0.6,0-1.1-0.6-1.6-1c-0.4-0.3-0.8-0.7-1.2-0.8c-0.5-0.1-1.1,0.1-1.7,0.3c-0.7,0.2-1.2,0.7-1.8,1.1c-1,0.5-2,1.2-3.1,1.5
		c-0.8,0.2-1.7,0.3-2.5,0.4c-2,0.1-4.1-0.4-6.1,0c-1.2,0.2-2.3,0.8-3.4,1.4c-0.9,0.5-1.7,1.3-2.6,1.8c-1,0.5-2.1,0.9-3.2,1.2
		c-0.7,0.3-1.4,0.6-2.2,0.7c-0.9,0.2-1.9,0.1-2.9,0.2c-0.6,0-1.4-0.3-1.9,0.1c-0.2,0.1-0.4,0.4-0.4,0.7c0.1,0.5,0.6,0.8,1.1,1
		c1,0.5,2.2,0.4,3.3,0.5c1.7,0.2,3.4,0.1,5.2,0.2c1,0,2.1-0.1,3.1,0.2c0.2,0.1,0.5,0.1,0.6,0.3c0.2,0.3,0.1,0.8,0.1,1.2
		c0,0.3-0.1,0.7-0.4,1c-0.5,0.5-1.4,0.5-2.1,0.4c-0.9-0.1-1.7-0.7-2.6-0.9c-0.7-0.1-1.4-0.1-2.1,0c-0.8,0.1-1.5,0.3-2.2,0.6
		c-0.5,0.2-0.9,0.7-1.5,0.9c-1.1,0.2-2.3,0.2-3.3-0.3c-0.5-0.2-0.7-0.9-1.2-1.1c-0.6-0.3-1.3-0.4-1.9-0.5c-1.8-0.2-3.7,0.3-5.5,0
		c-0.8-0.1-1.5-0.5-2.2-0.8c-0.7-0.2-1.4-0.5-2.1-0.6c-0.4-0.1-0.9-0.2-1.3-0.1c-0.7,0.2-1.2,0.8-1.8,1.1c-1,0.3-2,0.3-3,0.4
		c-1.2,0.1-2.5-0.2-3.7,0.1c-0.6,0.2-1,0.7-1.6,0.9c-1.1,0.4-2.4,0.3-3.6,0.4c-1.2,0-2.4,0-3.5-0.3c-0.4-0.1-0.7-0.4-1.1-0.4
		c-0.8,0.1-1.4,0.7-2.1,1.1c-0.7,0.3-1.5,0.6-2.3,0.9c-1.9,0.7-3.9,1.4-5.8,2c-2.7,0.9-5.6,1.3-8,2.7c-0.3,0.2-0.8,0.4-0.9,0.8
		c-0.2,1.3,1,2.5,2,3.3c0.5,0.4,1.2,0.7,1.8,0.8c1.2,0.3,2.5,0,3.8,0c3,0.1,6,0.2,9,0.3c3.9,0.2,7.8,0.6,11.7,0.7
		c8,0.3,16.1,0.2,24.1,0.3c1.1,0,2.2,0.3,3.2,0c0.7-0.2,1.1-1,1.8-1.2c0.5-0.2,1.2,0,1.7-0.3c1.1-0.5,1.7-1.6,2.6-2.4
		c1.4-1.1,2.8-2.3,4.5-3.2c0.8-0.4,1.7-0.6,2.5-0.8c0.8-0.2,1.8-0.1,2.5-0.5c1-0.5,1.4-1.7,2.3-2.4c1-0.8,2.1-1.4,3.2-1.8
		c1.4-0.6,3-0.8,4.5-1.1c1.2-0.3,2.4-0.8,3.6-1c1.3-0.2,2.6-0.2,3.9-0.2c1.7,0,3.5,0,5.2,0.3c1.5,0.3,2.8,1.2,4.2,1.6
		c0.6,0.2,1.2,0.1,1.8,0.3c0.3,0.1,0.7,0.3,0.8,0.6c0.1,0.3-0.2,0.5-0.4,0.7c-0.5,0.3-1.1,0.2-1.7,0.3c-0.9,0.1-1.8,0.2-2.6-0.1
		c-0.8-0.2-1.5-1-2.3-1.3c-1.3-0.4-2.7-0.7-4-0.5c-0.7,0.1-1.4,0.4-2,0.8c-0.7,0.4-1,1.2-1.7,1.7c-0.5,0.3-1.1,0.7-1.7,0.7
		c-0.8,0.1-1.5-0.7-2.3-0.6c-0.8,0-1.5,0.5-2.2,0.9c-0.7,0.3-1.3,0.6-1.9,1.1c-0.7,0.5-1.2,1.4-2,1.8c-0.9,0.4-1.9,0.2-2.8,0.4
		c-1.1,0.1-2.3,0-3.3,0.4c-0.6,0.2-1.1,0.8-1.7,1.1c-0.7,0.4-1.5,0.8-2.2,1.1c-0.4,0.2-1,0.2-1.2,0.6c-0.2,0.3-0.2,0.7-0.1,1.1
		c0.2,0.5,0.8,0.9,1.3,1.1c0.8,0.4,1.7,0.2,2.6,0.3c0.3,0,0.6,0.1,0.9,0.2c0.9,0.3,1.8,0.8,2.7,1.1c1.1,0.2,2.2,0.2,3.2,0.2
		c0.8,0,1.5-0.4,2.3-0.4c1.8-0.1,3.7,0.2,5.5,0.3c2.5,0.1,5-0.3,7.4,0.1c0.8,0.1,1.5,0.8,2.3,0.8c5,0,9.3-0.4,14.4-0.1
		c0.2,0,0.3,0.2,0.5,0.2c4,0.2,7.7,0,11.5,0.1c0.9,0,1.6,0.5,2.4,0.6c0.8,0.1,1.6,0.2,2.4,0.1c0.8,0,1.6-0.2,2.4-0.3
		c0.6-0.1,1.2-0.1,1.8-0.2c1.3-0.1,2.6-0.1,3.9,0c0.3,0,0.7,0.2,1,0.2c1.2,0.2,2.5,0.2,3.8,0.4c0.5,0.1,1.1,0.1,1.6,0.2
		c0.6,0,1.3,0,1.9-0.1c0.6,0,1.2-0.2,1.7-0.2c2.5,0,5.1,0.4,7.6,0.3c0.4,0,0.8-0.1,1.3-0.2c1.8-0.1,3.7,0.1,5.5,0.1
		c1.8,0,5.4,0,5.4,0s0.4-8.1-0.3-12c-1.2-7.3-3.8-14.3-6.7-21c-1.6-3.8-3.9-7.2-5.7-10.8C492.3,358.8,491.8,357.8,491.3,356.7
		L491.3,356.7z M267.6,428.2l-0.4,1.7l0,6.1l4.7-0.1v-1.1c0,0-0.1-1.1-0.1-1.7l-0.4-4.8L267.6,428.2z M322.3,428.5l-3.7,2.7
		l-0.3,7.2l4.5,0.4c0,0-0.4-2.2-0.5-3.3c0-0.3-0.1-0.6-0.1-0.9C322.1,432.5,322.3,428.5,322.3,428.5L322.3,428.5z M340.2,430.2
		l-4.2,1.1l-0.4,8.2l4.7,1.1l0.4-0.8c0,0-0.6-2.4-0.7-2.7C340,436.6,340.2,430.2,340.2,430.2L340.2,430.2z M284.7,432.1l-3.3,0.3
		l0,4.8l1,0.6l2-0.3L284.7,432.1z M425.5,432.3c-0.7,0-1.4,0-2.1,0.1c-1.3,0.1-2.7,0.3-4,0.7c-1.7,0.5-3.3,1.2-4.9,2.1
		c-1.6,1-3.2,1.8-4.5,3.4c-5.7,7.3-16.9,21.9-16.9,21.9l-18.8,0.4c0,0,3.5-7.6,4.9-11.6c0.3-0.7,0.6-1.5,0.7-2.3
		c0.1-0.6,0.1-1.2-0.2-1.7c-0.3-0.5-0.8-0.8-1.3-1c-0.4-0.1-0.8-0.1-1.2,0c-0.6,0.2-1.1,0.5-1.5,1c-3.7,4.4-6.8,15.8-6.8,15.8
		l-3.2,0.1c0,0-2.6-6.1-5.3-7.9c-0.6-0.4-1.3-0.4-2-0.4c-0.5,0-1.1,0-1.5,0.3c-0.5,0.4-0.7,1-0.8,1.6c0,0.4,0.2,0.7,0.4,1.1
		c1,2.1,3.8,6,3.8,6l-30,0.9c0,0-0.4-1.4-0.9-2c-0.5-0.6-1.2-1-1.9-1.3c-0.7-0.2-1.5-0.3-2.2-0.2c-0.9,0-1.8,0-2.6,0.5
		c-0.4,0.3-0.7,0.8-0.9,1.2c-0.5,1.3-0.5,2.7-0.5,4.1c0,2.7,0.4,5.3,0.8,7.9c0.1,0.7,0.6,1.3,1.1,1.7c0.6,0.4,1.5,0.5,2.3,0.6
		c0.8,0,1.6,0,2.3-0.3c0.5-0.2,1-0.6,1.3-1c0.4-0.5,0.7-1.1,0.9-1.7c0.2-0.5,0.2-1.6,0.2-1.6l34.4-0.1l-9.9,22.3l4.4,2.3l9.6-21.4
		l16.6,22.4l3.7-2L373,470.7c0,0,5.2-0.3,7.8-0.3c2.5,0,5,0.2,7.5,0.3c2.2,0.1,4.3,0.1,6.5,0.3c1.8,0.1,3.6,0.8,5.4,0.5
		c0.9-0.2,1.7-0.7,2.4-1.2c0.8-0.6,1.4-1.4,2-2.2c0.7-0.8,2-2.5,2-2.5s4.4-6.4,6.7-9.6c1.5-2.1,2.8-4.4,4.6-6.3
		c1.3-1.3,2.9-2.4,4.4-3.4c1.5-1,3.2-1.7,4.9-2.4c1-0.4,2.1-0.7,3.2-0.8c1.3-0.1,2.5,0.8,3.7,0.5c0.6-0.1,1.1-0.5,1.5-1
		c0.5-0.5,1-1.1,1.1-1.8c0-0.5-0.2-1-0.5-1.4c-0.4-0.4-1-0.4-1.6-0.5c-1.5-0.2-3.1-0.1-4.6,0.2c-1.3,0.2-2.6,0.5-3.9,1
		c-2,0.7-3.9,1.5-5.7,2.6c-1.3,0.8-2.4,1.8-3.5,2.8c-2.5,2.4-4.6,5.3-6.8,8c-2.8,3.4-8,10.5-8,10.5l-3.3-3.9c0,0,7.9-10.5,11.5-14.6
		c1.3-1.5,2.5-3,3.9-4.3c1.2-1,2.7-1.9,4.1-2.6c1.3-0.6,2.6-1.2,4-1.5c1.4-0.3,2.9,0.1,4.3-0.2c0.6-0.1,1.2-0.3,1.6-0.7
		c0.4-0.4,0.6-0.9,0.6-1.4c0.1-0.5,0-1-0.2-1.4c-0.2-0.4-0.4-0.8-0.8-0.9C427,432.4,426.3,432.3,425.5,432.3L425.5,432.3z
		 M309.3,432.4L306,433v1.2l0.1,3l-1.2,1.2l4,0.6l1.5-0.6c0,0,0-0.6-0.1-0.9c-0.1-0.6-0.3-1-0.3-1.8S309.3,432.4,309.3,432.4
		L309.3,432.4z M295.3,432.9c-0.2,0-0.4,0-0.5,0.1c-0.5,0.2-1.7,0.3-1.7,0.3l-0.2,5.2l2.4,0.2l2.2-0.3l-1.1-5.2
		C296.4,433,295.8,432.9,295.3,432.9L295.3,432.9z M274.7,448.5l-3.6,0.9l-0.5,1.2l0.1,4.8l3.8,0.3L274.7,448.5z M292.2,449.2
		l-3.2,1.4l-0.2,6.1l3,0.4L292.2,449.2z M305.4,450l-2.6,2.3l-0.3,5.6h3L305.4,450z M325.6,462.1c0.2,0,0.3,0,0.5,0.1
		c0.2,0.1,0.5,0.1,0.7,0.2c0.2,0.2,0.4,0.4,0.6,0.6c0.2,0.2,0.4,0.5,0.4,0.8c0.1,2.5,0.1,4.8,0.2,7.5c0,0.4-0.5,0.7-0.8,0.9
		c-0.2,0.1-0.4,0.2-0.7,0.2c-0.2,0-0.4-0.1-0.7-0.1c-0.2-0.1-0.5-0.1-0.7-0.2c-0.2-0.1-0.5-0.3-0.6-0.5c-0.2-0.4-0.3-1.1-0.3-1.4
		c-0.1-2.1-0.4-4.3-0.3-6.5c0-0.3,0.3-0.6,0.5-0.9c0.1-0.2,0.3-0.3,0.5-0.4C325.1,462.2,325.4,462.1,325.6,462.1L325.6,462.1z
		 M305.8,477.3c-0.2,0-0.4,0-0.7,0.1c-0.3,0.1-0.4,0.5-0.7,0.7c-0.3,0.3-0.6,0.6-0.9,0.7c-0.6,0.2-1.3-0.2-2-0.1
		c-0.5,0.1-1,0.2-1.4,0.5c-0.2,0.2-0.1,0.5-0.3,0.6c-0.1,0.1-0.3,0-0.5,0c-0.4,0-0.9,0-1.2,0.1c-0.2,0.1-0.3,0.4-0.6,0.6
		c-0.3,0.1-0.7,0.1-1,0.1c-0.7,0-1.3-0.4-2-0.5c-0.3,0-0.7-0.1-0.9,0.1c-0.5,0.5-0.3,1.4-0.1,2.1c0.2,0.9,0.8,1.8,1.5,2.4
		c1.2,1.2,2.8,2,4.3,2.6c1.9,0.8,4,1.3,6,1.4c2.3,0.2,4.7-0.2,7-0.6c0.9-0.2,1.9-0.3,2.7-0.8c0.3-0.2,0.6-0.5,0.6-0.9
		c0-0.4-0.3-0.6-0.5-0.9c-0.7-1.1-1.6-2-2.4-2.9c-1.1-1.2-2.3-2.3-3.6-3.3c-1-0.8-1.9-1.9-3.1-2.2
		C305.9,477.3,305.9,477.3,305.8,477.3L305.8,477.3z M338.3,494.3c0,0-0.9,2.7-1.8,3.8c-1.2,1.6-2.8,2.8-4.4,4
		c-1.5,1.1-3.1,2.3-4.8,3c-0.9,0.4-1.9,0.6-2.9,0.7c-0.8,0.1-1.6-0.2-2.4-0.1c-0.6,0.1-1.2,0.3-1.7,0.5c-0.8,0.4-1.3,1.2-2,1.6
		c-0.5,0.2-2.5,0.4-2,0.6c2.4,0.9,3.9,1.6,5.8,2.2c2.4,0.7,4.7,1.3,7.2,1.8c2.7,0.5,5.5,0.7,8.3,0.9c2.1,0.1,4.3,0,6.4,0
		c0.8,0,1.8,0.3,2.4-0.1c0.3-0.2,0.5-1.1,0.6-1.5c0.1-0.4-0.1-0.8-0.2-1.1c-0.7-1.8-1.9-3.3-3.2-4.7c-0.7-0.9-1.8-1.4-2.5-2.3
		c-0.6-0.8-1.2-1.6-1.5-2.5c-0.3-1,0-2.1-0.2-3.1C339.2,496.7,338.3,494.3,338.3,494.3L338.3,494.3z M298.4,510.6l-8.1,0.6
		c0,0-4.7,0.9-4.9,1.1s-1.7,0.9-1.7,0.9l-1.6,0.7l12.1,9.7l4.5,1.1l5.7-5.4l0.7-5.6c0,0-1.4-2.9-1.6-3
		C303.4,510.7,298.4,510.6,298.4,510.6z M358.5,517.4c-0.9,0.1-0.7,7.7-0.6,13c0,2.1-0.4,3.1-0.3,4.3c0,0.3,0.1,0.7,0.2,1
		c0.2,0.4,0.3,0.8,0.6,1.1c0.5,0.5,2.2,0.9,2.2,0.9l10.4-17.7c0,0,0-1.7,0-2.5c0-0.7,0-1.4-0.2-2.1c-0.1-0.5-0.8-3.1-1.3-2.9
		C367.5,512.9,358.8,517,358.5,517.4z M378.4,513.5c0,0-0.6,1.3-0.7,1.8c-0.1,0.7-0.2,1.4-0.2,2.1c0,0.8,0,2.5,0,2.5l9.9,18.2
		c0,0,2.2-0.8,2.7-1.3c0.3-0.3,0.5-0.7,0.6-1.1c0.1-0.3,0-4.1-0.2-6.4c-0.1-1.8,0.2-5.3,0.1-7.1c-0.1-1.1,0.9-6.4-0.2-6.6
		c-0.7-0.1-6.4-2.4-9.4-3.3C380.2,512.1,379.1,512.2,378.4,513.5L378.4,513.5z"/>
	<path class="st10" d="M271.5,409.7c-0.2,0-0.4,0-0.6,0c-0.9,0.1-1.8,0.4-2.7,0.6c-0.5,0.1-1.1,0.3-1.6,0.5
		c-0.9,0.5-1.8,0.9-2.4,1.8c-0.4,0.5-0.3,1.2-0.5,1.8c-0.4,1.1-0.8,2.2-1.6,3.1c-0.7,0.8-1.8,1.3-2.6,2c-0.3,0.3-0.7,0.4-0.9,0.8
		c-0.3,0.7-0.2,1.5,0.1,2.2c0.1,0.3,0.5,0.4,0.6,0.7c0.1,0.3-0.1,0.7-0.2,1c-0.2,0.4-0.7,0.7-0.7,1.1c0,0.8,0.6,1.6,1.1,2.3
		c0.3,0.5,0.7,0.9,1.1,1.2c0.8,0.5,1.7,0.7,2.5,1.1c0.6,0.3,1.1,0.7,1.8,0.9c0.5,0.2,1,0.3,1.6,0.3c0.4-0.1,0.8-0.3,1.1-0.5
		c0.5-0.3,0.9-0.8,1.5-1.1c0.3-0.1,0.6-0.2,1-0.2c0.3,0,0.7,0.1,1,0.3c0.2,0.2,0,0.6,0.2,0.9c0.1,0.2,0.4,0.2,0.6,0.3
		c0.6,0.1,1.1-0.3,1.7-0.4c0.7-0.1,1.5,0.3,2.2,0.1c0.4-0.1,0.8-0.5,1.1-0.8c0.3-0.2,1-0.7,1-0.7s0.6-0.1,0.8,0.1
		c0.6,0.7-0.2,1.8-0.1,2.6c0.1,0.7,0.2,1.4,0.7,1.9c0.4,0.4,0.9,0.6,1.5,0.7c0.3,0.1,0.7,0,1.1-0.1c0.3-0.1,0.5-0.4,0.8-0.4
		c0.4-0.1,0.8,0.1,1.2,0.3c0.3,0.1,0.5,0.5,0.9,0.6c0.8,0.2,1.6-0.1,2.5-0.2c0.5,0,1.1,0.1,1.6-0.2c0.3-0.2,0.6-0.5,0.8-0.9
		c0.2-0.5-0.3-1.4,0.2-1.8c0.3-0.3,0.9-0.2,1.2,0c0.4,0.3,0.3,1,0.6,1.5c0.4,0.5,0.8,1,1.4,1.3c0.2,0.1,0.5,0.1,0.7,0.1
		c0.5-0.1,0.9-0.5,1.4-0.5c0.4-0.1,0.8,0,1.2,0.1c0.3,0.1,0.5,0.5,0.9,0.6c0.7,0.2,1.5-0.2,2.2-0.4c0.4-0.1,0.8-0.2,1.1-0.5
		c0.6-0.6,0.8-1.5,1.3-2.2c0.2-0.2,0.3-0.6,0.5-0.7c0.3-0.2,0.9-0.4,1.1-0.1c0.3,0.4-0.4,1-0.4,1.6c-0.1,0.6-0.2,1.2,0,1.8
		c0.1,0.4,0.4,0.8,0.8,1.1c0.5,0.3,1.2,0.7,1.8,0.5c0.4-0.1,0.4-0.7,0.8-0.9c0.4-0.2,0.9-0.2,1.4-0.2c0.4,0,0.7,0,1.1,0.2
		c0.3,0.2,0.4,0.7,0.7,0.8c0.6,0.2,1.2,0,1.8-0.3c0.9-0.5,1.5-1.5,1.9-2.5c0.2-0.5,0-1,0.2-1.5c0.2-0.4,0.5-0.9,1-1.1
		c0.2-0.1,0.4,0.1,0.6,0.2c0.6,0.3,0.9,0.9,1.5,1.3c0.5,0.4,1.1,0.9,1.8,0.9c0.4,0,0.8-0.4,1.1-0.7c0.2-0.2,0.3-0.6,0.5-0.6
		c0.3-0.1,0.4,0.4,0.7,0.4c0.3,0,0.4-0.3,0.7-0.4c0.6-0.1,1.3,0.3,1.9,0.4c0.6,0.1,1.2,0.1,1.8,0.2c0.3,0.1,0.6,0.2,0.9,0.3
		c0.3,0.1,0.6,0.3,1,0.4c0.4,0.1,0.8,0.4,1.1,0.3c0.5-0.1,0.8-0.6,1.1-1c0.3-0.4,0.3-1,0.5-1.5c0.2-0.5,0.7-1.6,0.7-1.6s0.8,0.6,1,1
		c0.2,0.5-0.1,1.1,0.2,1.5c0.4,0.6,1.2,0.6,1.8,0.9c0.5,0.2,1,0.5,1.6,0.7c0.4,0.2,0.7,0.4,1.1,0.4c0.6,0,1.1-0.4,1.7-0.5
		c0.5-0.1,1-0.3,1.5-0.3c0.5,0,0.9,0,1.4,0.1c0.7,0.1,1.4,0.4,2.1,0.4c0.6,0,1.2,0,1.7-0.3c0.5-0.3,0.8-0.9,1.1-1.3
		c0.4-0.4,0.7-0.9,1.1-1.2c0.5-0.3,1.4,0,1.8-0.4c0.4-0.4,0.5-1,0.5-1.6c0.1-0.6-0.3-1.2-0.1-1.8c0.1-0.5,0.7-0.7,0.9-1.2
		c0.3-0.9,0.2-2-0.1-2.9c-0.1-0.4-0.6-0.6-0.7-1c-0.1-0.4,0.2-0.8,0.1-1.1c-0.2-0.5-0.6-0.8-1-1.1c-0.4-0.3-0.9-0.2-1.2-0.5
		c-0.5-0.4-0.7-1.1-1.1-1.6c-0.3-0.3-0.7-0.6-1.1-0.8c-0.3-0.2-0.7-0.1-1.1-0.4c-0.3-0.2-0.5-0.6-0.8-0.9c-0.4-0.3-0.9-0.3-1.2-0.5
		c-0.3-0.3-0.4-0.9-0.8-1.1c-0.3-0.1-0.6-0.1-0.9,0c-0.2,0.1-0.4,0.3-0.6,0.4c-0.5,0.1-1.1,0-1.6,0.1c-0.6,0.1-1.2,0-1.7,0.3
		c-0.4,0.2-0.6,0.7-0.9,1c-0.4,0.3-0.9,0.5-1.1,1c-0.3,0.5-0.3,1-0.4,1.6c-0.1,0.5,0,1.1-0.2,1.7c-0.2,0.9-0.7,1.8-1.1,2.7
		c-0.4,0.9-1.2,2.8-1.2,2.8s-0.4-1.1-0.5-1.7c-0.4-1.3-0.7-2.6-1.1-3.9c-0.3-1-0.5-2-0.9-3c-0.3-0.7-0.4-1.7-1.1-2.1
		c-0.7-0.4-1.7,0.1-2.5-0.1c-0.6-0.1-1-0.6-1.6-0.8c-0.7-0.3-1.6-0.2-2-0.8c-0.3-0.4,0.1-1.2-0.3-1.6c-0.2-0.2-0.6-0.1-1-0.1
		c-0.5,0.1-1.1,0.1-1.4,0.5c-0.3,0.3-0.1,0.9-0.3,1.2c-0.3,0.6-0.8,1.1-1.2,1.5c-0.4,0.3-0.9,0.5-1.2,0.9c-0.2,0.2-0.1,0.5-0.3,0.7
		c-0.3,0.3-0.8,0.3-1.2,0.5c-0.3,0.2-0.8,0.3-1,0.6c-0.3,0.5-0.2,1.2-0.3,1.8c-0.1,0.8-0.1,1.6-0.4,2.3c-0.2,0.5-0.4,1.1-0.9,1.3
		c-0.5,0.3-1.1,0-1.7,0c-0.9,0-1.8-0.4-2.7-0.2c-0.5,0.1-0.9,0.4-1.2,0.8c-0.3,0.3-0.3,0.9-0.6,1.1c-0.4,0.3-1,0.1-1.3,0.4
		c-0.4,0.3-0.4,0.9-0.5,1.4c-0.1,0.2,0,0.6-0.2,0.7c-0.2,0.1-0.6,0-0.8-0.2c-0.6-0.4-0.9-1.2-1.4-1.8c-0.8-0.7-1.8-1.2-2.6-1.8
		c-0.2-0.2-0.4-0.5-0.7-0.5c-0.8-0.2-1.5,0.3-2.3,0.5c-0.6,0.2-1.2,0.5-1.8,0.7c-0.7,0.2-1.7,0-2.2,0.5c-0.2,0.3,0,0.8-0.1,1.1
		c0,0.5,0,1-0.2,1.4c-0.1,0.3-0.4,0.7-0.7,0.7c-0.5,0.1-0.9-0.4-1.2-0.7c-0.7-0.8-0.7-2.1-1.3-3c-0.6-0.9-1.3-1.7-2.1-2.4
		c-0.5-0.4-1.1-1-1.8-1c-0.4,0-0.7,0.4-1.1,0.6c-0.6,0.5-1,1.2-1.6,1.7c-0.4,0.4-0.9,0.8-1.4,1.1c-0.3,0.1-1,0.1-1,0.1
		s-0.8-0.5-0.7-1s0-1.1,0.2-1.6c0.1-0.5,0.6-0.9,0.7-1.5c0.1-0.6,0-1.2-0.3-1.8c-0.4-0.7-1.2-1.1-1.8-1.8c-0.7-0.8-1.1-1.9-1.8-2.7
		c-0.5-0.6-1.3-0.9-1.8-1.4c-0.4-0.4-0.7-0.9-1.1-1.3c-0.3-0.3-0.5-0.8-0.9-1C271.9,409.7,271.7,409.7,271.5,409.7L271.5,409.7z
		 M264.4,432.9c-0.1,0-0.1,0-0.2,0.1c-0.2,0.1,0,0.6-0.2,0.7c-0.3,0.3-0.8,0-1.2,0c-0.5,0-1.1,0-1.6,0.3c-0.7,0.3-1.2,1-1.8,1.6
		c-0.4,0.4-0.8,0.9-1,1.4c-0.2,0.4-0.5,1-0.2,1.4c0.3,0.4,1.1,0.1,1.6,0.3c0.5,0.1,1.1,0.2,1.5,0.5c0.5,0.3,0.6,1.2,1.1,1.3
		c0.5,0.1,0.9-0.6,1.3-0.9c0.4-0.3,0.8-0.6,1.3-0.8c0.8-0.3,1.6-0.5,2.4-0.6c1-0.1,2.1,0,3.1,0c1,0,2.1-0.2,3,0.1
		c0.4,0.1,0.6,0.3,1,0.5c0.6,0.3,1,0.9,1.7,1.1c0.8,0.2,1.8,0.1,2.6,0c0.4-0.1,0.8-0.4,1.2-0.4c0.6,0.1,0.9,0.8,1.4,1
		c0.7,0.2,1.4,0.1,2.1,0.1c0.7,0,1.5-0.1,2.2-0.3c1-0.2,2-0.5,3-0.6c0.6-0.1,1.3-0.1,1.9,0.1c0.2,0.1,0.6,0.4,0.6,0.4
		s-1.1,0.5-1.6,0.8c-0.9,0.5-1.8,1-2.6,1.6c-0.6,0.5-1.3,0.9-1.8,1.5c-0.3,0.3-0.7,0.6-0.8,1c-0.1,0.6,0.3,1.1,0.5,1.7
		c0.1,0.3,0.5,0.6,0.4,1c-0.1,0.5-0.9,0.8-1,1.3c0,0.5,0.3,1.1,0.7,1.4c0.3,0.3,0.9,0,1.2,0.3c0.3,0.2,0.4,0.8,0.7,1.1
		c0.2,0.3,0.5,0.6,0.9,0.6c0.5,0,0.7-0.6,1.1-0.9c0.4-0.3,0.8-0.5,1.3-0.6c0.4-0.1,1-0.2,1.3,0.1c0.4,0.3-0.2,1.3,0.3,1.5
		c0.4,0.2,0.8-0.4,1.2-0.5c0.6-0.2,1.1-0.5,1.8-0.6c0.5-0.1,1.1,0.2,1.5-0.1c0.5-0.4,0.6-1.3,0.7-1.9c0.2-1.1,0.3-2.2,0.1-3.3
		c-0.1-0.8-0.4-1.5-0.8-2.2c-0.3-0.7-1.2-1.1-1.2-1.8c0-0.2,0.2-0.4,0.2-0.4h6c0,0-0.6,0.6-0.9,0.9c-0.5,0.6-1.1,1.1-1.4,1.8
		c-0.4,0.9-0.5,2-0.5,3.1c0,0.7,0.1,1.5,0.4,2.2c0.2,0.3,0.5,0.3,0.7,0.6c0.1,0.2,0.1,0.3,0.1,0.5c0,0.4-0.4,0.8-0.4,1.2
		c0,0.6,0.3,1.4,0.8,1.8c0.4,0.3,1.1,0.2,1.6,0.1c0.4-0.1,0.7-0.4,1.1-0.5c0.4-0.2,0.8-0.5,1.3-0.5c0.5,0,0.9,0.2,1.3,0.4
		c0.3,0.1,0.6,0.2,0.9,0.2c1.1,0,2.2-0.3,3.1-0.9c0.8-0.5,1.5-1.3,1.8-2.2c0.3-0.9,0.2-1.9,0-2.9c-0.2-0.8-0.4-1.5-0.9-2.2
		c-0.5-0.7-1.4-1.2-1.8-1.9c-0.2-0.3-0.4-1.1-0.4-1.1s2.5-0.2,3.9-0.1c0.4,0,0.5,0.6,0.9,0.9c0.6,0.4,1.2,0.8,1.9,1
		c0.6,0.1,1.2,0.1,1.8,0c0.8-0.1,1.6-0.2,2.5-0.4c1.1-0.3,2.1-0.8,3.2-1.1c1-0.2,2.1-0.6,3.2-0.4c0.4,0.1,0.7,0.6,1.1,0.8
		c0.5,0.2,1.2,0.1,1.8,0.3c0.9,0.2,1.7,0.8,2.5,0.9c0.9,0.1,1.7-0.3,2.5-0.4c0.4,0,0.8-0.1,1.1-0.1c0.5,0,1.1,0,1.6-0.1
		c0.5-0.1,0.9-0.3,1.4-0.5c0.4-0.1,0.7-0.4,1.1-0.4c0.5,0,0.9,0.2,1.3,0.4c0.7,0.3,1.3,0.8,2,1c1.7,0.4,3.6,0.2,5.3,0.2
		c2.9,0,5.8,0,8.8-0.1c1.1,0,2.1-0.1,3.2-0.2c0.7,0,1.5,0.2,2.2-0.1c0.2-0.1,0.5-0.3,0.5-0.6c0-0.5-0.5-1-0.9-1.4
		c-0.4-0.4-0.9-0.7-1.5-0.8c-3.1-0.2-5.8-0.3-8.7-0.7c-0.9-0.1-1.8-0.4-2.6-0.6c-1.4-0.3-2.8-0.5-4.1-0.9c-0.5-0.1-1-0.4-1.6-0.5
		c-0.5-0.1-2.4-0.7-2.4-0.7l0.5,2c0,0-0.7,0.2-1.1,0.2c-0.8,0-1.6,0.1-2.4,0c-0.4-0.1-0.7-0.2-1.1-0.4c-0.3-0.1-0.4-0.3-0.9-0.5
		c-0.4-0.2-0.7-0.4-1.1-0.5c-0.8-0.3-1.6-0.6-2.5-0.7c-0.7-0.1-1.5,0.3-2.2,0.2c-0.8-0.1-1.4-0.7-2.1-1c-0.5-0.2-0.9-0.5-1.4-0.6
		c-0.7-0.1-1.4-0.1-2.1,0c-0.5,0.1-1.5,0.6-1.5,0.6l0.2,1.9h-4.3l0.1-1.2c0,0-1.1-0.1-1.5-0.3c-0.3-0.1-0.4-0.4-0.7-0.5
		c-0.6-0.2-1.2,0-1.8,0.1c-0.4,0.1-0.8,0.4-1.2,0.5c-0.5,0.1-0.6,0-1.2-0.1c-0.3,0-0.9-0.1-1.2,0c-0.2,0.1-0.6,0.7-0.6,0.7l0,0.6
		h-4.1l0-1.1c0-0.4-4-0.5-6-0.3c-0.4,0.1-0.8,0.3-1.2,0.4c-0.4,0.1-1.5,0.3-1.5,0.3s-0.5,0.7-0.9,0.8c-0.9,0.3-2.1,0.3-3-0.1
		c-0.2-0.1-0.6-0.3-0.5-0.6c0.1-0.2,0-0.7,0-0.7s-0.8-0.7-1.2-0.9c-0.6-0.3-1.4-0.3-2.1-0.4c-0.8-0.1-1.6-0.1-2.5,0
		c-0.6,0-1.2,0.1-1.8,0.3c-0.3,0.1-1,0.3-1,0.3l-0.1,1.2c0,0.4-0.3,0.3-1,0.3c-0.7,0-1.7-0.3-1.7-0.3l-0.2-0.9l0-0.8
		c0,0-1.3-0.6-1.8-0.8c-0.5-0.3-1.1-0.5-1.7-0.6c-0.8-0.1-1.6,0.3-2.4,0.3c-0.7,0-1.3-0.2-1.9-0.4c-0.7-0.2-1.8-0.6-1.8-0.6l0.1,2
		c-1.4,0.1-3,0-4.6-0.2l0-1c0,0-1.4,0.2-1.9-0.2c-0.3-0.2-0.1-0.7-0.4-1C264.8,433,264.6,432.9,264.4,432.9L264.4,432.9z
		 M273.3,439.4c-0.6,0-1.2,0.4-1.8,0.7c-0.8,0.4-1.6,0.9-2.3,1.5c-0.5,0.4-1.1,0.9-1.4,1.5c-0.2,0.4-0.4,0.9-0.4,1.4
		c-0.1,0.7-0.1,1.5,0,2.2c0.1,0.6,0.3,1.1,0.4,1.7c0.1,0.6,0,1.4,0.4,1.9c0.5,0.7,1.3,1.4,2.1,1.3c0.4-0.1,0.4-0.7,0.8-0.9
		c0.3-0.2,0.7-0.2,1.1-0.2c0.6,0,1.1,0.2,1.7,0.4c0.3,0.2,0.6,0.5,1,0.6c0.3,0.1,0.7,0.1,1.1,0c0.5-0.1,0.9-0.3,1.3-0.4
		c0.4-0.1,0.9-0.1,1.3-0.4c0.6-0.3,1.6-1.2,1.6-1.2s0.3-1.2,0.3-1.8c0-0.7-0.5-1.3-0.5-1.9c0-0.6,0.2-1.2,0.2-1.8
		c-0.1-0.7-0.3-1.4-0.6-1.9c-0.2-0.3-0.4-0.5-0.7-0.7c-0.4-0.2-0.8-0.3-1.2-0.4c-0.9-0.3-1.8-0.6-2.6-1c-0.5-0.2-0.8-0.7-1.3-0.7
		C273.3,439.4,273.3,439.4,273.3,439.4L273.3,439.4z M277.1,453.7c-0.2,0-0.4,0-0.5,0.1c-0.4,0.1-0.7,0.3-1.1,0.4
		c-0.3,0.1-1,0.2-1,0.2l0,0.9c0,0-1.5,0.2-2.2,0.1c-0.4-0.1-0.8-0.2-1.2-0.4c-0.4-0.3-0.7-0.5-1.1-0.5c-0.5,0-0.9,0.3-1.3,0.4
		c-0.6,0.2-1.2,0.4-1.8,0.5c-0.4,0.1-1-0.3-1.3,0c-0.2,0.2-0.3,0.6-0.2,0.9c0.2,0.5,0.9,0.7,1.3,1c0.4,0.3,0.8,0.6,1.3,0.7
		c0.3,0.1,0.7,0,1.1-0.1c0.7-0.2,1.3-0.8,2-1c0.8-0.2,1.6-0.1,2.4,0.1c0.3,0.1,0.6,0.4,1,0.4c0.4,0.1,1.4,0.3,2.1,0.4
		c0.4,0.1,0.9,0.1,1.3,0.2c0.5,0,1.1,0.4,1.5,0.1c0.3-0.2,0.3-0.6,0.3-0.9c0.1-0.5,0.2-1.1,0-1.6c-0.3-0.8-0.9-1.4-1.7-1.8
		C277.7,453.8,277.4,453.7,277.1,453.7z M309.1,454.6c-0.2,0-0.4,0-0.6,0.1c-0.5,0.1-1,0.4-1.6,0.5c-0.4,0.1-1.4,0.2-1.4,0.2
		s0,1,0,1.6c-0.1,0.2-0.1,0.4-0.3,0.5c-0.5,0.2-1,0.2-1.5,0.1c-0.4-0.1-0.7-0.3-1.1-0.5c-0.2-0.1-0.3-0.2-0.4-0.4
		c-0.4-0.1-0.8,0.1-1.2,0.2c-0.5,0.1-0.9,0.4-1.3,0.5c-0.5,0.1-1.1-0.1-1.5,0.2c-0.2,0.2-0.4,0.6-0.3,0.9c0.1,0.4,0.6,0.7,1.1,0.9
		c0.6,0.3,1.4,0.3,2,0.5c0.5,0.2,0.9,0.5,1.4,0.6c0.6,0.1,1.3,0,1.9,0c0.5,0,1,0.2,1.6,0.2c0.9,0,1.8-0.1,2.6-0.3
		c0.4-0.1,0.8-0.3,1.2-0.4c0.7-0.2,1.5-0.2,2.1-0.6c0.5-0.4,1-1,1-1.6c0-0.7-0.7-1.2-1.1-1.7c-0.5-0.5-1-1-1.6-1.2
		C309.7,454.7,309.4,454.6,309.1,454.6L309.1,454.6z M292,454.8l-0.1,1.8c0,0-0.9,0.1-1.4,0c-0.6-0.1-1.6-0.7-1.6-0.7l0-0.7
		c-0.4,0.1-2-0.1-3,0c-0.4,0-0.9,0-1.2,0.3c-0.4,0.2-0.7,0.6-0.8,1c-0.1,0.4-0.2,0.9,0.1,1.1c0.4,0.4,1.1,0.2,1.7,0.3
		c0.8,0.1,1.5,0.1,2.3,0c0.6,0,1.2-0.4,1.8-0.3c0.4,0.1,0.6,0.4,1,0.5c0.5,0.2,1,0.2,1.5,0.2c0.6,0,1.5,0.2,1.9-0.3
		c0.2-0.2,0.1-0.6,0.1-0.9c-0.1-0.4-0.2-0.8-0.4-1.1c-0.3-0.5-0.6-1-1.1-1.2C292.4,454.8,292,454.8,292,454.8z M428.9,456.1
		c-0.5,0-0.9,0.6-1.1,1c-0.2,0.3-0.3,0.7-0.4,1.1c-0.2,0.7,0,1.5-0.2,2.2c-0.2,0.5-0.4,1.1-0.9,1.5c-0.3,0.3-0.9,0.3-1.2,0.6
		c-0.5,0.5-0.6,1.3-0.9,1.9c-0.5,1-1,1.9-1.6,2.8c-0.3,0.5-0.6,1.2-1.1,1.6c-0.5,0.5-1.5,0.6-1.9,1.2c-0.4,0.6-0.4,1.3-0.3,2
		c0.1,1.2,0.4,2.6,1.3,3.3c0.6,0.4,1.5,0.3,2.2,0.2c0.5-0.1,1-0.3,1.5-0.4c0.6-0.1,1.3-0.4,1.9-0.2c0.4,0.1,0.6,0.4,1,0.6
		c0.5,0.2,0.9,0.4,1.4,0.4c1.1-0.1,2-1,3-1.5c0.6-0.3,1.5-0.2,1.9-0.7c0.5-0.6,0.2-1.5,0.2-2.3c0-0.7-0.1-1.5-0.2-2.2
		c-0.2-1-0.6-1.9-0.9-2.8c-0.5-1.5-1.2-2.9-1.4-4.5c-0.1-0.6,0-1.2-0.1-1.9c-0.1-0.4-0.2-0.9-0.4-1.3c-0.2-0.4-0.6-0.7-0.9-1.1
		C429.6,457.1,429.6,456.2,428.9,456.1C429,456.1,429,456.1,428.9,456.1L428.9,456.1z M453.1,481.9c-0.7,0-1.4,0.1-2.1,0.1
		c-1.5,0-3-0.1-4.4,0.2c-0.8,0.2-1.7,0.4-2.1,1c-0.4,0.6,0.2,1.5-0.2,2c-0.4,0.6-1.3,0.6-2,0.9c-0.5,0.2-1.1,0.4-1.5,0.7
		c-0.4,0.3-0.7,0.8-0.8,1.2c-0.1,0.5,0.1,0.9,0.3,1.4c0.4,0.7,0.9,1.4,1.6,1.9c0.6,0.4,1.3,0.6,2,0.7c0.7,0.2,1.5,0.2,2.3,0.2
		c0.6,0,1.2-0.2,1.8-0.1c0.7,0.1,1.4,0.5,2.1,0.7c0.9,0.4,1.8,1,2.7,1.4c1,0.4,1.9,0.9,3,1.1c0.7,0.1,1.5,0,2.2,0
		c0.8,0,1.6,0.2,2.3-0.2c0.6-0.3,1.3-0.8,1.3-1.5c0-1.2-1.7-1.8-2.6-2.7c-0.7-0.7-1.5-1.2-2.2-1.9c-0.4-0.4-0.9-0.7-1.3-1.2
		c-0.4-0.5-0.8-1.1-1-1.8c-0.1-0.4,0-0.8,0.1-1.1c0.1-0.4,0.4-0.6,0.5-1c0.1-0.4,0-0.8,0-1.2c0-0.2,0-0.5-0.1-0.6
		C454.4,482,453.8,481.9,453.1,481.9L453.1,481.9z"/>
	<g>
		<path class="st3" d="M350.6,489.6l11.6,5c0,0,3.3,1.2,4.8,2.2c0.3,0.2,0.4,0.6,0.4,0.9c0,0.5-0.2,0.9-0.4,1.3
			c-2.4,4.8-5.3,9.6-9.2,13.3c-1.1,1.1-2.5,2.4-4,2.5c-0.9,0.1-1.7-0.4-2.4-0.9c-0.9-0.6-1.6-1.4-2.2-2.2c-0.4-0.6-0.7-1.4-1-2.1
			c-0.6-1.6-1-3.4-1.2-5.1c-0.3-2.3-0.5-4.6-0.4-6.9c0-1.3,0.1-2.6,0.5-3.8c0.4-1.2,0.8-2.5,1.6-3.5c0.2-0.3,0.5-0.4,0.8-0.6
			C349.8,489.6,350.6,489.6,350.6,489.6L350.6,489.6z"/>
		<path class="st7" d="M362.5,494.7l3.7,1.6c0,0,0.8,0.4,1.1,0.7c0.2,0.2,0.3,0.4,0.3,0.6c0.1,0.4,0,0.8-0.2,1.2
			c-0.3,0.9-1,1.6-1.5,2.4c-0.4,0.7-0.9,1.4-1.3,2.1c-0.6,0.9-1.1,1.8-1.7,2.7c-0.9,1.4-1.9,2.8-2.9,4.1c-0.7,0.9-2.3,2.4-2.3,2.4
			l-1.4-0.1l-0.2-0.6l1-1.7l7.3-9.6l0.4-1c0,0,0-0.7-0.2-1.1c-0.2-0.4-0.4-0.8-0.9-1.1c-0.5-0.2-1.3-0.3-1.7-0.7
			c-0.2-0.2-0.3-0.6-0.3-0.9c0-0.2,0-0.5,0.2-0.7C362.1,494.8,362.5,494.7,362.5,494.7L362.5,494.7z M347.2,505.8
			c-0.4,0.6,0.1,1.3,0.2,2c0.2,0.8,0.5,1.6,0.8,2.4c0.1,0.3,0.3,0.7,0.4,1c0.2,0.4,0.4,0.7,0.7,1c0.4,0.5,0.6,1.2,1.2,1.3
			c0.8,0.1,1.4-0.7,2.1-1.1c0.5-0.3,1-0.7,1.4-1.1c0.3-0.3,0.6-0.6,0.7-0.9c0.1-0.3,0.1-0.6,0.1-0.9c-0.1-0.3-0.1-0.7-0.4-0.9
			c-0.2-0.1-0.6-0.1-0.8,0c-0.6,0.3-0.6,1.2-1.1,1.6c-0.3,0.3-0.7,0.5-1.1,0.4c-0.5,0-1-0.4-1.3-0.8c-0.4-0.4-0.5-1.1-0.7-1.7
			c-0.1-0.4-0.2-0.8-0.3-1.2c-0.1-0.4-0.2-1-0.5-1.3c-0.2-0.1-0.4-0.2-0.6-0.2C347.7,505.5,347.3,505.6,347.2,505.8L347.2,505.8z"/>
	</g>
	<g>
		<path class="st3" d="M396.1,483.3c0,0-0.6,2.7-1.1,4c-0.6,1.4-1.6,2.7-2.5,3.9c-0.5,0.6-1,1.2-1.6,1.6c-0.3,0.2-0.7,0.4-1.1,0.4
			c-0.6,0-1.7-0.8-1.7-0.8l-2.8,2.4c0,0,0.2,1.5,0,2.1c-0.3,0.9-1,1.5-1.6,2.2c-0.8,0.8-1.6,1.6-2.5,2.3c-0.7,0.5-2.2,1.5-2.2,1.5
			s2.4,0.3,3.6,0.2c1,0,2.1-0.2,3.1-0.5c1.1-0.3,2.2-0.8,3.2-1.4c1.2-0.7,2.3-1.4,3.3-2.4c1-0.9,1.7-2.1,2.4-3.2
			c0.8-1.3,1.4-2.7,1.9-4.2c0.5-1.5,0.9-3.1,0.8-4.7C397,485.6,396.1,483.3,396.1,483.3L396.1,483.3z"/>
		<path class="st7" d="M387.2,493.1l-2,1.7c0,0-0.1,0.9-0.2,1.3c-0.1,0.6-0.2,1.2-0.5,1.7c-0.4,0.7-1.1,1.1-1.7,1.6
			c-0.8,0.6-1.6,1.1-2.4,1.5c-0.7,0.4-1.4,0.8-2.2,0.9c-0.6,0.1-1.9,0.1-1.9,0.1s0.7,0.4,1.1,0.6c0.5,0.2,1,0.3,1.4,0.3
			c0.6,0.1,1.1,0.1,1.7,0c0.9-0.2,1.9-0.6,2.6-1.2c0.7-0.5,1.2-1.3,1.6-2c0.4-0.7,0.7-1.4,0.9-2.2c0.1-0.6-0.1-1.9-0.1-1.9l2.4-2.3
			L387.2,493.1z M396.1,483.3c0,0-0.4,1.2-0.6,1.7c-0.3,0.9-0.5,1.8-0.9,2.6c-0.4,0.8-0.9,1.5-1.4,2.2c-0.6,0.8-1.2,1.7-2,2.3
			c-0.3,0.3-0.6,0.5-0.9,0.7c-0.3,0.1-1,0.3-1,0.3l0.3,0.5c0,0,0.6,0.1,0.9,0c0.5-0.1,1-0.4,1.4-0.8c0.6-0.5,1.1-1.2,1.6-1.8
			c0.5-0.6,0.9-1.3,1.3-2c0.4-0.8,0.7-1.6,0.9-2.5c0.2-0.7,0.4-1.5,0.4-2.3C396.2,483.9,396.1,483.3,396.1,483.3L396.1,483.3z"/>
	</g>
	<path class="st3" d="M343.5,393.9c0.2,0.3,0.7,0.5,0.7,0.9c0.1,0.4-0.3,0.7-0.2,1.1c0.1,0.5,0.4,0.9,0.6,1.4
		c0.4,0.6,0.9,1.1,1.4,1.6c0.3,0.3,0.5,0.7,0.9,1c0.5,0.5,1.5,0.6,1.6,1.2c0,0.2-0.3,0.3-0.4,0.5c-0.1,0.2-0.1,0.5-0.1,0.8
		c0,0.5,0.2,1,0.1,1.4c0,0.2-0.1,0.4-0.2,0.5c-0.2,0.1-0.5,0.1-0.7-0.1c-0.3-0.3-0.2-0.8-0.3-1.2c-0.1-0.4-0.2-0.8-0.5-1.1
		c-0.2-0.3-0.5-0.5-0.8-0.6c-0.3-0.1-0.5-0.2-0.8-0.1c-0.3,0.1-0.4,0.7-0.7,0.6c-0.5-0.2,0-1.1-0.2-1.6c-0.2-0.6-0.7-1-1.1-1.6
		c-0.3-0.4-0.5-0.8-0.7-1.2c-0.5-0.8-1.4-1.4-1.7-2.3 M374.8,301.7c-0.4-0.1-0.7,0.2-1.1,0.3c-0.2,0.1-0.5,0.3-0.7,0.2
		c-0.2,0-0.3-0.3-0.6-0.3c-0.3-0.1-0.7-0.2-0.9-0.1c-0.3,0.2-0.7,0-1.1,0c-0.1,0-0.2,0-0.2,0c-0.1,0.1,0,0.4-0.1,0.5
		c-0.2,0.2-0.5,0.2-0.7,0.2c-1,0.1-2-0.1-3-0.1c-0.3,0-0.6-0.1-0.9,0c-0.3,0.1-0.3,0.5-0.5,0.7c-0.4,0.3-0.9,0.5-1.5,0.6
		c-0.4,0.1-0.9,0.1-1.3-0.1c-0.3-0.1-0.5-0.4-0.8-0.5c-2.3-0.7-4.9-0.1-7.3-0.2c-1.6,0-3.2-0.1-4.8-0.1c-0.5,0-1,0.2-1.5,0.1
		c-0.3-0.1-0.4-0.3-0.7-0.4c-0.4-0.2-0.9-0.3-1.3-0.3c-0.5,0-1.1,0-1.6,0.1c-0.3,0-0.5,0.2-0.7,0.2c-0.5,0-1-0.3-1.6-0.4
		c-0.4,0-0.9-0.3-1.1,0c-0.1,0.2,0,0.5,0.2,0.7c0.3,0.3,0.7,0.4,1.1,0.6c0.4,0.1,0.9,0.1,1.4,0.2c0.2,0,0.4,0,0.6,0.2
		c0.2,0.2,0.2,0.5,0.2,0.7c0,0.1-0.1,0.2-0.2,0.3c-0.3,0.2-1-0.3-1.2,0.1c-0.1,0.1,0.1,0.4,0.2,0.5c0.2,0.2,0.5,0.2,0.8,0.2
		c0.4,0,0.8-0.1,1.2-0.2c0.4-0.2,0.6-0.5,1-0.7c0.4-0.1,0.8-0.2,1.1-0.1c0.2,0.1,0.4,0.3,0.6,0.5c0.2,0.3,0.3,0.7,0.6,0.9
		c0.3,0.2,0.7,0.2,1.1,0.2c0.5,0,1-0.3,1.5-0.3c0.3,0,0.6,0.1,0.9,0.2c0.6,0.1,1.2,0.2,1.9,0.2c0.6,0,1.2-0.4,1.8-0.4
		c0.4,0,0.7,0.3,1.1,0.4c0.5,0.1,1,0,1.5-0.1c0.3-0.1,0.6-0.4,1-0.4c0.3,0,0.6,0.4,1,0.4c0.6,0,1.1-0.5,1.6-0.6
		c0.5-0.1,1-0.1,1.5-0.1c0.9,0,1.8-0.1,2.7,0.2c0.3,0.1,0.5,0.4,0.8,0.5c0.6,0.2,1.3,0.4,1.9,0.4c0.4,0,0.8-0.1,1.2-0.2
		c0.7-0.1,1.4,0,2.1-0.1c0.4,0,0.8-0.2,1.1-0.2c0.3,0,0.6,0.1,0.9,0.2c1,0.1,1.9-0.1,2.9-0.2c1.1-0.1,2.2-0.4,3.4-0.4
		c1.1,0,2.2,0,3.2,0.1c0.7,0.1,1.3,0.2,2,0.3c1,0.2,2,0.4,3.1,0.6c1.4,0.3,2.8,0.8,4.3,0.8c0.8,0,1.6-0.2,2.4-0.3
		c0.7-0.1,1.3-0.1,2-0.1c1-0.1,2,0,2.9-0.2c0.4-0.1,0.7-0.4,1.1-0.5c1.2-0.3,2.5-0.1,3.8,0c0.6,0,1.2,0.1,1.8,0.2
		c0.7,0.2,1.2,0.7,1.9,0.8c0.5,0.1,1,0.1,1.5,0c0.4-0.1,0.6-0.6,1-0.6c0.5-0.1,1,0.4,1.5,0.5c0.7,0.1,1.4,0.4,2,0.2
		c0.4-0.1,0.6-0.6,0.9-0.7c0.4-0.1,0.9-0.2,1.3-0.1c0.3,0.1,0.3,0.5,0.5,0.7c0.6,0.3,1.4,0.4,2,0.1c0.4-0.2,0.6-0.7,0.7-1.2
		c0-0.4-0.2-0.9-0.6-1.1c-1.5-0.9-3.4,0.1-5.1,0.2c-1.1,0.1-2.3,0.4-3.4,0.2c-0.4-0.1-0.6-0.4-1-0.4c-1.3-0.3-2.7,0-4,0
		c-2.2,0-4.3,0.2-6.5,0.1c-0.7,0-1.3,0-2-0.2c-0.5-0.1-0.9-0.4-1.3-0.7c-0.4-0.3-0.7-0.9-1.2-1.1c-1.3-0.5-2.7,0.1-4.1,0
		c-0.6,0-1.3,0-1.9-0.2c-0.4-0.1-0.6-0.5-1-0.5c-0.7-0.1-1.4,0.3-2.1,0.2c-0.6-0.1-1-0.4-1.6-0.6c-0.6-0.1-1.2-0.1-1.7-0.1
		c-0.5,0-1.1-0.2-1.6,0.1c-0.3,0.1-0.4,0.4-0.7,0.7c-0.2,0.1-0.3,0.3-0.6,0.4c-0.4,0.1-0.8,0.2-1.2,0c-0.3-0.1-0.4-0.5-0.6-0.7
		c-0.3-0.3-0.7-0.5-1.1-0.6c-0.3-0.1-0.7,0.1-1.1,0C375.2,302.1,375,301.7,374.8,301.7L374.8,301.7z M404.1,302.2
		c-0.2,0-0.3,0-0.4,0.2c-0.1,0.1,0.2,0.3,0.3,0.4c0.2,0.1,0.5,0.1,0.7,0c0.1-0.1,0.3-0.2,0.2-0.3C405,302.4,404.4,302.2,404.1,302.2
		z M397.8,302.8c-0.2,0-0.4,0-0.6,0.1c-0.1,0-0.3,0.1-0.2,0.2c0.1,0.3,0.6,0.3,1,0.3c0.7,0.1,1.5,0.2,2.2,0c0.1,0,0.3-0.1,0.3-0.2
		c0-0.1-0.2-0.2-0.3-0.3c-0.3-0.2-0.7-0.1-1.1-0.1C398.5,302.9,398.2,302.8,397.8,302.8L397.8,302.8z M332.8,303.9
		c-0.7,0-1.5,0.2-2.2,0.4c-0.1,0.1-0.4,0.2-0.4,0.3c0,0.2,0.3,0.3,0.4,0.4c0.1,0.1,0.2,0.2,0.3,0.2c0.9,0.3,2,0.5,2.9,0
		c0.1-0.1,0.1-0.2,0.2-0.3c0.1-0.1,0.5-0.1,0.5-0.3c0.1-0.2-0.1-0.4-0.2-0.4C333.9,304,333.4,303.9,332.8,303.9L332.8,303.9z
		 M422.9,306.1c-0.1,0-0.2,0-0.3,0c-0.2,0.1-0.3,0.3-0.5,0.4c-0.2,0.1-0.4,0.1-0.5,0.2c-0.1,0.1-0.3,0.3-0.3,0.5
		c0.1,0.4,0.7,0.6,1.1,0.7c0.4,0.1,0.9,0.1,1.3,0c0.4-0.1,0.8-0.4,1.2-0.5c0.4-0.1,0.9,0.4,1.2,0.1c0.2-0.2,0-0.7-0.2-0.9
		c-0.2-0.3-0.5-0.4-0.8-0.5c-0.3-0.1-0.6,0.1-0.9,0.1C423.8,306.3,423.4,306.1,422.9,306.1L422.9,306.1z M363.9,314.1
		c-0.2,0-0.4,0-0.6,0.1c-0.3,0.1-0.6,0.4-1,0.5c-0.5,0.1-1,0.1-1.5,0.1c-0.9,0-1.8-0.4-2.6,0c-0.3,0.1-0.4,0.6-0.7,0.7
		c-0.3,0.1-0.7,0.1-1.1,0.1c-0.3,0-0.6-0.2-0.9-0.4c-0.3-0.1-0.6-0.3-0.9-0.3c-0.4-0.1-0.9-0.2-1.3-0.1c-0.4,0.1-0.6,0.4-1,0.5
		c-0.6,0.2-1.3,0.1-1.9,0.1c-2.1,0-4.1,0.2-6.2-0.1c-0.6-0.1-1.2-0.4-1.8-0.5c-0.4-0.1-0.8,0-1.2-0.1c-0.2-0.1-0.5-0.1-0.7-0.3
		c-2.2-0.1-4.4-0.1-6.6-0.1c-0.7,0-1.4,0-2.1,0c-0.3,0-0.9-0.2-1,0.1c-0.1,0.4,0.9,0.4,1.1,0.8c0.1,0.2,0,0.5-0.1,0.5
		c-1.5,0.1-2.5,0-3.7,0c-0.8,0-1.7,0-2.5,0.1c-0.7,0.1-1.5-0.1-2.1,0.3c-0.2,0.1-0.3,0.4-0.3,0.6c0.1,0.5,0.6,0.8,1.1,1
		c1,0.4,2.1,0,3.2,0c1.3,0,2.6,0.1,3.9-0.1c0.7-0.1,1.3-0.5,1.9-0.6c1.2-0.2,2.4,0,3.6,0c1.4,0,2.8,0.1,4.3,0c0.4,0,0.8-0.1,1.3-0.2
		c0.4,0,0.9-0.1,1.3-0.1c0.8,0,1.5,0.1,2.3,0.2c0.3,0,0.5,0,0.7,0.1c0.6,0.2,1.1,0.8,1.7,1c0.6,0.2,1.2,0.4,1.8,0.3
		c0.3-0.1,0.4-0.4,0.6-0.5c0.4-0.2,0.8-0.3,1.2-0.4c0.4,0,0.9-0.1,1.2,0c0.2,0.1,0.4,0.3,0.5,0.6c0.1,0.2,0,0.6,0.2,0.8
		c0.4,0.3,0.9-0.2,1.3-0.2c0.4,0,0.8,0.2,1.2,0.3c0.7,0.1,1.5,0.1,2.2,0.1c1.5,0,3.1,0.2,4.6,0c0.7-0.1,1.4-0.6,2.1-0.7
		c1-0.2,2.1-0.1,3.2-0.1c0.8,0,1.6,0.1,2.4,0.1c0.6,0,1.3,0.2,1.9,0c0.4-0.1,0.7-0.6,1.1-0.7c0.9-0.3,1.9,0.1,2.9,0
		c0.8,0,1.8,0.3,2.5-0.1c0.2-0.1,0.3-0.3,0.3-0.5c0-0.3-0.4-0.5-0.7-0.7c-0.2-0.2-0.5-0.3-0.8-0.4c-1.4-0.3-2.9,0.3-4.3,0
		c-0.2,0-0.4-0.1-0.6-0.3c-0.1-0.1-0.1-0.4-0.2-0.4c-1.8-0.1-3.1,0.3-5,0.3c-0.4,0-0.6-0.4-1-0.5c-0.6-0.2-1.2,0-1.7-0.2
		c-0.5-0.2-0.8-0.6-1.3-0.7C364.3,314.1,364.1,314.1,363.9,314.1L363.9,314.1z M383.2,316.2c-0.5,0-1,0.1-1.7,0.2
		c-0.4,0.1,0.5,0.7,0.9,0.9c0.5,0.4,1.2,0.5,1.8,0.7c0.6,0.1,1.3,0.1,1.9,0.1c0.4,0,0.9,0.2,1.3-0.1c0.2-0.1,0.4-0.4,0.3-0.5
		c-0.1-0.2-0.5,0-0.8-0.1c-0.5-0.1-1.2,0.1-1.5-0.2c-0.2-0.2,0.1-0.5-0.1-0.7c-0.2-0.2-0.5-0.1-0.8-0.2
		C384.1,316.3,383.7,316.2,383.2,316.2L383.2,316.2z M391.6,317c-0.3,0-0.6,0-1,0c-0.2,0.1-0.2,0.5-0.1,0.7c0.2,0.2,0.6,0.1,0.9,0.1
		c1,0.1,2,0,2.9-0.1c0.5,0,1.3,0.2,1.4-0.2c0-0.2-0.4-0.2-0.7-0.3c-0.3-0.1-0.6-0.1-1-0.1c-0.5,0-1,0-1.5,0
		C392.3,317,392,317,391.6,317z M403.3,329.4c-0.5,0-1,0.1-1.5,0.3c-0.7,0.2-1.2,0.6-1.9,0.7c-0.9,0.3-1.9,0.4-2.9,0.6
		c-1.2,0.2-2.5,0.1-3.8,0.2c-0.8,0.1-1.5,0.3-2.3,0.4c-0.8,0.1-1.7,0-2.5,0.1c-0.6,0.1-1.2,0.1-1.7,0.3c-0.3,0.1-1,0.2-0.9,0.6
		c0,0.3,0.6,0.4,0.9,0.5c0.7,0.1,1.3-0.1,2-0.1c0.9-0.1,1.9-0.1,2.8-0.1c1.4,0,2.7,0.2,4.1,0.2c0.7,0,1.3-0.1,2-0.2
		c0.6-0.1,1.2-0.2,1.8-0.3c0.8-0.1,1.5,0.1,2.3,0c0.7-0.1,1.2-0.6,1.9-0.7c0.7-0.1,1.5-0.2,2.2,0c0.5,0.1,0.9,0.5,1.4,0.7
		c0.6,0.2,1.2,0.2,1.9,0.1c0.4-0.1,0.8-0.4,1.2-0.5c0.3,0,0.7,0.1,1,0.2c0.6,0.2,1.1,0.6,1.7,0.7c1,0.2,2.1-0.1,3.2-0.1
		c1.3,0,2.7,0,4-0.1c1.1,0,2.3,0,3.4-0.2c0.4-0.1,0.7-0.2,1.1-0.3c0.4-0.1,0.8-0.2,1.3-0.2c0.4,0,0.8,0,1.2,0.1
		c0.6,0.1,1.2,0.4,1.8,0.4c0.7,0,1.5-0.1,2.2-0.3c0.6-0.1,1.2-0.3,1.8-0.4c0.4,0,0.7,0,1.1-0.1c1.3-0.1,2.6-0.2,3.9-0.2
		c0.7,0,1.5,0.3,2.2,0.1c0.3-0.1,0.6-0.1,0.7-0.4c0-0.2-0.2-0.3-0.3-0.4c-0.8-0.4-1.7-0.2-2.6-0.4c-0.5-0.1-0.9-0.4-1.4-0.5
		c-1-0.2-1.9-0.2-2.9-0.2c-0.7,0-1.4-0.2-2.1-0.1c-0.7,0.1-1.2,0.4-1.9,0.6c-0.4,0.1-0.9,0-1.3,0.1c-0.5,0.1-1,0.4-1.5,0.5
		c-0.5,0.1-1,0-1.4,0c-1.7,0-3.5-0.1-5.2-0.1c-2.6,0-5.2,0.2-7.8,0.1c-0.5,0-1-0.2-1.6-0.2c-0.3,0-0.5,0-0.8,0.1
		c-0.4,0.1-0.7,0.4-1.1,0.4c-0.4,0.1-0.9,0-1.3-0.1c-0.3-0.1-0.5-0.3-0.8-0.4c-0.3-0.2-0.6-0.3-0.9-0.5c-0.6-0.2-1.2-0.3-1.7-0.5
		c-0.1-0.1-0.2-0.2-0.4-0.2C403.7,329.4,403.5,329.4,403.3,329.4L403.3,329.4z M284.3,341.1c-0.2,0-4.1,0.1-4.3,0.1
		c-0.3,0-0.6,0.4-0.6,0.4l0.1,0.2l-1.6,0l-0.6,0.2l-0.6,0.6l1.3,0.4l2.6,0.1c0,0,1-0.4,2.2-0.3c1.2,0.1,3.5,0.1,3.5,0.1l0.8-0.3
		l0.5-0.4l0-0.4c-0.2,0-2.6,0-2.6,0l0-0.5C285,341.3,284.5,341.1,284.3,341.1L284.3,341.1z M465.3,341.7c-0.5,0-1.1,0-1.6,0.1
		c-0.8,0.1-1.5,0.4-2.3,0.5c-3.8,0.4-7.6,0.2-11.4,0.2c-2.5,0-5.1,0.1-7.6-0.1c-1.3-0.1-2.6-0.6-3.9-0.6c-0.8,0-1.7,0-2.4,0.4
		c-0.3,0.2-0.4,0.7-0.7,0.8c-0.7,0.3-1.6,0-2.4,0.1c-1.4,0-2.8-0.2-4.1,0.2c-0.5,0.1-1.3,0.3-1.2,0.7c0.2,1.1,2.1,0.3,3.2,0.4
		c1.7,0.1,3.4-0.1,5,0.1c0.4,0.1,0.8,0.1,1.2,0.3c0.4,0.2,0.7,0.5,1.1,0.7c0.6,0.3,1.2,0.8,1.9,0.7c0.8-0.1,1.3-0.9,2-1.1
		c0.7-0.2,1.4-0.1,2.2-0.2c6.8-0.4,13.6-0.5,20.3-0.5c1.5,0,3.2,0.9,4.6,0.1c0.3-0.2,0.6-0.5,0.5-0.8c-0.2-0.4-0.9-0.1-1.3-0.1
		c-0.8-0.1-1.8,0.3-2.4-0.3c-0.1-0.2-0.1-0.5,0-0.7c0.2-0.3,1-0.3,0.9-0.7c-0.1-0.4-0.7-0.3-1.1-0.3
		C465.6,341.7,465.5,341.7,465.3,341.7L465.3,341.7z M290.5,341.9L290,342l-0.2,0.4l-0.7,0.3l1.2,0.2l3.8-0.1c0,0,1.6,0,2.1,0
		c0.5,0.1,0.7,0.3,0.7,0.3s-0.6,0.4-0.3,0.4c0.3,0,0.5-0.1,1.4,0c0.9,0.1,3.6,0.2,4,0.2s1.5-0.3,1.5-0.3s-0.5-0.5-0.7-0.6
		c-0.3,0-0.5-0.1-0.7-0.2c0,0-0.5-0.4-0.8-0.4h-1.7l-0.8-0.2l-0.5-0.4h-2.3l-1,0.3l-1.4-0.1l-0.8-0.1
		C292.5,342,290.5,341.9,290.5,341.9z M403.1,353.1c-0.5,0-1.2,0.5-1.7,0.6c-0.5,0.1-2.5,0-2.5,0l-0.2,0.4c0,0-0.1,0.6-0.1,0.9
		s0.7,0.4,1.5,0.5c0.7,0.1,0.8,0.5,0.8,0.5l1.9-0.3c0,0,0.2-0.1,0.8,0c0.6,0.1,1.1,0.3,1.5,0.2c0.4-0.1,2.7-0.2,3.2-0.3
		c0.6-0.1,1.6-0.1,2.9-0.1c1.2,0,0.6,0.4,0.9,0.6c0.3,0.2,2.1,0,3.7,0.1c1.5,0.1,2.2,0.2,2.5,0.3c0.4,0.1,1.6-0.1,2-0.2
		c0.4-0.1,0.9-0.1,1.4-0.1c0.5,0,4.5,0,4.8-0.1c0.3-0.1,1.3,0.1,1.6,0.1c0.3,0.1,0.7,0.4,1.4,0.6c0.7,0.2,1.1-0.5,1.1-0.5
		s1-0.1,1.9-0.1c0.9,0,1.3,0.4,1.6,0.4c0.3,0,1.7-0.6,1.7-0.6s1.2-0.2,1.6-0.2c0.4-0.1,1,0,1.3,0.1c0.3,0.1,1.1,0.4,2.1,0.4
		c1-0.1,1.1-0.6,1.1-0.6s1.5,0.1,1.9,0.1c0.3,0.1,0.7,0.4,1.4,0.5c0.6,0.1,1.3-0.4,1.6-0.7s0.5-0.1,1-0.1c0.5,0,1.3-0.3,1.5-0.6
		c0.2-0.2,0-0.5-0.2-0.7s-0.8-0.1-1.2-0.1c-0.4-0.1-0.7-0.3-1.2-0.4c-0.5-0.1-1.9-0.1-3.2-0.1c-1.3-0.1-3.1,0-3.5,0
		c-0.4,0-1.9,0.3-2.5,0.4c-0.6,0.1-1.9,0.4-2.8,0.4c-0.9,0-1.3-0.4-1.7-0.4c-0.4-0.1-2,0.1-3,0.2c-1.1,0.1-1.2,0.2-2.7,0.1
		c-1.4-0.1-0.9-0.1-2.2-0.4c-1.3-0.3-1.8-0.1-2.4-0.2c-0.6-0.1-3.8-0.1-4.2-0.1c-0.4,0-1.9,0.5-1.9,0.5s-9.4-0.4-9.6-0.4
		s-2-0.5-2-0.5S403.6,353.1,403.1,353.1L403.1,353.1z M349.7,324.4c-0.2,0-0.3,0-0.5,0.1c-0.5,0.2-1,0.6-1.1,1.1
		c-2.2,10-3.6,20.1-4.7,30.6c0.1,0.9,0.3,1.7,0.9,2.2c0.6,0.4,1.5,0.6,2.1,0.3c0.8-0.4,1.1-1.1,1.5-2.3c2.2-9.7,3.6-19.7,4.1-30.4
		c0.1-0.4-0.4-1-0.8-1.3C350.7,324.5,350.2,324.3,349.7,324.4L349.7,324.4z M330.9,325.4c-0.4,0-0.9,0.1-1.2,0.4
		c-0.5,0.3-0.8,0.9-0.8,1.4c0.8,9.9,2.5,19.8,4.7,29.9c0.4,0.8,0.8,1.5,1.6,1.8c0.7,0.2,1.7,0.1,2.2-0.3c0.7-0.6,0.8-1.4,0.8-2.6
		c-0.8-9.7-2.4-19.4-5.2-29.5c-0.1-0.4-0.7-0.8-1.3-1C331.4,325.5,331.2,325.4,330.9,325.4L330.9,325.4z M370.5,332.7
		c-0.5,0-1,0.2-1.3,0.5c-6.4,7.7-12.2,16-17.8,24.7c-0.3,0.8-0.6,1.6-0.2,2.4c0.3,0.6,1,1.2,1.7,1.2c0.9,0,1.5-0.5,2.3-1.4
		c6.2-7.5,11.9-15.6,17.2-24.7c0.3-0.4,0.1-1.1-0.1-1.5c-0.3-0.6-0.9-1-1.5-1.1C370.6,332.7,370.5,332.7,370.5,332.7L370.5,332.7z
		 M313,335.6c-0.1,0-0.1,0-0.2,0c-0.6,0.1-1.2,0.4-1.5,0.9c-0.3,0.4-0.3,1-0.1,1.5c4.3,8.2,9.2,16,14.6,23.8c0.6,0.6,1.2,1,1.9,1
		c0.6,0,1.4-0.4,1.6-1c0.3-0.7,0.1-1.4-0.3-2.5c-4.1-7.9-9-15.6-14.8-23.3C314,335.7,313.5,335.6,313,335.6L313,335.6z M384.4,346.3
		c-0.3,0-0.5,0-0.8,0.2c-8.5,5.2-16.7,11.2-24.8,17.7c-0.6,0.7-1.1,1.4-1,2.2c0.1,0.7,0.5,1.4,1.2,1.7c0.8,0.3,1.6,0,2.6-0.6
		c8.3-5.1,16.3-10.9,24.3-17.9c0.4-0.3,0.4-1,0.4-1.5c-0.1-0.6-0.5-1.3-1.1-1.6C385,346.3,384.7,346.3,384.4,346.3L384.4,346.3z
		 M388.8,362.9c-0.1,0-0.1,0-0.2,0c-9.1,2.4-18,5.5-27.1,9.1c-0.7,0.5-1.3,1-1.5,1.7c-0.1,0.6,0.1,1.5,0.6,1.9
		c0.6,0.5,1.4,0.5,2.5,0.2c8.8-2.3,17.6-5.4,26.7-9.4c0.4-0.1,0.7-0.8,0.7-1.2c0.1-0.6-0.1-1.3-0.5-1.7
		C389.7,363.1,389.2,362.9,388.8,362.9L388.8,362.9z M425.8,406.6C425.7,406.6,425.7,406.6,425.8,406.6c-0.1,0-0.2,0.1-0.2,0.1
		c-0.3,0.8,0.2,1.7,0.1,2.6c-0.1,0.4-0.2,0.9-0.4,1.2c-0.2,0.4-0.7,0.5-0.9,0.9c-0.2,0.4,0,0.9,0.1,1.4c0.1,0.5,0,1,0.3,1.4
		c0.2,0.2,0.6,0.2,0.7,0.5c0.1,0.3,0.1,0.8-0.1,1c-0.4,0.4-1.2,0-1.8,0.4c-0.3,0.2-0.5,0.6-0.7,1c-0.2,0.3-0.6,0.6-0.6,1
		c0,0.3,0,0.6,0.2,0.8c0.4,0.3,1,0,1.4,0.2c0.3,0.1,0.6,0.4,0.9,0.5c0.3,0.1,0.7,0.4,1,0.3c0.4-0.2,0.4-0.8,0.6-1.2
		c0.3-0.5,0.6-1,0.8-1.5c0.2-0.5,0.4-1,0.6-1.5c0.2-0.3,0.5-0.6,0.5-1c0.1-0.9-0.3-1.7-0.5-2.6c-0.3-1.3-0.4-2.7-0.9-3.9
		c-0.2-0.4-0.3-0.8-0.6-1.1C426.1,406.8,426,406.6,425.8,406.6L425.8,406.6z M417.7,412.9c-0.2,0-0.3,0-0.4,0.2c-0.3,0.4,0,1,0,1.5
		c0,0.4-0.2,0.8-0.1,1.1c0.1,0.3,0.3,0.6,0.5,0.7c0.3,0.1,0.6-0.3,0.9-0.3c0.3,0,0.6,0,0.8,0.2c0.2,0.2,0,0.7,0.1,0.9
		c0.1,0.2,0.4,0.5,0.6,0.4c0.3-0.1,0.3-0.5,0.4-0.8c0.2-0.7,0.3-1.5,0-2.2c-0.2-0.3,0-0.8-0.3-1c-0.2-0.1-0.4,0.2-0.6,0.4
		c-0.2,0.1-0.4,0.3-0.6,0.3c-0.2,0-0.4-0.3-0.5-0.5c-0.2-0.2-0.3-0.6-0.5-0.7C417.9,412.9,417.8,412.9,417.7,412.9L417.7,412.9z
		 M493.5,420.5l-0.7,0l-0.4,1.3l0.1,1.8l1.8,0c0,0,0.5-0.2,0.7-0.4c0.2-0.2-0.2-0.7-0.2-0.9c0-0.2-0.4-0.8-0.4-0.8L493.5,420.5z
		 M393.1,423.6c-0.9,0-1.9,0.3-2.8,0.1c-0.1,0-0.2-0.2-0.3-0.1c-0.3,0.3,0.2,1,0.6,1.2c0.6,0.4,1.5-0.2,2,0.2
		c0.4,0.3,0.1,1.1,0.4,1.4c0.7,0.6,1.9,0.2,2.8,0.2c1.9,0,4.6,1.3,5.6-0.3c0.2-0.4-0.2-0.8-0.4-1.2c-0.2-0.4-0.4-0.8-0.7-1
		c-0.6-0.3-1.3-0.2-2-0.2c-1,0-2,0.2-3,0.1c-0.6-0.1-1.1-0.4-1.7-0.4C393.6,423.6,393.4,423.6,393.1,423.6L393.1,423.6z
		 M424.6,424.2c-0.3,0-0.6,0.1-0.7,0.4c-0.2,0.7,1.4,0.6,1.7,1.2c0.2,0.4-0.3,1,0,1.3c0.4,0.5,1.2,0.4,1.8,0.4c3,0.4,6.7-1.7,9,0.3
		c0.2,0.2-0.1,0.7,0.2,1c0.5,0.5,1.5,0.4,2.2,0.4c1.1-0.1,2.7,0,3.2-1.1c0.3-0.6-0.4-1.3-0.8-1.8c-0.3-0.4-0.7-0.7-1.1-0.8
		c-1.3-0.3-2.6,0.5-3.9,0.6c-2.4,0.1-5.1,0.8-7.2-0.3c-0.5-0.2-0.5-1-1-1.2c-0.6-0.3-1.3-0.3-1.9-0.4
		C425.6,424.3,425,424.2,424.6,424.2L424.6,424.2z M412.2,424.3c-1.1,0-2.3,0.8-3,0.1c-0.4-0.2-1.1,0.4-1.1,0.9
		c0,0.4,0.5,0.6,0.9,0.8c1,0.4,2.1,0.4,3.1,0.1c0.6-0.2,1.6-0.5,1.6-1.1c0-0.3-0.5-0.5-0.8-0.6C412.6,424.3,412.4,424.2,412.2,424.3
		z M493.4,427.9c-0.8,0-1.7,0.2-2.5,0.4c-0.8,0.2-1.6,0.6-2.4,0.6c-0.8,0-1.5-0.9-2.2-0.6c-0.5,0.2-1,0.8-0.8,1.2
		c0.7,1.5,3.3,0.3,4.9,0.5c1.8,0.2,3.6,0.4,5.3,0.7c1.2,0.2,2.3,0.7,3.5,0.9c1.7,0.2,3.5,0.2,5.3,0c0.3,0,0.8,0,1-0.3
		c0.6-0.8,0.5-2.4-0.3-3.1c-1.2-0.9-2.9,0.6-4.4,0.6c-1.6,0-3.2-0.3-4.7-0.5c-0.8-0.1-1.6-0.4-2.4-0.4
		C493.6,427.9,493.5,427.9,493.4,427.9L493.4,427.9z M451.4,437.9c-0.5,0-1,0.1-1.5,0.3c-0.7,0.3-1,1.3-1.8,1.6
		c-1,0.4-2.2-0.1-3.3-0.2c-1.1-0.1-2.3-0.2-3.4-0.3c-0.8-0.1-1.6-0.2-2.5-0.2c-0.4,0-0.9-0.2-1.1,0.1c-0.3,0.6,0.6,1.1,1.1,1.6
		c0.5,0.5,1.1,1,1.8,1.2c1.6,0.5,3.3-0.1,5,0.1c1.3,0.1,2.6,0.3,3.8,0.7c0.7,0.2,1.2,0.8,1.9,1c1.5,0.4,3,0.3,4.6,0.3
		c1.2,0,2.4-0.1,3.6-0.2c1.3,0,2.6-0.3,3.9-0.1c1,0.2,1.9,0.8,3,1c1,0.1,2.1,0,3.2-0.2c1.1-0.2,2.2-0.7,3.3-0.9
		c1.1-0.2,2.3-0.2,3.4-0.2c1.1,0,2.2,0.6,3.2,0.2c0.5-0.2,1.1-0.7,1-1.2c-0.1-0.6-1.1-0.7-1.7-0.9c-1.4-0.4-3-0.3-4.5-0.4
		c-1.7-0.1-3.4,0.1-5.1-0.2c-0.8-0.1-1.6-0.7-2.5-0.8c-0.9-0.1-1.8,0.2-2.7,0.3c-1,0.1-2.2,0.9-3.1,0.3c-0.3-0.2-0.2-0.8-0.3-1.1
		c0-0.2,0.2-0.5,0-0.7c-1.1-1.2-3.3,0-4.9-0.3c-1-0.1-1.9-0.6-2.9-0.7C452.5,438,452,437.9,451.4,437.9L451.4,437.9z M442.1,446.8
		c-0.4,0-0.7,0-1.1,0c-0.9,0-1.9,0.3-2.8,0.4c-1,0.1-2.1-0.1-3.2,0.1c-0.7,0.2-1.8,0.2-2.1,0.9c-0.2,0.5,0.3,1,0.6,1.3
		c0.5,0.4,1.2,0.3,1.8,0.6c0.4,0.3,0.6,1,1.1,1.2c5.1,2.8,11.4,2,17.2,2.7c0.9,0.1,1.9,0.3,2.8,0.3c2.4-0.2,4.7-1.6,7.1-1.9
		c1.4-0.2,2.9-0.3,4.3-0.2c1,0.1,1.8,0.6,2.8,0.7c0.8,0.1,1.6,0.3,2.3-0.1c0.5-0.3,1.1-0.8,1.1-1.3c0-0.5-0.7-0.8-1.1-1
		c-0.6-0.2-1.4,0.2-1.8-0.2c-0.3-0.3,0.1-0.9-0.2-1.2c-0.3-0.4-0.9-0.5-1.4-0.5c-0.7,0-1.3,0.6-2,0.7c-1.7,0.2-3.5-0.1-5.2-0.5
		c-1.3-0.3-2.5-1.1-3.9-1.4c-1.3-0.3-2.7-0.2-4-0.2c-1.4,0-2.8,0.3-4.2,0.3c-1.4,0-2.8-0.2-4.1-0.4c-0.2,0-0.3-0.1-0.5-0.1
		C444.2,446.8,443.1,446.8,442.1,446.8L442.1,446.8z M460.9,455.5c-0.8,0-1.6,0.2-2.3,0.4c-0.6,0.2-1.1,0.9-1.8,1.1
		c-1.7,0.5-3.6,0.1-5.4,0.1c-2,0-4.1-0.2-6.1-0.3c-1.7-0.1-3.4-0.3-5.1-0.1c-0.6,0.1-1.6,0-1.8,0.6c-0.1,0.4,0.4,0.8,0.7,1
		c1,0.6,2.6-0.5,3.5,0.3c0.3,0.3,0.1,0.8,0.3,1.1c0.2,0.5,0.6,0.9,0.8,1.4c0.2,0.4,0.2,0.8,0.4,1.1c0.3,0.6,1.5,1,1.2,1.7
		c-0.1,0.3-0.6,0.2-1,0.2c-0.5,0-1-0.4-1.5-0.5c-2.3-0.4-4.8-0.5-7.1-0.1c-0.4,0.1-1.1,0.1-1.2,0.5c-0.1,0.5,0.4,1,0.8,1.2
		c0.5,0.4,1.7-0.3,1.9,0.3c0.1,0.3-0.5,0.5-0.6,0.8c-0.2,0.3-0.5,0.7-0.3,1.1c0.2,0.5,0.8,0.8,1.3,0.9c0.7,0.2,1.5-0.4,2.2-0.4
		c1.5,0.1,2.9,0.5,4.3,1.1c1,0.4,1.7,1.1,2.7,1.4c1,0.3,2,0.2,3,0.2c2.2,0,4.3-0.7,6.5-0.5c0.4,0,0.9,0,1.2,0.3
		c0.4,0.3,0.7,1,0.5,1.5c-0.2,0.5-1.1,0.4-1.2,0.9c-0.1,0.3,0,0.7,0.3,0.9c1.6,1.3,4.1,1,6.1,0.8c1.1-0.1,2.5-0.1,3.1-1
		c0.3-0.4-0.4-1.1-0.1-1.4c0.4-0.5,1.3,0.1,1.8-0.1c0.6-0.2,0.8-0.9,1.4-1.1c1.9-0.8,4.1-0.5,6.1-0.5c1.8,0,3.5,0.5,5.3,0.2
		c1.3-0.2,2.5-1,3.8-1.6c1.6-0.7,3.4-1.2,4.6-2.4c0.5-0.5,0.6-1.5,0.9-2.1c-1.1,0.3-2.6-0.4-3.8-0.6c-0.7-0.1-1.4-0.6-2.1-0.7
		c-0.6-0.1-1.3,0.2-1.9,0.3c-0.8,0.1-1.5,0.2-2.3,0.2c-0.6,0-1.3-0.3-1.9-0.3c-0.5,0-1,0.2-1.6,0.3c-0.4,0-0.8-0.2-1.1,0
		c-0.7,0.5,0.1,2-0.5,2.5c-0.7,0.5-1.7,0-2.5,0c-0.3,0-0.7-0.3-1-0.1c-0.3,0.2-0.2,0.8-0.4,1c-0.6,0.4-1.5,0.2-2.2,0.4
		c-0.8,0.2-1.6,0.6-2.5,0.6c-0.8,0.1-2.1,0.4-2.5-0.3c-0.2-0.3,0-0.8,0.3-1.1c0.5-0.7,1.7-0.8,2.4-1.4c0.9-0.8,2.9-1.6,2.4-2.7
		c-0.5-1.1-2.5,0-3.7,0c-1,0-2.1-0.4-3.1-0.1c-0.4,0.1-0.5,0.6-0.9,0.8c-0.9,0.4-1.9,0.5-2.9,0.3c-0.5-0.1-1.1-0.2-1.2-0.7
		c-0.1-0.8,0.9-1.4,1.5-1.8c1.6-1.2,3.6-1.7,5.5-2.4c0.6-0.2,1.5,0,1.8-0.5c0.3-0.4,0-1.1-0.3-1.5
		C464.2,455.4,462.4,455.5,460.9,455.5L460.9,455.5z M490,464.3c0.3-0.1,0.5-0.2,0.7-0.4C490.3,463.8,490.2,464,490,464.3L490,464.3
		z M478.1,481.6c-0.2,0-0.3,0-0.4,0c-0.4,0-0.8-0.1-1.1,0.2c-0.4,0.4-0.1,1.3-0.4,1.8c-0.2,0.3-0.6,0.4-1,0.5
		c-0.9,0.2-1.9-0.1-2.8-0.1c-0.6,0-1.3,0.2-1.9,0.2c-1.1,0-2.1,0.1-3.2-0.1c-0.8-0.1-1.4-0.5-2.2-0.6c-0.8-0.1-1.9-0.5-2.5,0
		c-0.4,0.4-0.5,1.2-0.3,1.7c0.5,1,1.8,1.3,2.9,1.6c1.6,0.4,3.3,0.2,4.9,0.3c0.9,0,1.9,0.1,2.8,0.1c1.6-0.1,3.3-0.2,4.9-0.5
		c1.2-0.2,2.3-0.5,3.4-0.8c1-0.2,2-0.2,3-0.6c0.7-0.3,1.7-0.6,2-1.3c0.2-0.5,0.1-1.1-0.3-1.5c-1.2-1.1-3.2-0.4-4.7-0.5
		C480.2,481.7,479.1,481.6,478.1,481.6L478.1,481.6z"/>
	<path class="st11" d="M363.4,400.3c-0.1,0-0.3,0-0.4,0c-0.2,0.1-0.4,0.4-0.4,0.6c0,0.3,0.3,0.1,0.3,0.4c0,0.3-0.2,0.5-0.3,0.7
		c-0.1,0.3-0.3,0.5-0.4,0.8c-0.1,0.6,0.2,1.3,0.4,1.9c0.1,0.5,0.3,1.1,0.3,1.6c0,0.3,0,0.7-0.3,0.7c-0.3,0.1-0.4-0.4-0.7-0.5
		c-0.2-0.1-0.6-0.2-0.8,0c-0.5,0.4-0.1,1.2-0.1,1.8c0,1,0,1.9,0,2.9c0,0.3,0.2,0.7,0,0.8c-0.2,0.1-0.3-0.2-0.4-0.4
		c-0.5-0.7-0.4-1.7-0.7-2.5c-0.2-0.6-0.5-1.2-0.8-1.8c-0.3-0.5-0.7-0.8-1-1.3c-0.3-0.4-0.7-0.9-1-1.4c-0.2-0.5,0-1.1-0.4-1.4
		c-0.3-0.3-0.9-0.5-1.3-0.4c-0.4,0.1-0.6,0.6-0.7,1c-0.1,0.6,0.1,1.1,0.2,1.7c0.1,0.6,0.4,1.1,0.5,1.7c0.1,0.5,0.3,1,0,1.4
		c-0.1,0.1-0.3,0.3-0.4,0.3c-0.4-0.1-0.4-0.7-0.8-0.8c-0.3-0.1-0.6,0.4-0.8,0.3c-0.2-0.1-0.1-0.5-0.1-0.8c-0.1-0.6,0-1.3-0.3-1.8
		c-0.3-0.5-0.8-0.9-1.3-1c-0.4-0.1-0.9,0-1.2,0.3c-0.2,0.2-0.2,0.6-0.1,0.9c0.1,1,0.7,1.8,1.2,2.6c0.4,0.7,0.7,1.5,1.2,2
		c0.3,0.2,0.6,0.5,1,0.5c0.4,0,0.7-0.3,1.1-0.4c0.3-0.1,0.6,0,0.9-0.1c0.3-0.1,0.7,0,1-0.2c0.3-0.2,0-1,0.4-1c0.4,0,0.4,0.6,0.5,1
		c0.2,0.5,0,1.3,0.4,1.7c0.2,0.2,0.6,0,0.9,0.1c0.3,0.1,0.6,0,0.7,0.3c0.2,0.3-0.2,0.8,0,1.2c0.2,0.3,0.5,0.6,0.9,0.7
		c0.3,0,0.5-0.2,0.7-0.4c0.2-0.2,0-0.8,0.3-0.8c0.3,0,0.2,0.5,0.4,0.7c0.3,0.1,0.7,0.2,0.9,0c0.3-0.2,0.3-0.7,0.5-1.1
		c0.2-0.3,0.3-0.8,0.6-0.8c0.2,0,0.2,0.4,0.3,0.5c0.3,0.1,0.8,0,1-0.2c0.5-0.5,0.3-1.3,0.4-1.9c0-0.3-0.1-0.6,0-0.9
		c0.2-0.5,0.8-0.8,1.1-1.4c0.4-0.9,0.5-1.9,0.4-2.8c-0.1-0.8-0.4-1.6-0.9-2.2c-0.4-0.5-1-0.9-1.4-1.4c-0.3-0.3-0.7-0.2-0.7-0.7
		C364.2,400.5,363.8,400.2,363.4,400.3L363.4,400.3z M409.1,402c0,0-0.1,0-0.1,0c-0.4,0.1-0.5,0.8-0.6,1.2c-0.3,1.4,0,2.8,0.2,4.3
		c0.1,0.6,0.2,1.2,0.4,1.8c0.2,0.7,0.6,1.2,0.9,1.8c0.2,0.5,0.4,0.9,0.6,1.4c0.2,0.6,0.2,1.2,0.3,1.8c0.1,0.6,0.1,1.2,0.3,1.7
		c0.2,0.5,0.4,1.1,0.8,1.4c0.3,0.2,0.8,0.3,1.1,0.1c0.3-0.1,0.6-0.4,0.7-0.7c0.2-0.5,0-1.1-0.1-1.6c-0.2-0.8-0.8-1.5-1-2.3
		c-0.1-0.7,0-1.4,0-2.1c0-0.4,0.2-0.9,0-1.3c-0.2-0.6-1-0.7-1.4-1.2c-0.3-0.4-0.5-0.9-0.6-1.4c-0.1-0.8,0.3-1.6,0.1-2.5
		c0-0.3-0.2-0.6-0.3-0.8c-0.1-0.3-0.2-0.7-0.5-1C409.8,402.3,409.5,402,409.1,402L409.1,402z M388.7,402.4
		C388.7,402.4,388.7,402.4,388.7,402.4c-0.4,0.1-0.7,0.2-0.8,0.5c-0.2,0.6,0.5,1.2,0.5,1.8c0,0.3,0,0.7-0.2,1
		c-0.2,0.3-0.6,0.4-0.8,0.7c-0.2,0.4-0.1,0.9,0,1.4c0.1,0.5,0.4,0.9,0.6,1.3c0.2,0.6,0.4,1.3,0.6,1.9c0.1,0.6,0.1,1.2,0.3,1.8
		c0.1,0.4,0.3,0.7,0.3,1.1c0.1,0.5-0.1,0.9,0,1.4c0.1,0.4,0.2,0.9,0.6,1.2c0.5,0.4,1.2,0.6,1.8,0.7c0.5,0.1,1,0.5,1.4,0.2
		c0.2-0.2,0.2-0.6,0.2-0.8c-0.1-0.7-0.5-1.3-0.8-1.9c-0.3-0.7-1.2-1.1-1.2-1.9c0-0.3,0.5-0.4,0.6-0.7c0.1-0.4,0.1-0.8,0-1.1
		c-0.1-0.6-0.6-1-0.8-1.5c-0.2-0.6-0.3-1.2-0.4-1.8c0-0.6,0.2-1.3,0.1-1.9c-0.1-0.7-0.3-1.4-0.7-2.1
		C389.7,403.2,389.4,402.6,388.7,402.4C388.8,402.4,388.8,402.4,388.7,402.4L388.7,402.4z M420.5,403c0,0-0.1,0-0.1,0
		c-0.4,0-0.7,0.2-1,0.5c-0.3,0.3-0.4,0.8-0.5,1.2c-0.1,0.5-0.1,0.9-0.1,1.4c0,0.9,0,1.8,0,2.8c0.1,0.8,0,1.6,0.4,2.3
		c0.2,0.4,0.6,0.8,1.1,0.8c0.3,0,0.6-0.4,0.9-0.3c0.3,0.1,0.3,0.5,0.4,0.8c0.4,0.9,0.5,1.9,1,2.8c0.2,0.4,0.4,0.8,0.7,1.1
		c0.3,0.2,0.7,0.3,1.1,0.3c0.4,0,0.9-0.2,1.1-0.6c0.2-0.4,0.1-0.9,0-1.3c-0.2-0.5-1-0.7-1.2-1.2c-0.2-0.4,0.1-0.9,0-1.4
		c-0.1-0.5-0.3-1-0.5-1.4c-0.2-0.4-0.6-0.7-0.7-1.1c-0.2-0.7,0.1-1.4,0-2.1c-0.1-0.4-0.2-0.9-0.5-1.2c-0.3-0.3-0.7-0.3-1.1-0.5
		c-0.3-0.2-0.7-0.4-0.7-0.7c0-0.3,0.5-0.4,0.6-0.7c0.1-0.2,0.1-0.4,0.1-0.6c0-0.2-0.1-0.3-0.2-0.4C421,403.1,420.8,403,420.5,403z
		 M473.3,403.6c-0.1,0-0.1,0-0.2,0c-0.3,0-0.5,0.3-0.7,0.5c-0.3,0.4-0.5,0.9-0.5,1.4c0,0.6,0.3,1.2,0.5,1.8c0.2,0.5,0.4,1,0.7,1.5
		c0.3,0.6,0.6,1.2,0.9,1.9c0.2,0.6,0.5,1.1,0.7,1.7c0.2,0.6,0.2,1.3,0.4,2c0.1,0.5,0.1,1.1,0.4,1.6c0.3,0.5,0.8,0.8,1.2,1.1
		c0.5,0.4,1.1,1,1.7,1.2c0.5,0.2,1,0.4,1.4,0.3c0.4-0.1,0.7-0.5,0.8-0.8c0.1-0.5-0.2-1-0.4-1.4c-0.4-0.8-1.1-1.3-1.4-2.2
		c-0.2-0.5,0-1.1-0.2-1.7c-0.1-0.4-0.4-0.7-0.7-0.9c-0.5-0.4-1.3-0.1-1.8-0.5c-0.5-0.4-0.8-1-0.8-1.6c0-0.3,0.3-0.7,0.3-1
		c0-0.4,0-0.8-0.2-1.2c-0.2-0.4-0.6-0.6-0.8-1c-0.1-0.4,0-0.8,0-1.1c0-0.3,0-0.6-0.1-0.8c0-0.1,0-0.1-0.1-0.2
		C474.1,403.9,473.7,403.6,473.3,403.6z M489.3,403.8c-0.1,0-0.1,0-0.1,0c-0.3,0.3,0,0.7,0.1,1.1c0.2,0.6,0.7,1,0.9,1.5
		c0.2,0.5,0.2,1,0.3,1.6c0.1,0.6,0.2,1.1,0.3,1.7c0,0.6-0.2,1.2,0,1.7c0.3,0.6,1.1,0.7,1.5,1.1c0.5,0.4,0.9,0.7,1.3,1.2
		c0.3,0.4,0.5,0.8,0.6,1.3c0.1,0.6,0,1.3,0,1.9c0,0.7-0.1,1.4,0,2c0.1,0.5,0.2,1.1,0.6,1.5c0.3,0.3,0.9,0.4,1.4,0.4
		c0.3,0,0.8-0.1,1-0.4c0.2-0.3,0-0.8-0.1-1.1c-0.3-0.7-1.2-1.1-1.4-1.9c-0.2-0.6,0.2-1.3,0.2-2c0-0.6,0-1.2-0.2-1.7
		c-0.2-0.5-0.9-0.8-1.1-1.3c-0.2-0.5,0.1-1.1,0-1.7c-0.1-0.7,0-1.5-0.4-2.1c-0.2-0.4-0.7-0.6-1.1-0.8c-0.4-0.2-1.1-0.2-1.4-0.6
		c-0.2-0.2-0.3-0.6-0.3-0.9c0-0.4,0.2-0.8,0.2-1.3c0-0.3,0-0.7-0.2-0.9c-0.2-0.2-0.4-0.4-0.7-0.4c-0.2-0.1-0.5,0-0.7,0
		C489.7,404,489.5,403.8,489.3,403.8L489.3,403.8z M442.8,404.8c-0.2,0-0.5,0.3-0.7,0.5c-0.2,0.3-0.2,0.7-0.2,1c0,0.2,0,0.5-0.1,0.7
		c-0.1,0.3-0.6,0.3-0.7,0.5c-0.2,0.4-0.1,0.8,0,1.2c0,0.8,0.2,1.6,0.4,2.4c0.2,0.8,0.3,1.7,0.7,2.5c0.3,0.8,0.8,1.5,1.3,2.2
		c0.2,0.3,0.4,0.8,0.8,0.9c0.2,0,0.5-0.1,0.6-0.3c0.2-0.3,0.3-0.7,0.3-1.1c0-0.7-0.5-1.2-0.6-1.9c-0.2-1.3,0-2.6-0.2-3.8
		c-0.1-0.5-0.2-1-0.4-1.5c-0.1-0.5-0.8-1-0.5-1.4c0.4-0.5,0.1-1.6-0.4-1.9C442.9,404.8,442.8,404.7,442.8,404.8L442.8,404.8z
		 M383.3,404.9c-0.1,0-0.2,0-0.2,0.1c-0.5,0.4-0.2,1.3-0.1,2c0,0.9,0.3,1.8,0.4,2.7c0.2,1.3,0.1,2.5,0.4,3.8
		c0.2,0.8,0.3,1.6,0.7,2.3c0.2,0.3,0.4,0.6,0.7,0.7c0.5,0.1,1.2,0,1.5-0.4c0.2-0.2,0.1-0.5,0-0.8c-0.1-0.7-0.7-1.3-0.8-2
		c-0.1-0.5,0-1.1-0.1-1.6c-0.1-0.8-0.4-1.6-0.6-2.4c-0.3-0.8-0.8-1.6-1-2.4c-0.2-0.6,0.2-1.3-0.2-1.8
		C383.9,405.1,383.6,404.9,383.3,404.9L383.3,404.9z M467.1,406.4c-0.4,0.5,0,1.3,0.1,2c0.1,0.6,0.2,1.3,0.5,1.9
		c0.3,0.5,0.8,0.8,1.1,1.2c0.2,0.3,0.3,0.6,0.4,1c0.1,0.6,0,1.2,0,1.8c0,0.3,0.1,0.7-0.1,1c-0.2,0.2-0.5,0.1-0.7,0.3
		c-0.3,0.3-0.5,0.7-0.5,1.1c0,0.3,0.2,0.7,0.5,0.9c0.2,0.1,0.4,0.1,0.7,0.1c0.3,0,0.6-0.1,0.8,0c0.2,0.1,0.1,0.5,0.3,0.7
		c0.2,0.1,0.5,0.2,0.7,0.1c0.3-0.1,0.4-0.5,0.4-0.8c0.1-0.5,0.1-0.9,0-1.4c-0.1-0.4-0.4-0.7-0.5-1.1c-0.2-0.8,0.2-1.7,0.1-2.5
		c-0.1-0.6-0.4-1.1-0.7-1.6c-0.4-0.7-1-1.2-1.3-1.9c-0.3-0.7-0.3-1.5-0.4-2.2c-0.1-0.4,0.2-1-0.1-1.2
		C467.9,405.8,467.3,406.1,467.1,406.4L467.1,406.4z M454.3,406c-0.3,0-0.6,0.3-0.9,0.5c-0.2,0.2-0.3,0.5-0.4,0.8
		c-0.1,0.6-0.2,1.2-0.1,1.8c0.1,0.4,0.5,0.7,0.6,1.1c0.2,0.5,0.2,1.1,0.3,1.7c0.1,0.5,0,1.1,0.3,1.5c0.3,0.4,0.8,0.8,1.3,0.9
		c0.3,0,0.6,0,0.8-0.2c0.3-0.3,0.5-0.9,0.4-1.3c-0.1-0.5-0.6-0.9-0.8-1.4c-0.2-0.5-0.5-1-0.6-1.5c-0.1-0.6,0.1-1.3,0-1.9
		c0-0.5-0.1-1-0.3-1.4c-0.1-0.2-0.4-0.5-0.7-0.6C454.4,406,454.3,406,454.3,406z M458.4,406.2c-0.4,0-0.6,0.5-0.9,0.6
		c-0.3,0.1-0.6,0-0.8,0.3c-0.4,0.4-0.3,1.1-0.2,1.7c0.1,0.5,0.3,1,0.7,1.4c0.3,0.2,0.7,0.2,1,0.4c0.4,0.2,0.8,0.5,1,1
		c0.3,0.5-0.2,1.2,0.2,1.7c0.4,0.5,1.1,0.8,1.7,0.7c0.2,0,0.6-0.1,0.7-0.3c0.3-0.6-0.5-1.3-0.7-2c-0.2-0.7,0-1.5-0.4-2.2
		c-0.3-0.5-1.2-0.6-1.4-1.2c-0.2-0.4,0.3-0.9,0.1-1.3C459.2,406.6,458.8,406.2,458.4,406.2C458.5,406.2,458.4,406.2,458.4,406.2z
		 M406.2,406.5c-0.2,0-0.4,0.1-0.6,0.2c-0.2,0.1-0.4,0.4-0.5,0.7c-0.2,0.6-0.1,1.3-0.1,1.9c0,0.5,0,1,0.2,1.5
		c0.2,0.8,0.6,1.6,1.1,2.3c0.4,0.5,0.8,1.1,1.4,1.2c0.3,0,0.6-0.3,0.8-0.5c0.3-0.4,0.6-0.9,0.6-1.4c0-0.6-0.3-1.2-0.6-1.7
		c-0.3-0.4-0.9-0.5-1.1-1c-0.2-0.4,0.1-0.9,0-1.4c0-0.3-0.3-0.5-0.3-0.8c-0.1-0.3-0.3-0.7-0.6-0.9
		C406.5,406.5,406.3,406.5,406.2,406.5L406.2,406.5z M498.5,406.8c-0.3,0-0.6,0.1-0.7,0.4c-0.1,0.2,0.2,0.3,0.3,0.5
		c0.2,0.5,0.2,1,0.2,1.6c0,0.6-0.5,1.2-0.3,1.7c0.2,0.3,0.6,0.6,0.9,0.6c0.2,0,0.2-0.2,0.3-0.4c0.2-0.5,0.2-1.1,0.3-1.7
		c0.1-0.6,0.3-1.3,0-1.8c-0.2-0.4-0.5-0.8-0.9-0.9C498.6,406.8,498.6,406.8,498.5,406.8L498.5,406.8z M432.7,407.5
		C432.7,407.5,432.7,407.5,432.7,407.5c-0.5,0.1-0.8,0.7-1,1.2c-0.3,0.7-0.2,1.6,0,2.3c0.1,0.5,0.4,1,0.8,1.4
		c0.3,0.4,0.8,0.5,1.2,0.9c0.3,0.3,0.3,0.8,0.7,1c0.3,0.2,0.7,0,1.1,0c0.3,0.1,0.6,0.2,0.8,0.4c0.4,0.3,0.5,0.9,0.9,1.2
		c0.2,0.2,0.5,0.4,0.8,0.4c0.2,0,0.4-0.2,0.7-0.3c0.3-0.1,0.5-0.3,0.8-0.2c0.3,0.1,0.3,0.5,0.4,0.7c0.3,0.6,0.2,1.5,0.7,1.9
		c0.3,0.2,0.7,0.3,1,0.2c0.5,0,1.1-0.2,1.3-0.6c0.3-0.4,0.1-1-0.1-1.4c-0.3-0.8-0.8-1.4-1.4-2.1c-0.5-0.6-1-1.2-1.7-1.7
		c-0.4-0.3-0.8-0.5-1.3-0.6c-0.4-0.1-0.8,0-1.1-0.2c-0.3-0.2-0.4-0.7-0.7-1c-0.2-0.3-0.4-0.7-0.8-0.9c-0.4-0.2-1,0.2-1.4,0
		c-0.3-0.1-0.5-0.5-0.7-0.8c-0.2-0.3-0.1-0.8-0.3-1.1c-0.1-0.3-0.2-0.5-0.4-0.7C432.9,407.6,432.8,407.5,432.7,407.5L432.7,407.5z
		 M447.8,409c-0.1,0-0.1,0-0.2,0c-0.3,0.1-0.2,0.6-0.2,0.9c-0.1,0.7-0.1,1.4-0.1,2.1c0,0.6,0.1,1.2,0.3,1.8c0.3,0.8,1,1.5,1.5,2.2
		c0.6,0.9,1.3,1.7,2,2.5c0.5,0.5,0.9,1.4,1.6,1.5c0.2,0.1,0.5-0.1,0.7-0.2c0.4-0.4,0.7-1,0.6-1.6c-0.1-0.5-0.7-0.8-0.9-1.2
		c-0.4-0.7-0.7-1.3-0.9-2.1c-0.2-0.5,0-1.1-0.3-1.5c-0.2-0.3-0.5-0.5-0.8-0.7c-0.3-0.1-0.8,0.1-1.1-0.1c-0.3-0.2-0.3-0.6-0.3-1
		c0-0.3,0.1-0.5,0.2-0.8c0-0.3-0.2-0.6,0-0.8c0.1-0.4-0.7-0.2-1-0.4C448.4,409.5,448.1,409,447.8,409L447.8,409z M499.4,412.6
		C499.4,412.6,499.4,412.7,499.4,412.6c-0.1,0.1-0.1,0.1,0,0.2c0.2,0.6,0.4,1.3,0.6,1.9c0.1,0.4,0.2,0.9,0.3,1.3
		c0.1,0.5,0.1,1.1,0.1,1.6c0,0.5-0.4,1.2-0.1,1.5c0.2,0.2,0.7,0.2,0.9,0c0.5-0.5,0.1-1.3,0-2c0-0.8-0.1-1.5-0.4-2.3
		c-0.2-0.6-0.4-1.2-0.8-1.7C499.9,413,499.6,412.6,499.4,412.6L499.4,412.6z M477.5,424.6c-0.3,0-0.7,0.2-0.9,0.4
		c-0.3,0.5-0.1,1.2,0.1,1.6c0.4,0.6,1.1,0.8,1.8,1.2c0.3,0.2,0.8,0.2,1.1,0.5c0.3,0.2,0.4,0.5,0.6,0.8c0.2,0.4,0.4,0.9,0.6,1.3
		c0.2,0.4,0.3,0.9,0.6,1.1c0.4,0.3,1,0.4,1.5,0.4c0.4-0.1,0.7-0.4,1-0.6c0.3-0.2,0.3-0.7,0.6-0.9c0.3-0.2,0.7-0.2,1.1-0.4
		c0.3-0.2,0.7-0.4,0.8-0.7c0.1-0.4,0.1-0.8,0-1.2c-0.2-0.4-0.6-0.6-1-0.7c-1-0.3-2.2,0.4-3.1-0.1c-0.2-0.1-0.2-0.3-0.3-0.5
		c-0.1-0.4-0.1-0.8-0.3-1.1c-0.2-0.2-0.5-0.4-0.7-0.4c-0.3,0-0.5,0.4-0.8,0.5c-0.2,0.1-0.5,0.2-0.7,0.2c-0.2,0-0.6-0.1-0.7-0.3
		c-0.1-0.2-0.2-0.6,0-0.7c-0.3,0-0.6-0.6-0.9-0.6C477.6,424.6,477.5,424.6,477.5,424.6L477.5,424.6z M478.5,425.2
		C478.6,425.1,478.6,425.1,478.5,425.2C478.6,425.1,478.6,425.1,478.5,425.2z M421,424.6c-0.1,0-0.2,0-0.3,0.1
		c-0.2,0.1-0.4,0.4-0.3,0.6c0.2,0.4,0.8,0.2,1.2,0.2c0.3,0,0.9,0.2,1-0.1c0.1-0.2-0.2-0.3-0.3-0.4c-0.1-0.1-0.2-0.1-0.3-0.1
		C421.7,424.8,421.3,424.6,421,424.6z M408.8,426c-0.7,0-1.4,0.1-2,0.2c-0.5,0-1.1,0.1-1.6,0.3c-0.4,0.1-1,0.2-1.2,0.6
		c-0.2,0.4-0.1,1,0.3,1.2c0.5,0.4,1.2,0.1,1.8,0.1c0.5,0,0.9-0.2,1.4-0.1c0.2,0,0.3,0.1,0.4,0.2c0.3,0.2,0.5,0.7,0.8,0.8
		c0.4,0.1,0.8-0.2,1.2-0.3c0.3-0.1,0.6-0.2,0.9-0.3c0.4,0,0.8,0.1,1.1,0.2c0.5,0,0.9,0.2,1.4,0.1c0.3,0,0.6-0.1,0.7-0.3
		c0.1-0.2-0.1-0.5-0.3-0.6c-0.8-0.6-2.3,0.6-3-0.1c-0.2-0.2,0.1-0.5,0-0.7c-0.1-0.3-0.2-0.7-0.5-0.9C409.8,426,409.3,426,408.8,426
		L408.8,426z M462,427.4c-0.1,0-0.2,0-0.3,0c-0.6,0-1.2,0.2-1.8,0.4c-0.4,0.1-1,0.1-1.1,0.4c-0.1,0.2,0.1,0.5,0.4,0.7
		c0.4,0.3,1-0.1,1.5-0.1c0.7,0,1.4-0.1,2.1,0c0.3,0,0.6,0.1,0.9,0.2c0.7,0.2,1.4,0.5,2.2,0.6c0.2,0,0.5,0.1,0.6-0.1
		c0.2-0.2,0-0.6,0-0.8c-0.7,0.3-1.6-0.8-2.4-0.9C463.4,427.5,462.7,427.4,462,427.4L462,427.4z M466.4,428.6c0,0,0.1,0,0.1-0.1
		C466.5,428.5,466.4,428.5,466.4,428.6z M399,428.6c-0.8-0.6-1.8,0.6-2.8,0.7c-0.9,0.1-1.8,0.1-2.8,0.1c-1.2,0-2.5-0.3-3.6,0
		c-0.6,0.2-1.4,0.3-1.7,0.9c-0.2,0.4,0,1,0.3,1.3c0.8,0.7,2.1,0.6,3.2,0.5c0.8-0.1,1.5-0.5,2.3-0.8c0.5-0.2,1-0.6,1.6-0.7
		c1-0.2,2-0.1,2.9-0.2c0.8,0,1.7,0.2,2.5-0.1c0.2-0.1,0.5-0.2,0.5-0.4C401.3,429,399.4,429.4,399,428.6L399,428.6z M492.4,429.7
		c-0.4,0-0.9,0.1-1.4,0.1c-0.6,0-1.2-0.1-1.8,0.1c-0.5,0.1-1,0.4-1.2,0.8c-0.2,0.3-0.1,0.7,0,1.1c0.1,0.5,0.3,1.2,0.7,1.5
		c0.4,0.3,1,0.2,1.5,0c0.4-0.1,0.7-0.5,1-0.7c0.3-0.2,0.4-0.7,0.8-0.7c0.3,0,0.5,0.3,0.7,0.4c0.4,0.2,0.8,0.5,1.3,0.5
		c0.4,0,0.9-0.2,1.1-0.6c0.2-0.4,0.1-0.9-0.1-1.3c-0.1-0.3-0.4-0.4-0.7-0.6c-0.4-0.3-0.9-0.5-1.4-0.6
		C492.7,429.7,492.5,429.7,492.4,429.7L492.4,429.7z M448.3,430.2c-0.3,0-0.6,0-0.9,0.1c-0.4,0.2-0.6,0.7-1,1
		c-0.3,0.2-0.6,0.3-0.9,0.3c-0.7,0.1-1.4-0.2-2,0c-0.4,0.2-0.5,0.7-0.9,1c-0.3,0.2-0.7,0.6-1.1,0.5c-0.3-0.1-0.4-0.4-0.6-0.7
		c-0.2-0.3,0-0.8-0.3-1.1c-0.5-0.3-1.3-0.3-1.8,0.1c-0.3,0.3-0.3,0.8-0.2,1.2c0.2,0.9,0.8,1.6,1.4,2.2c0.3,0.3,0.7,0.5,1.1,0.5
		c0.5,0,1-0.4,1.5-0.6c0.4-0.2,0.7-0.5,1.1-0.7c0.6-0.2,1.3-0.4,1.9-0.3c0.4,0.1,0.6,0.5,0.9,0.7c0.7,0.3,1.4,0.8,2.1,0.6
		c0.4-0.1,0.5-0.7,0.8-0.9c0.3-0.2,0.7-0.3,1.1-0.4c0.6-0.1,1.3-0.2,2-0.2c0.7,0.1,1.4,0.6,2.1,0.7c0.5,0,1.2,0.1,1.6-0.3
		c0.2-0.3,0.2-0.8,0-1.1c-0.1-0.3-0.4-0.4-0.6-0.7c-0.6-0.5-1.6,0-2.3-0.2c-0.9-0.2-1.6-0.7-2.5-1.1c-0.5-0.2-1.1-0.5-1.7-0.6
		C448.9,430.2,448.6,430.2,448.3,430.2L448.3,430.2z M411.6,432.6c-0.7-0.1-1.3,0.4-2,0.4c-0.5,0-1,0-1.4,0c-0.5,0-1.1-0.2-1.6,0
		c-0.5,0.2-1.3,0.6-1.1,1.1c0.2,0.5,1.1,0.2,1.6,0.2c0.7,0,1.5-0.2,2.2,0c0.6,0.1,1.1,0.6,1.8,0.6c0.6,0,1.1-0.4,1.6-0.7
		c0.3-0.2,0.8-0.4,0.7-0.7C413.2,432.8,412.2,432.6,411.6,432.6L411.6,432.6z M452.7,438.6C452.7,438.6,452.6,438.6,452.7,438.6
		c-0.5,0.1-0.7,0.7-1.1,1c-0.2,0.2-0.4,0.3-0.7,0.4c-0.4,0-0.7-0.3-1.1-0.3c-0.4,0.1-0.6,0.4-0.9,0.6c-0.3,0.1-0.5,0.3-0.8,0.3
		c-0.3,0-0.5-0.3-0.8-0.4c-0.3-0.1-0.5-0.4-0.7-0.4c-0.3,0-0.7,0.2-1,0.4c-0.2,0.1-0.3,0.4-0.5,0.4c-0.3-0.1-0.2-0.7-0.5-0.8
		c-0.4-0.2-0.9,0-1.3,0.2c-0.3,0.2-0.4,0.6-0.7,0.7c-0.2,0.1-0.5-0.1-0.8-0.1c-0.3,0-0.7,0-1,0.2c-0.3,0.2-0.2,0.6-0.4,0.9
		c-0.2,0.2-0.5,0.4-0.8,0.4c-0.4,0-0.6-0.5-0.9-0.6c-0.4-0.2-0.8-0.4-1.1-0.3c-0.3,0.1-0.7,0.3-0.7,0.6c-0.1,0.7,0.6,1.2,1.1,1.7
		c0.5,0.5,1.1,0.9,1.8,1c0.5,0,0.9-0.4,1.4-0.5c0.4-0.1,0.9-0.3,1.3-0.2c0.4,0.1,0.8,0.6,1.2,0.5c0.4,0,0.7-0.6,1.1-0.7
		c0.3-0.1,0.6-0.2,0.9-0.3c0.6-0.1,1.1-0.1,1.7,0c0.5,0.1,0.9,0.5,1.4,0.3c0.3-0.1,0.3-0.6,0.6-0.8c0.4-0.2,0.8-0.1,1.2-0.1
		c0.6-0.1,1.2,0,1.8-0.3c0.4-0.2,0.7-0.7,1-1.1c0.2-0.3,0.4-0.7,0.5-1C453.9,439.8,453.1,438.6,452.7,438.6L452.7,438.6z M481.3,441
		c-0.3,0-0.7,0-1,0.1c-0.6,0-1.1,0.5-1.8,0.6c-0.5,0.1-1-0.2-1.5-0.1c-0.4,0.1-1,0.2-1,0.5c0,0.5,0.9,0.3,1.3,0.4
		c0.5,0.1,1.1,0,1.5,0.3c0.3,0.2,0.3,0.7,0.6,0.9c0.7,0.4,1.7,0.4,2.4,0.1c0.4-0.1,0.8-0.5,0.9-0.8c0.2-0.4,0.3-1.1,0-1.4
		C482.5,441.1,481.9,441,481.3,441L481.3,441z M460.8,441.6c-0.5,0-1,0-1.5,0.1c-0.6,0.1-1.2,0.2-1.7,0.6c-0.2,0.2-0.4,0.5-0.4,0.8
		c0.1,0.6,0.8,1,1.3,1.4c0.4,0.4,0.9,0.9,1.5,0.8c0.5,0,0.7-0.8,1.1-1c0.5-0.2,1.1-0.1,1.7,0c0.4,0.1,0.7,0.4,1.1,0.5
		c0.6,0.1,1.2,0.4,1.8,0.1c0.2-0.1,0.4-0.3,0.5-0.6c0.1-0.3,0.3-0.7,0.2-1c-0.2-0.7-1-1.1-1.7-1.4c-0.7-0.3-1.6-0.3-2.4-0.3
		C461.8,441.7,461.3,441.6,460.8,441.6L460.8,441.6z M474.2,441.9c-0.3,0-0.6,0.3-0.9,0.4c-0.4,0.1-1-0.3-1.2,0.1
		c-0.1,0.2,0.2,0.5,0.5,0.7c0.4,0.2,1,0.2,1.4,0c0.2-0.1,0.5-0.3,0.5-0.5c0-0.2-0.1-0.4-0.2-0.6
		C474.4,441.9,474.3,441.9,474.2,441.9L474.2,441.9z M486.3,446c-0.5,0-1,0.1-1.4,0.4c-0.3,0.2-0.5,0.7-0.4,1c0.3,0.6,1.3,0.1,2,0.4
		c0.6,0.2,1.1,0.8,1.7,1c0.8,0.3,1.6,0.4,2.4,0.5c0.6,0.1,1.2,0.2,1.8,0c0.6-0.2,0.9-0.9,1.5-1.1c1.1-0.4,2.3,0.1,3.5,0.1
		c1.2,0,2.3,0.2,3.5,0.1c0.5,0,1-0.1,1.4-0.3c0.2-0.2,0.3-0.5,0.5-0.7c0.2-0.3,0.5-0.4,0.7-0.7c-0.9-0.9-2.5,0.1-3.7,0.1
		c-1.3,0-2.7-0.2-4,0c-1,0.1-1.8,0.6-2.8,0.7c-0.9,0.1-1.9,0.2-2.7-0.1c-0.4-0.2-0.5-0.8-0.9-1c-0.4-0.2-1-0.1-1.4-0.1
		C487.3,446,486.8,446,486.3,446L486.3,446z M439.5,448c-0.4,0-0.8,0.3-1.1,0.5c-0.2,0.2-0.3,0.6-0.5,0.7c-0.3,0.1-0.7-0.2-1.1-0.1
		c-0.3,0-0.8,0-1,0.3c-0.3,0.4-0.1,0.9,0.1,1.3c0.4,0.9,1.1,1.5,1.8,2.1c0.5,0.4,1,0.8,1.6,0.8c0.4,0,0.8-0.2,1.3-0.4
		c0.4-0.1,0.7-0.4,1.1-0.3c0.4,0.1,0.5,0.6,0.7,0.9c0.5,0.6,1,1.4,1.7,1.8c0.4,0.3,1,0.6,1.5,0.4c0.4-0.2,0.4-0.9,0.4-1.3
		c0-0.4-0.3-0.8-0.1-1.2c0.1-0.3,0.3-0.6,0.6-0.5c0.6,0.1,0.5,1.4,1.1,1.6c0.4,0.1,0.8-0.2,1.1-0.4c0.1-0.1,0.2-0.3,0.4-0.4
		c0.2-0.1,0.5,0,0.7,0.1c0.2,0.1,0.2,0.4,0.4,0.5c0.4,0.2,0.9-0.2,1.4-0.3c0.4-0.1,0.8-0.5,1.2-0.4c0.3,0,0.5,0.5,0.8,0.6
		c0.3,0.1,0.7,0.2,1,0.1c0.4-0.1,0.5-0.8,0.9-0.9c0.8-0.3,1.6,0.4,2.5,0.4c0.8,0,1.6-0.2,2.4-0.4c0.9-0.2,1.9-0.5,2.8-1
		c0.3-0.2,0.6-0.5,1-0.6c0.7-0.2,1.6,0.5,2.2,0.1c0.2-0.1,0.2-0.4,0.2-0.5c-0.2-0.6-1.1-0.6-1.7-0.8c-0.7-0.3-1.3-0.9-2-0.7
		c-0.4,0.1-0.5,0.6-0.7,0.9c-0.4,0.4-0.9,0.9-1.4,1.2c-0.4,0.2-0.8,0.5-1.3,0.5c-0.6,0-0.9-0.7-1.5-0.8c-0.4-0.1-0.9,0.1-1.3,0.2
		c-0.5,0.1-0.8,0.6-1.3,0.6c-0.6,0-1.2-0.4-1.7-0.7c-0.3-0.2-0.4-0.7-0.7-0.9c-0.6-0.2-1.2,0.5-1.8,0.3c-0.4-0.1-0.6-0.6-0.9-0.8
		c-0.2-0.2-0.4-0.4-0.7-0.4c-0.5,0-0.6,0.7-1.1,0.9c-0.2,0.1-0.6,0.2-0.8,0c-0.3-0.2-0.2-0.8-0.5-1.1c-0.2-0.2-0.5-0.5-0.8-0.5
		c-0.3,0-0.5,0.2-0.7,0.3c-0.2,0.1-0.4,0.5-0.6,0.4c-0.3-0.1-0.2-0.5-0.4-0.7c-0.1-0.2-0.2-0.5-0.5-0.5c-0.8-0.1-1.1,1.4-1.9,1.4
		c-0.5,0-0.9-0.6-1.3-1c-0.4-0.4-0.7-1-1.2-1.1C439.6,448,439.6,448,439.5,448L439.5,448z M470.5,451.1c-0.4,0-0.8,0.1-0.9,0.4
		c-0.1,0.4,0.4,0.8,0.8,1c0.5,0.2,1.1-0.1,1.6,0c0.4,0.1,0.7,0.4,1,0.4c0.3,0.1,0.7,0.2,1,0c0.3-0.1,0.5-0.4,0.5-0.7
		c0-0.2-0.1-0.5-0.3-0.7c-0.5-0.4-1.4,0-2-0.1c-0.4-0.1-0.8-0.4-1.2-0.4C471,451.1,470.8,451.1,470.5,451.1L470.5,451.1z M466,455.2
		c-0.3,0-0.5,0-0.8,0c-0.6,0.1-1,0.6-1.4,0.9c-0.4,0.3-0.9,0.5-1.3,0.7c-0.6,0.4-1.2,0.9-1.9,1.1c-0.7,0.2-1.5-0.3-2.2-0.2
		c-0.3,0.1-0.9,0.2-0.9,0.5c0,0.6,1.2,0.4,1.6,0.8c0.2,0.2,0.3,0.4,0.3,0.7c-0.1,0.4-0.6,0.6-0.9,0.9c-0.3,0.4-0.9,0.8-0.8,1.2
		c0.2,0.5,1.1,0.7,1.6,0.6c0.5-0.1,0.7-0.9,1.2-1.1c0.4-0.1,0.9,0.4,1.2,0.1c0.3-0.2,0.2-0.7,0.3-1.1c0.1-0.4,0.2-0.8,0.5-1.1
		c0.3-0.4,1-0.4,1.3-0.7c0.2-0.3,0.1-0.8,0.4-1c0.5-0.4,1.3-0.1,1.9-0.2c0.6-0.1,1.3,0.1,1.8-0.3c0.3-0.2,0.6-0.7,0.4-1
		C467.8,455.5,466.9,455.2,466,455.2L466,455.2z M476.5,457.8c-0.1,0-0.2,0-0.3,0.1c-0.4,0.2-0.3,0.8-0.4,1.2c0,0.4,0.6,0.9,0.3,1.2
		c-0.5,0.6-1.6,0-2.4,0c-0.4,0-0.8,0-1.2,0.1c-0.4,0.1-0.8,0.3-1.2,0.4c-0.5,0.2-0.9,0.3-1.4,0.5c-0.6,0.3-1.2,0.7-1.8,1.1
		c-0.5,0.4-1,0.8-1.4,1.2c-0.3,0.3-0.6,0.7-1,0.8c-0.6,0.3-1.4,0.1-2.1,0.2c-0.9,0.1-2-0.1-2.7,0.4c-0.2,0.1-0.4,0.4-0.3,0.7
		c0.4,0.9,1.8,0.7,2.7,0.8c0.7,0.1,1.5-0.3,2.2-0.3c0.6,0,1.3,0.2,1.9,0.3c0.8,0.1,1.5,0.4,2.3,0.4c0.4,0,0.9-0.1,1.2-0.4
		c0.4-0.4,0.4-1.2,0.7-1.7c0.3-0.5,0.5-1.1,0.9-1.4c0.7-0.5,1.7-0.6,2.5-0.6c0.5,0,1.1,0.3,1.6,0.2c0.3,0,0.6-0.2,0.8-0.4
		c0.3-0.3,0.2-0.9,0.5-1.1c0.5-0.4,1.3,0.1,1.9-0.1c0.4-0.2,0.7-0.5,0.8-0.8c0.1-0.4,0.2-0.9,0-1.2c-0.4-0.5-1.2-0.2-1.8-0.4
		c-0.6-0.2-1.1-0.6-1.7-0.9C477.1,458.1,476.8,457.9,476.5,457.8L476.5,457.8z M491.6,463c-0.4,0-0.8,0.5-1.2,0.7
		c-0.6,0.3-1.1,1-1.8,1c-0.4,0-0.7-0.5-1.1-0.4c-0.7,0-1.3,0.5-1.8,1c-0.4,0.3-0.6,0.8-1,1.1c-0.3,0.2-0.6,0.5-1,0.5
		c-0.6,0-1.1-0.6-1.7-0.6c-0.3,0-0.6,0.1-0.8,0.4c-0.4,0.4-0.4,1.1-0.4,1.7c0,0.5,0.3,1.1,0.5,1.6c0.2,0.5,0.4,1.2,0.9,1.5
		c0.3,0.2,0.7,0.3,1,0.2c0.6-0.2,0.8-1,1.3-1.4c0.3-0.3,0.6-0.6,1-0.7c0.8-0.3,1.8,0.2,2.7,0c0.8-0.1,1.6-0.4,2.3-0.9
		c0.6-0.4,1.1-1.1,1.6-1.7c0.4-0.6,0.7-1.2,0.9-1.8c0.1-0.2,0.2-0.5,0.3-0.7c0-0.2,0.2-0.4,0.1-0.6c-0.2-0.3-0.8,0.1-1.1,0
		C492,463.5,491.9,463,491.6,463C491.7,463,491.6,463,491.6,463L491.6,463z M439.7,467.2c-0.2,0-0.3,0-0.5,0.2
		c-0.3,0.3-0.1,0.8,0,1.2c0.3,0.6,0.8,1,1.4,1.2c0.7,0.3,1.5,0,2.2,0c0.6-0.1,1.1-0.2,1.7-0.3c0.7-0.1,1.4-0.2,2,0
		c0.3,0.1,0.6,0.2,0.8,0.4c0.5,0.4,0.8,1,1.3,1.3c0.6,0.3,1.2,0.6,1.9,0.6c0.8,0.1,1.5-0.1,2.3-0.3c0.4-0.1,0.7-0.5,1.1-0.6
		c0.6-0.2,1.3-0.1,1.9-0.1c0.5,0,1,0.4,1.4,0.1c0.3-0.2,0.5-0.7,0.3-1c-0.3-0.5-1.2,0.1-1.8-0.1c-0.3-0.1-0.4-0.5-0.7-0.5
		c-0.7-0.1-1.3,0.3-2,0.4c-0.8,0.2-1.6,0.8-2.5,0.9c-0.6,0.1-1.5,0.2-1.9-0.3c-0.2-0.3,0.1-0.8,0.2-1.2c0-0.3,0.3-0.7,0.1-0.9
		c-0.8-0.9-2.4,0.1-3.6,0.1c-1,0-2,0.1-3-0.1c-0.6-0.1-1.2-0.5-1.8-0.7C440.4,467.3,440,467.2,439.7,467.2L439.7,467.2z
		 M475.9,467.9c-0.1,0-0.2,0-0.3,0c-0.4,0.2-0.5,0.8-0.8,1.1c-0.4,0.3-0.8,0.5-1.3,0.7c-0.7,0.3-1.5,0.5-2.3,0.7
		c-0.6,0.1-1.3,0-1.9,0c-0.4,0-1-0.3-1.3,0c-0.3,0.2-0.4,0.7-0.2,1c0.7,0.8,2.1,0.1,3.2,0.1c1,0,2-0.2,3-0.3c1,0,2.1,0,3.1,0
		c0.9,0,1.9,0.3,2.8,0.1c0.3-0.1,0.5-0.2,0.7-0.4c0.1-0.2,0-0.4-0.1-0.7c0-0.2-0.2-0.3-0.2-0.4c-0.3-0.6-1.5,0-2.1-0.3
		c-0.6-0.3-1-0.9-1.6-1.2C476.5,468.1,476.2,467.9,475.9,467.9L475.9,467.9z M486.3,483c-0.4,0-0.7,0.1-1,0.2
		c-0.4,0.2-0.6,0.8-1.1,1c-0.4,0.3-1,0.2-1.4,0.4c-0.3,0.2-0.8,0.3-0.9,0.7c0,0.3,0.3,0.6,0.6,0.7c1,0.4,2.2-0.2,3.2-0.4
		c0.7-0.2,1.4-0.3,2.1-0.7c0.3-0.2,0.7-0.4,0.7-0.7c0-0.3-0.2-0.6-0.4-0.8c-0.2-0.2-0.4-0.2-0.7-0.3C487,483,486.6,483,486.3,483z
		 M476.3,485.4c-0.4,0-0.8,0.1-1.2,0.1c-0.3,0-0.8-0.1-1,0.2c-0.2,0.2-0.1,0.7,0.1,0.9c0.4,0.3,1,0.1,1.5,0c0.4-0.1,1,0,1.3-0.4
		c0.1-0.1,0.2-0.4,0-0.5C476.9,485.5,476.6,485.4,476.3,485.4L476.3,485.4z"/>
	<path class="st1" d="M375,281.9c-75.9,0-137.5,61.6-137.5,137.5c0,75.9,61.6,137.5,137.5,137.5c0,0,0,0,0,0
		c75.9,0,137.5-61.6,137.5-137.5c0,0,0,0,0,0C512.5,343.5,450.9,281.9,375,281.9z M375,289.6c71.7,0,129.8,58.1,129.8,129.8
		c0,71.7-58.1,129.8-129.8,129.8c0,0,0,0,0,0c-71.7,0-129.8-58.1-129.8-129.8C245.2,347.7,303.3,289.6,375,289.6L375,289.6z"/>
	<g>
		<path class="st12" d="M295.3,506.2c-0.3,0-0.7,0-1,0c-0.4,0-1.2-0.2-1.3,0.2c-0.2,0.7,1,1,1.6,1.4c1,0.8,2.2,1.4,3.3,2
			c0.9,0.5,1.8,0.8,2.6,1.4c0.6,0.5,1.2,1.1,1.7,1.7c0.2,0.3,0.5,0.5,0.6,0.9c0.1,0.7,0,1.4-0.3,2c-0.5,1.2-1.5,2.1-2.4,3
			c-1.1,1.4-2.3,2.8-3.6,4c-0.6,0.6-1.3,1.1-2,1.6c-0.5,0.3-2.1,1.5-2,1.9c0.1,0.2,0.4,0.3,0.6,0.3c3.9,0.9,7.9,0,11.9-0.1
			c3.6-0.1,7.2-0.8,10.8-0.7c1.4,0,2.9,0.1,4.3,0.3c2,0.4,4,1.2,6,1.7c2.4,0.7,4.9,1.3,7.3,1.9c3.7,0.8,7.4,1.5,11.1,1.8
			c3.1,0.2,6.2,0.2,9.3-0.1c1.5-0.2,4.3-1,4.3-1s0.3-6.9,0.2-10.2c0-0.6,0.2-1.3,0.6-1.9c0.3-0.5,0.9-0.7,1.4-1
			c0.5-0.3,1.1-0.6,1.7-0.7c0.9-0.3,1.8-0.3,2.7-0.5c1.6-0.3,3.3-0.4,4.8-0.9c0.4-0.1,0.9-0.2,1.1-0.6c0.3-0.6,0-1.5-0.4-2.1
			c-0.3-0.5-0.9-0.8-1.4-1c-0.7-0.3-1.4-0.3-2.2-0.4c-1.5-0.1-3,0-4.5,0.1c-1.7,0.1-3.4,0.4-5.1,0.6c-2.8,0.3-5.6,0.8-8.4,1.1
			c-1.6,0.1-3.2,0.2-4.8,0.2c-2.1,0-4.1,0.1-6.2-0.1c-2.3-0.1-4.5-0.4-6.8-0.8c-2.2-0.4-4.4-1.1-6.6-1.6c-3-0.8-6.1-1.6-9.1-2.4
			c-1.8-0.5-3.6-1.2-5.5-1.5c-1.7-0.3-3.5-0.2-5.3-0.3c-2-0.1-3.9,0-5.9-0.1C297.3,506.3,296.3,506.2,295.3,506.2L295.3,506.2z
			 M446.9,507.8c-1.4,0-2.8,0.1-4.2,0.3c-2.1,0.2-4.2,0.6-6.3,1.1c-1.9,0.5-3.8,1.1-5.6,1.7c-1.8,0.6-3.4,1.4-5.2,1.9
			c-1.7,0.5-3.5,1-5.3,1.4c-2,0.4-4,0.6-6,0.7c-1.6,0.1-3.1,0.1-4.7,0c-1.4-0.1-2.7-0.3-4.1-0.4c-2-0.2-3.9-0.5-5.9-0.9
			c-1.4-0.2-2.8-0.6-4.3-0.9c-1.8-0.3-3.6-0.4-5.4-0.6c-1-0.1-1.9-0.2-2.9-0.2c-2,0-4.1-0.3-6.1,0.3c-0.8,0.2-1.9,0.4-2.2,1.1
			c-0.2,0.4,0.1,1,0.5,1.4c0.7,0.6,1.8,0.6,2.7,0.8c1.3,0.3,2.7,0.2,4.1,0.5c0.9,0.2,1.8,0.5,2.6,1c0.5,0.3,1,0.6,1.3,1.1
			c0.3,0.5,0.5,1.8,0.5,1.8l0.2,9.7c0,0,1,0.4,1.5,0.6c1.7,0.4,3.5,0.6,5.2,0.9c2,0.3,4.1,0.5,6.1,0.6c1.9,0.1,3.9,0,5.8-0.1
			c2.3-0.1,4.5-0.2,6.8-0.5c2.6-0.3,5.2-0.8,7.8-1.3c1.7-0.4,3.3-0.9,5-1.3c1.1-0.3,2.2-0.5,3.3-0.7c1.3-0.2,2.6-0.4,3.8-0.4
			c1.7-0.1,3.4,0,5,0.2c2.6,0.2,5.1,0.8,7.7,1c1.4,0.1,2.8,0.2,4.2,0.2c1.2,0.1,2.7,0.7,3.4-0.2c0.1-0.1,0-0.4-0.1-0.5
			c-0.4-0.6-1.1-0.9-1.7-1.4c-1.2-0.9-2.6-1.7-3.7-2.7c-1.1-1-2.1-2.2-3.2-3.3c-0.6-0.7-1.5-1.2-1.9-2c-0.2-0.4-0.4-0.8-0.4-1.3
			c0-0.5,0.3-1,0.6-1.4c0.6-0.8,1.5-1.4,2.2-2c1.1-0.9,2.3-1.8,3.6-2.6c0.9-0.5,2-0.7,2.7-1.3c0.2-0.2,0.5-0.4,0.4-0.6
			c-0.2-0.6-1.3-0.5-1.9-0.6c-1.5-0.3-3-0.5-4.5-0.6C447.8,507.8,447.3,507.7,446.9,507.8L446.9,507.8z M374.4,519.7
			c-2.5,0-4.9,0.8-7.4,1.1c-2.4,0.3-7.2,0.6-7.2,0.6s-0.4,8.7,0.1,13c0.1,0.8,0.2,1.5,0.4,2.2c0.1,0.4,0.1,0.8,0.4,1.1
			c0.4,0.3,0.9,0.2,1.4,0.2c1.1,0.1,2.2,0,3.3-0.1c1.6-0.2,3.1-0.5,4.7-0.8c1.2-0.2,2.4-0.7,3.6-0.8c0.8-0.1,1.7-0.1,2.5,0
			c1.2,0.1,2.3,0.4,3.4,0.6c1.6,0.3,3.2,0.6,4.8,0.9c0.9,0.2,1.9,0.8,2.8,0.4c0.5-0.2,0.7-0.8,0.9-1.2c0.2-0.4,0.3-0.8,0.3-1.2
			c0.6-4.8-0.1-14.4-0.1-14.4s-3.6-0.2-5.3-0.4C380.3,520.6,377.3,519.7,374.4,519.7L374.4,519.7z"/>
		<path class="st13" d="M318.5,513.8c-0.5,0-1,0.1-1.5,0.2c-0.5,0.2-0.9,0.4-1.2,0.8c-0.4,0.3-0.7,0.8-0.9,1.2
			c-0.3,0.6-0.4,1.4-0.4,2.4c0,1.5,0.4,2.7,1.2,3.6c0.8,0.9,1.9,1.4,3.3,1.5c1.4,0.1,2.5-0.3,3.3-1c0.8-0.8,1.2-1.9,1.2-3.5
			c0-1.5-0.4-2.7-1.2-3.6c-0.8-0.9-1.9-1.4-3.3-1.5C318.8,513.8,318.7,513.8,318.5,513.8z M437,514.6l-1.9,0.3l-3.6,10.3l1.7-0.3
			c0.2-0.5,0.3-1,0.5-1.5c0.2-0.5,0.4-1,0.5-1.5l3.5-0.5l1,2.7l1.7-0.3L437,514.6z M327.4,515.3v9.8l1.7,0.2v-4l2.5,0.2
			c0.3,0,0.5,0.1,0.6,0.2c0.2,0.1,0.3,0.2,0.4,0.3c0.1,0.1,0.2,0.3,0.2,0.4c0.1,0.2,0.1,0.3,0.1,0.4v1.5c0,0.1,0,0.2,0,0.3
			c0,0.1,0,0.2,0,0.3c0,0.1,0.1,0.2,0.1,0.4c0,0.1,0.1,0.2,0.2,0.4l1.8,0.2c-0.1-0.2-0.3-0.5-0.4-0.8c-0.1-0.2-0.1-0.4-0.1-0.6v-1.4
			c0-0.2,0-0.4-0.1-0.6c0-0.2-0.1-0.4-0.2-0.6c-0.1-0.2-0.2-0.4-0.4-0.5c-0.2-0.2-0.3-0.3-0.6-0.4c0.5-0.2,0.8-0.5,1-0.9
			c0.2-0.4,0.3-0.7,0.3-1.2c0-0.3-0.1-0.7-0.2-1.1c-0.1-0.4-0.3-0.7-0.6-1c-0.3-0.3-0.6-0.6-1-0.8c-0.4-0.2-0.9-0.3-1.3-0.4
			L327.4,515.3z M319.1,515.5c0.8,0.1,1.4,0.4,1.9,0.9c0.5,0.6,0.7,1.4,0.7,2.4c0,1.1-0.2,1.9-0.7,2.4c-0.5,0.5-1.1,0.7-1.8,0.7
			c-0.8-0.1-1.4-0.4-1.9-0.9c-0.5-0.6-0.7-1.4-0.7-2.5c0-1.1,0.2-1.9,0.7-2.4C317.7,515.6,318.3,515.4,319.1,515.5z M431.7,515.7
			l-7.8,1.7v1.4l3.1-0.7v8.4l1.7-0.4v-8.4l3.1-0.7V515.7z M396.2,516.7v9.8l1.6,0.2v-3.9l2.2,0.2c0.5,0.1,0.9,0,1.3-0.1
			c0.4-0.1,0.7-0.3,1-0.6c0.3-0.2,0.5-0.5,0.6-0.9c0.1-0.3,0.2-0.7,0.2-1.1c0-0.4-0.1-0.7-0.2-1.1c-0.1-0.4-0.3-0.7-0.6-1
			c-0.3-0.3-0.6-0.6-1-0.8c-0.4-0.2-0.9-0.4-1.3-0.4L396.2,516.7z M329.1,516.8l2.5,0.2c0.2,0,0.4,0.1,0.6,0.2
			c0.2,0.1,0.3,0.2,0.5,0.4c0.1,0.1,0.2,0.3,0.3,0.5c0.1,0.2,0.1,0.4,0.1,0.6c0,0.2,0,0.4-0.1,0.6c-0.1,0.2-0.2,0.3-0.3,0.4
			c-0.1,0.1-0.3,0.2-0.5,0.3c-0.2,0.1-0.4,0.1-0.6,0l-2.5-0.2V516.8z M436,516.8l1.2,3.3l-2.5,0.4L436,516.8z M342.6,517.1
			c-0.5,0-1,0.1-1.5,0.2c-0.4,0.1-0.8,0.4-1.2,0.7c-0.4,0.3-0.7,0.8-0.9,1.2c-0.3,0.6-0.4,1.4-0.4,2.4c0,1.5,0.4,2.7,1.2,3.6
			c0.8,0.9,1.9,1.4,3.3,1.5c1.4,0.1,2.5-0.2,3.3-1c0.8-0.8,1.2-1.9,1.2-3.4c0-1.5-0.4-2.7-1.2-3.7c-0.8-0.9-1.9-1.4-3.3-1.5
			C343,517.1,342.8,517.1,342.6,517.1L342.6,517.1z M405.7,517.2v9.8l6.3,0.6v-1.4l-4.7-0.5v-8.3L405.7,517.2z M417.8,517.9
			l-3.6,9.8l1.7,0c0.2-0.5,0.3-0.9,0.5-1.4c0.2-0.5,0.4-1,0.5-1.4l3.5,0l1,2.9l1.7,0l-3.6-9.8L417.8,517.9z M397.8,518.2l1.9,0.2
			c0.3,0,0.6,0.1,0.8,0.2c0.2,0.1,0.4,0.2,0.6,0.4c0.2,0.1,0.3,0.3,0.4,0.5c0.1,0.2,0.1,0.4,0.1,0.6c0,0.2,0,0.4-0.1,0.6
			c-0.1,0.2-0.2,0.3-0.3,0.5c-0.2,0.1-0.4,0.2-0.6,0.3c-0.2,0.1-0.5,0.1-0.9,0l-1.9-0.2L397.8,518.2z M343.2,518.8
			c0.8,0.1,1.4,0.4,1.9,0.9c0.5,0.6,0.7,1.4,0.7,2.4c0,1.1-0.2,1.9-0.7,2.4c-0.5,0.5-1.1,0.7-1.8,0.7c-0.8-0.1-1.4-0.4-1.9-1
			c-0.5-0.6-0.7-1.4-0.7-2.5c0-1.1,0.2-1.9,0.7-2.3C341.8,518.9,342.4,518.7,343.2,518.8z M418.8,520l1.2,3.5l-2.5,0L418.8,520z
			 M369.9,523.9l3.5,5.9v3.9l1.7,0v-3.9l3.5-5.9l-1.9,0l-2.4,4.3l-2.5-4.3L369.9,523.9z M363.2,529.3v1.4l3.6,0v-1.4L363.2,529.3z
			 M382,529.4v1.4l3.6,0v-1.4L382,529.4z"/>
	</g>
</g>
</svg>
