<?xml version="1.0" encoding="utf-8"?>
<!-- Generator: Adobe Illustrator 27.0.1, SVG Export Plug-In . SVG Version: 6.00 Build 0)  -->
<svg version="1.1" id="Layer_1" xmlns="http://www.w3.org/2000/svg" xmlns:xlink="http://www.w3.org/1999/xlink" x="0px" y="0px"
	 viewBox="0 0 750 500" style="enable-background:new 0 0 750 500;" xml:space="preserve">
<style type="text/css">
	.st0{fill:#EAAA00;}
	.st1{fill:#FFFFFF;}
	.st2{fill:#9D2235;}
</style>
<rect width="750" height="500"/>
<path class="st0" d="M0,500V41.7l62.5,41.7V500H125V0h62.5v500H250V0h62.5v500H375V0h62.5v500H500V0h62.5v500H625V0h62.5v500H750
	v-41.7L62.5,0v83.3l625,416.7H0z"/>
<path class="st1" d="M375,0h187.5v250H750V125H375V0z"/>
<path class="st2" d="M562.5,0H750v125H375v125h187.5V0z"/>
<path id="cross" class="st2" d="M562.5,232.5c8.8,0,16-7.2,16-16v-8H594c8.8,0,16-7.2,16-16c0-8.8-7.2-16-16-16h-15.5V141H678v15.5
	c0,8.8,7.2,16,16,16c8.8,0,16-7.2,16-16V141h14c8.8,0,16-7.2,16-16H562.5V232.5z"/>
<path id="cross_00000078766690402518742940000010623054805093161618_" class="st1" d="M562.5,232.5c-8.8,0-16-7.2-16-16v-8H531
	c-8.8,0-16-7.2-16-16c0-8.8,7.2-16,16-16h15.5V141H447v15.5c0,8.8-7.2,16-16,16c-8.8,0-16-7.2-16-16V141h-14c-8.8,0-16-7.2-16-16
	h177.5V232.5z"/>
<path id="cross_00000133515630648351641710000016312494212452907688_" class="st1" d="M562.5,17.5c8.8,0,16,7.2,16,16v8H594
	c8.8,0,16,7.2,16,16s-7.2,16-16,16h-15.5V109H678V93.5c0-8.8,7.2-16,16-16c8.8,0,16,7.2,16,16V109h14c8.8,0,16,7.2,16,16H562.5V17.5
	z"/>
<path id="cross_00000000914808898172719640000009944063698806070665_" class="st2" d="M562.5,17.5c-8.8,0-16,7.2-16,16v8H531
	c-8.8,0-16,7.2-16,16s7.2,16,16,16h15.5V109H447V93.5c0-8.8-7.2-16-16-16c-8.8,0-16,7.2-16,16V109h-14c-8.8,0-16,7.2-16,16h177.5
	V17.5z"/>
<path class="st1" d="M0,250h187.5v250H375V375H0V250z"/>
<path class="st2" d="M187.5,250H375v125H0v125h187.5V250z"/>
<path id="cross_00000053538284413288889250000008928531877896258721_" class="st2" d="M187.5,482.5c8.8,0,16-7.2,16-16v-8H219
	c8.8,0,16-7.2,16-16c0-8.8-7.2-16-16-16h-15.5V391H303v15.5c0,8.8,7.2,16,16,16c8.8,0,16-7.2,16-16V391h14c8.8,0,16-7.2,16-16H187.5
	V482.5z"/>
<path id="cross_00000069391251710092037190000014925918498640160688_" class="st1" d="M187.5,482.5c-8.8,0-16-7.2-16-16v-8H156
	c-8.8,0-16-7.2-16-16c0-8.8,7.2-16,16-16h15.5V391H72v15.5c0,8.8-7.2,16-16,16s-16-7.2-16-16V391H26c-8.8,0-16-7.2-16-16h177.5
	V482.5z"/>
<path id="cross_00000122681094882158697310000001172038235237366670_" class="st1" d="M187.5,267.5c8.8,0,16,7.2,16,16v8H219
	c8.8,0,16,7.2,16,16c0,8.8-7.2,16-16,16h-15.5V359H303v-15.5c0-8.8,7.2-16,16-16c8.8,0,16,7.2,16,16V359h14c8.8,0,16,7.2,16,16
	H187.5V267.5z"/>
<path id="cross_00000163059896470391838690000006710071832178199955_" class="st2" d="M187.5,267.5c-8.8,0-16,7.2-16,16v8H156
	c-8.8,0-16,7.2-16,16c0,8.8,7.2,16,16,16h15.5V359H72v-15.5c0-8.8-7.2-16-16-16s-16,7.2-16,16V359H26c-8.8,0-16,7.2-16,16h177.5
	V267.5z"/>
</svg>
