<?xml version="1.0" encoding="utf-8"?>
<!-- Generator: Adobe Illustrator 27.0.1, SVG Export Plug-In . SVG Version: 6.00 Build 0)  -->
<svg version="1.1" id="Layer_1" xmlns="http://www.w3.org/2000/svg" xmlns:xlink="http://www.w3.org/1999/xlink" x="0px" y="0px"
	 viewBox="0 0 750 500" style="enable-background:new 0 0 750 500;" xml:space="preserve">
<style type="text/css">
	.st0{fill:#BA0C2F;}
	.st1{fill:#D69A2D;}
	.st2{fill:#041E42;}
	.st3{fill:#FFFFFF;}
</style>
<path class="st0" d="M0,0h750v500H0V0z"/>
<path class="st1" d="M131.9,0h486.1v500H131.9V0z"/>
<path class="st2" d="M166.7,0h416.7v500H166.7V0z"/>
<path class="st1" d="M355,94.3h13.7l4.2,5.8l-6.8,2.2L355,94.3 M394.3,94.3h-13.7l-4.2,5.8l6.8,2.2L394.3,94.3 M374.7,80l4.1,12.9
	l-4.2,5.8l-4.1-5.8L374.7,80 M386.7,117.3l-11-7.9v-7.2l6.8,2.2L386.7,117.3 M362.6,117.3l11-7.9v-7.2l-6.8,2.2L362.6,117.3"/>
<path class="st3" d="M237,155.7l9.4,3.1l5.9-8l-0.1,9.9l9.4,3.2l-9.5,3l-0.1,9.9l-5.8-8.1l-9.5,3l5.9-8L237,155.7 M218.1,188.9
	l9.9,0.9l4-9.1l2.2,9.7l9.9,1l-8.6,5l2.2,9.7l-7.5-6.5l-8.6,5l4-9.1L218.1,188.9 M218.5,214.4l4.3,9l9.8-1.4l-7.1,6.9l4.3,8.9
	l-8.8-4.7L214,240l1.7-9.7l-8.8-4.7l9.8-1.4L218.5,214.4 M204.4,263.3l9.3-3.6l-0.5-9.9l6.3,7.8l9.3-3.6l-5.4,8.3l6.3,7.8l-9.7-2.6
	l-5.5,8.3l-0.5-9.9L204.4,263.3 M210.1,301.1l8.3-5.6l-2.8-9.6l7.9,6.1l8.3-5.5l-3.4,9.3l7.8,6.1l-10-0.3l-3.4,9.3l-2.8-9.5
	L210.1,301.1 M226.4,320.8l9,4.3l6.9-7.2l-1.3,9.8l9,4.3l-9.8,1.8l-1.4,9.8l-4.6-8.7l-9.8,1.8l6.9-7.2L226.4,320.8 M244.7,352.1
	l9.6,2.3l5.2-8.5l0.8,9.9l9.7,2.3l-9.2,3.8l0.8,9.9l-6.5-7.6l-9.1,3.9l5.2-8.5L244.7,352.1 M329.6,91.9l5.5,8.3l9.6-2.6l-6.2,7.8
	l5.5,8.2l-9.4-3.5l-6.2,7.8l0.4-9.9l-9.3-3.5l9.6-2.6L329.6,91.9 M294,105.9l7.2,6.9l8.7-4.7l-4.3,9l7.2,6.9l-9.8-1.4l-4.3,9
	l-1.8-9.8l-9.8-1.4l8.8-4.7L294,105.9 M279,126.3l-2.4,9.7l8.5,5.2l-9.9,0.8l-2.4,9.6l-3.7-9.2l-9.9,0.8l7.6-6.5l-3.7-9.2l8.4,5.3
	L279,126.3 M513,155.7l-9.4,3.1l-5.9-8l0.1,9.9l-9.4,3.2l9.5,3l0.1,9.9l5.8-8.1l9.5,3l-5.9-8L513,155.7 M531.9,188.9l-9.9,0.9
	l-4-9.1l-2.2,9.7l-9.9,1l8.6,5l-2.2,9.7l7.5-6.5l8.6,5l-4-9.1L531.9,188.9 M531.5,214.4l-4.3,9l-9.8-1.4l7.1,6.9l-4.3,8.9l8.8-4.7
	l7.2,6.9l-1.7-9.7l8.8-4.7l-9.8-1.4L531.5,214.4 M545.6,263.3l-9.3-3.6l0.5-9.9l-6.3,7.8l-9.3-3.6l5.4,8.3l-6.3,7.8l9.7-2.6l5.5,8.3
	l0.5-9.9L545.6,263.3 M539.9,301.1l-8.3-5.6l2.8-9.6l-7.9,6.1l-8.3-5.5l3.4,9.3l-7.8,6.1l10-0.3l3.4,9.3l2.8-9.5L539.9,301.1
	 M523.6,320.8l-9,4.3l-6.9-7.2l1.3,9.8l-9,4.3l9.8,1.8l1.4,9.8l4.6-8.7l9.8,1.8l-6.9-7.2L523.6,320.8 M505.3,352.1l-9.6,2.3
	l-5.2-8.5l-0.8,9.9l-9.7,2.3l9.2,3.8l-0.8,9.9l6.5-7.6l9.1,3.9l-5.2-8.5L505.3,352.1 M420.4,91.9l-5.5,8.3l-9.6-2.6l6.2,7.8
	l-5.5,8.2l9.4-3.5l6.2,7.8l-0.4-9.9l9.3-3.5l-9.6-2.6L420.4,91.9 M456,105.9l-7.2,6.9l-8.7-4.7l4.3,9l-7.2,6.9l9.8-1.4l4.3,9
	l1.8-9.8l9.8-1.4l-8.8-4.7L456,105.9 M471,126.3l2.4,9.7l-8.5,5.2l9.9,0.8l2.4,9.6l3.7-9.2l9.9,0.8l-7.6-6.5l3.7-9.2l-8.4,5.3
	L471,126.3 M272.1,383.6c0.1-0.1,0.1-0.2,0.2-0.2c0.6,0.1,1.2-0.1,1.7-0.5c0.6-0.4,1.4-1.3,2.6-2.9c0.2-0.2,0.4-0.5,0.6-0.7
	c1.3-1.7,2.6-3.3,4-5c0.4-0.5,0.6-0.9,0.7-1.1c0-0.2,0-0.5-0.2-0.8c0.1-0.1,0.1-0.2,0.2-0.2c0.6,0.5,1,0.9,1.3,1.1
	c0.3,0.2,0.6,0.5,0.8,0.7c0.3,0.2,0.5,0.4,0.8,0.6s0.8,0.6,1.4,1c-0.1,0.1-0.1,0.2-0.2,0.2c-0.3-0.1-0.6-0.1-0.8,0
	c-0.2,0.1-0.5,0.4-1,0.9c-1.5,1.9-3,3.8-4.5,5.7c-1.2,1.5-1.9,2.6-2.2,3.2c-0.2,0.7-0.3,1.2,0,1.8c-0.1,0.1-0.1,0.2-0.2,0.2
	c-0.4-0.3-0.8-0.7-1.2-1c-0.4-0.4-0.9-0.7-1.4-1.1c-0.5-0.4-0.9-0.7-1.4-1.1C273,384.2,272.5,383.9,272.1,383.6 M287.7,380.6
	c-0.9,1.3-1.7,2.6-2.6,4c-1.4,2.1-2.1,3.6-2.3,4.4c-0.2,0.8,0,1.6,0.5,2.4c-0.1,0.1-0.1,0.2-0.2,0.3c-0.3-0.2-0.7-0.5-1-0.7
	c-0.3-0.2-0.7-0.5-1.2-0.8c-0.4-0.3-0.8-0.5-1.2-0.8c-0.4-0.2-0.7-0.4-1.1-0.6c0.1-0.1,0.1-0.2,0.2-0.3c0.8,0.2,1.6,0,2.3-0.5
	c0.7-0.5,1.7-1.8,3.1-4c0.9-1.3,1.8-2.7,2.6-4c0.5-0.8,0.8-1.5,0.8-1.9c0-0.4-0.2-0.9-0.6-1.4c0.1-0.1,0.1-0.2,0.1-0.2
	c0.2,0.1,0.6,0.4,1.2,0.8c0.6,0.4,1,0.7,1.4,0.9c0.2,0.1,0.5,0.3,0.8,0.5c0.4,0.2,0.6,0.4,0.8,0.5c0.3,3.6,0.7,7.3,1,10.9
	c0.3-0.4,0.6-0.9,0.8-1.3c1.4-2.1,2.2-3.6,2.3-4.4c0.2-0.8,0-1.6-0.5-2.3c0.1-0.1,0.1-0.2,0.2-0.3c0.2,0.2,0.5,0.4,0.8,0.6
	c0.3,0.2,0.8,0.5,1.4,0.9c0.6,0.4,1.1,0.7,1.4,0.9c0.3,0.2,0.6,0.4,0.9,0.5l-0.2,0.3c-0.9-0.2-1.6-0.1-2.4,0.5
	c-0.7,0.5-1.8,1.8-3.1,3.9c-1.5,2.4-3.1,4.7-4.6,7.1c-0.1-0.1-0.3-0.2-0.4-0.3C288.7,391,288.1,385.8,287.7,380.6 M317.6,401
	c0,0.1,0,0.2-0.1,0.2c-0.5,0-1,0.2-1.3,0.6c-0.4,0.4-0.9,1.5-1.6,3.1c-0.1,0.2-0.2,0.4-0.2,0.6c-0.1,0.2-0.2,0.5-0.3,0.7
	c-1.1,0.3-2.2,0.3-3.3,0.3c-1.1-0.1-2.1-0.3-3.2-0.7c-1-0.4-1.8-0.9-2.5-1.6c-0.7-0.7-1.2-1.4-1.5-2.4c-0.3-1-0.5-2-0.5-3
	c0-1,0.2-2,0.6-3c0.4-0.9,0.9-1.7,1.5-2.5c0.6-0.7,1.4-1.3,2.2-1.8c1-0.5,2-0.8,3.1-0.8c1.1-0.1,2.2,0.1,3.2,0.6
	c0.9,0.4,1.7,0.9,2.5,1.5c0.7,0.6,1.5,1.4,2.2,2.4c-0.8,1.1-1.7,2.2-2.6,3.3c-0.1-0.1-0.2-0.1-0.3-0.2c0.4-1.6,0.4-2.9,0.2-3.9
	c-0.3-1-0.9-1.6-1.8-2c-1.1-0.5-2.3-0.3-3.5,0.7c-1.2,0.9-2.2,2.4-3,4.4c-0.8,2-1.2,3.6-1.1,4.9c0.1,1.3,0.6,2.2,1.6,2.6
	c0.6,0.3,1.2,0.2,1.8-0.1c0.5-0.3,1-1,1.4-1.9c0.6-1.4,0.8-2.4,0.8-2.9c0-0.5-0.3-1-0.8-1.4c0-0.1,0.1-0.1,0.1-0.2
	c0.5,0.2,1,0.4,1.5,0.7c0.5,0.2,1,0.4,1.5,0.6c0.5,0.2,1,0.4,1.6,0.6C316.5,400.6,317,400.8,317.6,401 M324.2,411.9
	c1.1,0.4,2,0.1,3-0.9c0.9-0.9,1.7-2.6,2.5-4.8c0.8-2.3,1.1-4,1-5.3c-0.2-1.3-0.7-2.1-1.8-2.5c-1-0.4-2-0.1-2.9,0.8
	c-0.9,0.9-1.7,2.5-2.5,4.9c-0.8,2.3-1.1,4.1-1,5.4C322.6,410.7,323.2,411.5,324.2,411.9L324.2,411.9z M319.5,402.7
	c0.4-1.1,0.9-2.1,1.6-2.9c0.7-0.8,1.5-1.4,2.5-1.9c0.8-0.4,1.8-0.6,2.7-0.7c1-0.1,1.9,0.1,2.8,0.4c1,0.3,1.8,0.8,2.5,1.4
	c0.7,0.6,1.3,1.3,1.7,2.2c0.5,1,0.8,2,0.8,3c0,1-0.1,2.1-0.5,3.2c-0.3,0.8-0.6,1.5-1.1,2.2c-0.4,0.6-1,1.2-1.6,1.7
	c-1,0.8-2.2,1.3-3.4,1.5c-1.2,0.2-2.4,0.1-3.6-0.3c-1-0.3-1.8-0.8-2.6-1.4c-0.7-0.6-1.3-1.4-1.7-2.3c-0.5-0.9-0.7-1.9-0.8-3
	C318.9,404.8,319.1,403.8,319.5,402.7 M342.1,402.2c-0.7,3.3-1.4,6.5-2.1,9.8c-0.3,1.4-0.4,2.4-0.3,2.8c0.1,0.4,0.5,0.7,1,0.8
	c1.2,0.2,2.2-0.1,3-1.2c0.8-1,1.5-2.6,2-4.8c0.5-2.2,0.5-3.9,0.2-5.1c-0.3-1.2-1.2-1.9-2.4-2.1c-0.2,0-0.4-0.1-0.6-0.1
	C342.7,402.2,342.4,402.2,342.1,402.2L342.1,402.2z M334,414.9c0-0.1,0-0.2,0.1-0.3c0.6-0.2,1-0.6,1.4-1.2c0.3-0.6,0.7-1.9,1.1-3.9
	c0-0.2,0.1-0.4,0.1-0.6c0.4-2.1,0.9-4.2,1.3-6.3c0.1-0.6,0.2-1.1,0.1-1.3c-0.1-0.2-0.3-0.5-0.5-0.7c0-0.1,0-0.2,0.1-0.3
	c0.6,0.2,1.1,0.3,1.7,0.4c0.5,0.1,1.1,0.3,1.5,0.4c0.5,0.1,1.1,0.2,1.8,0.4c0.7,0.1,1.1,0.2,1.3,0.3c2.4,0.5,4.2,1.5,5.2,3
	c1,1.5,1.3,3.3,0.8,5.6c-0.5,2.5-1.6,4.2-3.1,5.3c-1.5,1.1-3.5,1.4-5.8,0.9c-0.3-0.1-0.8-0.2-1.6-0.4c-0.8-0.2-1.4-0.4-1.8-0.4
	c-0.3-0.1-0.6-0.1-1.1-0.2C336.1,415.3,335.3,415.1,334,414.9 M379.6,404.9c0,0.1,0,0.2,0,0.3c-0.6,0.2-1.2,0.6-1.7,1.3
	c-0.6,0.7-1.2,1.8-1.8,3.2c-1.5,3.5-3,7-4.4,10.6c-0.1,0-0.1,0-0.2,0c-1-3.4-2.1-6.8-3.1-10.2c-1.3,3.3-2.7,6.5-4,9.8
	c-0.1,0-0.1,0-0.2,0c-1.2-4.3-2.6-8.5-3.8-12.8c-0.4-1.2-0.7-2-1-2.4c-0.3-0.4-0.7-0.6-1.1-0.7c0-0.1,0-0.2,0-0.3
	c0.1,0,0.3,0,0.6,0.1c1.2,0.1,2,0.2,2.4,0.2c0.5,0,1.5,0.1,3,0.1c0.4,0,0.7,0,0.9,0c0,0.1,0,0.2,0,0.3c-0.4,0.1-0.7,0.2-0.8,0.3
	c-0.2,0.2-0.3,0.5-0.3,0.8c0,0.2,0,0.4,0.1,0.7c0,0.3,0.1,0.5,0.2,0.9c0.6,2,1.1,3.9,1.7,5.9c1.3-3.1,2.6-6.3,3.9-9.4
	c0.1,0,0.1,0,0.2,0c1.1,3.4,2.2,6.7,3.2,10c0.3-1,0.7-2,1.1-3c0.3-0.9,0.6-1.7,0.8-2.4c0.2-0.7,0.3-1.2,0.3-1.5
	c0-0.5-0.1-0.9-0.3-1.3c-0.2-0.3-0.5-0.5-0.9-0.6c0-0.1,0-0.2,0-0.3c0.5,0,1,0.1,1.4,0.1c0.4,0,0.9,0.1,1.3,0.1c0.3,0,0.7,0,1.2,0.1
	C378.6,404.9,379,404.9,379.6,404.9 M381.8,419.8c0-0.1,0-0.2,0-0.3c0.5-0.3,0.8-0.8,0.9-1.5c0.2-0.6,0.2-1.7,0.1-3.1l-0.7-8.1
	c-0.1-0.7-0.1-1.1-0.3-1.3c-0.1-0.2-0.3-0.4-0.7-0.5c0-0.1,0-0.2,0-0.3c0.9,0,1.8-0.1,2.7-0.2c0.8-0.1,1.6-0.1,2.2-0.1
	c2-0.2,3.9-0.3,5.8-0.5c0.4,1.3,0.8,2.6,1.2,3.9c-0.1,0-0.2,0-0.3,0c-1.1-1.1-2.1-1.9-3-2.4c-1-0.5-2-0.6-3.1-0.6
	c-0.2,0-0.3,0-0.4,0c-0.1,0-0.2,0-0.2,0.1c0.2,2,0.3,3.9,0.5,5.9c0.2,0,0.4,0,0.5,0c0.1,0,0.2,0,0.3,0c1-0.1,1.8-0.4,2.4-0.8
	c0.6-0.4,0.9-1.1,1.1-1.9c0.1,0,0.2,0,0.3,0c0.2,1.9,0.3,3.8,0.5,5.7c-0.1,0-0.2,0-0.3,0c-0.3-0.8-0.8-1.4-1.4-1.8
	c-0.6-0.3-1.4-0.5-2.5-0.4c-0.1,0-0.2,0-0.3,0c-0.1,0-0.3,0-0.5,0.1c0.1,1.2,0.2,2.3,0.3,3.5c0.1,1.1,0.3,1.9,0.7,2.3
	c0.4,0.4,0.9,0.6,1.7,0.6c0.9-0.1,1.8-0.5,2.6-1.3c0.9-0.8,1.8-1.9,2.6-3.4c0.1,0,0.2,0,0.3,0.1c-0.2,1.7-0.5,3.4-0.8,5.1
	c-2.2,0.2-4.4,0.4-6.7,0.5c-0.4,0-1.2,0.1-2.1,0.2C384.1,419.6,383,419.7,381.8,419.8 M408.2,416.4c0-0.1,0-0.2-0.1-0.3
	c0.4-0.4,0.7-0.9,0.7-1.6c0-0.7-0.1-1.9-0.6-3.8c-0.1-0.3-0.1-0.6-0.2-0.9c-0.5-2.2-1-4.4-1.5-6.6c-0.1-0.3-0.1-0.5-0.2-0.5
	c-0.1-0.1-0.2-0.1-0.3-0.1c-0.5,0.1-1,0.5-1.6,1.3c-0.6,0.7-1.1,1.7-1.6,2.9c-0.1,0-0.2,0-0.3,0c0-1.5,0-2.9-0.1-4.3
	c3.8-0.9,7.6-1.7,11.4-2.6c0.6,1.3,1.2,2.6,1.8,3.9c-0.1,0-0.2,0.1-0.3,0.1c-1-0.8-1.9-1.5-2.7-1.9c-0.8-0.4-1.5-0.6-2-0.5
	c-0.2,0-0.3,0.1-0.3,0.2c0,0.1,0,0.3,0,0.6c0,0.2,0.1,0.4,0.1,0.6c0.5,2.3,1,4.6,1.6,6.9c0.4,1.9,0.8,3.1,1.2,3.7
	c0.3,0.6,0.8,1,1.4,1.2c0,0.1,0,0.2,0.1,0.3c-0.5,0.1-1,0.2-1.6,0.3c-0.5,0.1-1.1,0.2-1.7,0.4c-0.6,0.1-1.2,0.3-1.7,0.4
	C409.2,416.2,408.7,416.3,408.2,416.4 M421.1,413.2c0-0.1-0.1-0.2-0.1-0.3c0.4-0.5,0.6-1,0.5-1.7c0-0.7-0.4-1.9-1-3.7
	c-0.1-0.3-0.2-0.6-0.3-0.9c-0.7-2-1.4-4-2.1-6.1c-0.2-0.6-0.4-1-0.6-1.2c-0.2-0.2-0.4-0.3-0.8-0.3c0-0.1-0.1-0.2-0.1-0.3
	c0.5-0.2,1-0.3,1.6-0.5c0.5-0.2,1.3-0.4,2.3-0.8c0.6-0.2,1.1-0.4,1.7-0.6c2.3-0.8,4-1.1,5.2-0.9c1.2,0.2,2,0.9,2.4,2.1
	c0.3,0.9,0.2,1.8-0.3,2.6c-0.5,0.8-1.5,1.6-2.8,2.3c1-0.2,1.9-0.2,2.6,0.1c0.7,0.3,1.4,0.7,2,1.4c0.2,0.3,0.6,0.7,1,1.2
	c1.3,1.6,2.4,2.4,3.1,2.3c0,0.1,0.1,0.2,0.1,0.3c-0.8,0.3-1.5,0.5-1.9,0.6c-0.5,0.2-0.9,0.3-1.3,0.5c-0.5,0.2-0.9,0.3-1.2,0.4
	c-0.3,0.1-0.5,0.2-0.8,0.3c-0.2-0.3-0.5-0.7-0.8-1.2c-2.3-3.5-4.1-5-5.3-4.5c-0.1,0-0.2,0.1-0.4,0.2c0,0,0,0,0,0
	c0.2,0.5,0.4,1.1,0.6,1.6c0.7,1.9,1.2,3.1,1.6,3.6c0.4,0.6,0.9,0.9,1.5,1c0,0.1,0.1,0.2,0.1,0.3c-0.5,0.1-1,0.3-1.5,0.5
	c-0.5,0.2-1.1,0.4-1.7,0.6c-0.6,0.2-1.1,0.4-1.6,0.6C422.1,412.8,421.6,413,421.1,413.2L421.1,413.2z M423.4,403.5
	c0.1,0,0.2-0.1,0.4-0.1c0.1,0,0.3-0.1,0.6-0.2c0.9-0.3,1.5-0.8,1.8-1.3c0.2-0.6,0.2-1.3-0.1-2.3c-0.3-0.9-0.8-1.5-1.3-1.8
	c-0.6-0.3-1.2-0.3-2.1,0c-0.3,0.1-0.5,0.2-0.6,0.2c-0.1,0.1-0.3,0.1-0.4,0.2L423.4,403.5 M431,394.8c0-0.1-0.1-0.2-0.1-0.3
	c0.9-0.4,1.5-0.6,1.9-0.8c0.4-0.2,0.8-0.3,1.2-0.5c0.7-0.3,1.6-0.8,2.9-1.5c0,0,0,0,0.1,0c0,0.1,0.1,0.2,0.1,0.3
	c-0.3,0.5-0.5,1.1-0.4,1.7c0.1,0.7,0.6,1.9,1.4,3.6c0.1,0.3,0.3,0.6,0.4,0.8c0.4,0.8,0.8,1.6,1.1,2.5c0.7,1.6,1.5,2.6,2.3,3.1
	c0.8,0.5,1.7,0.5,2.8,0.1c0.5-0.2,0.9-0.6,1.2-1c0.3-0.5,0.5-1,0.6-1.6c0-0.4,0-0.8-0.1-1.3c-0.1-0.5-0.4-1.2-0.8-2.1
	c-0.3-0.6-0.5-1.2-0.8-1.8c-1.1-2.3-1.9-3.7-2.5-4.4c-0.6-0.6-1.4-0.9-2.2-0.8c0-0.1-0.1-0.2-0.1-0.3c0.3-0.1,0.6-0.3,0.9-0.4
	c0.3-0.1,0.8-0.4,1.5-0.7c0.7-0.3,1.2-0.5,1.5-0.7c0.3-0.2,0.6-0.3,0.9-0.4c0,0.1,0.1,0.2,0.1,0.3c-0.6,0.6-0.9,1.4-0.8,2.2
	c0,0.9,0.6,2.5,1.7,4.8c0.3,0.6,0.5,1.2,0.8,1.8c0.9,2.1,1.2,3.7,0.8,5c-0.4,1.3-1.6,2.4-3.4,3.2c-1.8,0.8-3.3,1-4.5,0.5
	c-1.2-0.5-2.2-1.6-3.1-3.4c-0.5-1-0.9-2-1.4-3c-1-2.1-1.7-3.4-2.2-4C432.1,395.1,431.5,394.8,431,394.8 M453.3,399.7
	c-0.5-1.4-1-2.7-1.5-4.1c0.1,0,0.2-0.1,0.3-0.2c1,1,2.1,1.7,3.2,1.9c1.1,0.3,2.1,0.1,2.9-0.5c0.7-0.5,1.1-1.1,1.2-1.9
	c0.1-0.8-0.1-1.5-0.6-2.2c-0.4-0.6-0.9-0.9-1.5-1.1c-0.6-0.1-1.3,0-2.1,0.3c-0.2,0.1-0.4,0.2-0.7,0.3c-1.5,0.6-2.6,0.9-3.3,0.8
	c-0.5,0-1-0.2-1.4-0.5s-0.9-0.7-1.3-1.3c-0.8-1.2-1-2.4-0.7-3.8c0.4-1.3,1.3-2.5,2.7-3.6c0.7-0.5,1.4-0.9,2.2-1.2
	c0.8-0.3,1.7-0.6,2.7-0.7c0.4,1.2,0.8,2.4,1.2,3.6c-0.1,0.1-0.2,0.1-0.3,0.2c-0.8-0.9-1.6-1.5-2.5-1.7c-0.9-0.2-1.7-0.1-2.5,0.4
	c-0.6,0.4-0.9,0.9-1,1.5c-0.1,0.6,0.1,1.2,0.5,1.8c0.4,0.6,0.9,0.9,1.3,1c0.5,0.1,1.4-0.1,2.6-0.6c1.6-0.7,2.9-0.9,3.8-0.7
	c0.9,0.2,1.8,0.8,2.5,1.8c0.9,1.3,1.2,2.6,0.8,4.1c-0.4,1.5-1.4,2.8-3,3.9c-0.9,0.6-1.8,1.1-2.8,1.5
	C455.2,399.4,454.3,399.7,453.3,399.7 M469.6,389.8c-0.1-0.1-0.1-0.2-0.2-0.3c0.2-0.5,0.2-1.1,0-1.8c-0.2-0.6-0.9-1.7-2.1-3.3
	c-0.2-0.2-0.4-0.5-0.5-0.7c-1.4-1.8-2.7-3.6-4.1-5.5c-0.2-0.2-0.3-0.4-0.4-0.4c-0.1,0-0.2,0-0.3,0.1c-0.4,0.3-0.7,0.9-0.9,1.8
	c-0.2,0.9-0.4,2-0.3,3.3c-0.1,0.1-0.2,0.1-0.3,0.2c-0.6-1.3-1.2-2.6-1.8-3.9c3.2-2.3,6.3-4.7,9.5-7c1.1,1,2.1,1.9,3.2,2.9
	c-0.1,0.1-0.2,0.2-0.2,0.2c-1.2-0.4-2.3-0.6-3.2-0.6c-0.9,0-1.6,0.1-2,0.4c-0.1,0.1-0.2,0.2-0.2,0.3c0,0.1,0.1,0.3,0.3,0.5l0.4,0.5
	c1.4,1.9,2.8,3.8,4.2,5.7c1.2,1.6,2,2.5,2.6,2.9c0.6,0.4,1.1,0.6,1.7,0.5c0.1,0.1,0.1,0.2,0.2,0.3c-0.4,0.3-0.9,0.6-1.3,0.9
	c-0.5,0.3-0.9,0.7-1.4,1c-0.5,0.4-1,0.7-1.4,1.1C470.4,389.1,470,389.5,469.6,389.8 M456.9,294.6c-0.1,0,2.8-0.3,2.8-0.3
	s2.3,0,4.7-0.1c2-0.2,4-0.5,4.6-0.6c0.6-0.3,1.3-0.6,1.8-0.9l1.3-0.7l1.2-0.9c1.6-1.1,3-2.5,4.1-4c2.3-3.1,3.1-7,2-10.6
	c-1.1-3.7-3.5-7-6.5-9.6c-2.1-1.9-4.5-3.5-7-4.7c-0.2-0.1-0.5-0.2-0.9-0.3c-0.9-0.3-2-0.8-3.3-1c-0.7-0.1-1.3-0.3-1.8-0.5
	c-0.6-0.1-1.2-0.1-1.6-0.1c-0.9-0.1-1.5-0.1-1.5-0.1c-0.6-0.1-1.2,0-1.8-0.1l-2.3,0l-3.3,0.2c-1.1,0.1-2.3,0.3-3.4,0.5
	c-4.5,0.8-8.9,2.1-13.3,3.6c-6,1.9-12.1,4.2-18.5,5.5c-1.3,0.4-2.7,0.7-4,0.9c-0.5,0.5-0.9,1-1.3,1.4c-2.5,2.9-5.2,5.8-8,8.5
	c-0.6,0.6-1.3,1.2-1.9,1.8l0.6,0.6c2.8,2.3,6,4.2,9.3,5.7c1.7,0.7,3.4,1.3,5.2,1.8c1.8,0.4,3.5,0.8,5.4,0.9l5.5,0.6l5.7,0.3l8.3,0.5
	c0,0,4,0.5,6.7,1c4.7,0.8,2.8,1.2-0.1,1.4c0.3,0-7.1,0.1-7.1,0.1l-8.6-0.5c-1.9-0.1-3.7-0.2-5.6-0.3l-5.6-0.6
	c-1.8-0.1-3.8-0.6-5.6-1c-1.8-0.6-3.7-1.2-5.4-2c-1.9-0.8-3.8-1.8-5.5-2.9c1,1.7,2.1,3.2,3.3,4.6c4.1,4.7,10,7.6,16.1,9.2
	c6,1.4,12.5,0.9,18.7-0.1c1.7-0.4,3.3-0.9,5.1-1.3c1.8-0.6,3.7-1.1,5.6-1.7c2-0.6,3.9-1.1,5.9-1.5c0.7-0.2,1.4-0.3,2.1-0.5
	c-0.6-0.2-1.4-0.4-2.1-0.7C454.9,295.3,455.8,294.8,456.9,294.6 M309.5,295.8c0.1,0-3.4,0.5-3.4,0.5h-3.6c0.2,0.1,0.5,0.2,0.7,0.2
	c1.3,0.5,2.5,0.9,3.5,1.3c0.9,0.4,1.6,0.6,1.6,0.6l1.7,0.6c0.6,0.2,0.9,0.3,2.4,0.7c1.2,0.3,2.4,0.5,3.7,0.7c1.2,0,2.4,0.3,3.7,0.1
	c5-0.2,10-1.5,14.7-3.6c4.9-2.2,9.5-5.2,13.7-8.8c-5.8,3-12.1,4.7-18.4,5.9c-0.8,0.1-1.6,0.3-2.4,0.4c0,0-4,0.4-6.8,0.3
	c-4.8-0.1-2.9-0.9-0.1-1.4c-0.1,0,1.6-0.3,3.3-0.7c1.7-0.4,3.5-0.8,3.5-0.8l1.3-0.2l1.4-0.3c1.2-0.2,2.4-0.5,3.6-0.8
	c2.4-0.6,4.7-1.2,7-2c2.8-1,5.5-2.2,8-3.6c-0.4-0.4-0.7-0.7-1.1-1.1c-1.4-1.6-2.7-3.2-3.8-4.8c-0.6,0.1-1.2,0.3-1.8,0.4l-2.2,0.2
	c-1.5,0.2-2.9,0-4.4,0c-0.8,0-1.6-0.1-2.5-0.2c0,0-4-0.6-6.7-1.5c-4.6-1.4-2.6-1.6,0.3-1.4c-0.1,0,1.6,0.2,3.4,0.2
	c1.8,0.1,3.6,0.1,3.6,0.1c0.7,0,1.3,0.1,2,0.1c1.3,0,2.7,0.1,4.1,0l2-0.2l0.6-0.1c-0.5-0.8-1.1-1.6-1.6-2.4l-1.6-2.5l-1-1.7
	c0,0-0.1-0.3-0.4-0.9c-0.3-0.6-0.6-1.3-1.1-2.2c0,0,0-0.1-0.1-0.1c-4.6-0.6-9.3-1.4-13.8-2.6c-1.4-0.3-2.8-0.9-4.2-1.3
	c-1.4-0.5-2.8-0.8-4.1-1.5c-1.8-0.9-3.5-1.6-5.3-2.5c-0.3,0-0.6-0.1-0.9-0.1c-3.5-0.2-7.1-0.9-10.7-0.5c-3.6,0.3-7.3,1.1-11,2.2
	c-3.6,1.2-7.2,2.8-10.3,5.1c-3.1,2.2-5.6,5.3-5.9,8.9c-0.3,3.7,1.6,7.3,4.1,10.3c2.5,3.1,5.9,5.1,9.8,6.1c3.3,0.9,6.7,1.4,10.3,2.3
	c0,0,0-0.1,0-0.1c0,0,0.8,0,2,0.1c1.1,0.1,2.6,0.2,4.1,0.1h6c0,0,1.9,0.2,3.3,0.7C311.8,294.9,310.9,295.5,309.5,295.8 M402.2,294.9
	l-1.6-2l-1.4-2.2l-2.6-4.1c-0.4-0.6-0.7-1-1.1-1.6c-4.2,3.3-9,6.1-14.3,7.8c0.1,0.7,0.3,1.5,0.4,2.3c0.2,1.9,0.3,3.9,0.3,3.9
	s-0.1,0.3-0.3,0.7c-0.1,0.5-0.3,1-0.7,1.4c-1,1.4-1.3,0.4-1.4-0.4c0,0.1-0.3-1.9-0.3-1.9s0-1.7-0.2-3.4c-0.1-0.7-0.2-1.4-0.3-1.9
	c-1.3,0.3-2.5,0.5-3.8,0.7c0,1.3,0,2.7,0,4c-0.1,2-0.3,4-0.7,6c-0.2,0.8-0.3,1.6-0.6,2.5c0,0-0.1,0.2-0.2,0.6
	c-0.2,0.4-0.4,1-0.7,1.6c-0.6,1.3-1.4,2.9-2.3,4c-1.2,1.5-1.8,2-2.1,2.1c-0.1,0-0.1,0-0.1-0.1c-0.1-0.3,0.2-0.9,0.6-1.7l3.5-14.8
	c0-0.1,0-0.2,0-0.2c0-1.2,0-2.5,0-3.7c-1.1,0-2.1,0-3.2,0c0,0.1-0.1,0.3-0.2,0.5c-0.3,0.7-0.7,1.7-1.2,2.6c-0.5,0.9-1,1.9-1.4,2.5
	c-0.4,0.6-0.7,1.1-0.7,1.1s-0.2,0.2-0.6,0.6c-0.4,0.3-0.9,0.6-1.4,0.9c-1.5,0.7-1.4-0.2-1-1.1c0,0,0.3-0.4,0.5-0.9
	c0.2-0.5,0.5-1,0.5-1s0.3-0.4,0.7-1c0.4-0.6,0.8-1.4,1.3-2.3c0.3-0.7,0.7-1.5,0.9-2.1c-3.3-0.4-6.6-1.3-9.6-2.8
	c-1.3-0.7-2.6-1.5-3.9-2.4c-5.1,4.9-11.1,8.9-17.6,11.7c-1.7,0.7-3.3,1.3-5,1.8c-0.3,1.9-0.2,3.9,0.5,5.9c0.6,1.8,1.6,3.5,2.7,5.2
	l3.5,1.8c5,2.5,9.9,4.9,15.1,6.8c0.7,0.3,1.5,0.6,2.3,0.8c0,0,0.8,0.4,2.1,0.9c0.6,0.3,1.3,0.6,2,0.9c0.7,0.2,1.3,0.5,2.1,0.7
	c4.4,1.7,2.6,1.8-0.5,1.4c0.2,0-1.6-0.1-3.4-0.6c-1.8-0.5-3.5-1-3.5-1c-0.7-0.2-1.3-0.5-2-0.7c-4.5-1.7-8.7-3.7-13-5.7
	c5.4,5.1,11.9,9.2,18.9,12c3.7,1.5,7.5,2.7,11.4,2.5c4-0.1,7.9-0.8,11.8-1.7c7.3-1.8,14.3-4.5,20.2-8.5c-6.2,1.9-12.6,3.2-19,4
	l-2.5,0.3c0,0-0.9,0-2.3,0.1c-1.4,0-3.1,0-4.5-0.1c-4.8-0.3-2.9-1,0-1.5c-0.1,0,1.6-0.3,3.3-0.5c1.8-0.3,3.5-0.6,3.5-0.6l2-0.3
	c7.2-0.9,14.4-2.3,21.1-4.7l3.9-1.6c1-1.2,1.9-2.4,2.6-3.7c1.6-3,1.7-6.5,1.3-9.8c-0.2-1.4-0.6-2.7-0.9-4.1
	C406.6,299.2,404.2,297.3,402.2,294.9 M328.5,219.4c-3.1-1.4-6.3-2.6-9.7-3.6c-3.5-1-7.1-1.8-10.7-2.1c-3.7-0.4-7.4-0.3-10.8,0.9
	c-1.7,0.6-3.2,1.5-4.3,2.8c-1.2,1.3-1.8,2.9-2.4,4.6c-1,3.5-0.8,7.3,0.2,10.9c0.7,2.2,1.5,4.3,2.6,6.3c0.1,0.2,0.3,0.4,0.5,0.7
	c0.3,0.4,0.6,0.8,0.9,1.3c0.4,0.5,0.8,0.9,1.2,1.4c0.4,0.5,0.8,1,1.2,1.5c0.4,0.5,0.8,0.9,1.2,1.2c0.7,0.7,1.1,1.2,1.1,1.2
	c0.4,0.5,0.8,0.9,1.3,1.3c0.5,0.5,0.6,0.6,1.8,1.8c2,1.8,4.1,3.5,6.4,4.9c1.1,0.7,2.3,1.3,3.5,1.9l3.7,1.8l3.9,1.3
	c1.3,0.4,2.6,0.9,3.9,1.2c3.3,0.8,6.8,1.5,10.2,2c-0.3-0.6-0.5-1.2-0.7-1.8c-0.2-0.7-0.4-1.3-0.5-1.9c-2-0.6-3.9-1.3-5.9-2
	c-4.1-1.6-8.2-3.3-12.1-5.3c-2-1-3.9-1.9-5.8-3l-2.5-1.3c0,0-3.3-2.2-5.5-4c-3.8-3-1.8-2.5,0.8-1.2c-0.1-0.1,1.4,0.7,3,1.5
	c1.6,0.8,3.3,1.6,3.3,1.6l2.8,1.5c1.9,1,3.8,1.9,5.7,2.9c3.8,1.9,7.7,3.6,11.7,5.1c1.6,0.6,3.2,1.2,4.8,1.7c0.1,0,0.1,0,0.2,0
	c0.4,0.3,0.9,1.9,2,3.7c-0.1-0.2,1.2,1.9,2.8,4.1c0.8,1.1,1.6,2.2,2.2,3.2c0.6,0.8,0.9,1.4,0.9,1.4l0.9,1.6l0.5,0.8l0.7,1.1
	c0.5,0.8,1,1.6,1.5,2.3c2.1,3.1,4.2,6,6.8,8.5c2.6,2.5,5.5,4.4,8.7,5.7c3.2,1.3,6.8,1.8,10.3,1.8c3.6,0,7.1-0.6,10.5-1.9
	c4.6-1.6,8.7-4.2,12.6-7.3l0,0l0.5-0.4c0,0,0.1,0,0.1-0.1l1.1-1l0,0c0.1-0.1,0.3-0.2,0.4-0.3l0.2-0.1c1-0.9,2-1.8,2.9-2.7
	c2.6-2.6,5.1-5.3,7.6-8.3c0.7-0.7,1.3-1.3,1.8-2c0.2-0.3,0.5-0.6,0.7-1c0.1-0.1,0.2-0.3,0.2-0.4l0-0.1l-0.4-0.2
	c-0.7-0.4-1.4-0.7-2.2-0.9c-0.8-0.3-1.7-0.5-2.6-0.7l-1.4-0.3c-0.4-0.1-0.8-0.2-1.3-0.3c-1.7-0.3-3.4-0.5-5.2-0.5
	c-3.5,0-7.1,0.6-10.6,1.5c-1.8,0.5-3.5,1-5.3,1.6c-0.9,0.3-1.7,0.6-2.8,0.9c-1,0.3-2,0.5-2.9,0.7c-1.9,0.4-3.8,0.7-5.7,1l-2.8,0.4
	c-1.3,0.2-2.5,0-3.5-0.2c-2.1-0.5-4-1.3-5.7-2.3c-1.8-1-3.4-2.2-4.9-3.2c-3.1-2.2-6-4.3-9.2-5.4c-1.9-0.6-3.7-0.8-5.5-0.6
	c-0.1,0-0.1,0-0.2,0c-0.4-0.2-1-0.6-1.3-1.2c-0.3-0.6-0.4-1.4,0.6-2.5c0,0,0.2-0.2,0.3-0.2c0.1,0,0.3,0,0.5,0
	c-2.1-2.2-4-4.6-5.6-7.2c-0.8-1.4-1.7-2.8-2.3-4.4l-0.9-2.3l-0.7-2.5c-0.5-1.6-0.6-3.3-0.7-5c-0.1-1.7,0-3.3,0.1-5
	C327.5,223.8,327.9,221.6,328.5,219.4 M397.7,212.4c-0.8-3.1-2.2-5.9-4-8.5l-1.3-1.7c-0.4-0.5-0.8-0.9-1.2-1.4c0,0-0.2-0.2-0.6-0.7
	c-0.4-0.5-0.8-1.2-1.5-1.9c-0.7-0.7-1.5-1.6-2.4-2.5c-2-1.6-4.2-3.2-6.5-4.8c-3.9-3.2-6.7-7-10.2-10.1c-1.7-1.5-3.6-2.9-5.6-3.5
	c-1.9-0.6-3.9,0.1-5.9,1.2c-3.9,2.3-7.3,5.8-10.4,9.5c-3.1,3.7-6,7.6-8.5,11.6c-1,1.8-2,3.6-2.8,5.4c-0.4,0.9-0.9,2.4-1.4,3.9
	c-0.4,1.3-0.8,2.5-1.1,3.5c-0.3,1-0.5,1.6-0.5,1.6c-0.2,0.6-0.4,1.2-0.6,1.8l-0.7,2.6c-0.4,1.4-0.7,2.9-1,4.4
	c-0.2,1.4-0.5,2.9-0.6,4.4c-0.5,5.8,1.2,11.4,4.3,16.4c2.3,3.5,5.2,6.6,8.4,9.4c0.1,0,0.3,0,0.4,0.1c3.5,1.3,6.5,3.3,9.3,5.2
	c0.2-0.7,0.8-1.4,1.7-1.5c1.1,0.1,1.6,1,1.9,1.7v0.1c0,0.2-0.1,0.5-0.4,0.6c-0.1,0-0.3,0-0.5,0c0,0.2,0.1,0.5,0.1,0.7
	c0,0,0,0.2,0,0.5c0.3,0.2,0.6,0.4,0.9,0.6c0-0.3,0-0.7,0.1-1c0.2-0.8,0.8-1.5,1.8-1.6c1.1,0,1.6,1,1.9,1.7c0,0,0,0,0,0.1
	c0,0.3-0.1,0.5-0.3,0.6h0c-0.1,0-0.3,0-0.5,0c0.1,0.2,0.1,0.4,0.1,0.6c0,0,0,0.2-0.1,0.6c0,0.1-0.1,0.4-0.3,0.5
	c0.4,0.2,0.7,0.4,1.1,0.6c0-0.2,0-0.4,0.1-0.6c0.2-0.8,0.8-1.5,1.7-1.6c1.1,0,1.6,1,1.9,1.7v0.1c0,0.2-0.1,0.5-0.4,0.6
	c-0.1,0-0.3,0-0.5,0c0,0.2,0.1,0.5,0.1,0.7c0,0,0,0,0,0.2h0c0.8,0.1,1.4,0.2,2.2,0l2.8-0.5c0.3,0,0.5-0.1,0.7-0.1
	c0-0.1,0-0.3,0.1-0.4c-0.1,0-0.4,0.1-0.6,0c-0.1-0.1-0.3-0.2-0.3-0.6c0,0,0-0.1,0-0.1c0.3-0.7,0.8-1.6,1.9-1.7
	c0.9,0.1,1.5,0.8,1.8,1.6c0,0.2,0,0.4,0.1,0.6c0.3-0.1,0.7-0.1,1-0.2c-0.3-0.3-0.4-0.8-0.4-1.2c0-0.3,0-0.5,0.1-0.6
	c-0.1,0-0.4,0.1-0.6,0c-0.1,0-0.3-0.2-0.4-0.6v-0.1c0.3-0.6,0.8-1.6,1.9-1.7c0.9,0.1,1.5,0.8,1.7,1.6c0.2,0.5,0.2,1.1,0,1.6
	c0,0,0,0.1-0.2,0.4c0.5-0.1,0.9-0.2,1.3-0.4l0.4-0.1l0.4-0.6c0,0,0,0-0.1,0c-0.4-0.4-0.6-0.9-0.5-1.3c0-0.3,0.1-0.5,0.2-0.7
	c-0.1,0.1-0.4,0.2-0.7,0.1c-0.1-0.1-0.3-0.2-0.3-0.6v-0.1c0.3-0.7,0.8-1.6,1.9-1.7c0.7,0.1,1.2,0.6,1.5,1.1c0.5-0.9,0.9-1.9,1.4-2.8
	c0.7-1.4,1.4-2.9,2-4.4c0.5-1.5,1.1-3,1.6-4.5l1.1-4.6c0.7-3.1,1.1-6.3,1.3-9.5c0.1-1.6,0.1-3.2,0-4.8c0-1.1-0.1-1.7-0.2-2.5
	c0,0-0.3-3.8-1.3-6.3c-0.4-1.1-0.7-1.7-0.9-2.2c-0.2-0.4-0.1-0.6,0-0.6c0.3,0,1.3,0.8,2.2,2.1c0-0.1,0.9,1.4,1.6,3.2
	c0.7,1.8,1,3.7,1,3.7l0.2,1.3l0.1,1.7c0,1.7,0,3.3-0.1,5c-0.2,3.3-0.6,6.5-1.3,9.7l-1.2,4.8l-1.7,4.6c-0.5,1.6-1.3,3-2,4.5
	c-0.7,1.4-1.3,2.9-2.2,4.2c1.3-0.4,2.7-0.8,4.1-1.2c0.6-0.1,1.3-0.3,1.9-0.4c5.2-8.7,9.3-17.9,11.1-27.7
	C399.6,225,399.5,218.6,397.7,212.4 M348.2,200c0.1-0.1-0.8,1.3-1.7,2.9c-0.8,1.5-1.6,3.2-1.6,3.2l-1,1.8c-1.3,2.4-2.4,4.7-3.3,7.2
	c-0.5,1.3-0.9,2.7-1.2,4c0,0,0,0-0.1,0.1c-0.5,0.4-1.6,1.1-2.4-0.6c0,0,0-0.1,0-0.2c0.4-1.4,0.8-2.9,1.3-4.3c1-2.6,2.1-5.1,3.4-7.5
	l1.2-2.1c0,0,2.3-3.4,4.2-5.4C350.3,195.6,349.6,197.5,348.2,200 M374.2,248.2c0.9,0.1,1.5,0.9,1.7,1.7c0.2,0.5,0.2,1.1,0,1.6
	c0,0-0.2,0.8-1,1.1c-0.3,0.1-0.9,0.2-1.3-0.1c-0.4-0.4-0.5-0.9-0.5-1.3c0-0.3,0.1-0.5,0.2-0.6c-0.1,0-0.4,0.1-0.6,0h0h0
	c-0.2-0.1-0.3-0.2-0.4-0.6v-0.1C372.6,249.2,373.1,248.3,374.2,248.2 M368.8,246.8c0.3-0.7,0.8-1.7,1.9-1.7c0.9,0.1,1.5,0.9,1.8,1.6
	c0.1,0.5,0.2,1.1,0,1.7c0,0-0.3,0.7-1,1.1c-0.3,0.2-0.9,0.3-1.3-0.1c-0.4-0.4-0.6-0.9-0.5-1.3c0-0.3,0-0.5,0.1-0.6
	c-0.1,0.1-0.4,0.2-0.6,0.1C369,247.4,368.8,247.3,368.8,246.8C368.8,246.9,368.7,246.8,368.8,246.8 M368.8,252.1
	c0.3-0.7,0.8-1.6,1.9-1.7c0.9,0.1,1.5,0.9,1.8,1.7c0.1,0.5,0.2,1.1,0,1.6c0,0-0.3,0.7-1,1.1c-0.3,0.2-0.9,0.3-1.3-0.1
	c-0.4-0.4-0.6-0.9-0.5-1.3c0-0.3,0-0.5,0.1-0.6c-0.1,0.1-0.4,0.2-0.6,0.1C369,252.7,368.8,252.5,368.8,252.1
	C368.8,252.2,368.7,252.1,368.8,252.1 M365,245.1c0.2-0.8,0.8-1.5,1.7-1.6c1.1,0,1.6,1,1.9,1.7v0.1c0,0.2-0.1,0.5-0.3,0.6v0l0,0
	c-0.1,0-0.3,0-0.5,0c0.1,0.2,0.1,0.4,0.1,0.6c0,0,0,0.2-0.1,0.6c-0.1,0.4-0.6,1-1.3,0.9c-0.6-0.1-1-0.4-1.3-0.8
	c-0.3-0.4-0.4-0.7-0.4-0.7C364.8,246,364.9,245.5,365,245.1 M365,250.3c0.2-0.8,0.8-1.5,1.7-1.6c1.1,0,1.6,1,1.9,1.7v0.1
	c0,0.2-0.1,0.5-0.3,0.6v0h0c-0.1,0-0.3,0-0.5,0c0.1,0.2,0.1,0.4,0.1,0.6c0,0,0,0.2-0.1,0.6c-0.1,0.4-0.6,1-1.3,0.9
	c-0.6-0.1-1-0.4-1.3-0.8c-0.3-0.4-0.4-0.7-0.4-0.7C364.8,251.2,364.9,250.8,365,250.3 M360.9,246.7c0.2-0.8,0.8-1.5,1.7-1.6
	c1.1,0,1.6,1,1.9,1.7v0.1c0,0.2-0.1,0.5-0.4,0.6v0c-0.1,0-0.3,0-0.5,0c0,0.2,0.1,0.4,0.1,0.6c0,0,0,0.2-0.1,0.6
	c-0.1,0.4-0.7,1-1.3,0.9c-0.6-0.1-1-0.4-1.3-0.8c-0.2-0.4-0.3-0.7-0.3-0.7C360.8,247.7,360.8,247.2,360.9,246.7 M357.3,249.7
	c0.2-0.8,0.8-1.5,1.7-1.6c1.1,0,1.6,1,1.9,1.7v0.1c0,0.2-0.1,0.5-0.4,0.6h0h0c-0.1,0-0.3,0-0.5,0c0.1,0.2,0.1,0.5,0.1,0.6
	c0,0,0,0.2-0.1,0.6c-0.1,0.4-0.6,1-1.3,0.9c-0.6,0-1-0.4-1.3-0.7c-0.3-0.4-0.4-0.7-0.4-0.7C357.1,250.7,357.2,250.2,357.3,249.7
	 M357.4,254.2c-0.1,0-0.3,0-0.5,0c0.1,0.2,0.1,0.4,0.1,0.6c0,0,0,0.2-0.1,0.6c-0.1,0.4-0.7,1-1.3,0.9c-0.6-0.1-1-0.4-1.3-0.8
	c-0.3-0.4-0.3-0.7-0.3-0.7c-0.1-0.5-0.1-1,0.1-1.4c0.2-0.8,0.8-1.5,1.7-1.6c1.1,0,1.6,1,1.9,1.7v0.1
	C357.7,253.8,357.6,254.1,357.4,254.2L357.4,254.2z M360.4,255.8c0.1,0.2,0.1,0.4,0.1,0.6c0,0,0,0.2-0.1,0.7c-0.1,0.4-0.6,1-1.3,0.9
	c-0.6-0.1-1-0.4-1.3-0.8c-0.3-0.4-0.4-0.7-0.4-0.7c-0.1-0.5,0-1,0.1-1.4c0.2-0.7,0.8-1.5,1.7-1.6c1.1,0,1.6,1,1.9,1.7v0.1
	c0,0.2-0.1,0.5-0.3,0.6h0C360.8,255.9,360.6,255.9,360.4,255.8 M364.3,258.1L364.3,258.1c-0.2,0-0.3,0-0.5,0
	c0.1,0.2,0.1,0.4,0.1,0.6c0,0,0,0.2-0.1,0.6c-0.1,0.4-0.6,1-1.3,0.9c-0.6-0.1-1-0.4-1.3-0.8c-0.3-0.4-0.4-0.7-0.4-0.7
	c-0.1-0.5,0-1,0.1-1.4c0.2-0.8,0.8-1.6,1.7-1.7c1.1,0.1,1.6,1,1.9,1.7v0.1C364.6,257.8,364.5,258,364.3,258.1 M364.4,252.9
	L364.4,252.9L364.4,252.9c-0.1,0-0.3,0-0.5,0c0.1,0.2,0.1,0.4,0.1,0.7c0,0,0,0.2-0.1,0.6c-0.1,0.4-0.6,1-1.3,0.9
	c-0.6-0.1-1-0.4-1.3-0.8c-0.3-0.4-0.4-0.7-0.4-0.7c-0.1-0.5,0-1,0.1-1.4c0.2-0.8,0.8-1.6,1.7-1.7c1.1,0.1,1.6,1,1.9,1.7v0.1
	C364.8,252.5,364.7,252.8,364.4,252.9 M365,255.6c0.2-0.8,0.8-1.6,1.7-1.7c1.1,0.1,1.6,1,1.9,1.7v0.1c0,0.2-0.1,0.5-0.3,0.6h0
	c-0.1,0-0.3,0-0.5,0c0.1,0.2,0.1,0.4,0.1,0.7c0,0,0,0.2-0.1,0.6c-0.1,0.4-0.6,1-1.3,0.9c-0.6-0.1-1-0.4-1.3-0.8
	c-0.3-0.4-0.4-0.7-0.4-0.7C364.8,256.5,364.9,256,365,255.6 M368.3,261.6L368.3,261.6c-0.1,0-0.3,0-0.5,0c0.1,0.2,0.1,0.5,0.1,0.6
	c0,0,0,0.2-0.1,0.7c-0.1,0.4-0.6,1-1.3,0.9c-0.6-0.1-1-0.4-1.3-0.8c-0.3-0.4-0.4-0.7-0.4-0.7c-0.1-0.5,0-1,0.1-1.4
	c0.2-0.8,0.8-1.6,1.7-1.7c1.1,0.1,1.6,1,1.9,1.7v0.1C368.7,261.2,368.6,261.5,368.3,261.6 M372.3,259c0,0-0.3,0.8-1,1.1
	c-0.3,0.1-0.9,0.3-1.3-0.1c-0.4-0.3-0.5-0.9-0.5-1.3c0-0.2,0-0.5,0.1-0.6c-0.1,0.1-0.4,0.2-0.6,0v0v0c-0.1,0-0.3-0.2-0.3-0.6
	c0,0,0-0.1,0-0.1c0.3-0.6,0.8-1.6,1.9-1.7c0.9,0.1,1.5,0.8,1.8,1.6C372.4,257.9,372.4,258.5,372.3,259 M375.8,256.9
	c0,0-0.3,0.8-1,1.1c-0.3,0.1-0.9,0.3-1.3-0.1c-0.4-0.4-0.6-0.9-0.5-1.3c0-0.2,0-0.4,0.1-0.6c-0.1,0.1-0.4,0.2-0.6,0
	c-0.1,0-0.3-0.2-0.3-0.6c0,0,0-0.1,0-0.1c0.3-0.6,0.8-1.6,1.9-1.7c0.9,0.1,1.5,0.8,1.8,1.6C376,255.8,376,256.4,375.8,256.9
	 M379.3,255.1c0,0-0.2,0.8-1,1.1c-0.3,0.1-0.9,0.3-1.3-0.1c-0.4-0.4-0.5-0.9-0.5-1.3c0-0.3,0.1-0.5,0.2-0.6c-0.1,0-0.4,0.1-0.6,0
	c-0.1-0.1-0.3-0.2-0.4-0.6v-0.1c0.3-0.7,0.8-1.6,1.9-1.7c0.9,0,1.5,0.8,1.7,1.6C379.5,254,379.5,254.6,379.3,255.1 M456.6,226.1
	c0-2-0.2-3.9-0.8-5.8c-0.5-1.8-1.3-3.5-2.6-4.7c-0.6-0.6-1.3-1.1-2-1.4c-0.1,0.2-0.3,0.5-0.4,0.7c-2.4,4.2-2.1,2.2-1.3-0.7
	c-0.1,0.1,0.5-1.5,1-3.2c0.5-1.7,0.8-3.4,0.8-3.4c0.1-0.4,0.2-0.8,0.3-1.2l0.1-0.6v-0.1l0.1-0.7c0.1-0.6,0.1-1.3,0-1.9
	c-0.1-2.5-1.6-4.3-4-5.1c-2.3-0.9-5.1-1.1-7.8-1.2c-5.4-0.1-10.8,1.1-15.6,3.4c-4.8,2.4-9.2,5.8-12.9,9.8c-3.3,3.6-6,7.5-8.5,11.7
	c0.1,3.8-0.2,7.5-0.9,11c-1.7,8.8-5.1,16.9-9.3,24.6c0.8-0.5,1.6-1,2.3-1.6c1.1-0.8,2.1-1.8,3.1-2.6l10.9-10.6
	c1.5-1.6,3-3.2,4.5-4.8l1.6-1.8c0,0,2.8-2.8,5-4.6c1.3-1.2,2-1.7,2.3-1.7c0.4,0-0.2,1.3-1.3,2.7c0.1-0.1-0.9,1.3-2,2.7l-2.2,2.9
	l-4.3,4.7c-1.7,1.8-3.3,3.6-5.1,5.3c-3.2,3.2-6.4,6.4-9.9,9.2l0.9-0.3c1.3-0.4,2.5-1.1,3.8-1.6c0.7-0.3,1.4-0.7,2.1-1.1
	c0,0,2.8-1.2,6.3-2.5c1.6-0.7,2.5-1,2.7-0.9c0.4,0.1-0.7,1.1-2.1,2.2c0.1-0.1-1.3,0.9-2.8,1.9c-1.5,1-3.2,1.9-3.2,1.9
	c-0.7,0.3-1.3,0.6-1.9,0.9c-0.8,0.3-1.5,0.7-2.3,1c0.7,0.1,1.5,0.2,2.2,0.4c1.9,0.5,3.7,0.9,5.8,1.7c0.5,0.2,1,0.4,1.5,0.7
	c0.3,0.1,0.5,0.3,0.7,0.5c0.2,0.1,0.7,0.5,1,0.8c0.7,0.6,1,1.6,0.9,2.5c0,0.2,0,0.5-0.1,0.8c5.4-1.5,10.6-4.1,15.2-7.5
	c4.4-3.3,8.2-7.4,11.2-12l2.2-3.5c0.5-1.2,1.2-2.3,1.4-3.6l0.3-1.1c0.1-0.3,0.1-0.6,0.2-0.8l0.3-1.8c0,0,0.1-0.4,0.2-0.9
	c0.1-0.6,0.2-1.4,0.4-2.4c0.3-1.9,0.7-4.5,1.2-6.6c0.9-3.5,1.7-4.4,2-4c0.1,0.2,0.2,0.8,0.2,1.6c0,0.7,0,1.7,0,2.8c0-0.2,0,2.3,0,5
	c0,1.3,0,2.7-0.1,3.8c0,1.1-0.1,1.8-0.1,1.8l-0.3,2c-0.2,0.7-0.3,1-0.8,2.8c-0.2,0.7-0.6,1.4-0.9,2.1c-0.3,0.7-0.7,1.4-1,2
	c-0.8,1.3-1.5,2.6-2.4,3.7c-2.8,4.1-6.3,7.8-10.1,11c4.5-1.4,9-2.8,13.8-3.5c1.6-0.3,3.3-0.4,5-0.5c0.1-0.3,0.3-0.5,0.5-0.8
	c3.6-7,5-15.3,5.2-23.3C456.7,230.2,456.7,228.2,456.6,226.1 M421.9,246.1c-0.1,0.1-0.6,0.6-0.9,0.9c-0.4,0.4-0.7,0.7-0.7,0.7
	s-0.4,0.3-0.8,0.7c-0.4,0.4-0.9,0.6-1.1,0.8c-0.3,0.2-0.7,0-1.1-0.3c0-0.6,0-1,0.3-1.2c0.1-0.1,0.6-0.3,0.9-0.6
	c0.4-0.3,0.7-0.6,0.7-0.6s0.3-0.3,0.7-0.6c0.3-0.4,0.7-0.7,0.9-0.9c0.2-0.2,0.6-0.1,1.2,0C422,245.5,422.1,245.9,421.9,246.1"/>
<path class="st2" d="M379.4,262c-2.8,0.7-8.6,1.6-14,2.2c-4.6-0.6-14.7-3.5-14.5-7.4c0.5-6,10-16.4,15.3-17
	c5.2-0.6,15.4,11.7,17.5,15.3C381,259.5,382,259.5,379.4,262"/>
<path class="st1" d="M377.9,262.4c-2.5,0.7-7.6,1.6-12.4,2.2c-4.1-0.6-12.9-2.9-12.8-6.8c0.2-0.6,8.7-15,13.3-15.5
	s13.6,12.6,15.4,13.1C379.2,259.7,380.2,259.9,377.9,262.4"/>
</svg>
