<?xml version="1.0" encoding="utf-8"?>
<!-- Generator: Adobe Illustrator 27.0.1, SVG Export Plug-In . SVG Version: 6.00 Build 0)  -->
<svg version="1.1" id="Layer_1" xmlns="http://www.w3.org/2000/svg" xmlns:xlink="http://www.w3.org/1999/xlink" x="0px" y="0px"
	 viewBox="0 0 750 500" style="enable-background:new 0 0 750 500;" xml:space="preserve">
<style type="text/css">
	.st0{fill-rule:evenodd;clip-rule:evenodd;fill:#FFFFFF;}
	.st1{fill-rule:evenodd;clip-rule:evenodd;fill:#BF0A30;}
	.st2{fill-rule:evenodd;clip-rule:evenodd;fill:#002868;}
	.st3{fill-rule:evenodd;clip-rule:evenodd;fill:#FFCA00;stroke:#002868;}
	.st4{fill:#002868;}
	.st5{fill-rule:evenodd;clip-rule:evenodd;fill:#FFCA00;}
	.st6{fill:none;stroke:#000000;}
	.st7{fill:none;stroke:#002868;}
	.st8{fill:none;stroke:#000000;stroke-width:0.9889;}
</style>
<path id="white_bg" class="st0" d="M0,0h750v500H0V0z"/>
<path id="red_bg" class="st1" d="M0,0h750v250.1H0V0z"/>
<path id="blue_bg" class="st2" d="M0,0h250v500H0V0z"/>
<path id="top_left_scroll" class="st3" d="M34.5,117.5c-15.6,8.7-18.5,12.4-27,19.1l19,0.4c-0.2,1.8-4.4,23.8-4.8,25.4
	c14.3-9.5,21.1-13.9,40.6-19.4c7.8-2.2-0.6-10-1.4-12.1c-5.3,2.4-9.4,5.2-13.3,8.7"/>
<path id="top_scroll_banner" class="st3" d="M47.8,139.4c29.1-26.7,125.6-26.1,152.4,0.8c0.9-0.3,18.2-29.6,17.4-29.3
	C164.9,74,70.4,80.3,30.8,109.4l0.5,1.7L47.8,139.4L47.8,139.4z"/>
<path class="st4" d="M124.3,98.7c-0.4-1.3-1-2.8-2.4-4c-0.1-0.1-0.2-0.1-0.3-0.2c-1.7-0.9-3.7-0.7-4.9-0.1c-2.3,1.1-2.9,3-3.2,4.8
	c0,0.1,0,0.1,0,0.2c-0.2,2.2-0.1,7,0.3,9.3c0.4,1.6,0.8,2.9,2.3,4.2c0.1,0.1,0.2,0.2,0.3,0.2c0.8,0.5,1.8,0.7,2.7,0.7
	c0.9,0,1.7-0.2,2.3-0.6c1.4-0.8,2.4-2.4,2.8-4.3c0.7-2.3,0.6-7.8,0.1-10C124.3,98.8,124.3,98.7,124.3,98.7z M121.2,108
	c0,0.1,0,0.1,0,0.2c-0.2,1-0.7,1.9-1.4,2.3c-0.3,0.2-1,0.3-1.8-0.1c-0.7-0.6-0.8-1.2-1.2-2.4c-0.4-1.8-0.5-6.2-0.3-8.1
	c0.4-1.6,0.7-2.2,1.5-2.5c0,0,0,0,0,0c0.4-0.2,1.2-0.3,2,0c0.5,0.5,0.9,1.1,1.2,2.3C121.7,101.5,121.7,106.5,121.2,108z M65.1,120.5
	c0.4,0.7,0.2,1.7-0.5,2.1c-0.7,0.4-1.7,0.2-2.1-0.5l-4.5-7.5l1.6,9c0.1,0.7-0.2,1.3-0.8,1.6c-0.6,0.3-1.3,0.3-1.8-0.2l-7-6.2
	c4.4,8.1,4.4,8.4,4.5,8.5c0.2,0.8-0.3,1.7-1.1,1.9c-0.1,0-0.3,0-0.4,0c-0.6,0-1.2-0.4-1.5-1c-0.4-0.9-5.4-10.1-8.4-15.7
	c-0.4-0.7-0.2-1.5,0.4-2c0.6-0.5,1.4-0.5,2,0.1l10.2,9l-2.4-13.2c-0.1-0.7,0.3-1.5,1-1.7c0.7-0.3,1.5,0,1.9,0.7L65.1,120.5z
	 M112.9,112.1c0,0.9-0.6,1.6-1.5,1.6l-8.3,0.3c0,0,0,0-0.1,0c-0.8,0-1.5-0.7-1.6-1.5c-0.1-2.7,1.6-4.9,2.9-6.5
	c0.1-0.1,0.1-0.1,0.2-0.2l3.6-3c0.5-0.6,0.7-1.6,0.6-2.6c-0.1-0.9-0.4-1.7-0.8-2.1c-1-0.3-2.2-0.3-3.1,0.2c-0.7,0.5-1,1.3-1,2.6
	c0,0.9-0.8,1.6-1.6,1.5c-0.9,0-1.5-0.7-1.5-1.6c0.1-2.9,1.3-4.4,2.4-5.1c1.6-1.1,3.9-1.3,6.2-0.5c0.2,0.1,0.3,0.1,0.5,0.3
	c1.1,0.9,1.9,2.5,2.1,4.4c0.2,1.9-0.3,3.7-1.3,5c-0.1,0.1-0.1,0.1-0.2,0.2l-3.6,3c-0.8,0.9-1.4,1.8-1.8,2.7l6.3-0.2
	C112.1,110.6,112.8,111.2,112.9,112.1z M205,114.4c-0.4,0.7-1.4,1-2.1,0.6l-3.8-2.2l-1.7,2.3c2.7,0.5,4,2.5,4.7,4.3
	c0,0.1,0.1,0.2,0.1,0.3c0.4,3.1-0.6,5.1-1.5,6.3c-1.2,1.4-2.9,2.2-4.8,2.3c0,0,0,0-0.1,0c0,0,0,0-0.1,0c-3.7-0.1-5.8-2.3-6.3-6.4
	c-0.1-0.9,0.5-1.6,1.4-1.7c0.8-0.1,1.6,0.5,1.7,1.4c0.4,2.9,1.5,3.6,3.2,3.6c1,0,1.8-0.5,2.4-1.2c0.7-0.9,1-2.2,0.9-3.7
	c-0.6-1.6-1.6-2.6-4.5-2c-0.6,0.1-1.3-0.2-1.6-0.7c-0.3-0.5-0.3-1.2,0.1-1.8l4.4-6c0.5-0.6,1.4-0.8,2-0.4l5,2.9
	C205.1,112.7,205.4,113.7,205,114.4z M178.6,102.8c-3.9,4.9-6.8,8.9-9.2,13.9c-0.3,0.6-0.8,0.9-1.4,0.9c-0.2,0-0.5,0-0.7-0.1
	c-0.8-0.4-1.1-1.3-0.7-2.1c2.2-4.6,4.8-8.4,8.1-12.7c-5.6-1.6-5.8-1.7-5.9-1.8c-0.8-0.4-1.1-1.3-0.7-2.1c0.4-0.7,1.2-1,2-0.8
	c0.5,0.2,5,1.5,7.8,2.3c0.5,0.1,0.9,0.5,1.1,1S179,102.4,178.6,102.8z M163,97.7l-2.3,16.5c-0.1,0.8-0.8,1.3-1.5,1.3
	c-0.1,0-0.1,0-0.2,0c-0.9-0.1-1.5-0.9-1.3-1.8l1.7-12.5c-0.4,0.2-0.9,0.5-1.4,0.7c-0.8,0.3-1.7,0-2.1-0.8c-0.3-0.8,0-1.7,0.8-2.1
	c1.5-0.7,2.5-1.4,3.5-2.6c0.5-0.5,1.2-0.7,1.8-0.4C162.7,96.3,163.1,97,163,97.7z M68.4,99.7C68.4,99.7,68.4,99.7,68.4,99.7
	c-0.6,0.1-0.9,0.3-1.1,0.9c-0.1,0.1-0.1,0.3-0.1,0.4l0,0c-0.1,0.7-0.2,1.6-0.2,2.9c-0.1,1.7-0.2,3.9-0.2,6.2c-0.2,4.5-0.3,9-0.3,9
	c0,0.9,0.7,1.6,1.5,1.6c0,0,0,0,0,0c0.8,0,1.5-0.7,1.6-1.5c0-1.6,0.1-3.4,0.2-5.2l4.9-1.4c1,1.5,2,3.1,2.9,4.4
	c0.5,0.7,1.4,0.9,2.2,0.5c0.7-0.5,0.9-1.4,0.5-2.2C69.9,99.4,69.7,99.4,68.4,99.7z M69.8,110.7c0.1-1.9,0.1-3.6,0.2-5.1
	c0.8,1.2,1.8,2.7,2.8,4.2L69.8,110.7z M192.8,108.8c-4.1,3-7.7,6.7-11.2,11.7c-0.3,0.4-0.8,0.7-1.3,0.7c-0.3,0-0.6-0.1-0.9-0.3
	c-0.7-0.5-0.9-1.5-0.4-2.2c3.1-4.4,6.4-8,9.9-10.9l-5.4-2.7c-0.8-0.4-1.1-1.3-0.7-2.1c0.4-0.8,1.3-1.1,2.1-0.7l7.7,3.8
	c0.5,0.2,0.8,0.7,0.9,1.3S193.3,108.5,192.8,108.8z"/>
<path class="st5" d="M28.5,288.3l10,0.1l-0.3-43.2l19.1,43.4h10.4v-63.4l-10.1,0.1l0.2,40.2l-17.9-40l-11.1,0.1
	C28.7,225.6,28.5,288.3,28.5,288.3z"/>
<path class="st5" d="M210.7,245.3h10.6l-0.1-5.6c-0.3-3.6-1.7-8.2-5.2-11.6c-2.4-2.6-5.2-4.1-8.8-5.1c-3.1-1.2-10.7-0.9-14.5,1.3
	c-4.5,2.5-8.4,7.1-11,14.4c-3.4,12.3-1.8,27.7,0.3,34.9c2.5,7.7,6.5,11.8,11.8,14.4c3.3,1.1,9.1,2,14.4,0.5
	c5.9-2.2,8.5-6.1,10.9-10.2c1.4-2.8,3-8.1,2.8-14l-11.1,0.1c0,2.2-0.4,4.7-1,6.8c-1.3,3-3.2,5-8,5c-3.2,0-5.4-1.3-7.2-3.7
	c-2.4-2.4-3.1-7.6-3.2-9.1c-0.7-6.7-0.8-13.4,1.2-20.4c0.7-2.8,2.2-5.5,4.1-6.7c3.1-1.7,6.3-1.4,8.1-0.9c2.4,0.7,4.6,2.5,5.3,4.9
	C210.6,242.5,210.7,243.9,210.7,245.3L210.7,245.3z"/>
<path class="st0" d="M149.1,290.4l-23.8-18.5l-24.4,18.4l9.7-28.8l-24.8-18.2l29.8,0.7l9.1-29.6l8.7,29.2l30.4-0.1l-24.4,17.4
	L149.1,290.4L149.1,290.4z"/>
<path class="st6" d="M47.9,139.5"/>
<path class="st7" d="M47.9,139.4c1,1.1,3.1,0.8,6,0.3c2.3-0.3,4.9-0.4,6.9-0.6c3.4,0.3,5.3,1.1,3.9,2.7"/>
<path id="top_right_scroll" class="st3" d="M213.7,118.5c15.6,8.7,18.5,12.4,27,19.1l-19,0.4c0.2,1.8,4.4,23.8,4.8,25.4
	c-14.3-9.5-21.1-13.9-40.6-19.4c-7.8-2.2,0.9-10.2,1.7-12.3c5.3,2.4,9.8,5.2,13,8.9"/>
<path class="st6" d="M200.4,140.4"/>
<path class="st7" d="M200.1,140.3c-1.8,0.8-3.6,0.5-5.8,0.3c-2.1-0.3-4.4-0.7-6.8-0.7c-3.9,0-5.3,1.7-4.1,2.8"/>
<path class="st4" d="M133.6,102.3c0,0.6-0.5,1.1-1.1,1.1c0,0,0,0,0,0l-2.6-0.1l-0.1,6.3c0,1.7,0.2,1.8,1.6,1.8
	c0.6,0,1.1,0.5,1.1,1.1s-0.5,1.1-1.1,1.1c-2.7,0-3.8-1.2-3.8-4l0.1-6.3l-1.1,0c-0.6,0-1.1-0.5-1.1-1.2c0-0.6,0.5-1.1,1.2-1.1l1.1,0
	l0.1-3.4c0-0.6,0.5-1.1,1.1-1.1c0.6,0,1.1,0.5,1.1,1.1l-0.1,3.5l2.7,0.1C133.2,101.2,133.7,101.7,133.6,102.3z M89.9,95.1
	c-0.8-0.3-1.7,0.1-2,0.9l-3.1,8l-5.9-6c-0.6-0.6-1.6-0.6-2.2,0c-0.6,0.6-0.6,1.6,0,2.2l7,7.1l1.2,7.7c0.1,0.8,0.8,1.3,1.5,1.3
	c0.1,0,0.2,0,0.2,0c0.9-0.1,1.4-0.9,1.3-1.8l-1.2-7.3l4-10.2C91.1,96.3,90.7,95.4,89.9,95.1z M141.9,102.7c-1.2-1.3-3.1-1.4-5.1-1.4
	l0.1-3.2c0-0.6-0.5-1.1-1.1-1.2c-0.7-0.1-1.1,0.5-1.2,1.1l-0.4,14.4c0,0.6,0.5,1.1,1.1,1.2c0.6,0,1.1-0.5,1.2-1.1l0.2-8.9
	c1.8,0,3,0.1,3.5,0.7c0.8,0.9,1,3.5,0.6,8.8c0,0.6,0.4,1.2,1,1.2c0,0,0.1,0,0.1,0c0.6,0,1.1-0.4,1.1-1
	C143.6,106.9,143.3,104.2,141.9,102.7z"/>
<path id="bottom_left_scroll" class="st3" d="M35.1,387.7c-15.6-8.5-18.5-12.1-27-18.6l19-0.4c-0.2-1.7-4.4-23.3-4.8-24.8
	c14.3,9.3,21.1,13.6,40.6,18.9c7.8,2.1-0.6,9.8-1.4,11.9c-5.3-2.3-9.4-5.1-13.3-8.5"/>
<path class="st3" d="M48.5,366.3c29.1,26.1,125.6,25.5,152.4-0.8c0.9,0.3,18.2,29,17.4,28.7c-52.8,36-147.2,29.9-186.9,1.4l0.5-1.7
	C31.9,393.9,48.5,366.3,48.5,366.3z"/>
<path class="st8" d="M47.9,366.5"/>
<path class="st7" d="M48.6,366.3c1-1,3.1-0.8,6-0.3c2.3,0.3,4.9,0.4,6.9,0.6c3.4-0.3,5.3-1,3.9-2.6"/>
<path id="bottom_right_scroll" class="st3" d="M214.4,386.7c15.6-8.5,18.5-12.1,27-18.6l-19-0.4c0.2-1.7,4.4-23.3,4.8-24.8
	c-14.3,9.3-21.1,13.6-40.6,18.9c-7.8,2.1,0.9,9.9,1.7,12c5.3-2.3,9.8-5.1,13-8.7"/>
<path class="st8" d="M200.4,365.6"/>
<path class="st7" d="M200.7,365.3c-1.8-0.8-3.6-0.4-5.8-0.3c-2.1,0.3-4.4,0.6-6.8,0.7c-3.9,0-5.3-1.6-4.1-2.7"/>
<path class="st4" d="M134.6,412.2c0,0.9-0.7,1.6-1.5,1.6l-8.7,0.2c0,0,0,0,0,0c-0.4,0-0.8-0.2-1.1-0.4c-0.3-0.3-0.5-0.7-0.5-1.1
	c0-2.8,2-5.2,3.7-6.3l3.4-2.5c0.6-0.8,0.9-2,0.8-3.2c-0.1-0.7-0.4-1.4-0.8-1.7c-2.6-0.6-3.7-0.5-4.5,2.2c-0.2,0.8-1.1,1.3-1.9,1
	c-0.8-0.2-1.3-1.1-1-1.9c1.8-5.8,6.3-4.8,8.5-4.3c0.2,0,0.4,0.1,0.5,0.2c1.2,0.8,2,2.3,2.3,4c0.3,2.1-0.3,4.2-1.6,5.7
	c-0.1,0.1-0.2,0.2-0.3,0.3l-3.6,2.7c-0.7,0.5-1.5,1.3-1.9,2.1l6.7-0.2C133.9,410.7,134.6,411.4,134.6,412.2z M118.7,395.5
	c-0.7-0.2-1.4,0-1.8,0.6c-1,1.5-1.3,1.6-2.7,2.4c-0.8,0.4-1,1.4-0.6,2.1c0.4,0.8,1.4,1,2.1,0.6c0.3-0.1,0.5-0.3,0.7-0.4l-0.5,11.7
	c0,0.9,0.6,1.6,1.5,1.6c0,0,0,0,0.1,0c0.8,0,1.5-0.7,1.6-1.5l0.7-15.6C119.8,396.3,119.4,395.7,118.7,395.5z M101.7,409.6l-6.8-1
	c0.8-4.4,2.5-15.1,2.5-15.6c0-0.9-0.7-1.6-1.6-1.6c-0.8,0-1.5,0.6-1.6,1.4c-0.1,1-2.5,15.6-2.7,16.6l-0.6,1.8l10.3,1.5
	c0.1,0,0.1,0,0.2,0c0.8,0,1.4-0.6,1.5-1.3C103.2,410.5,102.6,409.7,101.7,409.6z M88.8,389.9c-0.9-0.1-1.6,0.5-1.8,1.3l-2.6,17.6
	c-0.1,0.9,0.5,1.6,1.3,1.8c0.1,0,0.2,0,0.2,0c0.8,0,1.4-0.6,1.5-1.3l2.6-17.6C90.3,390.8,89.7,390,88.8,389.9z M65.8,395.9l-0.2,0
	l-0.2,0c-1.9-0.3-3.4-1-4.9-1.7c-0.2-0.1-0.4-0.2-0.6-0.3l-2.5,6.5c-0.2,0.6-0.8,1-1.5,1c-0.2,0-0.4,0-0.6-0.1
	c-0.8-0.3-1.2-1.2-0.9-2l7-17.9l1.5,0.8c0.5,0.3,1.2,0.5,1.9,0.8c1.6,0.6,3.3,1.2,5,2.8l0.1,0.1l0.1,0.2c1.1,1.8,1.2,4.5,0.2,6.6
	C69.5,394.5,67.8,395.6,65.8,395.9z M67.6,387.8c-1.1-1-2.4-1.5-3.7-2c-0.2-0.1-0.4-0.2-0.7-0.2l-2.1,5.4c0.3,0.1,0.5,0.2,0.8,0.4
	c1.3,0.6,2.5,1.2,3.8,1.4c0.9-0.2,1.5-0.7,1.9-1.5C68.1,390.1,68,388.7,67.6,387.8z M165.4,391.8c-0.1-0.7-0.7-1.2-1.4-1.2
	c-0.7-0.1-1.3,0.3-1.6,1c-0.7,1.9-1.4,2.9-2.5,3.9c-0.6,0.6-0.7,1.6-0.1,2.2c0.6,0.6,1.6,0.7,2.2,0.1c0.4-0.4,0.8-0.8,1.1-1.2
	l2.5,13.2c0.1,0.7,0.8,1.3,1.5,1.3c0.1,0,0.2,0,0.3,0c0.8-0.2,1.4-1,1.2-1.8L165.4,391.8z M178.4,388.8c0-0.5-0.2-1-0.6-1.3
	c-0.4-0.3-1-0.4-1.5-0.2c-8.3,2.8-8.5,2.9-8.6,3c-0.8,0.4-1.1,1.3-0.7,2.1c0.4,0.7,1.3,1.1,2,0.7c0.4-0.1,3.4-1.2,6.1-2.1
	c-0.2,4.8-0.3,10.5,0.4,15.9c0.1,0.8,0.8,1.3,1.5,1.3c0.1,0,0.1,0,0.2,0c0.9-0.1,1.4-0.9,1.3-1.8
	C177.8,400.3,178.1,393.8,178.4,388.8z M191.1,384c0-0.5-0.2-1-0.6-1.4c-0.4-0.3-1-0.4-1.5-0.2l-8.4,3.3c-0.8,0.3-1.2,1.2-0.9,2
	c0.3,0.8,1.2,1.2,2,0.9l6.1-2.4c-0.3,5.6-0.5,11.5,0.6,15.9c0.2,0.7,0.8,1.2,1.5,1.2c0.1,0,0.3,0,0.4,0c0.8-0.2,1.3-1.1,1.1-1.9
	C190.3,396.8,190.7,390,191.1,384z M204.8,395.5c-0.1,0.1-0.1,0.1-0.2,0.2c-1,0.8-2,1.3-3.2,1.3c-0.6,0-1.3-0.1-2-0.3
	c-1.9-0.5-3.9-2.4-4.8-4.8c-1.2-2.6-1.9-5.3-2-7.9c0,0,0-0.1,0-0.1c0.1-2.3,0.6-4,2.9-6.1c0.2-0.2,0.4-0.3,0.6-0.3
	c2.7-0.8,4.8,0,6.3,2.3c0.5,0.7,0.2,1.7-0.5,2.2c-0.7,0.5-1.7,0.2-2.2-0.5c-0.5-0.8-1.1-1.3-2.4-1c-1.3,1.3-1.5,2.1-1.6,3.6
	c0,0.5,0.1,1,0.2,1.6c0.5-0.7,1.1-1.2,1.7-1.5c0.1,0,0.2-0.1,0.2-0.1c1.8-0.7,2.8-0.5,4.5,0.2c0.1,0,0.1,0,0.1,0.1
	c2.1,1.1,3.4,3,3.8,5.7c0,0,0,0.1,0,0.1C206.5,391.7,206.1,394,204.8,395.5z M203.3,390.3c-0.3-1.7-0.9-2.7-2.1-3.4
	c-1.1-0.5-1.4-0.5-2-0.2c-0.5,0.3-1.6,1.2-1.2,4.1c0,0.2,0,0.3,0,0.5c0.7,1.4,1.8,2.2,2.4,2.3c0,0,0.1,0,0.1,0
	c1.1,0.4,1.5,0.3,2.1-0.2C203,392.8,203.3,391.4,203.3,390.3z M141.1,400.5l-2.6,0.1l-0.2-3.4c0-0.6-0.6-1.1-1.2-1.1
	c-0.6,0-1.1,0.6-1.1,1.2l0.2,3.4l-1.2,0c-0.6,0-1.1,0.5-1.1,1.2c0,0.6,0.5,1.1,1.1,1.1c0,0,0,0,0,0l1.2,0l0.3,6.4
	c0,1,0.2,2.3,1.1,3.1c0.6,0.6,1.5,0.7,2.2,0.7c0.3,0,0.5,0,0.7,0c0.6-0.1,1.1-0.6,1-1.2c-0.1-0.6-0.6-1.1-1.2-1
	c-0.8,0.1-1.1,0-1.2-0.1c-0.1-0.1-0.3-0.4-0.4-1.5l-0.3-6.3l2.5-0.1c0.6,0,1.1-0.5,1.1-1.2C142.2,401,141.7,400.5,141.1,400.5z
	 M149.8,400.9c-1.4-1.2-3.3-0.9-5.3-0.7l-0.4-3.2c-0.1-0.6-0.6-1-1.2-1c-0.6,0.1-1.1,0.6-1,1.2l1.7,14.3c0.1,0.6,0.6,1,1.1,1
	c0,0,0.1,0,0.1,0c0.6-0.1,1.1-0.6,1-1.2l-1.1-8.9c1.8-0.2,3-0.4,3.6,0.2c0.9,0.8,1.5,3.4,1.8,8.6c0,0.6,0.6,1.1,1.2,1.1
	c0.6,0,1.1-0.6,1.1-1.2C152.1,404.7,151.4,402.2,149.8,400.9z M53,398c-0.1,0.8-0.8,1.3-1.5,1.3c-0.1,0-0.2,0-0.3,0
	c-0.9-0.1-1.4-0.9-1.3-1.8c0.3-1.7,0.6-3.6,0.9-5.5l-4.9-2.3c-1.3,1.4-2.7,2.8-3.8,3.9c-0.6,0.6-1.6,0.6-2.2,0.1
	c-0.6-0.6-0.6-1.6-0.1-2.2c9.2-9.6,12-12.6,13.2-13.5l0,0c0.2-0.1,0.4-0.3,0.6-0.3c0.1,0,0.2,0,0.3-0.1c0.3,0,0.6,0,0.9,0.2
	C55.9,378.5,56.1,378.6,53,398z M52,383.3c-1.1,1.2-2.5,2.6-3.9,4.1l3.1,1.5C51.5,386.8,51.8,384.8,52,383.3z M82.5,400.1
	c0.3,1.5-0.4,6.2-0.8,8.1c-0.1,0.8-0.8,1.3-1.5,1.3c-0.1,0-0.2,0-0.3,0c-0.8-0.2-1.4-1-1.3-1.8c0.5-2.8,0.9-6.2,0.8-6.9c0,0,0,0,0,0
	c0-0.1-0.3-0.7-1-1l-5-1.3c-1,3.9-1.9,7.1-2,7.5c-0.1,0.7-0.8,1.3-1.5,1.3c-0.9,0-1.6-0.7-1.6-1.6c0-0.3,0-0.3,4.8-17.9l0.4-1.5
	l1.5,0.4c0.6,0.2,1.3,0.3,2,0.4c1.4,0.3,2.8,0.6,4.2,1.1c2.1,0.6,4.6,3.2,3.6,6.7c-0.5,1.9-1.3,3.4-2.4,4.5
	C82.4,399.6,82.5,399.9,82.5,400.1L82.5,400.1z M79.3,396.7c0,0,0.1,0,0.1,0c0.2,0.1,0.5,0.2,0.7,0.3c0.7-0.6,1.2-1.6,1.6-3
	c0.6-2.1-1.5-2.9-1.5-2.9c-1.2-0.5-2.5-0.7-3.8-1c-0.2,0-0.4-0.1-0.6-0.1c-0.5,1.7-1,3.6-1.5,5.5L79.3,396.7z M79.5,400.7
	c0-0.1,0-0.2,0-0.3C79.5,400.6,79.5,400.7,79.5,400.7z"/>
</svg>
