<?xml version="1.0" encoding="utf-8"?>
<!-- Generator: Adobe Illustrator 27.0.1, SVG Export Plug-In . SVG Version: 6.00 Build 0)  -->
<svg version="1.1" id="Layer_1" xmlns="http://www.w3.org/2000/svg" xmlns:xlink="http://www.w3.org/1999/xlink" x="0px" y="0px"
	 viewBox="0 0 750 500" style="enable-background:new 0 0 750 500;" xml:space="preserve">
<style type="text/css">
	.st0{fill:#FFD700;}
	.st1{fill:#BF0A30;}
</style>
<path class="st0" d="M0,0h750v500H0V0z"/>
<path transform="matrix(.25015 0 0 .25015 150 100)" class="st1" d="M1377.9,610.2h-312.2c0.3-3.5,0.4-7,0.4-10.6
	c0-3.6-0.1-7.1-0.4-10.6h312.2c11.8,0,21.3-9.6,21.3-21.3s-9.5-21.3-21.3-21.3h-320.5c-2.5-7.4-5.5-14.5-9-21.3h262.9
	c11.8,0,21.3-9.5,21.3-21.3c0-11.7-9.5-21.2-21.3-21.2H1018c-0.5-0.6-1-1.1-1.6-1.6V187.8c0-11.8-9.5-21.3-21.2-21.3
	c-11.8,0-21.3,9.5-21.3,21.3v262.9c-6.8-3.5-13.9-6.5-21.3-9V121.2c0-11.8-9.6-21.3-21.3-21.3c-11.8,0-21.3,9.5-21.3,21.3v312.2
	c-3.5-0.3-7-0.4-10.6-0.4s-7.1,0.1-10.6,0.4V121.2c0-11.8-9.6-21.3-21.3-21.3s-21.3,9.5-21.3,21.3v320.5c-7.4,2.5-14.5,5.5-21.3,9
	V187.8c0-11.8-9.5-21.3-21.3-21.3c-11.7,0-21.2,9.5-21.2,21.3v293.3c-0.6,0.5-1.1,1-1.6,1.6H487.6c-11.8,0-21.3,9.5-21.3,21.2
	c0,11.8,9.5,21.3,21.3,21.3h262.9c-3.5,6.8-6.5,13.9-9,21.3H421c-11.8,0-21.3,9.6-21.3,21.3S409.3,589,421,589h312.2
	c-0.3,3.5-0.4,7-0.4,10.6c0,3.6,0.1,7.1,0.4,10.6H421c-11.8,0-21.3,9.5-21.3,21.3c0,11.7,9.5,21.3,21.3,21.3h320.5
	c2.5,7.4,5.5,14.5,9,21.3H487.6c-11.8,0-21.3,9.5-21.3,21.3c0,11.7,9.5,21.2,21.3,21.2h293.3c0.5,0.6,1,1.1,1.6,1.6v293.3
	c0,11.8,9.5,21.3,21.2,21.3c11.8,0,21.3-9.5,21.3-21.3V748.6c6.8,3.5,13.9,6.5,21.3,9v320.5c0,11.8,9.6,21.3,21.3,21.3
	s21.3-9.5,21.3-21.3V765.8c3.5,0.3,7,0.4,10.6,0.4s7.1-0.1,10.6-0.4v312.2c0,11.8,9.5,21.3,21.3,21.3c11.7,0,21.3-9.5,21.3-21.3
	V757.5c7.4-2.5,14.5-5.5,21.3-9v262.9c0,11.8,9.5,21.3,21.3,21.3c11.7,0,21.2-9.5,21.2-21.3V718.2c0.6-0.5,1.1-1,1.6-1.6h293.3
	c11.8,0,21.3-9.5,21.3-21.2c0-11.8-9.5-21.3-21.3-21.3h-262.9c3.5-6.8,6.5-13.9,9-21.3h320.5c11.8,0,21.3-9.6,21.3-21.3
	C1399.2,619.7,1389.7,610.2,1377.9,610.2z M1019.3,674.1c-11.4,18.4-27,34-45.4,45.4c-6.7,4.2-13.8,7.9-21.3,10.9
	c-13.3,5.4-27.6,8.9-42.6,10c-3.5,0.3-7,0.4-10.6,0.4s-7.1-0.1-10.6-0.4c-15-1.1-29.3-4.6-42.6-10c-7.5-3-14.6-6.7-21.3-10.9
	c-18.4-11.4-34-27-45.4-45.4c-4.2-6.7-7.9-13.8-10.9-21.3c-5.4-13.3-8.9-27.6-10-42.6c-0.3-3.5-0.4-7-0.4-10.6
	c0-3.6,0.1-7.1,0.4-10.6c1.1-15,4.6-29.3,10-42.6c3-7.5,6.7-14.6,10.9-21.3c11.4-18.4,27-34,45.4-45.4c6.7-4.2,13.8-7.9,21.3-10.9
	c13.3-5.4,27.6-8.9,42.6-10c3.5-0.3,7-0.4,10.6-0.4s7.1,0.1,10.6,0.4c15,1.1,29.3,4.6,42.6,10c7.5,3,14.6,6.7,21.3,10.9
	c18.4,11.4,34,27,45.4,45.4c4.2,6.7,7.9,13.8,10.9,21.3c5.4,13.3,8.9,27.6,10,42.6c0.3,3.5,0.4,7,0.4,10.6c0,3.6-0.1,7.1-0.4,10.6
	c-1.1,15-4.6,29.3-10,42.6C1027.2,660.3,1023.5,667.4,1019.3,674.1z"/>
</svg>
