<?xml version="1.0" encoding="utf-8"?>
<!-- Generator: Adobe Illustrator 27.0.1, SVG Export Plug-In . SVG Version: 6.00 Build 0)  -->
<svg version="1.1" id="Layer_1" xmlns="http://www.w3.org/2000/svg" xmlns:xlink="http://www.w3.org/1999/xlink" x="0px" y="0px"
	 viewBox="0 0 750 500" style="enable-background:new 0 0 750 500;" xml:space="preserve">
<style type="text/css">
	.st0{fill:#0073CF;}
	.st1{fill:#9A3B26;}
	.st2{fill:#EFE8C7;}
	.st3{fill:#B3995D;}
	.st4{fill:#1691FF;}
	.st5{fill:#395839;}
	.st6{fill:#773141;}
	.st7{fill:#D1B881;}
	.st8{fill:#1D5C42;}
	.st9{fill:#FFFFFF;}
</style>
<path class="st0" d="M0,500h750V0H0V500z"/>
<path class="st1" d="M416,260.4h0.4H416"/>
<path d="M324.4,88.7c-0.4,0.4-0.7,0.9-1.3,0.6c0.2-9.3-3.9-16.9-8.4-24.2c-0.5-1-1.9-1.8-2.9-2c2.1,5.9,0.6,11.2,1.6,17.2
	c0.1,0.2,0.5,0.6,0,0.8c-0.9-1.8-1.9-3.4-2.4-5.3c-1-1.8-2.7-3.2-4.5-4.1c-2.8-1.3-4.8-3.7-7.4-5.5c-1-0.2-1.9-1.5-2.8-1.7l-1.4,0
	l-0.2,1.3c0,0.5,0.3,1.1,0.2,1.6c3.5,5.2,8.8,9,10.9,15c-1.2-0.1-2.2-1.4-3.7-1.3c-0.4,0-0.4,0.4-0.3,0.7c0.9,2.5,2.7,4.7,3.4,7.1
	c-6.2-3.2-4.3-11.5-10.1-15.1c-0.9-0.4-1.5-2.1-2.6-1.5c0.8,1.7,1.2,3.4,1.7,5.2c0.6,1.4,0.5,2.5,0.9,4l-0.2-0.3
	c-2.1-0.5-3.6-2.4-5.7-2.7l-0.4,0.4c3.8,3.7,5.9,8.2,8.5,12.5c1.8,4.7,3.7,9.5,7.9,13.1c-0.6,0.8-1.4,1.5-2,2.2l-1.6,1.6
	c-1.2-0.7-2.4-1.5-3.6-2c-0.8-0.3-0.8,0.6-0.8,1.1l2.5,3.7l-1.1,0.8l-0.1,0.1l-0.7,0.7c-4.7,6.4-8.5,12.2-10.8,19.6
	c-0.8-0.1-2-0.8-2.4,0c-1.3,1.7-0.4,3.3,0.6,4.9l-0.9,1.5c-0.3-0.6-0.7-1.1-1.4-1.5c-3,1.5-0.3,4.5-0.2,6.5
	c-2.5,6.4-3.9,13.5-4.8,20.2c-1.3,1.6-3.2,3.1-3.9,5.2l0.1,0.1c-0.4,0.6-0.6,1.4-0.8,2.2c-0.8,1.1-2.8,0.6-4.3,0.9
	c-1.1,0.3-0.5,1.3-0.6,2c0.8,1.4,2.3,0.4,3.5,0.9l0.9,0.1c-0.1,2.4-2.9,2-4.4,2.7c-1.6,0.6-3.7,0.3-4.9,1.4c0.6,0.2,0.8,0.8,1.1,1.3
	c0.4,1.5-1.4,2-2,3.2c0.1,2.8,0,5.2,0.2,8.1c0.6,0.5,0.1,1.1-0.1,1.6c-0.1,2.8-0.7,5.6-0.4,8.4c-0.1,0.8,0.7,0.4,1,0.8l0.1,7.9
	c0.3,0.6,0.9,0.3,1.3,0.6c-0.9,3.7,0.8,7.7,0.2,11.7c0.3,0.5,0.9,0.4,1.1,0.7c-0.3,1.4-1.3,2.8-1.3,4.1c-0.3,3.9-0.9,8.2-0.8,12.1
	l0.3,0.3c0.2,0.2,0.4-0.1,0.6,0.1c-0.1,0.2,0.1,0.4-0.1,0.6c-1.1,4.5,1,8.6,0.2,13.4c0.4,0.8,1.6,0.5,2.4,0.5
	c-0.4,0.8-0.7,1.8-1.5,2.4c-2.1,2.8-0.2,5.5-0.8,8.8l1,0.5c0,0.5-0.5,0.7-0.5,1.2c0.4,2,0.5,4.9,2.4,6.4c1.1,0.1,1-1.1,1.5-1.8
	c0.1-1.1,0.6-2.2,1-3.3c2.8-2.2,2.5-5.1,2.6-8.4c-0.4-2.2,1.3-4,1.4-6.4c-0.3-2.5,1.5-4.4,1.9-6.8c-0.8-2.5,1.5-4.1,1.2-6.4
	c-2.2-3.5,1.5-6.7-0.3-10.2c1.7-1.1,1-2.8,1.5-4.5c1.3-2.6-1.7-4.1,0.6-6.5c1.8-2.3-0.5-6.7,3.1-8.2l1.3,1.4l0.1-0.2l0.5,0.5
	c1.8,5.8,4.5,11.4,7.4,16.9c2.7,5.5,6.9,10.5,10.3,15.7c-2.5,2.6-5.1,5.6-7.9,8c-1.9-2.9-2.7-6.5-5.2-9.2l-0.1,0.1l-0.3-0.3
	c-1.8-0.6-3.7-0.1-5.1,1.4c-1.8,1.1-2.5,2.6-3.4,4.5c-1.6,4,3.7,5.7,5.4,7.9c0.8,0.6,2.3,0.7,2.3,1.8c-3.1,5.6-9.1,9.4-13.2,14.2
	c-2.7,3.8-8.4,7.1-8.9,12.2c0.1,0.8,1,1.3,1.6,0.8c9.8-6.6,17.6-15.3,26.7-23.9c0.4-0.3,0.5,0.6,0.9,0.1c0.6,0.6,1.4,0.6,2.2,0.5
	c0.1-0.9-0.2-2-0.5-2.9c2.9-3.1,7.2-6.2,10.6-9.3c-0.3,2.5-1.4,4.8-2.2,7.2c-0.8,1.4-2.4,1.6-3.6,2.4c-1.2,0.4-2.2-0.7-3.2-0.3
	c-1.1,1.1-0.2,2.7,0.2,4c-0.6,0.8-1.6-0.1-2.4,0.4c-1.9,0.9-1.1,3.2-1.7,4.7c0.4,0.7,1.1,1.1,1.8,1.3c-0.3,1.1-0.4,2.3-0.9,3.3
	c-0.5,1.1-1.9,1.7-1.9,3c0.9,2.3-0.5,4.5-0.3,6.9l0.5,0.8c0.5,0.1,1.7-0.2,2.3-0.3c0.3,1.6-1.3,2.2-2.4,2.8
	c-1.5,2.8-0.5,6.4-0.9,9.3c-0.2,1.6-0.3,3.8,0.5,4.7c-0.1,1.1-1.3,2.4-0.5,3.5c0.2,2.1,1,5.2,0.5,7.4c0,1.3-0.8,3.8,0.7,4.5
	c-0.1,2.9,0.7,5.1,0.4,7.9c1.6,1.3-0.4,3,0.3,4.3c0.1,0.6,0.6,0.9,1.1,1.3c-0.5,2.3-0.7,4.8,0.7,6.8c-0.1,2.1,1.1,4,1.8,5.9
	c1.1-0.4,1.1-1.8,1.4-2.8c2.2-2.5,3.4-6.5,2.1-9.8c2.5-1.9,1.5-5.2,1.3-7.8c1.2-2,1-4.3,0.9-6.7c1.2-1.9,1-3.4,0.6-5.5
	c1.7-2.5,0.8-5.4,2.1-8.1c0.6-1.1-0.9-2.3,0.2-3.3c1.4-0.4,1.4-2.1,1.1-3c-0.7-3.2,0.4-6.3-0.1-9.7c0.8-1.8,1.5-3.7,1.9-5.6
	c0.6-1.7-0.7-3.4-0.4-5.1c0.6-0.6,0.6-2.3,2-1.6c1,0.1,0.8-1.2,0.6-1.8c-0.9-2,1.1-3.2,0.6-5c-1-2.8-3.7-5-4.5-8c0.6-2,1.2-4,1.9-6
	c0.3,0.1,0.5,0.5,0.7,0.7l0.6,1.1c-0.2,0.3-0.3,0.7-0.5,1c1.2,3.6,5.4,0.7,7.1,3.9c-0.3,0.3-0.3,0.9-0.3,1.1
	c0.3,1.7,2.1,2.2,3.5,2.7c1.2,0.6,2.5-0.9,3.2,0.8c4.1,2.2,8,5.5,12.2,7.6v0.3c-0.1,0.2-0.3,0.1-0.6,0.1c-0.1,0.8-1.1,1.5-1.8,2.1
	c-1.5-0.4-2.8-1.3-4.6-1.2c-0.1,0.5,0.3,0.7,0.2,1.2c0.4,0.8,1.2,1.3,1.9,1.6c1.3,0.3,2.9,0.1,3.8-0.4c-0.4,1-0.7,2-1.3,3
	c-2,2.6-4.8,4.7-8.1,4.9c0.1,0.8-0.1,1.6-0.3,2.4c0.1,0.9,0.9,1.1,1.6,1.4c0.4,0.6-0.1,1.4-0.1,1.9c-0.2,1.7-0.9,3.8,1.2,4.7
	c0.2,1.1-0.8,1.8-0.6,2.9c0.1,0.8,0.9,1,1.3,1.4c0.1,0.3-0.1,0.4-0.2,0.6c0.5,2.5-0.7,5.1,1.5,7c-1.8,1.4,0.3,3.5-0.7,4.9
	c-0.1,0.8,1.1,0.4,0.9,1.3c-0.8,0.9-0.5,2.1-0.6,3.3c1.8,1.7-0.5,4-0.5,6.1c1.6,2.8,1.7,6.8,0.8,9.8c-0.1,0.8,1,0.5,1.3,0.8
	c0.1,0.2-0.1,0.2-0.3,0.3c0,2.7-1.5,5.3-0.6,8.1c1.4,5,0.1,11.5,3.8,15.7c0.6-0.1,1.2-0.6,1.5-1.1c1.7-3.5,2.3-6.9,3-10.6
	c2-1.7,2-4.3,2.4-6.5c0-3.4,1-6.8,1-10.4c1.5-4,3-9.1,1-13.2c-0.5-0.3-0.9-0.8-0.9-1.3c1-2.2,1.9-5.5,0.6-8.1
	c-0.4-0.7,0.4-0.4,0.8-0.7c0.5-0.2,0.8-0.7,0.9-1.3c0.1-0.8,0.3-1.4-0.3-2c-1.4-3.6,1.5-6.8,0.9-10.3c-2.8-2.7,0.4-6.1-0.8-9.5
	c-0.8-1.4-2.4-0.3-3.5-1c-2.9-1.4-0.5-4.7-0.7-6.8l1.1,0.2c3.9,2.9,9,3,13.6,4.3c0.6,0.4,1.6,0.3,1.7,1.3c0.7,0.8,1.4,1.1,2.3,1.1
	c1.5,0.2,2.6-2,3.9-1.1c1.1-0.2,1.1,0.9,1.8,1.5c1.4,0.9,3.3,0,4.7-0.8l0.6,1.8c-0.3,1.9-0.2,3.9-0.3,5.7l-0.2,0.3
	c-1.6-0.3-2.8-1.8-3.8-3c-1.4,0.4-1.5,1.7-2.3,2.7c-0.1,1,1.1,2,1.9,2.7c-0.3,0.2-0.7,0.3-0.9,0.3c-1.3,0.9-3.5,0.2-4.6,1.5
	c0.1,2.6-0.3,4.7,0.5,7.1c0.6,0.6,1.3-0.1,2-0.2c0.4,1.1,0.5,2.2,0.4,3.4c-4,1.4-1,4.9-2,7.5c-0.8,2.1,1.8,1.5,2.6,1.7
	c-0.8,1.5,0.2,4.2-2.2,5c-0.6,0.5-0.4,1.3-0.4,2.2c0.1,1.1,1.5,1,2.1,1.3c-0.8,2.4-1,5.4-1.4,7.6c0,0.8,0.8,0.8,1.1,1.3
	c-0.3,1.2-0.5,3-0.2,4.3c-1.6,1.8-1.3,4.7-0.9,6.4c0.1,0.4,0.4,0.3,0.6,0.5c-0.2,0.2-0.1,0.6-0.1,0.9c-0.6,2.1-1.6,4,0.5,5.7
	c-0.5,2.3-1,5-1.1,7.2c0.5,2.8,2.2,5.4,1,8.4c-0.7,4.4,1.8,8.3,1.8,12.9c1.9,0,2-2.3,2.8-3.7c0.8-2.6,1.9-5,2.1-7.9
	c-0.1-3.4,1.8-6.3,3.3-9.2c1-1.6,0.8-3.8,0.6-5.6c1-1.6,1.1-3.7,1.4-5.5c0-0.6-0.6-1.1-0.3-1.7c1.8-3.2,1.7-7.5,2-11.3
	c1.4-2.5,1-5.9,1.2-8.6c1.4-3.8,1.2-8,1.7-12c-0.2-1.3-2-2.8,0.1-3.6c0.4-2.3,1.4-5.2,0.1-7.5l1.3-1.5c0.3-0.9-0.5-1.6-0.8-2.4
	c-1.5-1.5-2.8-3.4-3.7-5.4c-0.7-1-2.1-0.1-2.7-0.9c0.2-2.7,0.1-4.3,0.1-7.2l-0.3-0.6c3-0.2,6.3-0.2,8.8-0.5
	c8.5,0.2,17.5-1.1,25.9-4.2c0.6,1,2,0.3,2.8,0.5c0,1.6-0.3,3-0.6,4.6c-0.1,0.2-0.5,0.4-0.4,0.7c-1.8,1.3-2-1.8-3.5-2.2
	c-0.9,0.6-1.3,1.6-1.6,2.6c-0.3,1-1.5,2.3-0.3,3.2c-0.8,0.6-1.8,0.6-2.5,0.9c-1.1,0.4-0.9,1.3-0.8,2.3c0.1,0.8,1.1,1,1.5,1.4
	c-0.6,0.6-1.6,0.2-2.1,0.9c-0.5,2.8,0.1,5,0.7,7.6c0.1,0.9,1.2,2.2-0.3,2.5c-1.1,1.2-0.7,3-0.2,4.2c0.7,0.2,1.3-0.3,1.9,0.2
	c-0.6,0.8-1,1.6-1.4,2.5c-0.4,4.7,1.2,9.4,1.2,14.1l1.6,0.1c-0.6,1.7-1.8,3.1-1.7,5.1c1.6,3.4,1.9,7.6,0.9,11.3
	c0.4,1.3,0.4,2.8,0.5,4.2c0.1,0.8,0.7,0.1,1.1,0.5l0.2,4.8c0.2,1.3,0,3,1.2,3.6l-0.3,0.5c-0.3,3.5-0.4,6.5-0.3,10.3
	c-0.1,0.6,0.4,1.5,1.1,1.1c1.1-0.6,2.4-1.7,2.4-3.1c0.1-1.1,0.3-2.3,0.8-3.5l-0.1-0.1c2.3-2.2,2.6-5.4,2.9-7.7
	c0.3-3.9,1.4-7.3,2.3-11.1c-0.5-4.7,1.9-9.1,0.8-13.7c1.6-1.6,1-3.8,2.3-5.5c0.4-2-0.6-4.2,0.5-6.2c0.3-1.9-1-3.4-1.2-4.9
	c0.9-2.9-2.2-4.9-2.1-7.5c1.3-0.9,3.5,0,4.3-1.6c0.2-1-0.4-1.9-0.5-2.9c0.4-0.4,0.9-0.4,1.4-0.6c1.8-0.4,0-1.9,0.8-2.6l-0.3,0.3
	l-2.1-2.8c-0.5-0.8,0.5-1.4,0.1-2.1c-2-2.4-3.4-5.3-4.2-8.3c-2.2-1-1.7-3.9-1.6-5.5c3,1.2,6.7,1.2,9.7,1.5c4-0.4,6.3,3.9,10.3,2.5
	c1.1,0.1,2.5-0.7,3.8-0.8c1,1.9,2,3.8,3.1,5.7c-0.1,0.1-0.4,0.2-0.5,0.3c0,1.4,0,3.8-0.5,5c-0.3,0.9,0,2.3,1.2,2.7
	c-1.3,1.4-1,3.5-1.5,5.2c0.1,0.8,0.9,0.1,1.4,0.5c-2.5,1.8-1.2,5.6-3,7.9c-0.5,1.1,0.2,1.9,0.6,2.7c-1.4,2.7-0.2,5.5,1,7.9
	c-0.9,1.2-1.4,2.9-1,4.3c1.6,1.9-0.9,3.3-0.6,5.2c0.8,2.7,0.8,5.7-1,8c-1.3,1.8,0.8,3.2,0.5,4.9c-1,2.6,1.3,4.5,0.5,7.1
	c-0.1,1.3,1.2,2,2.3,1.6c1.2-0.7,1.5-2.2,1.5-3.3c-1.4-3.3,3.9-5.1,3.1-8.5c0-3.6,2.6-6,3.1-9.5c1.3-1,2.1-2.7,1.7-4.2
	c-1.6-3.5,1.6-6.2,1.6-9.4c-0.5-3.1,1.2-5.2,1.5-8l0.2-1.2c1.9,2.2,3.4,4.7,4.9,7c1.5,2.5,3.9,4.7,4.9,7.4c0.4,0.1,0.3-0.3,0.5-0.4
	c2.1,3.1,5.5,4.5,8.5,6.1c1.3-1.2-0.4-3.1-0.8-4.6c-0.1-0.8-1-1.4-0.9-2c-0.4-1-1.6-2-1.8-2.9c-0.4-0.8-1-1.6-1.9-1.8
	c-2-3.4-3.2-7.1-5.4-10.4c-1.6-3.2-4.1-6.1-5-9.5l1.4-0.8c0-2.2-0.1-4.1-1.2-6c-0.3-0.7-1-1.5-1.1-2.3c0.6,0.3,1.3,1.1,1.9,1.1
	c1.2-0.6,1.5-1.9,1.9-3c0.4-1.6-1.4-2.7-2.3-3.9c0.6-0.2,1.3-0.1,2-0.2c1.4-0.6,1.4-2.3,1.9-3.6c-0.1-0.8-0.9-1.3-1.1-2
	c3-3.7-2.8-5.4-3.5-8.9c0.6-0.6,0.9-0.5,1.8-0.5c1.8,0,1-2.4,1.5-3.5c-0.1-1.6-1.9-1.8-2.6-3.1c-3.5-3.2,0.3-7.2-0.6-11.3
	c3.1-1.8,2.8-5.1,2.2-8.3l0.8-0.5c0.1,0.7,0.3,1.4,0.4,2.2c0.3,0.6,0.9,0.9,1.6,0.7c1.2-1.1,1.1-3,0.8-4.8l0.8-0.6
	c1-1.7,2.1-3.4,2.8-5.2c0.8-2,1.6-4,2.5-6.1l0.3,0.7c-0.2,2.2,0.6,4.7,0.5,6.9c0,0.9,1.1,0.8,1.8,1l-1.3,1.6c-1.8,2.6,0,5.2-1.5,7.7
	c1,2.5-2.2,5.5,0.2,7.6c-0.4,0.5-1.1,0.9-1.3,1.5c-0.5,1.3,0.8,2.3,1.4,3.3c-0.1,0.6-0.6,1.3-1,1.9c-1.2,1.9,0.1,3.8-0.1,5.7
	c-1.1,1.1-1.7,2.8-1.1,4.1c2.2,2,0.1,4.7,1,7.1c-2.5,3.3,0.9,6.7,1.1,10.2h0.4c1.4-1.7,3.2-3.5,3.6-5.8c1.5-1.8,2-4,3.4-6
	c2.3,1.2-0.9-0.9,0.7-1.6c-0.7-2.9,2.1-4.6,1.2-7.2c0.3-3.7,2.2-6.7,3.7-10c0.3-3.9,2.3-7.9,2.5-11.8c2.5-2.9,2.4-6.8,3-10.5
	c-0.6-3.6,0.9-6.9,0.6-10.8c3.4-3.2-0.3-7.5,1.6-11.3c-0.6-3,1-6.4,0.4-8.9l0.5-0.5c-0.4-1.3-1.8-0.8-2.9-0.9l-2.4-5.4
	c-0.5-1.1,0.3-1.8,0.8-2.5c0.1-0.7,0.8-1.7-0.2-2.2c-0.8-0.6-2-0.1-2.5,0.8c-1.9,1.8-2.1-0.5-2.8-2.1l-1.5-1.8
	c0-1.7-0.7-3.3-1.9-4.6c1.4-7.6-1.4-14.3-1.8-21.3c0-2.7-1.4-4.9-1.3-7.5c0.1,0,0.3-0.1,0.4,0.1c0.6-0.2,0.7-0.9,0.6-1.4
	c-0.8-1.8-2.2-3.3-3.8-4.4l-0.2-0.9c0.2-0.6-0.5-0.8-0.4-1.4c0.5-0.4,1.3,0.3,1.7-0.5c0.5-2.7-2.5-4.4-4.5-5.5c0-1.4-1-2.4-1.2-3.7
	c-3-5.4-5.7-11-9.8-16c4.5-4.2,8.6-9,13.6-13.3c1.3-1.5,2.9-2.9,3.2-5c-0.4-1.6-1.2-3-2.3-4.3l1-0.9c0.8-0.5,1.5-1.3,2-1.9
	c-0.6-1.3-2.2-2.2-3.1-3.3c-1.2,0.6-2.4,1.8-2.9,2.9c-0.7-0.6-1.4-1.9-2.6-2.3c-1.3-0.3-2.6-0.1-3.5,0.8c-3.6,3.8-7.8,6.6-10.9,10.8
	l-1.1,0.5c-2.2-1.3-2.5,1.6-3.9,2.2c-0.8-1.8-3.5-0.4-4.2-2.7l0.1-0.1c0.8-0.6,0.5-1.5,0-2.1c-1.4-0.5-2.9-0.5-4.3-0.2l-0.7-1.1
	c-0.4-0.8-1.7-1.3-2.2-2.1c-5.8-3.8-11.2-7.6-17.4-10.2c-7-3.2-14.3-5.4-22-6.9l0.1-0.1c0.3-0.5,0.4-1,0.3-1.6c-0.6-1.1-1.8,0-2.7,0
	c-1.5,1.3-4,0.8-5.9,1c0.6-0.8,1.6-1.8,1.3-3c-2.3,0.4-4.6,1.2-6.5,2.4c-3.5-0.3-6.5-0.3-10-0.3c-8.4,1.3-17.3,2.4-25.3,5.2
	c-1,0.2-4.5,1.4-4.5,1.4c-0.2-1-1.2-0.7-2-1.2c-2.7,1-2.7,4.5-5.6,5.1c-0.9-2-1.9-3.9-3.1-5.7c-1.4-2-3.4-4.6-6-4.1
	c-0.3,0.4-0.5,0.9-0.2,1.4c1.6,3.6,2.7,7.5,3,11.6"/>
<path class="st1" d="M465.3,255.1c0,0.5,0,1,0.1,1.4c1.8,0.5,4.1,0.5,5.2-1.3c0.1-0.7,0.3-1.5,0.3-2.1c-1.3,0.5-2.7,0.8-4,1.4
	L465.3,255.1 M475.1,256.2c-0.6-0.9-0.8-2.1-0.9-3.1c0.2,0.1,0.4,0.1,0.6,0.2c1.3,0.7,1.3-1,2-1.5c1.4,1.3-0.7,2.6-0.8,3.9
	c0,0.3-0.1,0.7-0.2,1L475.1,256.2"/>
<path class="st2" d="M479.9,239.2c-0.9,0.3-1,2-1.7,2.8c-0.4-0.3-0.8-0.5-1.1-0.8c-1.4,0.1-1.1-0.9-1.1-2h-0.4c-0.4,1,0.7,3.2-1,3.6
	c-1.5,3-4.9,3.5-7.6,3.9c-2.7-2,0.3-4.5-0.5-7c1.4-1.8,0.5-4,0.7-5.9c0.2-1.6,1.5-2.9,2.2-4.3c-0.6-0.1-1.5,0.3-1.9-0.4
	c-0.1-1.3-0.3-3.8-0.4-5.6c-0.1-0.5-0.3-1.1-0.2-1.6l-0.2-1.5c3.6-8.9,6.8-17.8,7.9-27.7c-0.4-1.4,0.9-0.9,1.5-1.7
	c0.6,1.5,0.8,3.4,0.5,5.1c-0.1,1.3-1,2.5-1.2,3.6h0.4c2.4-2.5,1.6-6.8,0.8-9.8l-0.5-1.9c-0.6-1.5-1.8-2.9-1.1-4.6l0.8,1.1
	c0.2,0.7-0.1,2,0.7,2.3c-0.1-1.1,0.3-2.4-0.7-3l0.6-0.4l1,1c0,0.7,0.8,1.2,0.9,1.8c0.2,5.5,0.4,12,0.8,18.3c0.9-1.6,0.3-3.7,0.5-5.6
	c0.8,0.8,0.9,2,1.6,2.7c0.5-1-0.5-1.9-0.9-2.8c-0.4-0.1-0.8,0.2-0.9-0.2c-0.1-3.4-0.4-8.1-0.4-11.5c1.5,0.8,2.3-1.5,3.7-1.6
	c0.8,1.1-0.4,2.2-0.9,3.2c-0.2,1.5,0.8,2.5,1.2,3.8c0.7,1.3,1.3,2.5,1.7,3.9c0.5-0.6,1.2-0.4,2-0.3c0.4,1.4,0.2,3.5,0,5.2
	c0.8,4.2-1.9,7.2-0.3,11.7c0.6,1.5-1,2.4-1.4,3.7c0.7,3.3-1.6,6.6-0.4,9.8c-0.8,2.5-0.4,5-1.1,7.4c-1.2-1.3-2.7-2.4-4-3.8
	c-0.2-0.3-0.1-1.1-0.8-0.9c0.2,1.9,1.2,3.7,1.9,5.5c0.2,0.8,1.3,1.3,1.3,2.3c-0.3,0.8-0.5,1.5-0.7,2.3L479.9,239.2"/>
<path class="st1" d="M480.9,239.8c-0.7,2.8-1.1,5.7-2.3,8.6l-0.3-0.3c-1.1-1.3-1.2-4-3.2-3.8c0,1.5,0.1,3.5-1,4.9
	c-0.9-0.3-0.4-1.8-1.4-1.8c-1.4,1.2-3.3,2.2-5.2,2.5l-1.3,0.5c-0.5-0.5-1-1-1-1.8c0.1-0.8,0.7-1.2,1.3-1.6c2.1-0.4,4.3-0.5,6.1-1.6
	c1.3-1.5,3-2.5,3.5-4.3l1.6,1.1c1.5,0.4,1.7-1.5,2.2-2.7L480.9,239.8"/>
<path class="st2" d="M466.3,250.6c0.4,0.5,0.7,1,0.2,1.6c-0.6,0.7-1.1,1.6-1.3,2.5l1.5-0.7c1.4-0.8,3-0.9,4.5-1.5
	c0.2,1.4,0,2.5-0.5,3.7c-1.7,0.7-3.1,1.4-4.9,0.7c-0.3,0.6,0,1.1-0.1,1.8c-0.4,1.2-1.8,2.2-1.3,3.7l1.9-1.9c1.8,1.7,3.6,0.2,5.7,0.1
	c0.5,0.1,0.7,1,1.3,0.5c0.8-1.4,2-1.9,1.9-3.5c0.1-0.2,0.1-0.3,0.2-0.5l-0.8-0.8c-1.1-1.1-1.4-2.9-1.1-4c0.9-0.4,1.2,0.6,1.9,0.5
	c0.4-0.8,0.8-2,1.2-2.4c0.9,0.1,0.4,2.1,1.4,1.3c0-0.3-0.1-0.6,0.3-0.8c0.1-0.5,0.3-1.3,0.3-2c-1.5-0.7-1.8-2.6-2.7-3.9
	c-0.7,0.9,0.2,1.6-0.3,2.6c-0.5,0.8-0.5,2-1.6,2.2c-0.6,0.1-0.9-0.6-1.1-1.1c0.1-0.1-0.1-0.2-0.2-0.3c-1.8,0.8-3.3,1.9-5.2,2
	L466.3,250.6"/>
<path class="st1" d="M450.8,302.5c-0.7-0.8-1.5-1.5-2.4-2.1c-0.1,1.4,0.6,3.2,1.4,4.5l-0.6,0.2c0.3,0.3,0.4,0.8,0.9,1.1
	c0.2-0.9,0.4-1.4,0.5-2.1L450.8,302.5"/>
<path class="st2" d="M373.8,335.5c-0.3-0.4-0.5-0.7-0.8-1.1c-1-0.2-0.1,1.1-0.7,1.4c-0.5-0.4-0.6-1-1.3-0.8
	c-0.9,0.2-0.6,1.3-0.4,1.9c0.6,1.5,1.9,3.7,1.1,5.1c-0.3-0.1-0.6-0.4-0.9-0.1l-0.1,3.7c-0.1,0.1-0.3,0.3-0.5,0.3
	c-0.1-0.1-0.4-0.3-0.4-0.5c-0.6-0.1-1.1-0.8-1.7-0.4c0.5,3,3.9,4.5,4.1,7.6c-0.1,2.2-1.6,3.9-2.8,5.6c-1.3-0.4-1.5-2-2.7-2.5
	c-1,1.1-0.7,2.7-0.2,3.8c1,2.7,0,6.6-1.5,9.2c-1-1.7-0.1-4.2-1.3-5.7l-1.3,1c0.2-0.7,0.1-2,0.6-2.8l0.4,0.2c0.5,0.3,1.1,0.1,1.5-0.4
	c0.4-2.2-0.7-4.6-0.9-6.7c-0.6-0.8-1.4-1.5-2.3-1.5c0.3-2,0.2-3.7,1.2-5.5c1.6-0.6,3.1-1.4,4.3-2.6c0.3-0.9,1.2-1.8,0.6-2.8
	c-2-0.1-4.4,3.1-5.8,0.3c0.1-0.6,0-1.6,1-1.4c1.5-1.4,3.4-3.1,4.7-4.9c-1.3-1.8-3.8,0.3-5.4-1.4c0-1.8-0.4-3.5,0.5-5
	c-0.5,0.1-0.9-0.1-1.3-0.4c0.1-2.8,0.7-5.6,1.4-8.3c-0.7-0.1-1.6-0.1-2.1-0.8c-1-2.8,3-2.8,2.3-5.7c0.3-0.7-0.4-2.1,1.1-2.3
	c0.8-0.4,1.5-1.2,1.5-2.1c-1.2,1.3-2.8,2.7-4.7,2.4l-0.5-6.6c0.6-0.7,1.6-1.4,2.3-2.1c-0.1-1.3-0.1-2.6-0.5-4
	c-0.8-0.1-1.1,1-1.9,0.6c-0.6-0.6-0.1-1.4-0.6-1.9c-0.1-1.4-0.4-3.8,0.3-5.1c1.8-0.3,3.7-0.9,5.6-1.4c-0.6-1-2.1-1.8-2.1-3
	c0.4-0.8,0.8-1.6,1.5-2.2c1.2,1.3,2.6,3.2,4.6,2.7c0.4-1.7,0-4.3,0.3-6.4l0-1.3c0.8,0.1,1.6,0.1,2.4,0.2c0.1,0.3-0.3,0.2-0.3,0.4
	c-0.1,1.5,0.3,3.4,0.2,4.7c0.9,3.4-1.7,6.1-1,9.3c-0.1,2.8,2.2,4.6,3,7l0.5-0.3c-0.4-1.4-1.3-2.6-2.2-3.8c-0.4-1.7-0.9-3-0.5-5
	c0.1-1.3,0.3-2.8,0.6-3.8c1,0.3,2.3-0.1,2.7,1.1c0.3,2.4,3,3.7,3.9,5.8c0.9,1-0.6,1.3-1,1.9c-0.6,0.7,0.1,1.4,0.2,2.1
	c0.3,2.1,0.4,5.3-1.4,6.7c-0.5,1.3,0.8,2.1,0.9,3.3c-0.5,3-1,6.2-0.9,9.3c-0.6,0.8-0.3,1.4-0.8,2.2c-0.6-0.9-0.9-2-1.3-3
	c-0.4-0.8-0.9-1.8-1.6-2.2c-0.4,2.1,0.2,5,0.5,7.4l-0.3,0.2c-0.5,0-0.9-0.2-1.3-0.3c0-1.1-0.9-2-1.1-3.2h-0.4
	c-0.1,0.9,0.4,2.5,1.5,3l-0.2,0.5c0.6,1.6,1.4,3.2,1.8,4.9c1.8,1.3,0.7,3.3,0.8,5.1L373.8,335.5"/>
<path class="st1" d="M373.3,335.8c-0.1-0.1-0.2-0.1-0.3-0.1c-0.1,0.3-0.1,0.8-0.6,0.8c-0.7,0.1-0.6-0.6-1.1-0.9
	c-0.6,1.3,0.7,2.5,0.9,3.7c0.3,0.9,0.5,2.1,0.2,3l-0.5,0.4c-0.1-0.2-0.4-0.1-0.5-0.1c-0.1,1.1-0.2,2.4-0.3,3.6
	c-0.3,0.9-1.1,0.3-1.6,0.1c-0.1-0.4-0.5-0.5-0.8-0.6l-0.1,0.1c0.9,1.5,1.9,3,3.2,4.2c1-2,1.7-4.7,0.9-6.8c1.7-1.6,1.4-4.1,1.8-6.3
	L373.3,335.8"/>
<path class="st2" d="M273,174.8c0.1-0.8,0-1.5,0-2.3c-1.4-0.2-2.7,0.4-4.1,0.5c-0.2,0.4-0.1,0.9-0.1,1.3c1,1.1,2.4,0,3.6,0.5
	L273,174.8"/>
<path class="st1" d="M475.5,188.2c-0.3-0.4-0.5-0.9-0.7-1.3c-0.6-1.8-1.4-3.3-2.7-4.7c-0.6,0-1.2-1.3-2.1-1.4
	c-0.4,0.1-1-0.1-1.3,0.4c0.4,1.6,1.8,2.9,2.6,4.4c1.2,1.8,1.7,4,3.6,5.4c0.6-0.2,0.3-1,0.2-1.4c-0.2-0.4-0.6-0.6-0.5-1.1
	c0.5,0,0.6,0.7,1,1L475.5,188.2 M285.6,137.8c0.3,0.4,0.5,0.8,0.7,1.2c1.1,1.1,0.7,1.9,0.2,3.2c-1-0.7-1.4-1.9-1.9-2.9L285.6,137.8
	 M310.9,254.6c-0.9-1.1-1.9-2.1-2.9-3.2c0.7-0.4,1.2-0.9,1.8-1.6c1.8,1.8,3.2,3.3,5.2,4.8c-0.9,0.3-2.7,0.4-3.4,0.4L310.9,254.6"/>
<path class="st1" d="M460,232.7c-0.1-0.8-0.3-1.5-0.4-2.1c6-12.1,9.2-25,11.7-38.3c0.3-1.3,0.5-2.9,0.9-4.1c3.2,2.3,0.9,5.4,1,8.4
	c-1.3,5.7-2.3,11.3-4.5,16.4c-0.3,1.4-1.4,3-1.5,4.1c-2.6,4.9-3.7,10.4-6.6,15L460,232.7 M464.9,140.8c0.9,0.4,1.8,0.9,2.8,1.5
	l-0.1-1l0.2,0c-0.2-0.7,0.1-1.7-1.1-1.8c-0.8-0.7-1.9-1.1-2.9-1.6c-0.1,0.5,0.1,1.1,0.5,1.6L464.9,140.8"/>
<path class="st2" d="M447.9,99.5c3.4,5.4,2.6,12.4,2.8,17.8c6-6.4,12.2-12.3,18.3-18.4c0.8-1.1,1.5-2.1,0.9-3.6l-0.3-0.2l-0.1,0.1
	c-0.7-3.3-4.1-5-6-7.7c-1.1-0.6-1.8-0.5-2.8-0.1c-3.9,3.5-8.6,7-11.9,11.4L447.9,99.5 M469,90.9c0.5-0.6,1.5-1,1.7-1.8
	c-0.6-1-1.7-1.6-2.6-2.4c-1,0.8-1.8,1.6-2.2,2.7c0.7,0.7,1.4,1.5,2.2,2.3L469,90.9"/>
<path class="st3" d="M431.1,97.8c-0.1,0.1-0.3,0.2-0.4,0.3c-0.1,0-0.1-0.1-0.1-0.2c-0.1,0.1-0.1,0.1-0.2,0.1l0,1.4
	c2.1,0.6,5.1-1,5.7,1.8c-0.6,0.3-0.5,0.8-0.6,1.3c0.8,1.8,2.4,0.2,3.8,0.3l2.7,1.9l-0.1,0.6c-2.4,1.6-4.5,4-6.6,5.9
	c-1,0.9-2.2,2.3-3.8,1.5c-0.6-0.2,0-0.6,0-1c-0.3-1.8,0.6-3.5-0.2-5.2c-1.8-0.6-4.2-0.8-6.7-0.7c-0.2,0.9-0.6,1.8-0.6,2.6
	c-0.3,1.3-0.4,2.6-0.9,3.7l-5.6,0c-0.8,1.8-0.5,4.2-0.6,6.1c0.4,0.4,1.4,0.7,1.9,0.4c0.7,0.6,2.6,0,3.5,0.5c0.2,1.4-0.5,3.5,0.5,4.3
	c-10.7,11-22.2,21.6-32.6,32.9h-0.4c-0.5-3-0.6-7-0.9-9.8c-0.6-0.4-0.1-1.7-1.2-1.4c-1.5,1.8-2,4-3,6c-1.6,2.8-1.6,6-1.8,9.3
	c-0.2,1,0.5,2-0.2,2.8c-0.6-8.6-1-17.7-6.8-24.4c-0.6-0.7-0.9-1.3-1.8-1.4c-0.3,0.4-0.6,0.9-0.5,1.6c2.6,4.6,1.2,10.5-0.2,15.1
	c-0.2-2.5-0.1-4.9-0.2-7.1c0.4-6.7-2.3-12.7-5.7-18c-0.6-0.4-1.5-0.9-2.2-0.4c-0.4,0.4,0.2,1,0.1,1.5c0.5,7,0.5,14.9-0.7,22
	c0.3,3.4,1.4,6.9,2,10.2c0.1,1.4,0.5,2.7-0.2,4c-0.5-0.3-0.9-1.1-1.4-1.5c-1.2-2.5-3.6-4.9-5-7.5c1.5-2.7,2.6-5.5,3.9-8.3
	c2.3-10.3,0.5-22.8-3.4-32.7c-1.1-1.7-1.9-4.4-4.3-4.6c-0.6,0.3-0.3,1.1-0.5,1.4c2.9,6.6-1.6,13.4,0.9,20.4c0.1,6.7,2.2,14-0.1,21
	c-0.2,0.1-0.4,0.5-0.8,0.4c-2.6-1.7-3.1-4.7-2.8-7.3c1.7-2.6,2.8-5.5,3-8.4c-0.1-7.5,0.5-15.8-5.6-21.8c-1.8-0.8-3.1-3-5.1-3.3
	c-0.8,2.6-1.1,5.9-0.4,8.6c2.9,3.7,4.1,9,3.5,13.2l-2.3-1.8c-1.4-0.2-2.8,1.2-3.7,2.1c-0.6-1.4-1.8-2.6-2.3-4.2
	c0.1-0.6,0.5-1.3,1-1.6c1.7-6.4,4.1-12.6,1.8-19.5c-0.8-2,2-0.7,2.7-1.9l0.2-7c-1.8-0.8-4.1-0.9-5.9-1.4c-0.4-1.8,0.1-3.9,0-5.7
	c-2-0.9-4.1-1.7-6.2-1.6c0.1-1.4-0.3-2.9-0.7-4.2c0-0.5-0.7-1.3,0.1-1.6c0.5,0.6,0.1,1.1,0.8,1.6c2.3-0.4,2.2-3.1,3.9-4.2
	c4.7-1.9,9.5-3.2,14.5-4.3c7.9-0.9,16-2.4,23.3-2.5l0.9,0.1c-0.3,0.7-0.4,1.4-0.2,2.1c2.3,0.8,3.4-2.9,5.9-2.4
	c0.5,0.3,0.5-0.2,1.8,0.5c1.3,0-0.1,1.3,0.9,1.8c1.6,0.4,2.5-1.2,3.8-1.7c0.7,0.4,1.6,0.3,2.3,0.8c4.5,0.5,8.2,2.8,12.4,3.7
	c9.2,4.4,19,7.7,27.5,13.9L431.1,97.8"/>
<path class="st1" d="M434.4,95.6c-11.9-10.2-27.1-16.7-42.2-19.6l-3,2.4c2.6,1.4,5.9,1.1,8.4,2.6c9.8,2.6,18.9,7.3,27.9,11.9
	c1.8,1,4.4,2.9,6.1,4.2L434.4,95.6"/>
<path class="st4" d="M424.8,269.3c2.8,2.1,5.5,4.4,9.3,4.5c0.1-0.1,0.5-0.2,0.5-0.5c-0.5-0.2,0.1-0.4-0.3-0.6l-2.8-7.2
	c-2,0.4-3.8,2-5.8,3.1L424.8,269.3"/>
<path class="st1" d="M423.9,268.7c-0.3-0.2-0.6-0.4-1-0.6l1.3-1.1c2.1-1,4-2.4,5.9-3.6c0.4,0.4,0.5,0.9,0.8,1.4
	c-1.9,1.3-4,2.4-5.7,3.6L423.9,268.7 M408,274.7l-0.1,0.7c-0.2,0.3-0.3,0.8-0.4,1.1c-3.4,1.4-6.6,2-10.1,3
	c-5.4,1.4-11.8,0.9-17.2,1.7c-3.2,0-7.6,0.6-10.8,0.1l2.7-2.3c4.4,0.5,8.4-0.3,12.9-0.4c7.9-1,15-0.4,22.2-3.5L408,274.7"/>
<path class="st3" d="M432.6,207.3c-0.3,0.1-0.6,0.3-0.9,0.3c-3.5-0.1-5.8,3.3-7.6,5.6c-2.7,4.7-3.6,10.1-7.3,14.3
	c-0.6-1.5-2.1-2.7-2.3-4.4c2-1.6,3.4-3.8,4.7-6c4.5-6.3,2.7-14.7,3.3-22.2c0.7-3.1,1.2-6.4,0.2-9.3c-0.3-0.4-0.1-1.2-0.9-1
	c0.1,0.4-0.5,0.6-0.6,1c-9.2,6.6-5.1,18.8-9.1,27.9c-1,2.1-0.6,4.5-1.1,6.7c-1.4-1.7-2.9-3.2-4.4-4.7l-0.1-0.6l3.2-5.2
	c1.8-3.4,3-7.5,4.2-11.1c1-6.2,4-11.9,3.9-18.2c-0.5-2.6-0.2-5.6-2.5-7.6c-1.1,2.6-2.9,4.3-4.9,6.3c-5,4.4-8.2,10.9-5.5,17.7
	l-0.3,0.8c-0.4-0.1-0.4-0.6-0.9-0.4c-3,0.4-4.4,4-5,6.7c-1.3-1.3-1.7-3-1.8-4.6c3-3.8,4.6-8,4.4-13c-0.5-5.4-2.2-10.9-3-16.5
	c5.6-4.5,9.6-9,14.5-14.3l21.2-20.4c3.6-3.6,7.2-7,11-10.4c-0.8,2.8-1.5,5.5-1.8,8.6c0,2,1.6,3.8,1.9,5.9c-1.7,4.2-2.1,8.9-0.4,13.2
	c-1.5,3.3-1.9,7.4-1.5,11.1c-2.6,3.6-1.4,8.1-0.4,12.2c-2.1,3.3-1.3,8.4-0.2,12.1c-1.6,2.6-3.3,5.3-3.1,8.4c0.1,2.1,2.7,3.9,1,6
	c-0.6,1.6,0.5,3,0.5,4.4c-0.9,0.7-1.3,2-1.3,3.1c0,1.1,1,2.2,0.7,3.2c-1.1,1.1-0.7,2.8-0.1,4.1c-0.4,0.3-0.8,0.8-1,1.4
	c-0.1,1,0.1,2.1,0.9,2.9c-0.2,1.7-0.1,2.7,0.2,4.3c0.4,0.6,1.1-0.2,1.3-0.7c-0.2-0.8,1-1.4,0.5-2.1c0.5-1.4,0.5-3.4,0.5-4.7
	c0.8-1.5,0.8-3.5,0.7-5.1l0.3,0.3l0.5-0.6l0.1-5.8l0.5-0.1c0.4-0.7,0.9-1.4,0.9-2.1c0.8-2.1,1-4.7,0.7-6.9l0.7-0.6
	c0.3-2.6,1.5-4,1.2-6.7c-0.2-1.1-0.2-1.8-0.5-2.7c-0.3-1.5-1-2.9,0.6-4l-0.1-0.1c1.5-2.3,1-4.7,1.1-7c0.8-1.1,1-2.9,1.2-4.2
	c-0.6-1.3,1-1.8,0.6-3.2c3.7-3.8,3-9.1,2.5-13.7c2.8-4.1,1.6-9.2,0.9-13.7c1.9-4.5,2.6-9.2,2.2-14.5c-0.2-0.8-0.7-1.6-0.7-2.3
	c2,2.5,3.4,5.6,4.7,8.6l-0.2,0.3c-0.1-0.2-0.4-0.1-0.6-0.1c-0.5,0.2-0.1,0.8-0.3,1c0.6,1.3,2,2.3,3.3,2.7c0.1,0.6,0.4,1.4,0.7,2.1
	l0.3,1.1c-0.7-0.2-1.5-0.5-2.1-0.9c-0.3-0.1-0.7-0.3-1.1,0.1c0,3.4,3.8,3.2,5.6,5.9c3.2,9,3.9,18.9,4.1,28.9l-0.7,0
	c-1.1,1.8,0.8,3.3,1.8,4.6c-0.4,0.4,0.4,1.6-0.6,1.4c-0.1-0.1-0.1-0.1-0.1-0.2c-0.8-0.3-1.7-0.6-2.3,0.2c-0.3,2.5,2.2,4,2.9,6.2
	c-2.5,14.8-5.8,29.6-12.3,42.9l-0.8-1c-0.3-0.3-0.9-0.5-1-0.4c-0.4,1.3-0.5,2.5-0.5,3.7l-1,0.5c0-0.1,0-0.3-0.1-0.4l-0.5-0.7
	c-0.9-0.8-1.3,0.2-1.9,0.6c-0.8-0.3,0.6-1.6-0.8-1.4c-2.1,1.9-4.4,4.4-4.9,7.3c0.3,2.5-1.3,5.4-2.5,7.4c-1-7.1,5.5-12.1,2.9-18.8
	c-0.7-2-1.2-3.5-1.9-5.4c-0.4-0.6-0.3-1.7-1-1.9c0.2,4-2.1,8-4.5,11.5c-1,2.4-2.4,4.6-3.4,7l-0.2-0.5c-0.3-7.9,0-19.2,1.3-27.3
	c0.1-2.2,0-4.2-0.7-5.8c-1.3,0.7-2.4,1.6-3.5,2.7L432.6,207.3 M384.4,194.3c-1.5-0.1-2.9,0.5-4.1,1.2c-2.5,1.4-0.6,3.5-0.5,5.5
	c-1.4-0.3-3.3-0.1-5.1-0.7c-2.1-0.3-4-0.9-6.2-1c0.6-1.1,1.7-1.7,2.3-2.7l0.3-0.8c1.1-0.6,1.4-0.8,2.3-1.5c2.5-2.5,7.1-1.3,9.8-1
	c0.4,0,0.7,0.3,1,0.5L384.4,194.3"/>
<path class="st1" d="M410.7,260.9c2.3-0.7,4.6-1.4,7-1.7c0.5,1.4,0.2,2.6,0,4.2c-2.4,0.3-4.7,0-7.2-0.2l-0.1-0.7L410.7,260.9"/>
<path class="st3" d="M342,144c-1.6-4-3.7-7.5-6.7-10.9c-2.3,1-4.5,3.3-6.8,4.4c-9,2.5-16.4-3.8-25.6-2.2c-0.6-0.3-1.3,0.2-1.6-0.5
	c0.6-1.3,2.4-2.6,3.6-3.7c0.9-0.8,2.2-0.6,3.2-1.1c-2.8-3.5-2.9-8.8-7.2-11.1c-0.1-0.6-0.7-1.3-0.4-1.9c0.4-0.5,1.2-0.6,1.8-0.4
	c6.9,0.8,9.5,8.3,15.1,11.1c2.7,0.6,5.6,0.2,8.1,0.9c2.8,0.3,5.2,2.4,8.3,1.6c-1.1-2.8-3.2-6.4-6.7-6.7c-4-1.2-8.6-1.8-12.9-1.8
	c-0.1-0.4-1.1-0.3-1.6-0.6c-3.8-1.4-7.3-4.4-10-7.6l-1.2,1.1c-0.7,1.2-1.8,2.3-2.4,3.6c-4.1,5.9-8.5,11.9-10.6,18.7
	c0.2,2,1.7,3.9,1.2,5.9c-0.4-0.6-1.4-0.7-1.8-1.5l-1.1,1.8c0.8,1.3,1.4,2.7,1.3,4.4c-0.3,0.3-0.6,0.6-1,0.5l-1.3-0.9l-0.6,0.6
	c-1.3,4.6-3.4,14.7-3.4,14.7c-1.1,11.5-1.1,23,1.8,33.7c0.6,2.7,1,5,1.2,7.8c1.1,1.2,3.3,1.6,3.4,3.4c-0.7,0.9-1.7,0.7-2.6,0.7
	c0,0.8,0.4,1.6,0.1,2.5c1.7,1.3,3.8,1.8,5.1,3.5c0.4,0.8-0.6,1.2-1.1,1.6h-0.8c0.3,1.6,1.5,3.2,1.9,4.7c4.1,8,8.7,16,14.3,23
	l4.6-4.8l22.8-23.5c0.3-0.3,0-0.4,0.4-0.8c0.8-0.1,1.3,0.6,2.1,0.8c-0.2-1.4-0.8-3.5,0.3-4.9c4.6-4,9-8.3,13.4-12.7
	c-0.9-0.7-1.9-1.2-2.6-2c0.8-0.7,1.8-1.1,2.5-1.6c-2.1,0.1-4.6,0.9-6.7,0.2c-1.8-0.7-2.9-0.6-4.6-1.5c-0.5,0.2-0.8-0.3-1.1-0.5v-0.5
	c1.3-0.4,2.2-1.4,3.5-1.9c-2.7-1.1-6.3-2.5-6.2-6.1c-0.3-0.6,0.4-0.8,0.8-0.9c2.7-0.2,6.5,2.3,9.5,0.4c4.3-1,10.2-0.2,14.3-3.5
	c-5.4,0.4-10.9,2.9-16,2.8c-3.5-1-7.4-1.7-10.4-4.3c-1.8-0.6-3.7-2-4.8-3.4c4.6-3.9,9.4,0.8,14.6-0.2c3.5-0.7,6.1-3.4,9.5-3
	c3.7-0.7,8.4,2.1,11.4-1.5c-0.6-0.5-0.7-1.4-1.4-1.7c0.1-0.8-0.8-1.5-1.2-2.1c-0.7-0.9-1.6-2-2.8-2.2c-1.5-0.1-2.5,0.8-3.7,1.4
	c-2.2,1.4-4.4,3.1-6.8,4.2c-2.1,0.7-4.9,1.5-7.2,0.8c-4.5-1.1-9.1-2.4-12.3-5.9c-1.7-2.2-2.8-4.8-4.5-7c-0.2-0.6,0.3-0.8,0.5-1.1
	c1.7-0.6,3,1,4.5,0.9c4.3,1.9,8.6,5.2,13.7,3.6c3.2-1.5,7.1-0.7,10.2-2.5l-2.6-3.2c-2.8,0.8-4.7,2.5-7.5,2.9
	c-6.4,2.1-10.3-4.6-16.9-2.8c-1.4-0.6-3.4-0.5-4.8-1.4c-1.8-0.3-2.8-1.3-4.6-1.6c-1.2-0.6-2.5-1.7-2.8-3.1c-0.8-0.3-0.6-1.3-1.4-1.9
	l0.1-0.1c-0.9-1.2-2.3-2.4-3.3-3.5c0.5-1.1,1.9-0.5,2.8-0.6c2.7,0.6,5.3,1.6,7.7,2.6c2.5,0.8,5-0.1,7.8,1.1c2.7,0.5,5.2,1.9,7.5,3.6
	c0.9,0.5,2.1,0.5,3.2,0.8c0.1-0.6-0.6-1.2-0.8-1.9c-0.2-1.3-0.2-2.8,0.4-4c1.9-0.3,4.1-0.5,6.1,0.1L342,144"/>
<path class="st1" d="M408.8,274.4c0.8,0.2,1.6,0.5,2.4,0.8c-0.4,1.1-1.6,1.9-2.8,1.9c-0.5-0.5,0-1,0.1-1.5L408.8,274.4 M456.1,233.5
	c0.1,0.4,0.2,0.8,0.2,1.2l0.9-0.1c-0.1-0.5-0.2-1.1-0.2-1.6l-0.8,0.6 M301.8,108.5c0.7,0.4,1.8,1.1,2.5,1.5c0.8-1.6,2.2-2.8,3.3-4.1
	c-0.7-0.5-1.6-0.8-2.3-1.3c-0.6,1-1.4,1.7-2.2,2.5L301.8,108.5"/>
<path class="st1" d="M376.8,77.7c0.2-0.4,0.5-0.8,0.8-1.2c0.4-0.6,1.1-1.1,1.3-1.8c-3.6-0.3-7.8-0.6-12.3,0.1
	c-8.7,1.2-16.9,2.5-24.8,5.5c-0.7,0.1-2.6,0.8-2.6,1.1c0,0-0.3,2.3-1,3.1c2.1-0.5,4.3-1.6,6.6-2.1c7.4-2.4,14.3-2.6,22.1-4
	c2.8,0.1,6-0.6,9-0.6L376.8,77.7"/>
<path d="M324.4,88.7c0.1-0.1,0.3-0.3,0.5-0.3"/>
<path class="st3" d="M323.2,94.1c-0.2,2-0.5,3.9-0.7,5.9c0.4,0.8,0.5,1.6,1.1,2.3c-0.2-3.5,2.4-6.1,2-9.6c-0.3,0.1-0.5,0.5-0.8,0.7
	L323.2,94.1"/>
<path class="st1" d="M385,72.6c-0.9,2-3.3,3.3-4.7,5.1c-1.4,0.6-2.1,1.9-3.5,2.4c0.1-2.4,2-4.5,3.9-6.1C382,73.2,383.5,73,385,72.6
	 M392.5,73.8c0.4,1.6-1.6,2.1-2.2,3c-1.6,1.1-3.3,2.1-4.9,3c-0.1-0.6,0.4-1.3,0.8-1.8C387.9,75.7,390,74.5,392.5,73.8 M387.6,75.4
	l-2.3,2.6l-1.7-0.1c0,0-0.9-0.1-1.8-0.4l2.2-2.4C385,75.3,386.3,75.1,387.6,75.4 M335.3,87.2c-0.3,0.4-0.5,1-1,1.3
	c-0.8-3.2,0.8-6.6,3.5-8.4C340,82.6,336,84.7,335.3,87.2"/>
<path class="st5" d="M306.1,82.9c1.1,1.8,3.3,2.4,4.7,4c1.4,1.6,3.6,3.2,3.6,5.6c-1.1-0.2-2-0.9-2.8-1.6c-1.7-1.3-4.2-0.8-5.7-2.5
	c-1-2.3-2.6-4.4-3.4-6.8C303.7,81.8,304.8,82.7,306.1,82.9"/>
<path class="st1" d="M333.5,84.5c-0.6,0.7-0.3,1.9-0.9,2.5c-0.1-0.6-0.2-1.1-0.4-1.7C332.8,85.2,333,84.5,333.5,84.5 M339.3,95.4
	c0,2.3-0.5,3.9,0,6c2.1,0.3,4.2,0.3,5.9,1.4l-0.2,6.1c-0.6,0.6-1.6,0.1-2.2,0.4c-1-2.9-2.8-5.3-4.6-7.7c-0.4,0-0.8-0.5-1.2-0.1
	c-1.3,3.5,0.9,7.1,0.1,10.7c-0.3,2.5-0.9,4.9-0.5,7.3c-0.7,0.1-1.8-0.1-2.7-0.3c3.1-6.7,3.7-16.2-0.9-22.8c0.2-0.8,0.2-1.7,0.7-2.4
	C335.8,94.1,337.6,94.5,339.3,95.4"/>
<path class="st4" d="M311.3,98l-0.9,1l-3.1-2.7l0.1-0.1C308.7,97,309.9,97.7,311.3,98"/>
<path class="st1" d="M439.3,97.6c-2.7,1.7-5.2,1.7-8.1,1.3H431c0.3-1.1,1.8-1.4,2.7-2.1c1.8-0.9,3.8-0.7,5.6,0.2L439.3,97.6"/>
<path class="st1" d="M314.4,99.9c-0.3,0.4-0.6,1-1.1,0.8l-2.3-1.5C311.9,97.3,313.3,99.6,314.4,99.9"/>
<path class="st1" d="M439.4,99.5c-1.3-0.1-2.5,2.1-3.5,0.3c0.9-0.8,2.3-0.5,3.2-1.3C438.9,98.6,439.2,99.2,439.4,99.5"/>
<path d="M386.5,100.4l0,6.5c1.3-0.2,2.8,0.5,4,1.1c0.9,1.1,0.2,2.7,0.2,4c-0.7,1,0.2,3.7-2.1,3c-1.3,0.1-2.2-0.6-3.5-0.3
	c-0.5,3.5-0.4,7.3-1.5,10.5c-1.8,1.4-4.2,0.5-6.4,0.2c-2-0.3-0.5-2.7-0.7-3.7c0.5-2.4,0-5.1,0.3-7.8c-1.6-0.5-3.9,0.2-5.1-0.9
	c-0.2-2,0.3-4.5,0.5-6.8c1.8-1.8,6.5,1.4,6.1-2.8c0.2-1.3,0-3.1,0.6-4.5C381.5,99.7,383.9,99.6,386.5,100.4"/>
<path class="st2" d="M445.7,122.4c-0.1,0.2-0.2,0.3-0.4,0.4c-0.1,0.8-0.8,1.2-1.5,1.8c-13.3,12.6-27.4,25.7-39.5,38.6
	c-2,2-3.9,4-6.2,5.8c-1.3-4.1-1.3-9-4.9-11.7c-0.3,0-0.5,0-0.6,0.3c1.1,3.5-0.9,7.1-0.7,10.9c0.5,2.5-0.9,5-0.7,7.4l-1.4,0.9
	c2.4-6.4,1.3-12.6,0-19.1l0.1-0.6c11.9-12.3,23.6-23.4,35.8-35.4c5.3-4.9,10.5-10.5,16.1-15.5c0,5.4,2.8,9.8,4.5,14.3L445.7,122.4
	 M446.9,113c-1.4-3.3-1.9-6.7-1.2-10.4c1.6,3.5,2,7.7,1.8,11.7L446.9,113"/>
<path class="st6" d="M446,113.6c-1.2-3.2-2-6.6-1.5-10.3c0.2-0.7,0.6-1.5,1.5-1.1c1.1,0.8,1.1,1.9,1.6,2.9
	c0.7,4.9,1.3,10.2-0.2,15.3l-0.6,2.6c-0.2,0.3-0.4,0.6-0.6,0.9c-1.1,4.3-3.8,9.7-0.5,13.9l0.5,0.1c0.1,0.2-0.1,0.4-0.1,0.5
	c1.3,2,2.1,4,3.1,6.1c1.2,3.5,2.5,6.9,4.4,10.2c2.2-4.6,1.1-9.1-0.1-13.6c-4.3-4.7-5.6-10.6-7.1-16.4c0.1-0.2,0.1-0.6,0.5-0.6
	c1.3,3.8,2.3,7.8,3.9,11.6c1.1,1.8,2.6,3.5,3.6,5.3c1.4-3.9,2.4-8.2,1.9-12.6c-0.8-3.6-3.4-7.9-7.4-8.7c0.1-0.2,0.4-0.1,0.6-0.1
	l0.1-1.1c0.5-5.9,0.6-12-1.5-17.5c-0.5-0.6-0.9-2-1.9-1.5c-0.8,1.5-2.6,1.8-3.2,3.6c-0.6,4,0.5,8.3,2.1,11.8c0.1,0.4,1.4,3,1.6,4.4
	l0.1,0c0.3-0.5,0-1.3,0.3-1.7c0.1-0.6,0.1-1.1,0.2-1.7L446,113.6"/>
<path class="st1" d="M385.7,100.9c0.4,1.8-0.3,4.6,0.2,6.4c0.6,0.6,1.6,0.1,2.3,0.4l1.9,0.8c0.2,1.9-0.1,3.9-0.7,5.8
	c-1.6,0.5-3.8-1-5.1,0.3c-0.2,3.7-0.4,6.9-1.2,10.5c-1.1,0.7-2.5-0.1-3.7,0.2c-0.8-0.1-1.6-0.2-2.3-0.8c0.5-3.8,0.4-7.3,0.4-11
	c-1.2-0.5-2.3-0.1-3.5-0.3l-1.3-0.2c-0.1-2.4-0.1-4.5,0.5-6.5c2-0.7,3.3,0.1,5.3-0.5c0.9-1.8,0.4-4.2,0.9-6.2L385.7,100.9"/>
<path class="st3" d="M318.1,102.2c-1.1-0.2-2.4-0.5-3.5-1C315.5,99.4,316.9,101.7,318.1,102.2"/>
<path class="st1" d="M442.1,100.5c0.2,0.2,0.5,0.4,0.6,0.8c-1,0.6-2.2,0.5-3.3,0.7c-1.1-0.1-2.2,0.8-3.2,0.3c0-0.3,0.3-0.6,0.6-0.9
	c0.7,0.3,0.8-0.5,1.3-0.6C439.4,100.3,440.7,100.2,442.1,100.5 M442,103.8c-0.6,0-1.1-0.6-1.6-0.8c0.6-0.1,1.3-0.1,1.8-0.5
	C442,102.8,441.9,103.3,442,103.8"/>
<path class="st3" d="M329,107c0.7,0.2,1.4,0.4,1.7,0.8c0.2,2.8-0.4,4.7-0.6,7.5c-1.1-1.2-1.4-3-2.4-4.4c-0.3-1.4-0.1-2.7,0.3-3.9
	L329,107"/>
<path class="st1" d="M329,106.3c0.5,0.1,1.1,0.4,1.6,0.3c-0.2-1.2-0.7-2.2-1.1-3.3c-0.5,0.9-1,1.8-1.3,2.8L329,106.3"/>
<path class="st3" d="M321.3,108.8c1.4,3.5,4.1,6.5,5.6,10c-3.3-0.5-5.1-4.2-8.3-4.8c-4.6-0.9-9.6-1.5-13.7-3.9
	c0.6-1.4,2.2-2.5,3.2-3.6C312.3,107.7,316.9,109,321.3,108.8"/>
<path class="st1" d="M430.4,106.5l0.5,0.5c0.1,2.3-0.1,3.7-0.2,6c0.5,0.6,1.2,0.6,1.9,0.5c-2.8,3.4-6.4,6.6-9.7,9.6l0-4.6
	c-1.7-0.8-3.3,0-5.2-0.6c-0.2-1.5-0.1-3.5,0.2-5.2c1.6-0.3,4.2,0.4,5.9-0.2c0.7-2,0.8-4.2,1.4-6.2
	C427.2,106.2,428.6,107,430.4,106.5 M299.8,111.5c-2,2.3-3.5,3.7-4.2,5.1c-3.9,5-6.2,10.5-8.6,16.1c0.4,1,0.7,2.2,1.3,3.2
	c2.7-8.1,7.9-14.7,13.8-22.9L299.8,111.5"/>
<path class="st7" d="M451,117.7c-0.4,0.5-0.7,1-0.6,1.8c1.5,0.3,3.1,1.5,3.8,2.6l-2.8-3.3L451,117.7"/>
<path class="st1" d="M451.4,117.3c0.7-0.6,1.7-1.1,2.1-2h0.2c3.7,5.1,6.6,10.6,9.5,16l1.1,2.9c-4.2,0.4-3.8-4.7-5.9-7
	c-2-2.9-4-6.1-6.6-8.7L451.4,117.3"/>
<path class="st3" d="M336.8,120.6c0.2,2.5,2.5,5,0.5,7.4c-1.2-2.5-5-4.6-3.7-8.1C334.6,120.4,335.9,120,336.8,120.6"/>
<path class="st1" d="M286.7,133.4c1,2.7,1.6,5.7,2.6,8.4c-2.2-1.8-3.4-4.5-4.9-6.8c-0.4-0.9,0.1-1.9,0.8-2.5
	C285.8,132.4,286.6,132.8,286.7,133.4 M469,139c-0.1,0.3,0.2,0.7-0.2,0.9c-2.7-1.3-4.8-2.9-7.5-3.8c-0.4-0.4-1-0.9-1.1-1.5
	C463.9,134.5,467.3,135.8,469,139 M284.5,140.6c1,2.2,3.1,4,3,6.5c-1.7-0.4-3.5-2.4-4-4.2c0.3-0.2-0.4-0.3-0.4-0.3
	c-0.2-1.5-1.9-3-0.6-4.6C283.9,138.2,283.8,139.7,284.5,140.6"/>
<path class="st6" d="M452.6,154.6c0.5,0.6-0.3,1.3,0.6,1.9c0.4,3.9,0.8,8.3-1.8,11.5c-0.4-1.6-0.7-3.9-1.4-5.6
	c-1.3-5.7-5.6-10.2-5.6-16.2c0.1-2.2,0.7-4.4,1.4-6.5C448.6,144.3,449.5,149.8,452.6,154.6"/>
<path class="st1" d="M471.8,147.9c-3.9,0-5.5-4.8-9.1-5.7c-0.4-0.6-1.3-1-1.1-1.7C465.6,141.5,470.3,143.8,471.8,147.9 M284.8,146.4
	c-2.4,8-4.6,16.8-4.4,25c-0.2,5-0.4,9.4,0.6,14.5c0.3,5.9,2.5,11.1,3.2,17.3c-1.1-1.4-4.4-1-3.8-3.4c-1.7-6.7-1.4-12.4-2.2-19.1
	l0.1-1.3l0.1,0.1c0,0-0.2-3.5-0.1-4.9c0.5-5.7-0.4-12.7,1.6-18.9c0.7-4,1.9-7.8,3.2-11.5C283.5,145,284.3,145.5,284.8,146.4"/>
<path class="st1" d="M471,150.3c1.7,5.5,1.4,12.5,2.9,17.9c0,2.8,0.6,5.8,0.1,8.4c-0.7-1-2.3-0.8-2.6-2c-0.4-7.1-0.7-14.8-2.4-21.5
	c-0.2-2.4-1.2-4.4-1.7-6.6C468.2,148.2,471.6,147.7,471,150.3"/>
<path d="M340.9,149.3c0.4-0.1,1,0.1,1.8,0.1c0.9,0.3,2.2,0.7,2.6,1.8c-0.8-0.1-1.1-1-2.1-1c-1.6-0.4-3.8-0.9-5.3-0.1
	c-0.3-0.1-0.1-0.4-0.1-0.6c0.4,0.1,0.4-0.3,0.5-0.4C338.9,149.3,340.5,148.9,340.9,149.3"/>
<path class="st6" d="M450.4,169.2l-0.4,0.4c0,1.6,0,3.5-0.5,5.1c-1-4.1-4.4-7-5.4-11.1c-0.2-3.3-0.4-7.3,0.9-10.6
	C447.8,157.9,450,163.4,450.4,169.2"/>
<path class="st3" d="M375,170.4c-0.8,0.6-1,1.5-1.9,1.9c-0.9-1.1-1.9-2-2.7-3.2c0-3.5,1.2-6.5,2-9.6l0.5-2.1
	C372.9,161.9,374,166.2,375,170.4"/>
<path class="st4" d="M276.9,170.2c-1,1.9-1.3,3.9-1.7,6.1c0.7,0.4,1.4,0.7,2.1,1.3c0.2-2.6,0.3-5.1,0.4-7.7L276.9,170.2"/>
<path class="st2" d="M277.6,168.6c0-1.4,0.1-2.8,0.1-4.2c-1.4,1.5-3,3.2-3.4,5.3c-1.6,3.8-0.6,9-1.3,12.9c-0.8,2.6,0.2,5.6-0.7,8.3
	c-0.6,1.1-1.5,2.3-2.8,2.6c-0.6-1,1-1.1,1.4-1.8c1.1-2.1,1.2-4.5,0.7-6.7l-1.3,1.6c-0.3,0.4-0.6-0.2-0.9-0.3c1-1.1,2-2.1,2.5-3.4
	c0-2.2,1-4.7,0.7-6.2c-2.1,2.1-5.4,1.7-8.1,2.7c0.4,0.6,0.8,1.4,0.7,2.2c-4.1,2.1-1.2,6.2-2,9.6c0.2,1.2,1.6,0.7,2.3,1.4
	c0,1.2-1.6,0.3-2.2,0.7c-0.7,2.8-0.8,5.9-0.3,8.8c0.3,0.1,0.4-0.3,0.6-0.4c0.1,0.1,0.3,0.2,0.2,0.4l3-0.4c0.1,0.1,0.4,0.3,0.2,0.5
	c-1,0.4-2.2,0.3-3.2,0.7c0.1,0.6-0.7,2.3,0.7,2.2c0.8,0.4,1.8,1.2,1.6,2.3c0.6,0.8,1.3-0.3,2.1-0.1c0.5,0.7-0.1,1.3,0,2
	c-1.3,0.9-1.8,2.8-3.5,2.1c0.2,4.1,0.7,7.6,0.7,11.7c0.6,0.3,1.6-0.2,2.1,0.5c-0.4,0.6-0.8,0.2-1.1,0.5c-0.7,2.1-1.6,4.2-1.4,6.7
	l1.3-0.3c1.2,0.9,0.2,3,0.9,4.3c1.2-0.6,2.5-1.6,3.1-2.9c1.4-0.6,0.6,1.3,1.4,1.8c1,0.1,0.9-1.3,1.7-1.4c0.2,0.2,0.1,0.6,0.1,0.8
	c0.9,0.1,1,1.1,1.8,1.6c0.5-0.1,0.6-0.7,0.8-1.1c0.3-0.1,0.4,0.2,0.6,0.3c0-0.4,0-1.2,0-1.6c-1.5-2,2.3-2.6,1-4.7
	c1-2.3-0.3-4.2,0.1-6.5c-0.9-2-2.2-4.6-1.3-6.8c1.1-0.1,1.1,1.8,1.4,1.9c-0.2-2.6,1.7-4,2.4-6.2c0.2-0.4,0.6,0.1,0.7,0.2l-0.2,2.3
	h0.1c0.8-0.7,0.9-1.6,0.6-2.5c0.1-0.1,0.3-0.4,0.5-0.3l0.2-0.6c-0.1-0.1-0.2-0.2-0.3-0.4c0.9-2.6-2.6-2.7-2.9-5
	c-0.4-0.7-0.4-2.1,0.6-2.4c-1.8-5.9-1.3-11.3-2-17.2c-1.2-2,1.1-5.9-2-6.6c-0.5-0.4-0.6,0.1-0.9,0.4c0-2.7,0.2-5.9,1.9-8.1
	L277.6,168.6"/>
<path class="st1" d="M282.9,209.5c2,1.8,4.8,2.5,7,4.3c0.1,0.2,0.4,0.4,0.2,0.6c-0.5,0.7-1.5,0.4-2.1,0.3c-1.9-1.1-3.8-1.4-5.1-3.3
	c0-0.3,0.2-0.7,0.2-1.1L282.9,209.5"/>
<path class="st2" d="M382,182.4l-1.9-1.7c1.1-2,0-4.4,0.5-6.6c0.4-3.5,1.6-6.7,1.8-10.2C383.5,169.7,383.7,176.9,382,182.4"/>
<path class="st6" d="M448.8,176.7c0,2.1,0.1,4.5-1,6.4c-2.7-5.3-6.9-10.8-4.7-17.2c-0.1-0.3,0.1-1.1,0.6-1.4
	C444.6,168.9,449,172,448.8,176.7"/>
<path class="st2" d="M375.2,171c0.1,1.6,0.7,2.8,0.8,4.4c-0.6-1.1-2.3-1.8-2.2-3.1C374.2,172,374.8,171.3,375.2,171"/>
<path class="st1" d="M474,178.2c1.4,0.8,1.6,2.5,1.8,4c0,0.4-0.4,0.8-0.2,1.1c-1.5-2.3-4.7-4.8-5.7-7.6l0.1-0.3
	C471.4,176.2,473.5,176.4,474,178.2"/>
<path class="st3" d="M368.4,176.8c-0.3,0.6-1,0.9-1.3,1.5c0-0.5,0.6-1.3,0.5-2C368,176.1,368.1,176.5,368.4,176.8 M393.3,186
	c-0.2-0.2-0.3-0.3-0.5-0.4c-1.6-0.4-3,0.6-4.2,1.7c-0.5,0.8-1.1,1.7-1,2.8c-0.5-1.1-1.6-2.1-2.2-3.2c0.4-2.2,2.6-3.8,2.9-5.9
	c0.7-1.5,1.3-3.4,3-4.3c0.6,3.4,2.2,5.6,2.3,9.3L393.3,186"/>
<path class="st8" d="M392.5,186.6c-0.3-0.2-0.6-0.4-0.9-0.2c-1.2,0.1-2.4,1.1-2.8,2.2c-0.4,0.6-0.1,1.3-0.5,1.6
	c0.7,1.9,2.4,3.3,3.7,4.9c0.8-0.8,0.5-1.9,0.9-3c0.7-1.6,0.9-3.1,0.9-4.7L392.5,186.6"/>
<path class="st6" d="M447.1,183.5c-1,2.6,0.8,5,0.6,7.6c0.1,1.8-0.6,2.9-0.9,4.6h-0.1c-2.3-6-5.9-12.8-3.4-19.4
	C444.4,178.8,445.8,181.1,447.1,183.5"/>
<path d="M276.1,180c-0.1,1.1-0.6,2.8,0.5,3.5c0,0.6,0.6,0.9,0.6,1.4c-0.1,0.1-0.3,0.4-0.5,0.2c-0.4-0.5-0.6-1.3-1.1-1.6
	c-0.2,1.2-1.3,2.9-0.1,3.8c0.3,0.6,0.6,1.3,0.5,2c-0.7-0.4-0.8-1.3-1.3-1.9c-0.1,0.4-0.2,1.1-0.6,1.3h-0.2c0.3-3.1,1.2-5.6,1.6-8.6
	l0.3-0.2C275.7,180,275.9,180,276.1,180"/>
<path class="st1" d="M474.1,183.8c-0.2-1.5-2.6-1.9-1.9-3.7C472.9,181.3,475,182.3,474.1,183.8"/>
<path class="st8" d="M339.5,189c-0.1-1.2-2.6-1.1-3.6-2.3c-1.3-0.8-2-2-2.1-3.5c2.7-0.5,4.8,1.3,7.6,0.8c2.2-0.9,4.7-1.2,7.1-1.4
	C345.3,184.3,342.8,186.8,339.5,189"/>
<path class="st2" d="M376.8,186.3c-6.2,0-10.5,4.2-16.2,5.8c-2.4,0.7-5.4,0.9-7.8,0.5c0.8-0.7,1.6-1.4,2.1-2.3
	c1-0.8,3.3-1.9,3.3-1.9s5.8,0,8.5-0.6c2.6-1.4,5.5-2.2,8.1-3.7L376.8,186.3"/>
<path class="st6" d="M445.8,195.8l-0.3,0.2c0.4,3.3,0.5,6.7-0.9,9.5c-1.5-3.3-3.5-6.5-4.4-10.1c-0.1-2.7,1.4-4.8,2.5-7
	C443.8,190.8,444.8,193.4,445.8,195.8"/>
<path d="M391.2,190c-1,1.3,0.9,2.6,0.4,3.8c-0.7-0.4-0.6-1.6-1.2-2.3C390.2,191,390.3,189.8,391.2,190"/>
<path class="st3" d="M350.1,193c1.3-0.4,3-1.2,3.9-2.1C352.8,191.8,351.8,193.2,350.1,193"/>
<path d="M272.2,194.1c-0.2,1,0.1,2.3-0.8,3c-0.1-1,0.3-2.1,0.1-3.2C271.8,193.6,272.2,193.8,272.2,194.1 M480.5,194.8
	c0.1,1.4,1.4,2.5,1,4c-0.9-1.5-1.5-3.3-2.2-4.9C480.1,193.6,480.2,194.5,480.5,194.8"/>
<path class="st2" d="M370.4,196.1c-1.6,0.7-2.1,4.2-4.2,2.7l-1.6-0.1C366.4,197.7,368.5,196.7,370.4,196.1"/>
<path d="M273.9,197.7c0.4,2.1-1.5,4.7,1.2,6.4c0.1,0.4,0.6,0.9,0.1,1.3c-0.7-0.6-0.9-1.5-1.6-2.3c-0.4,1.8-0.5,3.3-1.6,4.8
	c-0.1,0.4-0.6,0.1-0.8,0C274,205.1,272.2,200.7,273.9,197.7 M389.8,198.6c-0.7-0.1-1.9-0.1-2.5-0.3l0-0.4
	C388.1,198.2,389.1,198,389.8,198.6 M272.1,203.7c-0.3,0.1-0.4,0.3-0.6,0.3c0-0.8-0.3-2.5,0.7-2.8L272.1,203.7"/>
<path class="st1" d="M287.6,206.5c0.1,0.7-0.6,0.6-1,0.9c-2.6-0.5-6.2-1-6.8-4.3c-0.1-0.3-0.1-0.6-0.1-1l0.5-0.3
	C282.9,203,285.2,204.9,287.6,206.5"/>
<path class="st6" d="M444.2,206.2c-0.2,0-0.3,0.3-0.5,0.4l0,2.3c-1.3-2.2-3.4-5-2.2-7.8C442.3,202.8,443.1,204.8,444.2,206.2"/>
<path d="M403.3,203.8c-0.6,1.2-0.6,3.2-1.7,4.5l-0.2-0.4c0.3-0.5,0.6-1.3,0.8-2C402.1,205.1,401.9,203.5,403.3,203.8"/>
<path class="st1" d="M265.4,207c-0.1,0.6,0,1.2,0.6,1.4l1.6-0.2c0,1.1-1,1.5-1.7,2.2c-0.6,0-1.1,0.4-1.8,0.1c-0.5-1.3-0.2-3.3-0.3-5
	C264.5,206.1,265.1,206.3,265.4,207"/>
<path d="M477.1,204.5c-0.5,0.6-1.1,1.6-2,1.8C475.4,205.7,476.1,204.7,477.1,204.5 M486,205.3c-0.2,0.3,0,0.6-0.3,0.6
	c-0.3-0.5-1-0.8-1.1-1.3C485.1,204.4,485.8,204.8,486,205.3"/>
<path class="st1" d="M436.3,260.8c-0.1-0.2-0.1-0.4-0.2-0.6c0.1-0.1,0.2-0.3,0.3-0.4l1.7-1.5c0.5-0.5,1.3-1,1.5-1.5l0.1,0.1
	c1.2-1.1,2-2.3,3-3.8c1,3.8-3.2,4.6-5.5,6.5L436.3,260.8"/>
<path class="st4" d="M437.7,260.5c1.4-1.2,3.3-2.2,4.7-3.3c-0.3,3.2-2.3,6-3.7,8.9c-0.6-1.2-1.5-2.8-2.1-4.4L437.7,260.5"/>
<path class="st3" d="M432.9,254.1c-0.4-1-0.8-2-1.4-2.9c2-1.1,4.3-2.6,5.1-5.1c-0.1,3.2-0.3,5.4-1.4,8.1c0,0.7-0.6,1.1-1,1.6
	L432.9,254.1"/>
<path class="st8" d="M434.1,256.9c2.4-2.1,3.1-5.7,3.3-8.6c0.1-3.6-0.3-7.2,1-10.7c1.7-5.7,6.7-10.1,7.4-16.2
	c1.9,4.7,3.7,10.7,0.4,15.3c-2.4,5.7-1.3,13-5.5,18l-3.2,3.1l-1.7,1.5c-0.3,0.2-0.5,0.6-0.6,0.9c0.4,2.7,2,5.1,3.1,7.6
	c1,0.1,0.5-1,1-1.4c2.9-4.2,4.5-9.5,4.2-14.3c0.5-5,5.2-9.1,5-14.5c0.6-2.2,2.4-3.9,3.9-5.6c1,8.6,2,17.8-2,25.8
	c-2.2,5.3-6.3,9.2-9.2,14.1c1.2,3.4,3.5,6.8,5.3,10.2c5.7,10,12.4,19.4,17.1,29.8c-1.3,0.3-3.2,0.9-3.7,2.5
	c-8.6-11.7-15.9-23.9-23.4-36.1c0.4-0.6,0.9,0.2,1-0.6l-0.5-0.4c-3.4,1.9-8.4,2.3-11.6-0.4c-4-1.4-8-0.4-12-1.7
	c-3.7-0.8-7-2.5-10.8-2.8c-2.9-1-5.8-2.3-7.8-5.2c-0.3-0.6-0.2-1.5,0.6-1.6c3.8-0.7,6.6,2.1,10.5,1.4c3.7,0,7.3-2.1,10.8-0.3
	l4.1,0.8c4.3,3.3,8.6,6.5,14,6.6l0.3-0.5c-1-3-2.2-5.9-3.5-8.7c0.1-0.2-1.1-1.8-1.4-2.5c-1.6-3.3-4.9-3-7.7-3.8
	c-1.6-0.4-3.1-0.1-4.6-0.5c-4.4,0.9-8.5,2.9-13.2,3.3c-4.2,0.1-8.9,0.8-11.2-3.6c-0.4-1.1-1.4-1.9-1.4-3c6.7,1.4,14,0.5,20.2-0.9
	c2.2,0.5,4.7-0.7,6.8,0.1c2.3,0.9,4.5,2.1,6.9,2.8c1.3-0.4,0.1-1.6,0-2.3c-0.6-1.4-1.8-2.5-2.6-3.8c-3.9,2.4-9.6,1.4-13.8,1.9
	c-5.6-2.1-11.4-4.8-17.9-3.4c-1.6,0.2-3.5,1.2-4.7,0.1c1.5-1.4,2.2-3.7,4.6-3.7c3.3-1.4,6.9,0.4,10.4,0.4c3.7-0.7,6.7,1.4,10.2,0
	l4.1-0.9c1.2,0.5,1.9,1.7,3.1,2l0.1-0.1c0.6,0.5,1.6,0.6,2.4,0.3c0.4-0.4-0.1-0.8-0.5-1c-2.6,0.6-4-1.8-5.5-3.3
	c-0.3-1,0.8-1.6,1.3-2.2c0.4,0.3,0.6,0.9,1.3,0.6c1.7-0.9,1.9,1,3.5,1c0.9,1.2,1.6,2.3,2.7,3.3c0.1,0.2,0.3-0.1,0.5-0.1
	c-0.3-1.3-1.6-2.3-2.4-3.2c-0.9-1.5-0.6-3.7,0.5-5.1c-0.6-0.6,0.5-1.4,0.9-1.8c1.4-1.3,3.2-0.2,4.9-1c0,2.4,1.1,4.9,0.9,7.1
	c-0.4,1.3-1.8,2.1-2.1,3.5c0.1,0.1,0.3,0.3,0.5,0.2c1.3-1.5,3.1-2.9,2.4-5.2c-1.1-2,0-4.2-0.9-6.2c3-8.3-2.7-20.1,5.6-26.8l1.8-1.6
	c0.8,5.9-1.3,12.5-1,18.6c-0.1,5.4-0.3,11.6,0.3,17c0.2,3.3-1.4,6.6-4.1,8.4c-0.8,0.2-1.4,0.7-2,1.1c0.2,1.4,1,2.6,1.6,3.8
	L434.1,256.9"/>
<path d="M479.3,205.3c-0.1,1.5,0.9,3.2-0.3,4.3l0-4.3H479.3"/>
<path class="st1" d="M284.9,207.8l0.3,2.2c-1-0.3-1.8-0.9-2.4-1.7l0-1.3C283.6,206.9,284.1,207.8,284.9,207.8"/>
<path class="st6" d="M443.3,212.8c-0.1,0.2-0.1-0.6-0.6-0.4c-0.2,0.5-0.1,1.5,0,2.1c-1.3-2-3.3-5.2-1.4-7.6
	C442.7,208.4,443.5,210.6,443.3,212.8"/>
<path d="M272.5,211.2c0.3,1.7,1.1,3.2,1.8,4.6l-0.4,0.4c-1.1-1.4-1.6-3.2-2.1-5c-0.4,0.6-0.6,1.9-1.5,1.7c0.7-1.1,1.3-2.1,1.7-3.2
	C272.9,209.8,272.1,210.7,272.5,211.2 M474.2,211.3c0.7-0.4,1.5-1.3,2.3-1.5C476.2,210.6,475.2,211.4,474.2,211.3"/>
<path class="st3" d="M339.8,219.5c0.7,1.1,1.6,2.5,3.1,2.2c7.3-4.2,12.7-11.2,18.8-17.3c0.4,0.2,0.9,0.4,1.3,0.6
	c4.5,0.9,8.4,4,12.8,5.5c5.7,0.4,10.6-3.6,14.9-7.1c1.6-0.4,2.6,1.5,3.6,2.5c0.1,0.6,1.4,1.2,0.2,1.6c-1.4-0.8-3,0-4.5-0.2
	c-0.8,0-1.1,1.1-1,1.7c0.5,2.3,2,4.3,3.8,5.8l-0.9,0.6l-2.3,0.5c-4-0.3-8.1-1.8-12.1-3c-1-0.6-2.2-0.8-3.3-1.2
	c-3.7-0.2-7.9-0.7-11.3,0.3c-0.3,0.8-0.1,1.9,0.4,2.7c3.5,2.7,7.4,3.9,11,6.3c4,2.7,7.5-0.1,11.3-1.1l7.4-0.2
	c0.8-0.1,1.8,0.1,2.5,0.3c2.4,0.5,4.9,0,6.5-1.4l1.9,1.9c-0.8-0.4-1.9,0-3,0c-1.3,0.4-3.4,0.2-4.7,0.7c-0.9,0.5-2.1,0.3-3,0.9
	c-4.2,0.9-7.2,4-11.6,4.3c-3.1,0.5-6-1.6-9.1-0.1c0.2,2.6,2,4.2,3.9,5.8c2.7,1.9,7,1.3,9.5,0l0.1,0.1c1-0.7,2-1.4,3.1-1.7l-0.3,1.6
	c-2.5,4-6.6,5.9-11,6.3c-1.1,0.1-2,1.1-3.2,0.7c0.1-2,0.3-4.7-0.3-6.5c-0.6-0.2-1.3-0.6-1.9-0.3c-1.9-0.9-3.5,0.1-5.4,0.7
	c0.6,1,0.1,2.7,0,4c-1.8,0.9-3.5,0-5.4,0.8c-0.1,0.8-0.6,1.6-0.3,2.4c-0.6,1.8-0.3,4.1,0,5.7c0.6,0.6,1.3-0.2,1.9,0.3
	c0.9,0.1,1.3-0.1,2,0.1c-0.3,3.5-0.4,6.6-0.4,9.9c2.5,0.7,5.2,0.8,7.6,0.6c0.8-2.9,0.6-6,0.9-8.8l5.4-1.1c0.9-1,0.3-3.3,0.5-4.5
	l0.3-0.4c2.5,0.5,5.1,0,7.5-0.2c-1.8,1.4-3.8,2.6-5.6,3.9l0.5,1.1c0.9,0.7,2.2,0.8,3.2,0.3l0.1,0.1c1.3-0.3,2.2-0.9,3.5-0.9
	c-0.5,1.3-1.8,1.8-2.3,3.1c0.7,1.7,3,1.1,4.5,1c2.7-0.9,6.3-1.1,8.9-0.5c3.9,1.2,6.8,1.9,10.5,3.7c-2,0.8-3.5,0.8-5.6,1
	c-4.3,0.6-8.9,0.2-12.9-0.7l-0.3,0.3c0.2,2.1,1.8,4,3.1,5.9c2.6,2.6,5.5,2.3,8.9,2.1c2.1,0.1,4.2-0.3,6.2-0.9l0.2,1.2
	c-0.1,0.4,0,0.8,0,1.2c2.6,0.3,5.6,0.9,8.3,0.4c0.5-1.3,0.5-3,0.5-4.7c0.5-0.8,1.5,0.1,2.1-0.2c3.2,1.2,7.6-0.3,8.9,3.9
	c-2.4,1.5-4.5,3.1-7,4.5l0.1,0.1c0.1,0,0.2-0.1,0.3-0.1l-1.2,0.1c-1.6-0.9-3.3-1.5-5.4-1.4c-2.8-1-6.4-0.2-9.2,0.3
	c-4.5,1.4-8.1-2.3-12.3-1.2c-0.6,0.4-1,0.9-0.9,1.7c2.6,5,8.1,5.9,13.3,7.2l-0.8,0.2c-2.7,0.9-5.4,1.8-8.3,2.3
	c-8.5,0.5-17.5,1.8-25.7,2.1l-0.5-0.4c0.6-1.2,1.5-2.3,1.5-3.8c-0.6-0.3-0.8-1.3-1.6-0.9c-1.9,1.4-2.9,4-4.9,5.1
	c-1-0.4-2.1-0.5-3.2-0.8c0.8-1.6,4.4-2.7,2.7-4.9c-0.1-0.2-0.6,0-0.7-0.2c-0.6-0.1-1.3,0-1.6,0.8c-2,0.8-2.9,2.6-4.6,3.9
	c-0.2,0.3-0.6-0.1-0.8-0.3c-11.4-2-21.4-7.7-31.4-13.4c-1.6-0.8-0.2-1.8-0.4-3c-1.1-1.9-2.6-0.6-3.8-0.5c-1.1,0.9-1.9-0.9-2.7-1.4
	c0.3-0.5,0.8-0.5,1.2-1c0.2-0.8,0.2-1.6-0.2-2.3c-2.1-0.8-4.3-0.5-6.2-0.7c-1.2-1.5-2.8-2.7-4.1-4.1l-0.1,0.1l-0.9-1.3
	c3.4-3.3,7.2-6.6,10.3-10.1c0.2,3.9-0.1,7.1-0.1,11l0.6,0.6c1.8-0.4,4.5,0,6.4-0.5c0.7-2.9,0.6-5.5,1.1-8.4c1.3-1.2,3.6,0.1,5.3-0.4
	l0.1-8.6c-1.2-1.7-5.2,1.4-4.5-2.1c3-3.1,7.2-6.1,9.9-9.6c1-1-0.8-1.8-0.9-2.7c0.2-0.2,0.3-0.3,0.5-0.5L339.8,219.5"/>
<path class="st2" d="M339.5,217.9c0.2-0.2,0.5-0.5,0.8-0.7c-0.2-1-1.1-2.2-1.9-3c-1,0.1-1.7,1.6-2.6,1c-1-1.2-1.3-3-0.8-4.5
	c2.1,0.2,3.8,1.3,5.1,3.2c0.7,2.3,3.3,4.2,2.7,6.8c0.2,0,0.4-0.3,0.5-0.4c0.1-2.9-2.1-4.8-3.1-7.2c-1.1-1.8-3.2-2.5-4.9-3
	c4.7-4.3,9.1-8.6,13.7-13c2.2,1.6,4.2,1.5,6.6,2.5c-0.2,0.2-0.6,0.4-0.6,0.8c-0.3,1.1-0.1,2,0.9,2.6c1.8,0.3,3.7,0.5,5.2,1.4
	c-4.5,4.9-9.2,9.8-14.1,14.1c-1.7,1.2-3,2.7-5.1,2.6c-0.7-0.4-1.3-1-1.8-1.6L339.5,217.9"/>
<path class="st8" d="M389.6,231.5c-1.7,4.2-6.5,6.5-10.8,7c-0.9,0.4-1.8,0.3-2.5,0.9c0.8,1.6,2.6,1.7,3.7,2.3
	c4.4,0.5,9.4,0,12.4-3.7c2.8-1.9,6.1-4.1,7.1-7.5c-2.9,0.4-6.1,0-9.2-0.1L389.6,231.5"/>
<path class="st8" d="M367.5,180.4c1,0,1.9,0.5,3,0c0.5-0.3,1.3-0.5,1.1-1.3c-1.3-1.7-2.3-2.6-4-4.1l-0.3,0.4
	c-1,6.2-7.2,11.4-12.5,14.1c-4.8,3.7-12.2,5.1-17.6,2c3.5-2.5,7.3-5.5,11.1-8c3.6-1.9,8.3-1.6,11.1-4.9c-0.8-0.3-1.8,0.1-2.7,0.1
	c-0.4,0-1,0.6-1.3,0l0.1-0.1c-4,1.3-8.1,2.2-12.4,2.7c-2.1,0-3.4-0.9-5.5-1.1c-3.6-1.3-6.9-3.4-10-5.9c3-2.4,7.1-0.5,10.2,0.2
	c4.3,1.3,7.1-1.8,10.8-2.8c4.7-0.8,10.4,1.6,14.1-1.3l-0.1-0.1l0.4-0.6c-0.7-2.3-2.6-4.7-4.6-6.3c-1-0.2-2.1-0.6-3-0.1
	c-5.6,2.7-10.7,8.8-17.6,5.6c-4-0.3-7.2-2.6-10.2-5.4c-1.6-2.3-2.9-4.6-4.4-6.9l0.5-0.2c3.5,0.6,6.7,2.4,9.8,4
	c5.9,3.1,9.8-0.6,14.6-0.9c1.4-0.3,3.5-0.4,3.8-1.9l-2.6-3c-3-0.1-5.1,2.7-8,3c-4.2,1.6-8.3-2-12-3.1c-3.9,0-7.7-0.3-11.5-1.7
	c-4.2-0.5-5.6-5-8.2-7.9c-0.3-0.5-1.1-0.7-1.3-1.3c2.6-0.6,4.7,0.9,7,1.6c2.5,1.5,5.7,1.4,8.6,1.5c4.9,0.2,7.6,4.8,12.4,5
	c0.9-0.9,1.4,0.6,2.3,0.5c1.4,0.8,2.7,0.3,4.2,0.6c0.3,0,0.5-0.4,0.2-0.6c-2.3,0.2-4.6,0.1-6.4-1.9c-1-1.1-0.6-2.5-0.7-4
	c1.3-1.9,4.2-0.6,6.1-0.7c2.3,0.5,3,3,4.3,4.4c0.4,0,0.3,0.4,0.6,0.1c-0.2-0.8-1.2-1.3-1.6-2.1c-0.6-1.1-1.6-1.9-2.7-2.4l-0.4-1.4
	c-1.2-4.4-4-8.2-6.8-11.9c-0.9-0.3-1.5,0.8-2.3,0.9c-4.8,6-12.9,3.8-19.2,2.4c-4-2-8-0.2-12.4-1.2c0.8-1,2.2-2.1,3.3-3.1
	c1.6-0.2,3.2-1.8,4.7-0.7c0.3-0.4-0.1-0.6-0.2-0.8c2-0.9,4.2-1.6,6.4-1.5c-2.3-0.8-5,0.2-7,1.2c-3.1-2.9-2.8-7.3-6.2-9.9
	c-0.7-0.7-2.1-1.5-1.6-2.7c6.6-0.1,9.5,7,14.4,10.2c2.5,1.5,5.7,1.2,8.7,1.6c3.2,0.5,6.1,1.9,9.3,2.1c0.8,0.1,1.1-0.7,0.9-1.2
	c-1-2.4-2.4-4.8-4.6-6.3c-2.5-0.5-4.8-1.6-7.4-1.9c-5.9,0.1-11.4-0.9-15.6-4.8c-1.8-1.7-3.6-3.7-5.4-5.7c-1.2-0.7-2.3-1.7-3.3-2.9
	c-0.1-0.5-0.9-1.1-0.4-1.6c2.8,1.7,5.5,3.6,8.4,5c2.6,1.1,5.7,1.3,8.4,2.3c4.5-0.1,7.5,3.2,11.1,5.4l1.3,0.1
	c0.5-0.3,0.6-0.8,0.6-1.3c-1.9-3.4-4.1-6.5-5.8-9.9c-3.2-0.5-6.7-0.4-9.6-1.4c-5.2-1-9.6-5.1-11.9-9.9c-2.2-6.4-5.9-12-10-17.5
	l0.1-0.1c1.5,1.3,3.9,1.2,5.3,3c1.4,4.8,4.3,9.5,8.8,12.5c1,0.5,2.1,0.9,2.6,2.1c3.1,3.2,6.8,5.3,11.1,5.9c0.6,0,1.2,1.5,1.7,0.3
	c-1.6-2.8-5-3.6-7.3-5.4c0,0-0.3-0.3-0.5-0.3l-7.3-3.2c-7.3-5-8.8-13.7-11.2-21.2c0.9,0.8,1.9,1.4,2.6,2.4c0.4,0.2-0.3,0.9,0.4,0.5
	c3.3,3.2,2.7,8.3,6.1,11.6c2.3,2.3,5.5,2.3,8.3,3.4c1.2,1,2.8,2.3,4.5,1.7c0-3.8-4.1-6.4-6.8-8.5c-3-2.5-3.9-6.7-6.6-9.7
	c-2.2-2.9-6.1-5.2-6.8-8.9l1.1-0.9c2.2,1.5,4.4,3.1,6.3,4.9c2.8,2.1,6.7,3.3,8.2,6.7c1.4,5.1,5.4,9.2,6.8,14.3c1.6,2,0,4.3,0.5,6.5
	c0.2,0.6,0.5,1.9,1.3,1.5c-0.2-0.5-0.4-0.9-0.6-1.3c0.1-3.7,0-6.9-1.8-10.1c-4.9-6.8-2.3-14.8-4-22.7c-0.2-0.3-0.2-0.4,0-0.8
	c5.7,6.8,8.8,14.9,9.6,23.6c1.5,5.4-2.5,11,1.2,15.6c0.4,0.5,0.4,1.8,1.1,1.6c-1.9-3.9,1-7.2,1.6-10.8c0.4-6.1-0.4-13-3.3-18.3
	c0-0.7,0.9-0.7,1.4-0.5c4.1,3,6.3,7.5,7.4,12.2c0.4,2,1.4,4.1,1.2,6.4c-1.3,5-4.2,8.9-6.1,13.7c-1.4,3.8,1.8,6.3,2.7,9.4
	c0.3,0.6,0,1.2,0.3,1.5c1.1-4.9,2.7-10.8,0-15.7c0.3-2,2-3.7,2.7-5.7c4.4,6.6,3.4,16.3,0.1,22.9c-1.3,3.7,2.5,5.9,4,8.8l0.9,0
	c0.7-1,1.1-2.1,1.1-3.3c-1.6-4-2.1-8-1.1-12.5c1.1-3.8-1-7.1-0.1-10.8c1.4,1.1,1.8,2.9,2.9,4.2c2.9,4.6,3,11.7,2,16.9
	c-1.1,2.7-0.6,6-2.8,8.3c-0.4,1.9,1.4,3.5,2.1,5.2l0.6,0.3l0.2,5.2c0.1,1.4,2.3,1.2,1.6,3.1c0.4,0.6,1.3,1,1.9,0.6
	c-1.4-1.9-0.6-5.2-0.8-7.4l-0.4-0.4c0.3,2.5-0.5,5,0.7,7.1l-0.2,0.2c-1.3-0.6-0.5-2.7-2.2-3.2c0-1.6-0.5-3.9-0.2-5.3
	c0.4-1.3,1.9-1.7,3-2.2c5.1,1.9,0.5,5.9,1.1,9.3l0.3,0c0.1-0.4,0.3-1,0.2-1.3c1.9-4.3,2.3-9.7,1-14.2c-0.2-3.7-4.7-6-3.2-10.2
	c0.1-1.2,0-2.6,0.6-3.6l3.3,2.5c6.5,5,6.1,13.7,6.4,20.8c0.3,3.9-1.7,7.1-3.4,10.4c0,3,1.2,6.4,4,7.5c0.9-0.1-0.2-0.8,0.6-1.1
	c1.1-4.6,2.1-9.8,0.9-14.7c0.1-6.2-2-12.7-0.3-19.2c0.7-3.1-0.8-5.7-0.7-8.6c0.7,0.3,1.3,1.1,1.8,1.7c5,8.8,6.3,20.6,5.6,30.4
	c-0.2,4.9-2.6,9-4.6,13.1c0.9,2.5,3.3,4.4,4.5,6.8c0.9,0.9,1.3,2.9,3.1,2.6c1.5-4.3-1.2-8-1.2-12.1c-1.3-3.9,0.6-8.6,0.7-12.3
	c-0.5-4.2,0.3-9.8-0.7-13.4c0.3-0.2,0.4,0.2,0.7,0.1c3.5,3.7,4.2,8.7,6,13.2c-0.1,5.9,0.8,11.9-0.9,17.8c-0.8,3-2,6.4-2,9.3l6.7,7.6
	l0.4-0.2c-0.5-5.7-2.6-10.5-3-16.2c-1.4-5.7,1.8-10.1,1.8-15.8c0.1-2.5-1.2-4.5-1.3-6.8c3,3.7,5.6,7.7,6.5,12.5
	c1.6,7.3,1.8,15.8-0.5,23.1c-0.8,2.4,0.6,5.2-0.7,7.5c0.9,0.8,1.3,1.3,2.3,2.3c-0.2,0.1-0.1,0.4-0.1,0.6c0.3,0.1,0.4-0.1,0.5-0.2
	c2-5.3,2.5-11.1,1.5-16.8c-0.3-1.3-0.7-3.2,0.3-4.3h-0.1c-0.9-2.2,0-4.2,0-6.9c1-3.4,2.3-6.7,4.3-9.6l0.3,0.5
	c-0.2,9.1,3.8,18.4,1.7,26.7c-0.6,4.8-3,9.2-5.1,13.6c0.6,1.3,1.7,2.4,2.6,3.4l0.1-0.1c0.9,2.2,2.7,3.9,4.3,5.7
	c0.6,0,0.8-0.4,1.3-0.7c0.6-3.2,1.7-6.2,1.4-9.2c0-4.7-3.8-9.1-1.7-13.8c-0.5-4.2,1.1-9.1,1-13.5c0.6,0.6,0.9,1.3,1.4,2.1
	c1.9,5.1,2.7,10.8,4.1,16.1c1.6,8.1,3.3,16.4-3.1,22.7c0.3,0.6,0.4,1.4,0.7,2c0.2,1.4,1.6,2.7,2.2,4.2c0.5,0.5,0.9,1.5,1.6,1.6
	c0-1.1-1.4-1.9-1.3-3.2c1-2.1,0.9-4.7,3.4-6c0.6-0.1,1.4-0.3,1.9,0.1c-0.6,2.6-0.9,5.2-0.7,7.8c1.6,2.4-2.1,3.5-1.4,5.7
	c0.8-2.1,2.9-3.4,2.3-5.9c-0.9-3.5,0.9-6.9,0.3-10.6c-3.7-8.9,6.2-14.8,10.3-21.3c1.5,3,2,7.2,1.2,10.5c-2.3,8.1-3.6,16.7-7.5,24.2
	c-0.9,2.4-3.2,4.3-3.5,6.9l4.3,5c0.5-0.1,0.9,0.6,1.3,0c0-4.9,2.1-9.5,3.1-14.2c0.6-7.4,0.7-15.5,7.5-20.6c0.4,1.6,0.7,3.4,0.4,5.1
	c-2,9.3,1.7,19.7-4.9,27.6c-1.1,1.5-1.9,3.3-3.5,4.2c-0.5,0.8,0.2,1.4,0.4,2.2c0.8,1,1.5,2.4,1.9,3.5c2-0.3,2.5-2.3,3.4-3.7
	c3.3-6,4.3-15.8,13.1-16.6l0.4,0.3c-2.7,3.5-3.7,8.1-3,12.8c-2.5,4.3-6.5,7.9-11.3,8.9c0.4,0.3,0.2,1.1,0.3,1.6
	c0.9,1.4,1.7,3.2,2.9,4.2c1,1.9-1.1,3.8-0.3,5.7c-0.8-0.4-1.6-0.9-2.5-0.9c-0.8-1.8-1.9-3.6-3.5-4.9c-1.6-2-4-0.6-5.9-0.1
	c-5.3,3.3-10.4,7.4-16.6,8.9c-3.5,0.7-6.7,2.4-10.2,2.4c-0.4-0.1-0.9-0.4-0.8-0.8c8.1-4.8,15-12.9,24.6-14.8
	c1.8-0.3,3.7,0.1,5.2-0.8c-0.3-1.2-1.3-2-1.7-3.2h-0.5l0,0.4c-3.5,2-7.7,2-11.8,2.6c-3.7,1.1-8.2-1.4-11.6,1.3
	c-2.7,1.1-6.1,1.7-9.1,0.5c-1.7-1.3-4.6-2.9-4.2-5.3c0.8-0.1,1.5-0.2,2.3-0.4c4.4,1.5,9.6,0.6,13.4-1.8c2.9-1.6,6.1-2.7,9.3-3.2
	c2.3,0.2,4.2-0.9,6.6-0.5l-2.4-2.7c-1.9,0.8-3.7,1.8-5.9,1.6c-2.8-1.3-6.3,0.2-9.8-0.4c-3.9,0.2-7.3,3.6-11.1,1.8
	c-3.4-2.2-7-3.8-10.5-5.7c-1-0.6-2.1-1.6-2-2.9c1.1-1.2,3.5-0.4,4.7-0.7c6.4-0.9,11,2.6,16.6,3.6c2.4,0.3,5.3,1.2,7.6,0.3l1.6-0.4
	c0.9,0.7,1.9,1.2,2.9,1.7c0.1-0.1,0.1-0.4,0.3-0.5c1.3-0.2,2.5,0,3.8-0.7l0-0.3c-1.3-0.6-2.8,0.7-4.5,0.5c-3.4-1.1-6-4.6-6.6-8
	c1.1-0.5,2.4-0.5,3.7-0.5c1.6,0.1,2.7,1,3.7,2.3c0.4,0.8,1.6,1.9,0.8,2.7c-0.9-0.8-2.2-1.1-3.3-1.1c1.6,0.6,3,1.5,4.4,2.8
	c0-0.1,0.1-0.2,0.2-0.1c0.2-0.3-0.2-0.8,0.4-0.9c-0.9-1.6-1.5-3.6-3.1-4.8c0.1-0.3,0.4,0,0.6,0c-0.3-0.6-0.3-1.8-1.2-1.8
	c-0.9-1.1-1.9-2-2.9-3.1c-0.8-0.3-1.6-0.7-2.4-0.3c-4.6,3.9-10.1,8.3-16.3,6.3c-4.5-2.9-9.6-4.5-14.7-6.3c-1.3-0.4-2.7-0.3-3.8-1
	c-0.5-0.8-0.2-1.8,0.6-2.2c5.1-2.4,10.1,0.1,15.4,0.2c4.9,1.1,10.6,2,15.1,1c0.8-0.5,2.4-0.4,2.3-1.6c-0.9,0.4-1.9,0.8-2.8,1.2
	c-1.7-0.1-4.3,0.8-5.6-0.2c-0.6-1.2-1.4-2.4-1-3.8c1.2-1.6,3-2.5,5.1-2.1c0.1,0.1,0.4,0.3,0.2,0.5c1.6,0.5,2.9,1.5,4.1,2.7
	c-0.1-0.1,0.1-0.2,0.2-0.4c-0.1-0.6-0.6-0.7-1-1.1c-0.9-0.6-2.3-0.8-2.7-1.8l-0.9-1.1c-0.4-0.4-1.1-0.7-1.7-0.8c-2.8,0-5-1.2-7.6,0
	c-3.7,2.4-7.7,3.9-11.6,5.8c-2.5,0-5-0.2-7.4,0.7c-3.5-0.8-6.9-1.7-9.7-3.9c3.4-2.3,7.3-1.6,11.2-1.8c5.7-0.8,10.5-4.2,15.9-6
	c1.3-0.2,2.9-0.2,4.2-0.5c-0.6-1.2-1.6-2.2-2.6-3.3c-2.2-0.3-3.7,1.9-5.7,2.2c-3,2.2-5.6,1.7-8.9,1.9c-0.6-0.1-1.1,0.7-1.6,0
	l2.4-1.9c1.3-1.4,2.7-2.6,3.8-4.1c0.2-0.4,0.4-0.8,0.6-1.3L367.5,180.4"/>
<path class="st2" d="M366.2,179.9c0.7-1.1,1.5-2.1,2.5-2.8c0.9,0.7,1.6,1.3,2.2,2.3l-0.5,0.4c-1,0.6-2.1,0-3.1,0L366.2,179.9"/>
<path class="st1" d="M279.3,214.6c0,1.9,0.3,4-1,5.4c-0.8-1-1.1-2.9-1.3-3.9c0.3,0.4,0.4,0.8,0.9,1c1.6-0.9,0.5-3.3,1.9-4.6
	C280.1,213.2,279.5,213.9,279.3,214.6"/>
<path d="M483.7,212.4c0.3,1.1,1,2.2,0.9,3.3c-0.9-0.3-1-1.8-1.3-2.8C483.2,212.6,483.3,212.2,483.7,212.4"/>
<path class="st1" d="M288,215.5c2.9,7.8,7.5,14.9,11.7,22l0.1-0.1l4.3,6c0.3,0.8-1.1,1.4-1.5,2.1c-7.6-9.3-13.4-20.1-17.4-31.3
	C286.2,214.4,287.1,215.2,288,215.5"/>
<path class="st6" d="M442.2,217.7c-1.1-1-1.9-2.7-1.4-4.4l0.2-0.1C441.6,214.6,443.2,216.2,442.2,217.7 M337.4,215.6l0.8-0.6l1.4,2
	c-0.6,0.4-1.9,1.2-1.5,2.1c0.4,0.8,1.7,1.7,0.5,2.5c-9.1,8.2-17.6,16.2-26.3,25.1c-5.3,4.4-10.7,9.3-16,13.6
	c-0.6-1.9-1.5-3.7-1.7-5.7c2.9-2.3,5-5.5,8.1-7.7c9.3-10.8,20.3-21.1,30.2-31.9l0.5-0.3C334.9,215.4,335.9,217.1,337.4,215.6"/>
<path d="M479.6,214.1c0.1,0.8,0.4,2.1-0.4,2.8l-0.2-3C479.2,213.8,479.4,213.9,479.6,214.1 M476.5,215.6c-0.6,0.2-0.9,0.8-1.5,0.6
	c0.6-0.8,1.5-1.1,2.2-1.7C477.7,214.7,476.8,215.4,476.5,215.6 M274.6,225.7l-0.3,0.2c-0.5-1.9-0.9-3.4-1.7-5.2
	c-0.7,0.2-0.8,1.1-1.1,1.6l0.1,2.9h-0.2c-1.4-2.9,2-4.8,1.4-7.7C271.9,220.5,274.6,222.7,274.6,225.7"/>
<path class="st6" d="M442,221.5c-0.6,0.1-1.3-0.9-1.7-1.4c-0.4-0.8-0.2-2.1,0.3-2.8C441.9,218.4,442.4,219.6,442,221.5"/>
<path d="M479.1,219.5c-0.4,1.4,0.4,3.3-0.5,4.5l-0.2-0.2C478.4,222.4,478.1,220.4,479.1,219.5"/>
<path class="st6" d="M441.6,223.2c-0.4,0.5-0.3,1.1-0.5,1.6c-0.1-0.8-0.3-2-0.2-2.9C441.6,222,441.4,222.8,441.6,223.2"/>
<path d="M476.4,223.5l-1.3,0c0.6-0.5,1.7-0.6,2.3-1.4C477.8,222.8,476.9,223.2,476.4,223.5"/>
<path class="st3" d="M428.7,233.9c-2.3,0.1-4.5,0.2-5.7,2c-0.4-0.2-0.4-1.1-0.9-1.1c-0.6-0.9-1.1-2-1.8-2.9c0.8-0.6-0.4-0.9-0.3-1.5
	c2-0.6,4.4-1.6,6-3.2c1.5-1.1,3-2.9,4.1-4.5C430.2,226.7,430.9,230.3,428.7,233.9"/>
<path d="M273.5,230.4c-0.1,0.1-0.1,0.2-0.3,0.2c-0.6-0.5-0.3-1.4-0.9-1.8c-0.5,0.7-0.9,1.8-1.6,2.1c0.9-1.8,2.5-3.5,2-5.7l0.5-1.3
	C273.1,225.7,272.2,228.4,273.5,230.4 M478.4,225.8c0,0.6,0.1,1.4-0.3,2.1h-0.4C478,227.2,477.8,226.2,478.4,225.8"/>
<path class="st3" d="M411.2,229.9c-2,0.5-4.5-0.1-6.2,1c-2.2,0-4.2,1.9-6.5,2.5c0.6-1,1.5-2,1.5-3.1c0.9-0.5,2.4-0.1,3.5-0.4
	c2.5,0,4.6-1,6.8-1.7L411.2,229.9"/>
<path class="st1" d="M458.6,231l-0.1,0.1c1.1,1.8,1.4,3.9,1,5.9c-0.1,0.3-0.4,0.5-0.6,0.4c-1.1-2.3-1.1-5.4-1.1-8.1
	C458.2,229.6,458.5,230.3,458.6,231 M266.2,231.4l0.3,4c1.6,0.1,3-1.5,3.9-2.8c0.4,1.2,1,2.5,0,3.7c-0.8,1-2,1.2-2.9,1.9
	c-1.2,0-1.8,1.4-2.9,1.8c-0.3-2.4-0.1-6.1,0.4-8.6C265.4,231.4,265.9,230.8,266.2,231.4 M329.9,233.4c1.4,0.2,2.8-0.4,3.7,0.1
	l-0.1,7.8c-1.8,0.6-4.2-1.3-5.4,0.7c0.1,2.3-0.5,5.6-0.9,8.1c-2,0.2-3.9,0.2-5.7,0.2c-0.1-3.5,0.2-7.9,0.2-11.3l-0.1-0.1l7.6-7.3
	C329.5,232.2,328.7,233.2,329.9,233.4 M482.3,235.9L482.3,235.9c-1.3-1.2-2-3.1-2.6-4.9C480.6,232.6,484,233.9,482.3,235.9
	 M373.8,232.8c0.4,2.5,0,4.5,0.2,6.8c0.1,0.3,0.5,0.2,0.8,0.2c1.3-0.7,1.4,1.2,2.6,1.5l1.3,0.3c-0.1,1.8,0.3,3.3-0.4,4.7
	c-2.1,0.1-3.7,0.3-5.6,1c-0.1,2.8-0.1,5.7-0.4,8.6c-2.1,0.3-4.2,0-6.4-0.2c-0.4-2.9,0.1-6.8,0.4-10l-0.3-0.2l-3.9-0.1
	c-0.4-2.5-0.5-5.5,0.4-7.6c1.8-0.2,3.3,0.2,4.9-0.3l0.3-0.2l0.5-4.1C370,232,371.8,232.9,373.8,232.8 M455,232.1
	c0.6,3.3,3,8.3-0.6,10.8c-0.3-2.8-0.1-5.9-0.9-8.7C453.1,233.3,454.1,231.8,455,232.1"/>
<path d="M474.7,231.8c-0.3,1.1-0.7,2.3-1.7,2.8C473.4,233.7,474,232.4,474.7,231.8"/>
<path class="st2" d="M276.2,243.1c-1.4,1.7,0.2,4.3-1.2,5.9c0.2,0.3-0.3,0.6-0.3,0.9l0.1,0.1c-0.1,0-0.2,0.1-0.3,0.1
	c-0.1-0.9-1.8-0.8-1.3-2c-1.9-1.9-0.6-4.2-0.8-6.6l-0.4-0.4c-0.7,1.1-0.1,2.8-1,3.8c0.2,1.4-1,2.6-1.2,4c1.2,0.1,0.8-1.7,1.5-2.4
	c0.4,0.6,0.9,1.8,1.3,2.8c-0.6,1.1-0.5,2.3-1,3.4l-0.9-0.8c-1.1,0.8-0.6,2.3-0.8,3.3c-1,1.2-1.1,3.8-3.5,3c-0.3,0.2-0.7,0.2-0.9,0.5
	c0.1,1.1,1.2,0.1,1.7,0.3c0.8,0.1,1.4-0.3,2-0.7c0.1-0.4,0.8-1.3,1.2-1.9c0.4,0.9,0.6,2.3,1.8,2.6c-0.4,2.1,0,4.3-0.5,6.5
	c0.3,1.8-2.8,2.8-2.5,4.9c-0.6,0.2-0.1,0.8-0.6,1.1c-0.5-1.8-1-3.5-1-5.5c1.5-1.5,3.1-3.7,2.2-6.1c-1.2,0.4-1.3,1.9-2.6,2.1
	c-0.3-0.4-0.4-1.1-1.1-1.1c-0.6,0.2-0.3,0.8-0.6,1.3c-0.5-1.1-0.2-2.8,0.3-4c1.8-0.9,1.5-3.4,2.7-4.8c0.1-1.3,1-2.6-0.2-3.2
	c-0.4-2.2-0.9-4.4-2-6.4c-0.8-0.1-1,0.6-1.4,1.1c0.1-1.2-0.9-3.3,0.3-4.4l1.8-1.8l0.2,0.3c1.3-0.7,2.8-1.3,3.6-2.4
	c0.6,1.1,0.9,2.5,1.2,3.8c0.2,0.2,0.7-0.1,0.8-0.4c-0.2-1.4-0.9-2.9-1.2-4.5c0.8-0.1,1-1.1,1.3-1.6
	C274,237.1,274.1,240.2,276.2,243.1"/>
<path class="st1" d="M276.6,240.9c0.1,0.3,0.1,1,0,1.4c-1.4-2.5-1.9-5.3-2.6-8c0.5,0.4,1.1,1.5,1.8,0.8l0.5-0.5l0.1,0.1l0.3-0.6
	C276.4,236.1,275.5,238.5,276.6,240.9"/>
<path class="st2" d="M272.1,234.2c-0.1,0.2-0.1,0.4-0.3,0.5v-0.5L272.1,234.2"/>
<path d="M475.3,234.5c-0.4,1-1,1.9-1.7,2.8C473.4,236.2,474.6,235.1,475.3,234.5"/>
<path class="st3" d="M416.2,236.9c-1,0.1-2-0.3-3.2,0.4c-0.3,0-0.8,0-1.3,0.3c-0.2,1.3-0.3,3.2-0.5,4.9c-2.1,0.2-4.3,0-6.2,1.2
	l0,1.4c-3.4,0.5-5.9-0.9-9.2-0.7c0.7-0.5,1.8-0.5,2.5-1.3c2.9-1.4,5.5-2.9,8.2-4.7c1-0.4,1.9-1.6,3.2-1.9c1.6-0.9,2.7-1.8,4.7-1.3
	C415,235.9,415.7,236.2,416.2,236.9"/>
<path class="st1" d="M418.1,239.4c-1.1,1-3.5,2-2.7,3.9c0.1,0.3,0.6,0.6,0.6,1.1c-3.2,0-6.8,2.2-10.2,0.7c-0.2-0.8,0.1-1.7,1.1-1.7
	c1.6,0,3.4-0.4,4.8-0.1c1-1.9,0.4-3.1,0.7-5.1C414.2,238.2,417.8,236.1,418.1,239.4"/>
<path d="M425.7,244.1h-0.3c-0.2-1.2,0.1-3.2,0.7-4.2C426.1,241.1,426.1,242.9,425.7,244.1 M472.5,241c-1,0.4-2.2,1.4-3.2,0.7
	c0-0.3,0.4-0.1,0.5-0.1v0.1C470.7,241.7,471.5,240.9,472.5,241"/>
<path class="st1" d="M266,244.9c0.4,2,1.3,3.7,1.6,5.7c1.2,0.5,0.2,2,0.2,3c-0.6,0.3-1.5,1.1-2.2,0.6c0-2.8,0.1-5.6-0.7-8.1
	C265.1,245.6,265.5,245.2,266,244.9"/>
<path class="st6" d="M289.9,247.3l3.1,6.7c-1.8,1.3-3.8,2.4-5.3,4.1c0,0.3-0.6,0.6-0.1,1c-0.1,0.1-0.3,0.1-0.4,0.1
	c-2.1-2.5-7.7-4.4-6.4-8.4c1-2.7,3.6-5,6.3-5.6C288.4,245.1,289.1,246.4,289.9,247.3"/>
<path d="M424,245.5c-0.7,0.3-1.8-0.6-2.8-0.5l0-0.5C422.2,244.9,423.4,244.8,424,245.5"/>
<path class="st1" d="M274.3,250.9c-0.3,2.1-0.9,5-1.8,7.3h-0.2c-0.9-1.5-1.4-3.1-1.3-4.9c0.8,0.5,1.6-0.2,1.8-0.9l0.5-2.5
	C273.7,250.1,273.8,250.6,274.3,250.9"/>
<path class="st2" d="M309,253.7c-0.2,0.6-0.3,1.1-0.6,1.7c0,0.7-0.6,1.4-0.5,2c0.3,1.2-1,2.3-0.6,3.3c0.8,3.5,5.8,6.1,3.7,10
	c0,0.8-0.2,2.4,0.3,3.3c-0.6,0.8-1.1,0.1-1.7,0.3c-2,1.6-1.3,3.6-0.7,5.7c0.4,4.3-3.6,7.2-1.8,11.3c-1.1,2.4,0,4.7,0.1,7.3
	c-0.4,0.8-1.7,0.9-1.8,2c1.2,3-1.6,5.8-0.9,9.1c-2.5,2,1.2,4.9-1.5,6.9c-0.1,1.2,0.2,2.4,0,3.5c-0.9-0.7-0.7-3.1-2.3-2.2
	c0.1,1,0.2,2,0.2,2.9c-0.4,0.2-1-0.6-1.4,0c-0.2,2.4,1.2,4.1,2.2,6l0.6-0.3c0.2,1.1,0.4,2.3-0.2,3.5l-0.8,0.7l0.1,0.1
	c-0.7,0.3-0.7-1.1-1.6-1.1c-0.8,0.1-0.6,0.3-1,0.9c-0.3,0.7,0.1,2,0.2,2.7c-0.4-0.3-0.8,0-1.1,0.3c-1.7-1.7,1.3-3.8-0.7-5.1
	c-0.4-0.1-0.6,0.3-1,0.1c-0.6-0.9,0.1-1.9-1.1-2.5c1.9-0.3,2.5-2.3,2.9-3.8c-0.1-0.9,0.2-1.8-0.3-2.7c1.1-0.8,1.7-2.2,2.3-3.3
	c-0.1-0.3-0.2-0.7-0.6-0.8c-0.8,1.2-1.5,2.5-2.1,3.8c-0.7,0.1-0.9,0.9-1.4,1.4c-0.2-1.3-1.2-2.1-1.6-3.3c1.5-0.5,2.2-2.3,3.4-2.9
	c1.5-1.4,1.5-3.4,1.4-5.2c-1.1-1.5-2.2,0.9-3.5,0.9c0-1.2,2.2-3.3,0.5-4.2c-0.9,0-1.1,0.9-1.9,1.3c0.1-1.1-0.4-2-0.9-2.9l-0.5-0.1
	c0.6-1.2,0.5-2.8,2.1-3.5c0.1-0.6,1.1-1.1,0.8-1.8c-1-0.2-1,1.1-1.6,1.7l-1.2,0.9c-0.2-1.6-0.2-3.4,0.1-5.1c0-2.3-0.4-4.7,0.4-7.2
	c0.5-1.3,2.2-0.9,2.5-2.2c0.1-0.7,0.3-1.7,0.1-2.3c-0.8,0.2-1.6,0.9-2.4,0.7c-0.7-2.8,1.3-5.5,0.2-7.9c1.8-1.4,2.2-3.3,2.5-5.4
	c0.5,0,0.6,1.4,1.3,0.6c-0.1-0.8-0.9-1.3-1.6-1.5c-0.6-0.1-1.1-0.3-1.4-0.9c0.2-1.5,0-3.3,1.4-4c1,0.2,2.3,0.1,2.8-0.8
	c-0.6-1.1-1.1-2.4-0.5-3.6c1.8,1.1,3.5-0.3,5.2-0.7c2.7-2.3,3.1-5.7,4-8.9C308.2,252.7,308.9,253.2,309,253.7"/>
<path class="st3" d="M423.4,251.7c1.1,1.3,1.7,2.7,2.4,4.1c-1.5-0.6-3-0.9-4.3-2c-1-0.2-1.9-0.6-2.9-0.8
	C420.1,252.9,422,251.7,423.4,251.7"/>
<path class="st1" d="M416.3,253c-0.7,0.1-1.4,0.4-2.3,0.2C414.7,252.8,415.5,253.2,416.3,253 M412.8,253.1c-0.4,0.5-1,0-1.6,0.3
	C411.6,252.9,412.3,253.2,412.8,253.1"/>
<path class="st2" d="M456.2,260.9l0.1,0.1c-0.7,0.2-2.3,0.2-2.8,1.1c-0.1,2.5,2.3,3.5,3.6,5.3c0.3,0.6,1.2,1.4,0.7,2.3
	c-0.6,0.6-1,1.3-0.8,2c1.6,0.9,0.9,2.3,0.5,3.6c-0.5,2.1-4.2-0.5-3,2.3c0.5,1.2,2.7,1.6,2.1,3.2c-0.6,0.8-0.5,2.2-1.5,2.4
	c-0.7-0.7-1.6-1.1-2.4-1.3c-0.7,0.6,0.1,1.6,0.5,2.3c1.1,2,2.1,4.6,1.8,6.7c-0.5,0.2-1,0.2-1.4,0.6c-3.5-6-7.3-12-10.8-18l-0.4-1.4
	c2.7-4.5,6.7-8.3,8.8-13.1c-0.1,2.8-1.2,5.9-2.3,8.6c0.1,0.2,0.4,0.3,0.6,0.3c1.5-3,2.3-6.5,2.5-9.7l-0.4,0c0.6-1,1-3,1.5-4.6
	C453.5,256.5,458.7,257.2,456.2,260.9"/>
<path class="st6" d="M294.7,257.9c0.5,1.3,1,2.8,1,4c0.5,0.3,0.5,1.3,0.6,1.9c-0.7-0.1-1.7,0-1.9-0.8c-2.2-0.5-4.5-2-6.2-3.6
	c0.6-2.4,3.4-3.3,5.2-4.8C294.2,255.4,294.3,256.8,294.7,257.9"/>
<path class="st1" d="M321.6,256.6c0.4,1.1-0.5,1.4-1.3,1.8c-2.9,0.6-7.1,1.2-9.1-1.4c-0.1-0.6,0.1-1,0.3-1.3c3-0.1,6.9-0.8,9.8,0.2
	L321.6,256.6 M320.4,259.4c0.4,0.5,1,0.6,1.1,1.1c-0.7,0.4-1.6,0.4-2.5,0.4c-0.3-0.7-1.1-0.7-1.6-1.3l3.2-0.8
	C320.3,259,320.4,259.2,320.4,259.4 M326.7,261c0.2,1-0.6,1.8-1.4,2.4c-1.9,0.7-4.2,0.9-6.2-0.1c-0.6-0.4-1.1-0.9-1.1-1.6
	c3.2,0.6,5.4-1.7,8.3-1.3L326.7,261"/>
<path class="st6" d="M293,263.7c-8.7,8-16.4,17-26.3,23.7c-0.5-0.3-0.4-1.1-0.4-1.7l1.3-2.1c5.8-6.5,11.7-12.2,17.7-18.4
	c1.2-1.3,2.2-2.8,2.9-4.5C289.8,261.8,291.5,262.6,293,263.7"/>
<path class="st1" d="M265.9,266c-0.9-0.2-0.5-1.8-0.4-2.4c0.6-0.2,0.3-1.1,0.8-1.5c0.2,0.4,0.9,1,1.6,0.7l1.3-1.1
	C269,263.3,267.8,265.4,265.9,266 M473.7,264.4c-0.7-1.3-1.8-2.1-3.2-1.9c-1.7,0.5-3.3,1.5-4.9,2.3c-0.1-0.6-0.6-1.2-0.5-1.8
	c0.8-0.2,1-1.3,1.6-1.6c1.8,1.5,3.4,0.4,5.2,0c0.4,0.4,0.9,0.8,1.6,0.6c0.5-0.4,0.9-0.7,1.3-1.3
	C474.7,261.8,474.8,263.7,473.7,264.4 M336.8,269.5c6.9,3.9,14.3,6.5,22,8.1c-0.8,1-2,1.1-2.7,2.2c0.1-0.2-0.2-0.8-0.6-0.8
	c-4.7-1.2-10.1-1.3-13.8-4.2l0.1-0.2c-1.6-0.6-3.4-1-4.9-2c-4.4-2-8.5-5.7-12.9-8c0.9-0.4,1.8-0.6,2.5-1.4
	C329.7,266,333.4,267.4,336.8,269.5"/>
<path d="M270.6,265.7c-0.1,0.2-0.4,0.3-0.6,0.2l-0.5-1.3C270.2,264.1,270.3,265.3,270.6,265.7"/>
<path class="st2" d="M473.6,265.2c0.4,0.8,0.1,1.8-0.1,2.6c-1.1,0.6-2,1.3-2.5,2.5c-0.3-0.6-0.9-0.9-1.6-0.9l-0.1,0.2
	c-0.1-0.1,1.2-3-1.1-2.2c-0.1-0.4-0.2-0.8-0.6-1.1c-0.6-0.1-0.9,0.4-1.5,0.4c0-0.1,0-0.7-0.1-1c1.9-1,3.6-2.2,5.9-2.1
	C472.5,263.8,472.7,264.9,473.6,265.2"/>
<path class="st1" d="M268.4,272.4l-0.3,1.1c-1.6-1.4-1.5-3.7-2-5.7c0.1-0.5,0.1-1.1,0.7-1.3C267,268.6,267.4,270.5,268.4,272.4"/>
<path d="M451.2,266c-0.3,1.9-0.8,3.7-1.5,5.5h-0.4c0.7-1.8,0.6-3.8,1.5-5.5H451.2 M302.1,269.7c0.1,3-0.6,4.9-0.9,7.9
	c-0.4,0.5-0.7,1.2-1.3,1.5c-0.6,0.1-0.7,0.1-1.2-0.1c0.4-0.6,1.8-0.9,1.9-1.9c0.1-0.9,0.3-1.8,0.3-2.7l-0.9,0.6
	c-0.1-0.1-0.1-0.4-0.4-0.5c1.6-1,1.8-2.8,1.7-4.4c-0.6-0.2-0.8,0.6-1.3-0.3c0.1-0.6,0.9-0.3,1.3-0.5l1.7-1.4
	C303.5,268.8,302.5,269.1,302.1,269.7"/>
<path class="st1" d="M468.7,268.1c-0.1,1.9-2.3,1.8-3,3.2l0.1,0.1l-0.4,0.2c0.4-0.9,0.5-2.6,0-3.5c-0.1-1.2,1.3-0.4,1.8-0.9
	C467.3,267.9,468.1,268.6,468.7,268.1"/>
<path d="M305,270.9c0.1,0.8,0.9,1.6,0.2,2.3l-0.4-0.8c-0.7,0.5-0.2,2.2-1,2.4l-0.2-0.5c0.1-2,0.8-3.9,1.2-5.7
	C305.6,269.2,304.9,270.2,305,270.9"/>
<path class="st2" d="M468,275.3c-0.6-1.4,0.2-2.9-1.2-3.9l1.8-1.3C467.6,271.9,472,274,468,275.3"/>
<path class="st1" d="M470.8,271.2l0.8-0.2c0,0.4-0.5,1.6-1,2.3c-0.2-1.1-1.6-1.8-0.9-3C470.2,270.3,470.2,271,470.8,271.2"/>
<path d="M452.5,270.4c-0.5,3.8,0.2,8.6-1,12.2l-0.5,0c1-3.6,0.4-7.8,1-12C452.1,270.5,452.3,270.3,452.5,270.4"/>
<path class="st1" d="M466.5,272.2c0.9,1-0.2,3.2,1.4,3.8c0.4-0.2,1-0.5,1.3-1.1l0.4,0c-0.3,1.8-2,3.2-2.8,4.9
	c-0.3-2.6-2.6-4.9-1.5-7.6C465.6,272.8,466.1,272.2,466.5,272.2 M366.6,273.7c-1.6,2.1-3.7,4-5.5,6.2c-1.1,0.4-2,1.4-3.4,0.9
	l-0.6-0.6c2.5-1.7,5.4-4.2,7.6-6.3c0.2-0.1,1-0.2,0.6-0.7C365.7,273.4,366.2,273.4,366.6,273.7"/>
<path class="st2" d="M339.4,275.3c-0.7,1.2-0.1,2.5-1,3.5c-0.1,2.3,0.7,4.5,1,6.4c0.4,0.2,0.2,0.6,0.6,0.6c0.4-0.7-0.3-1.6-0.4-2.4
	l-0.4-2c0.9,1.3,2.6,1.2,4.2,1.4c0.7,2,0,4.2-0.3,6.1c-0.1,1.8,1.9,3.2,1.2,5.2c0.3,2.5-1.5,4.5-1.1,7c0,1.4,1.6,2.8,0.2,4l-1.3,0.2
	c-0.5,0.8,0.2,1.4,0.4,2.2c-1.6-1.5-1.2-4.2-2.9-5.7c-0.9-3.4-0.4-6.7-0.6-10.1l-0.2-0.2l-0.3,0.4c0.1,2.5-0.5,6.4,0.5,9.2
	c0.1,1.2-0.9,2.3-0.8,3.7c0.2,3.3-0.9,5.7-0.4,9.3c0.4,0.8,1.3,0.1,1.8,0.4c0.4,2.6,4,0.8,3.7,3.7c0.4,2.5-0.1,4.8-0.3,6.7
	c-0.4-1.8-0.7-4.1-2.1-5.2c-0.3,0.5-0.5,1.1-0.4,1.6l-0.2,6.1c-0.2-1.1-0.5-2.5-1.1-3.1c-0.5-0.1-0.9,0.4-0.9,0.8
	c-0.7,4.6,3.7,8.8,2.3,13.3c-0.3,2.8-0.7,5.5-2.5,7.7c0,0.4,0,0.8,0,1.1c0-0.4-0.4-1.3-1-1.5c-0.5,0.7-0.3,1.8-0.6,2.6
	c-0.7,1.1-0.6,2.6-1.5,3.5c-0.4-2.2-0.5-4.9-1.4-7.3c-0.3-0.3-0.7-0.6-1.1-0.3l-0.5,0.5c-0.8-2.3-1.4-6.1-0.4-8.5
	c0.6-0.5,0.3-1.5,0.7-2.2c2.5-2.5,4-5.3,4.8-8.5l-0.4-0.4c-1,1-2.5,1.1-3.2,2.4c-0.4-1.7-1.4-3.5-3.2-4.4c0-1.8,0.5-2.7,1-4.5
	c2.1-0.9,4.6-2.4,5.6-4.7l-0.3-0.4c-1.8,0.7-3.7,1.9-5.8,1.5c0.3-1.5,0.8-1.8,2.4-2.1c0.7-0.3,1.8-0.4,2.3-1.4
	c0.1-0.8,0.5-2.2-0.4-2.7c-1.5,0.9-2.9,0.5-4.6,0.8l-0.3-0.3l0.9-1.9c-2.5-1.6-1.2-4.3-1.7-6.7c0.4-0.1,0-0.7,0.5-0.6
	c-0.6-0.8-1.1-0.8-1.6-1.6c0.1-1.4,1.5-3.5-0.7-4.3c-0.2-1.9,0.4-3.1,0.4-4.9c-0.4-0.8-1.3-0.7-1.7-1.4l0.3-2.4
	c3.1,0,6.6-2.1,8.2-5.1c0.6-1.8,2.2-3.6,1.4-5.7c0.5,0.1,0.3-0.5,0.7-0.7C337.7,274.4,339.5,274.3,339.4,275.3"/>
<path class="st1" d="M372.9,274.5c-0.5,3.5-3.8,6.5-7.1,7.4c-0.4,0-1-0.1-1-0.5c1.9-1.1,3.8-2.1,5.1-4.1c0.8-1.1,1.4-2.5,2.7-3.1
	L372.9,274.5"/>
<path class="st2" d="M335.4,275c0.9,1.7-1.4,1.2-2,2c-1.1,0.1-2.1-0.1-2.9-0.7c-0.3-0.4-0.5-0.9-0.4-1.4
	C332,274.5,333.9,277.3,335.4,275"/>
<path d="M449.5,274.6c-0.1,2.1-0.4,4.3-1,6.2c-0.1,0-0.2,0.1-0.2,0.1c-0.4-0.8,0-1.8,0.2-2.7l0.8-3.7L449.5,274.6"/>
<path class="st1" d="M403.4,327.6c0.4,0.4,0.9,0.8,1.1,1.1c0.4,0.5,1.1,0.5,1.5,0.1c0.6-0.4,0.9-0.8,1.7-0.6c-0.1,3-4,5-2.9,8.1
	c0.4,0.4,1.1,0.9,1.7,0.5l1.8-1.9c0.1,3.3-2.2,5.6-4.4,7.8c-1.1-4.9,1.3-9.8-1.4-14.6c0-0.4,0.1-0.8,0.2-1.1L403.4,327.6"/>
<path class="st2" d="M402.8,326.3c0.1-0.2,0.2-0.5,0.4-0.7l-0.1-0.1c0.7-3.5,5-4.6,3.8-8.6c-0.5-0.4-1.6-0.2-2.2-0.6
	c0.4-1,1-1.9,1.3-2.9c-0.6-1-1.6,0.1-2.4,0.2c-0.7,0.5-1.1,1.4-1.6,2.1c-0.4-3.2-1.7-7.1,0.9-9.6c-0.8-1-3.1,0.5-2.6-1.7
	c0-1.1,0.3-2.1,1.3-2.6c1.1-0.9-0.2-1.8-0.4-2.7c-0.7-2.3-0.9-4.2-0.8-6.9c1.1-0.1,2.1-0.8,2.7-1.7c-0.9-0.5-2.3-0.6-1.9-2.1l0-0.4
	c1.3-0.1,2.4-1.1,3.8-1.2c0.1-0.1,0.4-0.3,0.4-0.5c-0.4-0.5-1.9-0.5-1.1-1.5l1.5-3.4c1.1,0.7,1.4,2.7,3.1,2.5l0.5-0.4
	c0.6,1.9,0.5,4.2,0.7,6.3c0.1,0.1,0.3,0.1,0.5,0.2c0.6-0.5,0-1.4,0.1-2.1c0.3-2.2-1.2-4.2-0.2-6.1c0.2-1.6,0.6-3.4,0.6-5l0.5-0.5
	c0,4,1.7,7.7,0.2,11.8c0.2,1.8,2.3,3,1.8,4.9c0.3,0.3,0.7-0.1,0.8-0.3c1.3-2.4-3.5-3.7-1-6.1c0.1-2.2-0.4-4.4-0.5-6.4
	c2,2.3,1.4,5.6,4.1,7.5c0.1,0.6,0.8,0.8,0.8,1.5c-1.3,2.3,1.8,3.7,2.2,5.9c-0.6,1-2,0.1-2.3,1.3c-0.1,1.2,1.4,2.5,0.2,3.4
	c-0.7,0.3-1.6,0.4-2.3,0.4c-0.5,0.4-1.4-0.1-1.8,0.6c0.5,2.3,1.6,4.2,2.6,6.2c-0.3,1.2-0.7,2.1,0,3.2c-0.3-0.1-0.6,0.1-0.6,0.4
	c0,0.2,0.1,0.6-0.1,0.7c-0.2-0.4-0.7-0.9-1.2-0.6c-0.3,0.3,0.1,0.4-0.1,0.8c-0.4-0.4-0.7-1.2-1.6-1.1l-0.3,0.4
	c0.5,2.4,1.9,4.4,3.4,6.3c0.3,0.3,0.4,0,0.6-0.1c1.2,2.4-1.4,4.6-1.2,7.2c-0.8,0.8-0.9,1.4-0.6,2.6c-0.1,1.6,0.5,4.2-0.5,5.9h-0.1
	c-0.4-2-1.7-3.7-2.3-5.6c-0.2-0.1-0.4-0.4-0.6-0.3c-0.4,1.1-0.3,2.5-0.1,3.7c0.6,2,1.4,4,2.3,5.9c0.3,0.1,0.3-0.1,0.6-0.2
	c-0.1,0.4,0.1,1.4-0.1,2.3c-1.3-1.2-1.1-2.9-2.2-4.2c-0.4-0.1-0.5,0.1-0.8,0.4c-0.3,2.9,1.5,5.6,0.3,8.3c-0.8,1.3-2.5,1.1-3.4,2.2
	c-0.6-0.6-0.6-2.5-1.9-1.8l-0.1,0.1c-0.1-0.3,0.2-0.4,0.1-0.8l-0.2-0.2c1-1.4,2.2-2,2.4-3.5c1.2-1.3,1.3-3.3,1.6-5
	c-0.1-0.3-0.1-0.8-0.6-0.8l-2.5,2.8c-0.9-0.3-0.4-1.6-0.4-2.3c0.4-2.3,3.5-3.6,2.5-6.2c-1.1-0.5-2,0.4-2.8,0.9
	c-0.6-0.4-0.9-1-1.3-1.5L402.8,326.3"/>
<path d="M303.6,281.9c-0.1,0.2-0.4,0.3-0.6,0.3c-0.7-1.1-0.4-2.8-0.3-4l0.4-0.5C303.8,278.9,302.7,280.6,303.6,281.9"/>
<path class="st1" d="M367,278.8c-1.4,0.8-3,2.4-4.7,1.2l1.5-1.8C364.8,278.4,365.8,278.8,367,278.8"/>
<path d="M336.6,281.3c-0.3,2.1-0.1,3.9,0.4,5.8c-0.8-0.1-1.6,0.7-2.1,1.3c-0.3-0.9,1.1-1.4,1.6-1.9c-0.1-1.5-0.2-2.7-0.4-4
	c-0.5,0.2-0.6,0.6-0.9,1C335,282.8,336,281.8,336.6,281.3 M301.2,282.2l-0.6,3.4c-1.4-0.5,0.1-2.4,0.1-3.7
	C300.9,281.9,301,282.1,301.2,282.2 M449.9,283.4c-0.1,0.1-0.1,0.1-0.3,0.1c-0.5-0.7-0.1-1.7,0.1-2.4
	C450.5,281.5,449.9,282.8,449.9,283.4"/>
<path class="st1" d="M437.4,326.5c1.1,2.4,0,5.3-1.2,7.5c-0.5,0.6,0.3,0.7,0.6,1c2.5-0.2,2.4-3.2,4.3-4.3c1-0.1,1.5,0.7,2.2,1.1
	c1.5-1.9-1.2-3.3-1.2-5.2c-0.1,0.1-0.1,0.2-0.3,0.1c-0.5,0.4-1,1.6-2,1.3c-0.6-0.3-1.3-0.7-1.8-1.3L437.4,326.5"/>
<path class="st2" d="M437.3,325.7c0-0.2,0-0.3-0.2-0.4c3.1-0.4,3.4-4.1,5.1-6.2c0.1-0.5,0.5-1.1,0.1-1.6c-0.3-0.4-0.9-0.3-1.3-0.1
	c-0.4,0.3-0.6,1.3-1.3,0.9l-1.4-1.3c0.4-0.4,0.3-0.9,0.4-1.3c3-0.5,4.3-3.6,5.3-5.9c-1.2-1-2.3,1.6-2.9-0.4c-0.4-0.7-0.4-1.5-1-2.1
	c-1.3-0.6-2.7,1.8-3.1-0.3c3.5-1.3,6.6-3.4,9.1-6.6c0-0.6,0.5-1.2,0.1-1.8c-1.4-1.5-2.6,1.4-4,1.9c-1.5,0.6-2.7,1.9-4.2,2.6
	c0.3-1.9-0.3-3.9,1.9-5.2c0.1-0.5-0.3-0.9-0.6-0.9l-0.6,0c0.3-1.6,0-3.6,1.5-4.8c0.1-1.4-2.1-0.8-1.4-2.3c0.3-1.8,0.9-3.7,0.5-5.4
	c3.4,5.1,6.4,10.4,9.9,15.6c-0.1,0.3-1.3-1.3-1.6,0c-0.2,1.7,0.7,3.5,1.7,4.9c-0.6-0.3-1.3-1.3-2.1-1.3c-1.9,1-0.2,2.9,0,4.3
	c0.8,0.6,1,1.8,2,2.1c-0.1,0.9,0.3,1.9-0.2,2.6c-1.1-1.6-1.6-3.9-3.5-4.7c-0.5,1.4-0.1,3.2,0.2,4.7c0.5,1.5,1,3.2,2.1,4.4
	c-0.8,1.6-0.5,3.5-0.2,5.3c-1.6-1.7-2.2-3.9-3.4-5.8c-0.2-0.1-0.4,0.1-0.5,0.3l0.1,0.5l-0.6,0.3c-1.1,2.8,0.1,6,2.5,8
	c-0.1,1.2-0.5,2.8-1.1,4.1c-1.1-1.1-1-2.8-2.1-3.9c-1.1,0.1-1.3,1.4-2.2,1.6c-0.6-0.3-1.2-0.7-1.7-1.2L437.3,325.7"/>
<path d="M301.9,285.7c0,2.1,0.4,4.5,0.1,6.2c-0.3,0.3-0.6,0.1-0.6-0.2l0-5.9C301.5,285.9,301.6,285.7,301.9,285.7 M338.7,289.5
	l-0.1,0.1c-0.5-0.8-0.7-2.2-0.5-3.2C338.4,287.2,338.2,288.5,338.7,289.5 M416.5,290.6l-0.2,0.5c-1.2-0.5-1.4-1.9-1.8-3l0.2-0.5
	C415.5,288.4,415.6,289.8,416.5,290.6 M370.2,292l-0.3,0.4c0.9,0.6-0.1,1.7,0.2,2.4c-1,2.6,0,5.5-0.8,8.4h-0.5
	c0.5-3-0.2-6.7,0.9-9.8l-0.1-0.6l-0.6,0.8c-0.2-0.3-0.5-0.3-0.4-0.8l1.1-1.3C370.1,291.6,370,292,370.2,292 M336.9,294.1
	c0.2,2.3-0.1,5-1.2,7l-0.3,0c-0.1-0.7,0.6-1,0.8-1.6c0.1-2.2,0.9-4.5,0.2-6.5C336.7,293.2,336.7,293.8,336.9,294.1 M409.7,294.3
	c-0.4,3.3,0.3,6.6,0.5,10.1l-0.6,0c0-3.2-1.3-7.1-0.1-10.1H409.7 M301.9,295.1c-0.6,1.9-0.3,4-1.2,5.9c0.1,0.4,0.4,1.2-0.5,1.3
	l-0.2,0c0.7-2.3,0.5-5,1.6-7.2L301.9,295.1 M411.5,298.1c-0.5,3,0.6,5.4,0.5,8.3c-0.1-0.1-0.2,0.1-0.3,0.1l-0.2-0.2
	c-0.4-2.8-1.1-5.7-0.5-8.6c0.1-0.3,0.4-0.5,0.8-0.5C412.1,297.5,411.5,297.7,411.5,298.1"/>
<path class="st1" d="M445.5,300c-2.1,2.9-5.1,5.3-8.6,6.3c0.4-3.2,4-4.2,6.3-5.8l2.1-1.9C446,298.9,445.5,299.7,445.5,300"/>
<path d="M299.4,300.3c0.4,1.4-0.6,2.7-1.4,3.5c-0.1-0.6,0.6-1.5,0.8-2.4C298.8,300.9,298.8,300.3,299.4,300.3 M336.6,301.4
	c-0.1,0.8-0.6,1.6-1,2.3c-0.4-0.8,0.6-1.4,0.6-2.3H336.6 M336.7,302.4c0,1.1,0.1,2.6-0.5,3.5c0-1,0.2-2.3,0.3-3.5L336.7,302.4"/>
<path class="st1" d="M339.4,302.5c1.1,1.9,0.9,4.6,3.2,5.6c0.4,2.1-0.2,3.7-0.7,5.7c-0.5,0.1-0.6,0.7-0.3,1.1l0.2,0.2
	c-1.3,0.3-1.4-2.4-3.3-1.6c-0.1-3.9,0.7-7.1,0.7-11L339.4,302.5"/>
<path d="M372.7,303.2c-0.3,1.9-0.6,4,0.8,5.6c0.3,0.1,0,0.4-0.1,0.5c-0.7-0.3-1-1.2-1.4-1.9c-0.3-1.5-0.3-3.3,0.5-4.5L372.7,303.2
	 M365.1,303.5c-0.6,0.7-1.4,1.1-2.1,1.6c-0.4-0.6,0.3-0.7,0.6-1.1C364,303.7,364.6,303.4,365.1,303.5"/>
<path class="st1" d="M294.2,308.2c0.8-0.1,1.4-0.5,1.9-1.1c-0.2,1.4-1.8,2.9-0.6,4.1c1-0.1,2-0.6,2.7-1.3c0.1,1-0.1,2.5-0.3,3.7
	c-1.6,1-2.2,3-4.2,3.6c-0.2-4.2,0.3-7.9-0.9-12C293.5,306.1,293.2,307.5,294.2,308.2 M449.7,307.4c-0.3,0.5-0.5,1.2-0.4,1.8
	c-1-1.4-2.4-3-2.1-4.9C448.3,305.1,449.6,306.3,449.7,307.4"/>
<path d="M377.3,307l-0.2,0.4c-0.6-0.2-0.9-0.5-1.4-1l0.1-0.4C376.4,306.3,376.8,306.6,377.3,307 M409.5,308.9l0.6,0.1
	c-0.6,3.2,0.5,7.2-2,9.5h-0.3c1.7-2.8,1.5-6.2,1.6-9.3c-0.5,0.8-0.5,2.3-1.5,2.2c-0.1-0.6,0.5-1.1,0.6-1.8c0.6-1.3,0.3-2.7,1.1-3.6
	L409.5,308.9"/>
<path class="st1" d="M440.6,310c0.4,1.1,1.6,0.6,2.3,0.4c-0.8,2-2.2,4-4.4,4.6c-0.8-1.5-2.3-3.1-1.2-4.9c0.3-0.5,0.4-1.3,0.3-1.8
	c0.7-0.1,1.3-0.4,1.9-0.6L440.6,310"/>
<path d="M411.6,311.5l0,0.6c-0.9-0.5-0.6-1.7-0.9-2.7l0.1-0.7C411.3,309.4,411.5,310.5,411.6,311.5"/>
<path class="st1" d="M332.8,311.8c-0.7,0.4-1.6,0.2-2.3,0.6c-0.7-0.4,0.2-1.6-0.3-2.4c1.4-0.1,3,0.1,4.5-0.7
	C335.6,310.9,333.8,311.4,332.8,311.8"/>
<path d="M370.5,313.7c-0.2,1.7-0.8,3.2-1.7,4.5h-0.4c0-0.9,0.8-1.5,1-2.3c0.6-2.1,0.8-4.6,0.7-6.7
	C371.2,310.4,370.1,312.3,370.5,313.7"/>
<path class="st1" d="M448.7,313.4L448,316c-1.4-2-1.8-4.4-2-6.8C446.9,310.6,447.5,312.2,448.7,313.4 M416.7,313.3
	c0.5,1.1-0.8,2.4-0.3,3.5c-0.9-1.5-2.3-2.8-2.7-4.6c0.4,0.1,0.8,0.8,1.1,0.5c0.1-0.2,0.4-0.3,0.3-0.5c0.4,0.4,0.6-0.1,1-0.1
	C416.3,312.5,416.1,313.2,416.7,313.3"/>
<path class="st8" d="M464.4,312.8c0.3,0.5,0.4,1.1,0.9,1.5c1.1-0.9,1,1,1.8,1.2c1.4,2.1,2.5,4.4,3.2,6.8c-3.3-1.9-7.1-3.9-9.1-7.1
	c-0.4-0.8,0.3-1.8,1.1-2.1C462.9,313.1,463.5,312.4,464.4,312.8"/>
<path class="st1" d="M404.6,314.1c-0.1,1.1-1.8,2.3-0.5,3.2l1.9,0.1c0.6,2.3-1.2,3.8-2.7,5c-0.3,0-0.7,0.6-0.9,0
	c0.3-2.3-0.5-4.2-0.4-6.4C403.3,316.1,403.3,314.1,404.6,314.1 M335.2,314.7c-0.9,1.3-2.4,1.9-3.5,2.7c-0.4-0.3-1-0.3-1.3-0.8l0-1
	C331.9,315.7,333.9,315.5,335.2,314.7"/>
<path d="M410.5,315.9c-0.1,1.1,0.8,2.8-0.2,3.5c-0.4-1.2-0.3-2.1-0.2-3.5L410.5,315.9"/>
<path class="st1" d="M447.2,323.4c-0.1,0.6-0.3,1-0.6,1.4c-0.9-0.2-1.6-1.1-2.1-1.9c-1-2-0.8-3.2-0.7-5.4
	C444.2,319.7,446,321.5,447.2,323.4"/>
<path d="M336.7,318.3c-0.4,2.1,0.3,3.8-0.1,6h-0.2c0.1-1.1-0.2-1.6-0.3-2.7c-0.4,0.4-0.2,1.1-0.8,1.1c0.5-1.4,0.9-2.8,1.1-4.3H336.7
	"/>
<path class="st1" d="M440.6,318.9l0.9-1l0,0.8c-1.4,1.9-2,4.1-3.7,5.8h-0.4c2.2-2.1-0.8-4.4,0.7-6.8
	C439,318,439.4,319.6,440.6,318.9 M296.4,321.6l0.6-0.6c0.2,1.3,0.1,3.3-1.3,4.2c-0.3-0.1-0.6,0.3-0.9,0.4c0.4-1.8-0.3-4.2-0.4-6.3
	C295.4,319.9,294.6,322.9,296.4,321.6 M375.9,323.5c0.1,2.6,0,5.2-0.9,7.3c-0.5-1.8-1.6-3.3-2.1-5.1c0.8,0.1,1.2,0.3,1.7-0.4
	c-0.1-2.1-0.9-4-0.8-6.1C374.6,320.6,375,322.1,375.9,323.5 M302.6,322.4c-1.1,1.2-0.1,2.4-0.4,3.8c-0.8-1.4-1.6-2.8-1.8-4.4
	c0.4-0.1,0.6,0.3,0.9,0c0.5-0.4,0.5-1.2,0.5-1.7C302.4,320.7,302.7,321.6,302.6,322.4"/>
<path d="M369.6,319.8c0.1,0.6-0.1,1.5-0.5,2.1c-0.6-0.5,0-1.5,0.1-2.1H369.6"/>
<path class="st1" d="M341.3,328.5l-0.3,4.6H341c-0.8-2.6-2.7-5.3-2.1-7.8c0.8,0.8-0.1,2.6,1.3,3c1.2-0.6,0.7-1.8,1-2.7l-0.2-4.5
	C341.7,323.4,343.1,326.4,341.3,328.5"/>
<path d="M299.1,323.5c0.2,0.9,1,2,0.7,2.8c-0.8,0.2-0.5-1.7-1.3-1c0.4,0.3-0.1,0.5-0.1,0.8H298c0.1-1.2,0.2-2.8,0.8-3.8
	C299.3,322.5,299.1,322.8,299.1,323.5 M409.8,323.1c-0.2,2.5,0.5,4.5,0,6.7c-0.3,0.1-0.4-0.1-0.6-0.3c0.3-2.2,0-4.2,0.2-6.4H409.8"
	/>
<path class="st1" d="M332.9,328.1l0.4,0.3c0.8-0.7,1.7-1.7,2.6-2.1c-0.8,2.4-2.1,4.8-4,6.7l0-0.1l-1.1-0.1c0.6-3.1,0.5-5.9-0.4-8.9
	C331.6,325,332.9,326.3,332.9,328.1"/>
<path d="M369.7,326.2c-0.1,0.1-0.2,0.1-0.4,0.1c-0.4-0.5-0.3-1.3-0.2-1.8C369.9,324.8,369.4,325.7,369.7,326.2"/>
<path class="st1" d="M295.8,329.4h1.2c-0.6,1.8-0.6,3.8,0.5,5.2c0.1-0.1,0.4-0.1,0.6-0.1c-0.8,1.3-0.7,2.5-0.6,4
	c2.3,0.4,0.3,3,0.8,4.6c-1.9-2-0.7-5-2.4-7.1c-0.6-1.7,1.3-4.2-0.8-5.6c0-0.8-0.6-1.3,0-2C295.3,328.7,295.4,329.1,295.8,329.4
	 M413.6,335.7c-0.7-2.1-1.8-4-2.1-6.4C412.4,331.4,413.4,333.5,413.6,335.7 M300.9,337.8c-0.3-1-0.4-2.6-0.9-3.8
	c0-1-0.7-2.1-0.3-3.3C301.5,332.4,301.8,335.5,300.9,337.8"/>
<path d="M369.7,334c0.4,2.1-1.4,3.9-2.1,5.2l-0.5-0.1c0.3-1,1.3-1.7,1.8-2.6c0.4-1.6,0.3-3.7,0.1-5.2
	C369.8,331.7,369.5,333.1,369.7,334"/>
<path class="st2" d="M442.4,336.8c-0.2,2.6-3.8,3.8-3,6.5l-2.3-0.2c-1.2-1.6-0.2-4.1-0.7-6l-0.6-1.6c1,1,1.9-0.4,3-0.3
	c2-0.6,1.6-5.9,4.2-2.7L442.4,336.8"/>
<path d="M335.2,338.2c-0.6-0.7,0.5-1.1,0.6-1.8c0.1-0.8,0.1-1.8,0.5-2.6C336.6,335.4,336.3,337.1,335.2,338.2"/>
<path class="st2" d="M300.3,339.1l-0.8,1.1c-0.3-0.7,0.6-2-0.8-2.3l-0.1,0.1c-0.2-0.4-0.2-1.3,0-1.9c0.1-0.8,0.4-1.1,0.6-1.9
	C299.9,335.8,299.4,337.5,300.3,339.1"/>
<path class="st1" d="M366.8,335.9c-1.7,1.6-2.9,3.8-5.2,4.3c-0.6-1.3,0-2.7,0-4.1l0.8-1.1C363.8,336.2,365.2,335.3,366.8,335.9
	 M413,338.9h0.3c-0.7,3-1.1,5.7-2,8.7c0.3-1.4-1.8-3.5,0.4-4.3c0.7-2.2,0.1-3.9,0-6.2C412,337.7,412.3,338.9,413,338.9 M365,345.8
	c-1.1,0.3-2,0.9-3,1.3c-1.1-1.1-0.1-2.7,0-4.1c0.5,0.3,0.8,0.9,1.5,1.2c1.2-0.1,2.3-0.9,3.5-1.2l0.1-0.2
	C367,343.7,366.2,345.2,365,345.8 M439,343.8l-0.1,0.1l0.6,0.1c0.1,1.1-0.3,2.1-1.1,2.7c-1.4,0.5-0.8-1.1-1.3-1.7l0.1-1.4
	C437.9,343.8,438.4,344.1,439,343.8 M332.9,344.5c1,2.8,0.1,5.6,1.9,7.9c0.6,0.3,0.8-0.4,1.1-0.8c0.6-1.4,1-3,1.4-4.3
	c0.5,2.5-0.9,4.8-1.2,7.3c-0.4,0.8-0.6,1.9-1.5,2.3c-2.6-3.3-2-7.5-2.6-11.6C332.4,345.2,332.3,344.5,332.9,344.5 M406.5,345.4
	c0.1,0.2,0.5,0.4,0.6,0.3l-0.1,0.1c1,0.6,1.4-0.9,2.3-0.9c0.2,2.6-1.5,4.8-3.1,6.9h-0.6c-0.4-2.1-0.4-4.9-0.4-7.2l0.8-0.4
	C406.1,344.4,406.4,345.1,406.5,345.4"/>
<path class="st2" d="M411.1,348.5c0.2,2.4-0.2,5.2-1.4,7.4c-1.1-0.5-1.8,0.9-3,0.9c-0.4-0.8,0.3-2.3-1-2.5c0.1-1.5,1.3-2.3,2.2-3.6
	c1.1-1.3,2-3.1,1.9-4.9C410.5,346.6,410.3,347.9,411.1,348.5"/>
<path class="st1" d="M363.3,354.4c0.4,2.2,1.4,4.6,0.9,6.7c-1.2,0.2-1.3-0.7-1.4-1.6c-0.6-1.9-1.7-3.7-1.1-6
	C362.5,353.1,362.8,354.1,363.3,354.4 M406.8,357.9c0.3-0.4,0.6-0.4,0.9-0.6l-0.1-0.1c0.7,0.5,0.9-0.7,1.6-0.6
	c-1.9,2.1-0.2,6.4-3.4,7.3c-0.2-2.8-0.3-6.1,0.1-8.9C406.3,355.9,405.2,357.6,406.8,357.9 M369.4,358.8l0.4-0.4
	c-2.3,3.3-1.2,7.7-2.9,11.3c-0.4,2.2-1.6,4.1-2.4,6.2c-0.3-0.9-0.3-2.4-0.7-3.5c-0.4-2.5-1.8-5.1-1.3-8c0.3-0.3,0.6-0.6,0.8-0.9
	c0.4,0.4,0.4,1.2,0.5,1.8c-0.1,1.6,0.2,2.9,0.8,4.1c0.6-0.2,1.2-0.9,1.4-1.4c1-3,2.4-6.9,0.6-10.2l0-1.3
	C367.7,357.1,367.9,359,369.4,358.8"/>
<path class="st1" d="M325,89c-0.5,0.5-1.3,0.7-1.8,1.4c0.1,0.9,0.1,1.8,0,2.8l1,0c0.4-0.5,1-0.7,1.5-1.3c0-1,0-2.1-0.1-3.1L325,89
	c0.1-0.1,0.2-0.3,0.3-0.4"/>
<path class="st9" d="M217.7,393.2c3,0,5.3,0.1,7,0.3c1.7,0.2,3.2,0.6,4.4,1.1c4,1.8,6.5,4.9,7.5,9.5c0.4,1.9,0.6,5.6,0.6,11.2
	c0,4.7-0.1,7.9-0.4,9.6c-0.8,4.9-3.2,8.3-7,10.1c-1.5,0.7-3.3,1.2-5.3,1.5c-2.1,0.3-4.8,0.4-8.1,0.4c-3.3,0-6-0.2-7.9-0.5
	c-1.9-0.4-3.6-1-5-1.8c-3.2-2-5.2-5-6-8.9c-0.3-1.7-0.5-4.4-0.5-8.3c0-7.2,0.4-12.2,1.1-15c1.1-3.8,3.8-6.4,8.3-8
	C208.6,393.6,212.3,393.2,217.7,393.2 M217.3,403.1c-2.7,0-4.6,0.2-5.5,0.6c-1.3,0.5-2.1,1.5-2.5,2.9s-0.5,4.5-0.5,9.1
	c0,4.4,0.3,7.3,0.8,8.7c0.4,1,1.1,1.7,2.2,2.1c1.1,0.4,2.9,0.5,5.5,0.5c2.4,0,4-0.2,5-0.6c1-0.4,1.7-1.2,2.2-2.5
	c0.6-1.4,0.9-4.5,0.9-9.3c0-3-0.1-5-0.2-6.1c-0.1-1.1-0.3-2-0.6-2.8c-0.4-1-1.1-1.7-2.1-2.1C221.4,403.3,219.7,403.1,217.3,403.1
	 M254.2,393.5v16.3h3.5l11.1-16.3h13.9l-15.2,21.2l16.5,22h-14.2l-12-17h-3.6v17h-11.6v-43.2L254.2,393.5 M298.7,393.5v33.2h18.1
	v9.9h-29.7v-43.2L298.7,393.5 M346.5,429.2H331l-2.1,7.4h-12l13-43.2h17.5l13.1,43.2h-11.8L346.5,429.2 M344.2,420.8l-5.4-18.7
	l-5.3,18.7H344.2 M401.8,393.5v43.2h-11.6v-17h-15v17h-11.6v-43.2h11.6v16.2h15v-16.2L401.8,393.5 M428.1,393.2c3,0,5.3,0.1,7,0.3
	c1.7,0.2,3.2,0.6,4.4,1.1c4,1.8,6.5,4.9,7.5,9.5c0.4,1.9,0.6,5.6,0.6,11.2c0,4.7-0.1,7.9-0.4,9.6c-0.8,4.9-3.2,8.3-7,10.1
	c-1.5,0.7-3.3,1.2-5.3,1.5c-2.1,0.3-4.8,0.4-8.1,0.4c-3.3,0-6-0.2-7.9-0.5c-1.9-0.4-3.6-1-5-1.8c-3.2-2-5.2-5-6-8.9
	c-0.3-1.7-0.5-4.4-0.5-8.3c0-7.2,0.4-12.2,1.1-15c1.1-3.8,3.8-6.4,8.3-8C419,393.6,422.8,393.2,428.1,393.2 M427.8,403.1
	c-2.7,0-4.6,0.2-5.5,0.6c-1.3,0.5-2.1,1.5-2.5,2.9c-0.4,1.4-0.5,4.5-0.5,9.1c0,4.4,0.3,7.3,0.8,8.7c0.4,1,1.1,1.7,2.2,2.1
	c1.1,0.4,2.9,0.5,5.5,0.5c2.4,0,4-0.2,5-0.6c1-0.4,1.7-1.2,2.2-2.5c0.6-1.4,0.9-4.5,0.9-9.3c0-3-0.1-5-0.2-6.1
	c-0.1-1.1-0.3-2-0.6-2.8c-0.4-1-1.1-1.7-2.1-2.1C431.8,403.3,430.1,403.1,427.8,403.1 M506.4,393.5v43.2H495v-12.9
	c0-3.2,0.2-8.2,0.6-15.1l0.3-5h-0.4l-1.5,4.9l-1.5,4.9l-3.3,9.8l-4.5,13.4h-10l-4.6-13.4c-2.2-6.5-4.3-13.1-6.4-19.6h-0.4l0.3,5
	c0.4,7.2,0.6,12.2,0.7,15.1v12.9H453v-43.2H471l4,12.4c1.2,3.6,2.6,8.5,4.4,14.8h0.4l1-3.7c1-3.8,2.1-7.5,3.1-11l3.9-12.4
	L506.4,393.5 M539.1,429.2h-15.5l-2.1,7.4h-12l13-43.2H540l13.1,43.2h-11.8L539.1,429.2 M536.8,420.8l-5.4-18.7l-5.3,18.7H536.8"/>
</svg>
