<?xml version="1.0" encoding="utf-8"?>
<!-- Generator: Adobe Illustrator 27.0.1, SVG Export Plug-In . SVG Version: 6.00 Build 0)  -->
<svg version="1.1" id="Layer_1" xmlns="http://www.w3.org/2000/svg" xmlns:xlink="http://www.w3.org/1999/xlink" x="0px" y="0px"
	 viewBox="0 0 750 500" style="enable-background:new 0 0 750 500;" xml:space="preserve">
<style type="text/css">
	.st0{clip-path:url(#SVGID_00000155863890252217867430000008136559563587300487_);}
	.st1{fill:#FFFFFF;stroke:#C1133D;stroke-width:80;stroke-miterlimit:80;}
	.st2{fill:#FFFFFF;stroke:#C1133D;stroke-width:40;stroke-miterlimit:80;}
	.st3{fill:#001C5A;}
	.st4{fill:#FFFFFF;}
	.st5{fill:#C1133D;}
</style>
<g>
	<defs>
		<polygon id="SVGID_1_" points="0,480.8 0,19.2 750,105.8 576.9,250 750,394.2 		"/>
	</defs>
	<clipPath id="SVGID_00000023245598241758197540000004590876558374373274_">
		<use xlink:href="#SVGID_1_"  style="overflow:visible;"/>
	</clipPath>
	<g style="clip-path:url(#SVGID_00000023245598241758197540000004590876558374373274_);">
		<path class="st1" d="M750,105.8L0,19.2v461.5l750-86.5"/>
		<path class="st2" d="M0,250h750"/>
	</g>
</g>
<path class="st3" d="M0,19.2v461.5L461.5,250L0,19.2z"/>
<path class="st4" d="M229.2,250c0,47.8-38.7,86.5-86.5,86.5S56.1,297.8,56.1,250s38.7-86.5,86.5-86.5S229.2,202.2,229.2,250z
	 M25.8,127.2l5.2,12l2.9-12.8l13-1.2l-11.3-6.7l2.9-12.8l-9.8,8.7l-11.3-6.7l5.2,12l-9.8,8.7L25.8,127.2z M40.4,188.3l-12.9-2.5
	l8.9,9.6L30,206.9l11.9-5.5l8.9,9.6l-1.6-13l11.9-5.5l-12.9-2.5l-1.6-13L40.4,188.3z M23.3,267.1l7.7-10.6l12.5,4L35.7,250l7.7-10.6
	l-12.5,4l-7.7-10.6V246l-12.5,4l12.5,4V267.1z M83.3,146.3l-10-8.5l3.1,12.7l-11.1,6.9l13.1,1l3.1,12.7l5-12.1l13.1,1l-10-8.5
	l5-12.1L83.3,146.3z M127.6,151.4l10.2-8.2l10.9,7.2l-4.6-12.3l10.2-8.2l-13.1,0.6l-4.6-12.3l-3.5,12.6l-13.1,0.6l10.9,7.2
	L127.6,151.4z M72.9,95.5l0.9,13.1l6.9-11.1l12.7,3.2l-8.4-10L92,79.5l-12.1,4.9l-8.4-10l0.9,13.1l-12.1,4.9L72.9,95.5z
	 M190.4,154.4l6,11.6l2-13l12.9-2.1l-11.7-5.9l2-13l-9.2,9.3l-11.7-5.9l6,11.6l-9.2,9.3L190.4,154.4z M49.3,302.1l1.6-13l-8.9,9.6
	L30,293.1l6.4,11.4l-8.9,9.6l12.9-2.5l6.4,11.4l1.6-13l12.9-2.5L49.3,302.1z M33.9,373.5L31,360.7l-5.2,12l-13-1.2l9.8,8.7l-5.2,12
	l11.3-6.7l9.8,8.7l-2.9-12.8l11.3-6.7L33.9,373.5z M262,232.9l-7.7,10.6l-12.5-4l7.7,10.6l-7.7,10.6l12.5-4l7.7,10.6V254l12.5-4
	l-12.5-4V232.9z M320,262.8l-9.4,9.2l-11.6-6.1l5.8,11.7l-9.4,9.2l13-1.9l5.8,11.7l2.2-12.9l13-1.9l-11.6-6.1L320,262.8z
	 M314.3,203.4l-5.8,11.7l-13-1.9l9.4,9.2l-5.8,11.7l11.6-6.1l9.4,9.2l-2.2-12.9l11.6-6.1l-13-1.9L314.3,203.4z M377.4,246v-13.1
	l-7.7,10.6l-12.5-4l7.7,10.6l-7.7,10.6l12.5-4l7.7,10.6V254l12.5-4L377.4,246z M198.4,346.9l-2-13l-6,11.6l-12.9-2.1l9.2,9.3
	l-6,11.6l11.7-5.9l9.2,9.3l-2-13l11.7-5.9L198.4,346.9z M86.4,340.9l-5-12.1l-3.1,12.7l-13.1,1l11.1,6.9l-3.1,12.7l10-8.5l11.1,6.9
	l-5-12.1l10-8.5L86.4,340.9z M80.8,402.5l-6.9-11.1l-0.9,13.1l-12.7,3.2l12.1,4.9l-0.9,13.1l8.4-10l12.1,4.9l-6.9-11.1l8.4-10
	L80.8,402.5z M148.8,349.6l-10.9,7.2l-10.2-8.2l3.5,12.6l-10.9,7.2l13.1,0.6l3.5,12.6l4.6-12.3l13.1,0.6l-10.2-8.2L148.8,349.6z"/>
<circle class="st5" cx="142.6" cy="250" r="57.7"/>
</svg>
