<?xml version="1.0" encoding="utf-8"?>
<!-- Generator: Adobe Illustrator 27.0.1, SVG Export Plug-In . SVG Version: 6.00 Build 0)  -->
<svg version="1.1" id="Layer_1" xmlns="http://www.w3.org/2000/svg" xmlns:xlink="http://www.w3.org/1999/xlink" x="0px" y="0px"
	 viewBox="0 0 750 500" style="enable-background:new 0 0 750 500;" xml:space="preserve">
<style type="text/css">
	.st0{fill:#FFFFFF;}
	.st1{fill:#FEC500;stroke:#FEC500;stroke-width:1.5;}
	.st2{fill:#FEC500;stroke:#FFFFFF;stroke-width:1.5;}
	.st3{fill-rule:evenodd;clip-rule:evenodd;fill:#FEC500;stroke:#FFFFFF;stroke-width:1.5;}
	.st4{fill:#003271;stroke:#FFFFFF;stroke-linejoin:round;}
	.st5{fill:#FEC500;}
</style>
<path class="st0" d="M0,0h750v500H0V0z"/>
<path class="st1" d="M371.4,159.9c0,0-0.9,101.9-0.9,109.3c0,7.4,0,17.6-8.2,15.8c-8.2-1.9-18.2-1.9-32.7-12
	c-14.5-10.2-14.5-12-14.5-12l13.6-4.6c0,0-13.6-2.8-22.7-9.3c-9.1-6.5-16.4-12.1-16.4-12.1s-0.9,13.9,3.6,24.1
	c4.6,10.2,13.6,19.5,13.6,19.5v-12c0,0,12.7,12,17.3,14.8c4.5,2.8,22.7,10.2,30,14.8c7.3,4.6,20.6,17.6,20.6,17.6s14-14.8,23-18.5
	c9.1-3.7,20.9-9.3,26.4-13c5.5-3.7,20-17.6,20-17.6v15.8c0,0,10-12,12.7-20.4c2.7-8.3,3.6-23.2,3.6-23.2s-7.3,5.6-13.6,8.3
	c-6.4,2.8-24.6,10.2-24.6,10.2l14.5,3.7c0,0-23.6,18.5-31.8,22.2c-14.9,7.2-25.5,5.6-25.5-3.7c0-9.3,0.9-117.7,0.9-117.7
	L371.4,159.9z M372.3,125.6h6.4v27.8h-6.4V125.6z"/>
<path class="st2" d="M326.8,153.4c0,0,25.5-5.6,49.1-5.6s48.2,5.6,48.2,5.6v10.2c0,0-32.7,4.6-51.8,4.6c-19.1,0-45.5-5.6-45.5-5.6
	L326.8,153.4z"/>
<path class="st3" d="M390.4,148.3c0-4.2-1.6-8-4.3-10.8c-1.3-1.4-2.9-2.5-4.6-3.3c-0.9-0.4-0.7-0.5-1.7-0.7l0,5.3
	c1.1,0.6,1.4,1.1,2.3,2.1c1.7,2,2.8,4.8,2.8,7.9c0,6.1-4.3,10.1-9.5,10.1s-9.5-4-9.5-10.1c0-3.1,1.1-5.8,2.8-7.9
	c0.9-1,1.1-1.6,2.3-2.1l0-5.3c-0.9,0.2-0.8,0.4-1.7,0.7c-1.7,0.8-3.3,1.9-4.6,3.3c-2.6,2.8-4.3,6.6-4.3,10.8c0,8.4,6.9,15.3,15,15.3
	S390.4,156.8,390.4,148.3L390.4,148.3z"/>
<path class="st4" d="M290.8,326.2c0,0,12.1,11,23.9,12.6c11.8,1.6,30.4,7.1,30.4,7.1s0.5,17-0.1,18.5c-0.6,1.5-0.9,1.9-2.6,1.9
	c-5.5,0.2-18.9,0.2-33.5-3.2c-19.1-4.4-37.8-15.9-37.8-15.9c4.4-1.8,14.9-3.4,21.7-5.1L290.8,326.2z M459.2,326.2
	c0,0-12.1,11-23.9,12.6c-11.8,1.6-30.4,7.1-30.4,7.1s-0.5,17,0.1,18.5c0.6,1.5,0.9,1.9,2.6,1.9c5.5,0.2,18.9,0.2,33.5-3.2
	c19.1-4.4,37.8-15.9,37.8-15.9c-4.4-1.8-14.9-3.4-21.7-5.1L459.2,326.2z"/>
<path class="st4" d="M329.5,351.7c-2.1-0.7-3.3,0.7-3.3,0.7V323c0,0,1.3-1.2,3.5-0.2c7.8,3.4,28.1,10.4,45.3,10.4
	s37.4-6.9,45.3-10.4c2.2-1,3.5,0.2,3.5,0.2v29.5c0,0-1.2-1.4-3.3-0.7c-8.4,2.6-30.2,9.1-45.5,9.1
	C359.8,360.8,337.9,354.3,329.5,351.7L329.5,351.7z"/>
<path class="st4" d="M423.8,352.4c1.3,3.4-19.1,6.6-18.9,12 M326.2,352.4c-1.3,3.4,19.1,6.6,18.9,12"/>
<g>
	<polygon class="st5" points="387.5,77.3 407.8,62.6 382.7,62.6 375,38.8 367.3,62.6 342.2,62.6 362.5,77.3 354.7,101.2 375,86.5 
		395.3,101.2 	"/>
	<polygon class="st5" points="451,105.2 462.1,127.6 466.3,102.9 491.1,99.3 468.9,87.7 473.1,63 455.2,80.5 433,68.8 444.1,91.3 
		426.2,108.8 	"/>
	<polygon class="st5" points="509.6,157.1 509,182.1 524.2,162.2 547.8,170.5 533.6,149.9 548.8,130 524.8,137.2 510.6,116.6 
		510,141.6 486,148.8 	"/>
	<polygon class="st5" points="520.3,211.9 537.4,230.3 525.2,252.2 547.9,241.6 565,260 561.9,235.1 584.7,224.6 560.1,219.7 
		557.1,194.9 544.9,216.8 	"/>
	<polygon class="st5" points="561.8,285.8 540.9,299.5 521.3,283.8 527.9,308 507,321.7 532,322.9 538.6,347.1 547.5,323.7 
		572.5,324.9 552.9,309.2 	"/>
	<polygon class="st5" points="498.9,370.9 488.9,348 483.5,372.4 458.5,374.8 480.1,387.5 474.7,412 493.5,395.4 515.1,408.1 
		505.1,385.1 523.8,368.5 	"/>
	<polygon class="st5" points="430.3,389.6 414.2,408.8 390.9,399.4 404.2,420.6 388,439.8 412.3,433.8 425.6,455.1 427.4,430.1 
		451.7,424.1 428.5,414.6 	"/>
	<polygon class="st5" points="283.7,102.9 287.9,127.6 299,105.2 323.8,108.8 305.9,91.3 317,68.8 294.8,80.5 276.9,63 281.1,87.7 
		258.9,99.3 	"/>
	<polygon class="st5" points="202.2,170.5 225.8,162.2 241,182.1 240.4,157.1 264,148.8 240,141.6 239.4,116.6 225.2,137.2 
		201.2,130 216.4,149.9 	"/>
	<polygon class="st5" points="185,260 202.1,241.6 224.8,252.2 212.6,230.3 229.7,211.9 205.1,216.8 192.9,194.9 189.9,219.7 
		165.3,224.6 188.1,235.1 	"/>
	<polygon class="st5" points="222.1,308 228.7,283.8 209.1,299.5 188.2,285.8 197.1,309.2 177.5,324.9 202.5,323.7 211.4,347.1 
		218,322.9 243,321.7 	"/>
	<polygon class="st5" points="266.5,372.4 261.1,348 251.1,370.9 226.2,368.5 244.9,385.1 234.9,408.1 256.5,395.4 275.3,412 
		269.9,387.5 291.5,374.8 	"/>
	<polygon class="st5" points="359.1,399.4 335.8,408.8 319.7,389.6 321.5,414.6 298.3,424.1 322.6,430.1 324.4,455.1 337.7,433.8 
		362,439.8 345.8,420.6 	"/>
</g>
<path class="st5" d="M403.7,332.1c4.9-1.3,9.7-2.8,14.5-4.3c0.1,1.5,0.1,3,0.2,4.5c-3,0.9-6.1,1.9-9.1,2.8c0,1.1,0,2.2,0,3.3
	c2.8-0.8,5.7-1.7,8.5-2.5c0,1.4,0,2.9,0,4.3c-2.9,0.8-5.7,1.7-8.5,2.5c0,1.4,0,2.7,0,4.1c3.1-0.9,6.3-1.8,9.5-2.6
	c0,1.6-0.1,3.2-0.2,4.8c-5,1.3-9.9,2.7-14.8,4C403.7,345.9,403.7,339,403.7,332.1L403.7,332.1z M381.3,336.5
	c3.1-0.3,6.2-0.8,9.3-1.3c2-0.4,3.5-0.2,4.5,0.7c0.4,0.3,0.6,0.7,0.9,1.2c0.4,0.8,0.6,1.9,0.6,3.2c0,1.3-0.2,2.4-0.6,3.5
	c-0.3,0.6-0.6,1.2-1,1.8c-1.1,1.4-2.7,2.4-4.9,2.7c-1,0.2-2,0.3-3,0.5c0,2.5,0,5.1-0.1,7.7c-1.9,0.3-3.7,0.5-5.6,0.6
	C381.3,350.2,381.3,343.3,381.3,336.5L381.3,336.5z M386.9,344.6c0.5-0.1,0.9-0.1,1.4-0.2c1.1-0.2,1.8-0.5,2.2-1
	c0.4-0.5,0.6-1.1,0.6-1.8c0-0.6-0.2-1.2-0.6-1.5c-0.4-0.4-1.1-0.5-2.1-0.3c-0.5,0.1-1.1,0.2-1.6,0.3
	C386.9,341.5,386.9,343,386.9,344.6L386.9,344.6z M355.1,344.7c0-3.4,0.8-5.8,2.4-7.3c1.6-1.5,3.9-2,6.9-1.6c3,0.4,5.3,1.5,7,3.4
	c1.6,1.9,2.5,4.5,2.5,7.7c0,2.4-0.4,4.3-1.1,5.9c-0.7,1.5-1.8,2.6-3.1,3.4c-1.3,0.7-3,1-5,0.8c-2-0.3-3.7-0.9-5-1.9
	c-1.3-1-2.4-2.3-3.2-4.1C355.5,349.2,355.1,347.1,355.1,344.7L355.1,344.7z M360.6,345.8c0,2.1,0.4,3.6,1,4.6c0.7,1,1.6,1.6,2.8,1.8
	c1.2,0.2,2.1-0.2,2.8-1c0.7-0.8,1-2.4,1-4.7c0-1.9-0.4-3.4-1-4.3c-0.7-1-1.6-1.5-2.8-1.7c-1.1-0.2-2,0.2-2.7,1
	C360.9,342.3,360.6,343.7,360.6,345.8L360.6,345.8z M331.1,327.4c1.8,0.6,3.5,1.2,5.3,1.8c-0.1,2.4-0.1,4.8-0.1,7.2
	c2,0.6,4,1.2,6,1.8c0-2.4,0-4.8,0-7.2c1.8,0.5,3.6,1,5.5,1.5c0,6.8,0,13.7,0.1,20.6c-1.8-0.5-3.7-1-5.5-1.5c0-2.8-0.1-5.6-0.1-8.4
	c-2-0.6-4-1.2-6-1.8c0,2.8,0.1,5.6,0.1,8.5c-1.8-0.5-3.6-1.1-5.4-1.6C330.8,341.3,330.8,334.3,331.1,327.4L331.1,327.4z"/>
</svg>
