<?xml version="1.0" encoding="utf-8"?>
<!-- Generator: Adobe Illustrator 27.0.1, SVG Export Plug-In . SVG Version: 6.00 Build 0)  -->
<svg version="1.1" id="Layer_1" xmlns="http://www.w3.org/2000/svg" xmlns:xlink="http://www.w3.org/1999/xlink" x="0px" y="0px"
	 viewBox="0 0 750 500" style="enable-background:new 0 0 750 500;" xml:space="preserve">
<style type="text/css">
	.st0{fill:#041E42;}
	.st1{fill-rule:evenodd;clip-rule:evenodd;fill:#FFFFFF;}
</style>
<rect class="st0" width="750" height="500"/>
<path class="st1" d="M41.5,93.3c-21.1,70.4,63.8,127.3,121.7,76.3c60.7-63.7-7-149.8-77.4-122.3c51.3-8.8,81.9,50.5,47.4,87.5
	C99.9,168.8,39.1,146.4,41.5,93.3z M412.3,84.5c-2.7,1.3-4.7,4.9-5.8,7.8c-2.7,8-5.5,16-8.2,24c-1.4,3.6-2.8,7.3-4.2,10.8
	c-2.6-0.4,1-4.8,0.8-6.7c0.9-3.9,2.8-7.8,2.9-11.8c-0.7-3,0.1-6.9-1.4-9.3c-2.2,5.1-5,10-6.9,15.3c-1.4,6.3-3.4,12.5-4.2,18.9
	c-0.5,3.3-1.1,6.6-2.1,9.8c-2.7-0.2-2-4.9-3.5-6.9c-1.4-4.5-4.3-8.4-6.3-12.7c-1.1-1-3.5-8.4-3.4-4.3c-0.2,3-0.4,5.9-0.7,8.9
	c-5.9-11-11.8-22.1-17.8-33.1c0.5,3.6,0,7.5,1.3,10.8c2.9,6.2,5.5,12.5,8.2,18.7c-1.4,1.4-1.7-0.9-2.5-1.8
	c-5.5-9.7-10.9-19.3-16.4-29c-2.2,1.6-0.7,4.4-1,6.6c0.9,3.1,3,5.9,4.4,8.9c2.6,4.8,5.2,9.7,7.9,14.5c-1.9,2.1-2.9-3.8-4.3-5.2
	c-4.9-8.6-9.8-17.2-14.9-25.7c-2.2,0.8-2.9,2.4-2.5,4.6c-0.4,2.2,0.5,4,1.8,5.7c3.8,6.6,7.7,13.2,11.5,19.8
	c-1.3,1.5-1.7-0.7-2.5-1.6c-6.2-9.8-12.4-19.6-18.6-29.5c-1.5-0.7-3.6-2.5-3.2,0.5c-0.7,3.8,3.4,6.4,4.7,9.7
	c5.5,8.5,11.2,17.1,16.7,25.6c-1.2,1.6-1.7-0.4-2.4-1.3c-3.5-4.9-7-9.9-10.5-14.8c-1.3-0.3-3-1.2-2.5,0.9c-0.1,1.3-0.4,2.8,0.7,3.8
	c5.6,8.4,11.3,16.7,16.8,25.1c1.8,3.7,3.4,7.4,5.3,11c3.2,3.3,6.4,6.6,9.6,9.8c-2.3,1.8-4.6-4-6.9-5.1c-2.4-2.7-5.7-4.9-7-8.4
	c-1.7-2.6-2.6-5.7-5.2-7.6c-2.8-2.1-5-6-8.3-6.9c-1.1,2.3-0.2,7.6,3,9.4c0.3,0.9,4.8,3.9,2.3,3.3c-4.8-0.5-9.3-2.2-13.8-3.9
	c-2.7,2.6,6.5,4.7,1.3,5.8c-3.7,0.1-6.6-3.3-10-4.6c-8.5-4.7-17.2-8.9-25.9-13.2c-1.8-0.5-3.6-1.1-5.4-1.6c-0.5,3.1,4.4,4,6.1,6.3
	c6.6,3.6,13.4,6.9,20,10.5c-0.2,2-2,0.5-3.2,0.3c-12.4-4-24.8-8-37.1-12c-2.1-0.5-1.7,0.6-0.9,2c0.2,1.6,1.8,1.7,3.1,2.2
	c9.7,3.3,19.4,6.5,29.1,9.8c0.4,1.5,0.7,3.1,1,4.6c-2.2-1.8-4.4-3.9-7.4-4.1c-6.3-1.6-12.8-0.2-19.3-0.2c-3.4-0.8-3.9,1.9-0.5,2.5
	c2.7,2.1,6.3,0.9,9.5,1.1c5.2-0.2,10.4-0.3,15.5-0.5c0.9,3-5.1,1-5.3,3.4c-0.6,2.8,4.8,2.8,6.7,2.3c3,0,5-4.3,7.5-3.6
	c-0.7,2.8-5.6,3.4-6.2,6.4c-0.4,2.9,5.6,2.1,7.3,0.8c2-1.7,5.4-4.1,5.6,0.3c0.6,4,5.9,2.4,8.7,3.8c5.1,0.8,10.4,1.1,15.4,1.9
	c4.9,2.2,9.7,4.4,14.6,6.6c-1,2.7-5.3-1.4-7.5-1.3c-3.7-1-7-3.1-10.9-3.1c-3.4-0.6-6.8-0.5-10.1-0.2c-10.2,0.9-20.5,1.5-30.7,2.5
	c-9.5,1.6-19.1,3.1-28.6,4.7c-2.4,0.8-7.7,2.2-2.6,3.1c10.8-0.5,21.6-1.4,32.4-2.2c0.8,1.9-1.5,1.2-2.7,1.5
	c-9,0.9-17.9,1.8-26.9,2.7c-2.8,2-6.4,3.2-8,6.5c0.4,4.8,6.4,0.4,9.3,0.7c7.8-1.3,15.5-2.5,23-4.9c2.2,0.2,7.8-3.8,8.1-0.9
	c-8.5,2.6-16.9,5.3-25.5,7.6c-1.8,0.4-3.6,0.8-5.5,1.3c-0.5,4.4,6.1,1.8,8.8,2.5c5.9-1.4,11.6-3.8,17.4-5.4
	c3.1-0.3,7.9-3.9,10.1-2.4c-2,2.1-6.7,3.1-9.6,4.8c-6,2.6-12.1,5.1-18,8c-3.9,3.9,4.1,3.6,6.1,1.5c6.3-2.9,12.5-5.9,18.6-9
	c1.5,1.3-0.7,1.9-1.5,2.7c-3.5,2.7-6.9,5.6-10.8,7.7c-1.5,1.2-4,1.6-4.3,3.9c3.4,1.9,6.7-0.4,9.8-1.9c8-5.2,16.2-10.3,24.3-15.2
	c3.5-1.6,7.2-3,10.8-4.4c1.4,1.4-0.9,1.8-1.7,2.6c-3.9,2.6-7.9,5.3-11.8,7.9c-4.3,4.4-8.2,9.3-13.3,13c-2.4,2-4.8,3.8-6.7,6
	c-3.7,3.7-7.6,7.3-11.2,11.1c-1.1,3.8-3.6,7.4-3.3,11.5c0,4.4-0.5,8.8,0,13.2c0.5,1.8,1.5,6,1.9,1.8c0.2-1.9,1.5-8.4,2.9-3.8
	c0.8,1.7,1.5,6.9,2.4,6c1.3-2.6,1.6-6.4,3.7-8.4c1.9,1.1,3.4,3.9,5.3,0.7c2.3-2.7,2-6.8,3.1-10c1-4.3,2-8.5,3-12.8
	c1.8-0.5,1.4,1.7,1.8,2.8c0.6,2.6,1.2,5.3,1.7,7.9c4-1.7,2.3-7.1,3.6-10.5c0.3-2.5,1.1-9.2,3.8-4.1c1.6,3.8,6-0.6,5.9-3.4
	c0.9-4.4,1.8-8.9,2.7-13.3c1.2,2.1,2.4,4.2,3.6,6.3c4.1-0.2,5.6-4.3,8.3-6.8c2.4-2.5,4.6-5.4,7.2-7.6c3.1-1.6,5.9-3.7,9.1-5
	c3.1,2.8-1.6,6.7-3.3,9.1c-3.9,4.8-8.7,8.8-12.7,13.4c-1.6,1.9-4.1,3.4-3.4,6.2c2,0.9,4.2,1.7,6.2,2.7c-3.1,1.6-6.4,2.9-9.3,4.8
	c-2.8,2.4-5.8,4.5-8.7,6.8c-0.8,2.1-1.3,4.5,1.8,3.6c2.2-0.4,8.2,0.6,3.5,2.8c-4.4,2.9-9.6,4.7-14,7.6c-1.2,1.6-4.5,4.2-0.5,4.1
	c2.7-0.4,6.6-4.4,8.6-2.4c-2.8,3.1-6.4,6.1-9.5,9.1c-1.6,1.2-5,4.5-3,5.5c4.8-2.3,8.2-6.7,12.4-10c1.4-2.3,5.3-4.3,4.1,0.1
	c-4.8,6-9.4,12.1-14.3,17.9c0.5,5.8,4.2-1.7,6.1-3.2c2.9-3.4,5.6-7,9.3-9.5c1.3-0.3,4.8-5.2,4.9-3.2c-0.1,1.7,0.4,3.5-1,4.8
	c-3,4-5,8.6-7.4,12.9c-0.4,1.9-0.8,7.3,1.9,4.7c3.2-6,7.2-11.6,9.7-18c2.6-5.5,4.4-11.3,6.5-16.9c1.8-2.7,2.7-1.8,2.5,1.1
	c0.3,2.7,0.2,8.4,2,8.8c3.3-7.6,7.5-14.8,11.1-22.4c1.2-3.7,2.7-7.3,4.2-10.8c1.9-0.2,1,1.9,1.2,3.1c-0.1,2.4,0.3,4.9-0.2,7.3
	c-2.1,5.9-3.6,12.1-6.5,17.7c-1.7,3.6-4.2,6.9-5.9,10.5c-1.7,2.2-1.1,2.2,0.8,0.9c3.4-1.5,5.6-4.4,8-7.2c3.7-3,0.9,3.8,0.1,5.2
	c-2,5.7-3.3,11.6-5.6,17.2c0,1.7-0.6,5.6,1.5,2.6c4.1-3.2,5.5-8.3,8-12.6c1.5,2.2,4.2,3.4,5.6,0.7c-0.2-3.4-1.8-6.8-0.3-10.1
	c1.5-5.4,2.7-10.8,3.6-16.4c0.4-3.3,0.6-6.7,1-10.1c1.9-1,1.1,2,1.2,3.1v7.7c1.8,0.2,5.2-3,6.1-0.9c-1.8,1.6-4.7,2.6-6.3,4.3
	c-0.1,2.1-0.1,4.3-0.2,6.4c2.3-1.4,4.5-2.8,6.8-4.1c1.6,1.1-0.5,1.9-1.3,2.9c-1.9,1.7-3.7,3.5-5.6,5.2c0,1.5-0.1,3-0.1,4.5
	c1.6-0.5,3.2-1,4.7-1.5c1.3,1.5-0.9,1.8-1.9,2.6c-1,1-3.4,1.1-3.1,3c-0.1,4.6-0.3,9.2-0.5,13.8c0.8-1.6,3.8-5.6,3.3-5.8
	c-1,1.9-4.5,2-2.1,0c1-1.2,6.4-5,4.5-1.2c-1.9,2.7-3.5,6.2-5.4,8.4c-0.6-0.1-1.2,3.9,0.5,3.1c1.4,0.9,5.7,1.4,2.7,3
	c-1.3,1.3-2.9,2.4-3.9,3.8c0.1,3.9-0.9,10.3-0.1,12.5c1.1-1.6,4.9-4.5,4.1-5.2c-1.6,0.8-6.4,0.4-3-0.8c2.1-0.8,7.8-1,4.1,2.2
	c-2,3.5-6.6,4.6-5.7,8.4c0,2.8-1.1,4.5,2.3,4c3.9-0.3,4.2,3.5,0.7,4.5c-2.4,1.4-4.6,1.3-3.1,4.6c0.8,2.1,6,3.6,4.7,5.8
	c-0.2-2.5-0.8,1-2.1-1.5c-1.7-1.3-3.8-4.5-3.1-0.3c-0.3,8-0.6,16-0.9,24c1.7-0.5,4.6,1.8,4.6,2.9c-1.7,1.6-5.8-5.3-4.7,0.1
	c0.1,2.5-0.6,7-0.1,8.2c0.8-0.7,2.1,1.3,3.1,1.6c1.1,0.8,2.3,1.6,3.4,2.4c-0.6,2-2-0.1-3.1-0.6c-1.3-0.9-2.5-1.8-3.8-2.6
	c0.3,3.3-1.1,9.2,0.2,10.9c1.5,1.1,5.4,4.3,5.3,6c-1.9,0.5-4.7-5.2-5.9-4.9c-0.2,4.9-0.4,9.7-0.5,14.6c2,0.7,6.1,3.3,7.2,5
	c-1.8,1.6-5.7-4.2-7.3-3.5c-0.3,3.9-0.1,7.9-0.6,11.8c-0.7,2.8,7,2.1,5.3,5c-2.9-0.9-6.8-5-6.9,0.3c-0.6,4.2-4.5,8.5-1.5,12.5
	c1.2,3.2,4.8,4.6,7.6,6.3c3.3-0.5,6.4-2.1,9.8-2.3c5-0.8,10.1-1.1,15.1-1.9c2.1-1.5,4.7-3,1.5-5c-2.5-3.1-1.9-7.5-3.4-11.1
	c0-2.9-0.6-4.1-3.1-2c-2,0.4-5.1,4.6-6.2,2c3-1.4,5.6-3.3,8.6-4.7c-0.4-3.8-1.1-7.5-1-11.3c-2.4,1.5-5.9,4.7-8.1,4.3
	c0.9-2.1,5.5-3,7.4-5.3c1.4,0,0.5-2,0.7-3.2c0-3.3-0.1-6.6-0.1-9.8c-2.2,2.5-4.8,4.2-8.1,4.8c-2.5-2.2,3.8-1.4,4.6-3.2
	c1.5-1.7,4.3-2.7,3.5-5.4c0-2.9-0.1-5.8-0.1-8.7c-1.9,1.3-5.5,5.9-7.3,4c2-1.8,6.4-3.5,7.3-6.2c0-3.8-0.1-7.5-0.1-11.3
	c-2.1,2.8-4.9,4.7-8.3,5.6c-1.6,1.8-5,0.2-1.7-0.7c3.3-1.1,6.6-2.3,8.6-5.2c1.8-1,1.2-2.8,1.3-4.6c0-2.7-0.1-5.4-0.1-8
	c-3.9,3.5-7.4,7.3-11.3,10.8c-2-2.2,3.8-4,4.6-6.2c1.9-2.3,5.2-4.5,6.7-6.5c0-2.9-0.1-5.8-0.1-8.8c-1.5,1.4-3.9,3.1-0.8,1.5
	c1.4,1.5-1,1.7-2,2.4c-1.4,0.6-2.8,1.3-4.2,1.9c-1.4-2.7,4.7-4,5.9-6.4c1.7,0.4,1-1.2,1.1-2.8c0-2,0-4.1-0.1-6.1
	c-2,3.7-6.1,1.6-9.4,0.9c-2.4-0.2-0.1-0.9,0.9-1.5c2.6-1.4,5.1-2.8,7.7-4.1c1.5,1.5-0.9,1.7-1.9,2.5c-1.5,0.8-3,1.6-4.6,2.4
	c2.9,1.6,6.3,0.6,7.2-2.2c0-4.9-0.1-9.7-0.4-14.6c-2.3,2.3-3.5,4.7-6.4,5.8c1.3-0.6,6.7,0.2,3.1,1.1c-2.1,0.4-9,0.7-4.2-2
	c2.5-1,4.1-2.8,5.7-4.9c1.9-1.1,1.9-1.8,1.6-4c-0.1-3-0.3-6-0.4-9c-1.1,1.4-6,5.2-4.8,5.2c1.5-0.9,7.2-1.2,3.8,0.5
	c-2.2-0.1-6.9,2.9-7.7,0.2c3-1.7,5.3-4.5,7.8-6.9c1.5,0.2,0.5-2,0.7-3.3c-0.4-9.1-0.7-18.1-1.1-27.2c-1.4,1.3-7.4,6.1-5.2,1.3
	c1.5-1.7,3-4.6,4.6-5.2c1.1-0.5,0.1-2.5,0.3-3.6c0.2-2.8-1.4-5.1-2.3-7.7c-0.1-1-2-2.9-0.3-3.2c1.8,1.5,2.7,5.7,4.1,8.1
	c2.2,5.1,4.8,10.2,6.7,15.4c1.1,4.4,2.2,8.7,2.4,13.2c1.1-0.4,3.2,0.3,3.1-1.5c0.3-1.7,1.5-3.5,0.4-5.1
	c-4.9-13.2-10.4-26.2-15.6-39.4c1.2-1.3,1.6,0.5,2.1,1.5c3,6,5,12.4,7.4,18.6c2.5,6.7,5.2,13.4,8.2,19.9c4.7-2.7,0.8-7.6,0.1-11.6
	c-2.2-7.3-5.2-14.3-7.7-21.4c-0.8-1.3-2.4-1.9-3.5-2.9c-1.6-1.2-3.3-2.4-4.9-3.6c1.3-2.5,4.3,1.9,6.3,2.1c3.5,3.7,4.4-2,7.4-2.6
	c0.9,3.2-5,5.8-1.9,9.4c2.3,7.7,4.3,15.5,7.3,23c0.5,1.3,1,2.7,1.5,4c-1,1.5,0.4,7.7,2.5,6.1c0.7-3.4,2.9-6.7,1-10.1
	c-2.7-10.2-6.4-20.2-9.5-30.3c0-3.7,2.3,1.6,2.6,3.2c3.6,9.7,7.4,19.2,10.6,29.1c-0.7,2.9-0.6,9,3.1,5.5c0.2-3.8,0.5-7.8-1.1-11.4
	c-3.3-8.7-5.8-17.6-8.7-26.4c-1.7,1.8-4.8,0.1-5.2-1.9c0.6-4.4-3.1-4.2-6.3-4c-1.4-0.1,2.5-2.2,2.9-2.9c1.8-1,5.5-3.9,1.9-4.7
	c-1.2-0.5-2.3-1.1-3.5-1.6c1.7-3,3.5-5.9,5.8-8.5c1.4-2.6,0.3-7.2-2.4-8.7c-2-1.1-1.8-3.6-2.5-5.5c-1-1.1,0-3.2,0.8-1.6
	c0.5,1.8,1,3.5,1.5,5.3c3,1.6,4.4,4.2,4.3,7.5c1.4,3.1-2.2,5-3.6,7.3c-0.8,1.1-1.5,2.4-2.2,3.6c1.7,0.8,3.4,1.5,5,2.3
	c0.3,3.1-5,5.2-4.7,6.3c5.2-1.4,2.1,5.9,6,6.5c1.3,0,2.5-1.3,3.8-1.9c2.3,0.4-1,1.5-0.4,2.5c4.2,11.5,8.6,23,12.6,34.5
	c-0.4,4.2,3.6,4.7,6.1,6.4c0.3,2.2,1.4,6.4,3.8,5.5c0.1-5.9,0.5-11.9,0.5-17.9c0.3-2-3.1-7-0.3-7.2c1.6,4.7,3.7,9.2,4.8,14
	c0.8,3.1-0.8,8.2,3.7,8.6c2,0.8,0.4-6.3,2.6-4.4l3.5,2.8c4.7,0.1,1.2-5.1,1.3-7.7c-1.5-3.7-2.9-7.4-4.4-11.1c2.2-0.9-1.2,0.3-0.5-2
	c-0.5-3.6-2.9-6.4-5-9.2c-0.9-1.9-0.8-4.2-2.5-1.5c-2,1.7-1.1,4.4,0.3,6.1c2.3,3.5,2.1,8.2,4.9,11.4c1.3,2.1,2.9,4.1,2.5,6.7
	c0.1,1.2,0.2,3.5-1.3,2.4c-0.2-2,0.5-4.1-0.7-5.7c-1.5-3-3.7-4.8-4.3-8.1c-0.7-3.3-2.5-6.2-3.9-9.2c0.3-0.7-4.7,0.4-4.3-1.2
	c1.4-0.2,1.1-0.8,3.5-0.3c1.8-1.5,1.8-4.3,0.6-6.2c-2.4-5.3-6-9.9-8.6-15.1c-0.7-3.3,0.7-7.5-2.5-9.8c-3.3-3.2-5-7.6-6.9-11.7
	c-2.1-3-5.6-4.7-8.1-7.4c-1.3,0.4-6.4,0.6-3.9-0.9c3.5-1.4,5.9,0.6,8.1,2.9c2.5,2,5.2,4,6.1,7.2c1.6,3.8,3.6,7.2,6.5,10.1
	c2.6,2.4,1.2,6.3,1.9,9.4c3.2,5.7,7.4,11,9.5,17.2c-0.5,2.7,0.8-0.9,2.1-0.6c-0.1-3.1,1-7.3-1-10.2c-2.1-3.9-4.5-7.6-6.4-11.6
	c-1.3-2.8-2.9-6.4-4.4-9.5c-1.5-3.6-3.8-6.8-5.9-10c2.1-2.2,3.2,4.1,4.8,5.2c3.7,6.5,6,13.7,10,20c1.2,2.8,3.7,5.2,4.2,8.2
	c0.4,1.8-0.7,7.5,0.7,7c0.7-1.4,1.4-2.8,2.2-4.1c1.1-0.5,3.4-0.2,3.7-1.5c0.4-3.9-3.5-6.7-3.9-10.5c-1.1-5.2-3.2-10.1-5.7-14.7
	c-2.8-6.1-6.8-11.4-9-17.8c-0.6-3.7,2.4,1,2.5,2.7c2.1,4.8,5.2,9.2,7.4,14c2.1,3.9,4.1,7.9,5.2,12.2c0.8,4.1,2.5,7.8,4.6,11.4
	c0.4,1.6,0,2.9,1.3,3c0.6,1.5-2.5,0.7-1.2,3c0.4,1.4-0.4,6.8-1.4,3.8c0.1-2.5,1.3-6.7-2.3-4.7c-1,0.8-1.3,2.4-2.1,3.5
	c-0.6,1.5-2.9,1.4-1.3,3.6c2,3,4.7,5.7,5.3,9.5c0.4,3.4,3.2,5.6,4.9,8.5c1.8,1.9,4,7.6,5.8,6.6c0.8-3.6-2.3-6-3.5-9.1
	c-2.5-5.2-4.7-10.6-7-15.9c1.9,1.4,4.3,2.2,5.4,4.4c4.4,5.8,8.6,11.7,13.1,17.4c4.7,2.3,1.8-3.6,0.4-5.4
	c-3.6-7.2-8.5-13.7-12.7-20.5c-0.9-0.9-3.9-5.5-1.1-4.1c4.8,6,9.7,11.9,14.5,17.9c1.6,1.1,4.6,2,3.6-0.7c-4.1-7.6-9.4-14.4-14-21.7
	c-4.8-6.9-8.9-14.2-13.2-21.4c2.3-1.8,5.3,2.8,7.8,3.4c4.1,2.2,7.7,5,11,8.2c5.6,4.9,11,10,16.8,14.6c2.9,1.6,5.2,4.4,8.3,5.4
	c0.1-1-3.2-5-1.8-5c3.3,0.9,6.4,2.3,9.4,3.8c2,1,8.4,3.4,5.2-0.7c-1-2.1-5.8-3.2-5-5.4c0.9-0.5,2.3,1,3.4,1.3
	c2.5,1.5,5.4,2.2,8.3,2.6c4.3-0.2,1.6-4.6-1.3-4.7c-6.6-3.5-13.2-7.1-19.7-10.7c1.4-2.8,5.8,1.6,8.4,1.5c1.5-0.5,7,0.7,5.1-1.9
	c-0.8-1-2.5-1-3.7-1.6c-9-3.3-18-6.5-27-9.8c-3.8-2.6-7.7-5.1-11.6-7.6c0.6-2.4,4.5,0.7,6.4,0.4c3.4,0.9,6.8,1.6,10.3,1.6
	c2.2,0.1,7,0.6,7.8,0.3c-1.5-0.8-8.1-2.7-4.3-3.7c1.9-0.1,7.8-0.2,2.8-0.4c-3.6-0.4-7.3-0.2-10.8-1.2c0.4-1.3,2.2-0.8,4.6-0.5
	c2.5,0.9,7.7-0.6,8.7,1.5c2.5,0.8,7-0.2,10.2,0c4.5-0.4,9.5,0.2,13.7-0.9c1.5-2.3,5.9-3,5.8-6c-0.3-2.8-0.3-5.6-0.8-8.3
	c-0.9-1-1.1-3.1-2.7-3.2c-4.3-0.7-8.3-1.9-12.3-3.3c-8.4-0.2-16.8-0.1-25.2-0.6c-2.7-0.2-5.9,2.3-9.1,2.1c-4.8,0.5-9.7,0.1-14.4,1.6
	c-1.8,1.4-4.3-0.6-1.4-1c3.6-1,7.3-1.6,11-1.5c3.8-0.1,7.6-0.4,11.2-2c2.2-1.5,2.6,1,3.1-1.7c2-0.7,8.3-0.2,6.8-2.3
	c-7.8,0.3-15.6,0.4-23.5,0.5c-2.8-0.3-6.4,1.5-9.2,2.8c-3.3,1.3-0.6-2,1.4-2.1c3.5-2.1,7.8-1.5,11.1-3.8c5.3-2.4,10.2-5.5,15.3-8.2
	c1.3-1.2,5-3,1.1-3.4c-3.1-0.7-6.4,1.1-9.5,1.1c-4.2,0.7,0-2.9,1.6-3.6c4.9-2.5,9.7-5.3,14.4-8.2c1.5-1.1,5.9-1.9,4.5-3.8
	c-4,1.3-7.9,3.2-12,4.3c-1.4,0.3-7.6,1.1-4.5-1.3c6-4,11.9-8.1,17.8-12.1c2-2.7,0.5-2.7-1.8-1.6c-2.8,0.8-4.8,3.1-7.4,4.4
	c-0.9,1.5-5.8,2.8-3.2,0.2c2.7-2.3,5.2-4.7,8-6.9c1.4-1.9,2.8-6.6-1-4.4c-2.5,1.3-5.6,1.5-7.3,3.9c-3,3.1-6.1,6.2-9.1,9.4
	c-2.2-2,3.5-4.3,4.2-6.5c2.4-2.8,5-5.5,7.2-8.5c0.5-2.5,0.6-4.2-1.9-2.5c-1.2,0.5-2.4,1-3.6,1.6c0.4,2.5-5,5.2-6.7,7.7
	c-2.9,2.5-6.8,3.5-9.4,6.4c-2-2.2,3.6-3.8,5-5.1c4.1-2,6.8-5.7,10.1-8.7c-3.6,0.7-7.7,0.6-9.8,4.1c-5.4,5.2-10.7,10.5-16.3,15.5
	c-6.8,4.7-13.6,9.3-20.6,13.7c-3.2,1.3-7.7,0.2-9.2,4.1c-2.7,3.7-5.8,7.1-8.8,10.6c3.2-0.7,6.2,0,9.1,1.4c2.8,1,5.1,2.9,7.7,4.1
	c-0.6,2.6-4.2,4.6-7.1,4.1c-1.8,0-3.4-1.3-5.1-1.8c0.2-2.1,1.9-0.4,3.1-0.1c2.3,1.2,5.4,0.8,7.1-1.3c-0.9-1.8-5.6-3.6-8.3-4.7
	c-2.5-1.5-5.3-0.5-8-0.4c-3.2,0.7,0.9-2.1,1.4-3.2c3.5-3.9,6.9-8,9.9-12.3c-0.2-3.2,3.3-5.4,4.5-8.4c3.5-5.1,5.2-11.1,7.9-16.6
	c1.1-2.3,0.5-5,0.8-7.5c-0.1-1.4,0.4-2.8-0.1-4.1c-2.5,4.5-5,9-7.4,13.6c-2.9,0.2-0.3-4.4,0.5-5.6c2.2-4.5,4.8-9,6.9-13.5
	c0.1-1.9,0.1-3.8,0.2-5.7c-1.9-1.6-2.8,4-4.3,5.3c-3.3,5.5-6.3,11.1-9.7,16.4c-0.3,1.8-4,3.1-2.5,0.6c4.9-9,9.9-17.9,14.9-26.8
	c2-3.6,1.4-7.7,1.7-11.6c-1.9-3-3.3,1.6-4.8,2.9c-2,2.5-2.7,5.7-4.2,8.4c-2.5,5.4-5,10.7-7.5,16c-2.8-1.2,1.6-5.3,1.7-7.7
	c2.4-6.2,4.8-12.4,7.2-18.6c-1.2-2.5-3.9,4.1-5.2,5.6c-2.3,5.1-4.9,10-7.5,15c-2.7-1.2,1.6-5.3,1.5-7.6c1.3-3.8,3-7.5,4.3-11.2
	C412.1,88.2,414.1,84.6,412.3,84.5L412.3,84.5z M429.6,152.2c0.6,2.5-3.1,3.6-4.7,5.5c-1.9,0.7-8.8,2.4-5.9,4c2-1,3.9-2.1,5.9-3.1
	c2.5,2.4,6.3,4.9,6,8.6c-2.4,0.6-1.4-4.7-4.2-5.2c-1.3-2.3-3-1.7-4.7-0.4c-1.4,0.8-2.8,1.5-4.2,2.3c-2.3-3.2,0.3-5.8,3.6-6.2
	c3.3-0.5,5.3-3.4,7.8-5.3l0.1-0.1L429.6,152.2L429.6,152.2z M447.4,159.1c0.2,2.8-4.7,1.6-6,3.9c-2.1,1-4.3,4.2-6.2,4.2
	c-2.1-0.4,2.5-2.5,3.3-3.6C441.1,161.4,443.8,159.5,447.4,159.1L447.4,159.1z M470.2,170C469.7,170.5,470,170.4,470.2,170z
	 M405.7,172.7c2.9,1.1,6,1.8,8.5,3.8c3.2,1.1,3.3,4.8,4.3,7.5c0.1,1.8-1.4,7.4-3.1,6.2c0.7-2.6,3-5.8,1-8.8c-0.3-3.3-3.7-4.2-6-5.8
	c-1.7-0.6-3.5-1.2-5.2-1.8C405.4,173.5,405.6,173.1,405.7,172.7L405.7,172.7z M487.9,173.1c5.9,0.2,11.9,0.5,17.8,1.1
	c0.7,0.7-1.2,0.7-0.9,1.1c-7.6-0.3-15.3-1.3-22.9-0.6c-3.6-0.5-6.7,2.3-10.3,1.5c-1.9,0.4-6.4-0.7-3.3-1.5c3.5,0.4,7,0.4,10.2-1.1
	C481.5,173,484.8,173.4,487.9,173.1L487.9,173.1z M478.8,178c6.1,0.9,12.3,1.4,18.5,1.3c3.9,0.2,8.5-0.2,12,0.4
	c-0.6,2.6-6,0.1-8.4,0.9c-6.9-0.1-13.8-0.1-20.6-1.2C479,179.5,478.6,179.3,478.8,178L478.8,178z M485.4,184.9
	c2.5,2.6,6.1,3.1,9.8,2.5c4.3-0.3,8.6,0.9,12.8-0.7c3.6-0.3-0.3,2-2.1,1.8c-4.2,0.9-8.5-0.3-12.7,0.2c-3.4,1.2-6.1-1.6-8.6-2.3
	c-1.8,1.1-3.8,1.3-5.8,1.2h-8.8c-0.6-2,1.7-1.1,2.8-1.3c2.9,0,5.9,0,8.8,0C482.8,185.8,484.1,185.1,485.4,184.9L485.4,184.9z
	 M365.2,188.9c3.1,1.3-2.5,4.3-1.6,6.3c0.1,2.1,0.4,3.6,1.4,0.7c0.4-1.4,0.9-2.7,1.4-4.1c1.2,2,2.9,3.2,5.2,3.2c1,1.7,1.5,5.6,2.5,2
	c1-1.9,1.7-4,3.1-5.5c2.3,1.3-0.3,5.9,0.3,8.3c-0.2,3.7,0.6,7.4,0.1,11.2c0.3,2.2-1.9,7.9,2.1,5.2c1.4-0.6,1.5-2.6,2.4-3.8
	c1.5-2.9,1-6.5,1.9-9.6c2.9-0.8,0.3,8.1,3.1,5.3c0.8-3-1.4-5.5-1.7-8.9v-5.9c2-0.6,1.1,1.7,1.3,2.8c-0.1,2.4,0.1,4.7,1.1,6.9
	c3.2,1.7,2.7-4.3,5.3-5.5c2.8-1.1,1.2-7,4.1-6.3c-0.3,3.6-2.3,6.6-4.7,9c-1,1.7-1.5,5.8-4.4,4.2c2.1,2.2-0.3,6.7-2.9,5.9
	c-0.6-1.9-0.6-4.2-0.9-0.9c-0.1,2.7-2,4.9-3,7.4c-2.4,1.3-6.6,2.7-5.1-1.7c0.3-4.7,0.6-9.5,0.1-14.2c-0.1-1.6,0.8-6.4,0-5.5
	c-1.1,2.2-2.1,4.5-3.2,6.7c-1.4-2-0.8-6.8-4-6.3c-1.8-0.4-2.4-2.5-2.8,0.4c-0.8,0.8-1.8,5.6-3.2,3.5c-0.3-2.6-0.1-6.7-3.1-3.5
	c-0.5-2.1-1.1-4.3-1.6-6.4c1.8-1.1,1.4,1.3,1.9,2.4c-0.1,3.6,3.8,0.1,4.2-1.8C364.7,190,365,189.4,365.2,188.9L365.2,188.9z
	 M414.5,204.8c3.4,6.8,6.9,13.5,10.5,20.2c1.9,4.7,4.3,9.4,5.1,14.5c-0.8,2.4,4.9,5.7,2.2,6.3c-3.1-2.4-3.4-6.2-4.2-9.7
	c-2-6.3-4.9-12.3-8.1-18c-2.3-4.1-4.3-8.4-6.5-12.6C413.8,205.2,414.2,205,414.5,204.8L414.5,204.8z M407.7,212.2
	c3.2,0.4-2.9,3.7,1.1,4.1c2.1,0.3,1.5,3.3,3.4,3.7c4.7,0.3-0.5,7,4.3,6c2.3,1.8-0.1,6.6,3.5,7.8c3,1.5,2.2,5,3.6,7.5
	c0.3,1.9,1.4,1.6,2.7,0.7c1-0.6,2.9-1.7,2.6,0.1c-1.7,0.8-3.4,1.7-5.1,2.5c-1.4-2.6-2.6-5.3-2.9-8.3c-2.7-2-5.1-4.2-4.7-7.9
	c0.6-2.8-4.7,0.1-3.3-3.5c1.9-3.6-2.3-3.1-3.2-5.5c-0.2-2.4-3.9-2-4.1-4.1C406.3,214.2,407.1,213.3,407.7,212.2L407.7,212.2z
	 M388.5,246.9c-0.5,1.6-5.6,6.3-1.8,3.3c1.9-1.2,2.2-0.4,1.9-3L388.5,246.9L388.5,246.9z M387.7,258c3.6,0.6-4.5,4.1-2.8,4.2
	c1.1-0.8,3.3-0.7,2.2,0.7c-1.8,0.5-3.5,1.1-5.3,1.6C380.5,261.7,386.3,260.3,387.7,258L387.7,258L387.7,258z M388.1,270.1
	c3,0.1-1.6,3.1-2.5,4.4c-3.3,2.6,3.9-2.6,3.3,0c-1.4,1-6.3,4.1-8,2.3C383,274.4,386.1,272.8,388.1,270.1L388.1,270.1z M370.2,280.9
	c-0.2,2.3-0.6,5.2,1.6,2.3C374.2,281.7,371.5,281.7,370.2,280.9z M369.1,308.7c-0.1,2.2-0.9,5.6,2,2.9c2.1-0.9,3.7-2.6,0.3-2.5
	C370.6,308.9,369.8,308.8,369.1,308.7z M368.6,332.2c1.9,1.2,6.7,1.4,6.6,3.6c-1.4-0.2-6.4-1.4-6.6-3V332.2z M359.9,411.7
	c-7.4,0.2-14.9,0-22.3,0.2c-3.2,2-6.9,3.4-9.4,6.3c-1.9,2.7,3.2,4.9,5.8,4.3c1.3,0.9,6-0.8,5.2,1.6c-1.2,3.6-5.2,4.2-7.9,6.3
	c-1.6,3.4,2.2,7.6,5.2,4.4c1.7-1.6,3.2-1.8,4.4,0.2c2,1.6-1.4,5.8,3,5.6c2.9-1.5,5.5-4,8.2-5.9c1.8-2.3,4.7-4.9,5.9-0.5
	c2.6,2.3,6,1.7,9.1,1.5c3.9-0.1,8.2-0.7,10.4-4.3c3.6-1.7,7.1,1.8,8.9,4.6c2.5,1.6,6.5,1.8,5.3-2.3c-1-2.7-0.1-5.5,3.1-3.8
	c3.5,0.7,6.2,3.3,9.6,4.3c-0.2-2.6-0.2-7.4,3.3-4.1c3,2.2,6.1,4.3,9.8,5.2c0.1-1.5-0.3-3.2,0.2-4.6c2.3-2.4,7,4.6,6-0.7
	c0.5-1.8-2-5.9,0.5-5.6c3.5,1.5,7.3,2.5,11.1,3.2c-2.5-4.2-7-6.5-10.8-9.2c-3.7-1.5-7.6-2.7-11.6-2.7c-4.3-0.4-8.8-0.2-13.1-0.8
	c-1.8-1.3-1.5-0.1-1.2,0.2c-2.6,3.7-7.1,3-11,3.6c-5.4,0.5-10.9,1.1-16,3c-3.5,0.5-6.7-2.7-9.2-4.8
	C361.3,415.5,360.8,413.4,359.9,411.7L359.9,411.7z"/>
</svg>
