<?xml version="1.0" encoding="utf-8"?>
<!-- Generator: Adobe Illustrator 27.0.1, SVG Export Plug-In . SVG Version: 6.00 Build 0)  -->
<svg version="1.1" id="Layer_1" xmlns="http://www.w3.org/2000/svg" xmlns:xlink="http://www.w3.org/1999/xlink" x="0px" y="0px"
	 viewBox="0 0 750 500" style="enable-background:new 0 0 750 500;" xml:space="preserve">
<style type="text/css">
	.st0{fill:#CC0000;}
	.st1{fill:#FFFFFF;}
	.st2{fill:#002D65;}
</style>
<rect class="st0" width="693.8" height="500"/>
<path class="st1" d="M693.8,0h9.4v500h-9.4V0z M346.9,128.1c67.3,0,121.9,54.6,121.9,121.9s-54.6,121.9-121.9,121.9
	S225,317.3,225,250S279.6,128.1,346.9,128.1z"/>
<path class="st2" d="M703.1,0H750v500h-46.9V0z M346.9,137.5c-62.1,0-112.5,50.4-112.5,112.5s50.4,112.5,112.5,112.5
	S459.4,312.1,459.4,250S409,137.5,346.9,137.5z M256.2,196l38.4-4l8-37.8l15.7,35.3l38.4-4L328,211.3l15.7,35.3l-33.4-19.3
	L281.6,253l8-37.8L256.2,196z M345.4,316.9v38.6l-22.7-31.2L286,336.2l22.7-31.2L286,273.8l36.7,11.9l22.7-31.2v38.6l36.7,11.9
	L345.4,316.9z M413.6,255.6l-15.7,35.3l-8-37.8l-38.4-4l33.4-19.3l-8-37.8l28.7,25.8l33.4-19.3l-15.7,35.3l28.7,25.8L413.6,255.6z"
	/>
</svg>
