<?xml version="1.0" encoding="utf-8"?>
<!-- Generator: Adobe Illustrator 27.0.1, SVG Export Plug-In . SVG Version: 6.00 Build 0)  -->
<svg version="1.1" id="Layer_1" xmlns="http://www.w3.org/2000/svg" xmlns:xlink="http://www.w3.org/1999/xlink" x="0px" y="0px"
	 viewBox="0 0 750 500" style="enable-background:new 0 0 750 500;" xml:space="preserve">
<style type="text/css">
	.st0{fill:#FFFFFF;}
	.st1{fill:#369443;}
	.st2{fill:#010002;}
	.st3{fill:#F4C53D;}
	.st4{fill:#0081C6;}
	.st5{fill:#A60032;}
	.st6{fill:none;}
	.st7{fill:#162667;}
</style>
<path class="st0" d="M0,0h750v500H0V0z"/>
<g>
	<path class="st1" d="M234,338.5c0,0-0.6-4.1,7.2-7.1c7.8-3,8.4-14.3,6.9-21.7c0,0-4.1,7.1-9,9.5c0,0-8.1,4.2-8.4,12.2
		c0,0-0.1,2.9-0.7,5.2c-0.3,1.3-3.9-10.1,2.9-18.5c7-8.7,8.9-15.7,3.4-29.4c0,0-0.5,8.3-6,13.1c-5.5,4.8-6.2,5.1-6.1,16.4
		c0,0,0.1,3.9-2,5.2c0,0-4.3-6.2-5.4-10.3c-1.1-4.1-1.6-5.8,3.2-10.6c0,0,15.6-10.1,4.3-32.1c0,0-0.3,7.6-5.7,12.1
		c-5.4,4.5-4.9,7.5-5.2,15.3c-0.3,7.8-0.8,7.2-1.4,8.3c0,0-9.9-18.2-2.3-27.9c7.6-9.7,11.9-11.7,3.5-29.7c0,0,0.4,9.2-6.4,13.8
		c-6.7,4.6-5.2,15.3-5.2,15.3s0.4,4-1,6.9c0,0-9.5-18.6-0.4-28.6c7.7-8.5,8.2-14.4,4.1-26.5c0,0-0.5,5.6-4.8,8.6
		c-4.3,3-7.6,6-6.9,17.6c0,0,0.3,8.1-0.7,10.4c0,0-4-7.4-5.1-12.2c-1.1-4.8-1.6-7.7,1.4-12.5c3-4.8,14.7-18.7,0.7-38.7
		c0,0-0.4,6.5-4,12.3c-3.6,5.8-1.9,12.8-1.1,18.1c0.8,5.3-1.8,10.4-1.8,10.4s-6.1-11.1-4.8-23.9c1.3-12.8-3.9-23.3-15.7-30.9
		c0,0-8.6,19.9,3.1,30.1c0,0,10,9.9,12.5,21.8c0,0-7.5-0.7-14.4-14.1c-6.9-13.3-21.1-11.2-22-11.3c0,0,2.3,20.6,24.2,26.5
		c0,0,14,2.4,16.6,12.6c0,0,2.3,7,3.3,10.8c0,0-4.4-1.7-8.5-7.8c-4.1-6-3.6-6.8-17.4-8.1c0,0-5.6-0.6-8.5-4.6
		c0,0,5.8,21.8,20.7,21.7c0,0,13.6-1.5,21.3,16.4c0,0-1.5-0.9-3.5-2.3c-2-1.4-7-3.9-17-2.7c-10,1.2-12.8-0.5-15.3-1.3
		c0,0,10.1,18.5,24.3,13c14.2-5.5,21.1,14.5,21.3,14.9c0,0-1.9-1.5-4.4-3.9c-2.5-2.5-7.7-5.5-17.6-2.4c0,0-7.1,2.7-14.3,0.5
		c0,0,6.9,13.4,23.2,11.1c16.2-2.3,20.3,12,20.3,12s-2.2-1.3-3.6-2.5c-1.5-1.2-6.9-4.3-18.7-0.8c-11.7,3.5-16-0.5-16-0.5
		s6.5,11.9,19,13.2c0,0,6.9-0.1,9.9-1.2c3-1.1,10.8-2.8,16.1,4.9c0,0-1.5,0.3-3.7-0.7c0,0-8.3-3-14.7,2.3c0,0-5.6,5.8-13.6,4.7
		c0,0,10.3,10.1,26.7,1.6c0,0,5.6-4,9.6-0.9C224.5,344.7,234,338.5,234,338.5L234,338.5z"/>
	<path class="st2" d="M197.9,346.7c-2.7,0-5-0.5-6.9-1c-4.8-1.5-7.5-4.1-7.6-4.2l-1.9-1.9l2.7,0.4c7.4,1,12.8-4.3,12.9-4.4l0.1-0.1
		c6.6-5.6,15.2-2.6,15.5-2.4l0.1,0c0.5,0.2,1,0.4,1.4,0.5c-5.1-5.7-11.8-3.8-13.9-3.1c-3.1,1.1-9.9,1.2-10.2,1.2l-0.1,0l-0.1,0
		c-12.8-1.4-19.4-13.2-19.7-13.7l-2.7-4.9l4.1,3.9c0,0,4.1,3.6,15.1,0.3c12.4-3.7,18-0.2,19.5,1c0.4,0.3,0.8,0.6,1.2,0.9
		c-2-3.8-7.1-10.4-18.3-8.8c-16.6,2.3-24-11.5-24.1-11.6l-1-1.9l2,0.6c6.8,2.1,13.7-0.5,13.7-0.5c10-3.2,15.6-0.3,18.5,2.6
		c0.5,0.5,1,1,1.5,1.4c-1.8-3.6-5-8.7-9.7-10.8c-2.8-1.3-5.8-1.3-9-0.1c-1.9,0.7-3.8,1.1-5.6,1.1c-11.8,0-19.7-14.3-19.8-14.4
		l-1.1-2l2.1,0.7c0.3,0.1,0.6,0.2,0.9,0.3c2.3,0.8,5.4,1.9,14,0.9c9.9-1.2,15.3,1.3,17.6,2.9c0.3,0.2,0.6,0.4,0.8,0.6
		c-7.4-14.1-18.5-13.2-19-13.1l-0.1,0c-6.4,0.1-12.2-3.8-16.7-11.2c-3.3-5.5-4.8-10.9-4.9-11.1l-1.2-4.4l2.7,3.6
		c2.7,3.6,7.8,4.2,7.9,4.2c12.7,1.3,13.6,2,17.2,7.3c0.3,0.4,0.5,0.8,0.8,1.2c2.3,3.4,4.8,5.4,6.4,6.5c-1.1-3.8-2.7-8.7-2.7-8.7
		l0-0.1c-2.4-9.6-15.7-11.9-15.9-12l-0.1,0c-22.2-5.9-24.8-27-24.9-27.3l-0.1-1.1l1.1,0.1c0.1,0,0.2,0,0.5,0
		c13.1-0.7,19.3,6.1,22.3,11.8c4.9,9.5,10.1,12.4,12.4,13.3c-2.9-10.9-11.8-19.9-11.9-20c-12-10.4-3.7-30.2-3.3-31l0.4-1l0.9,0.6
		c12,7.7,17.5,18.4,16.1,31.7c-1,9.5,2.2,18.1,3.8,21.7c0.7-1.9,1.5-5,1-8.1c-0.1-0.6-0.2-1.1-0.3-1.7c-0.8-5.1-1.8-11.4,1.5-16.9
		c3.4-5.6,3.9-11.9,3.9-11.9l0.2-2.5l1.4,2.1c13.1,18.8,4.1,32.4,0.3,38.3c-0.4,0.5-0.7,1-0.9,1.4c-2.8,4.6-2.4,7.2-1.3,11.9
		c0.7,3.1,2.7,7.3,3.9,9.9c0.3-2.5,0.2-6.2,0.1-7.8c-0.8-11.7,2.6-15.1,7.2-18.4c3.9-2.7,4.4-7.9,4.4-8l0.4-4.1l1.3,3.9
		c4.4,12.8,3.4,18.9-4.3,27.4c-6.9,7.5-2.5,20.5-0.4,25.6c0.4-2.2,0.2-4.4,0.2-4.4c-0.1-0.4-1.6-11.3,5.6-16.1c6.2-4.2,6-12.9,6-13
		l-0.2-4.4l1.8,4c7.8,16.7,4.9,20.2-1.4,27.9c-0.7,0.8-1.4,1.7-2.2,2.7c-5.9,7.5-0.6,20.8,1.6,25.3c0.2-0.9,0.4-2.6,0.5-6.3
		c0-0.7,0-1.3,0.1-2c0.2-6.4,0.3-9.6,5.5-13.9c5-4.2,5.4-11.4,5.4-11.4l0.2-3.3l1.5,3c6,11.7,4.4,20.1,2.1,25.1
		c-2.4,5.1-6,7.7-6.6,8.1c-4.4,4.3-4,5.6-2.9,9.6l0,0.1c0.8,3,3.5,7.4,4.7,9.2c0.8-1.1,1-3.1,1-3.8c-0.1-11.1,0.5-12,6-16.8l0.3-0.3
		c5.1-4.5,5.7-12.4,5.7-12.5l0.2-3.9l1.5,3.6c5.9,14.5,3.3,21.8-3.5,30.3c-3.7,4.6-4.2,10.2-3.8,13.8c0-0.7,0.1-1.1,0.1-1.2
		c0.4-8.5,8.6-12.8,8.9-13c4.7-2.2,8.6-9.1,8.7-9.2l1.2-2l0.5,2.3c0.9,4.4,0.9,9.1,0.1,12.9c-1.1,5-3.7,8.4-7.5,9.8
		c-6.9,2.7-6.6,6.2-6.6,6.2l0.1,0.5l-0.5,0.3c-1,0.7-10.1,6.3-14.5,3c-3.5-2.7-8.5,0.9-8.6,0.9l-0.1,0.1
		C206.1,345.9,201.6,346.7,197.9,346.7z M186.9,341.9c3.7,2.3,12,5.7,23.5-0.2c0.7-0.5,6.3-4.2,10.6-0.9c2.8,2.1,9.3-1.1,12.1-2.8
		c0.1-1.4,1.1-4.9,7.8-7.5c6.2-2.4,7.7-10.9,6.7-18.5c-1.6,2.4-4.6,6.2-8.2,7.9c0,0-7.6,4.1-7.9,11.5c0,0.1-0.1,3-0.7,5.4
		c-0.1,0.5-0.5,0.7-0.8,0.7c-0.2,0-0.7,0-1.1-0.6c-1-1.8-2.9-11.8,3.2-19.3c6-7.5,8.5-13.7,4.4-25.5c-0.7,3-2.3,7.3-5.7,10.3
		l-0.3,0.3c-5,4.3-5.5,4.8-5.4,15.5c0,0.4,0,4.5-2.4,6l-0.7,0.4l-0.5-0.7c-0.2-0.3-4.3-6.4-5.5-10.6l0-0.1
		c-1.2-4.5-1.5-6.5,3.5-11.4l0.1-0.1c0.6-0.4,13.6-9.1,5.3-28.3c-0.6,2.7-2.1,6.8-5.6,9.7c-4.6,3.8-4.7,6.4-4.8,12.6
		c0,0.6,0,1.3-0.1,2c-0.2,6.6-0.6,7.4-1.3,8.4c-0.1,0.1-0.1,0.2-0.2,0.3l-0.8,1.4l-0.8-1.4c-0.1-0.2-2.5-4.7-4.1-10.5
		c-2.1-7.8-1.4-14.2,1.9-18.3c0.8-1,1.5-1.9,2.2-2.7c5.6-6.8,8.1-9.9,2.6-22.9c-0.5,3.3-2.1,8-6.5,11c-6.2,4.2-4.8,14.3-4.8,14.4
		c0,0.2,0.4,4.3-1,7.4l-0.8,1.6l-0.8-1.6c-0.1-0.2-2.5-4.8-3.7-10.8c-1.7-8-0.5-14.5,3.4-18.8c6.6-7.3,7.9-12.5,4.9-22.7
		c-0.7,1.9-2,4.4-4.4,6.1c-4.4,3.1-7.2,6-6.5,16.9c0,0.9,0.3,8.4-0.8,10.8l-0.7,1.6l-0.8-1.6c-0.2-0.3-4.1-7.6-5.2-12.5
		c-1.2-5-1.7-8,1.5-13.2c0.3-0.4,0.6-0.9,1-1.5c3.8-5.8,11.6-17.6,1.1-34.4c-0.4,2.5-1.5,6.5-3.8,10.4c-3,4.9-2.1,10.7-1.3,15.7
		c0.1,0.6,0.2,1.2,0.3,1.8c0.8,5.5-1.8,10.7-1.9,10.9l-0.8,1.5l-0.8-1.5c-0.3-0.5-6.2-11.5-4.9-24.5c1.2-12.3-3.6-22.2-14.4-29.5
		c-0.6,1.7-1.9,5.6-2.4,10c-0.9,8,1,14,5.7,18c0.5,0.5,10.2,10.2,12.8,22.3l0.2,1.2l-1.2-0.1c-0.3,0-8.1-0.9-15.1-14.5
		c-2.7-5.2-8.4-11.3-20.2-10.9c0.8,4,5,19.9,23.4,24.8c1,0.2,14.5,2.8,17.2,13.2c0.2,0.6,2.4,7.2,3.3,10.8l0.4,1.7l-1.6-0.6
		c-0.2-0.1-4.7-1.9-8.9-8.1c-0.3-0.4-0.6-0.8-0.8-1.2c-3.1-4.7-3.5-5.3-15.9-6.5c-0.2,0-3.5-0.4-6.5-2.4c0.8,2,2,4.8,3.6,7.5
		c4.2,6.9,9.3,10.4,15.1,10.3c0.5,0,3.9-0.3,8.2,1.6c4.1,1.8,9.9,5.9,14,15.4l1.1,2.6l-2.4-1.5c0,0-1.5-0.9-3.5-2.3
		c-2.1-1.4-7-3.7-16.4-2.6c-7.3,0.9-10.9,0.2-13.3-0.5c1.1,1.7,3,4.1,5.4,6.3c5.4,4.9,11,6.4,16.5,4.2c3.6-1.4,7.1-1.3,10.3,0.1
		c7.2,3.3,11,12.5,12.1,15.2l0,0.1l1.1,2.9l-2.5-1.9c-0.1-0.1-2-1.5-4.5-4c-2.6-2.6-7.7-5-16.7-2.2c-0.2,0.1-6.1,2.3-12.7,1.1
		c2.5,3.5,9.1,10.6,21.1,8.9c13.4-1.9,19.8,7.4,21.3,12.6l0.6,2.1l-1.9-1.1c-0.1-0.1-2.2-1.3-3.7-2.5c-0.9-0.7-6-4.2-17.8-0.7
		c-6.6,2-11,1.6-13.6,0.8c2.7,3.5,8.2,9.2,16.5,10.1c0.6,0,6.9-0.1,9.5-1.1c2.5-0.9,11.2-3.3,17.2,5.3l0.8,1.1l-1.3,0.2
		c-0.2,0-1.8,0.3-4.2-0.8c-0.5-0.2-8.1-2.6-13.7,2.1C197.8,337.4,193.4,341.6,186.9,341.9z"/>
</g>
<g>
	<path class="st3" d="M325.2,90.9c0,0-1.9-17,11.7-18.6c14.2-1.7,21.2,1.3,21.2,1.3l6.4,12.5l-2.2,8.4l-8.8,4
		c0,0,1.5-12.9-10.3-13.2c-3-0.1-4.8,1.1-9.5,0.4C328.9,84.9,326.3,90.1,325.2,90.9L325.2,90.9z"/>
	<path class="st2" d="M352.4,99.9l0.2-1.6c0-0.1,0.6-5.8-2.5-9.3c-1.6-1.8-4-2.8-7-2.9c-1,0-2,0.1-2.9,0.3c-1.7,0.3-3.6,0.6-6.7,0.1
		c-3.2-0.5-5.2,2.1-6.6,3.8c-0.5,0.6-0.8,1-1.1,1.3l-1.2,0.9l-0.2-1.5c0-0.2-1.8-17.9,12.5-19.6c14.2-1.7,21.3,1.2,21.6,1.3l0.3,0.1
		l6.7,13.1l-2.4,9.1L352.4,99.9z M342.9,84.4c0.1,0,0.2,0,0.3,0c3.6,0.1,6.4,1.3,8.3,3.5c2.6,3,3,7,3,9.2l7.1-3.2l2-7.7l-6.1-11.9
		c-1.4-0.5-8.3-2.6-20.4-1.1c-5.2,0.6-8.7,3.7-10.2,9.2c-0.6,2.3-0.8,4.6-0.8,6.2c1.5-1.9,4-4.4,7.7-3.8c2.8,0.4,4.5,0.2,6.1-0.1
		C340.8,84.5,341.8,84.4,342.9,84.4z"/>
</g>
<g>
	<path class="st3" d="M420.9,133c-2,2.6-10.1,3.5-10.1,3.5s8.3,6.4,11.9,15.5c3.6,9.1-96.5,0.1-96.5,0.1s4.3-3.1,7.3-9
		c0,0-4.4,1.6-8.8-2.7c0,0,3.3,1.1,7.6-5.5c0,0,6.4-8.2,10.9-10.4c0,0-2.1,1.3-7.1-1.5c0,0,8.7-1.1,11.8-15.9c0,0,0.5-3.3,3.8-8
		c3.3-4.8,2.6,0.9,8.7-6.4c0,0,2.8-5.2,0.3-8.3c-2.4-3.2-5-2-10.1-5.1c-5.1-3-7.3-4.8-5.6-9.4c1.7-4.7,6.2-4,6.9-4
		c0.6,0,1-4.1,6.5-6.9c5.6-2.8,20.3-1.6,22.5-0.4c2.2,1.2,11.1,3.8,16.3,17c5.2,13.2-1.4,18.1,12.8,38c0,0-5.7,1.2-9.3,0.1
		C400.6,113.8,408,126.8,420.9,133L420.9,133z"/>
	<path class="st2" d="M398.8,157c-6.8,0-15.4-0.2-26.6-0.8c-23.2-1.2-46-3.2-46.2-3.2l-2.4-0.2l1.9-1.4c0,0,3.4-2.5,6.1-7.1
		c-1.9,0.1-4.9-0.4-7.8-3.3l-2.7-2.7l3.6,1.2c0,0,2.8,0.7,6.6-5.1l0-0.1c0.2-0.3,4.4-5.6,8.5-8.9c-1.2-0.2-2.6-0.7-4.4-1.7l-2.4-1.3
		l2.7-0.3c0.3,0,8.1-1.3,11-15.2c0-0.1,0.6-3.5,4-8.4c1.6-2.3,2.5-2.5,3.7-2.6c0.9-0.1,1.9-0.1,5-3.8c0.3-0.6,2.3-4.8,0.4-7.3
		c-1.2-1.5-2.4-1.9-4.2-2.4c-1.5-0.4-3.3-1-5.7-2.4c-5-3-8-5.1-6-10.5c0.8-2.2,2.8-4.8,7.3-4.6c0.1-0.1,0.1-0.2,0.2-0.3
		c0.7-1.4,2.1-4.3,6.3-6.4c5.7-2.9,20.8-1.8,23.3-0.3c0.2,0.1,0.6,0.3,1,0.5c3.3,1.5,11,5.1,15.7,17c1.9,4.9,2.3,8.7,2.6,12.4
		c0.6,6.3,1.2,12.9,10.1,25.3l0.8,1.1l-1.3,0.3c-0.2,0-4.2,0.9-7.7,0.5c2.4,3.7,9,12.5,18.8,17.2l1,0.5l-0.7,0.9
		c-1.6,2.1-6.1,3.1-8.8,3.6c2.6,2.3,7.9,7.7,10.7,14.6c0.3,0.7,0.2,1.4-0.3,2C422.5,154.7,420.7,157,398.8,157z M328.3,151.4
		c6.2,0.5,25,2.1,44,3c41.9,2.1,48.5-0.5,49.4-1.8c0.1-0.1,0.1-0.2,0-0.3c-3.5-8.8-11.5-15.1-11.6-15.2l-1.7-1.3l2.2-0.2
		c1.9-0.2,6.5-1,8.7-2.4c-12.3-6.4-19.2-18.5-19.5-19l-1.1-1.9l2.1,0.6c2.4,0.7,5.7,0.4,7.5,0.1c-8.4-12.1-9-18.7-9.6-25.1
		c-0.3-3.7-0.7-7.3-2.5-11.9c-4.4-11.2-11.7-14.6-14.8-16c-0.5-0.2-0.8-0.4-1.1-0.6c-1.9-1.1-16.4-2.3-21.7,0.4
		c-3.7,1.9-4.9,4.3-5.6,5.6c-0.3,0.7-0.7,1.3-1.4,1.3c-0.1,0-0.2,0-0.3,0c-1.1-0.1-4.4-0.3-5.8,3.4c-1.5,4,0.1,5.3,5.2,8.4
		c2.2,1.3,3.8,1.8,5.3,2.2c1.9,0.6,3.6,1.1,5.1,3.1c2.7,3.6-0.1,9.1-0.3,9.3l-0.1,0.1c-3.3,4-4.8,4.4-6.3,4.5
		c-0.7,0-1.1,0.1-2.3,1.8c-3.1,4.5-3.7,7.6-3.7,7.7c-2.3,10.7-7.3,14.6-10.3,15.9c2.7,1.1,4,0.7,4.3,0.6c0,0,0.1,0,0.1,0l0.8,1.5
		c0,0-0.1,0.1-0.2,0.1c-4.1,2.1-10.1,9.6-10.5,10.1c-2.4,3.7-4.6,5.1-6.2,5.6c3.3,2.3,6.2,1.3,6.4,1.2l2.1-0.7l-1,2
		C332.3,147.3,329.9,149.9,328.3,151.4z"/>
</g>
<path class="st2" d="M358.9,78.4c-3.7-0.2-6.2-1.4-7.6-3.6c-2.4-3.8-0.4-9-0.3-9.2l1.6,0.7c0,0-1.8,4.6,0.1,7.6
	c1.1,1.7,3.2,2.6,6.2,2.7L358.9,78.4z"/>
<g>
	<path class="st3" d="M378.9,79c0,0-2-1-3.8-3.2c-2.4-3.2-7.8-4.8-10.7-1.7c0,0-2.9,3.3-5.6,3.5c0,0,2.9,0.9,5,2.8
		c2,1.9,4.2,3.2,7.2,2.8c3-0.4,3.5-2,4.9-3C377.5,79.2,378.9,79,378.9,79L378.9,79z"/>
	<path class="st2" d="M370,84.1c-2.9,0-4.9-1.5-6.7-3.1c-1.9-1.7-4.6-2.6-4.7-2.6l-4.5-1.4l4.7-0.3c1.8-0.1,4.2-2.3,5-3.2
		c1.3-1.4,3.1-2,5.2-1.9c2.6,0.2,5.3,1.6,6.9,3.7c1.6,2.1,3.4,3,3.4,3l2.7,1.3l-3,0.4c0,0-1.3,0.2-2.5,1c-0.4,0.2-0.7,0.5-1,0.9
		c-0.8,0.9-1.9,1.9-4.3,2.2C370.8,84,370.4,84.1,370,84.1z M361.4,77.6c1,0.5,2.1,1.2,3.1,2.1c2,1.8,3.8,3,6.5,2.6
		c1.8-0.2,2.5-0.9,3.3-1.7c0.4-0.4,0.8-0.8,1.3-1.1c0.4-0.3,0.9-0.5,1.3-0.7c-0.7-0.6-1.6-1.4-2.4-2.4c-1.3-1.7-3.5-2.9-5.6-3
		c-1.1-0.1-2.6,0.1-3.8,1.3C365,74.7,363.4,76.5,361.4,77.6z"/>
</g>
<g>
	<path class="st3" d="M454,243.3c0,0,10.8,8.8,19.8,0c0,0,3.6,4.4,10.9,3.1c7.3-1.3,8.5-5.1,9.2-7.3c0,0,6.3,3.7,11.6,0.8
		c5.3-2.9,5.3-7.3,5.3-7.3s9.3,1.8,14-4.4c4.7-6.3,1.9-12.5-0.7-13.2c0,0,10,2.6,12.7-6c2.3-7.3-2.9-11.1-2.9-11.1
		s21.1-0.1,29.7-6.7c0,0,7.2-4.5,2.9-9.3c0,0,19-3,23.7-10.6c0,0,2.1-2.1,1.4-5.7c0,0-0.1-2.1-2.2-2.2c0,0,21.6-3.3,27.9-10.5
		c0,0,3-3.3,1.5-7.7c0,0-0.3-1.2-0.8-1.9c0,0,19.7-4.2,29.4-12.9c0,0,5.6-5,2.7-11.7c0,0,32.9-9,25.3-23.5c0,0,15.4-5,10.5-18.9
		c0,0,12.7-6.5,7.2-16.7c-5.3-9.8-21.6,1.7-41,7.1c0,0-52.3,16.5-78,20.8L501,196.4l-42.7,16.4L454,243.3L454,243.3z"/>
	<path class="st2" d="M464.7,248.1c-6.1,0-11.2-4-11.3-4.1l-0.4-0.3l4.5-31.5l42.9-16.5l73.2-109l0.4-0.1
		c25.4-4.3,77.4-20.6,77.9-20.8c5.8-1.6,11.4-3.8,16.4-5.7c12-4.7,21.5-8.4,25.6-0.9c1.6,2.9,1.9,5.8,1,8.6c-1.5,4.8-6.2,7.9-7.9,9
		c1.2,3.8,1,7.4-0.6,10.5c-2.5,5-7.7,7.6-9.8,8.4c1.1,2.6,1.1,5.1,0,7.6c-3.9,9.1-21.1,14.7-25.3,16c2.2,6.7-3.2,11.7-3.3,11.8
		c-8.5,7.7-24.3,11.8-28.7,12.9c0.2,0.6,0.4,1.1,0.4,1.1c1.6,4.8-1.6,8.4-1.7,8.5c-5.2,5.9-20.2,9.2-26,10.3
		c0.4,0.6,0.5,1.2,0.6,1.6c0.7,3.7-1.2,5.9-1.6,6.4c-4.2,6.6-18.3,9.8-22.9,10.7c0.6,1,0.8,2.1,0.7,3.3c-0.5,3.4-4.1,5.8-4.6,6.1
		c-7.3,5.5-22.6,6.6-28.2,6.8c1.5,1.9,3.3,5.4,1.7,10.5c-1.2,3.9-4,6.2-8.1,6.8c-1,0.1-1.9,0.2-2.7,0.1c0.3,0.5,0.6,1.2,0.9,1.8
		c0.5,1.6,1.4,5.9-2.2,10.7c-4.2,5.5-11.4,5.2-13.9,4.9c-0.3,1.6-1.5,4.8-5.7,7.1c-4.5,2.4-9.5,0.7-11.5-0.3
		c-0.9,2.4-2.8,5.7-9.6,6.9c-6,1.1-9.7-1.5-11.1-2.8C470.8,247.2,467.6,248.1,464.7,248.1z M454.9,242.9c2,1.4,10.7,7.1,18.2-0.2
		l0.7-0.7l0.6,0.7c0.1,0.2,3.5,4,10.1,2.8c6.8-1.2,7.9-4.6,8.5-6.7l0.3-1l1,0.6c0.1,0,5.9,3.4,10.8,0.8c4.8-2.6,4.9-6.4,4.9-6.5
		l0-1.1l1,0.2c0.1,0,8.8,1.6,13.1-4.1c3.1-4.1,2.4-7.7,2-9c-0.5-1.7-1.5-2.6-2.2-2.8l0.5-1.7c0.4,0.1,9.2,2.3,11.7-5.4
		c2.1-6.6-2.4-10-2.6-10.1l-2.1-1.6l2.7,0c0.2,0,20.9-0.2,29.2-6.5l0.1,0c0,0,3.4-2.2,3.8-4.9c0.1-1.1-0.2-2.1-1.1-3l-1.1-1.2
		l1.6-0.3c0.2,0,18.6-3.1,23.1-10.2l0.1-0.2c0.1-0.1,1.7-1.8,1.1-4.9l0-0.1c0-0.3-0.2-1.3-1.4-1.4l-0.1-1.8
		c0.2,0,21.4-3.4,27.4-10.2c0.1-0.1,2.6-3,1.3-6.8c-0.1-0.3-0.4-1.2-0.7-1.7l-0.7-1.1l1.3-0.3c0.2,0,19.6-4.2,29-12.7
		c0.2-0.2,5.1-4.7,2.5-10.7l-0.4-0.9l1-0.3c0.2-0.1,21-5.9,25.1-15.2c1-2.3,0.9-4.6-0.4-7l-0.5-0.9l1-0.3c0.1,0,7-2.3,9.7-7.9
		c1.4-2.9,1.5-6.2,0.2-9.8l-0.3-0.7l0.7-0.4c0.1,0,6.1-3.2,7.7-8.3c0.7-2.3,0.4-4.7-0.9-7.2c-3.3-6.2-11.8-2.9-23.4,1.7
		c-5,2-10.7,4.2-16.5,5.8c-0.5,0.2-52.1,16.4-77.7,20.8l-73.1,108.8l-42.5,16.4L454.9,242.9z"/>
</g>
<g>
	<path class="st3" d="M453.5,163.1c0,0,6.9-5.1,19.1,0.9c0,0,4.1,2.8,7.4-0.3c2.7-2.6,3-7.4-0.8-10.1c-9.1-6.8-12.5-27,1.4-35.5
		c0,0,20.1-11.9,93.9-30.7c0,0,6.2-1.7,9.5-0.9c3.6,0.9,6.1,4,6.6,6.7c0,0,3.3,9.4-7.8,14.8c0,0-5,2.3-10.2,3.8c0,0,5.7-1.2,8.1,4.4
		c2.3,5.4-1,10.8-11.5,14.4c0,0-2.8,1.1-6.8,2.1c0,0,8.9,2.6,4.6,9.7c0,0-3.8,7.6-17.3,8.9c0,0,10.1,1.1,2.9,10.7
		c0,0-3.1,5.2-13,7.2c0,0,7.5,0.2,3.7,6.9c-3.8,6.7-12.6,10.5-21.3,11.1c0,0-4.7,0.2-8-0.5c0,0,8.3,4.1,3.4,11.1
		c0,0-3.6,4.9-12.6,4.7c0,0,2.3,7.8-4.3,10.7c-5.1,2.3-9.4-1.4-9.4-1.4s1.7,8.3-5.7,11.2c0,0-3.7,1.9-9.3,0c0,0-4.3,9.5-19.3,2.8
		C441.9,219.1,453.5,163.1,453.5,163.1z"/>
	<path class="st2" d="M466.7,229c-2.7,0-6-0.6-10-2.4c-15.6-6.9-4.5-61.4-4.1-63.7l0.1-0.3l0.3-0.2c0.3-0.2,7.4-5.4,20,0.8l0.1,0.1
		c0.1,0.1,3.6,2.4,6.2-0.2c1.2-1.2,1.9-2.8,1.8-4.5c-0.1-1.7-1-3.2-2.4-4.3c-5.2-3.9-8.6-12.1-8.3-19.9c0.3-7.4,3.8-13.4,9.7-17
		c0.2-0.1,5.3-3.1,19.4-8.4c13-4.9,36.6-12.7,74.7-22.4c0.2-0.1,6.4-1.8,9.9-0.9c4,1,6.7,4.4,7.3,7.3c0.3,0.9,2.9,10.4-8.3,15.8
		c-0.2,0.1-2.8,1.3-6.2,2.5c1.7,0.7,3.5,2,4.6,4.5c1,2.3,1,4.7,0.1,6.9c-1.6,3.5-5.7,6.6-12,8.7c-0.1,0-1.8,0.7-4.4,1.4
		c1.3,0.8,2.9,2,3.6,3.8c0.7,1.9,0.4,3.9-0.9,6.2c-0.3,0.6-3.7,6.7-14.4,8.8c0.9,0.5,1.8,1.3,2.3,2.5c1,2.2,0.2,5-2.3,8.4
		c-0.3,0.5-3,4.5-10.3,6.7c0.7,0.4,1.3,0.9,1.7,1.6c0.8,1.5,0.6,3.4-0.7,5.7c-2.8,5-10.1,10.7-22,11.5c-0.1,0-2.4,0.1-4.8,0
		c1,1,1.9,2.3,2.4,3.9c0.5,2.1,0,4.2-1.5,6.4c-0.2,0.2-3.7,4.9-12.2,5.1c0.6,3.2,0.1,8.3-5,10.6c-3.6,1.6-6.9,0.5-8.7-0.4
		c0.1,2.8-0.7,8-6.4,10.3c-0.5,0.2-4,1.8-9.2,0.3c-0.6,0.9-1.8,2.5-4,3.6C471.3,228.4,469.4,229,466.7,229z M454.3,163.6
		c-0.4,2.3-2.9,15.1-3.8,28.4c-1.3,19,1.1,30.4,6.9,33c14,6.2,18-2,18.2-2.4l0.3-0.7l0.8,0.3c5.1,1.8,8.6,0.1,8.6,0l0.1,0
		c6.7-2.6,5.2-9.9,5.2-10.2l-0.5-2.5l2,1.7c0.2,0.1,3.9,3.3,8.4,1.2c5.8-2.6,3.9-9.3,3.8-9.6l-0.4-1.2l1.2,0
		c8.3,0.2,11.7-4.1,11.8-4.3c1.2-1.7,1.6-3.4,1.2-4.9c-0.8-3-4.3-4.8-4.3-4.8l0.6-1.7c3.1,0.7,7.7,0.5,7.8,0.5
		c9.4-0.7,17.3-4.7,20.6-10.6c1-1.7,1.2-3.1,0.7-4c-0.7-1.3-2.9-1.6-3.6-1.7l-0.1-1.7c9.3-1.8,12.3-6.7,12.4-6.8l0-0.1
		c2.1-2.8,2.8-5.1,2.1-6.6c-1-2.2-4.4-2.6-4.5-2.6l0-1.8c6.7-0.7,10.8-2.9,13.2-4.7c2.5-1.9,3.4-3.7,3.4-3.7
		c1.1-1.8,1.3-3.4,0.8-4.7c-1-2.7-4.8-3.8-4.9-3.8l-3.2-0.9l3.2-0.8c3.9-0.9,6.7-2,6.7-2c5.9-2,9.7-4.7,11-7.7
		c0.8-1.7,0.8-3.6-0.1-5.5c-2.1-4.9-6.9-3.9-7.1-3.9l-0.4-1.7c5-1.4,10-3.7,10.1-3.7c10.2-4.9,7.5-13.3,7.3-13.7l0-0.1
		c-0.4-2.3-2.7-5.2-6-6c-3-0.8-9,0.9-9,0.9c-38,9.7-61.5,17.5-74.5,22.3c-14.1,5.3-19.2,8.3-19.3,8.3c-5.4,3.3-8.6,8.8-8.9,15.6
		c-0.3,7.3,2.8,14.9,7.6,18.4c1.9,1.4,3,3.4,3.1,5.6c0.1,2.2-0.7,4.4-2.3,5.9c-2.9,2.8-6.8,1.5-8.4,0.4
		C461.8,159.7,455.6,162.8,454.3,163.6z"/>
</g>
<path class="st2" d="M588.6,104.6l-0.3-1.7c72.8-13.5,97.1-27.2,97.3-27.4l0.9,1.5C686.2,77.2,661.7,91,588.6,104.6z"/>
<g>
	<path class="st3" d="M262.5,319.1c0,0-8.8,15.1-19.4,15.4c0,0-18.3-2.2-23.5,2.6c-3.6,3.3-7.3,6.1-8.8,14.6
		c-1.5,8.5,2.9,10.4,3.9,10.7c0,0,0.8,6.1,6.8,4.5c0,0,0.3,6.3,11,3.3c10.6-3,15-2.1,17.1-12.7c2.1-10.6,4-10.4,5.9-11.7
		c2.5-1.7,7.3-3.3,10.9-5.4c3.2-1.8,15.4-8,19.5-8.5c4.2-0.5,3.2-14.5,3.2-14.5h-10.8l-5.2-7.7L262.5,319.1L262.5,319.1z"/>
	<path class="st2" d="M227.4,371.9c-1.9,0-3.4-0.4-4.6-1.3c-1.2-0.8-1.7-1.9-2-2.7c-1.7,0.3-3.1,0-4.3-0.8c-1.8-1.2-2.4-3.2-2.6-4.1
		c-2-0.9-5.4-3.6-4-11.5c1.4-8.2,4.9-11.3,8.2-14.4c0.3-0.3,0.6-0.5,0.8-0.8c5.3-4.9,22.7-3,24.1-2.8c10-0.3,18.5-14.8,18.6-14.9
		l0.1-0.1l0.1-0.1l11.5-10l5.5,8.1H290l0.1,0.8c0.2,2.5,0.7,14.9-4,15.4c-4,0.5-16.1,6.6-19.2,8.4c-1.7,1-3.7,1.9-5.6,2.7
		c-2,0.9-4,1.8-5.2,2.6c-0.2,0.2-0.5,0.3-0.7,0.4c-1.5,0.9-3,1.8-4.8,10.7c-1.8,9.4-5.8,10.3-12.9,12.1c-1.4,0.4-3.1,0.8-4.9,1.3
		C230.7,371.6,228.9,371.9,227.4,371.9z M222.3,365.7l0.1,1.1c0,0.1,0.1,1.4,1.5,2.4c1.7,1.2,4.6,1.2,8.4,0.1
		c1.8-0.5,3.5-0.9,4.9-1.3c7-1.7,10-2.5,11.6-10.7c1.9-9.7,3.8-10.8,5.6-11.9c0.2-0.1,0.4-0.2,0.6-0.4c1.4-0.9,3.4-1.8,5.5-2.8
		c1.9-0.8,3.8-1.7,5.4-2.6c2.8-1.6,15.4-8.1,19.9-8.6c2.2-0.3,2.8-7.5,2.5-12.7H278l-4.9-7.2l-9.9,8.6c-0.4,0.7-2.5,4.1-5.8,7.6
		c-4.9,5.2-9.7,7.9-14.3,8l-0.1,0l-0.1,0c-5-0.6-18.8-1.4-22.8,2.3c-0.3,0.3-0.6,0.5-0.8,0.8c-3.3,3-6.3,5.8-7.7,13.4
		c-1.3,7.3,1.9,9.2,3.4,9.7l0.5,0.2l0.1,0.5c0,0,0.3,2.3,2,3.4c1,0.6,2.2,0.8,3.7,0.4L222.3,365.7z"/>
</g>
<path class="st2" d="M555.3,156.1l-0.1-1.8c20-1.7,62.3-11.8,62.7-11.9l0.4,1.7C617.8,144.3,575.4,154.4,555.3,156.1z M568.6,138.8
	l-0.3-1.7c43.5-7.4,81.3-19.1,81.6-19.3l0.5,1.7C650.1,119.6,612.2,131.4,568.6,138.8z M581.5,119.6l-0.2-1.8
	c29.4-2.5,93.2-23.3,93.9-23.5l0.5,1.7C675.1,96.2,611.1,117,581.5,119.6z"/>
<path class="st2" d="M544.5,172.7l-0.2-1.8c9-0.9,44.6-8.3,45-8.4l0.4,1.7C588.2,164.6,553.6,171.8,544.5,172.7z"/>
<g>
	<path class="st4" d="M549,218.1l1.8,57.1l-10.1-5.8l-16.8,72.5l-6.9-5l16.3-69.4l-11.4,0.2L549,218.1z"/>
	<path class="st2" d="M524.5,343.3l-8.5-6.1l16.2-68.9l-11.8,0.2l29.3-53.7l2,61.9l-10.4-6L524.5,343.3z M518,336.5l5.4,3.9
		l16.8-72.3l9.7,5.7l-1.6-52.3l-24.8,45.3l11-0.2L518,336.5z"/>
</g>
<path class="st2" d="M493.3,239.8c-0.2-0.2-5.7-5.1-6-10.8l1.8-0.1c0.3,4.9,5.4,9.5,5.4,9.6L493.3,239.8z M510.5,233.4
	c-0.3-0.1-7.3-2.9-10.8-10.4l1.6-0.7c3.2,6.9,9.7,9.5,9.8,9.5L510.5,233.4z M523.9,215.8c-0.4-0.1-9.2-2.5-14.6-6l1-1.5
	c5.1,3.3,14,5.7,14.1,5.7L523.9,215.8z M533.9,198.8c-0.4,0-10.7-0.5-15.8-1.4l0.3-1.7c5,0.8,15.5,1.3,15.6,1.3L533.9,198.8z
	 M530.8,186.6c-0.3,0-0.6,0-0.9,0l0-1.8c10.3,0.2,36.3-3.7,36.6-3.8l0.3,1.7C565.7,182.9,541.6,186.6,530.8,186.6z"/>
<g>
	<path class="st4" d="M614.2,243.5l-23.9,51.3l-6.3-10.1l-50.4,59.5l-5.5-6.1l50.2-58.8l-10.2-5.4L614.2,243.5z"/>
	<path class="st2" d="M533.7,345.5l-6.6-7.4l50-58.5l-10.5-5.6l49.8-32.9l-25.9,55.6l-6.5-10.5L533.7,345.5z M529.4,338.1l4.3,4.8
		l50.5-59.7l6.1,9.8l21.9-47L570,273.8l9.8,5.3L529.4,338.1z"/>
</g>
<path class="st2" d="M474.4,244l-0.6-0.7l-0.6-0.6c0,0,1.6-1.8,0.4-8.5l1.7-0.3C476.7,241.7,474.6,243.8,474.4,244z"/>
<g>
	<path class="st4" d="M592.5,205.9l-12.3,55.6l-8.3-8.4l-45.1,86.7l-6.9-4.1l45.4-86.5l-11.1-2.9L592.5,205.9z"/>
	<path class="st2" d="M527.1,341l-8.5-4.9l45.3-86.3l-11.4-3l41.5-43.9l-13.3,60.3l-8.6-8.7L527.1,341z M521,335.4l5.4,3.2l45.2-87
		l8,8.1l11.3-51l-35.1,37.1l10.7,2.8L521,335.4z"/>
</g>
<path class="st2" d="M477.2,223.3l-1.6-0.8c0,0,0.9-2,0.6-5.1l1.8-0.2C478.3,220.9,477.2,223.2,477.2,223.3z"/>
<g>
	<path class="st3" d="M296.4,243.3c0,0-10.8,8.8-19.8,0c0,0-3.6,4.4-10.9,3.1c-7.3-1.3-8.5-5.1-9.2-7.3c0,0-6.3,3.7-11.6,0.8
		c-5.3-2.9-5.3-7.3-5.3-7.3s-9.3,1.8-14-4.4c-4.7-6.3-1.9-12.5,0.7-13.2c0,0-10,2.6-12.7-6c-2.3-7.3,2.9-11.1,2.9-11.1
		s-21.1-0.1-29.7-6.7c0,0-7.2-4.5-2.9-9.3c0,0-19-3-23.7-10.6c0,0-2.1-2.1-1.4-5.7c0,0,0.1-2.1,2.2-2.2c0,0-21.6-3.3-27.9-10.5
		c0,0-3-3.3-1.5-7.7c0,0,0.3-1.2,0.8-1.9c0,0-19.7-4.2-29.4-12.9c0,0-5.6-5-2.7-11.7c0,0-32.9-9-25.3-23.5c0,0-15.4-5-10.5-18.9
		c0,0-12.7-6.5-7.2-16.7c5.3-9.8,21.6,1.7,41,7.1c0,0,52.3,16.5,78,20.8l73.2,108.9l42.7,16.4L296.4,243.3L296.4,243.3z"/>
	<path class="st2" d="M285.7,248.1c-2.9,0-6.1-0.9-9.1-3.5c-1.4,1.3-5.1,3.8-11.1,2.8c-6.8-1.2-8.7-4.6-9.6-6.9
		c-2.1,1-7.1,2.7-11.5,0.3c-4.2-2.3-5.3-5.5-5.7-7.1c-2.6,0.3-9.8,0.6-13.9-4.9c-3.6-4.8-2.8-9-2.2-10.7c0.2-0.7,0.5-1.3,0.9-1.9
		c-3.4,0.1-8.9-0.7-10.8-6.9c-1.6-5.1,0.2-8.6,1.7-10.5c-5.6-0.2-20.9-1.3-28.2-6.8c-0.4-0.3-4.1-2.7-4.6-6.1
		c-0.2-1.1,0.1-2.2,0.7-3.3c-4.5-0.9-18.6-4.1-22.9-10.7c-0.4-0.5-2.2-2.7-1.6-6.4c0-0.5,0.2-1.1,0.6-1.6c-5.9-1.1-20.8-4.4-26-10.4
		c-0.1-0.1-3.3-3.7-1.7-8.5c0,0,0.1-0.5,0.4-1c-4.4-1-20.1-5.2-28.7-12.9c-0.1,0-5.5-5-3.3-11.8c-4.3-1.3-21.4-6.9-25.3-16
		c-1.1-2.5-1.1-5.1,0-7.6c-2.1-0.9-7.3-3.4-9.8-8.4c-1.6-3.1-1.7-6.7-0.6-10.5c-1.8-1-6.4-4.2-7.9-9c-0.9-2.8-0.5-5.7,1-8.6
		c4.1-7.5,13.6-3.8,25.6,0.9c5,1.9,10.6,4.1,16.3,5.7c0.6,0.2,52.6,16.5,77.9,20.8l0.4,0.1l73.2,109l42.9,16.5l4.5,31.5l-0.4,0.3
		C296.8,244.1,291.8,248.1,285.7,248.1z M276.5,242l0.7,0.7c7.5,7.3,16.3,1.7,18.2,0.2l-4.2-29.4l-42.5-16.4l-0.2-0.2L175.6,88.3
		C150,83.9,98.4,67.7,97.9,67.5c-5.8-1.6-11.5-3.8-16.5-5.8C69.7,57.2,61.3,53.9,58,60c-1.3,2.4-1.6,4.9-0.9,7.2
		c1.6,5.1,7.6,8.3,7.7,8.3l0.7,0.3l-0.3,0.7c-1.3,3.6-1.2,6.9,0.2,9.8c2.8,5.6,9.7,7.9,9.7,7.9l1,0.3l-0.5,0.9
		c-1.3,2.4-1.4,4.7-0.4,7c4.1,9.4,24.9,15.2,25.1,15.2l1,0.3L101,119c-2.6,6,2.4,10.6,2.5,10.7c9.4,8.5,28.8,12.7,29,12.7l1.3,0.3
		l-0.7,1.1c-0.4,0.5-0.6,1.4-0.7,1.7c-1.3,3.9,1.3,6.8,1.3,6.8c6,6.8,27.2,10.2,27.4,10.2l-0.1,1.8c-1.2,0.1-1.3,1.1-1.4,1.4l0,0.1
		c-0.6,3.1,1.1,4.9,1.1,4.9l0.1,0.2c4.5,7.1,22.9,10.2,23.1,10.2l1.6,0.3l-1.1,1.2c-0.9,1-1.3,2-1.1,3c0.4,2.7,3.8,4.9,3.8,4.9
		l0.1,0c8.3,6.3,29,6.5,29.2,6.5l2.7,0l-2.2,1.6c-0.2,0.1-4.7,3.5-2.6,10.1c1,3.2,3.3,5.1,6.7,5.6c2.6,0.4,5-0.2,5-0.2l0.5,1.7
		c-0.7,0.2-1.6,1.2-2.2,2.8c-0.4,1.3-1.2,4.9,2,9c4.4,5.8,13,4.1,13.1,4.1l1.1-0.2v1.1c0,0.2,0.1,3.9,4.9,6.5
		c4.8,2.6,10.7-0.7,10.8-0.8l1-0.6l0.3,1.1c0.7,2.1,1.7,5.5,8.5,6.7c6.7,1.2,10-2.6,10.1-2.8L276.5,242z"/>
</g>
<path class="st2" d="M498,174.2l-1.3-1.1c5.9-7,6.2-16.6,1-28.6c-0.2-0.4-0.3-0.6-0.3-0.8l-0.2-0.4c-1.5-3.9-3.9-10.5,0.2-17.3
	c4.2-6.9,16.1-11.7,16.6-11.9l0.7,1.6c-0.1,0-11.9,4.8-15.8,11.2c-3.7,6.1-1.4,12.2-0.1,15.8l0.2,0.4c0.1,0.1,0.2,0.4,0.3,0.7
	C503.1,152.4,505.9,164.8,498,174.2z"/>
<g>
	<path class="st3" d="M296.9,163.1c0,0-6.9-5.1-19.1,0.9c0,0-4.1,2.8-7.4-0.3c-2.7-2.6-3-7.4,0.8-10.1c9.1-6.8,12.5-27-1.4-35.5
		c0,0-20.1-11.9-93.9-30.7c0,0-6.2-1.7-9.5-0.9c-3.6,0.9-6.1,4-6.6,6.7c0,0-3.3,9.4,7.8,14.8c0,0,5,2.3,10.2,3.8
		c0,0-5.7-1.2-8.1,4.4c-2.3,5.4,1,10.8,11.5,14.4c0,0,2.8,1.1,6.8,2.1c0,0-8.9,2.6-4.6,9.7c0,0,3.8,7.6,17.3,8.9
		c0,0-10.1,1.1-2.9,10.7c0,0,3.1,5.2,13,7.2c0,0-7.5,0.2-3.7,6.9c3.8,6.7,12.6,10.5,21.3,11.1c0,0,4.7,0.2,8-0.5
		c0,0-8.3,4.1-3.4,11.1c0,0,3.6,4.9,12.6,4.7c0,0-2.3,7.8,4.3,10.7c5.1,2.3,9.4-1.4,9.4-1.4s-1.7,8.3,5.7,11.2c0,0,3.7,1.9,9.3,0
		c0,0,4.3,9.5,19.3,2.8C308.4,219.1,296.9,163.1,296.9,163.1z"/>
	<path class="st2" d="M283.6,229c-2.6,0-4.6-0.6-6.1-1.4c-2.2-1.2-3.4-2.7-4-3.6c-5.2,1.6-8.8,0-9.2-0.3c-5.7-2.3-6.5-7.5-6.4-10.3
		c-1.8,1-5,2.1-8.7,0.4c-5.1-2.3-5.6-7.4-5-10.6c-8.5-0.2-12-4.9-12.2-5.1c-1.5-2.2-2-4.3-1.5-6.4c0.4-1.6,1.4-2.9,2.4-3.9
		c-2.5,0.2-4.7,0.1-4.8,0c-11.9-0.8-19.2-6.5-22-11.5c-1.3-2.3-1.5-4.2-0.7-5.7c0.4-0.7,1-1.3,1.7-1.6c-7.3-2.3-9.9-6.2-10.3-6.7
		c-2.5-3.4-3.3-6.2-2.3-8.4c0.5-1.1,1.4-1.9,2.3-2.5c-10.6-2.2-14.1-8.2-14.4-8.8c-1.3-2.2-1.6-4.3-0.9-6.2c0.7-1.8,2.3-3,3.6-3.8
		c-2.7-0.8-4.4-1.4-4.5-1.5c-6.3-2.1-10.4-5.1-12-8.7c-1-2.2-0.9-4.6,0.1-6.9c1.1-2.5,2.8-3.9,4.6-4.5c-3.4-1.2-6.1-2.4-6.2-2.5
		c-11.2-5.4-8.6-14.8-8.3-15.8c0.6-2.9,3.3-6.3,7.3-7.3c3.5-0.9,9.7,0.8,9.9,0.9c38.1,9.7,61.7,17.6,74.7,22.4
		c14.2,5.3,19.2,8.3,19.4,8.4c5.9,3.6,9.4,9.6,9.7,17c0.4,7.8-3,16-8.3,19.9c-1.5,1.1-2.3,2.6-2.4,4.3c-0.1,1.7,0.5,3.4,1.8,4.5
		c2.7,2.6,6.1,0.3,6.2,0.2l0.1-0.1c12.6-6.2,19.7-1.1,20-0.8l0.3,0.2l0.1,0.3c0.5,2.3,11.5,56.8-4.1,63.7
		C289.6,228.4,286.3,229,283.6,229z M274.4,221.8l0.3,0.7c0.2,0.3,4.1,8.6,18.2,2.4c5.8-2.6,8.2-14,6.9-33
		c-0.9-13.3-3.3-26.1-3.8-28.4c-1.3-0.8-7.5-4-17.8,1.1c-1.7,1.1-5.5,2.4-8.4-0.4c-1.6-1.5-2.4-3.7-2.3-5.9c0.1-2.2,1.3-4.2,3.1-5.6
		c4.8-3.6,7.9-11.1,7.6-18.4c-0.3-6.8-3.5-12.3-8.9-15.6c0,0-5.2-3-19.3-8.3c-13-4.8-36.4-12.7-74.4-22.3c-0.1,0-6-1.6-9-0.9
		c-3.3,0.8-5.6,3.7-6,6l0,0.1c-0.1,0.4-2.9,8.7,7.4,13.7c0,0,5,2.3,10,3.7l-0.4,1.7c-0.2,0-5-1-7.1,3.9c-0.8,1.9-0.8,3.7-0.1,5.5
		c1.4,3.1,5.2,5.8,11,7.7c0.1,0,2.9,1.1,6.8,2l3.2,0.8l-3.2,0.9c0,0-3.8,1.1-4.9,3.8c-0.5,1.3-0.3,2.9,0.8,4.6l0,0.1
		c0,0,0.9,1.8,3.4,3.7c2.3,1.8,6.5,4,13.2,4.7l0,1.8c0,0-3.5,0.4-4.5,2.6c-0.7,1.6,0.1,3.9,2.1,6.6l0,0.1c0,0,3.1,4.9,12.4,6.8
		l-0.1,1.7c-0.8,0-2.9,0.4-3.6,1.7c-0.5,0.9-0.3,2.2,0.7,4c3.3,5.9,11.2,10,20.6,10.6c0,0,4.6,0.2,7.8-0.5l0.6,1.7
		c0,0-3.5,1.8-4.3,4.8c-0.4,1.6,0,3.2,1.2,4.9c0.1,0.2,3.5,4.5,11.8,4.3l1.2,0l-0.4,1.2c-0.1,0.3-2,7.1,3.8,9.6
		c4.5,2,8.3-1.1,8.4-1.2l2-1.7l-0.5,2.5c-0.1,0.3-1.5,7.6,5.2,10.2l0.1,0c0,0,3.5,1.7,8.6,0L274.4,221.8z"/>
</g>
<path class="st2" d="M513.8,187.4c0,0-0.5-0.2-4.2-1.4l0.5-1.7c4.5,1.4,4.5,1.4,4.7,1.6l-0.6,0.6L513.8,187.4z M525.4,171.5l0-1.8
	c6.9-0.1,14.1-1.5,14.2-1.5l0.3,1.7C539.9,169.9,532.5,171.4,525.4,171.5z M514.2,164.1l-1.1-1.4c10.1-8.3,5.5-15.9,5.2-16.3
	l-0.4-0.7l0.7-0.5c3.8-2.7,5.8-5.8,6.1-9c0.3-5.1-3.9-9.1-3.9-9.1l1.2-1.3c0.2,0.2,4.9,4.6,4.5,10.5c-0.2,3.6-2.3,7-6.2,9.9
	C521.3,148.6,523.7,156.3,514.2,164.1z M534.9,152.8c-0.5,0-1.1,0-1.6,0l0-1.8c7.8,0.1,16.3-0.7,16.4-0.7l0.2,1.8
	C549.8,152.1,542.3,152.8,534.9,152.8z M543.6,136l0-1.8c6.4-0.1,18.6-2.5,18.7-2.5l0.3,1.7C562.1,133.5,550.2,135.9,543.6,136z
	 M546.4,118.5l-0.2-1.7c11.1-1.5,26.1-5.8,26.3-5.8l0.5,1.7C572.7,112.6,557.6,116.9,546.4,118.5z"/>
<g>
	<path class="st3" d="M297.8,249.5c0,0-2.2,11.9-19.8,26.9c0,0-13.6,12-13.2,25.7c0.4,14-2.4,15.6-7.8,20.3c0,0,11,0.9,16.3-6.5
		c0,0-0.2,12.2-1.9,13.3c0,0,3.4,0.2,8.4-5.2c0,0,3-3.2,5.8-4.4c0,0-3.2,8.4-0.7,16.2c0,0,0.8-3,5.1-4.4c0,0,7.8-1.6,10.8-12.8
		c0,0,2-7.4,14.1-14c0,0,13.8-5.2,13.4-12C328.1,285.8,297.8,249.5,297.8,249.5z"/>
	<path class="st2" d="M285.1,338.8l-0.9-2.7c-1.8-5.6-0.8-11.5,0-14.6c-1.9,1.3-3.6,3.1-3.6,3.1c-5.2,5.7-9,5.5-9.1,5.5l-2.6-0.2
		l2.1-1.4c0.6-0.7,1.2-5.4,1.4-10.1c-5.8,5.6-15,4.9-15.4,4.9l-2.1-0.2l1.5-1.4c0.3-0.3,0.6-0.5,0.9-0.8c4.6-4,6.9-6.1,6.6-18.9
		c-0.2-7.4,3.5-14.1,6.6-18.6c3.4-4.7,6.7-7.7,6.9-7.8c8.9-7.6,13.8-14.4,16.2-18.7c2.7-4.7,3.3-7.6,3.3-7.7l0.4-1.8l1.2,1.4
		c3.1,3.7,30.5,36.8,30.8,43.7c0.4,7.2-12.8,12.4-13.9,12.8c-11.6,6.3-13.6,13.4-13.6,13.4c-3,11.3-10.6,13.2-11.4,13.4
		c-3.7,1.2-4.4,3.7-4.5,3.8L285.1,338.8z M287.3,317.9l-0.8,2c0,0.1-2.6,6.8-1.2,13.6c0.8-1,2.2-2.2,4.5-2.9l0.1,0
		c0.3-0.1,7.3-1.7,10.1-12.2c0.1-0.3,2.2-7.9,14.5-14.6l0.1,0c3.7-1.4,13.1-6.1,12.8-11.1c-0.3-5.1-20.3-30.4-29.4-41.3
		c-1.3,3.9-5.7,13.8-19.6,25.7c-0.1,0.1-13.2,11.8-12.9,25c0.3,12.8-2,15.6-6.3,19.5c3.4-0.2,9.7-1.2,13.3-6.1l1.6-2.3l-0.1,2.8
		c-0.1,3.6-0.3,9.1-1.2,12.1c1.4-0.5,3.6-1.7,6.3-4.6c0.1-0.1,3.2-3.3,6.1-4.6L287.3,317.9z"/>
</g>
<path class="st2" d="M470.3,208.3c-1.1,0-2.3-0.1-3.6-0.3l0.3-1.7c12.8,2.1,15-8.1,15.1-8.6l0.1-0.7l0.7,0
	c6.2,0.2,10.5-1.3,12.8-4.2c2.9-3.7,1.7-8.7,1.7-8.7l-0.3-1.1h1.1c6.3,0,11-1.7,13.9-4.9c4-4.4,3.5-10.3,3.5-10.4l1.8-0.2
	c0,0.3,0.6,6.7-3.9,11.7c-3.1,3.5-7.9,5.3-14.2,5.5c0.3,1.9,0.4,5.9-2.2,9.2c-2.6,3.3-7.2,4.9-13.6,4.9
	C482.8,201.1,479.8,208.3,470.3,208.3z"/>
<g>
	<path class="st3" d="M487.9,319.1c0,0,8.8,15.1,19.4,15.4c0,0,18.3-2.2,23.5,2.6c3.6,3.3,7.3,6.1,8.8,14.6
		c1.5,8.5-2.9,10.4-3.9,10.7c0,0-0.8,6.1-6.8,4.5c0,0-0.3,6.3-11,3.3s-15-2.1-17.1-12.7c-2.1-10.6-4-10.4-5.9-11.7
		c-2.5-1.7-7.3-3.3-10.9-5.4c-3.2-1.8-15.4-8-19.6-8.5c-4.2-0.5-3.2-14.5-3.2-14.5h10.8l5.2-7.7L487.9,319.1L487.9,319.1z"/>
	<path class="st2" d="M523,371.9c-1.6,0-3.3-0.3-5.4-0.9c-1.8-0.5-3.4-0.9-4.9-1.3c-7.1-1.8-11-2.7-12.9-12.1
		c-1.8-8.9-3.3-9.8-4.8-10.7c-0.2-0.1-0.5-0.3-0.7-0.4c-1.3-0.9-3.2-1.7-5.2-2.6c-1.9-0.8-3.9-1.7-5.6-2.7c-3.1-1.8-15.2-8-19.2-8.4
		c-4.8-0.6-4.2-13-4-15.4l0.1-0.8h11.1l5.5-8.1l11.6,10.1l0.1,0.1c0.1,0.1,8.6,14.6,18.6,14.9c1.4-0.2,18.8-2.1,24.1,2.8
		c0.3,0.3,0.6,0.5,0.8,0.8c3.3,3,6.8,6.2,8.2,14.4c1.4,7.9-2,10.6-4,11.5c-0.2,0.9-0.9,2.9-2.6,4.1c-1.2,0.8-2.6,1.1-4.3,0.8
		c-0.2,0.8-0.8,1.9-2,2.7C526.4,371.4,524.8,371.9,523,371.9z M462,318.3c-0.2,5.3,0.4,12.5,2.5,12.7c4.5,0.5,17.1,7,19.9,8.6
		c1.6,0.9,3.6,1.8,5.4,2.6c2.1,0.9,4.1,1.8,5.5,2.8c0.2,0.1,0.4,0.3,0.6,0.4c1.8,1.1,3.7,2.2,5.6,11.9c1.6,8.3,4.5,9,11.6,10.7
		c1.5,0.4,3.1,0.8,4.9,1.3c3.8,1.1,6.7,1.1,8.4-0.1c1.4-0.9,1.5-2.3,1.5-2.4l0.1-1.1l1,0.3c1.5,0.4,2.8,0.3,3.7-0.4
		c1.6-1.1,2-3.4,2-3.4l0.1-0.5l0.5-0.2c1.4-0.5,4.6-2.5,3.4-9.7c-1.3-7.6-4.4-10.4-7.7-13.4c-0.3-0.3-0.6-0.5-0.8-0.8
		c-4-3.7-17.8-2.9-22.8-2.3l-0.1,0l-0.1,0c-4.7-0.1-9.5-2.8-14.3-8c-3.2-3.5-5.3-6.9-5.8-7.6l-9.9-8.6l-4.9,7.2H462z"/>
</g>
<g>
	<path class="st3" d="M452.6,249.5c0,0,2.2,11.9,19.8,26.9c0,0,13.6,12,13.2,25.7c-0.4,14,2.4,15.6,7.8,20.3c0,0-11,0.9-16.3-6.5
		c0,0,0.2,12.2,1.9,13.3c0,0-3.4,0.2-8.4-5.2c0,0-3-3.2-5.8-4.4c0,0,3.2,8.4,0.7,16.2c0,0-0.8-3-5.1-4.4c0,0-7.8-1.6-10.8-12.8
		c0,0-2-7.4-14.1-14c0,0-13.8-5.2-13.4-12C422.3,285.8,452.6,249.5,452.6,249.5L452.6,249.5z"/>
	<path class="st2" d="M465.3,338.9l-0.8-2.9c0-0.1-0.8-2.6-4.5-3.8c-0.8-0.2-8.4-2.2-11.4-13.4c0-0.1-2.1-7.2-13.6-13.4
		c-1.1-0.4-14.3-5.6-13.9-12.8c0.4-6.9,27.7-39.9,30.8-43.7l1.2-1.4l0.3,1.8c0,0,0.6,3,3.3,7.7c2.5,4.3,7.3,11.1,16.2,18.7
		c0.2,0.1,3.5,3.1,6.9,7.9c3.1,4.4,6.8,11.2,6.6,18.6c-0.3,12.8,2,14.8,6.6,18.9c0.3,0.3,0.6,0.5,0.9,0.8l1.5,1.4l-2.1,0.2
		c-0.4,0-9.6,0.7-15.4-4.9c0.2,4.7,0.7,9.5,1.4,10.1l2.1,1.4l-2.6,0.1c-0.2,0-3.9,0.2-9.2-5.5c0,0-1.7-1.8-3.6-3.1
		c0.8,3.1,1.9,8.9,0,14.6L465.3,338.9z M452.2,251.3c-9,10.9-29.1,36.2-29.4,41.3c-0.3,5,9.2,9.7,12.8,11.1l0.1,0
		c12.3,6.7,14.5,14.2,14.5,14.6c2.8,10.5,9.8,12.1,10.1,12.2l0.1,0c2.3,0.7,3.7,1.9,4.5,2.9c1.3-6.8-1.2-13.5-1.2-13.6l-0.8-2
		l1.9,0.8c2.9,1.3,5.9,4.5,6.1,4.6c2.7,3,4.9,4.1,6.3,4.6c-0.9-3-1.1-8.5-1.2-12.1l-0.1-2.8l1.6,2.3c3.5,4.9,9.9,5.9,13.3,6.1
		c-4.3-3.8-6.6-6.7-6.3-19.5c0.3-13.2-12.8-24.9-12.9-25C457.9,265.1,453.5,255.2,452.2,251.3z"/>
</g>
<path class="st2" d="M501.7,335.6c-3,0-4.5-0.3-4.5-0.3l0.4-1.7l-0.2,0.9l0.2-0.9c0,0,3.1,0.7,9.7,0l0.2,1.8
	C505.1,335.6,503.2,335.6,501.7,335.6z"/>
<path class="st2" d="M529.7,366.9l-1.8-0.1c0.3-10.6-2-15-3.9-16.9c-1.6-1.5-3.1-1.4-3.2-1.4l-0.2-1.8c0.1,0,2.3-0.3,4.5,1.7
	C528.5,351.6,530,357.7,529.7,366.9z M536.6,362.4l-1.8,0c0.2-10.7-2.2-15.1-4.3-17c-1.9-1.7-3.8-1.5-3.8-1.5l-0.3-1.7
	c0.1,0,2.7-0.4,5.2,1.9C535.1,347,536.8,353.2,536.6,362.4z"/>
<path class="st2" d="M469.5,314.1c-1.7,0-5-0.3-7.1-2.7c-2.3-2.6-5.6-3.3-5.7-3.3l0.4-1.7c0.2,0,4,0.8,6.6,3.9
	c1.3,1.5,3.3,1.9,4.8,2c-0.9-1.3-2-3.3-2.5-6.4c-0.8-4.8-3.3-6.2-3.4-6.3l0.9-1.5c0.1,0.1,3.3,1.9,4.3,7.5c0.8,4.9,3.2,6.9,3.2,6.9
	l1.6,1.3l-2.1,0.2C470.4,314.1,470,314.1,469.5,314.1z M451.4,306.7c-1.9,0-5.7-0.4-8-3c-2.7-3-6.5-3.9-6.6-3.9l0.4-1.7
	c0.2,0,4.5,1,7.5,4.4c1.6,1.8,4.1,2.3,5.8,2.4c-1-1.4-2.3-3.8-3-7.5c-0.9-5.5-3.8-7.2-4-7.3l0.9-1.5c0.2,0.1,3.7,2.1,4.8,8.5
	c1,5.6,3.7,8,3.7,8l1.6,1.3l-2.1,0.2C452.5,306.7,452.1,306.7,451.4,306.7z M468.4,291.4c-1.9,0-5.7-0.4-8-3c-2.7-3-6.5-3.9-6.6-3.9
	l0.4-1.7c0.2,0,4.5,1,7.5,4.4c1.6,1.8,4.1,2.3,5.8,2.4c-1-1.4-2.3-3.8-3-7.5c-0.9-5.5-3.8-7.2-4-7.3l0.9-1.5
	c0.2,0.1,3.7,2.1,4.8,8.5c1,5.6,3.7,8,3.7,8l1.6,1.3l-2.1,0.2C469.5,291.3,469.1,291.4,468.4,291.4z"/>
<g>
	<path class="st3" d="M388.8,402.8c0,0,3.2,13.9,14.1,12.8c0,0,7.8-0.7,7.2-13.6c0,0,11.5,6.1,13.3-9c0,0,10.4,2.4,10.3-11.7
		c0,0,9.7,1.7,8.6-10.8c0,0,10.5,2.8,10.5-9c0,0,24.6-4.1-26.7-50.9l-45.8,27.3L388.8,402.8L388.8,402.8z"/>
	<path class="st2" d="M401.7,416.5c-10.5,0-13.7-13.4-13.7-13.5l0-0.1l-8.6-65.6l46.9-27.9l0.5,0.4c24.2,22.1,35.2,37.9,32.5,46.9
		c-1.1,3.7-4.1,5-5.5,5.4c-0.1,3.6-1.2,6.2-3.3,7.8c-2.4,1.9-5.5,1.8-7.1,1.6c0.2,3.9-0.7,6.9-2.7,8.7c-2,1.8-4.5,2.1-5.9,2
		c-0.1,4.6-1.4,8-3.9,9.9c-2.4,1.9-5.1,1.9-6.6,1.8c-0.7,4.7-2.5,7.8-5.3,9.2c-2.9,1.5-6.1,0.8-7.9,0.1c0,4.9-1.2,8.6-3.7,11
		c-2.1,2-4.2,2.2-4.3,2.2C402.5,416.5,402.1,416.5,401.7,416.5z M389.7,402.6c0.2,0.9,3.3,13.1,13.2,12.1c0.3,0,6.9-0.9,6.4-12.7
		l-0.1-1.5l1.4,0.7c0,0,4.2,2.2,7.6,0.4c2.4-1.3,3.9-4.2,4.4-8.8l0.1-1l1,0.2c0,0,3.4,0.7,6-1.3c2.2-1.7,3.2-4.9,3.2-9.5l0-1.1
		l1,0.2c0,0,3.2,0.5,5.4-1.5c1.8-1.6,2.5-4.4,2.1-8.4l-0.1-1.3l1.2,0.3c0,0,4.1,1,6.8-1.1c1.7-1.4,2.6-3.7,2.6-7.1v-0.7l0.7-0.1
		c0.2,0,3.8-0.7,4.9-4.4c3.1-10.7-18.2-32.3-31.6-44.6l-44.7,26.7L389.7,402.6z"/>
</g>
<g>
	<path class="st3" d="M383.7,340.3c0,0,7.6,6.8,13.1-3.3c0,0,7.4-0.4,8.6-6c0,0,6-0.6,7.2-6.3c0,0,8.2-0.9,8-7.8
		c0,0,14.9-1.2,0-18.1c-14.9-16.9-40.3,28-40.3,28L383.7,340.3z"/>
	<path class="st2" d="M389.4,343.4c-3.4,0-6.1-2.3-6.2-2.4l-0.2-0.2l-3.6-14.1l0.2-0.3c0-0.1,4.4-7.7,10.4-15.4
		c8.2-10.5,15.5-16.1,21.7-16.8c3.7-0.4,6.9,1,9.6,4c5.7,6.5,7.9,11.6,6.4,15.1c-1.2,3-4.6,4-6.2,4.3c-0.3,5.2-5.1,7.3-8.1,7.8
		c-1.3,4.6-5.6,6-7.2,6.3c-1.4,4.9-7,5.8-8.7,6c-1.8,3.2-4,5-6.7,5.5C390.2,343.4,389.8,343.4,389.4,343.4z M384.5,339.8
		c0.7,0.5,3.2,2.2,5.9,1.8c2.2-0.4,4.1-2.1,5.6-5l0.2-0.4l0.5,0c0.1,0,6.7-0.4,7.7-5.3l0.1-0.6l0.6-0.1c0.2,0,5.4-0.6,6.4-5.6
		l0.1-0.6l0.6-0.1c0.3,0,7.4-0.9,7.2-6.9l0-0.8l0.8-0.1c0,0,4.3-0.4,5.5-3.3c0.8-2,0.4-5.9-6.1-13.3c-2.3-2.6-5-3.8-8.1-3.5
		c-13,1.4-28.7,27.9-30.6,31L384.5,339.8z"/>
</g>
<path class="st2" d="M409.2,402c0-0.2-1.4-24.7-22.3-59.2l1.5-0.9c21.1,34.9,22.5,59.7,22.5,60L409.2,402z M424.2,393.1l-1.7-0.4
	l0.9,0.2l-0.9-0.2c0-0.1,2.7-14.5-26.5-55.2l-0.3-0.4l0.1-0.4c0.1-0.4,3.1-9.4-6.8-15.3l0.9-1.5c9.8,5.9,8.2,14.9,7.7,17
	C427.3,378.2,424.4,392.5,424.2,393.1z M434.6,381.3l-1.8-0.1l0.9,0.1l-0.9,0c0-0.2,0.4-15.5-28.1-49.6l-0.3-0.4l0.1-0.5
	c0.1-0.3,2.2-8.5-7.7-15.2l1-1.5c5.7,3.9,7.7,8.3,8.4,11.3c0.5,2.5,0.3,4.5,0.1,5.4C435.2,365.3,434.6,380.6,434.6,381.3z
	 M441.4,370.5c0,0-0.3-3.9-4.1-11.4c-3.5-6.9-10.7-18.4-25.4-33.8l-0.3-0.3l0.1-0.4c0.1-0.4,1.2-8.7-8.4-14.1l0.9-1.5
	c5.6,3.1,7.8,7.2,8.7,10.2c0.7,2.4,0.7,4.4,0.6,5.3c28.2,29.9,29.6,45.3,29.7,45.9L441.4,370.5z M451.9,361.5
	c0-0.2-2.5-17.7-32-43.9l-0.4-0.3l0.1-0.5c0-0.1,0.8-6.5-8.7-13.2l1-1.4c9,6.3,9.5,12.6,9.4,14.4c29.8,26.6,32.2,44,32.2,44.7
	L451.9,361.5l0.9-0.1L451.9,361.5z"/>
<g>
	<path class="st3" d="M361.6,402.8c0,0-3.2,13.9-14.1,12.8c0,0-7.8-0.7-7.2-13.6c0,0-11.5,6.1-13.3-9c0,0-10.4,2.4-10.3-11.7
		c0,0-9.7,1.7-8.6-10.8c0,0-10.5,2.8-10.5-9c0,0-24.6-4.1,26.7-50.9l45.8,27.3L361.6,402.8L361.6,402.8z"/>
	<path class="st2" d="M348.7,416.5c-0.4,0-0.9,0-1.3-0.1c-0.1,0-2.3-0.2-4.3-2.2c-2.4-2.4-3.7-6-3.7-11c-1.8,0.6-5,1.4-7.9-0.1
		c-2.8-1.4-4.5-4.5-5.3-9.2c-1.4,0.1-4.2,0.1-6.6-1.8c-2.4-2-3.7-5.3-3.9-9.9c-1.4,0-3.9-0.2-5.9-2c-2-1.8-2.9-4.8-2.7-8.7
		c-1.6,0.2-4.7,0.3-7.1-1.6c-2.1-1.6-3.2-4.2-3.3-7.8c-1.4-0.4-4.5-1.7-5.5-5.4c-2.7-9,8.3-24.7,32.5-46.9l0.5-0.4l46.9,27.9
		l-8.7,65.7C362.4,403.1,359.2,416.5,348.7,416.5z M341.2,400.4l-0.1,1.5c-0.5,11.8,6.1,12.7,6.4,12.7c4.2,0.4,7.6-1.4,10.3-5.5
		c1.9-3,2.8-6.2,2.8-6.5l8.5-64.4l-44.7-26.7c-13.4,12.3-34.7,33.9-31.6,44.6c1.1,3.7,4.8,4.3,4.9,4.4l0.7,0.1v0.7
		c0,3.4,0.9,5.8,2.6,7.1c2.7,2.1,6.7,1.1,6.8,1.1l1.2-0.3l-0.1,1.3c-0.4,3.9,0.3,6.8,2.1,8.4c2.2,2,5.4,1.5,5.4,1.5l1-0.2l0,1.1
		c0,4.6,1,7.8,3.2,9.5c2.6,2.1,6,1.3,6,1.3l1-0.2l0.1,1c0.6,4.6,2.1,7.5,4.4,8.8c3.4,1.8,7.5-0.4,7.6-0.4L341.2,400.4z"/>
</g>
<g>
	<path class="st3" d="M366.7,340.3c0,0-7.6,6.8-13.1-3.3c0,0-7.4-0.4-8.6-6c0,0-6-0.6-7.2-6.3c0,0-8.2-0.9-8-7.8
		c0,0-14.9-1.2,0-18.1c14.9-16.9,40.3,28,40.3,28L366.7,340.3L366.7,340.3z"/>
	<path class="st2" d="M361,343.4c-0.4,0-0.9,0-1.3-0.1c-2.6-0.5-4.8-2.3-6.7-5.5c-1.7-0.2-7.3-1.2-8.7-6c-1.6-0.3-5.9-1.7-7.2-6.3
		c-3.1-0.5-7.9-2.6-8.1-7.8c-1.6-0.3-5-1.2-6.2-4.3c-1.5-3.6,0.7-8.7,6.4-15.1c2.7-3.1,5.9-4.4,9.6-4c6.2,0.7,13.5,6.3,21.7,16.8
		c6,7.7,10.4,15.4,10.4,15.4l0.2,0.3l-3.6,14.1l-0.2,0.2C367.1,341.1,364.5,343.4,361,343.4z M337.6,295.9c-2.7,0-5,1.2-7.1,3.5
		c-6.5,7.4-6.9,11.3-6.1,13.3c1.2,2.9,5.5,3.3,5.5,3.3l0.8,0.1l0,0.8c-0.2,6,6.9,6.9,7.2,6.9l0.6,0.1l0.1,0.6c1,5,6.2,5.6,6.4,5.6
		l0.6,0.1l0.1,0.6c1,4.9,7.7,5.3,7.7,5.3l0.5,0l0.2,0.4c1.6,2.9,3.5,4.6,5.6,5c2.7,0.5,5.2-1.2,5.9-1.8l3.3-12.8
		c-1.8-3.2-17.6-29.7-30.6-31C338.3,295.9,337.9,295.9,337.6,295.9z"/>
</g>
<path class="st2" d="M341.2,402l-1.8-0.1c0-0.3,0.3-6.3,3.3-16.8c2.7-9.6,8.2-25,19.2-43.2l1.5,0.9
	C342.6,377.3,341.2,401.7,341.2,402z M326.1,393.1c-0.1-0.6-3-14.9,26.5-56.3c-0.5-2.1-2.1-11.1,7.7-17l0.9,1.5
	c-9.9,5.9-6.9,15-6.8,15.3l0.1,0.4l-0.3,0.4c-15.2,21.3-21.6,35.1-24.3,43c-2.9,8.6-2.2,12.1-2.2,12.2L326.1,393.1z"/>
<g>
	<path class="st3" d="M375.2,336.2c7.4,0,15.8,46.2,13.6,74.1c-0.8,10.1-6.2,18.4-13.6,18.4s-12.8-8.3-13.6-18.4
		C359.4,382.4,367.8,336.2,375.2,336.2"/>
	<path class="st2" d="M375.2,429.5c-7.5,0-13.6-8.1-14.5-19.2c-1.9-24.7,4.7-65.9,11.7-73.6c1.8-1.9,3.7-1.9,5.5,0
		c7.1,7.7,13.7,48.9,11.7,73.6C388.8,421.4,382.7,429.5,375.2,429.5z M375.2,337c-0.5,0-1.1,0.5-1.4,0.9
		c-6.3,6.8-13.3,46.1-11.3,72.3c0.8,10.2,6.1,17.6,12.7,17.6c6.6,0,11.9-7.4,12.7-17.6c2-26.2-5-65.4-11.3-72.3
		C376.3,337.5,375.7,337,375.2,337z"/>
</g>
<path class="st2" d="M315.8,381.3c0-0.6-0.6-15.9,28.3-50.5c-0.4-2-1.1-10.2,8.5-16.7l1,1.5c-9.9,6.7-7.8,14.9-7.7,15.2l0.1,0.4
	l-0.3,0.4c-14.9,17.8-21.8,30.3-24.9,37.7c-3.4,8-3.2,11.8-3.2,11.9L315.8,381.3z M309,370.5l-1.8-0.1c0-0.6,1.4-16,29.7-45.9
	c-0.1-2,0-10.2,9.3-15.4l0.9,1.5c-9.6,5.4-8.4,14-8.4,14.1l0.1,0.4l-0.3,0.3C310.5,354.8,309,370.3,309,370.5z"/>
<g>
	<ellipse class="st3" cx="375.2" cy="335.8" rx="10.2" ry="15.2"/>
	<path class="st2" d="M375.2,351.8c-6.1,0-11.1-7.2-11.1-16.1c0-8.8,5-16.1,11.1-16.1c6.1,0,11.1,7.2,11.1,16.1
		C386.3,344.6,381.3,351.8,375.2,351.8z M375.2,321.5c-5.2,0-9.4,6.4-9.4,14.3c0,7.9,4.2,14.3,9.4,14.3c5.2,0,9.4-6.4,9.4-14.3
		C384.5,327.9,380.3,321.5,375.2,321.5z"/>
</g>
<path class="st2" d="M298.5,361.5l-1.8-0.2c0.1-0.7,2.4-18.2,32.2-44.7c-0.1-1.8,0.5-8.1,9.4-14.4l1,1.4c-4.9,3.5-7,6.9-7.9,9.1
	c-0.9,2.4-0.7,4-0.7,4l0.1,0.5l-0.4,0.3C300.9,343.8,298.5,361.3,298.5,361.5z"/>
<g>
	<path class="st0" d="M375.2,332.5c0,0,86.9-38.5,87.1-127.5H288.1C288.3,294,375.2,332.5,375.2,332.5z"/>
	<path class="st2" d="M375.2,333.4l-0.4-0.2c-0.2-0.1-22.1-9.9-43.7-30.5c-12.7-12.1-22.8-25.5-30.1-39.9
		c-9.1-18-13.7-37.4-13.8-57.9l0-0.9h175.9l0,0.9c0,20.4-4.7,39.9-13.8,57.9c-7.3,14.4-17.4,27.8-30.1,39.9
		c-21.6,20.6-43.5,30.4-43.7,30.5L375.2,333.4z M289,205.8c0.2,19.8,4.7,38.7,13.6,56.2c7.2,14.2,17.2,27.4,29.7,39.4
		c19.9,19,40,28.7,42.9,30.1c2.9-1.4,23-11.1,42.9-30.1c12.5-12,22.5-25.2,29.7-39.4c8.8-17.4,13.4-36.3,13.6-56.2H289z"/>
</g>
<path class="st2" d="M368.5,205.8h-13.4v-1.8h13.4V205.8z M341.7,205.8h-13.4v-1.8h13.4V205.8z M314.9,205.8h-13.4v-1.8h13.4V205.8z
	"/>
<g>
	<path class="st5" d="M301.5,204.9v56.9c0,0,6.7,13.2,13.4,21.5v-78.4H301.5z M328.3,204.9v93.8c0,0,8.4,8.2,13.4,12.2v-106H328.3
		L328.3,204.9z M355.1,204.9v115.9c0,0,9.6,6.2,13.4,8.2V204.9L355.1,204.9L355.1,204.9z"/>
	<path class="st2" d="M369.4,330.5l-1.3-0.7c-3.8-2-13.1-8-13.5-8.2l-0.4-0.3V204.1l15.2,0V330.5z M356,320.4
		c1.6,1.1,7.9,5.1,11.6,7.2V205.8H356V320.4z M342.6,312.7l-1.4-1.1c-5-3.9-13.4-12.2-13.5-12.2l-0.3-0.3v-95h15.2V312.7z
		 M329.2,298.4c1.3,1.3,7.2,7,11.6,10.7V205.8h-11.6V298.4z M315.8,285.8l-1.6-1.9c-6.7-8.3-13.4-21.5-13.5-21.6l-0.1-0.2v-58h15.2
		V285.8z M302.4,261.6c0.8,1.5,6,11.6,11.6,19.1v-74.9h-11.6V261.6z"/>
</g>
<path class="st2" d="M368.5,205.8h-13.4v-1.8h13.4V205.8z M341.7,205.8h-13.4v-1.8h13.4V205.8z M314.9,205.8h-13.4v-1.8h13.4V205.8z
	"/>
<g>
	<path class="st5" d="M448.9,204.9v56.9c0,0-6.7,13.2-13.4,21.5v-78.4H448.9z M422.1,204.9v93.8c0,0-8.4,8.2-13.4,12.2v-106H422.1z
		 M395.3,204.9v115.9c0,0-9.6,6.2-13.4,8.2V204.9L395.3,204.9L395.3,204.9z"/>
	<path class="st2" d="M381,330.5V204.1h15.2v117.3l-0.4,0.3c-0.4,0.3-9.6,6.2-13.5,8.2L381,330.5z M382.8,205.8v121.7
		c3.7-2.1,10-6.1,11.6-7.2V205.8L382.8,205.8z M407.8,312.7V204.1H423v95l-0.3,0.3c-0.1,0.1-8.5,8.3-13.5,12.2L407.8,312.7z
		 M409.6,205.8V309c4.4-3.7,10.3-9.4,11.6-10.7v-92.5H409.6z M434.6,285.8v-81.7h15.2v58l-0.1,0.2c-0.1,0.1-6.8,13.4-13.5,21.6
		L434.6,285.8z M436.3,205.8v74.9c5.6-7.5,10.9-17.6,11.6-19.1v-55.8H436.3z"/>
</g>
<path class="st6" d="M466.9,418.6l-8.1,9.9 M448.9,417.5l22.2,20.6"/>
<g>
	<path class="st4" d="M515.6,366.2l-3.4,13.8l9.2,9.2l-13.1,55.2l-11.6-15.6l-17.2,8l13.1-55.2l12.1-3.4l3.1-13.8
		C507.9,364.5,511.6,363.1,515.6,366.2L515.6,366.2z"/>
	<path class="st2" d="M508.8,446.5l-12.3-16.6l-18.2,8.5l13.6-57.5l12.1-3.4l3.1-13.7l0.4-0.2c0.2-0.1,4.2-1.6,8.6,1.8l0.5,0.4
		l-3.4,13.9l9.2,9.2L508.8,446.5z M497.1,427.7l10.9,14.7l12.5-52.9l-9.2-9.2l3.4-13.7c-2.7-1.9-5-1.6-6-1.4l-3.1,13.8l-12.1,3.4
		l-12.5,52.9L497.1,427.7z"/>
</g>
<g>
	<path class="st4" d="M518.7,357.1l-6.7,12.4l6.7,11.4l-26.2,49.8l-7.4-18.2l-18.6,3.1l26.2-49.8l12.5,0l6.4-12.5
		C511.7,353.4,516.3,353.4,518.7,357.1L518.7,357.1z"/>
	<path class="st2" d="M492.4,432.8l-7.8-19.4l-19.7,3.2l27.3-51.8l12.5,0l6.4-12.5l0.5,0c0,0,0,0,0,0c0.3,0,5.2,0.1,7.8,4.2l0.3,0.4
		l-6.7,12.4l6.7,11.4L492.4,432.8z M485.7,411.5l6.9,17.1l25.1-47.6l-6.7-11.4l6.6-12.4c-1.7-2.3-4.4-2.8-5.5-2.9l-6.4,12.4l-12.5,0
		l-25.1,47.7L485.7,411.5z"/>
</g>
<g>
	<path class="st4" d="M519.8,360.7l-17.7,22.5l4.1,12.7L470,438.2l-3.3-19.5l-18.8-1.4l36.1-42.3l12.2,3l18.8-23.9
		C515.1,354.1,520.1,356.6,519.8,360.7L519.8,360.7z"/>
	<path class="st2" d="M469.5,440.2l-3.5-20.7l-19.8-1.5l37.6-44l12.2,3l19.7-25l0.2,1.6c1.3,0.8,5.1,3.3,4.8,7.2l0,0.3l-17.6,22.3
		l4.1,12.7l-0.3,0.4L469.5,440.2z M449.7,416.5l17.7,1.3l3.1,18.4l34.6-40.5l-4-12.7l17.8-22.6c0-2.6-2.5-4.4-3.7-5.2L496.6,379
		l-12.2-3L449.7,416.5z"/>
</g>
<path class="st2" d="M195.1,156.1c-20.1-1.7-62.6-11.8-63-11.9l0.4-1.7c0.4,0.1,42.7,10.2,62.7,11.9L195.1,156.1z M181.8,138.8
	c-43.6-7.4-81.5-19.2-81.9-19.3l0.5-1.7c0.4,0.1,38.1,11.9,81.6,19.3L181.8,138.8z M168.9,119.6c-15.5-1.3-40.3-7.7-58.4-12.7
	C90.9,101.3,74.8,96.1,74.6,96l0.5-1.7c0.6,0.2,64.4,20.9,93.9,23.5L168.9,119.6z M161.8,104.6C123.6,97.5,99,90.4,85.2,85.7
	c-15.1-5.1-21-8.5-21.2-8.7l0.9-1.5c0.2,0.1,24.5,13.8,97.3,27.4L161.8,104.6z"/>
<path class="st2" d="M276,244c-0.2-0.2-2.4-2.3-0.9-10.1l1.7,0.3c-1.2,6.7,0.4,8.5,0.4,8.5L276,244z M257,239.8l-1.2-1.3
	c0.1,0,5.1-4.6,5.4-9.6l1.8,0.1C262.7,234.7,257.3,239.6,257,239.8z M239.8,233.4l-0.6-1.6c0.1,0,6.7-2.7,9.8-9.5l1.6,0.7
	C247.1,230.5,240.1,233.3,239.8,233.4z M273.2,223.3c0-0.1-1.1-2.4-0.8-6l1.8,0.2c-0.3,3.1,0.6,5.1,0.6,5.1L273.2,223.3z
	 M226.4,215.8l-0.5-1.7c0.1,0,9-2.4,14.1-5.7l1,1.5C235.6,213.3,226.8,215.7,226.4,215.8z M216.4,198.8l-0.1-1.8
	c0.1,0,10.6-0.5,15.6-1.3l0.3,1.7C227.1,198.2,216.8,198.7,216.4,198.8z M236.5,187.4l-0.3-0.8l-0.7-0.6c0.2-0.2,0.2-0.2,4.7-1.6
	l0.5,1.7C237.1,187.2,236.6,187.4,236.5,187.4z M219.6,186.6c-10.9,0-34.9-3.6-36-3.8l0.3-1.7c0.3,0,26.3,4,36.6,3.8l0,1.8
	C220.2,186.6,219.9,186.6,219.6,186.6z M252.4,174.2c-7.9-9.4-5.1-21.8-1.3-30.5c0.1-0.3,0.2-0.6,0.3-0.7l0.2-0.4
	c1.3-3.6,3.6-9.7-0.1-15.8c-3.8-6.4-15.6-11.2-15.8-11.2l0.7-1.6c0.5,0.2,12.5,5.1,16.6,11.9c4.1,6.8,1.7,13.4,0.2,17.3l-0.2,0.4
	c-0.1,0.2-0.2,0.4-0.3,0.8c-5.2,12-4.9,21.7,1,28.6L252.4,174.2z M205.8,172.7c-9.1-0.9-43.7-8.1-45.2-8.4l0.4-1.7
	c0.4,0.1,36,7.5,45,8.4L205.8,172.7z M224.9,171.5c-7.1-0.1-14.4-1.5-14.5-1.5l0.3-1.7c0.1,0,7.2,1.4,14.2,1.5L224.9,171.5z
	 M215.5,152.8c-7.5,0-14.9-0.7-15-0.7l0.2-1.8c0.1,0,8.5,0.8,16.4,0.7l0,1.8C216.5,152.8,216,152.8,215.5,152.8z"/>
<g>
	<path class="st1" d="M232.2,363.8c0,0-0.3-7.4,9.1-7.9l27.6,38.4c0,0-1,2.5-13.5,2.2c0,0-1.3,0-2,1.5
		C252.3,400.1,232.2,363.8,232.2,363.8L232.2,363.8z"/>
	<path class="st2" d="M253.1,398.8c-0.8,0-2.1-0.6-12-17.5c-4.9-8.5-9.7-17-9.7-17.1l-0.1-0.2l0-0.2c0-0.1-0.2-8.3,9.9-8.9l0.5,0
		l28.2,39.2l-0.2,0.5c-0.3,0.7-2.2,3-14.4,2.7c-0.1,0-0.8,0.1-1.2,0.9C253.9,398.6,253.6,398.8,253.1,398.8
		C253.2,398.8,253.1,398.8,253.1,398.8z M233.1,363.5c8.1,14.6,17.3,30.4,19.9,33.2c0.8-0.9,1.8-1.2,2.3-1.2c0,0,0,0,0,0
		c8.4,0.2,11.4-0.9,12.3-1.4l-26.8-37.3C233.6,357.4,233.1,362.4,233.1,363.5z M268.1,393.7L268.1,393.7L268.1,393.7z"/>
</g>
<path class="st2" d="M280.1,208.3c-9.6,0-12.5-7.2-13.3-9.6c-6.4,0-11-1.6-13.6-4.9c-2.6-3.3-2.5-7.3-2.2-9.2
	c-6.3-0.2-11.1-2-14.2-5.5c-4.5-5-3.9-11.4-3.9-11.7l1.8,0.2c0,0.1-0.5,6,3.5,10.4c3,3.3,7.7,4.9,13.9,4.9h1.1l-0.3,1.1
	c0,0-1.3,5,1.7,8.7c2.3,2.9,6.7,4.3,12.8,4.2l0.7,0l0.1,0.7c0.1,0.4,2.2,10.7,15.1,8.6l0.3,1.7C282.4,208.2,281.2,208.3,280.1,208.3
	z M236.2,164.1c-9.5-7.8-7.1-15.5-6-17.8c-3.9-2.9-5.9-6.3-6.2-9.9c-0.4-5.9,4.3-10.3,4.5-10.5l1.2,1.3l-0.6-0.6l0.6,0.6
	c0,0-4.3,4.1-3.9,9.1c0.2,3.3,2.2,6.3,6.1,9l0.7,0.5l-0.4,0.7c-0.2,0.3-4.8,8,5.3,16.3L236.2,164.1z M206.7,136
	c-6.6-0.1-18.5-2.5-19-2.6l0.3-1.7c0.1,0,12.3,2.4,18.7,2.5L206.7,136z M204,118.5c-11.2-1.5-26.3-5.8-26.5-5.9l0.5-1.7
	c0.2,0,15.2,4.3,26.3,5.8L204,118.5z"/>
<path class="st2" d="M248.6,335.6c-1.5,0-3.4-0.1-5.7-0.3l0.2-1.8c6.6,0.7,9.7,0,9.7,0l0.4,1.7C253.1,335.3,251.6,335.6,248.6,335.6
	z"/>
<path class="st2" d="M220.6,366.9c-0.3-9.1,1.3-15.3,4.6-18.3c2.2-2,4.4-1.8,4.5-1.7l-0.2,1.8l0.1-0.9l-0.1,0.9
	c-0.1,0-1.6-0.1-3.2,1.4c-2,1.8-4.2,6.2-3.9,16.9L220.6,366.9z M213.8,362.4c-0.2-9.2,1.5-15.3,4.9-18.4c2.5-2.2,5.1-1.9,5.2-1.9
	l-0.3,1.7l0.1-0.9l-0.1,0.9c-0.1,0-1.9-0.2-3.8,1.5c-2.1,1.9-4.5,6.3-4.3,17L213.8,362.4z"/>
<path class="st2" d="M280.9,314.1c-0.6,0-1,0-1,0l-2.1-0.2l1.6-1.3c0,0,2.4-2,3.2-6.9c1-5.7,4.2-7.5,4.3-7.5l0.8,1.5
	c-0.1,0.1-2.6,1.5-3.4,6.3c-0.5,3.1-1.6,5.1-2.5,6.4c1.5-0.1,3.5-0.6,4.8-2c2.7-3.1,6.5-3.9,6.6-3.9l0.4,1.7c0,0-3.4,0.7-5.7,3.3
	C285.9,313.8,282.6,314.1,280.9,314.1z M298.9,306.7c-0.7,0-1.1,0-1.2-0.1l-2.1-0.2l1.6-1.3c0,0,2.8-2.4,3.7-8
	c1.1-6.4,4.7-8.5,4.8-8.5l0.8,1.5c-0.1,0.1-3,1.8-3.9,7.3c-0.6,3.7-1.9,6.1-3,7.5c1.7-0.1,4.3-0.6,5.8-2.4c3.1-3.5,7.4-4.4,7.5-4.4
	l0.4,1.7c0,0-3.9,0.8-6.6,3.9C304.6,306.4,300.8,306.7,298.9,306.7z M281.9,291.4c-0.7,0-1.1,0-1.2-0.1l-2.1-0.2l1.6-1.3
	c0,0,2.8-2.4,3.7-8c1.1-6.4,4.7-8.5,4.8-8.5l0.8,1.5c-0.1,0.1-3,1.8-3.9,7.3c-0.6,3.7-1.9,6.1-3,7.5c1.7-0.1,4.3-0.6,5.8-2.4
	c3.1-3.5,7.4-4.4,7.5-4.4l0.4,1.7l-0.2-0.9l0.2,0.9c0,0-3.9,0.8-6.6,3.9C287.6,291,283.9,291.4,281.9,291.4z"/>
<g>
	<path class="st7" d="M462.3,140.2c0,0-42.6,22.3-87.1-1.8c-44.5,24.1-87.1,1.8-87.1,1.8v64.7h174.2V140.2z"/>
	<path class="st2" d="M463.1,205.8H287.2v-67l1.3,0.7c0.1,0.1,10.8,5.6,26.7,8.1c14.6,2.3,36.9,2.5,59.6-9.9l0.4-0.2l0.4,0.2
		c22.7,12.3,45,12.2,59.7,9.9c15.9-2.5,26.5-8,26.6-8l1.3-0.7V205.8z M289,204.1h172.4v-62.4c-3.3,1.5-12.9,5.6-25.8,7.6
		c-14.8,2.3-37.3,2.5-60.3-9.8c-23,12.4-45.5,12.2-60.3,9.8c-13-2-22.5-6.1-25.8-7.6V204.1z"/>
</g>
<g>
	<path class="st4" d="M71.2,308c4.2-1.7,7.3-3.4,7.2-7.9c0-1.1-0.6-3.4-1.8-7.1l-28.3-86.6c-1.7-5.1-2.9-8.2-3.5-9.3
		c-1.3-2.4-3.8-3.4-7.1-4.8h36c-3.9,1.8-7.5,3.3-7.4,7.5c0,1.6,0.5,3.8,1.4,6.7l21.7,68l21.7-68c0.9-2.9,1.4-5.1,1.4-6.7
		c0-4.3-3.8-5.8-7.4-7.5h34.9c-3.2,1.3-5.8,2.3-7.1,4.8c-0.6,1.1-1.9,4.2-3.5,9.3L100.9,293c-1.2,3.7-1.6,6.1-1.8,7.2
		c0,0-1.3,5.5,7.2,7.8L71.2,308L71.2,308z M675.2,299.1V201c0-1.7-0.3-3-0.8-3.9c-0.6-0.9-3-3.5-6.5-4.9h32.5
		c-3.5,1.1-5.9,3.9-6.5,4.9c-0.6,0.9-0.8,2.2-0.8,3.9v98.1c0,1.8,0.3,3.1,0.9,4c0.6,0.9,3,3.2,6.4,4.9h-32.5c3.5-1.6,5.9-4,6.5-4.9
		C674.9,302.2,675.2,300.9,675.2,299.1z"/>
	<path class="st2" d="M66.7,308.9l4.2-1.7c4.5-1.9,6.7-3.4,6.7-7.1c0-0.7-0.3-2.4-1.8-6.9l-28.3-86.6c-1.6-5-2.9-8.1-3.5-9.2
		c-1.1-2.1-3.3-3-6.5-4.3l-4.3-1.8h44.4l-4.1,1.9c-4,1.9-6.4,3.2-6.4,6.4c0,1.5,0.5,3.7,1.3,6.4l20.9,65.3l20.8-65.3
		c0.9-2.9,1.4-5,1.3-6.4c0-3.6-3-4.9-6.5-6.5l-4.1-1.9h43.5l-4.4,1.8c-3,1.2-5.3,2.1-6.5,4.4c-0.6,1.1-1.9,4.2-3.5,9.2l-28.3,86.6
		c-1.1,3.3-1.6,5.7-1.8,7.1l0,0.1c0,0.2-0.9,4.7,6.6,6.7l6.4,1.7L66.7,308.9z M41.8,193.1c1.6,0.9,3,1.9,3.8,3.5
		c0.7,1.2,1.9,4.4,3.6,9.5l28.3,86.6c1.2,3.8,1.8,6.2,1.8,7.4c0,3.6-1.7,5.5-4.2,7l26.8,0c-4.3-2.7-3.8-6.5-3.7-7.1
		c0.2-1.5,0.7-3.9,1.8-7.3l28.3-86.6c1.7-5.1,2.9-8.2,3.6-9.5c0.9-1.6,2.2-2.7,3.7-3.5h-26.9c2.4,1.4,4.4,3.3,4.5,6.6
		c0,1.6-0.4,3.9-1.4,7l-22.5,70.6l-22.6-70.6c-0.9-2.9-1.4-5.3-1.4-7c0-3.4,2-5.2,4.5-6.6H41.8z M704.2,308.9h-40.4l3.7-1.7
		c3.4-1.6,5.7-3.9,6.1-4.6c0.5-0.8,0.7-1.9,0.7-3.5V201c0-1.5-0.2-2.7-0.7-3.4c-0.5-0.8-2.8-3.2-6-4.6l-4.2-1.7h42.5l-5.2,1.7
		c-3.4,1.1-5.6,3.9-6,4.5c-0.5,0.8-0.7,2-0.7,3.5v98.1c0,1.6,0.2,2.8,0.7,3.6c0.5,0.8,2.8,3,6.1,4.5L704.2,308.9z M671.2,307.1H697
		c-2-1.3-3.4-2.7-3.9-3.5c-0.7-1.1-1-2.6-1-4.5V201c0-1.9,0.3-3.3,1-4.4c0.5-0.8,1.8-2.3,3.6-3.5h-25.3c2,1.3,3.3,2.8,3.7,3.6
		c0.7,1.1,1,2.5,1,4.4v98.1c0,1.9-0.3,3.4-1,4.5C674.6,304.4,673.2,305.8,671.2,307.1z"/>
</g>
</svg>
